<svg width="1732" height="1210" xmlns="http://www.w3.org/2000/svg"><path d="M747.822 20.563C641.57-14.463 523.814-2.624 448.642 50.24c-63.558 44.936-94.498 113.596-136.933 173.513-51.953 74.078-123.203 136.878-196.125 196.64-39.461 32.13-80.267 64.684-100.878 108.234-28.36 60.482-12.139 136.886 34.02 200.788 45.808 63.774 119.062 115.355 199.014 149.62 42.456 18.492 88.52 32.523 132.714 30.984 46.588-1.58 87.104-20.26 133.945-21.445 43.299-1.258 88.564 12.786 130.165 30.359 54.716 22.954 106.485 51.824 153.205 85.846 53.295 38.847 99.652 83.676 152.5 122.663 52.846 38.987 115.88 72.87 181.751 80.435 61.724 6.968 118.922-9.592 171.663-28.076 86.572-30.786 168.908-67.369 245.955-110.13 52.112-28.742 102.202-60.65 136.187-103.891 64.91-82.43 61.007-203.58-10.32-301.864-58.773-81.56-155.551-142.614-253.451-194.049-89.282-46.778-197.221-86.976-271.627-151.739-71.138-61.75-131.837-128.209-208.236-186.404-58.68-44.757-122.133-87.3-194.369-111.16z" fill="#EEF6FA" opacity=".74"></path></svg>