<svg width="1373" height="884" xmlns="http://www.w3.org/2000/svg"><path d="M378.068 2.063c-89.19 7.746-171.961 58.158-210.424 127.75C135.2 188.85 134.25 256.218 122.08 320.336c-14.67 79.095-47.098 155.537-81.72 230.046-18.8 40.149-38.456 81.11-39.782 124.182-1.648 59.727 34.515 117.217 88.709 154.051 53.896 36.85 124.09 54.162 193.712 54.864 37.065.617 75.365-3.693 107.35-20.216 33.733-17.382 57.577-46.788 91.62-63.93 31.418-15.98 69.135-20.005 105.28-19.852 47.489.071 94.69 6.044 139.816 18.014 51.488 13.683 99.776 34.702 150.979 48.656 51.203 13.955 108.273 20.178 159.075 3.694 47.567-15.547 84.341-48.959 117.23-82.423 53.846-55.295 102.74-113.914 145.786-175.81 29.172-41.717 55.855-85.35 67.107-132.782 21.54-90.461-19.769-189.148-103.367-245.687-69.065-47.062-159.552-64.077-247.81-72.762-80.448-7.815-172.518-3.757-247.741-31.555-71.867-26.438-137.556-60.367-212.16-82.054-57.321-16.705-117.446-29.936-178.096-24.71z" fill="#EEF6FA" opacity=".738"></path></svg>