<svg width="1055" height="689" xmlns="http://www.w3.org/2000/svg"><path d="M314.31.134c-68.155 2.38-133.128 38.08-165.16 90.44-27.035 44.427-30.442 96.589-42.256 145.776-14.312 60.69-42.028 118.603-71.334 174.93C19.657 441.625 3.073 472.565.347 505.885c-3.635 46.212 21.582 92.225 61.339 122.967 39.529 30.742 92.234 47.005 145.167 50.377 28.17 1.983 57.477.198 82.466-11.305 26.353-12.098 45.664-33.915 72.244-45.815 24.535-11.107 53.387-12.694 80.875-11.107 36.122 1.983 71.79 8.528 105.639 19.635 38.62 12.694 74.515 30.94 112.908 43.832 38.394 12.892 81.558 20.032 120.86 9.322 36.803-10.115 66.109-34.51 92.462-59.104C917.47 584.03 957 540.594 992.213 494.382c23.854-31.138 45.89-63.864 56.34-100.159 19.992-69.218-7.496-147.362-68.835-194.565-50.661-39.27-118.815-56.128-185.606-66.442-60.884-9.321-131.082-9.916-187.196-34.51-53.614-23.403-102.23-52.36-158.116-72.193C405.863 11.24 360.654-1.452 314.31.134z" fill="#EDF6FA" opacity=".722"></path></svg>