<svg id="Layer_1" data-name="Layer 1" xmlns="http://www.w3.org/2000/svg" viewBox="0 0 64 64"><defs><style>.cls-1{fill:none;stroke:#000;stroke-linecap:round;stroke-linejoin:round;stroke-width:2px;}</style></defs><title>Agreement</title><circle cx="23.72" cy="20" r="0.87"/><circle cx="45.51" cy="25.41" r="0.87"/><path class="cls-1" d="M30.59,42l-7.71-7.71a2.86,2.86,0,0,0-4,0l0,0"/><path class="cls-1" d="M30.32,22.34,24.86,27.8a2.26,2.26,0,0,0,0,3.18A2.25,2.25,0,0,0,28,31l5.8-5.8,9.42,9.42a5.36,5.36,0,0,1,0,7.55l-4.77,4.77a5.36,5.36,0,0,1-7.55,0l-.65-.65"/><path class="cls-1" d="M19.39,27.71l4.78-4.78a5.36,5.36,0,0,1,5.64-1.23"/><path class="cls-1" d="M43,34.32l-9.14-9.14L28,31a2.25,2.25,0,0,1-3.18,0,2.26,2.26,0,0,1,0-3.18l7.92-7.92a5,5,0,0,1,1.41-1,5.33,5.33,0,0,1,6.14,1l3.44,3.44"/><path class="cls-1" d="M30.3,46.28A2.85,2.85,0,0,1,26.56,46l-7.71-7.71a2.85,2.85,0,0,1,0-4l0,0a2.86,2.86,0,0,1,4,0L30.59,42"/><path class="cls-1" d="M18.39,34.37,13.07,29a3.37,3.37,0,0,1,0-4.76l5.1-5.1a3.37,3.37,0,0,1,3.57-.77"/><path class="cls-1" d="M45.1,32.2l5.83-5.83a3.37,3.37,0,0,0,0-4.76l-5.1-5.1a3.37,3.37,0,0,0-4.76,0h0"/></svg>