<svg id="Layer_1" data-name="Layer 1" xmlns="http://www.w3.org/2000/svg" viewBox="0 0 64 64"><defs><style>.cls-1{fill:none;stroke:#000;stroke-linecap:round;stroke-linejoin:round;stroke-width:2px;}</style></defs><title>Analytics</title><circle cx="23.43" cy="17.66" r="1"/><circle cx="48.67" cy="20.66" r="1"/><path class="cls-1" d="M49,24V47.85A4.36,4.36,0,0,1,44.48,52H18"/><polyline class="cls-1" points="43 49 43 49 42.97 49 41.71 49 41.35 49 40.09 49 36.38 49 29.44 49 23 49"/><path class="cls-1" d="M39,44V32.08a2,2,0,0,1,2-2h0a2,2,0,0,1,2,2V49"/><path class="cls-1" d="M32,47V35a2,2,0,0,1,2-2h0a2,2,0,0,1,2,2V49"/><path class="cls-1" d="M25,47V38a2,2,0,0,1,2-2h0a2,2,0,0,1,2,2V49"/><path class="cls-1" d="M19,45V40.9a2,2,0,0,1,2-2h0a2,2,0,0,1,2,2V49"/><path class="cls-1" d="M26.56,23.27c-.79.37-1.6.77-2.38,1.22A22.32,22.32,0,0,1,26.56,23.27Z"/><path class="cls-1" d="M24.11,24.53q-.72.42-1.36.88v0C23.19,25.08,23.65,24.8,24.11,24.53Z"/><path class="cls-1" d="M26.56,23.27c-.79.37-1.6.77-2.38,1.22A22.32,22.32,0,0,1,26.56,23.27Z"/><path class="cls-1" d="M26.56,23.27c-.79.37-1.6.77-2.38,1.22A22.32,22.32,0,0,1,26.56,23.27Z"/><path class="cls-1" d="M17.59,34.84v-.06a.65.65,0,0,1,0-.1l0-.16a.6.6,0,0,0,0-.11s0-.08,0-.12a18.31,18.31,0,0,1,.2-7.5c0-.18.09-.35.14-.52a14.54,14.54,0,0,1,3.24-5.92"/><path class="cls-1" d="M33,14.38l-.83-3.3,9,4.52,0,0-.74,1.05-1.27,1.83-.08.12-.62.89-1,1.5-1.58,2.27-.38.54-.12-.49-.56-2.2-.15-.61A44,44,0,0,0,27,23.08l-.44.19c-.79.37-1.6.77-2.38,1.22l-.07,0c-.46.27-.92.55-1.36.84a13.52,13.52,0,0,0-4.3,4.27,7.38,7.38,0,0,0-.54,1.14,3.27,3.27,0,0,0-.13.38,6,6,0,0,0-.24.95.63.63,0,0,0,0,.11h0a6,6,0,0,0-.09,1c0,.08,0,.15,0,.23a7.38,7.38,0,0,0,.13,1.25.58.58,0,0,0,0,.1v.08"/><circle cx="18.62" cy="48.94" r="1"/></svg>