<svg id="Layer_1" data-name="Layer 1" xmlns="http://www.w3.org/2000/svg" viewBox="0 0 64 64"><defs><style>.cls-1{fill:none;stroke:#000;stroke-linecap:round;stroke-linejoin:round;stroke-width:2px;}</style></defs><title>Anchor</title><path class="cls-1" d="M32,42.31a6,6,0,0,1-12.09,0"/><line class="cls-1" x1="32" y1="25" x2="32" y2="21"/><path class="cls-1" d="M44.09,37.34,46.51,42H44.09A6,6,0,1,1,32,42V28"/><polyline class="cls-1" points="20 42 17.49 42 19.91 37.34"/><path class="cls-1" d="M37.49,25a2,2,0,1,1,0,4H26.81a2.09,2.09,0,0,1-2.08-1.59,2,2,0,0,1,2-2.41H32"/><path class="cls-1" d="M34.62,18.27A2.63,2.63,0,1,1,32,15.65"/><circle cx="34.62" cy="24.63" r="1"/></svg>