<svg id="Layer_1" data-name="Layer 1" xmlns="http://www.w3.org/2000/svg" viewBox="0 0 64 64"><defs><style>.cls-1{fill:none;stroke:#000;stroke-linecap:round;stroke-linejoin:round;stroke-width:2px;}</style></defs><title>Announcement</title><line class="cls-1" x1="43" y1="20" x2="43" y2="39"/><path class="cls-1" d="M28.73,35.81h0A3.28,3.28,0,0,1,32,39.08v1.31a3.28,3.28,0,0,1-3.27,3.27h0a3.28,3.28,0,0,1-3.27-3.27"/><path class="cls-1" d="M29,36H20a2,2,0,0,1-2-2V28a2,2,0,0,1,2-2h7.08a9.59,9.59,0,0,0,5-1.42L40,19.73v21.7l-4.27-2.29"/><path class="cls-1" d="M15,27.84a1.94,1.94,0,0,0-.93,1.09,1.91,1.91,0,0,0-.1.61v2.54A1.93,1.93,0,0,0,15.92,34H18"/><line class="cls-1" x1="46" y1="31" x2="52" y2="31"/><path class="cls-1" d="M46.91,22.37a1.56,1.56,0,0,1,2.2,0h0a1.56,1.56,0,0,1,0,2.2l-2.95,2.95"/><path class="cls-1" d="M46.16,33.93l2.95,2.95a1.56,1.56,0,0,1,0,2.2h0a1.56,1.56,0,0,1-2.2,0"/><circle cx="43" cy="41" r="1"/></svg>