<svg id="Layer_1" data-name="Layer 1" xmlns="http://www.w3.org/2000/svg" viewBox="0 0 64 64"><defs><style>.cls-1{fill:none;stroke:#000;stroke-linecap:round;stroke-linejoin:round;stroke-width:2px;}</style></defs><title>Approve communication</title><path class="cls-1" d="M19.88,10.82A6,6,0,0,0,16,16.45V23a5.93,5.93,0,0,0,5.84,6H31"/><path class="cls-1" d="M41.9,15.61a5.56,5.56,0,0,0-4.41-5.43A5.66,5.66,0,0,0,36.06,10H25"/><line class="cls-1" x1="21" y1="17" x2="37" y2="17"/><line class="cls-1" x1="21" y1="22" x2="25" y2="22"/><path class="cls-1" d="M39.29,36.35l.75.78,2,2V36.42s.44,0,1-.06a7.07,7.07,0,0,0,3-.8,4.66,4.66,0,0,0,1.85-2.71A4.82,4.82,0,0,0,48,31.71V26.63a4.61,4.61,0,0,0-3.37-4.49A3.88,3.88,0,0,0,43.55,22H35"/><path class="cls-1" d="M28,31V26.16a4.63,4.63,0,0,1,3-4.36"/><line class="cls-1" x1="32" y1="27" x2="44" y2="27"/><path class="cls-1" d="M31.61,37.38c-.46,3.38-2.6,5-5.62,6.2"/><path class="cls-1" d="M31.69,34.39a2.1,2.1,0,0,1,2.1-2.1h0a2.1,2.1,0,0,1,2.1,2.1l-.76,5.51A1.89,1.89,0,0,0,37,42h4.28a4.16,4.16,0,0,1,4.29,4l-1,6c0,2.19-1.93,3-4.29,3H20"/></svg>