<svg id="Layer_1" data-name="Layer 1" xmlns="http://www.w3.org/2000/svg" viewBox="0 0 64 64"><defs><style>.cls-1{fill:none;stroke:#000;stroke-linecap:round;stroke-linejoin:round;stroke-width:2px;}</style></defs><title>Cash Register</title><circle class="cls-1" cx="20.5" cy="34.5" r="2.5"/><circle class="cls-1" cx="25.5" cy="34.5" r="2.5"/><path class="cls-1" d="M29.75,50.48a2.35,2.35,0,1,1,4.7,0"/><circle class="cls-1" cx="29.5" cy="34.5" r="2.5"/><circle class="cls-1" cx="34.5" cy="34.5" r="2.5"/><circle class="cls-1" cx="39.5" cy="34.5" r="2.5"/><circle class="cls-1" cx="43.5" cy="34.5" r="2.5"/><path class="cls-1" d="M22.71,30a2.35,2.35,0,1,1,4.7,0"/><path class="cls-1" d="M27.4,30a2.35,2.35,0,1,1,4.7,0"/><path class="cls-1" d="M32.1,30a2.35,2.35,0,1,1,4.7,0"/><path class="cls-1" d="M36.79,30a2.35,2.35,0,1,1,4.7,0"/><path class="cls-1" d="M29,23H43.66A6.36,6.36,0,0,1,50,29.34v7.32A6.36,6.36,0,0,1,43.66,43H21.33A6.35,6.35,0,0,1,15,36.67V29.3A6.32,6.32,0,0,1,20.9,23"/><path class="cls-1" d="M21,23V19.87a4.18,4.18,0,0,1,4.25-4.25,4,4,0,0,1,3.75,4V23"/><path class="cls-1" d="M32,21V17.81A1.81,1.81,0,0,1,33.81,16h9.38A1.81,1.81,0,0,1,45,17.81V21"/><line class="cls-1" x1="25" y1="19" x2="25" y2="23"/><line class="cls-1" x1="35" y1="19" x2="41" y2="19"/><path class="cls-1" d="M49,45.24v2.52A2.25,2.25,0,0,1,46.75,50H34.32a2.32,2.32,0,1,0-4.64,0H17.25A2.25,2.25,0,0,1,15,47.75V45.24A2.24,2.24,0,0,1,17.24,43H46.76A2.24,2.24,0,0,1,49,45.24Z"/></svg>