<svg id="Layer_1" data-name="Layer 1" xmlns="http://www.w3.org/2000/svg" viewBox="0 0 64 64"><defs><style>.cls-1{fill:none;stroke:#000;stroke-linecap:round;stroke-linejoin:round;stroke-width:2px;}</style></defs><title>Chart presentation</title><path class="cls-1" d="M42.8,20.32l1.43-2.49L45.87,15A10.58,10.58,0,0,1,50,23.45c0,.18,0,.37,0,.55H41"/><path class="cls-1" d="M38.35,21.14l-2.56-7.93a10.13,10.13,0,0,1,6.91.42l-.94,1.64-1.33,2.3"/><path class="cls-1" d="M27.36,20.42a10.88,10.88,0,0,1,2.7-3.78,11.25,11.25,0,0,1,.92-.76"/><path class="cls-1" d="M33.48,35A11,11,0,0,0,46.35,31.1a11.21,11.21,0,0,0,1.72-3.78"/><polyline class="cls-1" points="48 27 36.94 27 33.55 16.99"/><line class="cls-1" x1="17.75" y1="25.82" x2="13.96" y2="34.99"/><path class="cls-1" d="M18,26v8.07A2.07,2.07,0,0,0,20,36h5a2.07,2.07,0,0,0,2-1.9V26a3.08,3.08,0,0,0-.12-.85v-.05a2.27,2.27,0,0,0-.13-.36,2.15,2.15,0,0,0-.32-.56A2.76,2.76,0,0,0,24.15,23H23"/><path class="cls-1" d="M22.58,17a3,3,0,0,0,0,6"/><polyline class="cls-1" points="33.54 30.47 27.45 25.18 27.42 25.14 27.13 24.9"/><line class="cls-1" x1="18.75" y1="50.59" x2="17.75" y2="33.63"/><line class="cls-1" x1="27.08" y1="33.56" x2="26.12" y2="49.99"/><path class="cls-1" d="M22,41v9.57a.43.43,0,0,0,.43.43h2.86a.43.43,0,0,0,.43-.43"/></svg>