<svg id="Layer_1" data-name="Layer 1" xmlns="http://www.w3.org/2000/svg" viewBox="0 0 64 64"><defs><style>.cls-1{fill:none;stroke:#000;stroke-linecap:round;stroke-linejoin:round;stroke-width:2px;}</style></defs><title>Click</title><path class="cls-1" d="M46.92,43.49l-4.23-4.22,1.73-1.73a2.92,2.92,0,0,0-.83-4.71,2.74,2.74,0,0,0-.48-.18l-2.92-.78-1.83-.49L36.83,31l-3.22-.86A2.93,2.93,0,0,0,30,33.68l.9,3.34.38,1.42.52,1.92.76,2.83a2.91,2.91,0,0,0,4.89,1.31"/><path class="cls-1" d="M28.93,45.3A14.17,14.17,0,1,1,45.19,28.84"/><path class="cls-1" d="M27.83,40.75A10,10,0,1,1,40.71,28.08"/><path class="cls-1" d="M26.46,35.07a6,6,0,0,1-1.3-3.75,6.08,6.08,0,0,1,10.59-4.08"/><circle cx="39.71" cy="42.34" r="1"/></svg>