<svg id="Layer_1" data-name="Layer 1" xmlns="http://www.w3.org/2000/svg" viewBox="0 0 64 64"><defs><style>.cls-1{fill:none;stroke:#000;stroke-linecap:round;stroke-linejoin:round;stroke-width:2px;}</style></defs><title>Cloud Distribution</title><path d="M17,38.56a.91.91,0,0,0,.9-.9h0a.9.9,0,1,0-1.81,0h0A.91.91,0,0,0,17,38.56Z"/><path class="cls-1" d="M35.14,14.29a10.11,10.11,0,0,0-12.86,15,5.29,5.29,0,0,1,1.51,1.59,9.69,9.69,0,0,1-1.51-1.59,5.23,5.23,0,0,0-3-.91s-5.93-.46-6.61,5.72"/><path class="cls-1" d="M20,38H44.56a6.65,6.65,0,0,0,6.69-5.69,6.49,6.49,0,0,0-11.7-4.61,9.14,9.14,0,0,1-.78,1.39,6.17,6.17,0,0,1,.78-1.39A10.14,10.14,0,0,0,38.82,18"/><circle class="cls-1" cx="16.07" cy="47.77" r="3.16"/><path class="cls-1" d="M20,48h1.23A2.77,2.77,0,0,0,24,45.23V41"/><path class="cls-1" d="M51.51,46.46a3.16,3.16,0,1,1-2.87-1.84"/><path class="cls-1" d="M45,48H43.77A2.77,2.77,0,0,1,41,45.23V41"/><circle class="cls-1" cx="32.35" cy="47.77" r="3.16"/><line class="cls-1" x1="32" y1="44" x2="32" y2="41"/></svg>