<svg id="Layer_1" data-name="Layer 1" xmlns="http://www.w3.org/2000/svg" viewBox="0 0 64 64"><defs><style>.cls-1{fill:none;stroke:#000;stroke-linecap:round;stroke-linejoin:round;stroke-width:2px;}</style></defs><title>Cloud ladder</title><path d="M18,40.9a.91.91,0,0,0,.9-.9h0a.9.9,0,0,0-1.81,0h0A.91.91,0,0,0,18,40.9Z"/><path d="M28,51.9a.91.91,0,0,0,.9-.9h0a.9.9,0,1,0-1.81,0h0A.91.91,0,0,0,28,51.9Z"/><path class="cls-1" d="M36.14,16.63a10.11,10.11,0,0,0-12.86,15,5.29,5.29,0,0,1,1.51,1.59,9.69,9.69,0,0,1-1.51-1.59,5.23,5.23,0,0,0-3-.91s-5.93-.46-6.61,5.72"/><path class="cls-1" d="M40.55,29.69A10.14,10.14,0,0,0,39.82,20"/><path class="cls-1" d="M38,40h7.56a6.65,6.65,0,0,0,6.69-5.69,6.49,6.49,0,0,0-11.7-4.61"/><polyline class="cls-1" points="21 40 25.63 40 28 40"/><line class="cls-1" x1="28" y1="49" x2="28" y2="29"/><polyline class="cls-1" points="37 29 37 31.4 37 39.52 37 41.92 37 51"/><line class="cls-1" x1="37" y1="31" x2="31" y2="31"/><line class="cls-1" x1="37" y1="36" x2="31" y2="36"/><line class="cls-1" x1="37" y1="40" x2="31" y2="40"/><line class="cls-1" x1="37" y1="44" x2="31" y2="44"/><polygon points="37 31.42 37 39.52 38 41.92 38 31.4 37 31.42"/></svg>