<svg id="Layer_1" data-name="Layer 1" xmlns="http://www.w3.org/2000/svg" viewBox="0 0 64 64"><defs><style>.cls-1{fill:none;stroke:#000;stroke-linecap:round;stroke-linejoin:round;stroke-width:2px;}</style></defs><title>Coins</title><path class="cls-1" d="M31.27,16.08c1,0,1.83.49,1.83,1.1s-.82,1.1-1.83,1.1"/><path class="cls-1" d="M31.27,16.08c-1,0-1.83-.49-1.83-1.1s.82-1.1,1.83-1.1"/><polyline class="cls-1" points="31 19 31 18 29 18"/><polyline class="cls-1" points="31 13 31 14 33 14"/><path class="cls-1" d="M38.46,21.09a21.51,21.51,0,0,1-7.31,1.2,23.68,23.68,0,0,1-4.4-.4C22.1,21,18.8,18.75,18.8,16.11c0-3.41,5.53-6.18,12.35-6.18,4.42,0,8.31,1.17,10.49,2.92a7.21,7.21,0,0,1,.69.65,4.87,4.87,0,0,1,.74,1,3.42,3.42,0,0,1,.42,1.61"/><path class="cls-1" d="M43.49,21.09a3.56,3.56,0,0,1-.68,2,6.34,6.34,0,0,1-1,1.06,12.18,12.18,0,0,1-4.28,2.19,22.2,22.2,0,0,1-6.41.9,22.72,22.72,0,0,1-5.24-.59,11.81,11.81,0,0,1-6-3,4.38,4.38,0,0,1-.9-1.38"/><polyline class="cls-1" points="43 16 43 16.11 43 19.33 43 21"/><path class="cls-1" d="M40.12,41.39l-.64.34a20.16,20.16,0,0,1-8.6,1.75,20,20,0,0,1-8.6-1.75A7.28,7.28,0,0,1,19,39h0"/><path class="cls-1" d="M19.43,44.22c1.63,2.45,6.26,4.23,11.72,4.23,4.56,0,8.55-1.24,10.69-3.09a6.34,6.34,0,0,0,1-1.06l.06-.08a3.57,3.57,0,0,0,.62-1.95"/><line class="cls-1" x1="43" y1="39" x2="43" y2="43"/><path class="cls-1" d="M18.8,46.16c0,3.42,5.53,6.18,12.35,6.18a19.21,19.21,0,0,0,9.39-2.17"/><path class="cls-1" d="M43.49,51.14a3.53,3.53,0,0,1-.68,2,5.77,5.77,0,0,1-1,1.06c-2.13,1.85-6.12,3.09-10.69,3.09-5.65,0-10.42-1.9-11.88-4.5"/><line class="cls-1" x1="43" y1="51" x2="43" y2="42"/><path class="cls-1" d="M19,46V43a5.24,5.24,0,0,0,.63,1.22"/><path class="cls-1" d="M43.49,19.33a13,13,0,0,1,4.66,2.19,7.15,7.15,0,0,1,.69.64,4.72,4.72,0,0,1,.73,1A3.39,3.39,0,0,1,50,24.78"/><path class="cls-1" d="M25.91,26.68C27.52,29.17,32.17,31,37.65,31l1,0a19,19,0,0,0,8-1.94"/><path class="cls-1" d="M25.93,31.7A11,11,0,0,0,30.46,35h0a33.86,33.86,0,0,0,7.18,1H38a28.17,28.17,0,0,0,4.84-.65,13,13,0,0,0,5.48-2.51,6,6,0,0,0,1-1.06,3.53,3.53,0,0,0,.68-2"/><polyline class="cls-1" points="50 24 50 24.78 50 30"/><path class="cls-1" d="M19.93,23.9C16.37,25,14,27,14,29.18s2.54,4.33,6.3,5.39a22.67,22.67,0,0,0,6.05.79A23.46,23.46,0,0,0,30.46,35H30"/><path class="cls-1" d="M14.2,35.68A8.71,8.71,0,0,0,19,39.05h0a21.74,21.74,0,0,0,7.08,1.11c4.56,0,8.55-1.24,10.69-3.09a6,6,0,0,0,1-1.06s0,0,0,0H38"/><circle cx="41" cy="20" r="1"/></svg>