<svg id="Layer_1" data-name="Layer 1" xmlns="http://www.w3.org/2000/svg" viewBox="0 0 64 64"><defs><style>.cls-1{fill:none;stroke:#000;stroke-linecap:round;stroke-linejoin:round;stroke-width:2px;}</style></defs><title>Confirm protection</title><path class="cls-1" d="M31.81,15.59A7.43,7.43,0,0,1,24.41,23h0A7.42,7.42,0,0,1,17,15.59v4.49A32.88,32.88,0,0,0,31.81,47.55"/><line class="cls-1" x1="32" y1="48" x2="32" y2="41"/><path class="cls-1" d="M32.19,47.55A32.88,32.88,0,0,0,47,20.08V15.59A7.42,7.42,0,0,1,39.6,23h0a7.43,7.43,0,0,1-7.4-7.41"/><path class="cls-1" d="M26.09,33.09,28,35a2.5,2.5,0,0,0,3.53,0l6.91-6.9"/><line class="cls-1" x1="32" y1="17" x2="32" y2="28"/></svg>