<svg id="Layer_1" data-name="Layer 1" xmlns="http://www.w3.org/2000/svg" viewBox="0 0 64 64"><defs><style>.cls-1{fill:none;stroke:#000;stroke-linecap:round;stroke-linejoin:round;stroke-width:2px;}</style></defs><title>Contactbook</title><path class="cls-1" d="M42.38,17.64a8.77,8.77,0,0,0,6.22,2.91"/><path class="cls-1" d="M38,21H22.54a9,9,0,0,1-6.41-3,1.85,1.85,0,0,1-.4-2.12A2.47,2.47,0,0,1,18,15H44.79a2.48,2.48,0,0,0-2.23.88A1.76,1.76,0,0,0,42.77,18"/><path class="cls-1" d="M21,43V25.56a6.64,6.64,0,0,1-4.71-2.2A1.35,1.35,0,0,1,16,21.8V34"/><path class="cls-1" d="M16,39.88a4.18,4.18,0,0,0,1.26,1.59,7.36,7.36,0,0,0,1.81,1,5.9,5.9,0,0,0,2.1.43"/><path class="cls-1" d="M16,44.7a2.4,2.4,0,0,0,.57,1.39A8.77,8.77,0,0,0,22.77,49H49"/><line class="cls-1" x1="49" y1="21" x2="49" y2="49"/><line class="cls-1" x1="16" y1="45" x2="16" y2="40"/><circle cx="40.67" cy="20.55" r="1"/><line class="cls-1" x1="29.77" y1="34.47" x2="26.47" y2="42.46"/><path class="cls-1" d="M34,32h1.42A2.58,2.58,0,0,1,38,34.58v6.6A1.82,1.82,0,0,1,36.18,43H31.82A1.82,1.82,0,0,1,30,41.18V34"/><path class="cls-1" d="M34,26.78A2.61,2.61,0,1,0,34,32"/><line class="cls-1" x1="37.67" y1="33.52" x2="41.09" y2="42.46"/></svg>