<svg id="Layer_1" data-name="Layer 1" xmlns="http://www.w3.org/2000/svg" viewBox="0 0 64 64"><defs><style>.cls-1,.cls-2{fill:none;}.cls-1{stroke:#000;stroke-linecap:round;stroke-linejoin:round;stroke-width:2px;}</style></defs><title>Currency</title><path class="cls-1" d="M30.47,48.06l-.54,0h-.66A15.54,15.54,0,0,1,14,32.91c0-.12,0-.24,0-.36s0-.24,0-.36A15.54,15.54,0,0,1,29.27,17c.11,0,.21,1,.32,0h.08c0,1,.07,0,.1,0H30a12.1,12.1,0,0,1,2.34.33"/><path class="cls-1" d="M29.58,42.26A23,23,0,0,1,21.89,41c-4.54-1.61-7.65-4.62-7.85-8.09,0-.12,0-.24,0-.36s0-.24,0-.36a7.26,7.26,0,0,1,2-4.46,11.8,11.8,0,0,1,2.21-1.86,15.5,15.5,0,0,1,1.9-1.06,18.27,18.27,0,0,1,1.71-.7,21.34,21.34,0,0,1,3.59-.93"/><path class="cls-1" d="M29.93,48.08h-.66c-3.09-.18-5.79-3-7.38-7.1a23.85,23.85,0,0,1-1.47-8.45,23.85,23.85,0,0,1,1.47-8.45c1.58-4.13,4.28-6.91,7.38-7.1"/><path class="cls-1" d="M41,43.12a15.62,15.62,0,0,1-3.17,2.62,15.46,15.46,0,0,1-7.92,2.35h-.66l-.54,0"/><path class="cls-1" d="M29.56,42.26A23,23,0,0,0,37.25,41"/><path class="cls-1" d="M29.22,48.08h.66c3.09-.18,5.79-3,7.38-7.1"/><line class="cls-1" x1="30" y1="18" x2="30" y2="47"/><path class="cls-2" d="M42.34,35h-2a6.51,6.51,0,0,0,1.91-.36,7.53,7.53,0,0,0,4.79-7v-.26A7.27,7.27,0,0,0,40,20h-.14A6.62,6.62,0,0,0,36,21.37v0a7.76,7.76,0,0,1,7-2.87A8.07,8.07,0,0,1,49,22.8a8.72,8.72,0,0,1,1,3c0,.24,0,.48.07.71A7.94,7.94,0,0,1,42.34,35Z"/><path class="cls-1" d="M33.34,29.48a8.5,8.5,0,1,1,17,0"/><path class="cls-1" d="M50.34,29.48a8.5,8.5,0,1,1-17,0"/><path class="cls-1" d="M35.94,23.15a6.7,6.7,0,1,1,13.29-1.6"/><path class="cls-1" d="M41.84,29.48a1.83,1.83,0,1,1,1.83-1.83"/><path class="cls-1" d="M41.84,33.15A1.83,1.83,0,0,1,40,31.31"/><path class="cls-1" d="M41.84,29.48a1.83,1.83,0,0,1,0,3.67"/><line class="cls-1" x1="42" y1="26" x2="42" y2="24"/><line class="cls-1" x1="42" y1="35" x2="42" y2="33"/></svg>