<svg id="Layer_1" data-name="Layer 1" xmlns="http://www.w3.org/2000/svg" viewBox="0 0 64 64"><defs><style>.cls-1{fill:none;stroke:#000;stroke-linecap:round;stroke-linejoin:round;stroke-width:2px;}.cls-2{fill:#f7bc37;}.cls-3{fill:#cbcaca;}</style></defs><title>Currency shopping</title><path class="cls-1" d="M46,33V43.76C46,48.84,42.1,53,37.33,53H26.67C21.9,53,18,48.84,18,43.76V39"/><path class="cls-1" d="M43,25h3.17A3.84,3.84,0,0,1,50,28.83"/><path class="cls-1" d="M33.1,25.25l.25-.25.53-.52.67-.68.79-.78,0,0,.11-.11.6-.6.89-.89,6.74-6.74a2,2,0,0,1,2.86,0,2,2,0,0,1,0,2.86L41.17,22.9,39.07,25l-.48.48-3,3-.48.48a2,2,0,0,1-2.83,0l-3.7-3.71L28.3,25H17.7a3.91,3.91,0,0,0-3.79,3.19,4.08,4.08,0,0,0,0,1.62,4,4,0,0,0,1.05,2A3.81,3.81,0,0,0,17.7,33H46"/><path class="cls-1" d="M36,37h0a2,2,0,0,1,2,2v6.22a2,2,0,0,1-2,2h0a2,2,0,0,1-2-2V41"/><path class="cls-1" d="M28,37h0a2,2,0,0,1,2,2v6.22a2,2,0,0,1-2,2h0a2,2,0,0,1-2-2V41"/><circle cx="26" cy="39" r="1"/><circle cx="34" cy="39" r="1"/><circle cx="49" cy="32" r="1"/><path class="cls-1" d="M22,14.7a8.5,8.5,0,1,1,17,0"/><path class="cls-1" d="M30.48,14.7a1.83,1.83,0,1,1,1.83-1.83"/><path class="cls-1" d="M30.48,14.7a1.83,1.83,0,0,1,0,3.67"/><line class="cls-1" x1="30" y1="11" x2="30" y2="9"/><path class="cls-1" d="M28,21.37a6.67,6.67,0,0,0-6.66-6.67H21.1a6.61,6.61,0,0,0-5.36,3.05,4.82,4.82,0,0,0-.35.63,6.48,6.48,0,0,0-.71,3"/><path class="cls-1" d="M21.34,21.37a1.44,1.44,0,1,1,1-2.47"/><path class="cls-1" d="M21.34,21.37a1.43,1.43,0,0,1,1.09.5"/><line class="cls-1" x1="21" y1="18" x2="21" y2="17"/><path class="cls-2" d="M28.65,22h0Z"/><path class="cls-3" d="M49,23h0a0,0,0,0,1,0,0Z"/></svg>