<svg id="Layer_1" data-name="Layer 1" xmlns="http://www.w3.org/2000/svg" viewBox="0 0 64 64"><defs><style>.cls-1{fill:none;stroke:#000;stroke-linecap:round;stroke-linejoin:round;stroke-width:2px;}</style></defs><title>Customer service</title><path class="cls-1" d="M51.14,32a18.52,18.52,0,0,0-36.57-4.11s-.07.29-.24.29-.22-.19-.22-.19a2,2,0,0,0-2-2h-.18A1.94,1.94,0,0,0,10,27.94v8.12A1.94,1.94,0,0,0,11.94,38h.18a2,2,0,0,0,2-2s0-.31.18-.31.25.29.25.29a18.54,18.54,0,0,0,14,14.07,5,5,0,0,0,1.36.29c.26,0,.21-.27.26-.45a2.57,2.57,0,1,1,2.32,3.19"/><path class="cls-1" d="M50,34V27.94A1.94,1.94,0,0,1,51.94,26h.12A1.94,1.94,0,0,1,54,27.94v7.79a1.93,1.93,0,0,1-.53,1.32"/><path class="cls-1" d="M37,45.5a4.22,4.22,0,0,1,1.3,5.79"/><circle cx="50" cy="37.83" r="1"/></svg>