<svg id="Layer_1" data-name="Layer 1" xmlns="http://www.w3.org/2000/svg" viewBox="0 0 64 64"><defs><style>.cls-1,.cls-2{fill:none;}.cls-1{stroke:#000;stroke-linecap:round;stroke-linejoin:round;stroke-width:2px;}</style></defs><title>Delivery settings</title><path class="cls-1" d="M46.29,48.05a2.63,2.63,0,1,1-5.25,0"/><path class="cls-1" d="M26.21,48.05a2.63,2.63,0,1,1-5.25,0"/><path class="cls-1" d="M35.11,24.54A5.62,5.62,0,0,1,38,29.44V41"/><path class="cls-1" d="M42,27l5,0a2.81,2.81,0,0,1,2.7,2.1L53,41.76A3.25,3.25,0,0,1,49.75,45H21.6A5.62,5.62,0,0,1,16,39.4V29"/><polyline class="cls-1" points="42 31 42 36 46 36"/><circle class="cls-1" cx="25.18" cy="26.76" r="5.51"/><circle class="cls-1" cx="25.18" cy="26.76" r="2.21"/><rect x="24" y="18" width="2" height="3" rx="0.65" ry="0.65"/><rect x="19.1" y="20.33" width="2.43" height="3.13" rx="0.65" ry="0.65" transform="translate(-9.53 20.78) rotate(-45)"/><rect x="17.5" y="25.5" width="2" height="3" rx="0.65" ry="0.65" transform="translate(-8.5 45.5) rotate(-90)"/><rect x="19.1" y="30.05" width="2.43" height="3.13" rx="0.65" ry="0.65" transform="translate(12.32 68.34) rotate(-135)"/><path d="M26,32.72v1.83c.39.36.1.65-.26.45H24.61c-.36.2-.65-.09-.61-.45V32.72a.53.53,0,0,1,.24-.53,2,2,0,0,1,.37-.19h1.13a2,2,0,0,1,.37.19C26.28,32.31,26.39,32.5,26,32.72Z"/><rect x="28.82" y="30.05" width="2.43" height="3.13" rx="0.65" ry="0.65" transform="translate(73.64 32.74) rotate(135)"/><rect x="31.5" y="25.5" width="2" height="3" rx="0.65" ry="0.65" transform="translate(59.5 -5.5) rotate(90)"/><rect x="28.82" y="20.33" width="2.43" height="3.13" rx="0.65" ry="0.65" transform="translate(24.28 -14.83) rotate(45)"/><path class="cls-1" d="M18.63,25.84a4.18,4.18,0,1,1,2.76-7.32"/><rect x="18" y="15" width="2" height="2" rx="0.49" ry="0.49"/><rect x="14.07" y="16.83" width="1.83" height="2.35" rx="0.49" ry="0.49" transform="translate(-8.34 15.87) rotate(-45)"/><rect x="12" y="21" width="2" height="2" rx="0.49" ry="0.49" transform="translate(-9 35) rotate(-90)"/><rect x="14.07" y="24.13" width="1.83" height="2.35" rx="0.49" ry="0.49" transform="translate(7.68 53.79) rotate(-135)"/><path class="cls-2" d="M25.9,37.1s0,0,0,0c-.68-1.65-1.27-1.85-1.27-1.85"/><path class="cls-1" d="M33.14,17.95s-3.55-4.12-8.78-2.82"/></svg>