<svg id="Layer_1" data-name="Layer 1" xmlns="http://www.w3.org/2000/svg" viewBox="0 0 64 64"><defs><style>.cls-1{fill:none;stroke:#000;stroke-linecap:round;stroke-linejoin:round;stroke-width:2px;}</style></defs><title>Delivery</title><path class="cls-1" d="M31,28.29l.59,8.12A1.65,1.65,0,0,1,29.86,38h-6.3a1.6,1.6,0,0,1-1.64-1.55l.57-7.9A1.6,1.6,0,0,1,24.12,27H25v1.7A1.33,1.33,0,0,0,26.36,30H27a1.33,1.33,0,0,0,1.36-1.29"/><path class="cls-1" d="M46.79,47a2.63,2.63,0,0,1-5.25,0"/><path class="cls-1" d="M26.72,47a2.63,2.63,0,0,1-5.25,0"/><path class="cls-1" d="M41,26l5.28,0a2.81,2.81,0,0,1,2.7,2.1l3.31,12.62A3.25,3.25,0,0,1,49.05,44H21.6A5.62,5.62,0,0,1,16,38.4V28.6A5.62,5.62,0,0,1,21.6,23H32.4A5.62,5.62,0,0,1,38,28.6V40"/><polyline class="cls-1" points="41 30 41 35 46 35"/><line class="cls-1" x1="35" y1="19" x2="20" y2="19"/><line class="cls-1" x1="39" y1="15" x2="31" y2="15"/><line class="cls-1" x1="18" y1="46" x2="11" y2="46"/></svg>