<svg id="Layer_1" data-name="Layer 1" xmlns="http://www.w3.org/2000/svg" viewBox="0 0 64 64"><defs><style>.cls-1{fill:none;stroke:#000;stroke-linecap:round;stroke-linejoin:round;stroke-width:2px;}</style></defs><title>Dollar bills</title><circle cx="28.09" cy="22.74" r="0.91"/><path class="cls-1" d="M31,23H47a3,3,0,0,1,3,3V39a3,3,0,0,1-3,3H24a3,3,0,0,1-3-3V26a3,3,0,0,1,3-3"/><path class="cls-1" d="M17,42V26a3,3,0,0,1,3-3h5"/><path class="cls-1" d="M17,42.17a3,3,0,0,1-3-3V25.78a3,3,0,0,1,1.21-2.42"/><path class="cls-1" d="M35.26,32.46a2.18,2.18,0,1,1,2.18-2.18"/><line class="cls-1" x1="35" y1="28" x2="35" y2="26"/><line class="cls-1" x1="35" y1="37" x2="35" y2="39"/><path class="cls-1" d="M35.26,32.46a2.18,2.18,0,1,1-2.18,2.18"/></svg>