<svg id="Layer_1" data-name="Layer 1" xmlns="http://www.w3.org/2000/svg" viewBox="0 0 64 64"><defs><style>.cls-1{fill:none;stroke:#000;stroke-linecap:round;stroke-linejoin:round;stroke-width:2px;}</style></defs><title>Down analytics</title><path class="cls-1" d="M48,23V46.85A4.36,4.36,0,0,1,43.48,51H17"/><polyline class="cls-1" points="42 48 42.14 48 42.11 48 40.85 48 40.5 48 39.23 48 35.53 48 28.58 48 22 48"/><path class="cls-1" d="M38,43V30.94a2,2,0,0,1,2-2h0a2,2,0,0,1,2,2V48"/><path class="cls-1" d="M32,45V33.88a2,2,0,0,1,2-2h0a2,2,0,0,1,2,2V48"/><path class="cls-1" d="M25,45V36.82a2,2,0,0,1,2-2h0a2,2,0,0,1,2,2V48"/><path class="cls-1" d="M18,44V39.76a2,2,0,0,1,2-2h0a2,2,0,0,1,2,2V48"/><circle cx="30.12" cy="13.22" r="1" transform="translate(1.54 29.51) rotate(-53.38)"/><path class="cls-1" d="M32.76,19.09c.77-.42,1.57-.82,2.4-1.19A22.34,22.34,0,0,0,32.76,19.09Z"/><path class="cls-1" d="M35.23,17.87q.76-.33,1.52-.57l0,0C36.22,17.46,35.72,17.66,35.23,17.87Z"/><path class="cls-1" d="M32.76,19.09c.77-.42,1.57-.82,2.4-1.19A22.34,22.34,0,0,0,32.76,19.09Z"/><path class="cls-1" d="M32.76,19.09c.77-.42,1.57-.82,2.4-1.19A22.34,22.34,0,0,0,32.76,19.09Z"/><path class="cls-1" d="M47.39,18.79l0,0,0,0-.07-.08-.11-.13-.08-.08L47,18.37a18.31,18.31,0,0,0-6.14-4.31l-.51-.2a14.55,14.55,0,0,0-6.68-.93"/><path class="cls-1" d="M21.8,18.93l-2.15-2.64-1.72,9.89h0l1.29,0,2.22.07h.14l1.08,0,1.83.06,2.77.08.66,0-.32-.39-1.44-1.76-.4-.49a44,44,0,0,1,6.53-4.51l.42-.24c.77-.42,1.57-.82,2.4-1.19l.07,0c.49-.21,1-.41,1.49-.59a13.52,13.52,0,0,1,6-.91,7.38,7.38,0,0,1,1.23.25,3.27,3.27,0,0,1,.39.12,5.94,5.94,0,0,1,.9.37l.09.05h0a6,6,0,0,1,.83.51l.19.13a7.38,7.38,0,0,1,.93.85l.07.08,0,0,0,0v0"/><circle cx="17.76" cy="47.8" r="1"/></svg>