<svg id="Layer_1" data-name="Layer 1" xmlns="http://www.w3.org/2000/svg" viewBox="0 0 64 64"><defs><style>.cls-1{fill:none;stroke:#000;stroke-linecap:round;stroke-linejoin:round;stroke-width:2px;}</style></defs><title>Folder analytics</title><path class="cls-1" d="M47.44,20a4.33,4.33,0,0,1,.61.58,3.86,3.86,0,0,1,1,2.52V46.9A4.32,4.32,0,0,1,44.51,51h-26A4.32,4.32,0,0,1,14,46.9V23.1A4.32,4.32,0,0,1,18.49,19H25"/><polyline class="cls-1" points="44 47 43.61 47 43.59 47 42.32 47 41.97 47 40.7 47 37 47 30.05 47 23 47"/><path class="cls-1" d="M40,43V30.43a2,2,0,0,1,2-2h0a2,2,0,0,1,2,2V47"/><path class="cls-1" d="M33,45V33.37a2,2,0,0,1,2-2h0a2,2,0,0,1,2,2V47"/><path class="cls-1" d="M26,45V36.31a2,2,0,0,1,2-2h0a2,2,0,0,1,2,2V47"/><path class="cls-1" d="M19,45V39.25a2,2,0,0,1,2-2h0a2,2,0,0,1,2,2V47"/><line class="cls-1" x1="44" y1="23" x2="19" y2="23"/><path class="cls-1" d="M16.8,18h0a3,3,0,0,1,3-3h8a3,3,0,0,1,3,3h0"/><polyline class="cls-1" points="31 17 31 18 41 18"/><circle cx="43.97" cy="18.42" r="1"/></svg>