<svg id="Layer_1" data-name="Layer 1" xmlns="http://www.w3.org/2000/svg" viewBox="0 0 64 64"><defs><style>.cls-1{fill:none;stroke:#000;stroke-linecap:round;stroke-linejoin:round;stroke-width:2px;}</style></defs><title>Gift train</title><path class="cls-1" d="M10,23V17h4.61c.17.58,2.92.56,4.21.17.52-.16.8-.37.61-.66s-.51-.23-.84-.25a3.21,3.21,0,0,1-.41-.05,4.39,4.39,0,0,1-1.06-.39,1.8,1.8,0,0,1-.87-2.22,1.46,1.46,0,0,1,2.39-.8,1.85,1.85,0,0,1,.18.19c.52.61.7,1.46,1.29,2a5.56,5.56,0,0,0,.51.41,2.63,2.63,0,0,1,1.63-2.64c1-.34,2.62,0,2.43,1.36a2.35,2.35,0,0,1-1.53,1.67,2.62,2.62,0,0,1-2.53-.39,2.26,2.26,0,0,0,.16.77c.48,1.2,3.07,1.82,3.07,1.82H28v5H24v9H14V22h6"/><circle cx="11" cy="32" r="1"/><circle cx="14" cy="48" r="1"/><circle cx="11" cy="41" r="1"/><path class="cls-1" d="M27,26h2.47l6,6h2.91A8.89,8.89,0,0,1,46,36.38l4.53,7.68A2.62,2.62,0,0,1,48.31,48H37V40h4"/><path class="cls-1" d="M18,48H33V38.46A2.46,2.46,0,0,0,30.54,36h-.08A2.46,2.46,0,0,0,28,38.46V41H25V38.36a3.33,3.33,0,0,0-2.93-2.46h0A2,2,0,0,0,20,38.36V42H15"/><line class="cls-1" x1="54" y1="52" x2="13" y2="52"/></svg>