<svg id="Layer_1" data-name="Layer 1" xmlns="http://www.w3.org/2000/svg" viewBox="0 0 64 64"><defs><style>.cls-1{fill:none;stroke:#000;stroke-linecap:round;stroke-linejoin:round;stroke-width:2px;}</style></defs><title>Gift delivery</title><circle cx="16" cy="50" r="1"/><path class="cls-1" d="M45.58,47.07a2.39,2.39,0,1,1-4.77,0"/><path class="cls-1" d="M27.35,47.07a2.39,2.39,0,1,1-4.77,0"/><path class="cls-1" d="M34.89,25.48A5.11,5.11,0,0,1,38,30.17V41"/><path class="cls-1" d="M41,28l4.5,0a2.55,2.55,0,0,1,2.45,1.91l2.93,11.18A2.89,2.89,0,0,1,48,44H23.09A5.1,5.1,0,0,1,18,38.91V38"/><polyline class="cls-1" points="40 31 40 36 45 36"/><line class="cls-1" x1="38" y1="50" x2="19" y2="50"/><line class="cls-1" x1="51" y1="50" x2="42" y2="50"/><path class="cls-1" d="M13,25V19h4.64c.17.56,2.92.53,4.21.14.52-.16.8-.37.61-.66s-.51-.23-.84-.25a3.23,3.23,0,0,1-.41-.05,4.38,4.38,0,0,1-1.06-.39,1.8,1.8,0,0,1-.87-2.22,1.46,1.46,0,0,1,2.39-.8,1.84,1.84,0,0,1,.18.19c.52.61.7,1.46,1.29,2a5.54,5.54,0,0,0,.51.41,2.63,2.63,0,0,1,1.63-2.64c1-.34,2.62,0,2.43,1.36a2.35,2.35,0,0,1-1.53,1.67,2.62,2.62,0,0,1-2.53-.39,2.26,2.26,0,0,0,.16.77c.48,1.2,3.07,1.85,3.07,1.85H31v5H27v9H17V24h6"/></svg>