<svg id="Layer_1" data-name="Layer 1" xmlns="http://www.w3.org/2000/svg" viewBox="0 0 64 64"><defs><style>.cls-1{fill:none;stroke:#000;stroke-linecap:round;stroke-linejoin:round;stroke-width:2px;}</style></defs><title>Gift</title><path class="cls-1" d="M35,35H22V55H42V36h8V26H42.26c-2.4-.07-5.18-1-6.14-3.41a5,5,0,0,1-.33-1.54,5.27,5.27,0,0,1,3.26-5.28c1.93-.67,5.24.07,4.87,2.72a4.71,4.71,0,0,1-3.06,3.35,5.28,5.28,0,0,1-5.07-.79,8.82,8.82,0,0,1-1-.82c-1.18-1.11-1.55-2.8-2.58-4a4.25,4.25,0,0,0-.36-.37c-1.7-1.54-4-.58-4.78,1.59a3.63,3.63,0,0,0,1.75,4.44,8.84,8.84,0,0,0,2.12.78c.2.05.5.07.82.11.66.05,1.43.14,1.67.5.38.58-.19,1-1.21,1.32-2.59.79-8.08.85-8.44.43H15V36"/></svg>