<svg id="Layer_1" data-name="Layer 1" xmlns="http://www.w3.org/2000/svg" viewBox="0 0 64 64"><defs><style>.cls-1{fill:none;stroke:#000;stroke-linecap:round;stroke-linejoin:round;stroke-width:2px;}</style></defs><title>Hourglass</title><path class="cls-1" d="M45.23,24.23l-5.47-5.47-1.32-1.32-3.3-3.3-3.54,3.54A10.26,10.26,0,0,0,30,30.15v0h0a10.32,10.32,0,0,0-7.77-1.1,10.2,10.2,0,0,0-4.71,2.69L14,35.3,28.52,49.82l3.54-3.54A10.21,10.21,0,0,0,33.77,44a10.06,10.06,0,0,0,.88-2.09,10.39,10.39,0,0,0,.19-5.12.91.91,0,0,1,0-.13c0-.18-.09-.37-.15-.56a.31.31,0,0,1,0-.08,10,10,0,0,0-1-2.28c.21.12.43.24.64.35a10.28,10.28,0,0,0,11.85-1.93l3.56-3.52"/><path class="cls-1" d="M31.54,41.2a13,13,0,0,1-2.94,3.28.57.57,0,0,1-.29.15.59.59,0,0,1-.42-.23l-8.25-8.28a.35.35,0,0,1-.13-.21.34.34,0,0,1,.08-.2,9.42,9.42,0,0,1,4-3.46c2.36-1,3.61.8,4.2,2.92.18.63.31,1.28.47,1.92.39,1.61,1.23,4.2,3.3,4.13"/><path class="cls-1" d="M33,24.67a2.14,2.14,0,0,0-.68,1.25,4.66,4.66,0,0,0,1.49,4.34,5.55,5.55,0,0,0,4.48,1.26c.49-.07,1.13-.32,1.1-.92a1.65,1.65,0,0,0-.17-.59,13.69,13.69,0,0,0-2.92-4.72C35.33,24.38,33.89,23.94,33,24.67Z"/><path class="cls-1" d="M50,36.33A12.8,12.8,0,0,1,39.53,48.74"/><path class="cls-1" d="M15.92,26.11a10,10,0,0,1,8.17-9.69"/></svg>