<svg id="Layer_1" data-name="Layer 1" xmlns="http://www.w3.org/2000/svg" viewBox="0 0 64 64"><defs><style>.cls-1{fill:none;stroke:#000;stroke-linecap:round;stroke-linejoin:round;stroke-width:2px;}</style></defs><title>Idea</title><path class="cls-1" d="M33.77,35a4.26,4.26,0,0,1,.14-2.69,12.84,12.84,0,0,1,1.62-2.4c1.51-2.12-5-1.76-5.75-1.64a5.55,5.55,0,0,0-.64.14c-1.45.42-.79,1.63-.13,2.47a5.56,5.56,0,0,1,1.5,2.46,4.27,4.27,0,0,1-1.95,4.08c-1.73,1.24-3.59.7-5-.77a9.84,9.84,0,0,1-2.43-6.84A10.85,10.85,0,1,1,32,40.62"/><line class="cls-1" x1="32" y1="12" x2="32" y2="16"/><line class="cls-1" x1="41.19" y1="13.86" x2="39.3" y2="17.42"/><line class="cls-1" x1="23.07" y1="13.75" x2="24.91" y2="17.33"/><line class="cls-1" x1="28.42" y1="47.16" x2="25.63" y2="53.92"/><path class="cls-1" d="M32,45h.82A2.18,2.18,0,0,1,35,47.18v5.28A1.54,1.54,0,0,1,33.46,54H29.54A1.54,1.54,0,0,1,28,52.46V47"/><path class="cls-1" d="M32,40.65a2.21,2.21,0,0,0,0,4.42"/><line class="cls-1" x1="35.11" y1="46.35" x2="38" y2="53.92"/></svg>