<svg id="Layer_1" data-name="Layer 1" xmlns="http://www.w3.org/2000/svg" viewBox="0 0 64 64"><defs><style>.cls-1{fill:none;stroke:#000;stroke-linecap:round;stroke-linejoin:round;stroke-width:2px;}</style></defs><title>Innovative</title><path class="cls-1" d="M29,45h6.4a2,2,0,0,1,2,2h0a2,2,0,0,1-2,2H29"/><circle cx="32" cy="52.86" r="1"/><path class="cls-1" d="M33.77,35.34a4.26,4.26,0,0,1,.14-2.69,12.84,12.84,0,0,1,1.62-2.4c1.51-2.12-5-1.76-5.75-1.64a5.53,5.53,0,0,0-.64.14c-1.45.42-.79,1.63-.13,2.47a5.56,5.56,0,0,1,1.5,2.46,4.27,4.27,0,0,1-1.95,4.08c-1.73,1.24-3.59.7-5-.77-2.22-2.33-2.85-6-2.18-9.45a10.12,10.12,0,0,1,6.33-7.42A10.87,10.87,0,1,1,32,41H29a2,2,0,0,0-1.41.59A2,2,0,0,0,27,43.47a2.06,2.06,0,0,0,2,1.53H35"/><line class="cls-1" x1="32" y1="12" x2="32" y2="16"/><line class="cls-1" x1="41.19" y1="14.41" x2="39.3" y2="17.98"/><line class="cls-1" x1="23.07" y1="14.3" x2="24.91" y2="17.89"/></svg>