<svg id="Layer_1" data-name="Layer 1" xmlns="http://www.w3.org/2000/svg" viewBox="0 0 64 64"><defs><style>.cls-1{fill:none;stroke:#000;stroke-linecap:round;stroke-linejoin:round;stroke-width:2px;}</style></defs><title>International team member</title><path class="cls-1" d="M33,50.92l-.54,0h-.66A15.54,15.54,0,0,1,16.59,35.77c0-.12,0-.24,0-.36s0-.24,0-.36A15.54,15.54,0,0,1,31.82,19.86c.11,0,.21,0,.32-.86h.08a3.35,3.35,0,0,0,.1,1h.16c0-.14,0-.14,0-.13a12.1,12.1,0,0,1,2.34.33"/><path class="cls-1" d="M32.13,45.13a23,23,0,0,1-7.69-1.27c-4.54-1.61-7.65-4.62-7.85-8.09,0-.12,0-.24,0-.36s0-.24,0-.36a7.26,7.26,0,0,1,2-4.46,11.8,11.8,0,0,1,2.21-1.86,15.51,15.51,0,0,1,1.9-1.06,18.23,18.23,0,0,1,1.71-.7A21.34,21.34,0,0,1,28,26"/><path class="cls-1" d="M32.48,50.95h-.66c-3.09-.18-5.79-3-7.38-7.1A23.85,23.85,0,0,1,23,35.41,23.85,23.85,0,0,1,24.44,27c1.58-4.13,4.28-6.91,7.38-7.1"/><path class="cls-1" d="M43.51,46a15.51,15.51,0,0,1-11.09,5h-.66l-.54,0"/><path class="cls-1" d="M32.11,45.13a23,23,0,0,0,7.69-1.27"/><path class="cls-1" d="M31.77,50.95h.66c3.09-.18,5.79-3,7.38-7.1"/><line class="cls-1" x1="32" y1="20" x2="32" y2="50"/><line class="cls-1" x1="38.94" y1="20.46" x2="35.86" y2="27.89"/><path class="cls-1" d="M43,18h1.6A2.4,2.4,0,0,1,47,20.4v5.9A1.7,1.7,0,0,1,45.3,28H40.7A1.7,1.7,0,0,1,39,26.3V20"/><path class="cls-1" d="M42.85,13.3a2.43,2.43,0,0,0,0,4.87"/><line class="cls-1" x1="46.29" y1="19.57" x2="49.47" y2="27.89"/><line class="cls-1" x1="39.75" y1="40.55" x2="38.94" y2="26.79"/><line class="cls-1" x1="46.5" y1="26.73" x2="45.72" y2="40.05"/><path class="cls-1" d="M43,33v7.65a.35.35,0,0,0,.35.35h2.32a.35.35,0,0,0,.35-.35"/></svg>