<svg id="Layer_1" data-name="Layer 1" xmlns="http://www.w3.org/2000/svg" viewBox="0 0 64 64"><defs><style>.cls-1,.cls-2,.cls-3{fill:none;}.cls-1,.cls-3{stroke:#000;stroke-linecap:round;stroke-linejoin:round;stroke-width:2px;}.cls-3{stroke-dasharray:3 4 6 8 0;}</style></defs><title>International delivery</title><path class="cls-1" d="M43,24.09s.21-7.3-6.14-10.75"/><path class="cls-1" d="M47.18,50.49a2.63,2.63,0,1,1-5.25,0"/><path class="cls-1" d="M27.1,50.49a2.63,2.63,0,1,1-5.25,0"/><line class="cls-1" x1="38" y1="30" x2="38" y2="44"/><path class="cls-1" d="M44,29l4,0a2.81,2.81,0,0,1,2.7,2.1L54,43.76A3.25,3.25,0,0,1,50.77,47H22.6A5.62,5.62,0,0,1,17,41.4V31"/><polyline class="cls-1" points="43 34 43 39 47 39"/><path class="cls-2" d="M26.79,39.53s0,0,0-.05c-.68-1.65-1.27-1.85-1.27-1.85"/><path class="cls-1" d="M30.46,14.53a14.65,14.65,0,0,0-5.78-1.63A12.54,12.54,0,0,1,30.46,14.53Z"/><path class="cls-1" d="M31.44,22.11c-.13-.69-.29-1.39-.48-2.09A17.86,17.86,0,0,1,31.44,22.11Z"/><path class="cls-3" d="M27.67,18A20,20,0,0,0,24,17.69V34"/><path class="cls-1" d="M28.08,14.56a6.7,6.7,0,0,0-.77-.64,2.61,2.61,0,0,0-.28-.17,5.34,5.34,0,0,0-.83-.41l-.41-.17-.08,0-.18-.07L25.35,13a4.63,4.63,0,0,0-.83-.13s0,1,0,.1h-.14c0,.88,0-.12-.08,0H24.2a.24.24,0,0,0-.26-.11,12.61,12.61,0,0,0-5.3,1.27,12.75,12.75,0,0,0-7.22,11.22c0,.1,0,.2,0,.3s0,.19,0,.3A12.79,12.79,0,0,0,23.94,38.46h.55l.44,0a10.22,10.22,0,0,0,1.24-.13q.34,0,.69-.12"/><polyline class="cls-1" points="32.04 32 32.68 32.74 33.84 34.08"/><path class="cls-1" d="M24,17.69v16a18.92,18.92,0,0,1-6.33-1c-3.74-1.33-6.29-3.8-6.46-6.65,0-.1,0-.2,0-.3s0-.2,0-.3a6,6,0,0,1,1.68-3.67,9.71,9.71,0,0,1,1.82-1.53,12.75,12.75,0,0,1,1.56-.87,15,15,0,0,1,1.41-.58,17.56,17.56,0,0,1,3-.76A20.13,20.13,0,0,1,24,17.69Z"/><path class="cls-1" d="M30.94,20q-.18-.64-.42-1.23h0C30.7,19.14,30.82,19.55,30.94,20Z"/><path class="cls-1" d="M31.44,22.11c-.13-.69-.29-1.39-.48-2.09A17.86,17.86,0,0,1,31.44,22.11Z"/><path class="cls-1" d="M24,18V33.68a20,20,0,0,0,3.67-.33"/><path class="cls-1" d="M24.49,38.46h-.54c-2.54-.15-4.77-2.44-6.07-5.84a19.61,19.61,0,0,1-1.21-7,19.61,19.61,0,0,1,1.21-7c1.3-3.4,3.52-5.69,6.07-5.84"/><path class="cls-1" d="M31.44,22.11c-.13-.69-.29-1.39-.48-2.09A17.86,17.86,0,0,1,31.44,22.11Z"/><polyline class="cls-1" points="24 13 24 17.68 24 27.51 24 33.67 24 38"/><path class="cls-1" d="M24,13h.27c0,.89.05-.11.09,0h.13c0-.1.06-.1.09-.1h.1a14.65,14.65,0,0,1,5.78,1.63l.38.21a11.64,11.64,0,0,1,4,3.67"/><path class="cls-1" d="M37,29h2.84l-5.28,6.1,0,0-.67-.79-1.17-1.35-.07-.09L32,32.19l-1-1.11L29.62,29.4l-.35-.4H32a35.34,35.34,0,0,0-.51-6.36c0-.12,0-.25-.06-.38-.13-.69-.29-1.4-.48-2.1l0-.06c-.12-.41-.25-.82-.39-1.23a10.87,10.87,0,0,0-2.48-4.19,5.92,5.92,0,0,0-.78-.64,2.61,2.61,0,0,0-.27-.18,4.78,4.78,0,0,0-.69-.37l-.08,0h0a4.83,4.83,0,0,0-.74-.26l-.18,0a5.93,5.93,0,0,0-1-.14H24"/></svg>