<svg id="Layer_1" data-name="Layer 1" xmlns="http://www.w3.org/2000/svg" viewBox="0 0 64 64"><defs><style>.cls-1{fill:none;stroke:#000;stroke-linecap:round;stroke-linejoin:round;stroke-width:2px;}.cls-2{fill:#7da9d6;}</style></defs><title>International shopping</title><line class="cls-1" x1="38" y1="17" x2="26" y2="17"/><line class="cls-1" x1="41" y1="14" x2="34" y2="14"/><path class="cls-1" d="M30,19.59s0,0,0-.59h-.16c0,.58-.07.58-.1,1h-.08c-.1-.42-.21-.42-.32-.41A15.54,15.54,0,0,0,14,34.77c0,.12,0,.24,0,.36s0,.24,0,.36A15.54,15.54,0,0,0,29.27,50.68h.66l.54,0"/><path class="cls-1" d="M29.59,44.85a23,23,0,0,1-7.69-1.27C17.35,42,14.25,39,14,35.5c0-.12,0-.24,0-.36s0-.24,0-.36a7.26,7.26,0,0,1,2-4.46,11.8,11.8,0,0,1,2.21-1.86,15.48,15.48,0,0,1,1.9-1.06,18.27,18.27,0,0,1,1.71-.7,21.34,21.34,0,0,1,3.59-.93"/><path class="cls-1" d="M29.93,50.67h-.66c-3.09-.18-5.79-3-7.38-7.1a23.85,23.85,0,0,1-1.47-8.45,23.85,23.85,0,0,1,1.47-8.45c1.58-4.13,4.28-6.91,7.38-7.1"/><path class="cls-1" d="M41,45.71a15.51,15.51,0,0,1-11.09,5h-.66l-.54,0"/><path class="cls-1" d="M29.56,44.85a23,23,0,0,0,7.69-1.27"/><path class="cls-1" d="M29.22,50.67h.66c3.09-.18,5.79-3,7.38-7.1"/><path class="cls-1" d="M41.55,39.62a1.66,1.66,0,0,1-1.66,1.66,1.63,1.63,0,0,1-.47-.07,1.66,1.66,0,1,1,2.13-1.59Z"/><path class="cls-1" d="M48.84,39.62a1.66,1.66,0,0,1-1,1.54,1.6,1.6,0,0,1-.62.12,1.66,1.66,0,0,1-.89-3.06,1.62,1.62,0,0,1,.89-.26A1.66,1.66,0,0,1,48.84,39.62Z"/><polyline class="cls-1" points="45 27 44.41 27 35.73 27 35.73 27"/><path class="cls-1" d="M32.39,21.29a2.3,2.3,0,0,1,.41,0A2.22,2.22,0,0,1,35,23"/><polyline class="cls-1" points="34.97 23.04 35.26 24.46 36.78 31.91 37.63 36.04"/><path class="cls-1" d="M36,36H47.06l.33,0a3.43,3.43,0,0,0,.67-.12,2.31,2.31,0,0,0,1.5-1.11,3.68,3.68,0,0,0,.29-2A11.87,11.87,0,0,0,49.24,30a22.74,22.74,0,0,0-.93-2.33L48,27"/><polyline class="cls-1" points="42 22 39.18 22 38 22 38 24"/><path class="cls-2" d="M42,21h1.56a.44.44,0,0,1,.44.44V22a0,0,0,0,1,0,0H42a0,0,0,0,1,0,0V21A0,0,0,0,1,42,21Z"/><polyline class="cls-1" points="47 22 47 18 45.21 18 42 18 42 19"/><polyline class="cls-1" points="44 24 44 23.44 44 22 42.13 22 42 22"/><line class="cls-1" x1="30" y1="25" x2="30" y2="50"/></svg>