<svg id="Layer_1" data-name="Layer 1" xmlns="http://www.w3.org/2000/svg" viewBox="0 0 64 64"><defs><style>.cls-1{fill:none;stroke:#000;stroke-linecap:round;stroke-linejoin:round;stroke-width:2px;}</style></defs><title>Laptop shopping</title><path class="cls-1" d="M7.67,36.78A19.19,19.19,0,0,1,10.2,21.94"/><path class="cls-1" d="M54.9,24.49A24.13,24.13,0,0,1,53.6,44.2"/><path class="cls-1" d="M44,23h3.36A2.64,2.64,0,0,1,50,25.64V47"/><path class="cls-1" d="M18,54H49.19a1.86,1.86,0,0,0,1.68-1,2,2,0,0,0-1.75-3H15V25.63a2.59,2.59,0,0,1,1.47-2.35A2.53,2.53,0,0,1,17.64,23H20"/><path class="cls-1" d="M32.53,32.41a2.29,2.29,0,1,1,2.29-2.29"/><line class="cls-1" x1="33" y1="28" x2="33" y2="26"/><line class="cls-1" x1="33" y1="37" x2="33" y2="39"/><path class="cls-1" d="M32.53,32.41a2.29,2.29,0,1,1-2.29,2.29"/><path class="cls-1" d="M33.11,20.29s-.42,1.87,1.48,1.87S36.3,20,36.3,20a3.89,3.89,0,1,0-7.78,0L27.2,20a3.38,3.38,0,0,0-3.38,2.73,3,3,0,0,0,0,.52l-.33,4.62-.86,11.91A3.35,3.35,0,0,0,26,43h12.8a3.34,3.34,0,0,0,3.43-3.24l-1.34-16-.09-1,0-.36"/><rect class="cls-1" x="30" y="13" width="4" height="4"/><circle cx="15" cy="54" r="1"/><line class="cls-1" x1="26" y1="12" x2="26" y2="15"/><line class="cls-1" x1="22" y1="10" x2="22" y2="18"/><line class="cls-1" x1="39" y1="10" x2="39" y2="18"/></svg>