<svg id="Layer_1" data-name="Layer 1" xmlns="http://www.w3.org/2000/svg" viewBox="0 0 64 64"><defs><style>.cls-1{fill:none;stroke:#000;stroke-linecap:round;stroke-linejoin:round;stroke-width:2px;}</style></defs><title>Laptop shopping basket</title><path class="cls-1" d="M7.94,36.78a19.19,19.19,0,0,1,2.53-14.84"/><path class="cls-1" d="M44.35,11.8a24.2,24.2,0,0,1,9.52,32.4"/><path class="cls-1" d="M44,23h3.36A2.64,2.64,0,0,1,50,25.64V47"/><path class="cls-1" d="M18,54H49.46a1.86,1.86,0,0,0,1.68-1,2,2,0,0,0-1.75-3H15V25.63a2.59,2.59,0,0,1,1.47-2.35A2.53,2.53,0,0,1,17.64,23H20"/><circle cx="15" cy="54" r="1"/><line class="cls-1" x1="26" y1="12" x2="26" y2="15"/><line class="cls-1" x1="22" y1="10" x2="22" y2="18"/><line class="cls-1" x1="39" y1="10" x2="39" y2="18"/><path class="cls-1" d="M41,32v6.45A5.43,5.43,0,0,1,35.74,44H29.26A5.43,5.43,0,0,1,24,38.45V36"/><path class="cls-1" d="M41.47,27.26a2.31,2.31,0,0,1,2.3,2.3"/><path class="cls-1" d="M42.08,20.55a1.27,1.27,0,0,1,0,1.79l-3.36,3.35L37.41,27l-.3.3-1.88,1.88-.33.33a1.2,1.2,0,0,1-1.7,0l-2.35-2.35L30.68,27H24.06a2.44,2.44,0,0,0-2.37,2,2.55,2.55,0,0,0,0,1,2.51,2.51,0,0,0,.66,1.26,2.38,2.38,0,0,0,1.71.73H42"/><path class="cls-1" d="M35.36,35h0c.66,0,1.2.54.64,1.2v3.73c.56.66,0,1.2-.64,1.2h0A1.48,1.48,0,0,1,34,39.89V37"/><path class="cls-1" d="M30.56,35h0A1.66,1.66,0,0,1,32,36.16v3.73a1.66,1.66,0,0,1-1.44,1.2h0c-.66,0-1.2-.54-.56-1.2V37"/><path class="cls-1" d="M27.94,20a5.1,5.1,0,0,1,10.21,0"/><path class="cls-1" d="M31.56,24a4,4,0,0,0-4-4h-.14a4,4,0,0,0-3.22,1.83,2.88,2.88,0,0,0-.21.38A3.89,3.89,0,0,0,23.56,24"/></svg>