<svg id="Layer_1" data-name="Layer 1" xmlns="http://www.w3.org/2000/svg" viewBox="0 0 64 64"><defs><style>.cls-1{fill:none;stroke:#000;stroke-linecap:round;stroke-linejoin:round;stroke-width:2px;}</style></defs><title>Life preserver</title><circle cx="43" cy="23" r="1"/><path class="cls-1" d="M40.9,20.8A14.31,14.31,0,0,0,33,17.73c-.34,0-.67,0-1,0A14.38,14.38,0,0,0,17.61,32.19a14.38,14.38,0,0,0,28.75-.12M36.88,26A7.85,7.85,0,1,1,32,24.23c.37,0,1.34.32,1.09.07-1.68-1.59-1.22-4.82-.07-6.57-.34,0-.67,0-1,0a14.24,14.24,0,0,0-5.48,1.09A5.93,5.93,0,0,0,28,25.32a7.84,7.84,0,0,1,4-1.09"/><line class="cls-1" x1="31.91" y1="17.69" x2="31.91" y2="17.69"/><line class="cls-1" x1="31.91" y1="24.23" x2="31.91" y2="24.23"/><path class="cls-1" d="M25.23,36.05a5.93,5.93,0,0,1-6.54,1.49,14.24,14.24,0,0,1-1.09-5.48c0-.34,0-.68,0-1a5.86,5.86,0,0,0,3.23,1"/><path class="cls-1" d="M37.88,43.17a5.86,5.86,0,0,1-.42,2.19A14.23,14.23,0,0,1,32,46.44c-.34,0-.68,0-1,0a5.89,5.89,0,0,0-.07-6.57A8.09,8.09,0,0,0,32,39.9"/><path class="cls-1" d="M39.74,33a8.09,8.09,0,0,0,.07-1.09,7.84,7.84,0,0,0-1.09-4A5.89,5.89,0,0,1,43.08,26h.12a2.81,2.81,0,0,1,2.63,2,14.31,14.31,0,0,1,.52,3.85c0,.34,0,.68,0,1a5.89,5.89,0,0,0-6.57.07Z"/><path class="cls-1" d="M14.12,29.22h0a4.18,4.18,0,0,1,3-7.28h0"/><path class="cls-1" d="M28.79,50.12h0a4.18,4.18,0,0,1-7.28-3h0"/><path class="cls-1" d="M49.69,35.45h0a4.18,4.18,0,0,1-3,7.28h0"/><path class="cls-1" d="M35,14.55h0a4.18,4.18,0,0,1,7.28,3h0"/></svg>