<svg id="Layer_1" data-name="Layer 1" xmlns="http://www.w3.org/2000/svg" viewBox="0 0 64 64"><defs><style>.cls-1{fill:none;stroke:#000;stroke-linecap:round;stroke-linejoin:round;stroke-width:2px;}</style></defs><title>Load into truck</title><path class="cls-1" d="M45.08,44.37a2.39,2.39,0,1,1-4.77,0"/><path class="cls-1" d="M26.85,44.37a2.39,2.39,0,1,1-4.77,0"/><path class="cls-1" d="M39.79,25.49a3,3,0,0,0-2.79,3V38"/><path class="cls-1" d="M40,25l4.63,0a2.55,2.55,0,0,1,2.45,1.91L50,38.12A2.89,2.89,0,0,1,47.14,41H22.49a5,5,0,0,1-5-5H33"/><polyline class="cls-1" points="41 29 41 34 45 34"/><polyline class="cls-1" points="24 17 24 20 21.47 20 26.36 25.64 31.25 20 29 20"/><polyline class="cls-1" points="24 23 24 26 21.47 26 26.36 31.64 31.25 26 29 26"/><path d="M28.3,24a1,1,0,0,0,1-1h0a1,1,0,1,0-2,0h0A1,1,0,0,0,28.3,24Z"/><circle cx="15" cy="48" r="1"/><line class="cls-1" x1="37" y1="48" x2="18" y2="48"/><line class="cls-1" x1="50" y1="48" x2="41" y2="48"/></svg>