<svg id="Layer_1" data-name="Layer 1" xmlns="http://www.w3.org/2000/svg" viewBox="0 0 64 64"><defs><style>.cls-1{fill:none;stroke:#000;stroke-linecap:round;stroke-linejoin:round;stroke-width:2px;}</style></defs><title>Location</title><path class="cls-1" d="M30.51,19.65s0,1,0,.35h-.17c0,.64-.07-.36-.11,0H30.1c-.11-.36-.22-.36-.33-.36A16.23,16.23,0,0,0,13.86,35.5c0,.13,0,.25,0,.38s0,.25,0,.38A16.23,16.23,0,0,0,29.77,52.12h.69l.56,0"/><path class="cls-1" d="M30.1,46a24,24,0,0,1-8-1.33c-4.74-1.69-8-4.83-8.2-8.45,0-.13,0-.25,0-.38s0-.25,0-.38A7.58,7.58,0,0,1,16,30.84,12.33,12.33,0,0,1,18.3,28.9a16.19,16.19,0,0,1,2-1.11,19.06,19.06,0,0,1,1.78-.74,22.29,22.29,0,0,1,3.75-1"/><path class="cls-1" d="M30.46,52.11h-.69c-3.23-.19-6.05-3.09-7.7-7.41a24.9,24.9,0,0,1-1.54-8.83,24.9,24.9,0,0,1,1.54-8.83c1.65-4.32,4.47-7.22,7.7-7.41"/><path class="cls-1" d="M29.15,52.08l.56,0h.69a16.25,16.25,0,0,0,13.88-8.37,17.61,17.61,0,0,0,2.23-8.41"/><path class="cls-1" d="M28.62,19.83a5.57,5.57,0,0,1,1-.18s0,1,0,.35h.17c0,.64.07-.36.11,0h.08c.11-.36.22-.36.33-.36a11.14,11.14,0,0,1,3,.35"/><path class="cls-1" d="M30.08,46a24,24,0,0,0,8-1.33"/><path class="cls-1" d="M39.26,40.48A13.44,13.44,0,0,0,39.47,39"/><path class="cls-1" d="M29.72,52.11h.69c3.23-.19,6.05-3.09,7.7-7.41a21.57,21.57,0,0,0,.75-2.38"/><line class="cls-1" x1="30" y1="20" x2="30" y2="52"/><path class="cls-1" d="M39.62,31.05a8.57,8.57,0,1,1,5.88-.73l-.44.21"/><polyline class="cls-1" points="42.84 32.24 41.57 34.44 39.62 31.05"/><circle class="cls-1" cx="41.57" cy="22.6" r="4.04"/></svg>