<svg id="Layer_1" data-name="Layer 1" xmlns="http://www.w3.org/2000/svg" viewBox="0 0 64 64"><defs><style>.cls-1{fill:none;stroke:#000;stroke-linecap:round;stroke-linejoin:round;stroke-width:2px;}</style></defs><title>Mass Message</title><path class="cls-1" d="M23.76,49.5A6.78,6.78,0,0,1,17,42.74V34.67a5.54,5.54,0,0,1,0-.61,6.58,6.58,0,0,1,.77-2.58,7.61,7.61,0,0,1,.84-1.16"/><path class="cls-1" d="M15.64,28.13a7.93,7.93,0,0,0-.84,1.16A6.46,6.46,0,0,0,14,31.87a4.61,4.61,0,0,0,0,.61v8.07a6.78,6.78,0,0,0,3.2,5.74"/><line class="cls-1" x1="33.75" y1="41.25" x2="41.89" y2="33.84"/><path class="cls-1" d="M47,34V44.24A6.78,6.78,0,0,1,40.24,51H27.76A6.78,6.78,0,0,1,21,44.24V36.17a5.58,5.58,0,0,1,0-.61A6.62,6.62,0,0,1,21.8,33a7.61,7.61,0,0,1,.83-1.16.83.83,0,0,1,.2-.17.9.9,0,0,1,1.1.08l10.21,9.14"/><path class="cls-1" d="M27,29h9.23c2.5,0,5.08-.29,7.39.88,2,1,3.38,1.92,3.38,4.12"/><line class="cls-1" x1="29.37" y1="45.35" x2="25" y2="49"/><polyline class="cls-1" points="41.18 25.01 43.25 22.94 45.04 24.73 45.57 17.29 38.12 17.82 39.91 19.61"/><polyline class="cls-1" points="48.86 17.34 50.92 15.27 52.71 17.06 53.24 9.61 45.79 10.14 47.58 11.93"/><path d="M46.48,13.55a1,1,0,0,0-1.41,0h0A1,1,0,1,0,46.48,15h0A1,1,0,0,0,46.48,13.55Z"/><polyline class="cls-1" points="26.38 21.67 24.31 19.61 26.1 17.82 18.66 17.29 19.19 24.73 20.98 22.94"/><polyline class="cls-1" points="19.71 14 17.64 11.93 19.43 10.14 11.98 9.61 12.52 17.06 14.3 15.27"/><path d="M14.92,16.37a1,1,0,0,0,0,1.41h0a1,1,0,1,0,1.41-1.41h0A1,1,0,0,0,14.92,16.37Z"/></svg>