<svg id="Layer_1" data-name="Layer 1" xmlns="http://www.w3.org/2000/svg" viewBox="0 0 64 64"><defs><style>.cls-1{fill:none;stroke:#000;stroke-linecap:round;stroke-linejoin:round;stroke-width:2px;}</style></defs><title>Message</title><polyline class="cls-1" points="26 25 26 15 43 15 50.11 22 43 22 43 19"/><polyline class="cls-1" points="50 34 50 34.89 50 46 42 46"/><line class="cls-1" x1="50" y1="25" x2="50" y2="28"/><polyline class="cls-1" points="32.66 33.77 32.26 34.13 25.96 39.87 25.5 40.29 24.52 41.18"/><path class="cls-1" d="M37,34V44.24a5.52,5.52,0,0,1-.1,1.07,3.19,3.19,0,0,1-.09.42A6.7,6.7,0,0,1,30.3,51H17.7a6.37,6.37,0,0,1-3.45-1,.59.59,0,0,1-.11-.06,3.5,3.5,0,0,1-.51-.35A6.77,6.77,0,0,1,11,44.24V36.17a4.35,4.35,0,0,1,0-.62A6.72,6.72,0,0,1,11.8,33a7.59,7.59,0,0,1,.83-1.16.78.78,0,0,1,.2-.17.9.9,0,0,1,1.1.08l3.51,3.14,6.44,5.76.27.24"/><path class="cls-1" d="M37,35c0-2.2-.66-4.14-2.61-5.12A8.93,8.93,0,0,0,31,29c-1.33-.1-2.68,0-4,0H18"/><line class="cls-1" x1="20.13" y1="45.27" x2="14.52" y2="50.33"/><circle cx="49.75" cy="30.93" r="1"/><line class="cls-1" x1="46" y1="28" x2="40" y2="28"/><line class="cls-1" x1="35" y1="19" x2="29" y2="19"/></svg>