<svg id="Layer_1" data-name="Layer 1" xmlns="http://www.w3.org/2000/svg" viewBox="0 0 64 64"><defs><style>.cls-1{fill:none;stroke:#000;stroke-linecap:round;stroke-linejoin:round;stroke-width:2px;}</style></defs><title>Money cloud</title><path d="M16.14,50.61a.84.84,0,0,0,.84-.84h0a.84.84,0,0,0-1.68,0h0A.84.84,0,0,0,16.14,50.61Z"/><path class="cls-1" d="M21.92,29.68A9.39,9.39,0,0,0,21.08,42a4.91,4.91,0,0,1,1.4,1.48A9,9,0,0,1,21.08,42a4.86,4.86,0,0,0-2.76-.85s-5.51-.43-6.14,5.32"/><path class="cls-1" d="M19,50H41.78A6.18,6.18,0,0,0,48,44.71a6,6,0,0,0-10.87-4.28,8.47,8.47,0,0,1-.72,1.29,5.74,5.74,0,0,1,.72-1.29A9.29,9.29,0,0,0,38,36.55"/><line class="cls-1" x1="48.61" y1="15.39" x2="46" y2="17.54"/><line class="cls-1" x1="50.52" y1="32.9" x2="47.72" y2="31.22"/><line class="cls-1" x1="52" y1="25" x2="49" y2="25"/><path class="cls-1" d="M30.11,25a7.61,7.61,0,0,1,15.22,0"/><path class="cls-1" d="M45.33,25a7.61,7.61,0,1,1-15.22,0"/><path class="cls-1" d="M31.92,30.19A6,6,0,0,1,29.78,18.4"/><path class="cls-1" d="M37.72,25a1.64,1.64,0,1,1,1.64-1.64"/><path class="cls-1" d="M37.72,28.31a1.64,1.64,0,0,1-1.64-1.64"/><path class="cls-1" d="M37.72,25a1.64,1.64,0,0,1,0,3.28"/><line class="cls-1" x1="38" y1="22" x2="38" y2="20"/><line class="cls-1" x1="38" y1="30" x2="38" y2="28"/></svg>