<svg id="Layer_1" data-name="Layer 1" xmlns="http://www.w3.org/2000/svg" viewBox="0 0 64 64"><defs><style>.cls-1{fill:none;stroke:#000;stroke-linecap:round;stroke-linejoin:round;stroke-width:2px;}</style></defs><title>Money lock</title><path class="cls-1" d="M18.29,30.87a5.63,5.63,0,0,0-.29,1.8v14.7A5.65,5.65,0,0,0,23.63,53H41.37A5.65,5.65,0,0,0,47,47.37V32.64A5.66,5.66,0,0,0,41.36,27H24"/><path class="cls-1" d="M23,27V21.9a9,9,0,0,1,9-9h0a9,9,0,0,1,9,9"/><circle cx="20" cy="28" r="1"/><path class="cls-1" d="M23.08,40.28a9,9,0,0,1,18,0"/><path class="cls-1" d="M41.09,40.28a9,9,0,1,1-18,0"/><path class="cls-1" d="M32.09,40.28A1.94,1.94,0,1,1,34,38.33"/><path class="cls-1" d="M32.09,44.16a1.94,1.94,0,0,1-1.94-1.94"/><path class="cls-1" d="M32.09,40.28a1.94,1.94,0,1,1,0,3.89"/><line class="cls-1" x1="32" y1="36" x2="32" y2="35"/><line class="cls-1" x1="32" y1="46" x2="32" y2="44"/></svg>