<svg id="Layer_1" data-name="Layer 1" xmlns="http://www.w3.org/2000/svg" viewBox="0 0 64 64"><defs><style>.cls-1{fill:none;stroke:#000;stroke-linecap:round;stroke-linejoin:round;stroke-width:2px;}</style></defs><title>Money chart</title><path class="cls-1" d="M32.76,21.61a7.53,7.53,0,1,1,15.06,0"/><path class="cls-1" d="M47.82,21.61a7.53,7.53,0,1,1-15.06,0"/><path class="cls-1" d="M40.29,21.61A1.62,1.62,0,1,1,41.91,20"/><path class="cls-1" d="M40.29,24.86a1.62,1.62,0,0,1-1.62-1.62"/><path class="cls-1" d="M40.29,21.61a1.62,1.62,0,0,1,0,3.25"/><line class="cls-1" x1="40" y1="18" x2="40" y2="17"/><line class="cls-1" x1="40" y1="26" x2="40" y2="25"/><path class="cls-1" d="M23.83,44.85a5.07,5.07,0,0,1-4.54,5h0l-.52,0a5.07,5.07,0,0,1-5.07-5.07,5,5,0,0,1,.77-2.68,5.07,5.07,0,0,1,9.37,2.68Z"/><circle class="cls-1" cx="30.51" cy="30.53" r="2.3"/><circle class="cls-1" cx="37.22" cy="44.48" r="3.99"/><circle class="cls-1" cx="48.21" cy="31.94" r="2.1"/><line class="cls-1" x1="20.74" y1="40.19" x2="28.71" y2="31.94"/><line class="cls-1" x1="35.83" y1="40.75" x2="31.81" y2="32.42"/><line class="cls-1" x1="39.9" y1="41.53" x2="47.47" y2="33.91"/></svg>