<svg id="Layer_1" data-name="Layer 1" xmlns="http://www.w3.org/2000/svg" viewBox="0 0 64 64"><defs><style>.cls-1{fill:none;stroke:#000;stroke-linecap:round;stroke-linejoin:round;stroke-width:2px;}</style></defs><title>Money suitcase</title><path class="cls-1" d="M32.13,33a2.7,2.7,0,1,1,2.7-2.7"/><line class="cls-1" x1="32" y1="28" x2="32" y2="25"/><line class="cls-1" x1="32" y1="38" x2="32" y2="41"/><path class="cls-1" d="M32.13,33a2.7,2.7,0,1,1-2.7,2.7"/><path class="cls-1" d="M43,18v2h3.56A3.45,3.45,0,0,1,50,23.44V42.56A3.45,3.45,0,0,1,46.56,46H17.44A3.45,3.45,0,0,1,14,42.56V23.43A3.44,3.44,0,0,1,17.43,20H26V18.86A3.86,3.86,0,0,1,29.86,15h4.28A3.86,3.86,0,0,1,38,18.86V20H31"/><line class="cls-1" x1="26" y1="22" x2="26" y2="20"/><line class="cls-1" x1="20" y1="49" x2="21" y2="49"/><line class="cls-1" x1="43" y1="49" x2="44" y2="49"/></svg>