<svg id="Layer_1" data-name="Layer 1" xmlns="http://www.w3.org/2000/svg" viewBox="0 0 64 64"><defs><style>.cls-1{fill:none;stroke:#000;stroke-linecap:round;stroke-linejoin:round;stroke-width:2px;}</style></defs><title>Money key</title><path class="cls-1" d="M28.53,28.5l-7.72,2.2a3.15,3.15,0,0,0-1.87,4h0"/><line class="cls-1" x1="20.93" y1="30.67" x2="14.82" y2="32.35"/><path class="cls-1" d="M28,23.21l-2.75-.31a3.15,3.15,0,0,0-3.22,3h0"/><line class="cls-1" x1="25.4" y1="22.91" x2="19.1" y2="22.2"/><path class="cls-1" d="M31,31.64l-9.44,9.44a3.15,3.15,0,0,0,.35,4.4h0"/><circle cx="24" cy="43" r="1" transform="translate(-23.38 29.56) rotate(-45)"/><line class="cls-1" x1="21.6" y1="40.99" x2="17.12" y2="45.47"/><path class="cls-1" d="M31,20.8A7.61,7.61,0,1,1,41.71,31.56"/><path class="cls-1" d="M41.71,31.56A7.61,7.61,0,0,1,31,20.8"/><path class="cls-1" d="M36.33,26.18a1.64,1.64,0,1,1,2.32,0"/><path class="cls-1" d="M34,28.5a1.64,1.64,0,0,1,0-2.32"/><path class="cls-1" d="M36.33,26.18A1.64,1.64,0,0,1,34,28.5"/><line class="cls-1" x1="38.65" y1="23.86" x2="39.68" y2="22.83"/><line class="cls-1" x1="32.98" y1="29.53" x2="34.01" y2="28.5"/><path class="cls-1" d="M48.27,31.59a13.61,13.61,0,0,1-7.72,7"/></svg>