<svg id="Layer_1" data-name="Layer 1" xmlns="http://www.w3.org/2000/svg" viewBox="0 0 64 64"><defs><style>.cls-1,.cls-2{fill:none;}.cls-2{stroke:#000;stroke-linecap:round;stroke-linejoin:round;stroke-width:2px;}</style></defs><title>Monitor Shopping</title><path class="cls-1" d="M50,19.27V40.73a3,3,0,0,1,0,.54,6.24,6.24,0,0,1-.35,1.54,4.11,4.11,0,0,1-.19.45,4.52,4.52,0,0,1-.23.45,3.34,3.34,0,0,1-.26.41,5.43,5.43,0,0,1-.65.81,6.05,6.05,0,0,1-.61.54,4.14,4.14,0,0,1-.4.31,3.75,3.75,0,0,1-.48.3l-.09.05-.17.08a1.42,1.42,0,0,1-.28.14.56.56,0,0,1-.16.07.41.41,0,0,1-.14.06,3.56,3.56,0,0,1-.43.15l-.12,0a4.85,4.85,0,0,1-.51.14l-.13,0h-.05a3.7,3.7,0,0,1-.59.08h-.06a5.15,5.15,0,0,1-.71,0H20.63a6.76,6.76,0,0,1-3.16-.76s0,0,0,0a6.41,6.41,0,0,1-1.52-1.09A6,6,0,0,1,14,40.73V19.27a6.07,6.07,0,0,1,1.91-4.4A6.75,6.75,0,0,1,20.63,13H43.36a6.82,6.82,0,0,1,4.69,1.84c.14.13.28.28.4.42l.05.06c.12.13.22.27.33.41l0,.05c.12.16.22.33.33.5a5.89,5.89,0,0,1,.49,1.12l.06.22a3.85,3.85,0,0,1,.11.37s0,0,0,0a1.41,1.41,0,0,1,.05.29.54.54,0,0,1,0,.18l0,.25C50,18.92,50,19.09,50,19.27Z"/><path class="cls-2" d="M50,19.27V40.74a4.39,4.39,0,0,1,0,.54,6.24,6.24,0,0,1-.35,1.54,4.11,4.11,0,0,1-.19.45,4.53,4.53,0,0,1-.23.45,3.35,3.35,0,0,1-.26.41,5.43,5.43,0,0,1-.65.81,6,6,0,0,1-.61.54,4.15,4.15,0,0,1-.4.31,6.33,6.33,0,0,1-.56.34l-.17.09a3.46,3.46,0,0,1-.44.21,5.35,5.35,0,0,1-.56.21c-.24.08-.5.14-.76.2a7.26,7.26,0,0,1-1.42.14H20.63a6.88,6.88,0,0,1-3.16-.75s0,0,0,0a7,7,0,0,1-1.52-1.09A6,6,0,0,1,14,40.74V19.27a6.07,6.07,0,0,1,1.92-4.4A6.75,6.75,0,0,1,20.63,13H43.37a6.82,6.82,0,0,1,4.69,1.84c.14.13.28.28.4.42l.05.06c.12.13.22.27.33.41l0,.05c.12.16.22.33.33.5a5.88,5.88,0,0,1,.49,1.12l.06.22.06.23.1.46A5.69,5.69,0,0,1,50,19.27Z"/><path class="cls-2" d="M27,47v3.73A2.34,2.34,0,0,0,29.4,53H14"/><path class="cls-2" d="M36.95,19.44A3,3,0,0,1,40,22.34L41.08,37.1A3,3,0,0,1,38,40H26.56a2.91,2.91,0,0,1-3-2.82l1-14.36a2.91,2.91,0,0,1,3-2.82H29v2.84A2.22,2.22,0,0,0,31.27,25h1.55a2.42,2.42,0,0,0,2.48-2.35"/></svg>