<svg id="Layer_1" data-name="Layer 1" xmlns="http://www.w3.org/2000/svg" viewBox="0 0 64 64"><defs><style>.cls-1,.cls-2{fill:none;}.cls-2{stroke:#000;stroke-linecap:round;stroke-linejoin:round;stroke-width:2px;}</style></defs><title>Monitor chart</title><path class="cls-1" d="M50,18.27V39.73a3,3,0,0,1,0,.54,6.24,6.24,0,0,1-.35,1.54,4.13,4.13,0,0,1-.19.45,4.59,4.59,0,0,1-.23.45,3.36,3.36,0,0,1-.26.41,5.43,5.43,0,0,1-.65.81,6,6,0,0,1-.61.54,4.14,4.14,0,0,1-.4.31,3.78,3.78,0,0,1-.48.3l-.09.05a.87.87,0,0,1-.17.08,1.43,1.43,0,0,1-.28.14.56.56,0,0,1-.16.07.41.41,0,0,1-.14.06,3.58,3.58,0,0,1-.43.15l-.12,0a4.84,4.84,0,0,1-.51.14l-.13,0h-.05a3.7,3.7,0,0,1-.59.08h-.06a5.15,5.15,0,0,1-.71,0H20.63a6.76,6.76,0,0,1-3.16-.76s0,0,0,0a6.41,6.41,0,0,1-1.52-1.09A6,6,0,0,1,14,39.73V18.27a6.07,6.07,0,0,1,1.91-4.4A6.75,6.75,0,0,1,20.63,12H43.36a6.82,6.82,0,0,1,4.69,1.84c.14.13.28.28.4.42l.05.06c.12.13.22.27.33.41l0,.05c.12.16.22.33.33.5a5.88,5.88,0,0,1,.49,1.12l.06.22a3.86,3.86,0,0,1,.11.37s0,0,0,0a1.4,1.4,0,0,1,.05.29.54.54,0,0,1,0,.18l0,.25C50,17.92,50,18.09,50,18.27Z"/><path class="cls-2" d="M50,18.27V39.74a4.39,4.39,0,0,1,0,.54,6.24,6.24,0,0,1-.35,1.54,4.12,4.12,0,0,1-.19.45,4.59,4.59,0,0,1-.23.45,3.36,3.36,0,0,1-.26.41,5.44,5.44,0,0,1-.65.81,6,6,0,0,1-.61.54,4.15,4.15,0,0,1-.4.31,6.41,6.41,0,0,1-.56.34l-.17.09a3.44,3.44,0,0,1-.44.21,5.37,5.37,0,0,1-.56.21c-.24.08-.5.14-.76.2a7.26,7.26,0,0,1-1.42.14H20.63a6.88,6.88,0,0,1-3.16-.75s0,0,0,0a7,7,0,0,1-1.52-1.09A6,6,0,0,1,14,39.74V18.27a6.07,6.07,0,0,1,1.92-4.4A6.75,6.75,0,0,1,20.63,12H43.37a6.82,6.82,0,0,1,4.69,1.84c.14.13.28.28.4.42l.05.06c.12.13.22.27.33.41l0,.05c.12.16.22.33.33.5a5.88,5.88,0,0,1,.49,1.12l.06.22.06.23.1.46A5.69,5.69,0,0,1,50,18.27Z"/><path class="cls-2" d="M27,46v3.73A2.34,2.34,0,0,0,29.4,52H14"/><path class="cls-2" d="M24.15,31.26A3.42,3.42,0,0,1,23.77,38h0l-.19,0a3.29,3.29,0,0,1-3.28-1.92,3.57,3.57,0,0,1,.22-3.31A3.42,3.42,0,0,1,24.15,31.26Z"/><circle cx="31.35" cy="24.69" r="2.21"/><circle class="cls-2" cx="35.88" cy="34.18" r="2.69"/><circle cx="43.69" cy="25.96" r="1.65"/><line class="cls-2" x1="24.75" y1="31.28" x2="30.13" y2="25.71"/><line class="cls-2" x1="34.93" y1="31.66" x2="32.23" y2="26.03"/><line class="cls-2" x1="37.68" y1="32.19" x2="42.79" y2="27.04"/></svg>