<svg id="Layer_1" data-name="Layer 1" xmlns="http://www.w3.org/2000/svg" viewBox="0 0 64 64"><defs><style>.cls-1{fill:none;stroke:#000;stroke-linecap:round;stroke-linejoin:round;stroke-width:2px;}</style></defs><title>Mouse</title><circle cx="32.33" cy="29.54" r="1"/><path class="cls-1" d="M32,12h0v7a4,4,0,0,1-4,4H25"/><path class="cls-1" d="M36.84,43.31A11.42,11.42,0,0,0,44,32.75V22.38a11.42,11.42,0,0,0-7.87-10.82"/><path class="cls-1" d="M32.38,11A11.39,11.39,0,0,0,21,22.38V32.75a11.56,11.56,0,0,0,8.16,10.91c1.26.38,3.12.08,3.6,1.58A4.49,4.49,0,0,1,32.38,49C31,51,33,53,33,53"/><path class="cls-1" d="M32.33,26.23h0A2.23,2.23,0,0,1,34.56,24H40"/></svg>