<svg id="Layer_1" data-name="Layer 1" xmlns="http://www.w3.org/2000/svg" viewBox="0 0 64 64"><defs><style>.cls-1{fill:none;stroke:#000;stroke-linecap:round;stroke-linejoin:round;stroke-width:2px;}</style></defs><title>Multiple messages</title><line class="cls-1" x1="32.11" y1="44.75" x2="38.31" y2="39.11"/><path class="cls-1" d="M42,39v7.85A5.17,5.17,0,0,1,36.85,52h-9.7A5.17,5.17,0,0,1,22,46.85V40.7a4.21,4.21,0,0,1,0-.47,5,5,0,0,1,.59-2,5.8,5.8,0,0,1,.64-.88.64.64,0,0,1,.15-.13.7.7,0,0,1,.85.06l7.85,7"/><path class="cls-1" d="M27,35h7c1.91,0,3.87-.22,5.63.67A4.16,4.16,0,0,1,42,39.48"/><line class="cls-1" x1="28.77" y1="47.87" x2="25" y2="51"/><line class="cls-1" x1="43.33" y1="20.42" x2="46.78" y2="17.44"/><path class="cls-1" d="M50,17h0v5.27A3.73,3.73,0,0,1,46.28,26H39.72A3.73,3.73,0,0,1,36,22.28V17.83a3.15,3.15,0,0,1,0-.34,3.71,3.71,0,0,1,.41-1.42,4.19,4.19,0,0,1,.45-.64.46.46,0,0,1,.11-.1.48.48,0,0,1,.59,0l5.5,5"/><path class="cls-1" d="M40,14l4.7,0a8.75,8.75,0,0,1,4.07.48C49.85,15,50,15.79,50,17"/><line class="cls-1" x1="40.92" y1="22.68" x2="37.83" y2="25.46"/><line class="cls-1" x1="20.82" y1="20.42" x2="24.28" y2="17.44"/><path class="cls-1" d="M28,17h0v5.27A3.73,3.73,0,0,1,24.28,26H17.72A3.73,3.73,0,0,1,14,22.28V17.83a3.12,3.12,0,0,1,0-.34,3.71,3.71,0,0,1,.41-1.42,4.19,4.19,0,0,1,.45-.64.45.45,0,0,1,.11-.1.48.48,0,0,1,.59,0l5.5,5"/><path class="cls-1" d="M18,14l4.19,0a8.75,8.75,0,0,1,4.07.48A3,3,0,0,1,28,17.21"/><line class="cls-1" x1="18.41" y1="22.68" x2="15.32" y2="25.46"/><path class="cls-1" d="M52,28a10.82,10.82,0,0,1,2,6.16c0,4.78-3.4,9-8.66,11.74"/><path class="cls-1" d="M31.45,19.64c.55,0,.56,0,1.12,0s-.66,0,0,0"/><path class="cls-1" d="M17.68,45.31C13,42.61,10,38.59,10,34.11A10.82,10.82,0,0,1,12,28"/></svg>