<svg id="Layer_1" data-name="Layer 1" xmlns="http://www.w3.org/2000/svg" viewBox="0 0 64 64"><defs><style>.cls-1{fill:none;stroke:#000;stroke-linecap:round;stroke-linejoin:round;stroke-width:2px;}</style></defs><title>Navigation</title><path class="cls-1" d="M50.93,31.78a8.57,8.57,0,0,1-7.5,12.72,8.54,8.54,0,0,1-3.53-.76,8.61,8.61,0,0,1-2.17-1.41,9.3,9.3,0,0,1-1.43-1.64c-.16-.25-.32-.51-.46-.78a8.59,8.59,0,0,1,.51-8.82,2,2,0,0,1,.17-.23,8.55,8.55,0,0,1,6.91-3.5c.22,0,.43,0,.64,0a7.36,7.36,0,0,1,1.88.36,5.93,5.93,0,0,1,.71.24"/><path class="cls-1" d="M27.7,40.69a8.6,8.6,0,0,0-.05-9.6,8.56,8.56,0,0,0-7.08-3.73c-.22,0-.43,0-.64,0a8.57,8.57,0,1,0,3,16.79"/><path class="cls-1" d="M42.74,23.63A4.77,4.77,0,0,0,34.61,27H29.53a4.14,4.14,0,0,0-.09-.87,4.78,4.78,0,0,0-6.55-3.52A4.69,4.69,0,0,0,20,27v0c.21,0,.42,0,.64,0"/><circle cx="49" cy="29.39" r="1"/><path class="cls-1" d="M18.78,31.16a3.92,3.92,0,0,0-3,3"/><path class="cls-1" d="M41.56,31.24a3.92,3.92,0,0,0-2.7,2.83"/><path class="cls-1" d="M27.56,40.87a6.57,6.57,0,0,1,8.87,0"/></svg>