<svg id="Layer_1" data-name="Layer 1" xmlns="http://www.w3.org/2000/svg" viewBox="0 0 64 64"><defs><style>.cls-1{fill:none;stroke:#000;stroke-linecap:round;stroke-linejoin:round;stroke-width:2px;}</style></defs><title>Newsletter analytics</title><path class="cls-1" d="M13.79,18.42A3.43,3.43,0,0,1,17.22,15h.36A3.43,3.43,0,0,1,21,18.42V47"/><path class="cls-1" d="M21,47V18.8a9.08,9.08,0,0,0-.14-1.51,2.76,2.76,0,0,0-2.52-2"/><path class="cls-1" d="M31,50H47.35c1.88.64,3.42-.9,3.42-3H28.27c0,2.1-1.27,3-3.43,3h-.36c-1.48,0-3.42-.9-3.42-2.78"/><path class="cls-1" d="M18,15H41.34a2.76,2.76,0,0,1,2.52,2A8.1,8.1,0,0,1,44,18.51V23"/><line class="cls-1" x1="26" y1="21" x2="37" y2="21"/><line class="cls-1" x1="26" y1="30" x2="34" y2="30"/><line class="cls-1" x1="26" y1="34" x2="34" y2="34"/><path class="cls-1" d="M32.17,40.6,31,41.71a.6.6,0,0,0-.17.53l.27,1.56a.6.6,0,0,1-.87.63l-1.4-.74a.6.6,0,0,0-.56,0l-1.4.74A.6.6,0,0,1,26,43.8l.27-1.56a.6.6,0,0,0-.17-.53L25,40.6a.6.6,0,0,1,.33-1l1.57-.23a.6.6,0,0,0,.45-.33l.7-1.42a.6.6,0,0,1,1.07,0l.7,1.42a.6.6,0,0,0,.45.33"/><circle cx="14" cy="22" r="1"/><path class="cls-1" d="M53.29,28.5a2,2,0,0,1,.28.27A1.83,1.83,0,0,1,54,29.95V41.08A2,2,0,0,1,51.95,43H40.05A2,2,0,0,1,38,41.08V29.95a1.9,1.9,0,0,1,1.33-1.79"/><polyline class="cls-1" points="51 40 50.47 40 50.46 40 49.87 40 49.71 40 49.12 40 47.41 40 44.19 40 41 40"/><line class="cls-1" x1="51" y1="32" x2="51" y2="40"/><line class="cls-1" x1="47" y1="33" x2="47" y2="40"/><line class="cls-1" x1="44" y1="35" x2="44" y2="40"/><line class="cls-1" x1="41" y1="36" x2="41" y2="40"/><path class="cls-1" d="M45.34,27.36h0A1.36,1.36,0,0,0,44,26H40.36A1.36,1.36,0,0,0,39,27.36h0V28"/><polyline class="cls-1" points="45 28 45 28 50 28"/></svg>