<svg id="Layer_1" data-name="Layer 1" xmlns="http://www.w3.org/2000/svg" viewBox="0 0 64 64"><defs><style>.cls-1{fill:none;stroke:#000;stroke-linecap:round;stroke-linejoin:round;stroke-width:2px;}</style></defs><title>Newsletter shopping</title><path class="cls-1" d="M44.18,36.87a1.47,1.47,0,1,1,1.47-1.47"/><line class="cls-1" x1="44" y1="34" x2="44" y2="33"/><line class="cls-1" x1="44" y1="40" x2="44" y2="41"/><path class="cls-1" d="M44.18,36.87a1.47,1.47,0,1,1-1.47,1.47"/><path class="cls-1" d="M44.55,29.19s-.27,1.22,1,1.22S46.63,29,46.63,29a2.54,2.54,0,1,0-5.07,0H40.7a2.2,2.2,0,0,0-2.2,1.78,2,2,0,0,0,0,.34l-.22,3-.56,7.77A2.18,2.18,0,0,0,39.93,44h8.35a2.18,2.18,0,0,0,2.23-2.11l-.87-10.46-.06-.66,0-.24"/><line class="cls-1" x1="43" y1="27" x2="43" y2="24"/><path class="cls-1" d="M13.79,20.42A3.43,3.43,0,0,1,17.22,17h.36A3.43,3.43,0,0,1,21,20.42V49"/><path class="cls-1" d="M31,53H47.71c1.88-.25,3.42-1.79,3.42-3H28.63c0,1.21-1.54,2.75-3.43,3h-.36A4.71,4.71,0,0,1,21,49.33V20.91c.42,0,.39-1.22.28-1.51a2.76,2.76,0,0,0-2.52-2"/><path class="cls-1" d="M43.92,20.51A8.1,8.1,0,0,0,43.78,19a2.76,2.76,0,0,0-2.52-2H18"/><line class="cls-1" x1="26" y1="23" x2="37" y2="23"/><line class="cls-1" x1="26" y1="32" x2="34" y2="32"/><line class="cls-1" x1="26" y1="36" x2="34" y2="36"/><path class="cls-1" d="M29.48,39.72l.7,1.42a.6.6,0,0,0,.45.33l1.57.23a.6.6,0,0,1,.33,1L31.4,43.82a.6.6,0,0,0-.17.53l.27,1.56a.6.6,0,0,1-.87.63l-1.4-.74a.6.6,0,0,0-.56,0l-1.4.74a.6.6,0,0,1-.87-.63l.27-1.56a.6.6,0,0,0-.17-.53l-1.14-1.11a.6.6,0,0,1,.33-1l1.57-.23a.6.6,0,0,0,.45-.33l.7-1.42A.6.6,0,0,1,29.48,39.72Z"/><circle cx="14" cy="24" r="1"/></svg>