<svg id="Layer_1" data-name="Layer 1" xmlns="http://www.w3.org/2000/svg" viewBox="0 0 64 64"><defs><style>.cls-1{fill:none;stroke:#000;stroke-linecap:round;stroke-linejoin:round;stroke-width:2px;}</style></defs><title>Newsletter</title><path class="cls-1" d="M44.69,39.18l.59,1.2a.51.51,0,0,0,.38.28l1.33.19a.51.51,0,0,1,.28.86l-1,.94a.51.51,0,0,0-.15.45l.23,1.32a.51.51,0,0,1-.73.53l-1.19-.62a.51.51,0,0,0-.47,0L42.81,45a.51.51,0,0,1-.73-.53l.23-1.32a.51.51,0,0,0-.15-.45l-1-.94a.51.51,0,0,1,.28-.86l1.33-.19a.51.51,0,0,0,.38-.28l.59-1.2A.51.51,0,0,1,44.69,39.18Z"/><path class="cls-1" d="M41,52H23.73c-2,.14-3.55-1.46-3.55-4H43.52c0,2.54,1.6,4.14,3.56,4h.37A3.36,3.36,0,0,0,51,48.59"/><line class="cls-1" x1="38" y1="18" x2="38" y2="33"/><path class="cls-1" d="M25.23,30.84h0A2.78,2.78,0,0,1,28,33.61v1.11a2.78,2.78,0,0,1-2.77,2.77h0a2.78,2.78,0,0,1-2.77-2.77"/><path class="cls-1" d="M26,31H18.69A1.69,1.69,0,0,1,17,29.31V24.69A1.69,1.69,0,0,1,18.69,23h5.7a8.11,8.11,0,0,0,4.17-1.16L35,18V35.34l-3.5-1.83"/><path class="cls-1" d="M13.87,24.79a1.64,1.64,0,0,0-.79.92,1.61,1.61,0,0,0-.09.52v2.14A1.63,1.63,0,0,0,14.63,30H16"/><line class="cls-1" x1="40" y1="27" x2="45" y2="27"/><path class="cls-1" d="M40.77,19.47a1.32,1.32,0,0,1,1.86,0h0a1.32,1.32,0,0,1,0,1.86l-2.49,2.49"/><path class="cls-1" d="M40.14,29.25l2.49,2.49a1.32,1.32,0,0,1,0,1.86h0a1.32,1.32,0,0,1-1.86,0"/><path class="cls-1" d="M24.47,18a4,4,0,0,1,4-4H47a4,4,0,0,1,4,4V49"/><line class="cls-1" x1="25" y1="48" x2="25" y2="41"/><line class="cls-1" x1="31" y1="39" x2="38" y2="39"/><line class="cls-1" x1="31" y1="43" x2="37" y2="43"/><circle cx="37.51" cy="35.56" r="1"/></svg>