<svg id="Layer_1" data-name="Layer 1" xmlns="http://www.w3.org/2000/svg" viewBox="0 0 64 64"><defs><style>.cls-1{fill:none;stroke:#000;stroke-linecap:round;stroke-linejoin:round;stroke-width:2px;}</style></defs><title>Person</title><line class="cls-1" x1="27.4" y1="25.03" x2="23.61" y2="34.2"/><path class="cls-1" d="M33,22h1a3,3,0,0,1,3,3v7.95A2.09,2.09,0,0,1,34.91,35H30.09A2.09,2.09,0,0,1,28,32.91V25"/><path class="cls-1" d="M32.24,16.2a3,3,0,0,0,0,6"/><line class="cls-1" x1="36.47" y1="23.93" x2="40.39" y2="34.2"/><line class="cls-1" x1="28.4" y1="49.8" x2="27.4" y2="32.84"/><line class="cls-1" x1="36.74" y1="32.77" x2="35.77" y2="49.2"/><path class="cls-1" d="M32,40v9.57a.43.43,0,0,0,.43.43h2.86a.43.43,0,0,0,.43-.43"/></svg>