<svg id="Layer_1" data-name="Layer 1" xmlns="http://www.w3.org/2000/svg" viewBox="0 0 64 64"><defs><style>.cls-1{fill:none;stroke:#000;stroke-linecap:round;stroke-linejoin:round;stroke-width:2px;}</style></defs><title>Personal Network</title><path class="cls-1" d="M42.51,17.06a4.22,4.22,0,1,1,1.34,3.09"/><circle class="cls-1" cx="46.37" cy="45.26" r="4.22" transform="translate(-18.27 49.72) rotate(-48.26)"/><path class="cls-1" d="M20.14,43.85a4.22,4.22,0,1,1-2.87-1.13"/><circle class="cls-1" cx="18.9" cy="22.65" r="4.22"/><line class="cls-1" x1="28.55" y1="29.16" x2="25.76" y2="35.92"/><path class="cls-1" d="M32,27h.82A2.18,2.18,0,0,1,35,29.18v5.28A1.54,1.54,0,0,1,33.46,36H29.54A1.54,1.54,0,0,1,28,34.46V29"/><path class="cls-1" d="M32.12,22.65a2.21,2.21,0,0,0,0,4.42"/><line class="cls-1" x1="35.24" y1="28.35" x2="38.13" y2="35.92"/><line class="cls-1" x1="27.16" y1="40.65" x2="21.49" y2="46.94"/><line class="cls-1" x1="20.02" y1="26.71" x2="23.96" y2="29.9"/><line class="cls-1" x1="15.96" y1="42.65" x2="16.69" y2="33.27"/><line class="cls-1" x1="42.15" y1="46.33" x2="35.24" y2="41.92"/><line class="cls-1" x1="47" y1="41" x2="47" y2="31"/><line class="cls-1" x1="46.73" y1="21.28" x2="40.02" y2="26.86"/><line class="cls-1" x1="43" y1="14" x2="32" y2="14"/><line class="cls-1" x1="20.02" y1="17.74" x2="24.32" y2="14.4"/></svg>