<svg id="Layer_1" data-name="Layer 1" xmlns="http://www.w3.org/2000/svg" viewBox="0 0 64 64"><defs><style>.cls-1{fill:none;stroke:#000;stroke-linecap:round;stroke-linejoin:round;stroke-width:2px;}</style></defs><title>Personal Care</title><path class="cls-1" d="M23.57,24.68a20,20,0,0,1,6.06-13.05"/><path class="cls-1" d="M46.53,43.49a2,2,0,0,1,2.87,0h0a2,2,0,0,1,0,2.87"/><path class="cls-1" d="M17.11,45l.17-.17,6.46-6.45a4.46,4.46,0,0,1,1.33-.94A4.29,4.29,0,0,1,26.74,37,1.59,1.59,0,0,1,27,37H37.11a1.9,1.9,0,0,1,1.79,2,2,2,0,0,1-.53,1.41,1.67,1.67,0,0,1-1.26.59H28"/><path class="cls-1" d="M46.57,43.46a10.81,10.81,0,0,1-3,2.72,10.48,10.48,0,0,1-5.55,1.58h-.3a10.54,10.54,0,0,1-9.47-6.53"/><line class="cls-1" x1="32.46" y1="22.88" x2="28.21" y2="33.15"/><line class="cls-1" x1="32" y1="32" x2="32" y2="23"/><path class="cls-1" d="M38,20h1.69A3.31,3.31,0,0,1,43,23.31V37"/><path class="cls-1" d="M37.88,13a3.36,3.36,0,0,0,0,6.72"/><line class="cls-1" x1="42.62" y1="21.65" x2="47.01" y2="33.15"/></svg>