<svg id="Layer_1" data-name="Layer 1" xmlns="http://www.w3.org/2000/svg" viewBox="0 0 64 64"><defs><style>.cls-1{fill:none;stroke:#000;stroke-linecap:round;stroke-linejoin:round;stroke-width:2px;}</style></defs><title>Phone Payment</title><path class="cls-1" d="M40,20h4.79A5.22,5.22,0,0,1,50,25.21V46.79A5.23,5.23,0,0,1,44.79,52H34.21A5.23,5.23,0,0,1,29,46.79V37"/><polyline class="cls-1" points="47 27 47 46 42 46"/><line class="cls-1" x1="37" y1="46" x2="32" y2="46"/><path class="cls-1" d="M36.69,46.32a2.57,2.57,0,1,0,5.14,0"/><path class="cls-1" d="M30,14h6.77A3.24,3.24,0,0,1,40,17.23V28.77A3.24,3.24,0,0,1,36.77,32H17.23A3.23,3.23,0,0,1,14,28.77V17.23A3.24,3.24,0,0,1,17.23,14H24"/><line class="cls-1" x1="18" y1="26" x2="36" y2="26"/><line class="cls-1" x1="18" y1="28" x2="24" y2="28"/><line class="cls-1" x1="32" y1="19" x2="36" y2="19"/><circle cx="46.92" cy="24.35" r="0.92"/><circle cx="26.84" cy="14.13" r="0.92"/></svg>