<svg id="Layer_1" data-name="Layer 1" xmlns="http://www.w3.org/2000/svg" viewBox="0 0 64 64"><defs><style>.cls-1,.cls-2{fill:none;stroke:#000;stroke-linecap:round;stroke-linejoin:round;stroke-width:2px;}.cls-2{stroke-dasharray:6.4 6.4;}</style></defs><title>Phone Airplane</title><path class="cls-1" d="M44,37V47.79A5.23,5.23,0,0,1,38.79,53H28.21A5.22,5.22,0,0,1,23,47.79V38"/><path class="cls-1" d="M34,21h4.79A5.22,5.22,0,0,1,44,26.21V29"/><polyline class="cls-1" points="41 34 41 47 36 47"/><path class="cls-1" d="M31,47.37a2.57,2.57,0,1,0,5.14,0"/><circle cx="27.3" cy="22.8" r="0.92" transform="translate(-2.49 42.24) rotate(-73)"/><path class="cls-1" d="M25.23,29.57l6.05,1.85s1.32.57,1.83-.28l4.24-7L31.7,27"/><path class="cls-1" d="M21.23,28.35l-5.4-1.65a2.15,2.15,0,0,1-1.28-1A2.12,2.12,0,0,1,14.39,24a2.17,2.17,0,0,1,2.71-1.44l7.73,2.36,2.56.78"/><polyline class="cls-1" points="25.23 29.57 25.7 34.61 24.12 34.13 21.23 28.35 21.23 28.35"/><line class="cls-1" x1="31" y1="47" x2="26" y2="47"/><path class="cls-1" d="M30.53,15.5c.91-.42,1.84-.81,2.78-1.14"/><path class="cls-2" d="M39.56,13.16a11.48,11.48,0,0,1,5.36,1.32c9.14,4.81,3.67,16.63-3.61,20.12a13.09,13.09,0,0,1-4.18,1.2"/><path class="cls-1" d="M33.93,35.75a11.67,11.67,0,0,1-2.88-.8"/><line class="cls-1" x1="41" y1="31" x2="41" y2="26"/></svg>