<svg id="Layer_1" data-name="Layer 1" xmlns="http://www.w3.org/2000/svg" viewBox="0 0 64 64"><defs><style>.cls-1{fill:none;stroke:#000;stroke-linecap:round;stroke-linejoin:round;stroke-width:2px;}</style></defs><title>Piggy bank</title><path class="cls-1" d="M36.92,27.94,41,24.16v6.2A10,10,0,0,1,44.07,35h2.55A1.38,1.38,0,0,1,48,36.38v2.25A1.38,1.38,0,0,1,46.63,40H44.24c-.5,2.46-2.92,4.64-5,5.81L40,51H35.59l-.68-4h-6a9.81,9.81,0,0,1-2-.21"/><path class="cls-1" d="M18.91,37.66c0-2.75.58-3.84,1.5-4.87"/><path class="cls-1" d="M22.47,44.29a10,10,0,0,1-2-2.2"/><polyline class="cls-1" points="26.88 46.88 26.21 51 21.59 51 22.47 44.71"/><path class="cls-1" d="M18.91,37.66a1.5,1.5,0,1,1-3,0"/><line class="cls-1" x1="16.91" y1="15.58" x2="19.05" y2="18.19"/><line class="cls-1" x1="34.41" y1="15.28" x2="32.74" y2="18.07"/><line class="cls-1" x1="26" y1="13" x2="26" y2="16"/><path class="cls-1" d="M18.56,27.83a7.61,7.61,0,1,1,15.22,0"/><path class="cls-1" d="M20.4,32.79a7.58,7.58,0,0,1-1.84-5"/><path class="cls-1" d="M33.78,27.83a7.6,7.6,0,0,1-1.73,4.83"/><path class="cls-1" d="M26.17,27.83a1.64,1.64,0,1,1,1.64-1.64"/><path class="cls-1" d="M26.17,31.11a1.64,1.64,0,0,1-1.64-1.64"/><path class="cls-1" d="M26.17,27.83a1.64,1.64,0,1,1,0,3.28"/><line class="cls-1" x1="26" y1="24" x2="26" y2="23"/><line class="cls-1" x1="26" y1="33" x2="26" y2="32"/><line class="cls-1" x1="32" y1="33" x2="35" y2="33"/></svg>