<svg id="Layer_1" data-name="Layer 1" xmlns="http://www.w3.org/2000/svg" viewBox="0 0 64 64"><defs><style>.cls-1{fill:none;stroke:#000;stroke-linecap:round;stroke-linejoin:round;stroke-width:2px;}</style></defs><title>Play monitor</title><path class="cls-1" d="M50,18.27V39.74a4.39,4.39,0,0,1,0,.54,6.24,6.24,0,0,1-.35,1.54,4.12,4.12,0,0,1-.19.45,4.59,4.59,0,0,1-.23.45,3.36,3.36,0,0,1-.26.41,5.44,5.44,0,0,1-.65.81,6,6,0,0,1-.61.54,4.15,4.15,0,0,1-.4.31,6.41,6.41,0,0,1-.56.34l-.17.09a3.44,3.44,0,0,1-.44.21,5.37,5.37,0,0,1-.56.21c-.24.08-.5.14-.76.2a7.26,7.26,0,0,1-1.42.14H20.63a6.88,6.88,0,0,1-3.16-.75s0,0,0,0a7,7,0,0,1-1.52-1.09A6,6,0,0,1,14,39.74V18.27a6.07,6.07,0,0,1,1.92-4.4A6.75,6.75,0,0,1,20.63,12H43.37a6.82,6.82,0,0,1,4.69,1.84c.14.13.28.28.4.42l.05.06c.12.13.22.27.33.41l0,.05c.12.16.22.33.33.5a5.88,5.88,0,0,1,.49,1.12l.06.22.06.23.1.46A5.69,5.69,0,0,1,50,18.27Z"/><path class="cls-1" d="M27,46v3.73A2.34,2.34,0,0,0,29.4,52H14"/><path class="cls-1" d="M28,25a1.79,1.79,0,0,1,2.69-1.55l2.61,1.51,2.61,1.51a1.79,1.79,0,0,1,0,3.11L33.3,31.06l-2.61,1.51A1.79,1.79,0,0,1,28,31V29"/><polyline class="cls-1" points="20 41 34 41 34 39"/></svg>