<svg id="Layer_1" data-name="Layer 1" xmlns="http://www.w3.org/2000/svg" viewBox="0 0 64 64"><defs><style>.cls-1{fill:none;stroke:#000;stroke-linecap:round;stroke-linejoin:round;stroke-width:2px;}</style></defs><title>Puzzle pieces</title><path class="cls-1" d="M17,23.46l.7.7a3.14,3.14,0,0,0,4.43-4.43l-.7-.7,2.24-2.24a2,2,0,0,1,2.84,0l2.3,2.3.7-.7A3.13,3.13,0,1,1,34,22.81l-.7.7,2.19,2.19a2,2,0,0,1,0,2.83"/><path class="cls-1" d="M32.52,30.08a3.14,3.14,0,1,0-4.43,4.43l.7.7-2.25,2.25a2,2,0,0,1-2.83,0l-2.19-2.19-.7.7a3.13,3.13,0,1,1-4.43-4.43l.7-.7-2.3-2.3a2,2,0,0,1,0-2.83"/><path class="cls-1" d="M45,42.49l.7.7a3.13,3.13,0,1,1-4.43,4.43l-.7-.7-2.3,2.3a2,2,0,0,1-2.83,0L33.22,47l.7-.7a3.14,3.14,0,0,0-4.43-4.43l-.7.7"/><path class="cls-1" d="M35.46,28.54a2,2,0,0,1,2.83,0l2.25,2.25-.7.7a3.14,3.14,0,0,0,4.43,4.43l.7-.7,2.25,2.25a2,2,0,0,1,0,2.83"/><circle cx="27.04" cy="40.3" r="1" transform="translate(-20.57 30.93) rotate(-45)"/></svg>