<svg id="Layer_1" data-name="Layer 1" xmlns="http://www.w3.org/2000/svg" viewBox="0 0 64 64"><defs><style>.cls-1{fill:none;stroke:#000;stroke-linecap:round;stroke-linejoin:round;stroke-width:2px;}</style></defs><title>Receive money</title><path class="cls-1" d="M42.31,43.82a2,2,0,0,1,2.87,0h0a2,2,0,0,1,0,2.87"/><path class="cls-1" d="M12.88,46l.17-.17,6.46-6.45a4.46,4.46,0,0,1,1.33-.94A4.29,4.29,0,0,1,22.52,38a1.59,1.59,0,0,1,.31,0H32.88a1.9,1.9,0,0,1,1.79,2,2,2,0,0,1-.53,1.41,1.67,1.67,0,0,1-1.26.59H24"/><path class="cls-1" d="M42.34,43.79a10.81,10.81,0,0,1-3,2.72,10.48,10.48,0,0,1-5.55,1.58h-.3a10.54,10.54,0,0,1-9.47-6.53"/><path class="cls-1" d="M34.28,30a8.5,8.5,0,1,1,17,0"/><path class="cls-1" d="M51.28,30a8.5,8.5,0,1,1-17,0"/><path class="cls-1" d="M42.78,30a1.83,1.83,0,1,1,1.83-1.83"/><path class="cls-1" d="M42.78,33.65a1.83,1.83,0,0,1-1.83-1.83"/><path class="cls-1" d="M42.78,30a1.83,1.83,0,0,1,0,3.67"/><line class="cls-1" x1="43" y1="26" x2="43" y2="25"/><line class="cls-1" x1="43" y1="35" x2="43" y2="34"/><line class="cls-1" x1="43" y1="18" x2="43" y2="13"/><line class="cls-1" x1="33.05" y1="20.48" x2="28.56" y2="15.99"/><line class="cls-1" x1="30" y1="30" x2="24" y2="30"/></svg>