<svg id="Layer_1" data-name="Layer 1" xmlns="http://www.w3.org/2000/svg" viewBox="0 0 64 64"><defs><style>.cls-1{fill:none;stroke:#000;stroke-linecap:round;stroke-linejoin:round;stroke-width:2px;}</style></defs><title>Running money</title><path class="cls-1" d="M40,32v-.87A2.14,2.14,0,0,0,37.87,29H34"/><path class="cls-1" d="M25.8,22.54A5.49,5.49,0,0,0,24.57,24H18V21H14V32h4V30h6.57l.17.27a5.52,5.52,0,0,0,2,1.85A5.48,5.48,0,0,0,33.33,31"/><path class="cls-1" d="M29,22V18.28A2.28,2.28,0,0,0,26.72,16H23"/><path class="cls-1" d="M34.1,29.31a5.61,5.61,0,0,1-.85,1.09l0,0"/><circle cx="33.33" cy="15.52" r="1"/><circle cx="40.26" cy="34.98" r="1"/><path class="cls-1" d="M49.88,42.72A6.65,6.65,0,0,0,46,36.66L47,35V28.65C46.12,26,43.94,23.81,41.28,24h-7.2a5.28,5.28,0,0,0-4.75-2.93"/><path class="cls-1" d="M36.37,42.72A6.73,6.73,0,0,1,38,38.35"/><path class="cls-1" d="M49.88,42.72a6.76,6.76,0,0,1-13.51,0"/><path class="cls-1" d="M43.12,42.72a1.46,1.46,0,1,1,1.46-1.46"/><path class="cls-1" d="M43.12,45.63a1.46,1.46,0,0,1-1.46-1.46"/><path class="cls-1" d="M43.12,42.72a1.46,1.46,0,1,1,0,2.91"/><line class="cls-1" x1="43" y1="40" x2="43" y2="39"/><line class="cls-1" x1="43" y1="47" x2="43" y2="46"/></svg>