<svg id="Layer_1" data-name="Layer 1" xmlns="http://www.w3.org/2000/svg" viewBox="0 0 64 64"><defs><style>.cls-1{fill:none;stroke:#000;stroke-linecap:round;stroke-linejoin:round;stroke-width:2px;}</style></defs><title>Search settings</title><path class="cls-1" d="M24.85,34.31l-.49.49h0L15,44.13l-.15.17a3.37,3.37,0,0,0,4.93,4.6L31.86,36.85l2.22-2.22.31-.31c-.23-.11-.45-.24-.67-.37a10.7,10.7,0,0,1-5.15-9.14A10.69,10.69,0,1,1,50,24.8c0,.11,0,.21,0,.32a10.34,10.34,0,0,1-.13,1.4A10.69,10.69,0,0,1,49.08,29a10.69,10.69,0,0,1-9,6.41c-.25,0-.5,0-.76,0a10.44,10.44,0,0,1-1.84-.16"/><circle cx="27" cy="32" r="1" transform="translate(-4.09 3.96) rotate(-7.8)"/><path class="cls-1" d="M44.1,24.84A5.28,5.28,0,0,1,44,26.21a4.9,4.9,0,0,1-.18.61,4.72,4.72,0,0,1-.47,1,4.86,4.86,0,0,1-1.54,1.58,4.47,4.47,0,0,1-.75.4,4.74,4.74,0,0,1-.8.26,4.58,4.58,0,0,1-2.17,0h0a4.52,4.52,0,0,1-1.54-.68A4.78,4.78,0,0,1,35,27.72h0a4.52,4.52,0,0,1-.39-.78,4.64,4.64,0,0,1-.25-.84,5.29,5.29,0,0,1,0-2.24,5.12,5.12,0,0,1,.47-1.28,2.15,2.15,0,0,1,.19-.33,4.73,4.73,0,0,1,.78-1,1.1,1.1,0,0,1,.17-.16,3.54,3.54,0,0,1,.6-.45,4.21,4.21,0,0,1,.75-.4,4.14,4.14,0,0,1,.8-.26h0a4.52,4.52,0,0,1,1.91,0l.25.05a4.83,4.83,0,0,1,1.56.69l.08.05a4.9,4.9,0,0,1,1.43,1.55,4.79,4.79,0,0,1,.38.78,4.47,4.47,0,0,1,.25.84h0a3.47,3.47,0,0,1,.09.55A2.43,2.43,0,0,1,44.1,24.84Z"/><circle class="cls-1" cx="39.23" cy="24.97" r="1.98" transform="translate(-6.51 16.56) rotate(-22.05)"/><rect x="35.84" y="17.87" width="2.18" height="2.8" rx="0.58" ry="0.58" transform="matrix(0.93, -0.38, 0.38, 0.93, -4.53, 15.27)"/><path d="M35.1,22.55l0,.1-.4.94a.6.6,0,0,1-.23.27.57.57,0,0,1-.53,0l-1.51-.64a.58.58,0,0,1-.3-.76l.11-.25.29-.69a.58.58,0,0,1,.76-.31l1.51.64a.58.58,0,0,1,.34.42A.54.54,0,0,1,35.1,22.55Z"/><rect x="32.44" y="25.88" width="2.18" height="2.8" rx="0.58" ry="0.58" transform="translate(20.83 68.6) rotate(-112.05)"/><rect x="35.75" y="29.24" width="2.18" height="2.8" rx="0.58" ry="0.58" transform="translate(58.81 73.21) rotate(-157.05)"/><path d="M42.24,29.51,42.86,31a.58.58,0,0,1-.32.76l-.94.38a.58.58,0,0,1-.76-.32l-.61-1.52a.58.58,0,0,1,.05-.53.52.52,0,0,1,.27-.22l.94-.38a.53.53,0,0,1,.35,0A.58.58,0,0,1,42.24,29.51Z"/><path d="M46.38,27.45l-.19.45-.2.49a.58.58,0,0,1-.76.3l-1.51-.64a.57.57,0,0,1-.34-.41.53.53,0,0,1,0-.35l.35-.81.05-.12a.56.56,0,0,1,.23-.27.59.59,0,0,1,.53,0l1.51.64A.58.58,0,0,1,46.38,27.45Z"/><rect x="43.85" y="21.26" width="2.18" height="2.8" rx="0.58" ry="0.58" transform="translate(49.07 -27.49) rotate(67.95)"/><rect x="40.54" y="17.91" width="2.18" height="2.8" rx="0.58" ry="0.58" transform="translate(10.83 -14.71) rotate(22.95)"/></svg>