<svg id="Layer_1" data-name="Layer 1" xmlns="http://www.w3.org/2000/svg" viewBox="0 0 64 64"><defs><style>.cls-1{fill:none;stroke:#000;stroke-linecap:round;stroke-linejoin:round;stroke-width:2px;}</style></defs><title>Search phone</title><circle cx="47" cy="21" r="1"/><path class="cls-1" d="M43,15h2.35A5.66,5.66,0,0,1,51,20.65v23.7A5.67,5.67,0,0,1,45.35,50H33.65A5.66,5.66,0,0,1,28,44.35V34"/><polyline class="cls-1" points="47 24 47 44 41 44"/><line class="cls-1" x1="36" y1="44" x2="31" y2="44"/><path class="cls-1" d="M31.31,29l.5,0h0a7.64,7.64,0,0,0,5.81-3.34,7.45,7.45,0,0,0,.7-1.26,6.24,6.24,0,0,0,.29-.8l0-.06a7.09,7.09,0,0,0,.22-1,6.7,6.7,0,0,0,.09-1c0-.08,0-.15,0-.23a7.68,7.68,0,1,0-14.58,3.38,7.52,7.52,0,0,0,1.42,2,7.87,7.87,0,0,0,1.49,1.19c.17.09.32.19.49.27l-.23.23L26,30l-8.58,8.58a2.5,2.5,0,0,1-3,.49,2.43,2.43,0,0,1-.65-3.72l.12-.12,6.7-6.7.35-.35"/><path class="cls-1" d="M36.38,44.22a2.79,2.79,0,1,0,5.58,0"/><path class="cls-1" d="M27.67,18.47s1.72-2.25,4.06-1.17"/></svg>