<svg id="Layer_1" data-name="Layer 1" xmlns="http://www.w3.org/2000/svg" viewBox="0 0 64 64"><defs><style>.cls-1{fill:none;stroke:#000;stroke-linecap:round;stroke-linejoin:round;stroke-width:2px;}</style></defs><title>Search</title><path class="cls-1" d="M24.85,35.31l-.49.49h0L15,45.13l-.15.17a3.37,3.37,0,0,0,4.93,4.6L31.86,37.85l2.22-2.22.31-.31c-.23-.11-.45-.24-.67-.37a10.7,10.7,0,0,1-5.15-9.14A10.69,10.69,0,1,1,50,25.8c0,.11,0,.21,0,.32a10.34,10.34,0,0,1-.13,1.4A10.69,10.69,0,0,1,49.08,30a10.69,10.69,0,0,1-9,6.41c-.25,0-.5,0-.76,0a10.44,10.44,0,0,1-1.84-.16"/><circle cx="27" cy="33" r="1" transform="translate(-4.23 3.97) rotate(-7.8)"/><path class="cls-1" d="M32.35,26.93a1.78,1.78,0,0,1,0-2.5,10,10,0,0,1,13.89,0,1.78,1.78,0,0,1,0,2.5"/><path class="cls-1" d="M37.16,26.59a2.24,2.24,0,0,1,0-1A2.2,2.2,0,0,1,39,23.92a2.3,2.3,0,0,1,2.51,2.57c-.11,1.75-2,2.47-3.46,2.78H38l-.26,0A4.39,4.39,0,0,1,35.54,29a9.37,9.37,0,0,1-3.19-2.09,1.78,1.78,0,0,1,0-2.5,10,10,0,0,1,13.88,0,1.79,1.79,0,0,1,0,2.51,9.34,9.34,0,0,1-3,2"/></svg>