<svg id="Layer_1" data-name="Layer 1" xmlns="http://www.w3.org/2000/svg" viewBox="0 0 64 64"><defs><style>.cls-1{fill:none;stroke:#000;stroke-linecap:round;stroke-linejoin:round;stroke-width:2px;}</style></defs><title>search person</title><path class="cls-1" d="M24.85,35.31l-.49.49h0L15,45.13l-.15.17a3.37,3.37,0,0,0,4.93,4.6L31.86,37.85l2.22-2.22.31-.31c-.23-.11-.45-.24-.67-.37a10.7,10.7,0,0,1-5.15-9.14A10.69,10.69,0,1,1,50,25.8c0,.11,0,.21,0,.32a10.34,10.34,0,0,1-.13,1.4A10.69,10.69,0,0,1,49.08,30a10.69,10.69,0,0,1-9,6.41c-.25,0-.5,0-.76,0a10.44,10.44,0,0,1-1.84-.16"/><circle cx="27" cy="33" r="1" transform="translate(-4.23 3.97) rotate(-7.8)"/><line class="cls-1" x1="35.9" y1="25.47" x2="32.42" y2="34"/><line class="cls-1" x1="36" y1="31" x2="36" y2="25"/><path class="cls-1" d="M40,23h.78A2.22,2.22,0,0,1,43,25.22V35"/><path class="cls-1" d="M39.54,18.83a2.25,2.25,0,1,0,0,4.51"/><line class="cls-1" x1="42.72" y1="24.65" x2="46.13" y2="33.33"/></svg>