<svg id="Layer_1" data-name="Layer 1" xmlns="http://www.w3.org/2000/svg" viewBox="0 0 64 64"><defs><style>.cls-1{fill:none;stroke:#000;stroke-linecap:round;stroke-linejoin:round;stroke-width:2px;}</style></defs><title>Security</title><path class="cls-1" d="M22.25,15.41S16.13,22,19.2,30.31"/><circle cx="49.04" cy="17.03" r="1.38"/><circle cx="38.8" cy="17.03" r="1.38"/><circle cx="28.25" cy="17.03" r="1.38"/><path class="cls-1" d="M31.59,36.49A23,23,0,0,1,28,24.13V21a5.19,5.19,0,0,0,5.2,5.2A5.21,5.21,0,0,0,38.39,21"/><path class="cls-1" d="M44,38.53A23.62,23.62,0,0,0,49,24V20.8a5.34,5.34,0,0,1-1.47,3.68A4.93,4.93,0,0,1,44,26h0a5.12,5.12,0,0,1-5-5.2V38"/><path class="cls-1" d="M46.12,42.82a2,2,0,0,1,2.87,0h0a2,2,0,0,1,0,2.87"/><path class="cls-1" d="M16.69,45l.17-.17,6.46-6.45a4.46,4.46,0,0,1,1.33-.94,4.55,4.55,0,0,1,2-.44H36.69a1.85,1.85,0,0,1,1.75,1.59,2,2,0,0,1,0,.41A2,2,0,0,1,38,40.41a1.67,1.67,0,0,1-1.26.59H28"/><path class="cls-1" d="M46.15,42.79a10.81,10.81,0,0,1-3,2.72,10.48,10.48,0,0,1-5.55,1.58h-.3a10.54,10.54,0,0,1-9.47-6.53"/><circle cx="14.58" cy="46.49" r="1"/></svg>