<svg id="Layer_1" data-name="Layer 1" xmlns="http://www.w3.org/2000/svg" viewBox="0 0 64 64"><defs><style>.cls-1{fill:none;stroke:#000;stroke-linecap:round;stroke-linejoin:round;stroke-width:2px;}</style></defs><title>settings person</title><line class="cls-1" x1="14.84" y1="26.69" x2="11.05" y2="35.86"/><path class="cls-1" d="M20,24h1a3,3,0,0,1,3,3v7.95A2.09,2.09,0,0,1,21.91,37H17.09A2.09,2.09,0,0,1,15,34.91V27"/><path class="cls-1" d="M19.67,17.86a3,3,0,0,0,0,6"/><line class="cls-1" x1="23.91" y1="25.6" x2="27.83" y2="35.86"/><line class="cls-1" x1="15.84" y1="51.46" x2="14.84" y2="34.5"/><line class="cls-1" x1="24.17" y1="34.43" x2="23.21" y2="50.86"/><path class="cls-1" d="M19,41v9.57a.43.43,0,0,0,.43.43h2.86a.43.43,0,0,0,.43-.43"/><path class="cls-1" d="M30.41,32.71a9.69,9.69,0,0,1,0-4.31,9.79,9.79,0,0,1,1.31-3.11,9.6,9.6,0,0,1,3.09-3,9,9,0,0,1,1.5-.77A9.38,9.38,0,0,1,38,21h0a9.86,9.86,0,0,1,10.45,4.42,9.58,9.58,0,0,1,1.26,3.13,9.64,9.64,0,0,1,0,4.3A9.89,9.89,0,0,1,45.24,39h0a9.21,9.21,0,0,1-1.49.76,5.75,5.75,0,0,1-.67.24"/><path class="cls-1" d="M36.47,32.2a3.86,3.86,0,1,1,6.87.56"/><rect x="33.42" y="16.91" width="4.25" height="5.46" rx="1.13" ry="1.13" transform="translate(-4.77 14.78) rotate(-22.05)"/><rect x="27.69" y="22.84" width="4.25" height="5.46" rx="1.13" ry="1.13" transform="translate(-5.36 43.05) rotate(-67.05)"/><rect x="48.96" y="32.69" width="4.25" height="5.46" rx="1.13" ry="1.13" transform="translate(103.62 2.2) rotate(112.95)"/><rect x="49.03" y="23.52" width="4.25" height="5.46" rx="1.13" ry="1.13" transform="translate(56.28 -31.02) rotate(67.95)"/><rect x="42.59" y="16.98" width="4.25" height="5.46" rx="1.13" ry="1.13" transform="translate(11.22 -15.87) rotate(22.95)"/><path class="cls-1" d="M43.14,43.37A5.24,5.24,0,0,1,43,45a6.59,6.59,0,0,1-.26.87,6.07,6.07,0,0,1-.63,1.25A6.4,6.4,0,0,1,40,49.18a6,6,0,0,1-1,.52A6.42,6.42,0,0,1,38,50a6.25,6.25,0,0,1-2.89,0h0A6.1,6.1,0,0,1,33,49.12,6.28,6.28,0,0,1,31,47h0a5.82,5.82,0,0,1-.52-1,5.91,5.91,0,0,1-.33-1.1,6.71,6.71,0,0,1,0-2.91,6.55,6.55,0,0,1,.63-1.67,2.76,2.76,0,0,1,.25-.43,6.18,6.18,0,0,1,1-1.26,1.46,1.46,0,0,1,.22-.21,4.7,4.7,0,0,1,.8-.59A6.26,6.26,0,0,1,35.18,37h0a6.18,6.18,0,0,1,2.54,0l.33.07a6.52,6.52,0,0,1,2.08.89l.11.07a6.44,6.44,0,0,1,1.91,2,6.16,6.16,0,0,1,.51,1A5.7,5.7,0,0,1,43,42.1h0a4.4,4.4,0,0,1,.12.71C43.15,43,43.13,43.19,43.14,43.37Z"/><circle class="cls-1" cx="36.51" cy="43.65" r="2.73" transform="translate(-13.72 16.9) rotate(-22.05)"/><rect x="31.82" y="33.84" width="3.01" height="3.87" rx="0.8" ry="0.8" transform="translate(-11 15.13) rotate(-22.05)"/><path d="M30.8,40.3l0,.14-.55,1.3a.83.83,0,0,1-.32.37.78.78,0,0,1-.73.05l-2.09-.88a.81.81,0,0,1-.42-1.05l.15-.34.4-.95a.8.8,0,0,1,1-.43l2.08.88a.8.8,0,0,1,.47.58A.74.74,0,0,1,30.8,40.3Z"/><rect x="27.14" y="44.9" width="3.01" height="3.87" rx="0.8" ry="0.8" transform="translate(-4.01 90.97) rotate(-112.05)"/><rect x="31.7" y="49.53" width="3.01" height="3.87" rx="0.8" ry="0.8" transform="translate(43.71 111.8) rotate(-157.05)"/><path d="M40.67,49.91,41.52,52a.8.8,0,0,1-.44,1l-1.29.52a.8.8,0,0,1-1-.44L37.89,51A.8.8,0,0,1,38,50.3a.73.73,0,0,1,.37-.31l1.29-.52a.72.72,0,0,1,.48,0A.8.8,0,0,1,40.67,49.91Z"/><path d="M46.38,47.07l-.26.62-.28.67a.8.8,0,0,1-1,.42L42.7,47.9a.79.79,0,0,1-.47-.57.73.73,0,0,1,0-.48l.48-1.12.07-.17a.78.78,0,0,1,.32-.37.82.82,0,0,1,.73-.06L46,46A.8.8,0,0,1,46.38,47.07Z"/><rect x="42.88" y="38.53" width="3.01" height="3.87" rx="0.8" ry="0.8" transform="translate(65.22 -15.87) rotate(67.95)"/><rect x="38.32" y="33.9" width="3.01" height="3.87" rx="0.8" ry="0.8" transform="translate(17.12 -12.69) rotate(22.95)"/><path class="cls-1" d="M48.66,51.19s3.14-3.76,1.22-8.21"/><path class="cls-1" d="M33.58,15s-4.87-.54-7.52,3.51"/><path class="cls-1" d="M17.43,12.37S9.56,16.7,9.87,25.57"/></svg>