<svg id="Layer_1" data-name="Layer 1" xmlns="http://www.w3.org/2000/svg" viewBox="0 0 64 64"><defs><style>.cls-1{fill:none;stroke:#000;stroke-linecap:round;stroke-linejoin:round;stroke-width:2px;}</style></defs><title>Settings</title><path class="cls-1" d="M26,30.71a9.69,9.69,0,0,1,0-4.31A9.79,9.79,0,0,1,27.3,23.3a9.6,9.6,0,0,1,3.09-3,9,9,0,0,1,1.5-.77A9.36,9.36,0,0,1,33.49,19h0A9.86,9.86,0,0,1,44,23.42a9.59,9.59,0,0,1,1.26,3.13,9.64,9.64,0,0,1,0,4.3A9.89,9.89,0,0,1,40.79,37h0a9.22,9.22,0,0,1-1.49.76,5.77,5.77,0,0,1-.67.24"/><path class="cls-1" d="M32,30.34a3.86,3.86,0,1,1,6.87.56"/><rect x="28.96" y="15.05" width="4.25" height="5.46" rx="1.13" ry="1.13" transform="translate(-4.4 12.97) rotate(-22.05)"/><rect x="22.42" y="21.49" width="4.25" height="5.46" rx="1.13" ry="1.13" transform="translate(-7.32 37.38) rotate(-67.05)"/><rect x="44.5" y="30.83" width="4.25" height="5.46" rx="1.13" ry="1.13" transform="translate(95.72 3.72) rotate(112.95)"/><rect x="44.57" y="21.66" width="4.25" height="5.46" rx="1.13" ry="1.13" transform="translate(51.77 -28.05) rotate(67.95)"/><rect x="38.14" y="15.12" width="4.25" height="5.46" rx="1.13" ry="1.13" transform="translate(10.15 -14.29) rotate(22.95)"/><path class="cls-1" d="M38.13,41a7,7,0,0,1-.13,2,6.85,6.85,0,0,1-.27.93,6.07,6.07,0,0,1-.63,1.25A6.4,6.4,0,0,1,35,47.18a6,6,0,0,1-1,.52A6.43,6.43,0,0,1,33,48a6.25,6.25,0,0,1-2.89,0h0A6.11,6.11,0,0,1,28,47.12,6.28,6.28,0,0,1,26,45h0a5.82,5.82,0,0,1-.52-1,5.94,5.94,0,0,1-.33-1.1,6.71,6.71,0,0,1,0-2.91,6.55,6.55,0,0,1,.63-1.67,2.77,2.77,0,0,1,.25-.43,6.18,6.18,0,0,1,1-1.26,1.46,1.46,0,0,1,.22-.21,4.7,4.7,0,0,1,.8-.59A6.25,6.25,0,0,1,30.18,35h0a6.18,6.18,0,0,1,2.54,0l.33.07a6.52,6.52,0,0,1,2.08.89l.11.07a6.44,6.44,0,0,1,1.91,2,6.15,6.15,0,0,1,.51,1A5.7,5.7,0,0,1,38,40.1h0a4.41,4.41,0,0,1,.12.72A1.18,1.18,0,0,1,38.13,41Z"/><circle class="cls-1" cx="32.06" cy="41.79" r="2.73" transform="translate(-13.34 15.09) rotate(-22.05)"/><rect x="27.37" y="31.98" width="3.01" height="3.87" rx="0.8" ry="0.8" transform="translate(-10.62 13.32) rotate(-22.05)"/><path d="M26.35,38.44l-.05.14-.55,1.3a.83.83,0,0,1-.32.37.78.78,0,0,1-.73.05l-2.09-.88a.81.81,0,0,1-.42-1.05l.15-.34.4-1a.8.8,0,0,1,1.05-.43l2.08.88a.8.8,0,0,1,.47.58A.74.74,0,0,1,26.35,38.44Z"/><rect x="22.68" y="43.04" width="3.01" height="3.87" rx="0.8" ry="0.8" transform="translate(-8.42 84.28) rotate(-112.05)"/><rect x="27.24" y="47.67" width="3.01" height="3.87" rx="0.8" ry="0.8" transform="translate(35.88 106.5) rotate(-157.05)"/><path d="M36.21,48l.85,2.09a.8.8,0,0,1-.44,1l-1.29.52a.8.8,0,0,1-1-.44l-.85-2.09a.8.8,0,0,1,.07-.74.72.72,0,0,1,.37-.31l1.29-.52a.72.72,0,0,1,.48,0A.8.8,0,0,1,36.21,48Z"/><path d="M41.93,45.21l-.26.62-.28.67a.8.8,0,0,1-1,.42L38.25,46a.79.79,0,0,1-.47-.57.73.73,0,0,1,0-.48l.48-1.12.07-.17a.78.78,0,0,1,.32-.37.82.82,0,0,1,.73-.06l2.09.89A.8.8,0,0,1,41.93,45.21Z"/><rect x="38.42" y="36.67" width="3.01" height="3.87" rx="0.8" ry="0.8" transform="translate(60.71 -12.9) rotate(67.95)"/><rect x="33.86" y="32.04" width="3.01" height="3.87" rx="0.8" ry="0.8" transform="translate(16.04 -11.1) rotate(22.95)"/><path class="cls-1" d="M24.14,43.77a5.16,5.16,0,1,1-.23-9.66"/><rect x="18.68" y="31.62" width="2.26" height="2.9" rx="0.6" ry="0.6" transform="translate(-10.97 9.85) rotate(-22.05)"/><rect x="15.2" y="35.04" width="2.26" height="2.9" rx="0.6" ry="0.6" transform="translate(-23.64 37.3) rotate(-67.05)"/><rect x="15.16" y="39.92" width="2.26" height="2.9" rx="0.6" ry="0.6" transform="translate(-15.94 72.01) rotate(-112.05)"/><rect x="18.58" y="43.4" width="2.26" height="2.9" rx="0.6" ry="0.6" transform="translate(20.38 93.84) rotate(-157.05)"/><path class="cls-1" d="M44.2,49.33s3.14-3.76,1.22-8.21"/><path class="cls-1" d="M25.28,14.23s-7.86,4.33-7.56,13.2"/><path class="cls-1" d="M14.32,46a7.17,7.17,0,0,0,6.11,3.63"/></svg>