<svg id="Layer_1" data-name="Layer 1" xmlns="http://www.w3.org/2000/svg" viewBox="0 0 64 64"><defs><style>.cls-1{fill:none;stroke:#000;stroke-linecap:round;stroke-linejoin:round;stroke-width:2px;}</style></defs><title>Signal</title><path class="cls-1" d="M40.88,33.57A11.32,11.32,0,0,0,37,16.38"/><path class="cls-1" d="M36,12a12.4,12.4,0,0,1,1.67.57A15.08,15.08,0,0,1,41.88,38"/><path class="cls-1" d="M39.49,27.46a7.29,7.29,0,0,0,.06-.91,7.46,7.46,0,0,0-1.19-4.05"/><path class="cls-1" d="M37,16.38a11.32,11.32,0,0,1,3.92,17.19"/><path class="cls-1" d="M23.12,33.56A11.31,11.31,0,0,1,27,16.38"/><path class="cls-1" d="M25.65,22.5a7.46,7.46,0,0,0-1.19,4.05,7.29,7.29,0,0,0,.06.91"/><path class="cls-1" d="M39.49,27.46a7.29,7.29,0,0,0,.06-.91,7.46,7.46,0,0,0-1.19-4.05"/><path class="cls-1" d="M37,16.38a11.32,11.32,0,0,1,3.92,17.19"/><path class="cls-1" d="M22.11,37.95a15.08,15.08,0,0,1,4.26-25.38A12.39,12.39,0,0,1,28,12"/><path class="cls-1" d="M27,16.38a11.31,11.31,0,0,0-3.92,17.18"/><path class="cls-1" d="M34,51H25.74a1.22,1.22,0,0,1-1.18-1.53l3.52-13.35L30.82,25.7a1.22,1.22,0,0,1,2.35,0l2.74,10.42,3.52,13.35"/><circle cx="36.71" cy="51.06" r="0.94"/></svg>