<svg id="Layer_1" data-name="Layer 1" xmlns="http://www.w3.org/2000/svg" viewBox="0 0 64 64"><defs><style>.cls-1{fill:none;stroke:#000;stroke-linecap:round;stroke-linejoin:round;stroke-width:2px;}</style></defs><title>Star</title><path class="cls-1" d="M29.53,46l-6.44,3.39A2.27,2.27,0,0,1,19.79,47l1.38-8a2.3,2.3,0,0,0-.65-2l-5.85-5.69a2.27,2.27,0,0,1,1.26-3.88L24,26.19a2.29,2.29,0,0,0,1.71-1.24l3.62-7.32a2.26,2.26,0,0,1,4.07,0L37,24.94a2.29,2.29,0,0,0,1.71,1.24l8.08,1.17a2.27,2.27,0,0,1,1.26,3.88l-4.66,4.51"/><path class="cls-1" d="M37.37,48.18l1.77-.93a1.36,1.36,0,0,1,1.24,0l2.31,1.22"/><path class="cls-1" d="M43.41,35.75l-1.54-3.16L41,30.78a1.34,1.34,0,0,0-2.41,0l-2.12,4.31a1.35,1.35,0,0,1-1,.73l-4.76.7a1.33,1.33,0,0,0-.74,2.28l3.44,3.36a1.33,1.33,0,0,1,.38,1.18L33.3,46l-.35,2a1.34,1.34,0,0,0,1.94,1.42l2.49-1.31"/><path class="cls-1" d="M49.9,37.3a1.33,1.33,0,0,1-.29,1.5l-3.45,3.36a1.35,1.35,0,0,0-.38,1.18l.82,4.74a1.35,1.35,0,0,1-1.95,1.42l-1.95-1"/><circle cx="47" cy="36.19" r="1"/></svg>