<svg id="Layer_1" data-name="Layer 1" xmlns="http://www.w3.org/2000/svg" viewBox="0 0 64 64"><defs><style>.cls-1{fill:none;stroke:#000;stroke-linecap:round;stroke-linejoin:round;stroke-width:2px;}</style></defs><title>Storage sorting</title><circle cx="37" cy="18" r="1"/><circle cx="49" cy="18" r="1"/><path class="cls-1" d="M25,25v7.87A3.13,3.13,0,0,0,28.13,36h6A1.85,1.85,0,0,1,36,37.85V43"/><path class="cls-1" d="M26,46h7V40.84A1.84,1.84,0,0,0,31.16,39H27.07a5.07,5.07,0,0,1-4.83-3.36A4.64,4.64,0,0,1,22,34.16V24"/><path class="cls-1" d="M39,19.68a8.69,8.69,0,0,1,1,4.06V46h9"/><path class="cls-1" d="M22.11,23.91a8.8,8.8,0,0,1,8.77-8.77h0a8.7,8.7,0,0,1,4.71,1.38"/><polyline class="cls-1" points="49 21 49 43 43 43 43 16 49 16"/><line class="cls-1" x1="26" y1="29" x2="33" y2="29"/><path class="cls-1" d="M23.87,48.49a2.38,2.38,0,0,1-4.75,0"/><path class="cls-1" d="M38.53,48.49a2.38,2.38,0,1,1-4.75,0"/><path class="cls-1" d="M14.07,39.24a4.61,4.61,0,0,1,4.53-3.8"/><path class="cls-1" d="M25.62,46a4.13,4.13,0,1,0-8.26,0H14V42"/></svg>