<svg id="Layer_1" data-name="Layer 1" xmlns="http://www.w3.org/2000/svg" viewBox="0 0 64 64"><defs><style>.cls-1{fill:none;stroke:#000;stroke-linecap:round;stroke-linejoin:round;stroke-width:2px;}</style></defs><title>Store</title><path class="cls-1" d="M45,32V45.05A6,6,0,0,1,39.05,51H24.95A6,6,0,0,1,19,45.05V37.34A2.34,2.34,0,0,1,21.34,35h5.31A2.35,2.35,0,0,1,29,37.34V46"/><path class="cls-1" d="M23.07,27a4.46,4.46,0,0,1-8.93,0"/><path class="cls-1" d="M32,27a4.45,4.45,0,0,1-2.28,3.89,4.18,4.18,0,0,1-.77.34A4.46,4.46,0,0,1,23.07,27"/><path class="cls-1" d="M32,27a4.46,4.46,0,0,0,8.89.57,4.85,4.85,0,0,0,0-.57"/><path class="cls-1" d="M49.64,27A4.47,4.47,0,0,1,42,30.16h0L41.85,30a4.37,4.37,0,0,1-1.07-2.23s0,0,0,0a4.4,4.4,0,0,1-.06-.71"/><path class="cls-1" d="M18.51,16.1l.12-.14a2.8,2.8,0,0,1,2.1-1H43.22A2.79,2.79,0,0,1,46,17.78v.43A2.79,2.79,0,0,1,43.22,21H23.71c-1.14,0-2.27,0-3.4-.07a6.1,6.1,0,0,0-4.76,1.93A5.33,5.33,0,0,0,14,27"/><circle cx="17" cy="18" r="1"/><circle cx="49" cy="24" r="1"/></svg>