<svg id="Layer_1" data-name="Layer 1" xmlns="http://www.w3.org/2000/svg" viewBox="0 0 64 64"><defs><style>.cls-1{fill:none;stroke:#000;stroke-linecap:round;stroke-linejoin:round;stroke-width:2px;}</style></defs><title>Store delivery</title><path class="cls-1" d="M25.83,23.19a4.46,4.46,0,0,1-8.93,0"/><path class="cls-1" d="M34.75,23.19a4.45,4.45,0,0,1-2.28,3.89,4.17,4.17,0,0,1-.77.34,4.46,4.46,0,0,1-5.88-4.23"/><path class="cls-1" d="M34.75,23.19a4.46,4.46,0,0,0,8.89.57,4.85,4.85,0,0,0,0-.57"/><path class="cls-1" d="M52.64,23.19A4.47,4.47,0,0,1,45,26.33h0l-.15-.16a4.37,4.37,0,0,1-1.07-2.23s0,0,0,0a4.4,4.4,0,0,1-.06-.71"/><path class="cls-1" d="M21.51,12.1l.12-.14a2.8,2.8,0,0,1,2.1-1H46.22A2.79,2.79,0,0,1,49,13.78v.43A2.79,2.79,0,0,1,46.22,17H26.71c-1.14,0-2.27,0-3.41-.07a6.1,6.1,0,0,0-4.76,1.93A5.33,5.33,0,0,0,17,23"/><circle cx="52" cy="20" r="1"/><path class="cls-1" d="M44.41,52.79a2,2,0,1,1-3.92,0"/><path class="cls-1" d="M29.44,52.79a2,2,0,1,1-3.92,0"/><path class="cls-1" d="M41,37l3,0a2.1,2.1,0,0,1,2,1.57l2.59,9.88A2.53,2.53,0,0,1,46.09,51H26.18A4.19,4.19,0,0,1,22,46.82V39.18A4.19,4.19,0,0,1,26.18,35h7.64A4.19,4.19,0,0,1,38,39.18V48"/><polyline class="cls-1" points="41 40 41 44 44 44"/><line class="cls-1" x1="49" y1="28" x2="49" y2="35"/><polyline class="cls-1" points="21 27 21 32 15 32"/><line class="cls-1" x1="19" y1="41" x2="15" y2="41"/><line class="cls-1" x1="19" y1="52" x2="11" y2="52"/></svg>