<svg id="Layer_1" data-name="Layer 1" xmlns="http://www.w3.org/2000/svg" viewBox="0 0 64 64"><defs><style>.cls-1,.cls-2{fill:none;}.cls-1{stroke:#000;stroke-linecap:round;stroke-linejoin:round;stroke-width:2px;}</style></defs><title>Strategy</title><path class="cls-1" d="M22,20V12.81A1.82,1.82,0,0,1,23.81,11h.41A1.78,1.78,0,0,1,26,12.77v1.69a2,2,0,0,0,2,2.05h0a2,2,0,0,0,2-2.05V13.14S30,11,32,11a1.77,1.77,0,0,1,2,2v1.68a2,2,0,0,0,2,2h0a2,2,0,0,0,2-2v-1.9A1.82,1.82,0,0,1,39.81,11h.37A1.82,1.82,0,0,1,42,12.81v8.85A3.34,3.34,0,0,1,38.67,25H26"/><path class="cls-1" d="M31,48H24.87a4.44,4.44,0,0,1-4.41-5L22.1,29.27S22.13,25,26,25"/><line class="cls-1" x1="41.83" y1="30.56" x2="43.49" y2="44.5"/><path class="cls-1" d="M18,50v0a2,2,0,0,0,2,2H43a2,2,0,0,0,2-2v-.29c0-1.11-.9-1.69-2-1.69H31"/><circle cx="22.31" cy="23.06" r="1"/><circle cx="41.43" cy="27.91" r="1"/><path class="cls-2" d="M21,44v-.46l.05,1.12.1,2.32C16.94,48.39,19,51,19,51"/></svg>