<svg id="Layer_1" data-name="Layer 1" xmlns="http://www.w3.org/2000/svg" viewBox="0 0 64 64"><defs><style>.cls-1{fill:none;stroke:#000;stroke-linecap:round;stroke-linejoin:round;stroke-width:2px;}</style></defs><title>Target</title><polyline class="cls-1" points="42.62 39.02 43.58 40.69 49.48 51.08"/><path class="cls-1" d="M26.46,47.35l3.85-6.66L34.16,34a3.23,3.23,0,0,1,4.67-1"/><path class="cls-1" d="M15.18,51,19,44.37l3.85-6.66a3.22,3.22,0,0,1,5.58,0l1.79,3.1"/><path class="cls-1" d="M15,51V11h7.47a2.9,2.9,0,0,0,2.78,3H32a3,3,0,0,1,3,3V23.4A1.6,1.6,0,0,1,33.4,25H22V23.5A1.5,1.5,0,0,0,20.5,22H18"/><circle cx="41.02" cy="36.09" r="1"/></svg>