<svg id="Layer_1" data-name="Layer 1" xmlns="http://www.w3.org/2000/svg" viewBox="0 0 64 64"><defs><style>.cls-1{fill:none;stroke:#000;stroke-linecap:round;stroke-linejoin:round;stroke-width:2px;}</style></defs><title>Target person</title><line class="cls-1" x1="22.9" y1="29.39" x2="19.11" y2="38.55"/><path class="cls-1" d="M28,26h1a3,3,0,0,1,3,3v7.95A2.09,2.09,0,0,1,29.91,39H25.09A2.09,2.09,0,0,1,23,36.91V29"/><path class="cls-1" d="M27.73,20.55a3,3,0,0,0,0,6"/><line class="cls-1" x1="31.97" y1="28.29" x2="35.89" y2="38.55"/><line class="cls-1" x1="23.9" y1="54.16" x2="22.9" y2="37.19"/><line class="cls-1" x1="32.23" y1="37.13" x2="31.27" y2="53.55"/><path class="cls-1" d="M28,44v9.57a.43.43,0,0,0,.43.43h2.86a.43.43,0,0,0,.43-.43"/><path class="cls-1" d="M26.31,16.69A9.39,9.39,0,1,1,36.57,28"/><polygon class="cls-1" points="35.5 13.4 37.2 16.84 40.98 17.39 38.24 20.06 38.89 23.84 35.5 22.05 32.11 23.84 32.76 20.06 30.02 17.39 33.8 16.84 35.5 13.4"/></svg>