<svg id="Layer_1" data-name="Layer 1" xmlns="http://www.w3.org/2000/svg" viewBox="0 0 64 64"><defs><style>.cls-1{fill:none;stroke:#000;stroke-linecap:round;stroke-linejoin:round;stroke-width:2px;}</style></defs><title>Teamwork</title><path class="cls-1" d="M40,24V15.6A1.61,1.61,0,0,1,41.6,14h5.92A3.48,3.48,0,0,1,51,17.47V27"/><path class="cls-1" d="M39.53,24.36l-2-2.86a1.47,1.47,0,1,0-2.43,1.66L37,25.86h0l.86,1.24.57.84c.72,1.05,2.1,2.87,2.1,4.14"/><path class="cls-1" d="M49,36V31.53a7.59,7.59,0,0,0,1.19-4.33"/><path class="cls-1" d="M27,15H16.54A2.55,2.55,0,0,0,14,17.54v7.29A1.17,1.17,0,0,0,15.17,26H24"/><path class="cls-1" d="M24.19,26,22,27.54l-.64.44A1.46,1.46,0,1,0,23,30.4l.11-.07,4.68-3.21c1-.71,2.87-2.09,4.13-2.09"/><path class="cls-1" d="M27,15.81A7.44,7.44,0,0,1,31.36,17H36"/><path class="cls-1" d="M25,42v8.4A1.61,1.61,0,0,1,23.4,52H17.47A3.48,3.48,0,0,1,14,48.53V39"/><path class="cls-1" d="M24.47,41.64l2,2.86a1.47,1.47,0,1,0,2.43-1.66L27,40.14h0l-.86-1.24-.57-.84c-.72-1-2.1-2.87-2.1-4.14"/><path class="cls-1" d="M13.81,38.8A7.54,7.54,0,0,1,15,34.47V31"/><path class="cls-1" d="M40,40h8.4A1.61,1.61,0,0,1,50,41.6v5.92A3.48,3.48,0,0,1,46.53,51H37"/><path class="cls-1" d="M32.68,41c1.27,0,3.09-1.38,4.13-2.09L41.6,35.6A1.47,1.47,0,1,1,43.26,38l-2.85,2"/><path class="cls-1" d="M37.57,50.19A7.44,7.44,0,0,1,33.24,49H29"/></svg>