<svg id="Layer_1" data-name="Layer 1" xmlns="http://www.w3.org/2000/svg" viewBox="0 0 64 64"><defs><style>.cls-1{fill:none;stroke:#000;stroke-linecap:round;stroke-linejoin:round;stroke-width:2px;}</style></defs><title>Team</title><line class="cls-1" x1="19.21" y1="22.92" x2="15.42" y2="32.08"/><path class="cls-1" d="M21.09,32.75A2.09,2.09,0,0,1,19,30.66V23"/><line class="cls-1" x1="24" y1="20" x2="26" y2="20"/><path class="cls-1" d="M24,14.08a3,3,0,0,0,0,6"/><line class="cls-1" x1="20.21" y1="47.69" x2="19.21" y2="30.72"/><line class="cls-1" x1="28.54" y1="30.66" x2="27.58" y2="47.08"/><path class="cls-1" d="M24,41v6.57a.43.43,0,0,0,.43.43h2.86a.43.43,0,0,0,.43-.43"/><path class="cls-1" d="M41,20h1a3,3,0,0,1,3,3v7.61a2.09,2.09,0,0,1-2.09,2.09"/><path class="cls-1" d="M40.43,14.08a3,3,0,0,0,0,6"/><line class="cls-1" x1="44.66" y1="21.82" x2="48.58" y2="32.08"/><line class="cls-1" x1="44.93" y1="30.66" x2="43.97" y2="47.08"/><path class="cls-1" d="M40,40l0,7.57a.43.43,0,0,0,.43.43h2.86a.43.43,0,0,0,.43-.43"/><line class="cls-1" x1="27.21" y1="26.53" x2="23.42" y2="35.7"/><path class="cls-1" d="M32,24h1a3,3,0,0,1,3,3v7.95A2.09,2.09,0,0,1,33.91,37H29.09A2.09,2.09,0,0,1,27,34.91V27"/><path class="cls-1" d="M32,17.7a3,3,0,0,0,0,6"/><line class="cls-1" x1="36.27" y1="25.43" x2="40.19" y2="35.7"/><line class="cls-1" x1="28.21" y1="51.3" x2="27.21" y2="34.34"/><line class="cls-1" x1="36.54" y1="34.27" x2="35.58" y2="50.7"/><path class="cls-1" d="M32,41v9.57a.43.43,0,0,0,.43.43h2.86a.43.43,0,0,0,.43-.43"/></svg>