<svg id="Layer_1" data-name="Layer 1" xmlns="http://www.w3.org/2000/svg" viewBox="0 0 64 64"><defs><style>.cls-1{fill:none;stroke:#000;stroke-linecap:round;stroke-linejoin:round;stroke-width:2px;}</style></defs><title>Team communication</title><line class="cls-1" x1="38.99" y1="23.42" x2="36.2" y2="30.17"/><path class="cls-1" d="M43,21h.82A2.18,2.18,0,0,1,46,23.18v5.28A1.54,1.54,0,0,1,44.46,30H40.54A1.54,1.54,0,0,1,39,28.46V23"/><path class="cls-1" d="M42.56,16.9a2.21,2.21,0,0,0,0,4.42"/><line class="cls-1" x1="45.68" y1="22.61" x2="48.57" y2="30.17"/><line class="cls-1" x1="18.23" y1="23.42" x2="15.43" y2="30.17"/><path class="cls-1" d="M22,21h.82A2.18,2.18,0,0,1,25,23.18v5.28A1.54,1.54,0,0,1,23.46,30H19.54A1.54,1.54,0,0,1,18,28.46V23"/><path class="cls-1" d="M21.79,16.9a2.21,2.21,0,1,0,0,4.42"/><line class="cls-1" x1="24.91" y1="22.61" x2="27.8" y2="30.17"/><line class="cls-1" x1="28.98" y1="41.85" x2="26.18" y2="48.61"/><path class="cls-1" d="M33,40h.82A2.18,2.18,0,0,1,36,42.18v5.28A1.54,1.54,0,0,1,34.46,49H30.54A1.54,1.54,0,0,1,29,47.46V42"/><path class="cls-1" d="M32.54,35.33a2.21,2.21,0,1,0,0,4.42"/><line class="cls-1" x1="35.66" y1="41.04" x2="38.55" y2="48.61"/><path class="cls-1" d="M25.67,42.59a12,12,0,0,1-5.29-7.4"/><path class="cls-1" d="M43.84,34.47a12,12,0,0,1-4.38,7.38"/><path class="cls-1" d="M28.5,21a12,12,0,0,1,7.78.24"/></svg>