<svg id="Layer_1" data-name="Layer 1" xmlns="http://www.w3.org/2000/svg" viewBox="0 0 64 64"><defs><style>.cls-1{fill:none;stroke:#000;stroke-linecap:round;stroke-linejoin:round;stroke-width:2px;}</style></defs><title>Team member communication</title><path class="cls-1" d="M35.29,25.35l.75.78,2,2V25.42s.44,0,1-.06a7.07,7.07,0,0,0,3-.8,4.66,4.66,0,0,0,1.85-2.71A4.82,4.82,0,0,0,44,20.71V15.63a4.61,4.61,0,0,0-3.37-4.49A3.88,3.88,0,0,0,39.55,11H31"/><path class="cls-1" d="M24,20V15.22a4.63,4.63,0,0,1,3-4.36"/><line class="cls-1" x1="28" y1="16" x2="40" y2="16"/><line class="cls-1" x1="34" y1="20" x2="40" y2="20"/><line class="cls-1" x1="24.14" y1="30.02" x2="20.35" y2="39.19"/><path class="cls-1" d="M29,27h1a3,3,0,0,1,3,3v7.95A2.09,2.09,0,0,1,30.91,40H26.09A2.09,2.09,0,0,1,24,37.91V30"/><path class="cls-1" d="M29,21.19a3,3,0,0,0,0,6"/><line class="cls-1" x1="33.21" y1="28.92" x2="37.13" y2="39.19"/><line class="cls-1" x1="25.14" y1="54.79" x2="24.14" y2="37.83"/><line class="cls-1" x1="33.48" y1="37.76" x2="32.51" y2="54.19"/><path class="cls-1" d="M29,45v9.57a.43.43,0,0,0,.43.43h2.86a.43.43,0,0,0,.43-.43"/></svg>