<svg id="Layer_1" data-name="Layer 1" xmlns="http://www.w3.org/2000/svg" viewBox="0 0 64 64"><defs><style>.cls-1,.cls-2,.cls-3,.cls-4{fill:none;stroke:#000;stroke-linecap:round;stroke-linejoin:round;stroke-width:2px;}.cls-2{stroke-dasharray:0 5.53 0 0;}.cls-3{stroke-dasharray:5.53 0 0 5.53 0 0;}.cls-4{stroke-dasharray:0 4.45 0 0;}</style></defs><title>Thought process</title><path class="cls-1" d="M37,44h6.16a1.54,1.54,0,0,1,1.77,1.6h0A3.18,3.18,0,0,1,43.16,48H37"/><circle cx="40.15" cy="50.63" r="0.88"/><path class="cls-1" d="M33.4,23.9a9.59,9.59,0,1,1,11.2,15.3,6.87,6.87,0,0,1-4.46.81H37.48a6,6,0,0,0-1.25.81,1.73,1.73,0,0,0-.52,1.25A2.06,2.06,0,0,0,37.48,44H43"/><path class="cls-1" d="M24,44h5.65a1.54,1.54,0,0,1,1.77,1.6h0A3.18,3.18,0,0,1,29.65,48H24"/><circle cx="26.64" cy="50.63" r="0.88"/><path class="cls-1" d="M28.21,35.29a3.82,3.82,0,0,1,.12-2.39,12.25,12.25,0,0,1,1.43-2.12c1.34-1.87-4.39-1.56-5.08-1.44a4.18,4.18,0,0,0-.56.12c-1.29.36-.7,1.43-.11,2.18a4.89,4.89,0,0,1,1.33,2.18,3.78,3.78,0,0,1-1.72,3.61c-1.52,1.1-3.17.62-4.4-.68a8.7,8.7,0,0,1-2.15-6A9.59,9.59,0,0,1,33.4,23.9c.09.09.18.18.26.27a8.18,8.18,0,0,1,.95,1.18,1.93,1.93,0,0,0,.4.45h0a10.57,10.57,0,0,1,1.24,4.89,9.45,9.45,0,0,1-2.59,6.54,1.51,1.51,0,0,1-.16.18,9.66,9.66,0,0,1-2.39,1.78,6.87,6.87,0,0,1-4.46.81H24a6,6,0,0,0-1.25.81,1.73,1.73,0,0,0-.52,1.25A2.06,2.06,0,0,0,24,44h6"/><line class="cls-1" x1="17.71" y1="16.39" x2="19.33" y2="19.56"/><line class="cls-1" x1="23.96" y1="14.49" x2="24.26" y2="18.04"/><line class="cls-1" x1="13.05" y1="20.72" x2="16" y2="22.72"/><path class="cls-1" d="M36.31,38.11q1.16-.52,2.25-1.1"/><path class="cls-2" d="M38.55,37a38,38,0,0,0,3.88-2.34"/><path class="cls-3" d="M43.25,34.09c5.14-3.78,8.15-8.24,7.64-11.74A4.91,4.91,0,0,0,50.51,21c-1.73-3.84-8.23-4.85-15.81-2.91"/><path class="cls-1" d="M34.71,18.12q-1.18.3-2.4.7"/><path class="cls-1" d="M13.85,33.83a6.09,6.09,0,0,0-.11,2.49"/><path class="cls-4" d="M13.75,36.31a4.89,4.89,0,0,0,.36,1.15,5.08,5.08,0,0,0,1.34,1.77"/><path class="cls-1" d="M16.25,39.82a9,9,0,0,0,2.29,1"/></svg>