<svg id="Layer_1" data-name="Layer 1" xmlns="http://www.w3.org/2000/svg" viewBox="0 0 64 64"><defs><style>.cls-1,.cls-2{fill:none;}.cls-1{stroke:#000;stroke-linecap:round;stroke-linejoin:round;stroke-width:2px;}</style></defs><title>Time delivery</title><path class="cls-1" d="M44.84,48.64a2.63,2.63,0,0,1-5.25,0"/><path class="cls-1" d="M24.76,48.64a2.63,2.63,0,0,1-5.25,0"/><path class="cls-1" d="M33.11,25.12A5.62,5.62,0,0,1,36,30V42"/><path class="cls-1" d="M40,28l5,0a2.81,2.81,0,0,1,2.7,2.1L51,42.76A3.25,3.25,0,0,1,47.75,46H19.6A5.62,5.62,0,0,1,14,40.4V30"/><polyline class="cls-1" points="40 32 40 37 44 37"/><path class="cls-2" d="M24.45,37.68s0,0,0-.05c-.68-1.65-1.27-1.85-1.27-1.85"/><path class="cls-1" d="M34.34,19.24S33,14,27.8,12.74"/><path class="cls-1" d="M25.19,16.65a7.21,7.21,0,1,1-2.64-.5"/><polyline class="cls-1" points="23 20 23 23 27 23"/><circle cx="17.5" cy="23.47" r="0.58"/><circle cx="22.55" cy="28.37" r="0.58"/><circle cx="13" cy="52" r="1"/><line class="cls-1" x1="35" y1="52" x2="16" y2="52"/><line class="cls-1" x1="48" y1="52" x2="39" y2="52"/></svg>