<svg id="Layer_1" data-name="Layer 1" xmlns="http://www.w3.org/2000/svg" viewBox="0 0 64 64"><defs><style>.cls-1,.cls-2{fill:none;stroke:#000;stroke-linecap:round;stroke-linejoin:round;stroke-width:2px;}.cls-2{stroke-dasharray:1.67 0;}</style></defs><title>Train</title><circle cx="11" cy="25" r="1"/><circle cx="14" cy="41" r="1"/><circle cx="11" cy="34" r="1"/><path class="cls-1" d="M19,19H29.35l6,6h2.91a8.89,8.89,0,0,1,7.66,4.38l4.53,7.68A2.62,2.62,0,0,1,48.19,41H37V33h4"/><line class="cls-1" x1="14" y1="25" x2="19.5" y2="25"/><line class="cls-2" x1="22.83" y1="25" x2="24.5" y2="25"/><line class="cls-1" x1="24.5" y1="25" x2="30" y2="25"/><path class="cls-1" d="M17,41H33V31.46A2.46,2.46,0,0,0,30.54,29h-.08A2.46,2.46,0,0,0,28,31.46V34H24V31.63a2,2,0,0,0-2-2.46h0a3.38,3.38,0,0,0-3,2.46V35H14"/><line class="cls-1" x1="54" y1="45" x2="13" y2="45"/></svg>