<svg id="Layer_1" data-name="Layer 1" xmlns="http://www.w3.org/2000/svg" viewBox="0 0 64 64"><defs><style>.cls-1{fill:none;stroke:#000;stroke-linecap:round;stroke-linejoin:round;stroke-width:2px;}</style></defs><title>transfer person</title><polyline class="cls-1" points="43.85 27.99 42.85 29.82 40.99 26.13"/><path class="cls-1" d="M43.85,28a5,5,0,0,1,2,6.77"/><polyline class="cls-1" points="44.92 22.07 43.11 25.36 39.79 18.73"/><path class="cls-1" d="M44.92,22.07a9,9,0,0,1,3.54,12.15l1.9-3.46a9,9,0,0,0-3.54-12.15"/><polyline class="cls-1" points="20.15 38.01 21.15 36.18 23.01 39.88"/><path class="cls-1" d="M20.15,38a5,5,0,0,1-2-6.77"/><polyline class="cls-1" points="19.08 43.93 20.89 40.64 24.21 47.27"/><path class="cls-1" d="M19.08,43.93a9,9,0,0,1-3.54-12.15l-1.9,3.46a9,9,0,0,0,3.54,12.15"/><line class="cls-1" x1="28.02" y1="25.82" x2="24.74" y2="33.74"/><path class="cls-1" d="M32,23h1.44A2.56,2.56,0,0,1,36,25.56v6.63A1.81,1.81,0,0,1,34.19,34H29.81A1.81,1.81,0,0,1,28,32.19V25"/><path class="cls-1" d="M32.2,18.18a2.59,2.59,0,0,0,0,5.19"/><line class="cls-1" x1="35.85" y1="24.87" x2="39.24" y2="33.74"/><line class="cls-1" x1="28.88" y1="47.22" x2="28.02" y2="32.56"/><line class="cls-1" x1="36.08" y1="32.5" x2="35.25" y2="46.7"/><path class="cls-1" d="M32,38v8.63a.37.37,0,0,0,.37.37h2.47a.37.37,0,0,0,.37-.37"/></svg>