<svg id="Layer_1" data-name="Layer 1" xmlns="http://www.w3.org/2000/svg" viewBox="0 0 960 560"><defs><style>.cls-1{fill:#e799c2;}.cls-2{fill:#d976af;}.cls-3{fill:#abe1fa;}.cls-4{fill:#ffe38c;}.cls-5{fill:#fbcc6a;}.cls-6{fill:#626fb4;}.cls-7{fill:#eb9575;}.cls-8{fill:#ea8670;}.cls-9{fill:#4d5fab;}.cls-10{fill:#f4806f;}.cls-11{fill:#233940;}</style></defs><title>bicycle, ride, woman, people, person</title><path class="cls-1" d="M892.21,140.15s-7.65,10.75-21.7,34.16L868.32,178c-15.44,25.95-9.61,45.68-22.15,59.69l-.67.75c-12.39,13.95-27.27,33.14-54,27.66a53.06,53.06,0,0,1-15.13-5.88c-13.27-7.46-24.66-19.48-31.07-27.07-3.52-4.17-5.54-7-5.54-7,6.43-22,11.18-71.21,11.18-71.21s8.81-18.26,14.78-4.23c2.58,6.06,12.26,13.79,24.06,18.6a59.49,59.49,0,0,0,18.65,4.47,35.5,35.5,0,0,0,17-2.79,28.64,28.64,0,0,0,10.47-8.14,55.4,55.4,0,0,1,17.68-14.21C872.11,139,892.21,140.15,892.21,140.15Z"/><path class="cls-2" d="M808.39,173.75c-5.12,6.84-8.84,14.63-12.41,22.4A306.29,306.29,0,0,0,783.44,227a162.65,162.65,0,0,0-7.11,33.2c-13.27-7.46-24.66-19.48-31.07-27.07,1.5-3.87,3.23-7.67,5.13-11.42,7.13-14.06,14.22-27.88,25.14-39.44a112.24,112.24,0,0,1,14.21-13A59.49,59.49,0,0,0,808.39,173.75Z"/><path class="cls-3" d="M695.71,242.15c0-164-177.78-300.6-289.5-180.5-94,101-78,127-246,231C20.74,379,231.71,550.21,444.71,510.21,605.92,479.93,695.71,406.18,695.71,242.15Z"/><path class="cls-2" d="M64,413.93c5.9,14.18,21.7,20.93,36.26,16.54,16.19-4.88,25.47-20.17,27.16-36.31.2-1.92-2.8-1.9-3,0-1.49,14.25-9.48,28-23.5,32.94-13.15,4.67-28.5-.68-34-14-.73-1.76-3.64-1-2.89.8Z"/><path class="cls-2" d="M853.53,148.61a55.4,55.4,0,0,0-17.68,14.21c-.45.56-6,6.34-7.34,7.1.77-.43,8.22,9.53,8.93,10.61a43.51,43.51,0,0,1,5.37,12.85c3.92,14.25,3.73,28.8,2.24,43.39.15.55.29,1.09.45,1.64l.67-.75c12.54-14,6.71-33.74,22.15-59.69l2.19-3.66C864.09,166.17,857.91,157.74,853.53,148.61Z"/><path class="cls-4" d="M679,278.86A111.81,111.81,0,0,1,646,288.65c-71.15,10.27-117.72-65.47-122.31-73.28l-.38-.65-84-36.75-2.87-1.25s-4.37-7.55-4.33-28q0-1.92.06-4c.66-23.46,15.16-56.62,49.15-56.13s41.2,17.46,41.2,17.46,35.29,44.95,93.71,24.59,98-7.72,108.49,37.42C733.4,205.56,725.08,256.48,679,278.86Z"/><path class="cls-2" d="M130.31,376c-9.95,1.85-20.57,1.28-30.5-.48-9.71-1.73-19-7.26-21.59-17.35-.48-1.87-3.37-1.08-2.89.8,2.54,9.91,11.22,16.53,20.9,18.89a85.51,85.51,0,0,0,34.88,1c1.9-.35,1.09-3.24-.8-2.89Z"/><path class="cls-5" d="M616.38,232.42c-30.67,0-33.47-42.37-33.47-42.37l-34.75,3.8-24.51,21.52c4.59,7.81,51.16,83.55,122.31,73.28A111.81,111.81,0,0,0,679,278.86C678.51,247.72,646.78,232.42,616.38,232.42Z"/><path class="cls-5" d="M469.22,143.61c0-.06,0-.12,0-.17-15.95,4.67-27.08,16.74-29.68,33.27q-.09.61-.21,1.26l-2.87-1.25s-4.37-7.55-4.33-28c1-2.68,2.11-5.33,3.28-7.94a135.86,135.86,0,0,1,10.29-19.31c2.62-3.94,6.08-7.57,11-8.07,4.79-.49,8.17,2.25,9.79,6.57,2.69,7.23,3.84,15.35,5.63,22.84C472.56,144.69,469.67,145.48,469.22,143.61Z"/><path class="cls-6" d="M396.15,515.8s13.13-18.17,7.48-72.93q-.37-3.67-.87-7.56a142.59,142.59,0,0,1,1-40.8,205.58,205.58,0,0,1,14.94-49.22,201.79,201.79,0,0,1,15-28.37s8-17.61,7.18-57.39c0,0,4.68-2.33,11.59-5.36,4-1.78,8.86-3.79,13.95-5.73,4.31-1.63,8.81-3.21,13.22-4.52,6.95-2.07,13.66-3.5,18.94-3.5,9.85,0,30.52,4.63,45.94,8.47,8.09,2,14.73,3.8,17.62,4.59l.26.08,1.24.34h0s14.35,2.47,25.48,6.85a42.19,42.19,0,0,1,8.54,4.33s0,0,0,0c1.15.81,2.09,3,2.88,6.38,3.6,15.38,3.93,55,5.35,95.3.32,9.1-2.19,13.88-6.68,21.61-10.52,18.11,2.39,40.81,12.5,54.74C611.8,443.14,509.26,515,396.15,515.8Z"/><path class="cls-7" d="M435.18,314.28a30.14,30.14,0,0,1-1.46,2.64s-31.18,48.17-30.84,94c0,0-34.6,10.93-84.11,10.93-32,0-58.86-14.3-73.86-24.42A118.45,118.45,0,0,1,232,387.6s5.25,12.47-6.24,7.29S198.21,384,198.21,384s-17,15.52-30.36,15.52-29.94-22.38-15.44-38.58,29.43-26,64.57-19.21,77.29,61.19,148.45,18.1c17.35-10.5,33.2-53.11,43.92-70.2a93.37,93.37,0,0,1,31.55-30.08S445,294.66,435.18,314.28Z"/><path class="cls-7" d="M563.71,253.91s-23.9,3.72-34.93,34.54c0,.06,0,.13-.07.2-11,31-59.13,50-71.88,37.42s-.12-67.09-.12-67.09h0c0-.24,4-4.54,9.6-10.53,18.23-19.44,57.22-56.73,66.33-31.34.72,2,1.51,3.93,2.28,5.74,4.28,10.06,9.21,16.9,13.73,21.53,5.81,5.95,11,8.27,13.5,9.11l.26.08a12.73,12.73,0,0,0,1.24.34Z"/><path class="cls-8" d="M600.63,271.49c-6.35-1.79-14.68-4.66-15.92-3.85a143.81,143.81,0,0,1-28.62,14.69,113.26,113.26,0,0,1-27.29,6.32h0c-1.94,0-3.88.16-5.84.2-16.74.29-35.93-5.61-45.32-20.22a34.66,34.66,0,0,1-2.44-4.49c-1.61-3.55-1.59-7.57.56-10.55a8.66,8.66,0,0,1,3.92-9.66l.45-.28a215.18,215.18,0,0,1,26.82-13.1q6.77-2.76,13.71-5c4.5-1.46,9.5-3.49,14.32-2.68.34.05.68.12,1,.2,4.8,1.21,8.91,5.46,12.75,8.38l5.36,4.07a33.18,33.18,0,0,1-5.41,8.87h0c5.81,5.95,11,8.27,13.49,9.11l.26.08,1.24.34h0s14.35,2.47,25.48,6.85a42.19,42.19,0,0,1,8.54,4.33s0,0,0,0C598.9,265.92,599.84,268.13,600.63,271.49Z"/><path class="cls-9" d="M600.63,271.49c-6.35-1.79-14.68-4.66-15.92-3.85a143.8,143.8,0,0,1-28.62,14.69,113.26,113.26,0,0,1-27.29,6.32h-.09c10.85-23.87,26.93-32,35-34.74,0,0,14.35,2.47,25.48,6.85a42.19,42.19,0,0,1,8.54,4.33s0,0,0,0C598.9,265.92,599.84,268.13,600.63,271.49Z"/><path class="cls-9" d="M611.29,443c-18.12-26.74-16.91-45.18-5.91-73.41.4-1-.19-2.27-.79-3.2a6.36,6.36,0,0,0-3.34-2.21,40.82,40.82,0,0,0-13.28-2.5c-2.35,0-4.93,0-6.74-1.47s-2.15-3.77-2.5-5.94l-5.26-32.33c-.63-3.9-1.56-8.26-4.9-10.37-3.78-2.4-9.07-.55-12,2.84s-4.11,7.9-5.35,12.2c-6.88,24-19.8,48.8-42.87,58.45-12.82,5.36-27.33,5.35-41,2.91a123,123,0,0,1-28.09-8.59c-9.74-4.3-17.77-11.39-27.09-16-9.4,11.67-9.5,35-9.71,49.31-.25,17.89,1.55,35.73,2.08,53.61.5,17.16-.45,35-8.48,50.22A425.88,425.88,0,0,0,611.29,443Z"/><path class="cls-10" d="M435.18,314.28a30.14,30.14,0,0,1-1.46,2.64s-31.18,48.17-30.84,94c0,0-34.6,10.93-84.11,10.93-32,0-58.86-14.3-73.86-24.42,11.48-12.7,31.13-11.05,46.7-9.9,9.91.73,19.74,3.93,29.66,3.86,9.63-.07,19-3.26,28-6.19,8.7-2.8,16.59-6,23.91-11.62s14.56-11.77,21.67-17.82c13.92-11.84,27.51-24.47,38.31-39.3A12.41,12.41,0,0,1,435.18,314.28Z"/><path class="cls-7" d="M285.42,400.4s25.42,1,38.37-11.53c16.89-16.29,66.19,3.25,77.18,5,6.47,1,13,4.67,19.29,6.51a141.67,141.67,0,0,0,42.86,5.88c33.43-.78,72-6,82.89-40.35,8.67-27.33,9.1-46.13,7.86-67.46-1.6-27.47,22.38-47.13,47.85-31.18,19,11.93,16,43.61,15.45,62.69-1.2,39.42-10,77.14-41,104.43-33.17,29.15-80,36.2-122.42,28.15a130.76,130.76,0,0,1-40.53-14.51c-69.08-39.45-75.3-3.41-75.3-3.41s-7.47,10.66-11.16-2c0,0,5.12,12.55-5.77,11.19s-30.83-3.5-18.37-42.34C302.58,411.49,281.94,416.15,285.42,400.4Z"/><path class="cls-7" d="M554.09,235.49a33.18,33.18,0,0,1-5.41,8.87h0q-2,2.34-4.13,4.52c-17,17.81-36.19,26.84-66.92,19.69-1.52-.35-3.07-.75-4.65-1.18A39.2,39.2,0,0,1,457,259a34.63,34.63,0,0,1-4.47-4.8c-10.23-13.28-9.24-31.22-8.61-36.87.12-1.13.23-1.77.23-1.77-5.06-3.13-8.39-6.43-10.21-10.38-4.29-9.26-.38-22.07,8.56-44.5,4.89-12.27,15-18.87,26.68-21.57a49.82,49.82,0,0,0,4.34,10,101.59,101.59,0,0,0,9.76,14.06c6,7.5,13,15,21,20.42,12.77,8.62,28.59,12,43.9,10.32A61.11,61.11,0,0,1,553.74,205c.84,2.23,1,4.39,2,6.49v0A37.56,37.56,0,0,1,554.09,235.49Z"/><path class="cls-8" d="M555.67,211.47c-17.47-.41-35.49-3.12-49.72-14-7.57-5.79-13.93-13.11-19.84-20.55s-11-15.3-12.51-24.76a13.22,13.22,0,0,1-.12-3.13,101.59,101.59,0,0,0,9.76,14.06c6,7.5,13,15,21,20.42,12.77,8.62,28.59,12,43.9,10.32A56.49,56.49,0,0,1,555.67,211.47Z"/><path class="cls-7" d="M540.91,167.21a28.77,28.77,0,0,1,8.91,7.69,3.75,3.75,0,0,0,6.56-1,15.11,15.11,0,0,0-.63-12.47c-4.27-7.61-14.45-7.81-21.5-4.52q-.77.36-1.49.78a3.74,3.74,0,0,0,1.1,6.9A24.14,24.14,0,0,1,540.91,167.21Z"/><path class="cls-2" d="M546.34,448.56c-8.26-15.82-25.61-27.38-42.45-31.82-14.68-3.88-30.44-3.48-44.53,2.36-12.91,5.34-23.75,14.29-35.08,22.25-14.7,10.33-30.28,17.75-48.58,17.92a1.5,1.5,0,0,0,0,3c14.48-.14,27.94-4.46,40.3-11.89,11.61-7,21.87-15.94,33.49-22.9,13.33-8,27.67-11.53,43.2-9.8a69,69,0,0,1,38.13,16.78c5,4.41,9.82,9.67,12.92,15.61.89,1.71,3.48.2,2.59-1.51Z"/><path class="cls-8" d="M471.5,220.24q-.31.29-.68.58c-5.21,4.06-12.65,1.53-18.26-.05a44.94,44.94,0,0,1-8.68-3.47c.12-1.13.23-1.77.23-1.77-5.06-3.13-8.39-6.43-10.21-10.38a5.44,5.44,0,0,1,7.75-1.06,38.37,38.37,0,0,0,12,6.56c4,1.32,8,1.13,12.1.63C471.57,210.57,476.18,215.85,471.5,220.24Z"/><path class="cls-11" d="M188.09,392.95a35,35,0,0,1-12.25,7,12.33,12.33,0,0,1-1.74.47c-.59.12-1.17.29-1.77.37a24.35,24.35,0,0,1-3.63.28,21.26,21.26,0,0,1-7.22-1.14,22.66,22.66,0,0,1-6.48-3.45,25,25,0,0,1-5-5.33,25.81,25.81,0,0,1-4.49-13.78,29.54,29.54,0,0,1,3.16-14.12,39.7,39.7,0,0,1,8.73-11.36A58.17,58.17,0,0,1,182.27,339c2.26-.66,4.59-1,6.9-1.43,1.16-.19,2.33-.27,3.5-.41l1.75-.19c.58-.05,1.17-.05,1.76-.08l3.53-.13,3.53.11a35.18,35.18,0,0,1,3.53.27c1.17.15,2.36.18,3.52.43l3.5.63c1.16.26,2.31.6,3.46.9a29.49,29.49,0,0,1,3.41,1.12,25.67,25.67,0,0,1,3.35,1.37c1.07.53,2.25,1,3.22,1.59l3,1.63,6,3.21c15.93,8.45,32.28,16.17,49.44,20.88a120.5,120.5,0,0,0,13,2.83,102.46,102.46,0,0,0,13.14,1.37,88.61,88.61,0,0,0,26.08-2.82,82.08,82.08,0,0,0,12.43-4.34l1.51-.66.76-.33.71-.37L356,363a56.15,56.15,0,0,0,5.31-3.64,63.45,63.45,0,0,0,9.42-9,102.3,102.3,0,0,0,8-10.61c9.89-14.89,17.27-31.57,26.6-47.32,2.35-3.93,4.78-7.83,7.49-11.56,1.3-1.9,2.77-3.69,4.2-5.51l2.27-2.63c.74-.89,1.6-1.68,2.4-2.53a57.26,57.26,0,0,1,10.85-8.79,49,49,0,0,1,12.86-5.54,1.37,1.37,0,0,1,.75,2.64h0a46.12,46.12,0,0,0-11.91,5.5,54,54,0,0,0-10,8.57,86.26,86.26,0,0,0-8.3,10.42c-2.56,3.66-4.87,7.51-7.1,11.41-8.9,15.64-16,32.46-25.89,48a107.21,107.21,0,0,1-8.18,11.27,66.37,66.37,0,0,1-10,9.92,61.46,61.46,0,0,1-5.85,4.12l-3.17,1.72-.79.43-.8.36-1.59.73a87.78,87.78,0,0,1-13.18,4.8,89.21,89.21,0,0,1-13.78,2.73,97,97,0,0,1-14,.57A116.34,116.34,0,0,1,284,374.7q-6.69-1.87-13.18-4.27c-4.32-1.62-8.57-3.39-12.76-5.25-8.37-3.76-16.52-7.94-24.52-12.31l-6-3.3-3-1.67c-.51-.3-1-.52-1.45-.75l-1.42-.7a21.32,21.32,0,0,0-2.93-1.24,25.06,25.06,0,0,0-3-1c-1-.28-2.07-.6-3.12-.85l-3.19-.61c-1.06-.25-2.15-.28-3.23-.43A31.25,31.25,0,0,0,203,342l-3.27-.14-3.28.09c-.55,0-1.09,0-1.64.06l-1.63.16c-1.09.12-2.18.18-3.26.34-2.15.37-4.33.65-6.44,1.23a53.54,53.54,0,0,0-23.12,11.47,35.39,35.39,0,0,0-7.94,10,25.44,25.44,0,0,0-2.94,12.11A22.19,22.19,0,0,0,153,389.09a21.39,21.39,0,0,0,4.17,4.62,19.21,19.21,0,0,0,5.41,3,18,18,0,0,0,6.13,1.12,21.16,21.16,0,0,0,3.15-.17c.52-.06,1-.2,1.56-.29A10.26,10.26,0,0,0,175,397a32.15,32.15,0,0,0,11.35-6.17,1.37,1.37,0,0,1,1.76,2.09Z"/><path class="cls-11" d="M350.9,412.5a20.12,20.12,0,0,0-9.67,4.79,38.06,38.06,0,0,0-7.34,8.49,39.57,39.57,0,0,0-4.7,10.18,22.33,22.33,0,0,0-.89,5.37,9.12,9.12,0,0,0,1,4.77,4.62,4.62,0,0,0,1.49,1.46,3.19,3.19,0,0,0,1.88.38,3.86,3.86,0,0,0,3.1-2.36l.1-.24L336,445l.27-.72c.19-.48.33-1,.56-1.44a26.91,26.91,0,0,1,1.38-2.79,22.74,22.74,0,0,1,14.61-11.15,36.13,36.13,0,0,1,12.22-.85,68.77,68.77,0,0,1,23,6.7l21,10.44c7,3.44,14,6.77,21.1,9.89a216,216,0,0,0,21.63,8.31,175.37,175.37,0,0,0,45.32,8.32A160.67,160.67,0,0,0,542.77,467,180.23,180.23,0,0,0,585.53,450a218.46,218.46,0,0,0,37.76-26.56q8.75-7.58,16.79-15.94t15.32-17.37A336,336,0,0,0,681.89,352a525.71,525.71,0,0,0,41-83.39A416.67,416.67,0,0,0,737,224.41c.9-3.76,1.9-7.5,2.72-11.28s1.73-7.54,2.4-11.35c1.51-7.59,2.79-15.22,3.75-22.89s1.68-15.37,2.08-23.08l0-.72,0-.38.05-.49c0-.32.07-.65.12-1l.24-1a11,11,0,0,1,8.21-7.71,10.88,10.88,0,0,1,10.66,3.67l1.84,2.5c8.52,12,23.35,19,37.82,21.26l-.29,0c7.65,0,15.27-1.24,21.21-5.61a56.65,56.65,0,0,0,8.42-7.74,82.52,82.52,0,0,1,8.93-8.48,48.25,48.25,0,0,1,10.79-6.44A64.55,64.55,0,0,1,867.91,140a119.11,119.11,0,0,1,24.29-2.16,2.32,2.32,0,0,1,1.84,3.72h0a270,270,0,0,0-15.41,22.65,239.72,239.72,0,0,0-13,24.12,148.38,148.38,0,0,0-9.34,25.59c-1.09,4.29-2,9.07-3.57,13.53a73.79,73.79,0,0,1-5.87,12.91,61.47,61.47,0,0,1-19.13,20.81,47.49,47.49,0,0,1-13,6,45.49,45.49,0,0,1-14.2,1.73,49.47,49.47,0,0,1-14-2.59,70,70,0,0,1-6.62-2.55l-3.16-1.58c-.52-.27-1.06-.52-1.57-.81l-1.52-.9a107.07,107.07,0,0,1-21.92-17.37,1.37,1.37,0,0,1,1.94-1.94,104.23,104.23,0,0,0,21.49,16.68l1.47.85c.49.27,1,.5,1.51.76l3,1.49a66.91,66.91,0,0,0,6.31,2.35,46.23,46.23,0,0,0,13.14,2.29,42.09,42.09,0,0,0,13.12-1.73,44.3,44.3,0,0,0,12-5.69,57.77,57.77,0,0,0,17.82-19.71A69.93,69.93,0,0,0,849,226.19c1.47-4.26,2.24-8.58,3.38-13.24a152.41,152.41,0,0,1,9.41-26.38,244,244,0,0,1,13.06-24.65,274,274,0,0,1,15.54-23.2l1.83,3.74a114.52,114.52,0,0,0-23.28,2.23A59.73,59.73,0,0,0,858,148.2a43.28,43.28,0,0,0-9.65,5.86,77.87,77.87,0,0,0-8.34,8.06,61.33,61.33,0,0,1-9.12,8.47,34.35,34.35,0,0,1-5.6,3.26,37.59,37.59,0,0,1-6.1,2.07,54.53,54.53,0,0,1-12.49,1.41h0l-.27,0a55.43,55.43,0,0,1-6.08-1.13c-2-.46-3.92-1-5.84-1.64a74.58,74.58,0,0,1-11.2-4.71A64.06,64.06,0,0,1,773.1,163c-.79-.65-1.53-1.38-2.29-2.07a23.79,23.79,0,0,1-2.19-2.17l-2.08-2.3c-.68-.78-1.25-1.65-1.88-2.47L763,151.82a5.26,5.26,0,0,0-5.13-1.73,4.85,4.85,0,0,0-1.75.74,4.8,4.8,0,0,0-1.37,1.3,4.88,4.88,0,0,0-.82,1.69l-.12.46c0,.16,0,.32-.05.48l0,.24c0,.08,0,.23,0,.35l0,.74q-.54,11.8-2,23.53c-.94,7.81-2.19,15.58-3.69,23.3-.35,1.94-.72,3.87-1.15,5.78l-1.25,5.76c-.83,3.84-1.85,7.64-2.76,11.46a422.71,422.71,0,0,1-14.36,44.86,511.41,511.41,0,0,1-41.62,84.29,341.56,341.56,0,0,1-27.16,38.54q-7.49,9.13-15.72,17.63t-17.23,16.18a223.62,223.62,0,0,1-38.8,27,185.15,185.15,0,0,1-44,17.28,165.37,165.37,0,0,1-47.09,4.56,179.76,179.76,0,0,1-46.42-8.78,220.28,220.28,0,0,1-22-8.58c-7.17-3.19-14.22-6.59-21.21-10.08l-20.85-10.58a65.13,65.13,0,0,0-21.64-6.55,32.61,32.61,0,0,0-11,.64,19.33,19.33,0,0,0-12.58,9.41,23.7,23.7,0,0,0-1.24,2.44c-.21.41-.34.86-.51,1.28l-.25.65-.31.78a7.12,7.12,0,0,1-5.82,4.31,6.43,6.43,0,0,1-3.76-.8,7.74,7.74,0,0,1-2.63-2.6,12.15,12.15,0,0,1-1.44-6.51,25.32,25.32,0,0,1,1.06-6.14,42.52,42.52,0,0,1,5.17-10.94,40.94,40.94,0,0,1,8-9.07,22.84,22.84,0,0,1,11.11-5.31,1.37,1.37,0,0,1,.39,2.71Z"/><path class="cls-11" d="M540.56,451.33l-2.36-3.6c-.4-.6-.78-1.2-1.18-1.79l-1.33-1.68c-.9-1.11-1.73-2.27-2.69-3.33l-2.94-3.09a59.33,59.33,0,0,0-13.65-10A58.69,58.69,0,0,0,483.66,422c-1.4.19-2.8.3-4.19.55s-2.77.49-4.14.8l-4.09,1.06c-1.37.43-2.75.83-4.11,1.27A145.26,145.26,0,0,0,436,440c-4.88,3-9.62,6.26-14.23,9.7-1.16.85-2.28,1.75-3.43,2.62l-1.8,1.38c-.62.46-1.24.9-1.86,1.34-2.52,1.71-5.11,3.27-7.75,4.7a97.59,97.59,0,0,1-16.56,7.13,71,71,0,0,1-17.85,3.55,40,40,0,0,1-9.33-.52,27.76,27.76,0,0,1-9-3.24l-1.05-.62-1-.71a19.26,19.26,0,0,1-5.13-5.46,16.9,16.9,0,0,1-2.3-9.7,17.48,17.48,0,0,1,3.34-9.28,18.33,18.33,0,0,1,7.67-6,15.8,15.8,0,0,1,2.26-.82c.38-.12.75-.25,1.15-.36s.83-.2,1.24-.25a16.34,16.34,0,0,1,4.94,0,19.49,19.49,0,0,1,8.78,3.75,16.81,16.81,0,0,1,5.81,7.6,13.26,13.26,0,0,1-.2,9.6v0a1.37,1.37,0,0,1-2.55-1A10.31,10.31,0,0,0,377,446a13.58,13.58,0,0,0-4.95-5.92,16.58,16.58,0,0,0-7.27-2.83,12.54,12.54,0,0,0-3.78.09c-.31,0-.6.14-.9.21s-.62.22-.93.33a12.24,12.24,0,0,0-1.84.72,14.23,14.23,0,0,0-5.86,4.81,13.13,13.13,0,0,0-2.31,7,11.92,11.92,0,0,0,4.27,9.78,12.9,12.9,0,0,0,1.53,1.18l.8.54.85.47c4.56,2.5,10.12,3.07,15.59,2.67a65.51,65.51,0,0,0,16.35-3.62,102.21,102.21,0,0,0,15.49-7c2.48-1.37,4.89-2.84,7.19-4.43l1.7-1.21,1.69-1.28c1.18-.89,2.34-1.81,3.55-2.68a159.61,159.61,0,0,1,30.71-18,149.72,149.72,0,0,1,16.72-6.22c1.42-.44,2.85-.83,4.28-1.24l4.41-1.06c1.48-.3,3-.52,4.47-.78s3-.31,4.51-.48a63.14,63.14,0,0,1,35.07,7.28,62.14,62.14,0,0,1,14.17,11.13l3,3.37c1,1.14,1.79,2.39,2.69,3.59l1.32,1.81c.4.63.78,1.27,1.16,1.91l2.31,3.82a1.36,1.36,0,0,1-2.31,1.45Z"/><path class="cls-11" d="M325.5,453.89a19.89,19.89,0,0,1-11.37,1.45,19.2,19.2,0,0,1-10.31-5.24,24.59,24.59,0,0,1-5.9-9.87A33.7,33.7,0,0,1,296.31,429a49.4,49.4,0,0,1,5.79-21.55c.85-1.66,1.81-3.27,2.81-4.85s2.15-3.07,3.3-4.56a52.23,52.23,0,0,1,8-7.93,54.42,54.42,0,0,1,20.07-10,61.07,61.07,0,0,1,22.34-1.53,111.7,111.7,0,0,1,21.54,4.78c7,2.17,13.72,4.75,20.43,7.19,1.68.63,3.35,1.17,5,1.75s3.35,1.16,5,1.66l5.07,1.58,5.11,1.43c6.84,1.8,13.75,3.35,20.73,4.51a159.54,159.54,0,0,0,42.19,1.39c14-1.56,27.81-5.5,39.6-13a59,59,0,0,0,15.25-14.08,51.58,51.58,0,0,0,8.69-18.85v0a1.37,1.37,0,0,1,2.68.59,54.69,54.69,0,0,1-8.58,20.29,61.1,61.1,0,0,1-15.85,15.39,84.48,84.48,0,0,1-19.79,9.68,112.35,112.35,0,0,1-21.4,5,159.9,159.9,0,0,1-43.68-.6,207.75,207.75,0,0,1-42.2-10.95c-6.77-2.49-13.42-5.09-20.14-7.3A106.12,106.12,0,0,0,358,384.09a55.61,55.61,0,0,0-20.41,1.09A50.37,50.37,0,0,0,319.24,394,48.05,48.05,0,0,0,306,409.52a45.23,45.23,0,0,0-5.73,19.58,30.51,30.51,0,0,0,1.14,10,21.1,21.1,0,0,0,4.77,8.6,16,16,0,0,0,8.46,4.61,17,17,0,0,0,9.73-.95h0a1.37,1.37,0,0,1,1.09,2.51Z"/><path class="cls-11" d="M521.13,238.5a40.16,40.16,0,0,1-10.09,10,41.64,41.64,0,0,1-13,6.1,29.77,29.77,0,0,1-7.22.94,40.09,40.09,0,0,1-7.21-.53,43.45,43.45,0,0,1-13.37-4.54,1.38,1.38,0,0,1,1-2.55h0A57.47,57.47,0,0,0,484.07,250a50,50,0,0,0,12.51-1.36,44,44,0,0,0,11.88-4.35,50.17,50.17,0,0,0,5.5-3.41,44.87,44.87,0,0,0,5-4.08l.09-.09a1.37,1.37,0,0,1,2.05,1.78Z"/><path class="cls-11" d="M473.71,174.21a15.16,15.16,0,0,1,2.07-3.08c.39-.47.84-.89,1.26-1.34s.93-.81,1.41-1.21a17.18,17.18,0,0,1,6.91-3.25,8.58,8.58,0,0,1,1-.17l1,0a9.27,9.27,0,0,1,1.95.1c.64.09,1.28.21,1.9.32s1.22.37,1.81.56l.89.29c.29.12.56.27.84.4.56.26,1.1.56,1.63.84a27.74,27.74,0,0,1,2.91,2.09,1.38,1.38,0,0,1-1.11,2.44l-.22,0c-1.07-.21-2.07-.52-3.06-.73-.51-.07-1-.14-1.5-.23-.24,0-.49-.1-.73-.12l-.73,0a23.82,23.82,0,0,0-5.5.35,16.72,16.72,0,0,0-5.37,1.42,27.18,27.18,0,0,0-5.12,3.07l-.15.12a1.38,1.38,0,0,1-2.05-1.73Z"/><path class="cls-11" d="M434.06,190.5a23,23,0,0,0-.39,5.18c0,.42.07.85.1,1.27a8.12,8.12,0,0,0,.18,1.25c.08.41.13.83.24,1.23l.34,1.2a19.12,19.12,0,0,0,5.08,8.2,10.75,10.75,0,0,0,.88.81,8.86,8.86,0,0,0,.9.78c.31.25.63.5.93.76l1,.69a9.73,9.73,0,0,0,1,.64c.37.2.66.41,1.1.62l2.52,1.29c3.36,1.71,6.69,3.48,10,5.41a1.38,1.38,0,0,1-1.06,2.53c-3.66-1-7.26-2.13-10.84-3.33l-2.68-.89c-.43-.14-1-.38-1.45-.57a11.19,11.19,0,0,1-1.46-.66,18,18,0,0,1-5.19-3.83,21.89,21.89,0,0,1-5.51-11.39,20.3,20.3,0,0,1,1.75-12.1,1.37,1.37,0,0,1,2.6.8Z"/><path class="cls-11" d="M640.71,287.28a93.33,93.33,0,0,0,15.63-1.58,79.08,79.08,0,0,0,15-4.46A82.51,82.51,0,0,0,685.2,274a87.84,87.84,0,0,0,12.22-9.72A97.41,97.41,0,0,0,726,209.91a85.75,85.75,0,0,0,1.12-15.46,77.26,77.26,0,0,0-1.95-15.32,82.36,82.36,0,0,0-12.3-28.21,69.85,69.85,0,0,0-10-11.67,64,64,0,0,0-12.31-9,64.7,64.7,0,0,0-6.86-3.3l-3.58-1.29c-1.2-.42-2.44-.69-3.66-1a33.12,33.12,0,0,0-3.71-.84,35.62,35.62,0,0,0-3.76-.63l-3.8-.43-3.83-.14a75.87,75.87,0,0,0-15.3,1.31,103.09,103.09,0,0,0-15,3.89c-2.44.91-4.88,1.81-7.29,2.78l-7.24,3.19-2,.84-2,.72c-1.32.51-2.69.84-4,1.25a61.16,61.16,0,0,1-8.26,1.53,73.55,73.55,0,0,1-16.59,0A95.35,95.35,0,0,1,567.6,135a112.5,112.5,0,0,1-29.77-13.35,93.93,93.93,0,0,1-13-10c-2-1.84-4-4-5.69-5.73-.88-.93-1.88-1.73-2.81-2.6s-2-1.62-3-2.37a55.22,55.22,0,0,0-13.52-7.19,55.85,55.85,0,0,0-15-3.1,51.51,51.51,0,0,0-15.27,1.44,47,47,0,0,0-14,6.25,45.11,45.11,0,0,0-11,10.7,51.67,51.67,0,0,0-7.08,13.78,1.37,1.37,0,0,1-2.6-.86A54.58,54.58,0,0,1,442,107.25a48.39,48.39,0,0,1,11.56-11.74,49.18,49.18,0,0,1,15-7,55.36,55.36,0,0,1,16.43-1.8,58.1,58.1,0,0,1,31,10.64c1.13.8,2.22,1.67,3.31,2.52s2.13,1.79,3.1,2.78c2.06,2,3.71,3.79,5.66,5.53a89.12,89.12,0,0,0,12.48,9.25,110.5,110.5,0,0,0,13.85,7.19A111.84,111.84,0,0,0,569,129.74a89.86,89.86,0,0,0,15.25,2.79,67.89,67.89,0,0,0,15.33-.17,55.37,55.37,0,0,0,7.44-1.46c1.19-.39,2.42-.68,3.58-1.15l1.76-.66,1.71-.76,7.37-3.32c2.52-1,5.08-2,7.64-2.95,10.33-3.53,21.29-5.81,32.41-5.54a66.47,66.47,0,0,1,32,8.63,69.71,69.71,0,0,1,13.36,9.95,75.48,75.48,0,0,1,10.64,12.7A87.74,87.74,0,0,1,730.3,178a82.33,82.33,0,0,1,1.92,16.37,87,87,0,0,1-1.38,16.37,101.82,101.82,0,0,1-30.69,56.49,89.44,89.44,0,0,1-13,9.92,86,86,0,0,1-14.61,7.25,82.26,82.26,0,0,1-15.69,4.33A96.21,96.21,0,0,1,640.71,290a1.37,1.37,0,0,1,0-2.73Z"/><path class="cls-11" d="M323.77,389.54a61.52,61.52,0,0,1-11.37,7,60.44,60.44,0,0,1-12.7,4.53,34.7,34.7,0,0,1-6.81.79h-1.73l-1.34,0a3.73,3.73,0,0,0-1.76.53,3.93,3.93,0,0,0-1.78,3.48,4.54,4.54,0,0,0,2.43,3.78l0,0a1.38,1.38,0,0,1-1,2.56,7.6,7.6,0,0,1-5.48-5.7,8,8,0,0,1,.18-4.34,8.56,8.56,0,0,1,6.59-5.71c.37-.07.79-.1,1.14-.14l.76-.09,1.51-.17c2-.27,4-.63,6-1a76.89,76.89,0,0,0,12-3.1,110.3,110.3,0,0,0,11.73-4.72l.06,0a1.37,1.37,0,0,1,1.44,2.32Z"/><path class="cls-11" d="M68.82,418.85a34.19,34.19,0,0,0,5,5.26,25.93,25.93,0,0,0,6,3.79,23.56,23.56,0,0,0,13.79,1.39,33.8,33.8,0,0,0,13-5.69,44,44,0,0,0,10.22-10.06,49.63,49.63,0,0,0,3.76-6.1,41.17,41.17,0,0,0,2.62-6.59,44.89,44.89,0,0,0,1.29-7c.3-2.46.55-5,.94-7.6a39.43,39.43,0,0,1,1.87-7.92,20.54,20.54,0,0,1,4.56-7.46,19.85,19.85,0,0,1,3.51-2.81,30.88,30.88,0,0,1,3.72-2,22.45,22.45,0,0,1,8.47-1.9,35,35,0,0,1,8.22.92c1.29.28,2.53.58,3.76.87l1.83.44,1.89.49A113.43,113.43,0,0,1,178,371.76c9.57,3.8,18.66,8.38,27.77,12.63,4.56,2.12,9.13,4.18,13.78,6,2.33.88,4.66,1.76,7,2.51l1.77.58.41.13.25.06a2.73,2.73,0,0,0,.51,0,2.47,2.47,0,0,0,1.83-.86,2.5,2.5,0,0,0,.6-2,2.58,2.58,0,0,0-.69-1.46,1.49,1.49,0,0,0-.2-.19l-.11-.1-.19-.15-6-4.73-11.88-9.49a1.37,1.37,0,0,1,1.66-2.18l0,0,12.27,8.9,6.12,4.46.19.14.25.2a4.79,4.79,0,0,1,.5.44,6.47,6.47,0,0,1,.53,8.66,6.58,6.58,0,0,1-4.74,2.48,6.57,6.57,0,0,1-2.06-.19l-.5-.14-1.86-.53c-2.49-.68-4.92-1.52-7.34-2.36-4.85-1.7-9.56-3.67-14.24-5.68-9.35-4-18.46-8.35-27.79-11.8a127.92,127.92,0,0,0-14.14-4.39l-1.79-.45-1.86-.43c-1.23-.28-2.45-.57-3.63-.81a29.52,29.52,0,0,0-6.81-.85,16.35,16.35,0,0,0-6.25,1.36,26.67,26.67,0,0,0-3,1.52A14,14,0,0,0,136,375c-2.94,2.83-4.33,7.32-5.1,12.11-.4,2.4-.7,4.89-1.07,7.44a49.87,49.87,0,0,1-1.62,7.84,46.22,46.22,0,0,1-3.13,7.43,49.23,49.23,0,0,1-4.36,6.7,48.71,48.71,0,0,1-11.64,10.79,38,38,0,0,1-14.8,5.94A27.12,27.12,0,0,1,78.37,431a29.17,29.17,0,0,1-6.62-4.55,36.93,36.93,0,0,1-5.15-6,1.37,1.37,0,0,1,2.17-1.66Z"/><path class="cls-11" d="M121,380a56.4,56.4,0,0,1-15,1.88,45,45,0,0,1-15.22-2.57,26.86,26.86,0,0,1-12.52-9.77,29.33,29.33,0,0,1-2.06-3.43c-.29-.6-.54-1.21-.79-1.82a14.17,14.17,0,0,1-.66-1.85,30.66,30.66,0,0,1-1.4-7.57,1.37,1.37,0,0,1,2.69-.49l0,.07a29.39,29.39,0,0,0,6.14,12,23.23,23.23,0,0,0,5,4.2,43.1,43.1,0,0,0,5.86,3A47.52,47.52,0,0,0,106.3,377c2.32.27,4.68.42,7,.48s4.78,0,7.1-.14h.08A1.37,1.37,0,0,1,121,380Z"/><path class="cls-11" d="M291.1,434.14a60.42,60.42,0,0,0-8.18-3.3,26.25,26.25,0,0,0-8.37-1.31,16.82,16.82,0,0,0-2,.18c-.67.09-1.32.29-2,.42s-1.27.43-1.88.71l-.9.46a4.88,4.88,0,0,0-.87.5,17.16,17.16,0,0,0-3.14,2.58c-.44.51-1,1-1.35,1.52a10.88,10.88,0,0,0-1,1.61,20.27,20.27,0,0,0-2,7.9c-.22,2.85-.26,5.94-.41,8.93-.24,6-.44,12-.51,18s0,11.95.19,18,.27,12.07.33,18.11l0,2.26v1.16c0,.43,0,.86,0,1.28a25.21,25.21,0,0,1-.81,5,21.89,21.89,0,0,1-4.81,9.15,13.82,13.82,0,0,1-4.6,3.37,11.1,11.1,0,0,1-6,.84,13.86,13.86,0,0,1-5.36-2,21.86,21.86,0,0,1-4.05-3.32,23.37,23.37,0,0,1-5.29-8.83,37.44,37.44,0,0,1-1.78-9.64c-.22-3.19-.07-6.36,0-9.24l.09-9,.38-36.13c.06-11.84-1.13-23.81-5.2-34.77a54.8,54.8,0,0,0-3.73-7.86,40.41,40.41,0,0,0-5.15-6.91A30.4,30.4,0,0,0,206,398.4a26.55,26.55,0,0,0-3.85-1.83,19.94,19.94,0,0,0-2-.65,14.78,14.78,0,0,0-2-.39H198a1.37,1.37,0,0,1,.26-2.73,20.3,20.3,0,0,1,4.79,1,29.55,29.55,0,0,1,4.38,1.88,33.68,33.68,0,0,1,7.61,5.65,40.81,40.81,0,0,1,5.88,7.37,58.58,58.58,0,0,1,4.25,8.34c4.66,11.58,6.19,24,6.47,36.19s.3,24.12.44,36.18l.09,9c0,3.15-.11,6,.12,8.83.39,5.61,1.89,11,5.38,14.66,1.82,1.9,3.95,3.35,5.9,3.63a5.18,5.18,0,0,0,2.83-.35,8,8,0,0,0,2.66-1.91,16.21,16.21,0,0,0,3.59-6.66,19.53,19.53,0,0,0,.69-3.87c0-.33,0-.65,0-1v-3.36q.06-9,0-18c0-6-.09-12.11.16-18.17s.58-12.1,1-18.12l.29-4.5c.09-1.51.19-3,.36-4.61a24.19,24.19,0,0,1,2.68-9.43,13.94,13.94,0,0,1,1.47-2.13c.55-.68,1.14-1.2,1.71-1.8a20.92,20.92,0,0,1,3.94-3,7,7,0,0,1,1.1-.59l1.14-.53c.77-.33,1.58-.54,2.38-.8s1.63-.35,2.45-.44a20.24,20.24,0,0,1,2.46-.13,29.42,29.42,0,0,1,9.36,1.78,63.29,63.29,0,0,1,8.45,3.75,1.37,1.37,0,0,1-1.22,2.44Z"/><path class="cls-11" d="M363.64,541.29a24,24,0,0,0,3.64-.72,34.61,34.61,0,0,0,3.61-1.23,35.93,35.93,0,0,0,6.74-3.57,42,42,0,0,0,5.89-4.84,48.83,48.83,0,0,0,4.93-5.83c6-8.34,9.2-18.4,11-28.59A139.32,139.32,0,0,0,401,481c.07-1.3.06-2.61.09-3.92s.08-2.61,0-3.92c-.07-2.62-.09-5.21-.22-7.88-.42-10.61-1-21.24-1.15-31.91l-.11-8c0-2.67.07-5.35.11-8s.16-5.36.3-8l.21-4,.35-4a167.54,167.54,0,0,1,5.5-31.85,160.45,160.45,0,0,1,11.91-30l3.89-7.06c1.32-2.34,2.83-4.56,4.25-6.83l2.16-3.39,2.34-3.27,4.68-6.51a1.37,1.37,0,0,1,2.26,1.55l0,.06-4.34,6.63L431,323.85l-2,3.42-2,3.42c-.65,1.15-1.38,2.24-1.95,3.43l-3.58,7a156,156,0,0,0-10.67,29.49,172.51,172.51,0,0,0-4.54,31c-.64,10.48-.69,21-.56,31.6s.39,21.2.64,31.84c.08,2.64.06,5.37.07,8.06,0,1.35-.06,2.7-.1,4.05s-.07,2.7-.17,4.05a131.54,131.54,0,0,1-2,16.14,90.6,90.6,0,0,1-4.58,15.7,61.42,61.42,0,0,1-8,14.39,49.92,49.92,0,0,1-5.6,6.12,45.49,45.49,0,0,1-6.62,5A39.12,39.12,0,0,1,372,542.2a31,31,0,0,1-8.19,1.82,1.37,1.37,0,0,1-.23-2.72Z"/><path class="cls-11" d="M588,187.61c.95,1,0,2.34.12,1.94a1.65,1.65,0,0,1-.3.27l-.18.11-.21.11-.32.14-.57.23-1.1.4c-.73.25-1.46.49-2.19.71-1.46.44-2.93.84-4.4,1.22q-4.42,1.12-8.9,1.94a142.24,142.24,0,0,1-18.13,2c-12.17.5-24.59-.65-36.41-4.51a69.76,69.76,0,0,1-30.85-20.26c-8.24-9.33-13.67-20.73-16.73-32.45a1.37,1.37,0,0,1,2.62-.81,95.68,95.68,0,0,0,7.34,16,73.42,73.42,0,0,0,10.44,13.87,66.78,66.78,0,0,0,13.46,10.7,81.72,81.72,0,0,0,7.62,4c2.61,1.19,5.29,2.24,8,3.2a106.52,106.52,0,0,0,34.38,5.35,137.76,137.76,0,0,0,17.63-1.05c2.93-.35,5.86-.77,8.76-1.31,1.45-.27,2.9-.56,4.33-.89.72-.16,1.43-.33,2.13-.51l1-.28.48-.15.2-.07h0l-.06,0a1.22,1.22,0,0,0-.24.22c.17-.41-.8.94.14,1.88a1.37,1.37,0,0,1,1.82-2Z"/><path class="cls-11" d="M568.87,254a35.11,35.11,0,0,0-5.88,1.8,49.21,49.21,0,0,0-5.64,2.74A50.92,50.92,0,0,0,547.28,266l-1.16,1.06c-.37.37-.72.76-1.08,1.14l-2.15,2.28-2,2.45a27.16,27.16,0,0,0-1.89,2.51,60.2,60.2,0,0,0-3.41,5.29L534,283.45c-.53.9-.93,1.89-1.4,2.83l-2.79,5.86c-1,2-2.08,4-3.27,5.9a76.43,76.43,0,0,1-8.08,10.76,82.55,82.55,0,0,1-20.87,16.81,67.77,67.77,0,0,1-12.37,5.51,48.25,48.25,0,0,1-13.56,2.48,31.37,31.37,0,0,1-7.14-.64,19.93,19.93,0,0,1-6.91-2.89,10.54,10.54,0,0,1-1.54-1.17,14.93,14.93,0,0,1-1.38-1.31,26.39,26.39,0,0,1-2.28-2.82,24.53,24.53,0,0,1-3.18-6.47,38,38,0,0,1-1.46-13.72,100.26,100.26,0,0,1,1.79-13.14c1.61-8.57,3.69-16.94,4.43-25.44a1.37,1.37,0,0,1,2.74.16c-.29,8.82-1.94,17.45-3.19,25.94a105.63,105.63,0,0,0-1.21,12.65A33.29,33.29,0,0,0,454,316.67a19.41,19.41,0,0,0,2.7,5.06,21.46,21.46,0,0,0,1.88,2.16,9.47,9.47,0,0,0,1,.89,6.06,6.06,0,0,0,1.06.76,14.45,14.45,0,0,0,5.07,1.93,25.79,25.79,0,0,0,5.79.34,46.77,46.77,0,0,0,11.86-2.45c1-.35,1.94-.69,2.9-1.07s1.92-.77,2.85-1.22c1.89-.85,3.76-1.75,5.58-2.77A81.12,81.12,0,0,0,514.4,305a71.07,71.07,0,0,0,7.74-9.81c1.14-1.74,2.19-3.54,3.15-5.39l1.43-2.82,1.54-3c.53-1,1-2,1.59-2.94l1.77-2.84a64.76,64.76,0,0,1,3.83-5.49,30.08,30.08,0,0,1,2.11-2.6l2.2-2.53,2.39-2.36c.4-.39.79-.79,1.2-1.17l1.28-1.09a53.65,53.65,0,0,1,11.11-7.48,52.45,52.45,0,0,1,6.17-2.65,36.85,36.85,0,0,1,6.63-1.61A1.36,1.36,0,0,1,569,254Z"/></svg>