<svg id="Layer_1" data-name="Layer 1" xmlns="http://www.w3.org/2000/svg" viewBox="0 0 960 560"><defs><style>.cls-1{fill:#c8fff8;}.cls-2{fill:#ffa682;}.cls-3{fill:#9e6751;}.cls-4{fill:#adc2ff;}.cls-5{fill:#8facff;}.cls-6{fill:#965e48;}.cls-7{fill:#ff9063;}.cls-8{fill:#233940;}</style></defs><title>celebrate, celebration, man, people, person</title><path class="cls-1" d="M868.17,256.61c-14.84,57.13-47,111.29-83.89,154.95-26.51,31.38-58.88,57.79-95.66,76.2-1.43.72-2.87,1.42-4.32,2.12a265.82,265.82,0,0,1-72.15,23c-28.38,4.6-57.27.92-85.55-2.73-14.2-1.83-28.76-3.38-43.5-5.38h0c-35.91-3-72.89-5.44-108.43-1.21a266.47,266.47,0,0,0-36.48,6.93c-7.13,1.88-31.47,3.32-62.43,1.62-53.59-2.94-118.47-11.08-161.28-46.63-56.16-46.64-31.81-143.37,33.44-167.29,40.58-14.87,91.78-7.23,121.88-44.24,19.08-23.46,55.93-47.53,125.09-36.62,33.38,5.27,79.53,9.6,103.91-19.6,14.12-16.91,11.14-40.88,17.29-60.93C543.61,47,651.75,11.58,736.64,31.08c80.23,18.43,141.88,79.63,140.2,164.67A262.76,262.76,0,0,1,868.17,256.61Z"/><path class="cls-2" d="M559.74,446.41c0,3.33-59.37,34.66-59.37,34.66S381,470.41,377.71,467.74,381,414.08,381,414.08c17.65-15.93,13.47-42.86,10.42-54.95,7.14,22.62,19.16,43.86,38.65,57.3,24.6,17,73.87-67.69,89-40.69,3.86,6.89,7.57,19.42,18.71,13.83C537.75,389.57,559.71,443.07,559.74,446.41Z"/><path class="cls-3" d="M529.12,379.79q-1.5,4.49-3.28,8.84c-8.41,20.55-23.51,36.75-45.66,41.91-20.55,4.78-41.79-1.06-57.84-14.53-19-16-25-39-30.77-62.08-6.72-26.78-15-53.76-17.88-81.31-2.36-22.84.16-46.46,12.25-66.43,10.26-16.92,27-29.47,47.12-31,19.83-1.48,40.18,7.36,51.35,24a57.15,57.15,0,0,1,7.37,46.63,54.06,54.06,0,0,1-3.76,9.84c20.52,9.8,35.67,28.68,42.79,50.15C538.68,329.63,537,356.09,529.12,379.79Z"/><path class="cls-4" d="M691.17,453.73c0,.14-28,19.37-29.77,20.37-54.72,30.47-117.25,31.64-178.3,30.64h0c-35.91-3-72.89-5.44-108.43-1.21-12.18-.47-24.35-1-36.48-1.87-25.19-1.81-50.74-5.63-73.82-16.36-4.69-2.18-58.23-29-55.56-31.6a516.09,516.09,0,0,0,34.47-38.65c13.29-16.57,26.9-36,33.6-53.09,0,0,43.68,30,76.95,36.86,9.42,2,22,6.15,27.17,15.25,4.73,8.37,7.08,17.13,11.08,25.13h0a45.32,45.32,0,0,0,7.43,10.32c10.24,10.35,24.24,16.65,38.15,20.29,16.06,4.2,33.3,5.35,49.18.49,24.42-7.47,39.61-27.29,46.53-50.23a105.9,105.9,0,0,0,4.42-30.52s16.69-8.65,36.66-8.24S623.09,362,623.09,362a597.15,597.15,0,0,0,31.84,50.84C666.42,429.06,679.44,445.08,691.17,453.73Z"/><path class="cls-5" d="M691.17,453.73s-.12.67-.32,1.83c-29.39,28.62-61.57,49.85-93,59-23.75,1.76-47.72-1.16-71.26-4.19-60.86-7.83-128.27-15.65-188.45.24-7.13,1.88-31.47,3.27-62.43,1.57-6.65-5.28-12.64-10.52-19.57-13.74-4.69-2.18-50-42-47.38-44.67a518,518,0,0,0,34.47-38.66c3.34,1.46,28,26.88,65.55,2.67,35.4-22.82,54.25-15,83.25,21.47h0a45.32,45.32,0,0,0,7.43,10.32c10.24,10.35,24.24,16.65,38.15,20.29,16.06,4.2,33.3,5.35,49.18.49,24.42-7.47,39.61-27.29,46.53-50.23,21.64-23.24,79.32,32.74,121.6-7.28C666.42,429.06,679.44,445.08,691.17,453.73Z"/><path class="cls-6" d="M530.65,305.93a88.87,88.87,0,0,0-19.42-32.67A83.13,83.13,0,0,0,489,256.32c-1.2-.62-2-.77-2.95.21-3.67,3.79-6.73,8.39-11,11.55-4.54,3.36-9.8,5.54-15.1,7.37a61.38,61.38,0,0,1-25.08,2.95c-2.42-.19-8.4-.38-11.69-2.29a12,12,0,0,0-2.83,10.32c2.74,15.08,22.21,13.9,33.13,10.63,15.24-4.55,34.09-14,45.21,3.21,4.5,7,6.22,15.41,7.35,23.5a207.55,207.55,0,0,1-1.22,64.61c-.82,4.54-3.19,12.14,2,15.07,5.79,3.26,10.91-4.2,13.59-8.17a108.35,108.35,0,0,0,8.7-15.48c2.64-5.72,3.74-12.88,4.84-19a125.79,125.79,0,0,0,2-20A103.77,103.77,0,0,0,530.65,305.93Z"/><path class="cls-2" d="M691.17,453.73s-15.79-14.64-35.73-41.4A433,433,0,0,1,623.09,362s74.59-53.34,85.55-174.87c0,0,4.9-2.89-16.32-9.47-21.66-6.72-49-44.13-24.14-72.81,22-25.48,17.23,6.81,17.23,6.81a94.13,94.13,0,0,1,12.81-14.79c3.32-3,6.95-5.53,10.42-6.53,10.85-3.14,78.28-18,98.63,90S721.58,441.61,691.17,453.73Z"/><path class="cls-2" d="M276.84,362a432.68,432.68,0,0,1-34.2,52.82c-19.05,25.2-33.87,38.94-33.87,38.94-3.6,3.33-27.57-24.88-29.4-27.11-30.65-37.22-55.74-83.45-71.83-128.94a284.67,284.67,0,0,1-9.39-32.38C85.9,210.83,84.91,96.8,166.06,89.41a107.26,107.26,0,0,1,25.24.9c11.18,1.64,23.22,21.32,23.22,21.32s-3.31-33.52,17.23-6.81,3.29,61.59-19.57,73.58c-20.08,10.53-20.88,8.7-20.88,8.7C202.25,308.63,276.84,362,276.84,362Z"/><path class="cls-7" d="M691.17,453.73s-15.79-14.64-35.73-41.4c-.35-.48,57.53-55.08,62.51-60.72a191.58,191.58,0,0,0,37.93-65.42c17-49.72,23.34-126.12-19.43-165.52-11.26-10.38-25.54-17-40.15-21.56,19-13.41,43.6-14.84,63.65-2.86,18.25,10.91,32.52,29.59,40.09,49.46,16.94,44.43,11.43,94.95-3,140.26-11.45,36-29.46,69.37-49.13,101.43C744.15,393.53,691.17,453.73,691.17,453.73Z"/><path class="cls-7" d="M242.64,414.79c-19.05,25.2-33.87,38.94-33.87,38.94-3.6,3.33-27.57-24.88-29.4-27.11-30.65-37.22-55.74-83.45-71.83-128.94a284.67,284.67,0,0,1-9.39-32.38C85.9,210.83,84.91,96.8,166.06,89.41c-14.18,13.65-68.65,75.13-25.29,179.12C187.3,380.12,236.86,411.43,242.64,414.79Z"/><path class="cls-8" d="M193.51,137.73a264.5,264.5,0,0,0-.21,47.58l.22,3,.33,3,.67,5.91c.2,2,.57,3.92.84,5.89l.9,5.88,1.11,5.84c.38,1.95.7,3.9,1.18,5.83.91,3.86,1.68,7.75,2.77,11.55a276.71,276.71,0,0,0,15.82,44.71,253.24,253.24,0,0,0,23.71,40.94c4.54,6.45,9.54,12.56,14.65,18.55l4,4.34c1.36,1.42,2.63,2.94,4.06,4.29l4.2,4.15c.71.68,1.38,1.41,2.12,2.06l2.2,2a191.12,191.12,0,0,0,38.5,27.21,182.84,182.84,0,0,0,21.6,9.61l5.57,2c1.88.61,3.78,1.14,5.67,1.71s3.76,1.14,5.71,1.68,3.9,1.13,5.84,1.74a81.62,81.62,0,0,1,11.35,4.65,48.9,48.9,0,0,1,10.34,6.86,32.12,32.12,0,0,1,7.61,10,31.33,31.33,0,0,1,3,12.15,1.37,1.37,0,0,1-2.74.17v0a28.39,28.39,0,0,0-3-10.89,28.84,28.84,0,0,0-7.1-8.75c-5.91-4.86-13.18-8-20.64-10.33-1.88-.55-3.77-1.1-5.68-1.57s-3.88-1.06-5.82-1.59-3.91-1.05-5.84-1.64l-5.75-1.95a187.57,187.57,0,0,1-22.37-9.41,190.77,190.77,0,0,1-40.08-27.31l-2.3-2c-.77-.66-1.47-1.39-2.21-2.08l-4.39-4.21c-1.5-1.37-2.82-2.91-4.23-4.37L251,340.34,247,335.72c-1.3-1.55-2.66-3.06-3.87-4.69-2.45-3.23-5-6.37-7.26-9.74a247,247,0,0,1-23.83-42.17,276,276,0,0,1-15.51-45.79,267,267,0,0,1-5.77-95.9,1.37,1.37,0,0,1,2.72.3Z"/><path class="cls-8" d="M191.27,185.74a27.5,27.5,0,0,0,9.52-2.59,48.08,48.08,0,0,0,8.63-5.22,78.28,78.28,0,0,0,14.51-14.26,73.72,73.72,0,0,0,10.46-17.25,40.35,40.35,0,0,0,1.62-4.64,29.39,29.39,0,0,0,.94-4.73,40.9,40.9,0,0,0,0-9.7,45.3,45.3,0,0,0-6.55-18.3,40.1,40.1,0,0,0-6.15-7.65c-.56-.61-1.21-1.1-1.81-1.66l-.46-.41a3.29,3.29,0,0,0-.41-.34,3.44,3.44,0,0,0-.68-.44,3.27,3.27,0,0,0-1.51-.43,3.7,3.7,0,0,0-1.59.2,3.83,3.83,0,0,0-1.42.81,3.73,3.73,0,0,0-1,1.3,4.51,4.51,0,0,0-.42,1.65c0,.79-.05,1.57,0,2.39.17,3.23.87,6.67,1.29,10.25a30.45,30.45,0,0,1-.44,11.09,26.08,26.08,0,0,1-5,9.87,1.37,1.37,0,0,1-2.22-1.61v0a23,23,0,0,0,3.86-9,27.8,27.8,0,0,0-.19-9.78c-.56-3.34-1.5-6.74-1.85-10.49-.12-.92-.11-1.9-.14-2.85a9.27,9.27,0,0,1,.71-3.43,8.92,8.92,0,0,1,5-4.87A8.74,8.74,0,0,1,219.6,93a8.36,8.36,0,0,1,3.54.82,8.57,8.57,0,0,1,1.57.9,5.91,5.91,0,0,1,.62.47l.54.44c.71.6,1.46,1.15,2.12,1.81a45.68,45.68,0,0,1,7.26,8.43,47.06,47.06,0,0,1,5.13,9.89c.3.88.65,1.75.91,2.65l.76,2.7.55,2.75c.17.92.26,1.85.39,2.78a42.25,42.25,0,0,1-.23,11.23,35.2,35.2,0,0,1-1.27,5.52,46,46,0,0,1-2,5.21,76.56,76.56,0,0,1-11.79,18.18,82.64,82.64,0,0,1-16,14.4,50.44,50.44,0,0,1-9.61,5.08,29,29,0,0,1-10.79,2.19,1.37,1.37,0,0,1-.1-2.73Z"/><path class="cls-8" d="M201,97.85a51.28,51.28,0,0,0-16.86-8.12,48.56,48.56,0,0,0-18.58-1.17,60.53,60.53,0,0,0-9.18,2,72.53,72.53,0,0,0-8.79,3.36,84.24,84.24,0,0,0-8.28,4.52q-4,2.55-7.71,5.48a93.34,93.34,0,0,0-13.5,13.23c-1,1.21-2,2.45-2.93,3.71l-1.4,1.9-1.29,2-2.57,4c-.77,1.37-1.5,2.77-2.26,4.15l-1.12,2.08c-.37.7-.65,1.43-1,2.15l-1.92,4.32c-.6,1.46-1.09,3-1.64,4.44s-1.1,3-1.5,4.49l-1.32,4.56c-.42,1.52-.71,3.08-1.08,4.62-.77,3.07-1.2,6.22-1.74,9.34-3.6,25.18-1.36,51,2.21,76.35a332.6,332.6,0,0,0,8.1,37.47Q111.91,301.08,119,319A414.35,414.35,0,0,0,200.89,448l6.65,6.95,6.87,6.72c2.26,2.28,4.68,4.38,7,6.56s4.72,4.34,7.19,6.38A309.17,309.17,0,0,0,259.18,498c5.27,3.65,10.79,6.92,16.27,10.24l8.41,4.66c1.39.8,2.84,1.49,4.27,2.21l4.3,2.15a247.25,247.25,0,0,0,35.7,14.21h0a1.37,1.37,0,0,1-.78,2.63,250.34,250.34,0,0,1-36.42-13.73l-4.39-2.1c-1.46-.71-2.95-1.37-4.36-2.17l-8.58-4.62c-5.6-3.29-11.23-6.53-16.62-10.16A313.49,313.49,0,0,1,225.74,478c-2.53-2-4.94-4.21-7.37-6.37s-4.89-4.27-7.21-6.55l-7-6.72-6.82-7c-2.31-2.28-4.45-4.73-6.66-7.11s-4.41-4.77-6.5-7.26-4.25-4.91-6.34-7.4l-6.1-7.59-1.53-1.9-1.47-1.94-2.93-3.89-2.93-3.89c-1-1.3-1.88-2.65-2.83-4-1.86-2.66-3.77-5.29-5.6-8L149,390.39c-7-10.95-13.65-22.13-19.57-33.71s-11.4-23.38-16.15-35.49a380.75,380.75,0,0,1-12.35-37A338.32,338.32,0,0,1,93,246l-1.27-9.69c-.33-3.23-.7-6.44-1-9.68-.63-6.46-1-13-1.3-19.46s-.29-13,.06-19.56c.08-3.26.41-6.52.67-9.78.1-1.63.39-3.25.57-4.88s.37-3.25.68-4.87c.6-3.23,1.08-6.47,1.92-9.66.4-1.59.72-3.21,1.18-4.79L96,148.89c.43-1.59,1-3.12,1.62-4.67s1.13-3.1,1.77-4.62l2.06-4.5c.36-.74.67-1.51,1.06-2.24l1.2-2.17c.81-1.44,1.59-2.89,2.42-4.32l2.75-4.12,1.38-2.06,1.49-2c1-1.31,2-2.59,3.11-3.85a97.41,97.41,0,0,1,14.26-13.65,93.79,93.79,0,0,1,8.15-5.61,88,88,0,0,1,8.77-4.6,76.15,76.15,0,0,1,9.33-3.39,64,64,0,0,1,9.77-1.91,51.77,51.77,0,0,1,19.78,1.58,54.18,54.18,0,0,1,17.68,8.87A1.37,1.37,0,0,1,201,97.87Z"/><path class="cls-8" d="M529.77,358.65a77.27,77.27,0,0,0,4.56-26.08l0-1.66c0-.55-.05-1.11-.08-1.66l-.17-3.32c0-1.11-.23-2.21-.34-3.31s-.25-2.2-.41-3.3a84.56,84.56,0,0,0-3.13-12.9c-.36-1-.68-2.11-1.07-3.14l-1.27-3.06-.63-1.53-.74-1.48L525,294.24c-.53-1-1.14-1.88-1.7-2.82a26.17,26.17,0,0,0-1.8-2.75L519.58,286c-.67-.86-1.44-1.64-2.15-2.46l-1.08-1.22c-.37-.4-.79-.74-1.18-1.11l-2.4-2.2-5.24-4.29q-5.24-4.28-10.56-8.42a233.79,233.79,0,0,0-22-15.41,115.44,115.44,0,0,0-24-11.36,59.49,59.49,0,0,0-25.8-2.49,44,44,0,0,0-12.35,3.5,37.47,37.47,0,0,0-10.46,7.2c-6.09,6-10.12,14-12.5,22.34a102,102,0,0,0-2.63,13A132.56,132.56,0,0,0,386,296.3c-.25,4.44-.18,8.9-.07,13.35s.47,8.9,1,13.33a181.73,181.73,0,0,0,4.89,26.25,160.61,160.61,0,0,0,8.89,25.09A116.16,116.16,0,0,0,414.19,397c1.3,1.77,2.77,3.39,4.18,5.07l2.25,2.38c.73.81,1.53,1.56,2.32,2.3a67.1,67.1,0,0,0,10.18,8.08l2.75,1.75c.92.58,1.9,1,2.85,1.58s1.88,1.08,2.89,1.5l3,1.33a29.9,29.9,0,0,0,3,1.19l3.06,1.1,3.13.86,1.56.43c.53.12,1.06.21,1.59.31,16.86,3.76,35.27-.43,48.14-12,.81-.72,1.64-1.36,2.44-2.14l2.41-2.33,4.84-4.75c3.25-3.18,6.6-6.36,10.26-9.29a62.36,62.36,0,0,1,11.92-7.71,63.31,63.31,0,0,1,13.41-4.6c9.12-2.12,18.25-2.74,27.06-4a104.39,104.39,0,0,0,25.5-6.67,67.81,67.81,0,0,0,11.47-6.14c.89-.61,1.76-1.25,2.63-1.89s1.68-1.31,2.53-2c1.7-1.44,3.39-2.9,5-4.4a225,225,0,0,0,18.76-19.15,249.75,249.75,0,0,0,30.6-44.06,269.08,269.08,0,0,0,31.7-156,1.37,1.37,0,0,1,2.73-.31,267,267,0,0,1-9.66,108,272,272,0,0,1-20.84,50.44A254.44,254.44,0,0,1,647.1,341a230.08,230.08,0,0,1-19,19.75c-1.68,1.56-3.4,3.07-5.13,4.57-.85.75-1.82,1.49-2.72,2.24s-1.89,1.41-2.86,2.09A73.13,73.13,0,0,1,605,376.4a109.83,109.83,0,0,1-26.79,7.22c-9.07,1.37-18.05,2.06-26.55,4.11A57.52,57.52,0,0,0,539.52,392a56.49,56.49,0,0,0-10.75,7.07c-3.38,2.75-6.59,5.82-9.81,9l-4.84,4.75-2.47,2.38c-.82.79-1.77,1.56-2.66,2.33s-1.77,1.58-2.73,2.28l-2.91,2.06-1.46,1-1.55.89-3.1,1.78a60.14,60.14,0,0,1-13.36,5,61.21,61.21,0,0,1-14.11,1.75,65.07,65.07,0,0,1-7.09-.38c-1.17-.14-2.36-.24-3.52-.42l-3.48-.67c-.58-.12-1.16-.22-1.74-.35l-1.71-.47-3.41-.95c-1.11-.38-2.22-.79-3.33-1.19a34.09,34.09,0,0,1-3.28-1.29L439,425.07c-1.09-.45-2.08-1.09-3.13-1.62s-2.09-1.09-3.08-1.71l-3-1.89a71.49,71.49,0,0,1-11-8.81c-.85-.8-1.7-1.62-2.48-2.49L414,406c-1.49-1.79-3-3.54-4.41-5.42a121.86,121.86,0,0,1-14-23.91,166.11,166.11,0,0,1-9-26,187.06,187.06,0,0,1-4.85-27.06c-.51-4.56-.76-9.14-.94-13.72s-.12-9.18.16-13.77a137.63,137.63,0,0,1,1.37-13.73,106.7,106.7,0,0,1,2.86-13.58c2.62-8.95,7-17.65,13.92-24.36a42.16,42.16,0,0,1,11.83-8,48.61,48.61,0,0,1,13.67-3.79,63.9,63.9,0,0,1,27.74,2.85,119.57,119.57,0,0,1,24.84,11.95,237.76,237.76,0,0,1,22.3,15.82c3.58,2.8,7.08,5.69,10.56,8.59l5.2,4.37,2.57,2.41c.42.41.87.79,1.27,1.23l1.15,1.33c.76.89,1.56,1.75,2.27,2.68l2,2.84a28.83,28.83,0,0,1,1.88,2.94c.58,1,1.21,2,1.76,3l1.53,3.12.76,1.56.65,1.61,1.29,3.22c.39,1.09.72,2.19,1.08,3.29a87.88,87.88,0,0,1,3.1,13.46c.15,1.14.25,2.29.38,3.43s.3,2.28.31,3.44l.14,3.45c0,.57.06,1.15.06,1.72l0,1.73a80.15,80.15,0,0,1-5.05,27,1.37,1.37,0,0,1-2.56-1Z"/><path class="cls-8" d="M708.15,183.44a34.75,34.75,0,0,1-10.61-1.61,51.36,51.36,0,0,1-9.81-4.2,72.82,72.82,0,0,1-16.74-13,57.82,57.82,0,0,1-11.86-17.89,47.32,47.32,0,0,1-1.78-5.18,43.06,43.06,0,0,1-1.08-5.45,41.18,41.18,0,0,1,.05-11.06,44.53,44.53,0,0,1,2.92-10.6,44,44,0,0,1,5.32-9.57,49.46,49.46,0,0,1,7.33-8.09L674,95a7.91,7.91,0,0,1,.68-.48,7.38,7.38,0,0,1,.75-.47,9.2,9.2,0,0,1,8.6,0,9,9,0,0,1,4.42,5.3,9.54,9.54,0,0,1,.33,1.71l.07.85,0,.71,0,1.41-.14,1.38c-.4,3.66-1.32,7-1.85,10.25a27.67,27.67,0,0,0-.1,9.59,23.41,23.41,0,0,0,3.82,8.81v0a1.37,1.37,0,0,1-2.21,1.62,26.51,26.51,0,0,1-5-9.67,30.28,30.28,0,0,1-.54-10.9c.39-3.53,1.09-6.92,1.31-10.11l.07-1.19v-1.75l-.06-.43a4.79,4.79,0,0,0-.19-.81,4.11,4.11,0,0,0-2.13-2.3,3.94,3.94,0,0,0-3.06-.14,4.31,4.31,0,0,0-1.39.83l-1.81,1.6a43.87,43.87,0,0,0-6.22,7.37,45.25,45.25,0,0,0-7,17.75,37,37,0,0,0,2,18.78,53.9,53.9,0,0,0,10.29,16.6,68.43,68.43,0,0,0,15.15,12.89c5.62,3.5,11.9,6.1,18.46,6.52h0a1.37,1.37,0,0,1-.07,2.73Z"/><path class="cls-8" d="M579.58,517.06a124.4,124.4,0,0,0,18.23-4.12,167.08,167.08,0,0,0,17.55-6.53c5.71-2.54,11.29-5.37,16.74-8.43s10.76-6.37,15.92-9.93c1.31-.86,2.59-1.75,3.86-2.67l3.82-2.72,3.75-2.83,1.88-1.41,1.84-1.46,3.68-2.92,3.61-3c2.42-2,4.74-4.09,7.1-6.15,4.65-4.2,9.24-8.47,13.62-13S700,443,704.11,438.27a430.85,430.85,0,0,0,80-126.48c1.27-2.86,2.24-5.84,3.35-8.76l3.23-8.81,2.85-8.93,1.43-4.46c.5-1.48.83-3,1.25-4.51l2.4-9.05c.2-.76.41-1.51.59-2.27l.48-2.29,1-4.58,1-4.58c.32-1.53.68-3,.87-4.59l1.4-9.25a268.55,268.55,0,0,0,2.7-37.35,180.9,180.9,0,0,0-3.45-37.09,115.7,115.7,0,0,0-12.74-34.68,91.6,91.6,0,0,0-24.11-27.75c-9.77-7.47-21.27-13-33.45-14.34a46.93,46.93,0,0,0-9.14-.19c-1.53.07-3,.32-4.54.53s-3,.56-4.46,1a51.18,51.18,0,0,0-16.46,8l0,0a1.37,1.37,0,0,1-1.61-2.22,54.11,54.11,0,0,1,17.25-8.76c1.55-.51,3.15-.8,4.74-1.16s3.21-.55,4.84-.66a50.32,50.32,0,0,1,9.75,0,56,56,0,0,1,9.59,1.71A64.79,64.79,0,0,1,751.92,90a73.29,73.29,0,0,1,8.66,4.36,81.45,81.45,0,0,1,8.07,5.34,95.84,95.84,0,0,1,25.58,28.68A120.41,120.41,0,0,1,808,164.24a182.52,182.52,0,0,1,4,38.1,274.07,274.07,0,0,1-2.38,38.12l-1.34,9.48c-.18,1.59-.54,3.14-.85,4.71l-.94,4.69-.95,4.69-.48,2.34c-.18.78-.4,1.54-.59,2.31L802,277.94c-.43,1.54-.76,3.1-1.26,4.61l-1.44,4.55-2.88,9.11c-1.07,3-2.21,6-3.31,9s-2.14,6-3.44,8.9a417,417,0,0,1-35.37,67.42l-1.27,2-1.34,2-2.68,3.94-5.36,7.87L738.06,405c-1.89,2.55-3.71,5.15-5.72,7.61-4,5-7.79,10-12,14.79l-6.18,7.24-6.45,7c-4.23,4.74-8.8,9.14-13.27,13.65s-9.2,8.76-14,13c-2.42,2.06-4.8,4.17-7.28,6.15l-3.69,3-3.77,2.92-1.88,1.46-1.92,1.41L658.1,486l-3.92,2.72c-1.3.92-2.61,1.81-4,2.67l-4,2.6-4.08,2.48-2,1.24L638,498.87c-1.39.78-2.76,1.58-4.16,2.34-5.61,3-11.33,5.81-17.2,8.3a170.2,170.2,0,0,1-18,6.36,127.27,127.27,0,0,1-18.72,3.9,1.37,1.37,0,0,1-.37-2.71Z"/><path class="cls-8" d="M610,329.77,615,341l5.38,11,5.7,10.86,6.07,10.65L638.57,384l6.73,10.23,7.08,10q3.72,4.86,7.38,9.76,3.86,4.75,7.63,9.56c2.65,3.1,5.24,6.24,7.85,9.38l8.15,9.14,8.44,8.87a383.3,383.3,0,0,0,36.61,32.64,1.37,1.37,0,0,1-1.62,2.21,319.93,319.93,0,0,1-38.48-31.28l-8.87-8.71-8.54-9c-2.74-3.11-5.49-6.21-8.2-9.36s-5.2-6.46-7.76-9.72-4.91-6.68-7.34-10l-6.94-10.32-6.57-10.55-6.18-10.78-5.75-11-5.36-11.2-4.89-11.4-4.45-11.57a1.37,1.37,0,0,1,2.52-1.05Z"/><path class="cls-8" d="M291.68,330.77c-2.27,6.46-4.81,12.83-7.5,19.14s-5.64,12.51-8.73,18.64a345.08,345.08,0,0,1-20.83,35.54q-2.84,4.28-5.86,8.45c-2,2.8-4.06,5.54-6.18,8.25-4.22,5.43-8.62,10.75-13.3,15.82-9.32,10.16-19.8,19.44-31.7,26.5a1.37,1.37,0,0,1-1.48-2.31,156.11,156.11,0,0,0,29.43-27.5c4.34-5.16,8.47-10.5,12.42-16,1-1.36,2-2.75,2.94-4.13l2.92-4.15,5.79-8.36c3.83-5.6,7.63-11.18,11.21-16.93s7-11.58,10.31-17.5,6.46-11.92,9.44-18,5.84-12.25,8.58-18.47a1.37,1.37,0,0,1,2.54,1Z"/><path class="cls-8" d="M463.38,182.94a51.47,51.47,0,0,1,9.31,4.55,57.07,57.07,0,0,1,8.18,6.42,60,60,0,0,1,6.74,8,59.28,59.28,0,0,1,5.08,9.18,48.8,48.8,0,0,1,3.92,20.68,57.9,57.9,0,0,1-1.4,10.52,56.13,56.13,0,0,1-3.51,10,54.64,54.64,0,0,1-5.49,9.1,53.58,53.58,0,0,1-7.29,7.74,54.38,54.38,0,0,1-8.78,6,55.12,55.12,0,0,1-9.81,3.94c-13.51,3.86-28.49,2.13-40.32-5.08a1.37,1.37,0,0,1,1.34-2.39,49.38,49.38,0,0,0,37.51,2.69,52.7,52.7,0,0,0,8.65-3.89,48.84,48.84,0,0,0,7.58-5.59,57.62,57.62,0,0,0,6.27-7,62.41,62.41,0,0,0,4.87-8.08,60,60,0,0,0,3.31-8.85,52.28,52.28,0,0,0,1.53-9.32,49,49,0,0,0-.46-9.43,48.37,48.37,0,0,0-6.71-17.74,55.78,55.78,0,0,0-5.87-7.62,55.21,55.21,0,0,0-7.24-6.4,54.15,54.15,0,0,0-8.42-4.83l0,0a1.37,1.37,0,0,1,1-2.52Z"/></svg>