<svg id="Layer_1" data-name="Layer 1" xmlns="http://www.w3.org/2000/svg" viewBox="0 0 960 560"><defs><style>.cls-1{fill:#b3d1ff;}.cls-2{fill:#c2c3d1;}.cls-3{fill:#d5d6e6;}.cls-4{fill:#83a2d4;}.cls-5{fill:#6c94d4;}.cls-6{fill:#ffa792;}.cls-7{fill:#ff9880;}.cls-8{fill:#ff876b;}.cls-9{fill:#5b5d80;}.cls-10{fill:#65688f;}.cls-11{fill:#233940;}</style></defs><title>computer, screen, monitor, electronic</title><path class="cls-1" d="M644.69,95.11c-102.88,0-217.29,46.49-297,112.88l0,0-.06,0a391.27,391.27,0,0,0-36.77,34.74C294.06,260.9,280,280,269.26,299.63c-8.51,24-19,48.29-19.24,74.13h0c10.68,45.9,68.24,152.83,188.93,152.83,8.72,0,17.61-.39,26.5-1.14C587.86,515,722.64,434.2,744.64,320.12h0a179.56,179.56,0,0,0,3.09-33C747.73,147.11,719.64,95.11,644.69,95.11Z"/><path class="cls-2" d="M500.34,348.92l-15.63,26.33a24.75,24.75,0,0,1-29.86,10.57l-21.67-7.27-40.81-13.68-132.1-44.29c6.18-18.26,15-35.48,27.84-49.76A97.23,97.23,0,0,1,304,256.4l182.21,56.22A24.73,24.73,0,0,1,500.34,348.92Z"/><path class="cls-3" d="M524.6,303.15a16.3,16.3,0,0,1-17.79,6l-21.93-6.5-38.31-11.36a16.22,16.22,0,0,1-10.93-20.38c2.46-7.71,1.64-16.21.68-21.5a49.05,49.05,0,0,0-1.19-5.2l100.5,25.25C538.93,280.57,531.08,294.29,524.6,303.15Z"/><path class="cls-4" d="M614.26,283.25,368.47,213.67c-6.36-1.8-12.9-3.62-19.48-3-11.51,1.06-20.37,13.79-28.2,21.37a274.91,274.91,0,0,0-28.39,32.16c-16.92,22.47-31.17,45.82-36.34,73.89l201.11,180c2.38,2.13,4.83,4.3,7.79,5.48,4.1,1.63,8.69,1.19,13.06.64A371.69,371.69,0,0,0,642.9,461.14l1.46-1C712.84,412.09,694.74,306,614.26,283.25Z"/><path class="cls-2" d="M503.6,304a16.19,16.19,0,0,1-3.72,3.67l-38.31-11.36a16.22,16.22,0,0,1-10.93-20.38c2.46-7.71,1.64-16.21.68-21.5l63.31,15.91C517.93,281.44,510.08,295.15,503.6,304Z"/><path class="cls-5" d="M548.79,508.07a365.56,365.56,0,0,1-83.35,17.4L322.27,397.26l17.42-68.65,167,9.76s-5.46,11.91,0,13.08,8.05-6.54,21.26-6.54,26.71,7.94,23.21,21.82,36.49,23.52,36.49,23.52S599.87,457.12,548.79,508.07Z"/><path class="cls-3" d="M508.09,336l-15.81,26.63a25,25,0,0,1-30.2,10.69L440.36,366l-58.77-19.71-116.32-39c0-.1.07-.19.1-.29,11.1-22.25,26.59-43.86,45.45-64.24l183,56.47A25,25,0,0,1,508.09,336Z"/><path class="cls-6" d="M581.87,361.82c4,5.84,7.61,15.94,5.27,32.83C583,424.86,575.75,436,574.75,437.47c-3.4,10.78-9.6,22.74-20.11,36.4a86.29,86.29,0,0,1-6.54,7.53c-35.25,36.25-108.83,53.67-149.21,43.22-43.08-11.15-85.11-35.56-122.25-95.5-22.43-36.2-31-44-31-44a346.63,346.63,0,0,1,15.49-63.63c6.28-17.73,14.81-35.76,26.13-49.15q.58-.69,1.17-1.35s3.4,2.15,8.55,5.79c11.66,8.23,32.28,24.09,42.66,39.84l.05-.07c1.36-1.72,29.8-36.45,94.38-10.13a9.41,9.41,0,0,1,3.75,14.69l-14.43,17.51s9.58-2.64,6,17.25S406.18,388,381.84,384.63l-.2,0s33.93,53.24,81.33,47.84c14.57-1.65,30.4-8.85,46.92-24.84,0,0-33-58.18,33.92-55.81l.06-.13c.45-1.06,3.75-8.15,11.31-10.76,6.93-2.41,17.45-1,32.66,12.18a8,8,0,0,1-3.91,8h0A11.46,11.46,0,0,0,581.87,361.82Z"/><path class="cls-7" d="M406.65,504.5c13.19,4,8.15,23.82-5.28,20.72q-1.25-.29-2.48-.61c-43.08-11.15-85.11-35.56-122.25-95.5-22.43-36.2-31-44-31-44a346.63,346.63,0,0,1,15.49-63.63c24.32,21.08,56.39,55.78,66.51,98.63,8.77,37.14,35.14,68,70.92,81.63Q402.6,503.27,406.65,504.5Z"/><path class="cls-7" d="M541.82,353.65c-4.86,16.89-15.12,32.43-19.44,38.51a5.57,5.57,0,0,1-9.51-5.73c4.86-9.49,8.65-22.43,11.88-34.58a28.57,28.57,0,0,1,4-.39A34.8,34.8,0,0,1,541.82,353.65Z"/><path class="cls-2" d="M441.39,361.86a32.84,32.84,0,0,1-1,4.16l-58.77-19.71c-6.38-11-12.82-22-20-32.47,13.33-9,34.36-15.63,78.29,2.27l-2,20.9a9.19,9.19,0,0,0,2.11,9.06C441.82,348,443.09,352.41,441.39,361.86Z"/><path class="cls-8" d="M437.82,321.1l-14.43,17.51s9.58-2.64,6,17.25c-2.77,15.39-15.21,26.23-32,28.75a54.6,54.6,0,0,1-15.54,0c-15.46-21.7-26.77-46.28-42.15-68.09a45.56,45.56,0,0,1,9.91-8.7c13.33-9,40.54-19.33,84.47-1.43A9.41,9.41,0,0,1,437.82,321.1Z"/><path class="cls-7" d="M437.82,321.1l-14.43,17.51s9.58-2.64,6,17.25c-2.77,15.39-15.21,26.23-32,28.75l-.54-.07c-12.81-11.44-.73-19.33,9.8-27.43,8.27-6.36,14.49-15.17,12.75-14-43.25,29-60.06-21.05-69.79-35.27,13.33-9,40.54-19.33,84.47-1.43A9.41,9.41,0,0,1,437.82,321.1Z"/><path class="cls-9" d="M663.14,117.11l-8.51,157.11-2.11,29A21.76,21.76,0,0,1,626.27,323l-5.44-1.6-3.22-.95L468.76,276.58a0,0,0,0,1,0,0L335.62,237.36A17.05,17.05,0,0,1,322.21,219l1.29-32.54v-.19l8-138.6a19.53,19.53,0,0,1,18.18-17.51,19.73,19.73,0,0,1,4.12.18L545.05,74.54l104.8,24.24C659.6,100.23,663.85,107.27,663.14,117.11Z"/><path class="cls-9" d="M335,215.48c-6.38-6.13-8.94-21.9-11.48-29v-.19l8-138.6a19.53,19.53,0,0,1,18.18-17.51L545.17,75.34l92.68,21.44c9.75,1.45,14,8.49,13.29,18.33l-8.51,157.11-2.11,29c-.53,7.3-9,1.09-12.51-.41-15.9-6.74-32.87-9.67-49.4-14.37-20.34-5.77-40.63-11.75-61-17.57q-89.49-25.62-179-51.2A8.85,8.85,0,0,1,335,215.48Z"/><path class="cls-10" d="M651.14,115.11l-8.51,157.11-2.11,29a21.78,21.78,0,0,1-19.69,20.11l-3.22-.95a21.77,21.77,0,0,0,22.91-20.16l2.11-29L404.66,208c0-.37,0-.75,0-1.13,0-35.92,109.58,10.17,135.25-15.5,17.54-17.54,11.11-78.9,5.28-116l92.68,21.44C647.6,98.23,651.85,105.27,651.14,115.11Z"/><path class="cls-2" d="M654.63,274.22l-2.11,29A21.77,21.77,0,0,1,626.28,323L335.62,237.36A17.06,17.06,0,0,1,322.21,219l1.31-32.74Z"/><path class="cls-3" d="M642.63,271.22l-2.11,29a21.77,21.77,0,0,1-22.91,20.16L468.76,276.58a0,0,0,0,1,0,0c-.79-1.09-1.49-2.16-2.11-3.21-21.1-35.7-61.14-30.69-62-65.37Z"/><path class="cls-3" d="M468.75,276.57,335.62,237.36A17.05,17.05,0,0,1,322.21,219l1.29-32.54L404.66,208c.84,34.68,40.88,29.67,62,65.37C467.26,274.41,468,275.48,468.75,276.57Z"/><path class="cls-11" d="M517.1,423.46A63.21,63.21,0,0,1,505,406.06a55.89,55.89,0,0,1-5.37-20.59,43.47,43.47,0,0,1,.68-10.78,34.55,34.55,0,0,1,3.8-10.24,30.28,30.28,0,0,1,7-8.47,28.44,28.44,0,0,1,9.77-5.25,22.8,22.8,0,0,1,2.7-.69,22.18,22.18,0,0,1,2.75-.45,34,34,0,0,1,5.52-.13,37.18,37.18,0,0,1,10.73,2.23,49.84,49.84,0,0,1,9.7,4.95,60.41,60.41,0,0,1,8.34,6.86,67.15,67.15,0,0,1,7,8.16,70.22,70.22,0,0,1,5.67,9.1c.87,1.56,1.58,3.21,2.35,4.83s1.4,3.3,1.94,5,1.08,3.43,1.57,5.17l.58,2.63c.2.88.39,1.75.51,2.64a76.25,76.25,0,0,1,.61,21.4,87.72,87.72,0,0,1-4.86,20.8,92.59,92.59,0,0,1-9.46,19.12,119.51,119.51,0,0,1-13,16.82,143.9,143.9,0,0,1-33.08,26.31,173.77,173.77,0,0,1-38.76,16.68,187,187,0,0,1-41.53,7.38c-3.52.22-7,.32-10.57.33-1.76,0-3.53-.06-5.29-.08s-3.52-.23-5.28-.34-3.52-.24-5.28-.39l-5.25-.68-2.62-.34-1.31-.17-1.3-.24-5.2-1a170.1,170.1,0,0,1-40-13.29,174.82,174.82,0,0,1-35.55-22.57,167.69,167.69,0,0,1-29-30.5c-8.26-11.37-15.16-23.45-22.35-35.27s-14.49-23.57-23.47-33.87a69.08,69.08,0,0,0-15.21-13.35,39.53,39.53,0,0,0-9.07-4.21,36.42,36.42,0,0,0-9.82-1.57h0a1.37,1.37,0,0,1,0-2.74,39.24,39.24,0,0,1,10.67,1.52,42.51,42.51,0,0,1,9.82,4.35,57.84,57.84,0,0,1,8.62,6.28,88.26,88.26,0,0,1,7.56,7.42,158.36,158.36,0,0,1,12.92,16.57c4,5.75,7.71,11.62,11.37,17.52,7.35,11.77,14.37,23.72,22.56,34.7a163,163,0,0,0,28.5,29.3,168.59,168.59,0,0,0,73.55,34l5,.91,1.26.22,1.27.15,2.53.31,5.07.62c1.69.13,3.39.22,5.09.33a151.21,151.21,0,0,0,20.4,0A181,181,0,0,0,480,516.44a178.22,178.22,0,0,0,19.23-6.91,166.86,166.86,0,0,0,18.29-9.07,138.21,138.21,0,0,0,32-25,114,114,0,0,0,12.51-16,87.26,87.26,0,0,0,9.08-18,82.56,82.56,0,0,0,4.73-19.56,72.86,72.86,0,0,0-.39-20c-.1-.83-.28-1.65-.45-2.47l-.51-2.45c-.44-1.6-.84-3.22-1.4-4.79s-1.15-3.13-1.76-4.69-1.34-3.07-2.15-4.54a65.63,65.63,0,0,0-5.22-8.59,62.68,62.68,0,0,0-6.44-7.69,56.06,56.06,0,0,0-7.62-6.42,45.63,45.63,0,0,0-8.73-4.58,33,33,0,0,0-9.53-2.1,30,30,0,0,0-4.86.06,18.45,18.45,0,0,0-2.38.37,19,19,0,0,0-2.34.57,24.91,24.91,0,0,0-8.48,4.41,26.52,26.52,0,0,0-6.28,7.34,31,31,0,0,0-3.53,9.11,40.09,40.09,0,0,0-.77,9.9,52.7,52.7,0,0,0,4.78,19.47A60.33,60.33,0,0,0,519,421.54h0a1.37,1.37,0,0,1-2,1.9Z"/><path class="cls-11" d="M354.76,337.63c3.76,5.39,7.75,10.65,12.59,14.83a36.8,36.8,0,0,0,7.73,5.34,25.63,25.63,0,0,0,8.74,2.59,31.79,31.79,0,0,0,17.8-3.51A38.72,38.72,0,0,0,417.92,341l.54-1,.27-.51.2-.36.27-.46a7,7,0,0,1,3.33-2.78,7.1,7.1,0,0,1,7.92,1.85,10,10,0,0,1,.66.89,9.68,9.68,0,0,1,.5,1,8.23,8.23,0,0,1,.34,1l.07.25,0,.17.06.33c.18.88.32,1.77.44,2.66a37.8,37.8,0,0,1-3.22,20.95,36.88,36.88,0,0,1-34.15,20.69,1.37,1.37,0,0,1,0-2.74h0c12.76-.43,24.82-8.63,29.57-20a33.1,33.1,0,0,0,2.06-18.07c-.13-.75-.27-1.5-.45-2.25l-.06-.28,0-.14,0,0c0-.05,0-.13-.07-.17a1,1,0,0,1-.08-.13s-.06-.07-.09-.11a1.22,1.22,0,0,0-1.23-.21.88.88,0,0,0-.42.38l0,.08,0,0-.08.15-.31.6-.62,1.2a43.9,43.9,0,0,1-2.89,4.52,43,43,0,0,1-16.34,13.45,36.45,36.45,0,0,1-20.91,3.37A30.33,30.33,0,0,1,373,361.74a41,41,0,0,1-8.36-6.34,77.3,77.3,0,0,1-12.19-16.3,1.37,1.37,0,0,1,2.3-1.48Z"/><path class="cls-11" d="M244.37,508c-5.46-34.56-5.5-69.82-1.93-104.56,1.8-17.38,4.44-34.66,7.69-51.82s8.13-34.26,15.67-50.27,17.84-30.87,31.47-42.48a71.8,71.8,0,0,1,23.24-13.58,74.81,74.81,0,0,1,26.68-3.66,141.28,141.28,0,0,1,26.33,3.81c8.58,2,17,4.4,25.36,6.81s16.69,4.79,25.07,6.8l12.73,3.23c4.21,1.19,8.44,2.32,12.63,3.56,16.77,4.93,33.33,10.39,49.86,15.9s33,11.18,49.49,16.59,33.09,10.61,49.83,15c2.09.59,4.19,1.09,6.29,1.59l6.3,1.53c2.1.53,4.22.91,6.33,1.37s4.26.93,6.3,1.28a23.59,23.59,0,0,0,11.6-.9,21.23,21.23,0,0,0,2.71-1.12c.88-.42,1.7-1,2.55-1.46a25,25,0,0,0,4.43-3.89,25.84,25.84,0,0,0,5.62-10.37c.22-1,.43-2,.62-2.93s.23-2,.31-3l.35-6.52,1.4-26.07,2.8-52.14,5.72-104.28v0a1.37,1.37,0,0,1,2.74.13L660,210.86,657.74,263l-1.15,26.09-.29,6.52c-.07,1.12-.22,2.32-.33,3.48s-.44,2.31-.7,3.46A30.74,30.74,0,0,1,648.68,315a30,30,0,0,1-5.32,4.75c-1,.61-2,1.29-3.09,1.81A26.27,26.27,0,0,1,637,323a28.75,28.75,0,0,1-14.13,1.24c-2.25-.37-4.33-.84-6.51-1.26s-4.32-.81-6.45-1.33l-6.4-1.5c-2.13-.5-4.27-1-6.38-1.57-17-4.35-33.65-9.47-50.25-14.77-33.23-10.55-66-22.42-99.25-32.23-4.16-1.23-8.33-2.35-12.5-3.53l-12.58-3.19c-8.55-2.08-16.94-4.57-25.29-7s-16.65-4.91-25-6.91A135.86,135.86,0,0,0,347,247a69.44,69.44,0,0,0-24.79,3.2,59.3,59.3,0,0,0-11.36,5.19c-.91.52-1.81,1-2.67,1.65s-1.75,1.14-2.61,1.76q-2.57,1.84-5,3.89a108.49,108.49,0,0,0-17.36,18.62,134.41,134.41,0,0,0-13.13,22c-7.42,15.48-12.29,32.15-15.66,49.08s-6.09,34.17-8,51.41a452.35,452.35,0,0,0-3,51.89,363.68,363.68,0,0,0,3.68,51.83,1.37,1.37,0,0,1-2.7.42Z"/><path class="cls-11" d="M231.68,257.74a141.59,141.59,0,0,1,81.27,28.11l4.32,3.36c1.42,1.15,2.76,2.39,4.14,3.58l2.06,1.81,2,1.92c1.3,1.29,2.62,2.55,3.89,3.86,2.42,2.74,5,5.37,7.17,8.3s4.49,5.76,6.53,8.77c8.3,11.93,15.44,24.52,22.71,36.91s14.69,24.63,23.5,35.74a119.14,119.14,0,0,0,14.38,15.46,107.16,107.16,0,0,0,16.81,12.62,83,83,0,0,0,19,8.61,63,63,0,0,0,20.35,2.85c13.74-.3,26.94-6,37.85-14.58a94.94,94.94,0,0,0,14.9-14.62,138.17,138.17,0,0,0,12-17.34c3.63-6.08,6.88-12.41,10.06-18.81q2.37-4.81,4.67-9.68l1.16-2.45c.4-.83.74-1.61,1.22-2.52a25.5,25.5,0,0,1,3.43-5,23.21,23.21,0,0,1,10.14-6.75,20.67,20.67,0,0,1,12.29-.15c.5.14,1,.32,1.47.49l1.26.47,2.55,1c1.71.66,3.44,1.37,5.15,2.18a31.78,31.78,0,0,1,9.69,6.6,15.07,15.07,0,0,1,1,1.15,12.72,12.72,0,0,1,.94,1.23l.45.63c.15.22.31.53.46.79a8.19,8.19,0,0,1,.75,1.82,6.75,6.75,0,0,1-.32,4.42,7.66,7.66,0,0,1-2.62,3.09,10.81,10.81,0,0,1-3.14,1.55,12.82,12.82,0,0,1-5.07.58l-1.54-.23c-.51-.1-1-.24-1.54-.36s-1-.33-1.51-.5a15.68,15.68,0,0,1-5.39-3.43,19.43,19.43,0,0,1-3.66-5,35.38,35.38,0,0,1-3.33-11.09,83.28,83.28,0,0,1-.8-11.08c0-1.83,0-3.65,0-5.45s0-3.52-.1-5.29a180.48,180.48,0,0,0-2.26-21.18,269.4,269.4,0,0,0-10.18-41.55,196.67,196.67,0,0,0-17.41-39,103.69,103.69,0,0,0-12.58-17.08,60.54,60.54,0,0,0-16.54-12.86h0a1.37,1.37,0,0,1,1.23-2.45A63.41,63.41,0,0,1,522,200.41a106.89,106.89,0,0,1,13.27,17.4c7.7,12.38,13.49,25.8,18.24,39.48a273.58,273.58,0,0,1,10.82,42.09,184.92,184.92,0,0,1,2.56,21.69c.12,1.82.13,3.68.17,5.5s0,3.58.07,5.35a78.51,78.51,0,0,0,.86,10.42,30.52,30.52,0,0,0,2.92,9.47,12,12,0,0,0,6.4,5.93c.35.11.69.24,1.05.33s.72.17,1.09.24l1.13.15a7.46,7.46,0,0,0,.94,0,7.21,7.21,0,0,0,2-.39,5.62,5.62,0,0,0,1.67-.83,2.43,2.43,0,0,0,.86-.95,1.37,1.37,0,0,0,0-.85,10.89,10.89,0,0,0-2.33-3.26,26.46,26.46,0,0,0-8.12-5.36c-1.55-.71-3.16-1.36-4.81-2l-2.5-.93-1.27-.46c-.37-.12-.72-.25-1.1-.35a15,15,0,0,0-9,.18,17.49,17.49,0,0,0-7.56,5.15,19.68,19.68,0,0,0-2.62,3.89c-.36.69-.73,1.55-1.11,2.35l-1.13,2.43q-2.27,4.9-4.63,9.8c-3.14,6.53-6.52,13-10.25,19.27a144.13,144.13,0,0,1-12.56,18.08,100.93,100.93,0,0,1-15.85,15.54A81.66,81.66,0,0,1,492,426.1,70.85,70.85,0,0,1,481.94,431a61.66,61.66,0,0,1-10.82,3.22c-.93.16-1.84.42-2.78.5l-2.81.34c-.94.1-1.87.26-2.82.3l-2.83.11a68.81,68.81,0,0,1-22.18-3.26,88.62,88.62,0,0,1-20.18-9.32A112.6,112.6,0,0,1,400,409.56a124.43,124.43,0,0,1-14.87-16.21c-9-11.54-16.45-24-23.61-36.52S347.39,331.77,339.36,320c-2-3-4.08-5.85-6.27-8.61s-4.53-5.42-6.84-8.1c-1.22-1.28-2.49-2.52-3.73-3.78l-1.88-1.88-2-1.77c-1.33-1.17-2.62-2.39-4-3.52L310.53,289a138.43,138.43,0,0,0-78.92-28.55h0a1.37,1.37,0,0,1,.07-2.73Z"/><ellipse class="cls-2" cx="485.39" cy="254.86" rx="11.25" ry="13.5" transform="translate(-62.4 276.84) rotate(-30)"/><path class="cls-2" d="M506.18,170.84l3.28-1.39a3.12,3.12,0,0,1,4.2,2l2.2,7.12a3.12,3.12,0,0,0,4.23,1.94h0a3.12,3.12,0,0,0,1.74-3.77l-2.61-8.58a3.12,3.12,0,0,1,1.84-3.81l.84-.33a3.12,3.12,0,0,0,.93-5.24l-14.07-12.5a3.12,3.12,0,0,0-5.19,2.06l-1.73,19.4A3.12,3.12,0,0,0,506.18,170.84Z"/><path class="cls-11" d="M504,146.21l-.76,12.52-.38,6.26a16.74,16.74,0,0,0-.08,2.69,2.23,2.23,0,0,0,1,1.4,2.11,2.11,0,0,0,1.68.24,1,1,0,0,0,.21-.07l.3-.11a7.17,7.17,0,0,1,1-.33,7.63,7.63,0,0,1,2-.29,7.83,7.83,0,0,1,6.79,3.82c.16.3.33.6.46.91s.27.67.33.88l.5,1.49,1,3,2,6c5.17,15.95,9.92,32.06,13.58,48.5.91,4.11,1.77,8.23,2.49,12.39.39,2.08.71,4.15,1,6.25l.43,3.22.27,3.24a69.6,69.6,0,0,1-3.15,25.76,58.76,58.76,0,0,1-13.25,22.53,51.23,51.23,0,0,1-22.4,13.8,56.12,56.12,0,0,1-13,2.3,64.87,64.87,0,0,1-13.1-.68,126.84,126.84,0,0,1-24.76-6.6c-8-2.87-15.68-6.09-23.46-9a141.78,141.78,0,0,0-23.59-7A66.9,66.9,0,0,0,377,299a63.47,63.47,0,0,0-11.67,3.28c-1.92.66-3.75,1.56-5.62,2.37s-3.65,1.8-5.38,2.88a76.75,76.75,0,0,0-32,36.1,1.37,1.37,0,0,1-2.55-1,78.72,78.72,0,0,1,32.48-38.49C354.1,303,356,302,357.92,301s3.87-1.88,5.89-2.62a67.8,67.8,0,0,1,12.37-3.73,71.63,71.63,0,0,1,25.78-.22,141.81,141.81,0,0,1,24.6,6.76c7.94,2.83,15.7,5.93,23.52,8.62a129.53,129.53,0,0,0,23.7,6.06,54.67,54.67,0,0,0,23.53-1.43,46.51,46.51,0,0,0,19.93-12.06,53.06,53.06,0,0,0,12.19-20.2,64.21,64.21,0,0,0,3.18-23.71l-.21-3-.36-3c-.3-2-.6-4.09-1-6.13-.67-4.09-1.46-8.16-2.27-12.24-3.31-16.28-7.73-32.37-12.59-48.32l-1.84-6-.92-3-.46-1.5c-.08-.29-.14-.41-.2-.59s-.16-.33-.23-.49A4.23,4.23,0,0,0,509,172a4.1,4.1,0,0,0-1.1.13,3.73,3.73,0,0,0-.53.17l-.44.16a3.86,3.86,0,0,1-.54.16,5.58,5.58,0,0,1-6.79-4.34,7.34,7.34,0,0,1,0-2l.13-1.56.54-6.25,1.08-12.5a1.37,1.37,0,0,1,2.73.2Z"/></svg>