<svg id="Layer_1" data-name="Layer 1" xmlns="http://www.w3.org/2000/svg" viewBox="0 0 960 560"><defs><style>.cls-1{fill:#e39699;}.cls-2{fill:#cc4858;}.cls-3{fill:#6b8a88;}.cls-4{fill:#eb9575;}.cls-5{fill:#ba384e;}.cls-6{fill:#6b493d;}.cls-7{fill:#5b7774;}.cls-8{fill:#e08d6e;}.cls-9{fill:#7d5648;}.cls-10{fill:#e08360;}.cls-11{fill:#a33438;}.cls-12{fill:#e35f66;}.cls-13{fill:#233940;}</style></defs><title>couple, people, person, cuddle, relax</title><path class="cls-1" d="M743.21,279.2c-1.42,26-10.28,52.29-28.37,71.05-19.28,19.93-46.66,29.52-69.54,45.18C617,414.85,596,443.28,569.66,465.31A211.71,211.71,0,0,1,432.93,514c-49.38-.54-124.62-34.6-161.27-72.47,0,0-101.18-99.87,13.25-149.75S395.23,218,395.23,218l.34-.25A74,74,0,0,1,405.94,175c6.57-10.89,15.37-18.88,23.89-22.88,18.79-8.82,40.81-8.7,61.1-8.38,22.57.36,44.83,4.62,67.34,5.9,12.78.72,25.6.32,38.07-2.81,23.85-6,46.14-21.6,70.6-19,17.39,1.82,32.78,13,43.2,27s16.49,30.78,21.51,47.52C739.12,227.23,744.61,253.17,743.21,279.2Z"/><path class="cls-2" d="M743.21,279.19c-1.41,26-10.29,52.31-28.38,71.06-19.26,19.95-46.65,29.51-69.52,45.18-28.36,19.43-49.26,47.86-75.66,69.89A211.8,211.8,0,0,1,432.94,514c-49.39-.55-124.62-34.6-161.28-72.47L404,249.91c-13.89-29.81-9.18-56.53,1.93-74.94,6.57-10.89,15.38-18.88,23.9-22.89,13.91-6.54,35.17-8.56,55.36-8.47h2.38l1.4,0,1.37,0,3.18.09,3.14.12,3.55.17,1.07.06,1.7.1,1.31.08,2.79.19,1.6.12c4.35.34,8.43.74,12.13,1.18l.51.06c13.25,1.58,27,2,40.31,2.48,11.81.46,23.24,1.34,34.71-1.54,23.85-6,46.16-21.59,70.62-19,17.38,1.82,32.77,13,43.2,27s16.49,30.77,21.5,47.52C739.12,227.24,744.62,253.17,743.21,279.19Z"/><path class="cls-3" d="M475.17,330.29c-.25-.61-.51-1.21-.79-1.8-5.43-11.44-17.21-18.61-27.49-26.27-31-23.09-28.48-23.42-37.1-61.11-2.14-9.31-12.63-15.33-14.56-23.15a87.66,87.66,0,0,1-8.86-1.64q-2.06-.49-4.09-1.08c-8.3-2.42-17.32,5.92-25,3.48-1.18-6.26-3.32-10.93-7.14-9-15.17,7.74-25.38,23.43-28.83,40.11s-.69,34.19,5.28,50.15a130.8,130.8,0,0,0,70.11,73.45c17.59,7.53,38.14,11,55.71,3.39S482.28,348.05,475.17,330.29ZM358.63,234.87c0-1,0-2-.08-3.06C358.61,232.64,358.64,233.62,358.63,234.87Z"/><path class="cls-4" d="M400.43,163.67A9.8,9.8,0,0,1,400,166c-1,3.29-3.84,5.65-5.63,8.58-4.49,7.32-2.24,16.64-4.71,24.57-2.38,7.63-7.08,14.68-14.17,18.6-6.2,3.43-17.73,3.26-24.75,3.57-16.55.73-38.11,4.47-56,7.12-25.46,3.76-43.64,5.3-29.93-7.12,10.9-9.88,11.51-27.06,11.64-39s-.22-23.31.3-35.19,4.35-24.47,13.87-31.6,25.54-5.85,31,4.72c1.6,3.1,2.42,7,5.4,8.78,4.34,2.65,10.27-1.4,11.43-6.35s-.84-10-2.81-14.72c0,0-.4-13.28,8.12-8.29s31.21,4.44,40.2.16c-.51.25-.13,6.61-.12,7.21A57.54,57.54,0,0,0,386,122.18c2.07,7.1,5.45,13.7,8.15,20.56C396.63,148.91,400.8,156.93,400.43,163.67Z"/><path class="cls-5" d="M527.32,166.4l1,3.54q-.22-1.88-.44-3.74L548,197.89c4.06,6.4,8.2,13,9.6,20.44,1.23,6.53.25,13.28-1.34,19.73a104.09,104.09,0,0,1-18.33,38.14c-2.93,3.83-6.35,7.61-10.9,9.22s-10.79.09-12.9-4.59c-2.53-5.61,1-15.56,1.64-21.52,1.46-13.38.52-27.09-4.72-39.61a69.92,69.92,0,0,0-10.9-17.89c-4.1-4.88-9.77-8.78-11.34-15.37-.76-3.2-.42-9.83-4.8-10.51-6.52-1-12,4.5-17.79,7.62a26.69,26.69,0,0,1-25.44-.36c-6.7-3.84-12.88-10.93-20.46-9.42-2.36.47-4.46,1.77-6.72,2.57s-5,1-6.89-.45a3.28,3.28,0,0,1-.8-.93c6.57-10.89,15.38-18.88,23.9-22.89,20.32-9.55,43.8-10.53,65.85-9.33,5.19.28,65.34,5.22,65.63,7.08a13.73,13.73,0,0,1-3,11.27,12.61,12.61,0,0,1-11.08,4.33c-5.46-.84-9.63-7-15.47-3.84A10.17,10.17,0,0,0,527.32,166.4Z"/><path class="cls-6" d="M410.63,72.5c-1.94,8.42-10.07,18.06-17.17,23a51.67,51.67,0,0,1-42,7.41,32.4,32.4,0,0,0-7.24-1.5c-2.47-.07-5.13.74-6.58,2.75s-1.34,4.85-.62,7.35c.1.37.22.72.34,1.08,1,2.76,2.45,5.43,2.57,8.35.26,6-6.55,11.22-12.3,9.36s-8.28-8.41-12.82-12.34c-6.32-5.47-16.37-5.1-23.36-.52s-11.2,12.56-13,20.73-1.43,16.63-1.08,25L275.29,157c-3.64-10.51-5.48-21.92-9.38-32.34-3.53-9.43-8.36-18.2-8.52-28.4-.15-9.47,2.54-19.26,8.89-26.28,9-10,23.68-12.71,37.15-12.49s27,2.76,40.35.86c11.31-1.62,21.94-6.36,33.1-8.83,8-1.76,16.92-2.15,23.64,2.46a17,17,0,0,1,2.33,1.92l.15.15c.39.39.77.81,1.13,1.24C408.53,60.6,412.19,65.7,410.63,72.5Z"/><path class="cls-7" d="M474.38,328.49l-6.17,2.11c-20.8.39-40.83-10.3-54.81-25.72q-2.12-2.34-4.08-4.81c-11.57-14.61-22.3-18.67-25.3-17-4.28,2.38-27.92-49.57-23.07-50.23,7.33-1,16.62-18.88,23.33-17,2.92.7,8,1.73,10.94,2.12,1.93,7.82,12.42,13.84,14.56,23.15,8.62,37.69,6.08,38,37.1,61.11C457.17,309.87,468.95,317,474.38,328.49Z"/><path class="cls-4" d="M487.34,317.89c-11.66,6.35-24.7,5.57-36.2.37a54.14,54.14,0,0,1-9.61-5.62,68,68,0,0,1-17.24-18.52,63.29,63.29,0,0,1-5.49-10.73c-1.22-3.1-1.78-9.75-5.06-8.44-2,.8-8.87-21.77-11.33-26.74s-3.3-8-4.92-16.21a70.62,70.62,0,0,1-1.41-13.74c23.26,2.7,34.27,7,50.88-9.6,6.55-6.52,20.2-2.38,29.83-.33,3.72.79,6.37,7.77,6.43,11.58.07,4.59-1,5.55-2.43,12.92-3.24,16.34-1.35,13.44,4.17,29.17,2.95,8.4,14.77,13.19,17.52,21.65C506.67,296.53,499.24,311.42,487.34,317.89Z"/><path class="cls-8" d="M388.67,201.84c-2.43,6.35-6.53,12.2-13.14,15.86-6.2,3.43-17.73,3.26-24.75,3.57-16.55.73-38.11,4.47-56,7.12a24.48,24.48,0,0,1-6.18-7c-3.47-6-3.81-13.36-3.58-20.32.31-9.23,1.62-18.87,7-26.38a8.59,8.59,0,0,1,3.46-3.14c3.53-1.47,5.87,2.16,6.77,5,.63,2,.32,3.74,0,5.81l.21-2c-2.33,5.64-.15,13.76,5.78,16.11,4.26,1.69,9.19,1.06,13.64.72,5-.39,10-1,15-1.71,10-1.39,19.92-3.11,30-3.91,6.69-.54,14.31-.32,18.87,4.59A13.15,13.15,0,0,1,388.67,201.84Z"/><path class="cls-8" d="M494.47,312.43c-6.64,6.22-15.81,9.55-24.95,9.86,3.37-6,4.52-12.86,5.6-19.62q1.66-10.37,3.3-20.75c1.2-7.57,2.4-15.22,1.82-22.86-.47-6.11-2.07-12.21-1.28-18.28,1-7.39,5.42-14.44,4.15-21.79a12.69,12.69,0,0,0-6.27-9c-7.22-3.83-16.72,2.64-13.36,10.92-5.9-.56-11.72,1.64-17,4.41s-10.16,6.19-15.65,8.4a39.88,39.88,0,0,1-25.23,1.44c-3.17-.87-6.42-2.29-8.21-5.05-2.23-3.43-1.6-7.9-.9-11.93-.3,1.73,25.09-.7,27.27-1.21,7.34-1.72,13.63-5.9,20.54-8.69a45.51,45.51,0,0,1,24.27-2.74c9.41,1.54,14.82,7.52,13.89,17.26-.43,4.52-1.82,8.91-2.14,13.44-.74,10.62,4.49,20.8,11,29.23,4.06,5.28,8.76,10.28,11.1,16.51,3.56,9.48.81,20.73-5.9,28.32Q495.55,311.41,494.47,312.43Z"/><path class="cls-8" d="M409.26,268a19.11,19.11,0,0,1,5.56-2.08,6.46,6.46,0,0,1,5.54,1.52,4,4,0,0,1,.28,5.37,4.84,4.84,0,0,1-2.54,1.19c-5.39,1.06-12.79-1.54-8.85-6Z"/><path class="cls-4" d="M582.79,385.16c-3.07,6.59-15.76,37.24-45.9,63.92C516.64,467,488.51,483.14,450.11,489a205.12,205.12,0,0,1-22.3,2.12c-46.15,1.89-84.81-7.3-115.73-22.65a193.09,193.09,0,0,1-19.94-11.39,173.07,173.07,0,0,1-48.89-47.47q-1.39-2.05-2.69-4.11a135.22,135.22,0,0,1-13.3-27.23c-19.55-55.73-8-118.5,15.11-138,0,0,23.22,14.56,53.47,12.25,0,0-28.46,96.49,36.11,130.63,46,24.34,93.63-1.53,119.18-29.47,7-7.63,12.33-15.42,15.53-22.37a39.09,39.09,0,0,0,3.08-9.2c5.32-29,29.29-50.48,57.72-49.71A57.72,57.72,0,0,1,543,274.93c5.62,1.74,10.75,6.41,15.33,12.91l.8,1.15a102.52,102.52,0,0,1,9,17.17C580.8,336.11,586.42,377.38,582.79,385.16Z"/><path class="cls-8" d="M582.79,385.16c-3.07,6.59-15.76,37.24-45.9,63.92C516.64,467,488.51,483.14,450.11,489a205.12,205.12,0,0,1-22.3,2.12c-46.15,1.89-84.81-7.3-115.73-22.65a193.09,193.09,0,0,1-19.94-11.39,173.07,173.07,0,0,1-48.89-47.47,42.62,42.62,0,0,1,7.52-4.15c10-4.27,31,3.45,41.9,3.09,18.31-.61,28.88-14,50.89.65l60.9-7.63c30.22-13.75,58.69-31.26,87-48.68,16.06-9.88,32.48-20.08,44.11-34.93,7.71-9.83,13.75-22,22.78-30.08l.8,1.15a102.52,102.52,0,0,1,9,17.17C580.8,336.11,586.42,377.38,582.79,385.16Z"/><path class="cls-5" d="M255.19,424.19c-4.51-8.18,11.71-2.55,14.83-1.94,11.27,2.19,22.82,3.71,34.23,2.43,10.4-1.16,20.9-4.63,31.12-2.38,8.07,1.77,15,6.92,21.16,12.38,13.95,12.28,24.54,26.44,42,34.1,16.42,7.22,34.69,9.76,52.53,9a192.36,192.36,0,0,0,36.78-5.53c11.31-2.74,31.3-10.3,41.62-16.92-8.3,7.58-19.44,26.93-48.31,33.56-7.39,1.7-12.44,8.68-18.75,12.9-2.66,1.78-6.35,5.22-9.6,5.84-4.61.87-35.56-5-40.22-4.54-9.32,1-18.61-9.89-28-10.35a185.22,185.22,0,0,1-54.95-11.21c-21.71-8-38.45-20.05-54.43-36.95Z"/><path class="cls-8" d="M350,188.12a27.64,27.64,0,0,0,31.75,2.45c4.09-2.51.34-9-3.77-6.46-6.89,4.22-16.35,3.92-22.69-1.29a3.85,3.85,0,0,0-5.29,0c-1.32,1.32-1.57,4,0,5.29Z"/><path class="cls-8" d="M341.37,123.61a19.26,19.26,0,0,0,24.51,5.73c4.24-2.27.47-8.73-3.77-6.46-4.59,2.46-11.14,1.23-14.28-3a3.85,3.85,0,0,0-5.12-1.34c-1.6.94-2.54,3.48-1.34,5.12Z"/><path class="cls-8" d="M436.24,248.39c2-5.17,7.73-7.88,13-7.31l-2.64-6.38-.75.62c-1.56,1.29-1.33,4,0,5.29a3.82,3.82,0,0,0,5.29,0l.75-.62c2.78-2.3.21-6.07-2.64-6.38-8.85-1-17.06,4.72-20.25,12.8-.74,1.88.81,4.11,2.61,4.6a3.83,3.83,0,0,0,4.6-2.61Z"/><path class="cls-8" d="M433.39,295.48c2.71,8,11.86,6.55,17.43,2.64a26.35,26.35,0,0,0,10.65-15.71c1.06-4.69-6.15-6.69-7.21-2a19,19,0,0,1-5.55,9.85,16.23,16.23,0,0,1-4.69,3.16c-.56.23-3,1.17-3.42.05-1.54-4.53-8.77-2.59-7.21,2Z"/><path class="cls-8" d="M316.76,138.69c-.15-7.9-8.42-14.33-15.72-9.57a8.64,8.64,0,0,0-3.78,9.68c1.13,3.69,4.74,6.66,8.71,6.28a3.84,3.84,0,0,0,3.74-3.74c0-1.87-1.72-3.94-3.74-3.74-1.77.17-2.09-1.74-.47-2.43,2.23-.95,3.74,1.61,3.77,3.53.09,4.81,7.57,4.82,7.48,0Z"/><path class="cls-8" d="M568.16,306.17a79.52,79.52,0,0,1-35.07,45.59c-20,12-45.09,14.91-67.55,8.56-5.13-1.45-10.24-3.43-14.4-6.71,7-7.63,12.33-15.42,15.53-22.37a55.51,55.51,0,0,0,55.74-39.29c1.85-6.06,2.65-12.41,4.64-18.43.13-.4.27-.8.42-1.19A57.72,57.72,0,0,1,543,274.93c5.62,1.74,10.75,6.41,15.33,12.91A99.21,99.21,0,0,1,568.16,306.17Z"/><path class="cls-4" d="M601.55,249.46c-.08-.56-.17-1.13-.26-1.69l-1.19-.2c-11.5-1.94-22.94-3.81-34.65-3.92a151.56,151.56,0,0,0-19.55,1.08c-3.86.47-12.27,5.14-15,.47a11.24,11.24,0,0,1-1.06-4.71,48.13,48.13,0,0,0-3.16-13.22C522,215.15,513.14,205.18,505.76,194c-1.35-2-3.11-4.28-3.46-6.77-.63-4.52,4-4.66,7.07-3.36a75.41,75.41,0,0,1,26.32,19.47c.32-.21.57-.82.74-1.85a6.27,6.27,0,0,0-.94-1.69c-.54-.79-1.2-1.53-1.79-2.28q-1.26-1.61-2.51-3.23-3-3.89-5.88-7.87c-3.84-5.28-7.57-10.66-11.12-16.15-2.43-3.76-5.1-9.52-1-13.19a7.54,7.54,0,0,1,.62-.49c5.38-3.83,15.84,0,21.67,2.91,8.27,4.12,15.48,11,22.61,16.85a123.39,123.39,0,0,1,27,31.11c7.24,11.93,14.74,25.36,17.24,39.22a.58.58,0,0,1,.18,1c.07.47.15.93.22,1.4C602.87,249.91,601.67,250.25,601.55,249.46Z"/><path class="cls-9" d="M408.47,75.08c-1.94,8.42-7.91,15.48-15,20.4a51.67,51.67,0,0,1-42,7.41,32.4,32.4,0,0,0-7.24-1.5c-2.47-.07-5.13.74-6.58,2.75s-1.34,4.85-.62,7.35c-.11,3.17,1.38,6.64.12,9.61-1.53,3.61-6.72,4.47-10.08,2.46s-5.1-6-5.82-9.81a28.24,28.24,0,0,1,26.79-33.4c12.4-.43,24.37,7.28,36.62,5.26A23.62,23.62,0,0,0,403.4,55.24l.74.09C408.53,60.6,410,68.28,408.47,75.08Z"/><path class="cls-3" d="M527.7,425a133.41,133.41,0,0,1-19.15,7.24A255.06,255.06,0,0,1,474,439.57c-37.26,5.67-76.65,2.44-110.2-15.8-30.37-16.51-54.35-43.93-67.85-75.55v0A149.22,149.22,0,0,1,284,297.87a84,84,0,0,1,.76-15.94c1.53-11.22,4.91-22.51,8.62-32.8a122.12,122.12,0,0,1,11-22.85c3.49-5.64,9.09-16.23,15-19.5a83.55,83.55,0,0,1,39.77,1.49c1.42.4,1.1,11.54,1.37,13.08q2,11.54,4.89,22.91,1.73,6.78,3.81,13.45c13.38,42.89,46,88.91,96.1,87.42,20.7-.62,40.24-11.35,52.91-27.56,15.25-19.52,18.1-45.08,13.95-68.92-.05-.31-.11-.61-.17-.92,0,0,47-10.27,70.65,1.42C602.76,249.13,646.41,368.54,527.7,425Z"/><path class="cls-7" d="M384,283.06c-.09.79-1.33.79-1.25,0,0,0,0,0,0-.06a.54.54,0,0,1-.39-.3c-2.8-5.36-5.63-10.83-9.68-15.38A35.65,35.65,0,0,0,359.62,258a35.29,35.29,0,0,0-20.42-1.86c-1.55.54-3.1,1.12-4.62,1.75-18.94,7.87-33.66,24.87-39.54,44.53a77.14,77.14,0,0,0,.91,45.73A149.22,149.22,0,0,1,284,297.87c-.88-16.14,3.9-33.54,9.38-48.74a122.13,122.13,0,0,1,11-22.85c3.49-5.64,9.09-16.23,15-19.5,0,0,16.39-1.29,38.26,4.84,1.42.4,2.61,8.19,2.88,9.72q1.53,8.92,3.61,17.73C377.94,248.91,385.92,266.15,384,283.06Z"/><path class="cls-4" d="M379.66,214.44c-26.58,35.05-40.57,22.4-49.79,22.23a7.06,7.06,0,0,0-3.46.75c-1.73.89-3.27,2.71-4.7,6-9,20.5-31.37,17.94-31.37,17.94-39.28-1.73-48-21.17-48-21.17,10.07-14.51,23.13-19.55,23.13-19.55C321.92,185.92,379.66,214.44,379.66,214.44Z"/><path class="cls-8" d="M305.22,236.36a39.47,39.47,0,0,0,22.61-20c1.73-3.6-3.64-6.76-5.38-3.15a33.26,33.26,0,0,1-18.88,17.14c-3.76,1.32-2.14,7.34,1.66,6Z"/><path class="cls-8" d="M600.1,247.58c-11.5-1.94-22.94-3.81-34.65-3.92a151.56,151.56,0,0,0-19.55,1.08c-3.86.47-12.27,5.14-15,.47a11.24,11.24,0,0,1-1.06-4.71,48.13,48.13,0,0,0-3.16-13.22c4.47,4.86,11.15,7.69,17.78,8.78,8.28,1.36,16.74.47,25.13.42s17.15.83,24.26,5.28A23,23,0,0,1,600.1,247.58Z"/><path class="cls-8" d="M366.76,225.57a47.43,47.43,0,0,0-12-4.18,33.65,33.65,0,0,0-11.72-.75c-6.83,1.12-10.16,9.08-12.34,14.74a4.3,4.3,0,0,1-.79,1.29,7.06,7.06,0,0,0-3.46.75,3.1,3.1,0,0,1-1.77-3.68c3-7.6,7.31-17,16.15-19,4.81-1.06,10.07-.42,14.84.48a55,55,0,0,1,14.26,5C373.48,222,370.32,227.36,366.76,225.57Z"/><path class="cls-8" d="M533.9,163.91a137.7,137.7,0,0,1,19.19,39.77c1.14,3.84,7.15,2.2,6-1.66a143,143,0,0,0-19.82-41.26c-2.28-3.26-7.68-.15-5.38,3.15Z"/><path class="cls-8" d="M564.81,190.44l5.37,18.14c1.13,3.84,7.15,2.2,6-1.66l-5.37-18.14c-1.13-3.84-7.15-2.2-6,1.66Z"/><path class="cls-8" d="M546.17,209.47a73.35,73.35,0,0,0-11.34-25.39,90,90,0,0,0-9.13-10.77c-2.8-2.89-6.57-6.78-5.65-11.22,1-4.7-6.23-6.7-7.21-2-2.33,11.24,8,17.87,14,25.65A67,67,0,0,1,539,211.46C540.05,216.14,547.27,214.16,546.17,209.47Z"/><path class="cls-4" d="M440,168a36.85,36.85,0,0,0,21.88,5.39c10.21-.73,19.82-5.82,27.14-13,4.43-4.33,8.2-9.63,9.37-15.71s-.73-13-5.76-16.62c-4-2.87-9.23-3.3-14.15-3.16a76.93,76.93,0,0,0-38.75,11.91c-9.11,5.79-16.82,14.27-22.7,23.58a4.14,4.14,0,0,0,4.79,6.13,25,25,0,0,0,6.08-2.81,4.13,4.13,0,0,1,5.1.52c2.62,2.51,5.64,3.73,9.68,4.88Z"/><path class="cls-7" d="M507.8,431.54c-4.62,4.87-28.63,7.25-33.77,8-37.26,5.67-76.65,2.44-110.2-15.8-30.37-16.51-54.35-43.93-67.85-75.55v0c-5.07-11.87-9.16-24.76-10.65-37.63-1.21-10.42-4.51-21.1,1.92-30.61a25,25,0,0,1,22-10.75c.22,0-3.52,22.14-3.84,24.47C300.58,327.92,328,361.79,353,382.42c32.19,26.58,75.86,45.9,118.13,43,6.31-.43,36.94-7.6,37.43,4.36A2.39,2.39,0,0,1,507.8,431.54Z"/><path class="cls-8" d="M445.18,147.68a65.56,65.56,0,0,1,25,21.31c2.28,3.27,7.68.16,5.38-3.15a71.85,71.85,0,0,0-27.23-23.54c-3.59-1.76-6.75,3.61-3.15,5.38Z"/><path class="cls-8" d="M463.26,136.5a39.46,39.46,0,0,1,22.11,22.78c1.37,3.73,7.39,2.12,6-1.66a46.26,46.26,0,0,0-26.47-27.13c-1.58-.63-3.41.69-3.83,2.18a3.19,3.19,0,0,0,2.18,3.83Z"/><path class="cls-10" d="M352.67,408.52c.23.8.48,1.59.75,2.37-.39-.22-.76-.44-1.14-.69Z"/><path class="cls-10" d="M301.74,186.67a27.77,27.77,0,0,1,.45-4.27Z"/><path class="cls-8" d="M399,165.31c-2,2.77-4.66,5.39-5.88,5.93a13.42,13.42,0,0,1-8.1.81c-2.12-.44-8.11-4.85-2.84-5.07,2.53-.11,6.1.89,8.4-.47s2.62-5.09,4.47-7a4.81,4.81,0,0,1,3.85-1.56C402.61,158.44,401.35,162,399,165.31Z"/><path class="cls-8" d="M425.89,157.27a6.79,6.79,0,0,1-5.83,2.31,3.74,3.74,0,0,0,0,7.48,14,14,0,0,0,11.12-4.5C434.42,159,429.15,153.71,425.89,157.27Z"/><path class="cls-11" d="M401.17,55.15a18,18,0,0,1,2.23.09c-.14-.46-.29-.91-.47-1.35Z"/><path class="cls-12" d="M521.2,312.43l-2.13,1.18.59-.65Z"/><path class="cls-13" d="M550.38,280.61A37.58,37.58,0,0,0,529,273.28a51.3,51.3,0,0,0-11.47,1,56.7,56.7,0,0,0-11.06,3.35A59.68,59.68,0,0,0,487.25,290a36.8,36.8,0,0,0-6.79,8.92,24.2,24.2,0,0,0-1.15,2.48l-.47,1.28-.46,1.42-1.85,5.66.12-.75h0a2.25,2.25,0,0,1-.12.74v0l-3.26,9.55c-1.05,3.19-2.23,6.38-3.57,9.51A103.93,103.93,0,0,1,460,347c-1,1.42-2,2.83-3,4.19s-2.16,2.65-3.24,4c-2.12,2.69-4.55,5.11-6.87,7.62-1.22,1.2-2.48,2.36-3.72,3.54-.63.58-1.24,1.18-1.87,1.76l-2,1.65c-1.32,1.09-2.6,2.23-4,3.27l-4.14,3.06c-1.35,1.06-2.85,1.91-4.27,2.87s-2.86,1.9-4.38,2.7l-4.5,2.52c-1.53.78-3.1,1.5-4.65,2.24-.78.36-1.55.75-2.34,1.09l-2.4.95c-1.61.61-3.19,1.31-4.83,1.84l-4.93,1.56c-.41.13-.82.27-1.24.38l-1.26.3-2.52.6A101.43,101.43,0,0,1,383.73,395l-5.17.42c-.86.05-1.72.18-2.59.17h-5.19a22.81,22.81,0,0,1-2.59-.07l-5.17-.4a21.64,21.64,0,0,1-2.57-.32l-2.56-.41a49.15,49.15,0,0,1-5.09-1,84.27,84.27,0,0,1-19.5-6.91,92.36,92.36,0,0,1-9-5.07L320,378.49c-1.41-1-2.71-2.13-4.06-3.2a92.68,92.68,0,0,1-14.29-14.84,94.9,94.9,0,0,1-10.49-17.69A91.43,91.43,0,0,1,285,323.21c-.69-3.33-1.17-6.69-1.6-10.06s-.68-6.76-.78-10.15a139.67,139.67,0,0,1,4.55-40.21,1.37,1.37,0,0,1,2.67.64,140.25,140.25,0,0,0-3.47,39.38c.16,3.29.53,6.57.94,9.84s1,6.51,1.74,9.72a87.05,87.05,0,0,0,6.21,18.52,85,85,0,0,0,58.76,46.82,44.66,44.66,0,0,0,4.77.84l2.4.35a19.16,19.16,0,0,0,2.41.27l4.84.33a20.29,20.29,0,0,0,2.42.06l2.42,0,2.42,0c.81,0,1.61-.12,2.42-.17l4.83-.42,4.79-.78a45.36,45.36,0,0,0,4.75-1l2.37-.55,1.18-.28c.39-.11.77-.24,1.16-.35l4.65-1.44c1.55-.49,3-1.15,4.56-1.71l2.27-.88c.75-.32,1.47-.68,2.21-1,1.47-.7,3-1.35,4.41-2.07l4.29-2.33c1.45-.74,2.8-1.66,4.18-2.52s2.8-1.68,4.09-2.67l4-2.86c1.31-1,2.54-2,3.81-3.07l1.9-1.55c.61-.54,1.2-1.1,1.8-1.66,1.19-1.11,2.41-2.2,3.59-3.34,2.24-2.38,4.59-4.65,6.64-7.2,1-1.26,2.16-2.46,3.13-3.76s2-2.59,2.89-3.92a98.72,98.72,0,0,0,9.4-17.12c1.31-3,2.51-6.08,3.61-9.22l3.39-9.38-.13.77h0v0a2.28,2.28,0,0,1,.12-.71l2-5.65.49-1.41.59-1.51a28.73,28.73,0,0,1,1.41-2.91,41.17,41.17,0,0,1,7.77-9.88,63.32,63.32,0,0,1,20.83-13,60.42,60.42,0,0,1,11.84-3.27,54.75,54.75,0,0,1,12.29-.74,40.62,40.62,0,0,1,22.88,8.49,1.37,1.37,0,0,1-1.67,2.17Z"/><path class="cls-13" d="M504.1,191.14a125,125,0,0,1,27.59,46.51,102.71,102.71,0,0,1,4.66,27,91.13,91.13,0,0,1-.55,13.76l-.08.86-.14.85-.29,1.71-.58,3.42-.84,3.36c-.31,1.11-.51,2.26-.9,3.35a83.42,83.42,0,0,1-12.4,24.65l-1,1.41c-.34.47-.73.9-1.09,1.35L516.25,322c-.71.91-1.55,1.72-2.34,2.56l-2.41,2.51c-.83.8-1.71,1.56-2.57,2.34s-1.7,1.58-2.62,2.29l-2.76,2.13-1.38,1.06c-.46.35-1,.65-1.44,1A74.69,74.69,0,0,1,475.29,347a68,68,0,0,1-13.93,1.67,65,65,0,0,1-14-1.39,73.76,73.76,0,0,1-25.64-10.84A101.77,101.77,0,0,1,401,318.24a132.48,132.48,0,0,1-15.79-22.41,136,136,0,0,1-6.11-12.26l-.67-1.57c-.22-.52-.45-1.07-.66-1.51l-.64-1.41c-.23-.46-.49-.91-.74-1.36-.46-.93-1.09-1.76-1.64-2.65s-1.21-1.7-1.92-2.48c-5.41-6.44-13.05-11-21.2-13.64l-1.54-.47c-.5-.14-1-.21-1.43-.33a18.71,18.71,0,0,0-3-.26,29.08,29.08,0,0,0-6.18.69,47.1,47.1,0,0,0-6.13,1.86,59.56,59.56,0,0,0-5.9,2.68,68.54,68.54,0,0,0-20.28,16.25,52.54,52.54,0,0,0-7.14,10.86,38.54,38.54,0,0,0-3.65,12.35v0a1.37,1.37,0,0,1-2.73-.28,41.45,41.45,0,0,1,3.58-13.4,55.8,55.8,0,0,1,7.28-11.74,70.84,70.84,0,0,1,21.07-17.57,63.61,63.61,0,0,1,6.28-3,51.23,51.23,0,0,1,6.69-2.16,33.33,33.33,0,0,1,7.13-.92,23.06,23.06,0,0,1,3.71.26c.61.13,1.27.24,1.85.39l1.69.48a50.51,50.51,0,0,1,23.66,14.69c.82.87,1.5,1.86,2.25,2.79s1.39,2,2,3c.3.52.61,1,.89,1.57l.78,1.64c.27.56.49,1.05.72,1.55l.68,1.5q2.76,6,6.06,11.7a126.88,126.88,0,0,0,15.4,21.26,100.44,100.44,0,0,0,19.69,17,72.3,72.3,0,0,0,11.38,6.08,65.64,65.64,0,0,0,12.2,3.9,60.42,60.42,0,0,0,25.43-.07,69,69,0,0,0,23.59-10c.45-.3.92-.56,1.35-.89l1.29-1,2.59-1.95c.86-.65,1.64-1.41,2.46-2.11s1.64-1.41,2.43-2.15l2.27-2.32c.75-.78,1.55-1.52,2.22-2.37l2.1-2.48c.34-.42.72-.82,1-1.25l1-1.31a80,80,0,0,0,11.94-23,78.15,78.15,0,0,0,3.62-25.74,98.49,98.49,0,0,0-4-25.92A122,122,0,0,0,502.08,193h0a1.37,1.37,0,0,1,2-1.84Z"/><path class="cls-13" d="M380.81,169.57a23.72,23.72,0,0,0,6.53,1.15,13.67,13.67,0,0,0,6-1.35,8.56,8.56,0,0,0,4-3.94,7.4,7.4,0,0,0,.48-5.15l.1.33q-3.09-7.27-6.07-14.58c-2-4.86-3.78-9.83-5.53-14.79l-2.6-7.46L382.45,120a30.67,30.67,0,0,1-1.11-4.12,34.19,34.19,0,0,1-.61-8.36,23.12,23.12,0,0,1,1.93-8.22,1.37,1.37,0,0,1,2.57,1v0a21.75,21.75,0,0,0-.8,7.26,30.67,30.67,0,0,0,1.26,7.29,26.13,26.13,0,0,0,1.21,3.43l1.57,3.63,3.13,7.26c2.07,4.85,4.12,9.7,5.92,14.65s3.62,9.89,5.37,14.86l.05.15a1.76,1.76,0,0,1,.05.18,12.11,12.11,0,0,1-1.41,8.72,13.07,13.07,0,0,1-6.46,5.48,16.33,16.33,0,0,1-8,1.05,24.27,24.27,0,0,1-7.36-2.16,1.37,1.37,0,0,1,1-2.55Z"/><path class="cls-13" d="M344.75,121.17a19.86,19.86,0,0,0,4.92,2,19.39,19.39,0,0,0,5,.59,36.87,36.87,0,0,0,5,0,19.63,19.63,0,0,0,5.15-1.29l.06,0a1.41,1.41,0,0,1,1.61,2.2,14,14,0,0,1-5.48,3.94,14.34,14.34,0,0,1-6.78,1.21,17.49,17.49,0,0,1-6.53-2.16,13.92,13.92,0,0,1-4.92-4.59,1.4,1.4,0,0,1,1.88-2Z"/><path class="cls-13" d="M439.89,296.46a24.48,24.48,0,0,0,5.15-1.63,22.56,22.56,0,0,0,4.41-2.63,48.46,48.46,0,0,0,4.17-3,24.16,24.16,0,0,0,3.64-4l0,0a1.41,1.41,0,0,1,2.53,1,16.6,16.6,0,0,1-7.07,11.12,18.81,18.81,0,0,1-6.4,2.25,15.16,15.16,0,0,1-6.63-.37,1.4,1.4,0,0,1,.12-2.72Z"/><path class="cls-13" d="M354.22,182.31a28.78,28.78,0,0,0,6.85,2,27.81,27.81,0,0,0,6.89.24,43.09,43.09,0,0,0,6.84-.72,28,28,0,0,0,6.72-2.41l0,0a1.39,1.39,0,0,1,1.68,2.16,21.86,21.86,0,0,1-15.08,7.08,24.43,24.43,0,0,1-8.41-1.6,20.09,20.09,0,0,1-7.09-4.52,1.39,1.39,0,0,1,1.54-2.25Z"/><path class="cls-13" d="M318.35,136.82c-1-5.14-6-8.82-10.79-9.24a11.33,11.33,0,0,0-3.46.3,10.22,10.22,0,0,0-3,1.51,11.5,11.5,0,0,0-2.29,2.54,14.6,14.6,0,0,0-1.43,3.2,16.07,16.07,0,0,0-.54,3.45,13.2,13.2,0,0,0,.45,3.35,10,10,0,0,0,1.56,2.91,11.09,11.09,0,0,0,2.65,2.22c4.17,2.37,10.36,2.17,14.11-1.48l0,0a1.37,1.37,0,0,1,2.06,1.81,13.9,13.9,0,0,1-3.69,3.38,16.31,16.31,0,0,1-4.68,1.83,17.75,17.75,0,0,1-5,.28,18.06,18.06,0,0,1-5-1.31,15.73,15.73,0,0,1-4.43-3,15,15,0,0,1-3-4.6,16,16,0,0,1-1.06-5.33,17.54,17.54,0,0,1,.78-5.27,18.4,18.4,0,0,1,2.42-4.74,17.13,17.13,0,0,1,3.87-3.77,14.87,14.87,0,0,1,5.05-2.09,15.56,15.56,0,0,1,5.34,0,18,18,0,0,1,4.85,1.74,18.62,18.62,0,0,1,4,3.08,16.65,16.65,0,0,1,2.82,4.16,13.59,13.59,0,0,1,1.15,4.86,1.37,1.37,0,0,1-2.71.32Z"/><path class="cls-13" d="M482.06,176.37a86.6,86.6,0,0,1-19.65,24,88.6,88.6,0,0,1-27,15.75,86.78,86.78,0,0,1-30.95,5.1,91.36,91.36,0,0,1-15.69-1.61c-2.59-.5-5.16-1.1-7.69-1.83s-5-1.53-7.42-2.37c-4.89-1.66-9.64-3.48-14.37-5.06A91.88,91.88,0,0,0,345,206.71q-1.81-.29-3.63-.48l-3.73-.3c-1.24-.12-2.49-.17-3.73-.21s-2.49-.12-3.74-.12a137.6,137.6,0,0,0-15,.68,126.63,126.63,0,0,0-56.19,20h0a1.37,1.37,0,0,1-1.57-2.25,125,125,0,0,1,57.17-22.73,135.25,135.25,0,0,1,15.56-1.14c1.3,0,2.6,0,3.91,0s2.61,0,3.91.13l3.9.23q2,.16,4,.43a86.74,86.74,0,0,1,15.35,3.63c5,1.58,9.74,3.41,14.48,5.09,2.38.83,4.75,1.62,7.13,2.34s4.74,1.34,7.15,1.85a85.66,85.66,0,0,0,14.67,1.8,82.9,82.9,0,0,0,29.19-4.18,84.16,84.16,0,0,0,26-14.2A86,86,0,0,0,479.69,175h0a1.37,1.37,0,0,1,2.36,1.37Z"/><path class="cls-13" d="M393.21,184.87q-.31,2.77-.68,5.56c-.09.93-.31,1.84-.48,2.77L391.5,196a76.75,76.75,0,0,1-3.35,10.82c-.17.44-.32.9-.52,1.33L387,209.4,385.79,212c-.4.87-.93,1.67-1.39,2.51s-.94,1.68-1.47,2.48l-1.65,2.38c-.28.39-.54.8-.83,1.18l-.91,1.13c-.61.75-1.21,1.51-1.84,2.24l-2,2.09a46.74,46.74,0,0,1-19.93,11.62,64.59,64.59,0,0,1-11.15,2.24,34.27,34.27,0,0,1-11.49-.53,1.37,1.37,0,0,1,.44-2.71h0c6.95.6,14-1.34,20.62-3.75a47.44,47.44,0,0,0,9.2-4.75,62.06,62.06,0,0,0,8.06-6.47l1.85-1.82L375,217.9l.87-1c.28-.33.53-.69.8-1l1.59-2.07c1-1.45,2-2.89,2.87-4.39l1.28-2.31a26,26,0,0,0,1.22-2.35,72.33,72.33,0,0,0,4-9.89c.5-1.72,1.14-3.41,1.56-5.16s.85-3.51,1.3-5.27l0-.09a1.37,1.37,0,0,1,2.68.49Z"/><path class="cls-13" d="M598.2,230.41a117.32,117.32,0,0,1,8.9,25.2c1.11,4.32,1.81,8.72,2.57,13.11l.85,6.62c.16,1.1.25,2.21.34,3.32l.26,3.33a191,191,0,0,1,.12,26.69c-.07,1.11-.1,2.23-.21,3.33l-.33,3.33c-.24,2.22-.38,4.44-.75,6.65l-1,6.62-1.27,6.58a133.66,133.66,0,0,1-8.09,25.65A115.9,115.9,0,0,1,586,384.13a135.91,135.91,0,0,1-40.57,35.1,177.53,177.53,0,0,1-49.95,19.23,214.16,214.16,0,0,1-53.12,5.3,190,190,0,0,1-52.62-8.56,151.52,151.52,0,0,1-24.6-10.42,157,157,0,0,1-22.36-14.53,1.37,1.37,0,0,1,1.65-2.19h0a154.32,154.32,0,0,0,46.5,23.33,185.56,185.56,0,0,0,51.51,7.4,214.74,214.74,0,0,0,51.71-6,197.32,197.32,0,0,0,24.83-7.74A178.6,178.6,0,0,0,542.36,414a147.53,147.53,0,0,0,21.24-14.72,121.83,121.83,0,0,0,17.94-18.5,110.49,110.49,0,0,0,13.28-22,133.13,133.13,0,0,0,8.09-24.56l1.35-6.37,1.06-6.43c.39-2.14.57-4.31.84-6.47l.38-3.24c.13-1.08.17-2.17.26-3.25a186.78,186.78,0,0,0,.33-26.12l-.19-3.26c-.05-1.09-.12-2.18-.25-3.26l-.67-6.5c-.65-4.3-1.22-8.63-2.21-12.87a114.32,114.32,0,0,0-8.06-24.73h0a1.37,1.37,0,0,1,2.46-1.19Z"/><path class="cls-13" d="M462.77,221.35a8.21,8.21,0,0,1-2.12-3.3,10.07,10.07,0,0,1-.45-3.9,11.87,11.87,0,0,1,3.19-7.05,10.57,10.57,0,0,1,3.4-2.41l1-.39c.34-.11.67-.18,1-.26a10.72,10.72,0,0,1,2.06-.27,13.8,13.8,0,0,1,7.7,2.09,14.36,14.36,0,0,1,5.24,5.75,16.17,16.17,0,0,1,1.65,7.41,19.67,19.67,0,0,1-1.38,7,22.28,22.28,0,0,1-3.46,6,1.38,1.38,0,0,1-2.32-1.46v0a20.69,20.69,0,0,0,2.15-11.25,11.74,11.74,0,0,0-1.72-4.83,13.13,13.13,0,0,0-3.47-3.46c-2.67-1.88-6.16-2.32-8.49-.34s-3.92,6-2,8.86l0,.06a1.37,1.37,0,0,1-2.07,1.77Z"/><path class="cls-13" d="M613,252.71q-3-.68-6.07-1.42l-6.1-1.21-6.12-1-6.15-.79a184.64,184.64,0,0,0-24.67-1.11q-3.08.14-6.17.17c-2.05.13-4.11.19-6.17.27l-6.16.46-6.15.67a190.41,190.41,0,0,0-24.36,4.81,1.37,1.37,0,0,1-.86-2.6,138.28,138.28,0,0,1,24.42-7.14l6.29-1.12,6.34-.84c2.12-.2,4.25-.41,6.37-.56s4.26-.16,6.4-.18a147.85,147.85,0,0,1,25.43,2.32l6.25,1.27,6.19,1.51,6.1,1.82q3,1,6,2.09a1.37,1.37,0,0,1-.76,2.62Z"/><path class="cls-13" d="M259.05,226.26a90.85,90.85,0,0,0-21.7,23.36,111.21,111.21,0,0,0-13.17,29.11,138.49,138.49,0,0,0-3.66,15.62,154,154,0,0,0-.48,48A143,143,0,0,0,223.26,358c.66,2.57,1.51,5.11,2.33,7.66.43,1.27.78,2.56,1.27,3.8l1.42,3.75a166.58,166.58,0,0,0,14.36,28.62,181.33,181.33,0,0,0,43,47.1,188,188,0,0,0,27,17.24,200.1,200.1,0,0,0,29.51,12.53,212.8,212.8,0,0,0,63.22,10.64A223.23,223.23,0,0,0,469.15,481c20.73-5.79,40.84-14.29,58.69-26.37h0a1.37,1.37,0,0,1,1.56,2.25A184.76,184.76,0,0,1,501,473.32a219.63,219.63,0,0,1-30.75,11.51,227.7,227.7,0,0,1-64.92,9.44,214.31,214.31,0,0,1-65-10.11,194.16,194.16,0,0,1-30.52-12.65c-1.22-.64-2.47-1.23-3.67-1.92l-3.6-2.05c-1.19-.69-2.41-1.34-3.58-2.08l-3.5-2.21c-1.16-.75-2.34-1.46-3.48-2.24l-3.39-2.38c-1.13-.8-2.27-1.57-3.38-2.4L282,453.72a183.71,183.71,0,0,1-44-49,172,172,0,0,1-14.55-29.68l-1.43-3.88c-.49-1.29-.85-2.63-1.27-3.94-.83-2.63-1.67-5.26-2.34-8A138.56,138.56,0,0,1,215.19,343a158.52,158.52,0,0,1,1.18-49.39,142.59,142.59,0,0,1,4-16,114,114,0,0,1,14.18-29.8,93.91,93.91,0,0,1,22.89-23.71,1.37,1.37,0,0,1,1.63,2.2Z"/><path class="cls-13" d="M498.69,142.4c35.76,1.31,71.66,2.85,107.17,9.53a321.79,321.79,0,0,1,51.84,15.3c16.81,6.41,33.4,14.29,48.1,25.19a115.37,115.37,0,0,1,20.12,18.72,86.12,86.12,0,0,1,14.26,23.69,78.83,78.83,0,0,1,4,13.32,105.82,105.82,0,0,1,1.77,13.66,132.33,132.33,0,0,1-1.09,27.29,142.9,142.9,0,0,1-6.17,26.53,125.28,125.28,0,0,1-5,12.7,96.84,96.84,0,0,1-6.71,12,88.24,88.24,0,0,1-42.13,33.56,1.37,1.37,0,0,1-1-2.55h0a86.07,86.07,0,0,0,22.48-13.57,87.47,87.47,0,0,0,17.32-19.61,92.74,92.74,0,0,0,6.2-11.54,121,121,0,0,0,4.62-12.33,138.21,138.21,0,0,0,5.5-25.78,130.87,130.87,0,0,0,.6-26.26,100.35,100.35,0,0,0-1.85-12.91A73.13,73.13,0,0,0,734.82,237a83.4,83.4,0,0,0-13.54-22,117,117,0,0,0-19.1-17.75,169.75,169.75,0,0,0-22.34-13.94,244.56,244.56,0,0,0-24.16-10.94,323,323,0,0,0-50.82-15.68c-8.65-1.91-17.44-3.27-26.27-4.51S560.9,150,552,149.11c-17.76-1.75-35.6-2.93-53.46-4a1.37,1.37,0,0,1,.13-2.73Z"/><path class="cls-13" d="M270.22,210.06a84.67,84.67,0,0,0,4.5-23.22A134.78,134.78,0,0,0,274,163a132.79,132.79,0,0,0-4.77-23.28c-1.18-3.78-2.5-7.48-4-11.14s-3.22-7.34-4.78-11.12a86.85,86.85,0,0,1-4.07-11.75A41.51,41.51,0,0,1,254.94,93a32.66,32.66,0,0,1,1-6.49,34.89,34.89,0,0,1,2.32-6.14,40.87,40.87,0,0,1,3.37-5.56,47.9,47.9,0,0,1,4.18-4.91,52.3,52.3,0,0,1,10-7.88,63.45,63.45,0,0,1,11.41-5.46,57.75,57.75,0,0,1,12.36-3,66.11,66.11,0,0,1,12.64-.16c8.24.56,16.1,1.95,23.7,1.44,1-.08,1.9-.1,2.86-.24l2.86-.38c1.91-.34,3.83-.67,5.75-1.1,3.84-.84,7.69-1.86,11.6-2.9,7.8-2,15.9-4.18,24.44-4.21h1.59c.53,0,1.07.06,1.6.09l1.6.11a12,12,0,0,1,1.6.18l3.18.51,1.61.38,1.59.47a27.78,27.78,0,0,1,11.25,6.88,21.05,21.05,0,0,1,3.91,5.57,18.92,18.92,0,0,1,1.78,6.65,24.27,24.27,0,0,1-2.91,12.86c-4,7.71-10.54,13.52-17.83,17.64a54.68,54.68,0,0,1-11.65,4.62,55.2,55.2,0,0,1-12.38,1.67A54.48,54.48,0,0,1,356,102.19a49.82,49.82,0,0,1-11.57-4.62,1.37,1.37,0,0,1,1.29-2.42l0,0a46.92,46.92,0,0,0,10.94,4,51.23,51.23,0,0,0,11.61,1,54.93,54.93,0,0,0,11.49-1.83,50.84,50.84,0,0,0,10.68-4.49,45.67,45.67,0,0,0,9.13-7c.69-.66,1.28-1.42,1.92-2.13l.95-1.08.86-1.13a31.89,31.89,0,0,0,2.92-4.83,19.72,19.72,0,0,0,2.21-10.45,14.83,14.83,0,0,0-4.52-9.14,22.74,22.74,0,0,0-9.29-5.4l-1.32-.36L392,52l-2.8-.39a9.63,9.63,0,0,0-1.41-.13l-1.42-.08c-.47,0-.94-.07-1.42-.06l-1.43,0c-7.63.13-15.28,2.23-23,4.37-3.87,1.09-7.79,2.2-11.81,3.14a72.58,72.58,0,0,1-12.4,1.95c-8.53.61-16.7-.86-24.51-1.43a60.19,60.19,0,0,0-11.49.07,54.4,54.4,0,0,0-30.56,14.31c-5.37,5.29-9.17,12.13-9.59,19.52a36.35,36.35,0,0,0,1.08,11.19,88.73,88.73,0,0,0,3.67,11.14c1.45,3.7,3.05,7.39,4.56,11.18s2.83,7.73,4,11.66a138.33,138.33,0,0,1,4.62,48.59,87.63,87.63,0,0,1-5.31,24,1.37,1.37,0,0,1-2.56-.95Z"/><path class="cls-13" d="M595.74,231.6c-3.34-6.33-6.93-12.53-10.87-18.5a207.8,207.8,0,0,0-12.52-17.36c-8.88-11.1-18.9-21.42-30.51-29.17-1.44-1-2.93-1.87-4.42-2.75l-2.25-1.28-2.3-1.18-2.34-1.07c-.78-.35-1.58-.64-2.37-1a39.11,39.11,0,0,0-4.73-1.55,18.07,18.07,0,0,0-4.61-.49,7,7,0,0,0-3.66,1,3,3,0,0,0-1,1.07,3.27,3.27,0,0,0-.45,1.47,8.15,8.15,0,0,0,1,3.92,50.41,50.41,0,0,0,2.61,4.44l2.86,4.59,5.69,9.21c3.8,6.13,7.53,12.31,11.27,18.48a1.37,1.37,0,0,1-2.3,1.5c-4.13-5.91-8.27-11.83-12.35-17.78l-6.13-8.92-3-4.47a54.16,54.16,0,0,1-3.05-4.77,13.09,13.09,0,0,1-1.78-6.41,8.64,8.64,0,0,1,3.45-6.69,10.11,10.11,0,0,1,3.26-1.62,14.89,14.89,0,0,1,3.26-.59,23.64,23.64,0,0,1,6.14.42,25.72,25.72,0,0,1,2.89.74c.9.29,1.84.53,2.72.88,1.8.62,3.53,1.39,5.25,2.17a68.42,68.42,0,0,1,9.74,5.64A109.74,109.74,0,0,1,562.06,176a168.56,168.56,0,0,1,14.18,16.77,200,200,0,0,1,22,37.67,1.37,1.37,0,0,1-2.46,1.19Z"/><path class="cls-13" d="M401.11,248.65a163.67,163.67,0,0,1-6.71-22.55c-.44-1.92-.82-3.86-1.14-5.85-.16-1-.3-2-.39-3.09s-.15-2-.17-3a72.46,72.46,0,0,1,.51-12.06,67.06,67.06,0,0,1,7.5-22.84,64.88,64.88,0,0,1,14.74-18.72,1.37,1.37,0,0,1,1.93,2h0a72.57,72.57,0,0,0-12.17,19,84.06,84.06,0,0,0-6,21.49,82.2,82.2,0,0,0-.91,11.14c0,.93,0,1.87,0,2.8s.1,1.78.18,2.7c.18,1.85.47,3.74.73,5.63.56,3.78,1.23,7.57,2,11.34s1.55,7.54,2.48,11.25v0a1.37,1.37,0,0,1-2.6.83Z"/><path class="cls-13" d="M433.89,242.88a11.11,11.11,0,0,1,1.56-4.59,14.13,14.13,0,0,1,3.23-3.74,10.5,10.5,0,0,1,4.62-1.76,11.2,11.2,0,0,1,4.86.19,1.44,1.44,0,0,1,.22,2.7l-.09,0a26.72,26.72,0,0,0-3.33,1.8c-1,.62-1.84,1.48-2.81,2a21.57,21.57,0,0,0-2.93,1.88A27.66,27.66,0,0,0,436.4,244l-.07.07a1.43,1.43,0,0,1-2.45-1.14Z"/><path class="cls-13" d="M431.67,162.33a20.94,20.94,0,0,1-7.94,5.58,13.64,13.64,0,0,1-2.49.81,9.1,9.1,0,0,1-2.89.2,6.44,6.44,0,0,1-3.23-1.17,4.89,4.89,0,0,1-1.4-1.62,4.94,4.94,0,0,1-.57-2.11,6.57,6.57,0,0,1,.85-3.43l.18-.35.07-.13.07-.12.3-.5.6-1c.78-1.33,1.64-2.62,2.5-3.91a84.61,84.61,0,0,1,5.68-7.37,57.68,57.68,0,0,1,6.71-6.48c1.17-1,2.45-1.92,3.68-2.87s2.53-1.8,3.86-2.61a67.7,67.7,0,0,1,16.74-7.8,1.38,1.38,0,0,1,1,2.54h0a88.36,88.36,0,0,0-14.87,9.33c-1.17.87-2.24,1.85-3.36,2.77s-2.17,1.93-3.19,3c-2.1,2-4.07,4.11-6,6.23s-3.87,4.32-5.68,6.6c-.86,1.17-1.79,2.3-2.62,3.51l-.64.89-.32.45-.08.11,0,0q-10.12-6.37,0,0h0l0,0-.09.15a2.72,2.72,0,0,0-.4.84c0,.1-.12,0,0,.15a1.77,1.77,0,0,0,.92.42,4.8,4.8,0,0,0,1.59.07,9.32,9.32,0,0,0,1.85-.39,19.26,19.26,0,0,0,7.31-3.72l0,0a1.37,1.37,0,0,1,1.94,1.92Z"/><path class="cls-13" d="M454.39,127.46a56.31,56.31,0,0,1,15.7-4.32,59.17,59.17,0,0,1,8.21-.39,47.1,47.1,0,0,1,8.3.85,23.65,23.65,0,0,1,8.21,3.21,15.18,15.18,0,0,1,6,7.29,18.33,18.33,0,0,1,.84,9.25,28,28,0,0,1-2.68,8.38c-.66,1.28-1.33,2.52-2.09,3.72s-1.6,2.35-2.48,3.46a40.77,40.77,0,0,1-5.93,6.06,43.36,43.36,0,0,1-14.69,8.13,42.52,42.52,0,0,1-32.3-2.71,1.37,1.37,0,0,1,1.15-2.49h0a40.84,40.84,0,0,0,29.51.47,39.46,39.46,0,0,0,12.53-7.76,44.07,44.07,0,0,0,5-5.43,44.92,44.92,0,0,0,3.93-6.17c2.12-4.2,3.36-9.09,2-13a9.9,9.9,0,0,0-3.73-4.85,19.57,19.57,0,0,0-6.37-2.8,42.52,42.52,0,0,0-7.4-1.19,54.93,54.93,0,0,0-7.63-.08,57.36,57.36,0,0,0-15.07,2.9h0a1.37,1.37,0,0,1-1-2.55Z"/><path class="cls-13" d="M257.33,250.47c5.45,2.05,10.83,4.16,16.32,5.72a59.09,59.09,0,0,0,16.54,2.7A37.17,37.17,0,0,0,306,255.6a25.53,25.53,0,0,0,6.5-4.34,26.38,26.38,0,0,0,4.83-6.12c1.36-2.33,2.56-4.87,3.82-7.49s2.53-5.24,3.82-7.85l3.85-7.83a14.82,14.82,0,0,0,1.37-3.34c0-.11,0-.22.05-.33l0-.49c0-.32,0-.62,0-.89a4,4,0,0,0-.13-1.2c0-.11,0-.08,0-.07s.13.07.07,0a3,3,0,0,0-1.21-.13,6.33,6.33,0,0,0-2.92,1.17l-.36.26-.29.23a6.36,6.36,0,0,0-.57.57,15.44,15.44,0,0,0-1.16,1.51l-2.48,3.6a60.48,60.48,0,0,1-5.55,7.06,31.29,31.29,0,0,1-7.14,5.7,1.37,1.37,0,0,1-1.49-2.3h0a29.71,29.71,0,0,0,6-5.66,62.57,62.57,0,0,0,4.77-7l2.23-3.74a18.06,18.06,0,0,1,1.38-2,11,11,0,0,1,.92-1c.17-.16.35-.32.54-.48l.51-.4a11,11,0,0,1,5-2.22,7.9,7.9,0,0,1,3.11.17,4.72,4.72,0,0,1,2,1.05,5,5,0,0,1,1.23,1.72,8.35,8.35,0,0,1,.65,3.06c0,.45,0,.88,0,1.29l0,.6c0,.26,0,.51-.07.76a18,18,0,0,1-1.62,4.83l-3.53,8c-1.18,2.66-2.34,5.33-3.56,8a71.43,71.43,0,0,1-4.11,8,36.24,36.24,0,0,1-2.72,3.9,22.33,22.33,0,0,1-1.63,1.81,21.57,21.57,0,0,1-1.76,1.67,31.29,31.29,0,0,1-8.11,5.07A41.29,41.29,0,0,1,290,263.79a63.45,63.45,0,0,1-17.63-3.8,171.65,171.65,0,0,1-16.17-7,1.37,1.37,0,0,1,1.08-2.51Z"/><path class="cls-8" d="M412.51,267.15a19.22,19.22,0,0,1,5.81-1.4,6.5,6.5,0,0,1,5.35,2.19c1.22,1.58,1.2,4.16-.37,5.39a4.86,4.86,0,0,1-2.68.88c-5.51.4-12.58-3.1-8.11-7.07Z"/><path class="cls-13" d="M415.24,253.57a13.4,13.4,0,0,1,.88,8.5,14.74,14.74,0,0,1-1.6,4.21,18.07,18.07,0,0,1-1.27,1.88,15.09,15.09,0,0,0-.9,1.25c-.19.3-.18.38-.19.31s-.12-.17-.13-.06.58.9,1.35,1.28c.19.1.4.19.6.28l.81.27c.58.17,1.21.38,1.88.61a7.85,7.85,0,0,1,3.9,2.59,1.38,1.38,0,0,1-1.76,2l-.2-.1a6.59,6.59,0,0,0-2.79-.57c-.56,0-1.16,0-1.82-.06-.33,0-.67,0-1-.08a9.94,9.94,0,0,1-3.6-1.16,6.68,6.68,0,0,1-2.28-2,5.55,5.55,0,0,1-1-3.65,6.28,6.28,0,0,1,1.23-3.13,13,13,0,0,1,1.49-1.65,12.41,12.41,0,0,0,1-1.1,11.64,11.64,0,0,0,1.58-2.57,13.73,13.73,0,0,0,1.18-6.32v-.08a1.39,1.39,0,0,1,2.64-.65Z"/></svg>