<svg id="Layer_1" data-name="Layer 1" xmlns="http://www.w3.org/2000/svg" viewBox="0 0 960 560"><defs><style>.cls-1{fill:#b3d1ff;}.cls-2{fill:#78adff;}.cls-3{fill:#77edff;}.cls-4{fill:#fff;}.cls-5{fill:#59677d;}.cls-6{fill:#0dffc2;}.cls-7{fill:#ffb282;}.cls-8{fill:#009bc0;}.cls-9{fill:#ff9d84;}.cls-10{fill:#bbfeff;}.cls-11{fill:#7afdff;}.cls-12{fill:#006edb;}.cls-13{fill:#ffa770;}.cls-14{fill:#ff7d5c;}.cls-15{fill:#233940;}</style></defs><title>cycling, bicycle, exercise, hobby, activity</title><path class="cls-1" d="M540.07,531.41c-3.42,1.52-6.85,2.89-10.26,4.1-94.92,33.79-193-44.68-250.16-124.93a366.35,366.35,0,0,1-34.35-58.44c-.26-.57-.52-1.14-.77-1.71-21.31-47.44-24.45-98.79-11.81-147.24,11.61-44.5,36.53-86.56,72.9-120.87,71.46-67.41,197-94.45,263-6.22.77,1,1.5,2.05,2.22,3.06l.7,1c36.69,53.72-5.54,93.29-33.6,138.94-21.79,35.43-24.34,81.93-6.56,119.53a157.45,157.45,0,0,0,8.53,15.52c18.59,30.08,45.4,56.44,50.05,91.18C594.92,482.35,573.82,516.42,540.07,531.41Z"/><path class="cls-2" d="M540.07,531.41c-3.42,1.52-6.85,2.89-10.26,4.1,0,0-84.57-102.32-250.16-124.93a366.35,366.35,0,0,1-34.35-58.44c-.26-.57-.52-1.14-.77-1.71,65-4.18,181.05-5.79,295.4,3.75,18.59,30.08,45.4,56.44,50.05,91.18C594.92,482.35,573.82,516.42,540.07,531.41Z"/><path class="cls-3" d="M571.56,80.19H523.5a8,8,0,0,0-8,8v48.67a8,8,0,0,1-7.92,8h0a8,8,0,0,1-8.08-8v-9.67a8,8,0,0,0-8-8H327.61a8,8,0,0,0-8,8l-.11,68a8,8,0,0,1-8,8H232.72c11.61-44.5,36.53-86.56,72.9-120.87,71.46-67.41,197-94.45,263-6.22.77,1,1.5,2.05,2.22,3.06Z"/><path class="cls-4" d="M389.66,316.3s10.18,9.31,16.72-4.78c0,0-1.68,20,4,27.78l-11.78,6.13-7.39-9.85S390.4,321.28,389.66,316.3Z"/><path class="cls-5" d="M460.52,52.71s-.7,8.29-5.08,9.55-6.88,2.84-12.52-4.77c-3.61-4.87-12.64,1.42-12.64,1.42s-8.2.45-9.07-14.41,29.86-6.72,29.86-6.72S463,40.68,460.52,52.71Z"/><path class="cls-4" d="M404.55,52.61s-6.84-9.48-5.16-20.58,6.42-25,28.95-24,43.5,21.21,35.45,42.64c0,0-3.32,5.21-10.91-2.18s-25.47-6.92-31.68-4-11.86-2-11.86-2S403.23,44.08,404.55,52.61Z"/><path class="cls-4" d="M315.56,348.11a14.61,14.61,0,0,1,1.36-6.1c1.47-3,4.61-5.34,7.93-5s5.39,3,8.17,4.41a21.7,21.7,0,0,0,9.87,2.26c25.58,0,19-37.54,19-37.54s12.91,29,0,50.54c-4.25,7.09-7.88,15.69-15.89,19.3-5.81,2.61-11.84,1.39-17.22-1.56-7.89-4.34-12.12-13.93-13.07-22.57A27.25,27.25,0,0,1,315.56,348.11Z"/><path class="cls-5" d="M365.31,293.38c-13.51-37.08-36.1-42.2-46.83-30.15-5.07,5.68-20.65,20.58-15.61,66.17S320,400,336.24,407.28c18.55,8.38,28.33-18.68,28.33-18.68S381.13,336.85,365.31,293.38Zm-7.73,82.49s-8.23,23.06-23.86,15.91c-13.67-6.24-20.85-27.53-25.1-66.39s5.88-51.57,10.15-56.41,24.31-9.52,37.65,27.53S357.57,375.87,357.57,375.87Z"/><path class="cls-4" d="M318,237.38s-1.42,19.93-1.62,28.12c0,0,5.65,11.05,19.22,1.43,0,0,1.51-14.85,5.5-25S320,224.73,318,237.38Z"/><path class="cls-6" d="M344.29,294c-1.62-1.93-4.12-2.73-5.62-4.73a12.18,12.18,0,0,1-2-5c-1-5.29-.74-10.86-1.12-16.23-.45-6.26-.83-8.06-7.07-7.41-10.19,1.06-15.76,9.69-16.56,19.32-.76,9-.59,22.56,9.49,26.19,6.92,2.5,13.42,1.65,20.51,1.65C347.71,306.72,347.13,297.37,344.29,294Z"/><path class="cls-4" d="M435.51,346s15.4-23.24,32-8c13.31,12.25,7.33,65.16,7.33,65.16s7.73,34.13,54,2.7,41.34-83.43,26.63-103-48.66-16.65-54.81.82S488,341.31,473,328.13,440.46,329.55,435.51,346Z"/><path class="cls-7" d="M354.34,204.94s30.17,66.34,35.32,111.36a8.39,8.39,0,0,0,3.22,5.74l.14.11c5.76,4.24,13.87-.31,13.6-7.45-.87-22.46-4.55-97.33-15.44-119.77C378.32,168.42,345.23,186.37,354.34,204.94Z"/><path class="cls-6" d="M390.43,329.39s5.43,5.52,5.43,8.67,8.23,6.31,8.23,0q0-.15,0-.3a2.73,2.73,0,0,1,5.28-.83,50,50,0,0,0,19.7,24.82,2.75,2.75,0,0,1,1.28,2.31v4.75a2.71,2.71,0,0,1-1.78,2.56c-4.14,1.51-14.55,4.4-20.94-1.94-8.11-8.06-6.89-9.2-9.6-11.91s-7.62-2.82-7.62-9.11Z"/><path class="cls-8" d="M442.45,204.7l4.93-3.94,55.17,83.42c4,6.09-4.85,12.47-9.23,6.64q-.7-.93-1.38-2C481.49,272.62,442.45,204.7,442.45,204.7Z"/><path class="cls-9" d="M395.76,214.31c-27.79-10.77-45.27,0-45.27,0s-1.1-47.74,10.6-55.22c2.27-1.45,5-1.39,8.37.83,7.25,4.82,12.66,13,16.64,21.63C393.35,197.28,395.76,214.31,395.76,214.31Z"/><path class="cls-3" d="M439.24,199.56c3.28.72,4.13,3.14,6.64,4.86l0,0a1.92,1.92,0,0,0,2.62-2.66l-9.71-15.58s-16.33-6.12-17.07,13.25l4.31,12.26,6-2.31c-1,.37-.67-6.53-.22-7.24,1.53-2.43,4.49-3.17,7.19-2.66Z"/><path class="cls-7" d="M422.36,130.95s13.4-25,33.83-12.59c0,0-4.85,25.56-1.41,37.64s12.11,15.48,23.41,9.45c3-1.58,5.43-2.94,7.48-4.09,7.3-4.08,14.25,3.42,13.09,10.68-1.73,10.89-17.67,16.63-27.06,18C436.43,195,420.07,161.35,422.36,130.95Z"/><path class="cls-10" d="M456.18,118.36s-17.72-9.65-29.46,6.95A68.05,68.05,0,0,1,412,139.66c-13.82,10.27-33.66,18.83-53.12,15.75a49,49,0,0,1-20-7.92c-.42-.28-.84-.58-1.24-.87-.61-.43-1.2-.88-1.77-1.33-28.6-22.71-2.69-58.15-2.69-58.15s12.36-20.53,40.2-25.62,25.26,13.55,26.45,20.12.81,21.47,16.16,25.8S435.14,84,435.14,84,459.22,94.13,456.18,118.36Z"/><path class="cls-11" d="M412,139.66c-13.82,10.27-33.66,18.83-53.12,15.75-10.7-7.66-18-8.78-21.23-8.8a8.67,8.67,0,0,0-1.9.15s0-.54.14-1.48c.75-7.46,5-40.74,20.35-42.45,0,0-4.3,28.72,19.83,28.72C395.71,131.56,405.94,132.88,412,139.66Z"/><path class="cls-12" d="M331.83,209.06a69.46,69.46,0,0,1,17-10.42c.15-4.81,1.51-12.41-1.74-16.18s-10.17-2.62-14.47-2.62c-6.09,0-12.76-.56-18.49,2-9.41,4.15-11.36,16.38-1.16,20.84,6,2.63,12.53,2.12,18.2,6C331.43,208.75,331.63,208.91,331.83,209.06Z"/><path class="cls-8" d="M495.48,118.48c-4.06-.17-3.76,2.56-3.76,2.56.69,19.41-23.54,17.29-23.54,17.29s-41.92-6.26-56-8.57-20.32-12.3-21.34-14.87-7.56-13.68-12.28-11.16c-3.63,1.94-2.91,4.44-1.74,6.12a50.46,50.46,0,0,1,4.8,8.32c13.43,30.75,1.87,45.61,1.84,45.65,4.55,2,9.26,2.36,12.59-.09,2.9-2.13,2.31-7,2.49-10.1a93.34,93.34,0,0,0-.64-13.7,3.78,3.78,0,0,1,0-1.38c.48-1.85,4.31-.33,5.59-.11l.19,0a5.36,5.36,0,0,1,3,8.41,11.3,11.3,0,0,0-.89,1.44c-.78,1.52-2,5.53-1.47,7.15a17.22,17.22,0,0,1,.82,5.9c-.32,11.13-8.58,21-8.58,21l-47.72,34.71q0-6.8,0-13.6a62,62,0,0,0-13.6,8.48,25.92,25.92,0,0,1,5.91,9.9c-12,9.13-2.64,25.7-2.64,25.7l60.05-57.19c12.35-7.84,13.2,8.22,13.2,8.22s-28.59,89.7-33.23,103.52-4.2,21.6-4.2,21.6l3.44,19.2,47.39-133.86-3.42-9.67c-.19-22.21,17.07-13.25,17.07-13.25l-8.54-12.35c-6.6-10.69-10.65-28.64,7.29-29.33s28.5,2.39,38.88,6.12a23.42,23.42,0,0,1,12,10.25,4.22,4.22,0,0,1,2.29,0,6.46,6.46,0,0,1,1.19.46,11.33,11.33,0,0,1,2.72,1.27c-2.6-7.71-.9-20.16,1.69-25.5C499.18,131.25,499.54,118.64,495.48,118.48Z"/><path class="cls-9" d="M338.53,154.73s-20.4,9.46-21.91,30.46h0c-16.81-4-24.12-24.21-20.23-40.89,3.47-14.88,13.67-26.64,25.46-36.25l1.09.06Z"/><path class="cls-7" d="M368.48,185.6a79.37,79.37,0,0,1-6.38,14.26c-9.16,16.85-23.57,48.75-23.57,48.75-17.22,11.45-21.06-1.4-20.58-7.58s4.57-29.56,10.69-44.76-12-10.54-12-10.54a37.27,37.27,0,0,1,4.07-13.86c6.32-12.5,18.89-22.85,31-18.89a19.61,19.61,0,0,1,5.71,3q1.21.91,2.3,1.83C370.16,166.67,371.56,175.56,368.48,185.6Z"/><path class="cls-3" d="M436.15,182.06q-.49-.18-1-.33c-12-3.59-18.63-9.81-24.83-20.34-1.56-2.65-3.64-11.69-2-15.77.74-1.86-2.94,4.05-2.91,6.08.15,9.83,3.35,15.28,6.68,24.57,3.24,9,7.29,18.72,10.78,27.66-1.2-2.88-1.37-7.22-2.28-10.19a21.24,21.24,0,0,1,4.46-6.61c3-2.71,6.95-2.39,10.69-2C437.61,185.36,437.7,182.63,436.15,182.06Z"/><path class="cls-13" d="M368.48,185.6c-15.46,2.07-32.69,1.28-39.54-2.38-7.88-4.2-9.42-9.37-9.42-9.37,6.32-12.5,20-24.83,32.11-20.87,1.66,2.79,4.44,4.3,8,4.84C370.16,166.67,371.56,175.56,368.48,185.6Z"/><path class="cls-14" d="M368.48,185.6c2.93-9.55,1.81-18.08-7.39-26.51,2.27-1.45,5-1.39,8.37.83,7.25,4.82,12.66,13,16.64,21.63A86.4,86.4,0,0,1,368.48,185.6Z"/><path class="cls-14" d="M350.31,140.52c-6.17-10-1.07-24.81,3.11-34.95a19.5,19.5,0,0,0-11.55-8.5,14.66,14.66,0,0,0-8.64.07s-35.78,28.14-16.9,71.53c1.06,2.43,2.39,4.83,2.93,6.28,6.32-12.5,20.3-25.95,32.37-22C350,150.19,349.42,146.13,350.31,140.52Z"/><path class="cls-7" d="M333.24,87.13S309.45,121,318.93,156c2.67,9.85,2.83,9.27,10.72,15.92,11.17,9.42,63.14,3.72,65.92-7.38,2.87-11.45-17.55-18.8-24.81-17.35-17.35,3.46-27.72-2.69-15.64-32.74,4.53-11.28-1.49-24.28-13.25-27.38A14.59,14.59,0,0,0,333.24,87.13Z"/><path class="cls-4" d="M430.28,257.49s32.12-53.57,76.19-34.84a79.85,79.85,0,0,1,19.17,11.69c12.43,10.13,30-3,23.6-17.74-6.73-15.52-15.88-28.24-28.28-32.52C480.93,170.27,438.58,205.72,430.28,257.49Z"/><path class="cls-7" d="M396.71,66.46s9.4,3.62,9.67-9.55c0,0-5.8-9.68,3-14.41,0,0,2.18-.15,5.1,3l6.77-1s-1.39,6.16,2.23,10.22,5.26,5.1,10.69,2.88,8.09-1.81,11.07,3,10.24,1.7,10.24,1.7-3.26,23.44-14.18,26.84a21.07,21.07,0,0,0-6.12,10.13c-1.76,6.55-34.2,20.36-35.13-21.76C400,77.47,401.29,69.41,396.71,66.46Z"/><path class="cls-15" d="M382.27,171.32c8,15.48,13.38,32.15,17.36,49L401,226.7l.68,3.18.59,3.2,1.18,6.4,1,6.42q2,12.85,3.23,25.8l.55,6.47c.18,2.16.28,4.32.41,6.48.3,4.32.4,8.65.54,13s.19,8.65.19,13c0,2.16,0,4.33,0,6.49s-.06,4.36,0,6.35a46.74,46.74,0,0,0,7.1,23.29,45.47,45.47,0,0,0,8,9.45,44.31,44.31,0,0,0,4.9,3.84,34,34,0,0,0,5.37,3.06l0,0a1.37,1.37,0,0,1-1.06,2.53A46.53,46.53,0,0,1,413.16,349a50.14,50.14,0,0,1-8.73-25.26c-.14-2.31-.17-4.42-.22-6.56s-.11-4.29-.19-6.43c-.12-4.29-.34-8.57-.55-12.85-.49-8.56-1.1-17.1-1.77-25.64a439.42,439.42,0,0,0-6.86-50.84c-.39-2.1-.9-4.17-1.35-6.26s-.87-4.19-1.43-6.25c-1.11-4.12-2.06-8.29-3.4-12.34l-1.87-6.12-2.16-6-1.08-3-1.25-2.94-2.48-5.91,0-.05a1.37,1.37,0,0,1,2.47-1.15Z"/><path class="cls-5" d="M600,316.23c-1.33-39.1-26.42-148.52-99.82-148.52-55.86,0-82.68,59.51-86.33,108.44-.86,11.47-1.08,23.17-.87,34.67.61,33.49,6.26,69.15,26.87,96.93,18.38,24.77,46.17,42.84,77.83,42.06q1.46,0,2.93-.12l1.92-.13C585.57,444.57,601.25,353.49,600,316.23ZM544.11,420.87C505,457.18,446,420.72,430.28,370.28a226.55,226.55,0,0,1-8.84-87.69c2-22,6.83-44.09,17.12-63.84,10-19.18,26.5-40.47,50.32-40.47,35.73,0,77.53,53.22,86.41,102.29S583.25,384.54,544.11,420.87Z"/><path class="cls-5" d="M418.11,79.28S423,90.12,440.35,89l1.94,2.45S432.45,104.38,421,91C416.77,86,418.11,79.28,418.11,79.28Z"/><path class="cls-15" d="M395.35,164.82a11.17,11.17,0,0,0-.17-1.95,13.78,13.78,0,0,0-2.32-5.59,15.58,15.58,0,0,0-6.31-5c-5.06-2.33-11-2.82-16.83-2.61-1.46,0-2.93.17-4.4.26l-2.2.23-1.1.12-1.32.1a13.42,13.42,0,0,1-5.59-.84,11,11,0,0,1-4.73-3.65,15.4,15.4,0,0,1-2.42-5,26.36,26.36,0,0,1-.89-5.06,42.15,42.15,0,0,1,.43-9.74,54.23,54.23,0,0,1,2.21-9.31,42.08,42.08,0,0,1,1.74-4.53l1-2.05a16.55,16.55,0,0,0,.73-1.82,12.73,12.73,0,0,0,.41-7.37,12.9,12.9,0,0,0-4-6.32,20.51,20.51,0,0,0-7-4,29.8,29.8,0,0,0-8.31-1.52,19,19,0,0,0-8.15,1.29A23.63,23.63,0,0,0,318.92,95h0A1.37,1.37,0,0,1,317,93.1a25.8,25.8,0,0,1,7.69-5.81,22.24,22.24,0,0,1,9.58-2.17,32.32,32.32,0,0,1,9.64,1.2,25.27,25.27,0,0,1,8.91,4.55,17.87,17.87,0,0,1,6,8.63,18.33,18.33,0,0,1-.09,10.57,22.28,22.28,0,0,1-.86,2.44l-.9,2.1c-.52,1.29-1,2.64-1.44,4s-.81,2.76-1.13,4.17-.64,2.81-.86,4.23a41.28,41.28,0,0,0-.56,8.41c.14,2.7.7,5.37,2,7.13a5.6,5.6,0,0,0,2.32,1.94,8.09,8.09,0,0,0,3.32.6l.95,0,1.17-.08,2.33-.16c1.57,0,3.13-.12,4.7-.07a56.12,56.12,0,0,1,9.45.87,32.72,32.72,0,0,1,9.21,3.09,19.06,19.06,0,0,1,7.35,6.7,16.23,16.23,0,0,1,2,4.63,15.57,15.57,0,0,1,.42,2.47,13.24,13.24,0,0,1,0,2.59,1.36,1.36,0,0,1-2.72-.16Z"/><path class="cls-15" d="M496.32,156.42a80,80,0,0,1-12,8.41,56.78,56.78,0,0,1-6.74,3.23,32.64,32.64,0,0,1-7.45,2.07c-.65.12-1.34.14-2,.21a19.49,19.49,0,0,1-2.08,0,14.56,14.56,0,0,1-4.24-.89,12.61,12.61,0,0,1-3.89-2.29,14.36,14.36,0,0,1-2.87-3.39,33,33,0,0,1-4.43-15c0-.64-.1-1.28-.12-1.91V145c0-1.27.09-2.51.17-3.75.15-2.49.5-4.92.85-7.33.71-4.81,1.57-9.5,2.09-14.13a55.31,55.31,0,0,0,.39-6.89,29.31,29.31,0,0,0-.7-6.69A23.79,23.79,0,0,0,451,99.93a15.35,15.35,0,0,0-1.84-2.64,11.75,11.75,0,0,0-2.41-2l-.07,0a1.37,1.37,0,0,1,1.31-2.4,13.73,13.73,0,0,1,3.37,2.25,18.58,18.58,0,0,1,2.57,3,26.12,26.12,0,0,1,3.22,7,32.53,32.53,0,0,1,.91,3.72c.12.63.21,1.27.3,1.9l.15,1.89a60,60,0,0,1,0,7.49c-.23,4.93-.89,9.73-1.34,14.44-.22,2.35-.41,4.69-.54,7,0,1.15-.13,2.3-.09,3.43l0,1.7c0,.56.05,1.12.08,1.68a28.8,28.8,0,0,0,3.21,12.5,8.11,8.11,0,0,0,3.86,3.62,12.27,12.27,0,0,0,5.84.75,28,28,0,0,0,6.49-1.38,52.52,52.52,0,0,0,6.41-2.59,88.45,88.45,0,0,0,12.2-7h0a1.37,1.37,0,0,1,1.66,2.17Z"/><path class="cls-8" d="M431.28,226.54s2.46-6.71,6.29-2.5l31.18,69.73c3.42,7.65-8,13.15-11.64,5.59a21.83,21.83,0,0,1-.92-2.22C451.25,283.09,431.28,226.54,431.28,226.54Z"/><path class="cls-15" d="M323.7,263.46c-3.8.67-6.92,3.54-9.22,6.87a44.34,44.34,0,0,0-5.23,11.29,99.49,99.49,0,0,0-4.16,25,159,159,0,0,0,.83,25.56c.46,4.23,1.12,8.47,1.85,12.71s1.54,8.43,2.5,12.59c.49,2.08,1,4.15,1.55,6.19l.83,3.07.92,3A116.59,116.59,0,0,0,318,381.66a74.28,74.28,0,0,0,6.05,10.93l1.85,2.49c.6.85,1.32,1.58,2,2.37a37.87,37.87,0,0,0,4.33,4.32,27.68,27.68,0,0,0,4.93,3.28,15.94,15.94,0,0,0,5.41,1.66,13.52,13.52,0,0,0,5.51-.53,16.52,16.52,0,0,0,5.06-2.72,28.34,28.34,0,0,0,7.53-9.46,40.21,40.21,0,0,0,3.91-11.85h0a1.37,1.37,0,0,1,2.72.37,43.29,43.29,0,0,1-3.53,13,31.31,31.31,0,0,1-8.1,11.1,20.68,20.68,0,0,1-6.21,3.66,17.49,17.49,0,0,1-7.32,1,20.6,20.6,0,0,1-7-1.88,32.5,32.5,0,0,1-6-3.71,42.88,42.88,0,0,1-5-4.69c-.75-.85-1.59-1.65-2.27-2.55l-2.11-2.68a79.79,79.79,0,0,1-6.88-11.63,114.79,114.79,0,0,1-8.4-25.26c-1-4.31-1.72-8.64-2.37-13s-1.22-8.69-1.6-13.09a157.61,157.61,0,0,1-.19-26.44,103.81,103.81,0,0,1,5.28-26,47.18,47.18,0,0,1,6.25-12,23.54,23.54,0,0,1,4.95-4.92,14.46,14.46,0,0,1,6.65-2.66,1.37,1.37,0,0,1,.4,2.7Z"/><path class="cls-15" d="M422.39,318.57a153.74,153.74,0,0,0,3.57,31,140.31,140.31,0,0,0,10.12,29.37,121.3,121.3,0,0,0,7.48,13.59A110.6,110.6,0,0,0,452.7,405a94.45,94.45,0,0,0,10.81,11A78.29,78.29,0,0,0,476,424.85c8.8,5.06,18.66,8.35,28.69,8.55a52.8,52.8,0,0,0,28.52-7.93A64.41,64.41,0,0,0,545,416.13a85,85,0,0,0,9.7-11.72,98.57,98.57,0,0,0,7.68-13.25c1.17-2.28,2.15-4.65,3.18-7,.48-1.19.93-2.39,1.4-3.59s.9-2.41,1.31-3.63a159,159,0,0,0,7-30.07,194.45,194.45,0,0,0,1.54-31A199,199,0,0,0,565.22,255,164.66,164.66,0,0,0,552,227a148.75,148.75,0,0,0-8.71-12.84A124.65,124.65,0,0,0,533,202.46c-7.35-7.22-15.72-13.5-25.14-17.59a56.83,56.83,0,0,0-30-4.71,1.37,1.37,0,0,1-.38-2.72,56.94,56.94,0,0,1,16.14,0,64.19,64.19,0,0,1,15.56,4.29c10,4.08,18.82,10.56,26.57,17.92a128.77,128.77,0,0,1,10.75,11.9,153,153,0,0,1,9.2,13.11,169.4,169.4,0,0,1,14.09,28.67,200.77,200.77,0,0,1,12.75,62.4c.87,21.29-1.5,42.93-8.62,63.25-.43,1.27-.87,2.54-1.38,3.79s-1,2.51-1.48,3.75c-1.08,2.46-2.13,4.94-3.37,7.34a103.25,103.25,0,0,1-8.26,13.94A90.76,90.76,0,0,1,549,420.2a70,70,0,0,1-13,10,58.21,58.21,0,0,1-31.52,8.42,65,65,0,0,1-31-9.57,83.05,83.05,0,0,1-13-9.62,99,99,0,0,1-11.15-11.63,115,115,0,0,1-9.3-13.09,125.41,125.41,0,0,1-7.52-14.14c-1.16-2.4-2.09-4.91-3.11-7.37-.47-1.25-.91-2.51-1.36-3.76l-.67-1.88-.6-1.91-1.19-3.81-1-3.86-.51-1.93-.44-1.95-.87-3.89a156.79,156.79,0,0,1-3-31.67,1.37,1.37,0,0,1,2.73,0Z"/><path class="cls-3" d="M442.85,259.42l-2.63-17.62a164.88,164.88,0,0,0-9.06-34.54L428.38,200l-5.51,2.62Z"/><path class="cls-15" d="M343.39,295a24.09,24.09,0,0,1-4.8-5.35,27.06,27.06,0,0,1-3-6.51,50.14,50.14,0,0,1-2-13.87,71.61,71.61,0,0,1,1.07-13.89A88.51,88.51,0,0,1,338.14,242c3-8.75,7.19-16.95,11.47-25l6.46-11.89c2.08-3.95,4.07-7.9,5.8-11.93A74,74,0,0,0,366,180.92a20.86,20.86,0,0,0-.75-11.65c-2.64-7.47-10-13.27-18.06-13.44a19.16,19.16,0,0,0-5.93.75,29.46,29.46,0,0,0-5.74,2.45,33.33,33.33,0,0,0-9.73,8,34.82,34.82,0,0,0-5.95,11.29,48.2,48.2,0,0,0-2.09,12.9v0a1.37,1.37,0,0,1-2.74,0,51.29,51.29,0,0,1,1.53-13.86,37.59,37.59,0,0,1,6.07-12.8,36.63,36.63,0,0,1,10.66-9.53,34,34,0,0,1,6.6-3.06,24,24,0,0,1,21.59,3.42,26.32,26.32,0,0,1,9.21,11.76,25.87,25.87,0,0,1,1.28,15,67.86,67.86,0,0,1-1.89,6.87q-1.16,3.33-2.56,6.53c-3.69,8.55-8.59,16.3-13,24.1a175.36,175.36,0,0,0-11.72,23.95,73.3,73.3,0,0,0-5.22,25.64,47.38,47.38,0,0,0,1.28,12.93A22.13,22.13,0,0,0,345.18,293a1.37,1.37,0,0,1-1.8,2.06Z"/><path class="cls-15" d="M567.16,281l-21.43,8.29-21.46,8.21-21.47,8.17-21.51,8.07a2.47,2.47,0,0,1-.42.12h0a24.49,24.49,0,0,1-21.67-6.59,25.51,25.51,0,0,1-3.66-4.64,27.15,27.15,0,0,1-1.4-2.61c-.37-.9-.78-1.88-1-2.65l-3.5-9.8c-4.65-13.08-9.08-26.23-13.55-39.37l-13.27-39.47-1.66-4.93-.83-2.47-.41-1.24c-.14-.48-.3-1-.4-1.46A13.74,13.74,0,0,1,422,187.19a11.78,11.78,0,0,1,2.14-2.12,12.1,12.1,0,0,1,2.56-1.56,11.51,11.51,0,0,1,5.91-1,15.56,15.56,0,0,1,5.49,1.63,29.43,29.43,0,0,1,4.63,2.94,1.37,1.37,0,0,1-1.6,2.22l0,0c-2.71-1.87-5.72-3.47-8.73-3.59a8.17,8.17,0,0,0-4.2.88,9.52,9.52,0,0,0-3.3,2.81,10,10,0,0,0-1.53,8.31c.08.36.21.7.32,1l.45,1.21.9,2.44,1.8,4.88,14.41,39.07c4.76,13,9.56,26.06,14.14,39.16l3.42,9.83c.29.88.57,1.49.84,2.2a21.32,21.32,0,0,0,1,2,19.62,19.62,0,0,0,2.7,3.57,18.84,18.84,0,0,0,16.55,5.36l-.44.12,21.66-7.66,21.69-7.56,21.71-7.52,21.74-7.44a1.37,1.37,0,0,1,.94,2.57Z"/><path class="cls-15" d="M490,167.53a12.58,12.58,0,0,0-.43-1.66,17.18,17.18,0,0,0-.71-1.71,19.91,19.91,0,0,0-1.94-3.2l-1.17-1.48-1.33-1.35c-.22-.22-.44-.46-.67-.67l-.74-.6-1.48-1.2q-1.59-1.07-3.22-2.08l-3.45-1.74-3.62-1.4a15.54,15.54,0,0,0-1.86-.59l-1.88-.53-1.88-.53-1.93-.37-3.85-.76-3.91-.47c-1.31-.14-2.6-.37-3.92-.39l-4-.2c-1.32-.07-2.63-.15-3.94-.14a49.6,49.6,0,0,0-7.68.55,23.19,23.19,0,0,0-7,2.12,11,11,0,0,0-4.7,4.48l-.2.35-.14.38-.3.76a7.17,7.17,0,0,0-.41,1.53,15.09,15.09,0,0,0-.13,3.5,29.51,29.51,0,0,0,.37,3.66,36.64,36.64,0,0,0,.87,3.63,61.11,61.11,0,0,0,6.48,14c2.7,4.51,5.72,8.92,8.64,13.53,1.47,2.33,2.84,4.66,4.21,7l4.13,6.92,8.19,13.88,16.31,27.8,8.12,13.92,4.06,7c.34.56.68,1.21,1,1.69l1,1.49a20,20,0,0,0,2.34,2.64,18.79,18.79,0,0,0,5.94,3.8,19.78,19.78,0,0,0,7,1.32,19.12,19.12,0,0,0,13.08-5.12l-.39.5,13.94-23.76,14-23.7a1.37,1.37,0,0,1,2.38,1.36l-13.23,24.17-13.34,24.1a2,2,0,0,1-.36.47l0,0a23.72,23.72,0,0,1-16.06,6.74,24.66,24.66,0,0,1-8.8-1.44,23.88,23.88,0,0,1-7.67-4.64,25.19,25.19,0,0,1-3.08-3.3l-1.27-1.86c-.43-.63-.72-1.16-1.09-1.75l-4.19-6.89-8.38-13.77c-5.6-9.17-11.16-18.37-16.55-27.67L435.1,197.93c-2.76-4.51-5.75-9-8.49-13.78a66.23,66.23,0,0,1-6.79-15.32,41.8,41.8,0,0,1-.94-4.21,34.6,34.6,0,0,1-.37-4.35,19.82,19.82,0,0,1,.27-4.53,11.62,11.62,0,0,1,.66-2.34l.47-1.11.24-.55.31-.52a15.9,15.9,0,0,1,6.89-6.35,27.74,27.74,0,0,1,8.44-2.4,54,54,0,0,1,8.4-.41c1.38,0,2.75.13,4.11.24l4.09.31c1.36.06,2.72.32,4.08.5l4.07.59,4,.91,2,.46,2,.63,2,.63a17.36,17.36,0,0,1,2,.69l3.84,1.63,3.69,2c1.17.77,2.33,1.58,3.47,2.4,4.36,3.56,8.2,8.11,9.22,14.2a1.36,1.36,0,0,1-2.69.45h0Z"/><path class="cls-15" d="M492.72,120a17.45,17.45,0,0,1-.19,9.28,6.15,6.15,0,0,1-.43,1.15c-.17.37-.34.75-.53,1.12a14.1,14.1,0,0,1-1.41,2,15.47,15.47,0,0,1-1.72,1.77,17.49,17.49,0,0,1-2,1.41,26.17,26.17,0,0,1-8.71,3.19,50.89,50.89,0,0,1-8.94.83,60.73,60.73,0,0,1-8.93-.56L451.39,139c-5.65-.85-11.31-1.63-16.94-2.54q-4.23-.64-8.45-1.38c-2.82-.47-5.62-1-8.43-1.52L409.14,132c-1.42-.27-2.74-.48-4.39-.88a22.92,22.92,0,0,1-4.5-1.72,22.32,22.32,0,0,1-7.38-6,21.89,21.89,0,0,1-2.51-4l-.49-1.08-.41-1.11c-.27-.72-.44-1.31-.7-2a21.77,21.77,0,0,0-3.87-6.81,9.06,9.06,0,0,0-6.35-3.27h0a1.37,1.37,0,0,1,0-2.74,11.16,11.16,0,0,1,4.8.89,13.54,13.54,0,0,1,4,2.72,24.54,24.54,0,0,1,5.12,7.66c.32.66.6,1.43.87,2l.39.87.45.84a19.5,19.5,0,0,0,2.18,3.1,17.53,17.53,0,0,0,6,4.43,17.83,17.83,0,0,0,3.55,1.15c1.14.22,2.65.41,4,.61l8.49,1.2c2.83.4,5.66.79,8.48,1.25s5.64.88,8.46,1.38c5.64.94,11.25,2,16.88,3l8.43,1.54a62.64,62.64,0,0,0,8.13.86,46.31,46.31,0,0,0,8.13-.31,22.09,22.09,0,0,0,7.43-2.25,16.91,16.91,0,0,0,1.58-1,11.81,11.81,0,0,0,1.35-1.21,10.5,10.5,0,0,0,1.13-1.4c.16-.26.29-.53.44-.79a3.86,3.86,0,0,0,.38-.83,15.14,15.14,0,0,0,.7-7.64,1.37,1.37,0,0,1,2.69-.5Z"/><path class="cls-15" d="M564.52,201.78c11.1,15.05,19.59,31.7,26.32,49.08A214.88,214.88,0,0,1,599,277.59l.81,3.41c.27,1.14.46,2.29.7,3.43l.68,3.44.34,1.72.27,1.73,1.05,6.94.72,7c.14,1.16.2,2.33.26,3.5l.19,3.51.16,3.51v8.79l-.1,1.76-.42,7c-.2,2.33-.51,4.66-.76,7-.14,1.16-.24,2.33-.42,3.49l-.59,3.46c-.42,2.3-.72,4.63-1.25,6.91L599.09,361a167.48,167.48,0,0,1-9,26.48l-1.39,3.21-.69,1.6-.79,1.56L584,400.08c-1,2.1-2.24,4.07-3.41,6.08l-3.54,6a1.37,1.37,0,0,1-2.38-1.35l0,0a189.9,189.9,0,0,0,19.5-50.9l1.32-6.68c.25-1.11.37-2.24.54-3.36l.48-3.37.48-3.37c.14-1.12.21-2.26.32-3.39.18-2.26.43-4.51.56-6.78a221.91,221.91,0,0,0-.35-27.17,210.69,210.69,0,0,0-11.34-53.21,230.41,230.41,0,0,0-10.48-25.29c-1-2.07-2-4.09-3.05-6.14s-2.13-4-3.26-6c-2.24-4-4.59-7.94-7.11-11.67l0-.06a1.37,1.37,0,0,1,2.23-1.58Z"/><path class="cls-15" d="M432.44,348c3-4.62,6-9.19,9-13.78l2.28-3.42,1.14-1.71c.2-.29.36-.56.58-.87l.68-.93a18.35,18.35,0,0,1,7.34-5.73,19.15,19.15,0,0,1,18.17,2.08A18.55,18.55,0,0,1,477.8,331a18.07,18.07,0,0,1,1.47,4.64,20.23,20.23,0,0,1,.27,2.4c0,.8,0,1.63,0,2.27q-.06,4.11-.22,8.21c-.08,2.74-.23,5.47-.36,8.21l-.83,16.42c-.57,10.94-1.21,21.88-2,32.82a1.37,1.37,0,0,1-2.74-.07c-.21-11-.26-21.92-.25-32.88l0-16.44c0-2.74,0-5.48.08-8.22s.11-5.48.22-8.21c0-.73,0-1.28,0-1.84a14.2,14.2,0,0,0-.16-1.68,12.45,12.45,0,0,0-.9-3.2,12.79,12.79,0,0,0-4.11-5.21,14.1,14.1,0,0,0-13.09-2.07,13.65,13.65,0,0,0-5.69,4l-.57.7c-.19.24-.41.54-.61.8l-1.23,1.64-2.47,3.29c-3.33,4.35-6.63,8.73-10,13.05a1.37,1.37,0,0,1-2.23-1.58Z"/><path class="cls-15" d="M385.69,122.42c1.27,6.35,3.17,12.73,4.08,19.42a44.63,44.63,0,0,1,.36,10.26A24.6,24.6,0,0,1,387,162.23,26.35,26.35,0,0,1,379.7,170a36.69,36.69,0,0,1-9.29,4.75c-1.62.62-3.28,1-4.94,1.5s-3.34.77-5,1a71,71,0,0,1-20.39.16,44.54,44.54,0,0,1-10.16-2.51,21,21,0,0,1-4.89-2.71,20.14,20.14,0,0,1-4-4,31.46,31.46,0,0,1-4.7-9.68,69.91,69.91,0,0,1-2.55-20.37,99.83,99.83,0,0,1,.58-10.16,72.64,72.64,0,0,1,1.82-10.1,90.71,90.71,0,0,1,7.3-19c1.53-3,3.16-5.93,4.85-8.8l2.55-4.28,1.3-2.11q.68-1.08,1.38-2.16A55.84,55.84,0,0,1,340,73.3a38.94,38.94,0,0,1,4-3.56l1.08-.8,1.09-.73c.73-.48,1.44-1,2.2-1.41a51.92,51.92,0,0,1,9.37-4.48,57.9,57.9,0,0,1,10-2.68,53.88,53.88,0,0,1,20.58.42c.85.15,1.68.43,2.52.64L392,61c.39.12.91.31,1.35.47a14,14,0,0,1,4.84,3.29,13.76,13.76,0,0,1,3.06,5,13.46,13.46,0,0,1,.66,2.85,12.81,12.81,0,0,1,.1,1.46c0,.48,0,.83,0,1.25a89.81,89.81,0,0,0,.56,9.63,51.82,51.82,0,0,0,1.86,9.32,22,22,0,0,0,4.13,8,9.79,9.79,0,0,0,7.44,3.51,1.78,1.78,0,0,1,.34,0,16.41,16.41,0,0,0,3,.32,15.45,15.45,0,0,0,3-.23,10.67,10.67,0,0,0,2.74-.93,8.11,8.11,0,0,0,2.19-1.73l.08-.08a1.37,1.37,0,0,1,2,1.82,10.89,10.89,0,0,1-2.93,2.5,13.57,13.57,0,0,1-3.51,1.34,18.43,18.43,0,0,1-3.62.41,19.22,19.22,0,0,1-3.66-.28l.34,0a13.12,13.12,0,0,1-5.49-1.06,13.94,13.94,0,0,1-4.55-3.26,25,25,0,0,1-5.13-9.25,55.63,55.63,0,0,1-2.24-10,93.89,93.89,0,0,1-.83-10.06c0-.4,0-.88,0-1.22a8.43,8.43,0,0,0-.1-1,9.12,9.12,0,0,0-.5-1.93A9.33,9.33,0,0,0,395,67.95a9.47,9.47,0,0,0-3.32-2.14c-.33-.11-.58-.2-1-.32l-1.14-.29c-.76-.17-1.5-.41-2.28-.52a48.94,48.94,0,0,0-18.67.07,51.62,51.62,0,0,0-17.36,6.79c-.68.39-1.3.85-1.94,1.29l-1,.66-.89.69a33.27,33.27,0,0,0-3.32,3.09,50.06,50.06,0,0,0-5.66,7.4c-6.73,11.05-13.37,22.39-16.51,34.63a74.22,74.22,0,0,0-1.78,9.3,94.06,94.06,0,0,0-.69,9.54,64.52,64.52,0,0,0,2,18.73,26.18,26.18,0,0,0,3.73,8.07,14.84,14.84,0,0,0,6.58,5.12,39.77,39.77,0,0,0,8.94,2.32,62.51,62.51,0,0,0,9.47.81,60.72,60.72,0,0,0,9.5-.55c1.58-.17,3.12-.52,4.67-.81s3.06-.74,4.53-1.27a32.46,32.46,0,0,0,8.33-4,22.34,22.34,0,0,0,6.29-6.37,20.82,20.82,0,0,0,2.91-8.51,41.23,41.23,0,0,0-.05-9.44c-.67-6.4-2.34-12.75-3.46-19.34a1.37,1.37,0,0,1,2.69-.5Z"/><path class="cls-15" d="M457.69,62.7a19.7,19.7,0,0,1-3.47,1.82,14.18,14.18,0,0,1-4,1,6.59,6.59,0,0,1-1.15,0,5.79,5.79,0,0,1-1.22-.15,5.12,5.12,0,0,1-1.26-.39,6,6,0,0,1-2.25-1.65,11.52,11.52,0,0,1-.74-1q-.5-.74-1-1.4a8,8,0,0,0-1.88-2,2.1,2.1,0,0,0-1.61-.3,7.88,7.88,0,0,0-2.46.86c-.45.2-.91.49-1.37.75-.17.11-.58.31-1,.49l-1.11.52a9.41,9.41,0,0,1-5.27.29,10.4,10.4,0,0,1-4.35-2.44,16.53,16.53,0,0,1-4.38-7.38,14.71,14.71,0,0,1-.45-2.17,9.47,9.47,0,0,1,0-2.33c0-.34.09-.69.15-1l.15-.74a9.34,9.34,0,0,0,.08-1.48,14.66,14.66,0,0,0-.4-3.13,6.15,6.15,0,0,0-.46-1.3c-.19-.38-.33-.49-.29-.54a1.37,1.37,0,0,1,.22-2.73,5,5,0,0,1,.87.17,6.07,6.07,0,0,1,.73.36c.19.14.38.29.56.45s.29.31.43.47A8.92,8.92,0,0,1,422,39.78a16.18,16.18,0,0,1,1.18,3.91,13.65,13.65,0,0,1,.22,2.13c0,.19,0,.41,0,.62l0,.44c0,.26,0,.52,0,.77a4.41,4.41,0,0,0,.17,1.27,10.28,10.28,0,0,0,.46,1.33,12,12,0,0,0,3.43,4.6,5.29,5.29,0,0,0,2,.92,4.25,4.25,0,0,0,1.85-.13l.53-.23a5,5,0,0,0,.68-.3c.61-.3,1.2-.6,1.87-.85a13.1,13.1,0,0,1,4.47-1.08,10.18,10.18,0,0,1,1.34,0,10.52,10.52,0,0,1,1.39.3,7.66,7.66,0,0,1,2.43,1.34,12.27,12.27,0,0,1,2.81,3.5c.33.57.63,1.13.91,1.68.17.35.22.37.29.5a.79.79,0,0,0,.23.31,2.81,2.81,0,0,0,2,.72,16,16,0,0,0,6.26-1.27l.09,0a1.37,1.37,0,0,1,1.23,2.43Z"/><path class="cls-15" d="M409,62.55a17.44,17.44,0,0,1-3.36-3.94,16.71,16.71,0,0,1-2-4.76,15.45,15.45,0,0,1-.39-5.23,12.39,12.39,0,0,1,1.49-5.27A6,6,0,0,1,407.18,41a5.67,5.67,0,0,1,3.53-.27A8.38,8.38,0,0,1,413.49,42a11.56,11.56,0,0,1,2.17,1.81l.24.26s.1.12.1.1a.56.56,0,0,0-.1-.12c-.22-.14-.26-.19-.38-.2s.17,0,.45-.06a16.93,16.93,0,0,0,2-.52c1.45-.45,3-1,4.55-1.39a42.87,42.87,0,0,1,9.78-1.66,35.28,35.28,0,0,1,10,1A46.13,46.13,0,0,1,460,50.23l-.6-.38c-.08,0,0,0,0,0l.09,0,.22,0a1.65,1.65,0,0,0,.43,0,1.21,1.21,0,0,0,.65-.18,3.31,3.31,0,0,0,1.17-1.62l.26-.67.19-.77a11.74,11.74,0,0,0,.29-1.65,15.36,15.36,0,0,0,.15-1.76l.05-.89,0-.82a26.16,26.16,0,0,0-1.38-6.89,38.2,38.2,0,0,0-12.59-17.59,31.08,31.08,0,0,0-6.24-3.7,32.33,32.33,0,0,0-7-2.13,39.35,39.35,0,0,0-14.79.26,30.24,30.24,0,0,0-7,2.16A20.64,20.64,0,0,0,408,17.74c-3.42,3.36-5.51,8-6.58,13a46.39,46.39,0,0,0-.63,15.21V46a1.37,1.37,0,0,1-2.71.42,48.12,48.12,0,0,1-.79-8.18A46.5,46.5,0,0,1,397.9,30a35.33,35.33,0,0,1,2.36-8,25.89,25.89,0,0,1,4.65-7.21,24.38,24.38,0,0,1,6.91-5.24,35,35,0,0,1,8-2.8,48.27,48.27,0,0,1,8.28-1.21,38.34,38.34,0,0,1,16.72,2.66,36.85,36.85,0,0,1,7.51,4.16A40.45,40.45,0,0,1,463.72,25a42.48,42.48,0,0,1,3.48,7.8,29.85,29.85,0,0,1,1.56,8.65v1.16l-.09,1.09a20.49,20.49,0,0,1-.24,2.19,17.09,17.09,0,0,1-.46,2.25c-.11.38-.2.76-.32,1.14l-.47,1.17a7.66,7.66,0,0,1-.61,1.18l-.35.59c-.14.19-.3.39-.46.58l-.48.56c-.17.18-.39.35-.59.52s-.4.34-.63.49l-.72.41a7.17,7.17,0,0,1-1.55.58,7.83,7.83,0,0,1-1.6.18,7.13,7.13,0,0,1-1.54-.14,6.79,6.79,0,0,1-.75-.18l-.38-.12c-.14-.05-.24-.08-.47-.19a2.72,2.72,0,0,1-.6-.38,40.86,40.86,0,0,0-15.37-8.45,32.14,32.14,0,0,0-8.63-1.11,38.24,38.24,0,0,0-8.8,1.17c-1.47.35-2.94.78-4.5,1.2a20.09,20.09,0,0,1-2.59.56,5.9,5.9,0,0,1-1.89,0,3.32,3.32,0,0,1-1.42-.71c-.12-.1-.23-.2-.33-.31l-.1-.12-.15-.18a6.59,6.59,0,0,0-2.87-2,1.92,1.92,0,0,0-1.09,0,2.29,2.29,0,0,0-.89.81A9.08,9.08,0,0,0,406.63,49a12.08,12.08,0,0,0,.1,4.13,14.23,14.23,0,0,0,1.45,4,14.94,14.94,0,0,0,2.53,3.37l.08.08a1.36,1.36,0,0,1-1.84,2Z"/><path class="cls-15" d="M417.22,54.29c-.41,3.52-.78,7.09-.85,10.58a31.77,31.77,0,0,0,.18,5.05,8.15,8.15,0,0,0,.21,1.1,7.28,7.28,0,0,0,.33,1.05,19.69,19.69,0,0,0,1,2.18c3,5.79,8.29,10.6,14.23,11.53l.55.11.63.08,1.24.13c.82.09,1.63.15,2.42.17a16.83,16.83,0,0,0,2.2-.09l.69-.1a4.62,4.62,0,0,1,1.84.11,4.65,4.65,0,0,1,3,6.4l-.21.41c-.13.26-.28.51-.43.76a11.24,11.24,0,0,1-2.34,2.73,10.84,10.84,0,0,1-6.53,2.41,23.3,23.3,0,0,1-3.09-.14l-1.49-.22c-.49-.09-1-.22-1.48-.32a18.81,18.81,0,0,1-5.56-2.4,15.85,15.85,0,0,1-4.43-4.16A14,14,0,0,1,417,86.1a1.37,1.37,0,0,1,2.66-.67v0a12.1,12.1,0,0,0,6.15,6.87,16.1,16.1,0,0,0,4.5,1.43c.4.05.79.12,1.18.16l1.2.08a18.87,18.87,0,0,0,2.32-.08,5.69,5.69,0,0,0,3.35-1.51,5.77,5.77,0,0,0,1-1.45c.07-.15.14-.28.2-.44l.08-.2a.94.94,0,0,0-.08.19,1.13,1.13,0,0,0,.79,1.38,1.34,1.34,0,0,0,.5.05l-.22,0-.42.08a17.7,17.7,0,0,1-3.19.26c-1,0-2-.05-3-.14-.48-.05-1-.12-1.44-.18l-.71-.11-.77-.16A22,22,0,0,1,420.34,86a26.69,26.69,0,0,1-3.87-4.54,28.43,28.43,0,0,1-2.86-5.17,24.29,24.29,0,0,1-1-2.85,13.83,13.83,0,0,1-.5-3.14,35.75,35.75,0,0,1,.27-5.75,85.17,85.17,0,0,1,2.14-10.83,1.37,1.37,0,0,1,2.68.51Z"/><path class="cls-15" d="M398.32,216.92c-2.84-1.18-5.7-2.3-8.64-3.2a86,86,0,0,0-8.9-2.32c-3-.63-6-1.13-9.06-1.46a71.38,71.38,0,0,0-9-.49,2.32,2.32,0,0,1-1.46-4.16l0,0c9.17-7,18.46-13.78,27.68-20.67l3.47-2.58,1.73-1.29.86-.64.7-.59a12.47,12.47,0,0,0,4-5.57,23.65,23.65,0,0,0,1.09-7.48c0-2.74-.08-5.66.09-8.7a33.26,33.26,0,0,1,1.68-9.23,41.12,41.12,0,0,1,4-8.3,60.64,60.64,0,0,1,11.7-13.6,54.18,54.18,0,0,1,15.16-9.45,33,33,0,0,1,17.77-2.31,1.37,1.37,0,0,1-.37,2.72h0A30.53,30.53,0,0,0,435,120.62a52.2,52.2,0,0,0-13.57,9.4,55.72,55.72,0,0,0-10.23,12.88,35.86,35.86,0,0,0-3.24,7.32,27.45,27.45,0,0,0-1.13,7.73c0,2.71.11,5.54.09,8.55a26.92,26.92,0,0,1-1.44,9.5,18.26,18.26,0,0,1-6,8.14l-1,.76-.89.62-1.76,1.24-3.53,2.48C382.86,195.82,373.5,202.49,364,209l-1.41-4.19a75,75,0,0,1,9.67.92,87,87,0,0,1,9.38,1.95,89.58,89.58,0,0,1,9.11,2.91,84,84,0,0,1,8.73,3.86,1.37,1.37,0,0,1-1.13,2.49Z"/><path class="cls-15" d="M354.05,339.77a42.22,42.22,0,0,0,.51,9.26,64.12,64.12,0,0,0,2,9.18,34.78,34.78,0,0,0,3.63,8.38c1.54,2.5,3.74,4.45,5.93,4.38a6.53,6.53,0,0,0,3.46-1.19,5.6,5.6,0,0,0,.85-.59c.27-.22.58-.41.83-.65.49-.5,1-1,1.48-1.48a17.21,17.21,0,0,0,3.57-7.69,34.07,34.07,0,0,0,.53-9,62.68,62.68,0,0,0-1.29-9.19c-.32-1.53-.69-3-1.1-4.56-.21-.75-.4-1.51-.63-2.26l-.69-2.32a38,38,0,0,1-1.51-10.21A37.12,37.12,0,0,1,373,311.54l2.85-9.25c3.83-12.28,7.58-24.59,11.48-36.85q2.88-9.21,5.86-18.39l6-18.35,6-18.33,3-9.16.76-2.29.36-1.11a6.26,6.26,0,0,0,.2-.8,5.57,5.57,0,0,0-5.94-6.42,5.74,5.74,0,0,0-3.14,1.23l-.33.28-.44.41-.88.83L397.08,195,383,208.21q-14,13.25-28.21,26.34a1.37,1.37,0,0,1-1.9-2q13.64-13.65,27.35-27.23L394,191.77l1.72-1.7.86-.85.43-.42.57-.52a10.4,10.4,0,0,1,16,3.3,10.62,10.62,0,0,1,1,6.15,11.39,11.39,0,0,1-.33,1.55l-.36,1.19-.7,2.31L410.38,212l-5.68,18.43L399,248.86q-2.88,9.2-5.85,18.38c-3.91,12.25-8,24.45-12,36.68l-3,9.14a31.87,31.87,0,0,0-1.27,8.76,32.88,32.88,0,0,0,1.17,8.84l.65,2.32c.23.79.42,1.6.63,2.39.39,1.6.75,3.22,1,4.85a67.42,67.42,0,0,1,1.15,9.93,38.53,38.53,0,0,1-.86,10.19,21.51,21.51,0,0,1-4.74,9.5c-.63.66-1.32,1.26-2,1.89-.34.3-.72.54-1.08.81a8.56,8.56,0,0,1-1.15.75,10.48,10.48,0,0,1-5.62,1.66,8.9,8.9,0,0,1-5.6-2.22,16,16,0,0,1-3.43-4.21,38.15,38.15,0,0,1-3.73-9.39,67.27,67.27,0,0,1-1.82-9.71,44.58,44.58,0,0,1-.19-10,1.37,1.37,0,0,1,2.72.26Z"/><path class="cls-15" d="M315.64,301.73c.8,1.95,3.14,3,5.56,3.29a12.14,12.14,0,0,0,1.84.09l2.07-.07c1.41,0,2.83-.07,4.26-.06a46.9,46.9,0,0,1,8.72.82,23.08,23.08,0,0,1,8.55,3.46,20.81,20.81,0,0,1,6.32,7l1,2.07c.34.69.58,1.29.88,1.94l1.7,3.83,3.37,7.67,1.67,3.79a15.2,15.2,0,0,0,1.8,3,14.8,14.8,0,0,0,5.34,4.32A15.64,15.64,0,0,0,372,344a14.67,14.67,0,0,0,1.71.28,8.28,8.28,0,0,0,.87.06l1,.06a20.43,20.43,0,0,1,16.28,9.17,27.18,27.18,0,0,1,2.11,4.08l1.71,3.82c.28.61.58,1.34.84,1.83.14.27.26.55.41.81l.47.78a14.89,14.89,0,0,0,2.3,2.82,14.55,14.55,0,0,0,2.91,2.24,14.77,14.77,0,0,0,3.38,1.51,16.4,16.4,0,0,0,7.43.51l.18,0h0l7.25-.33a1.37,1.37,0,0,1,.23,2.73l-7.2.91.2,0A19.61,19.61,0,0,1,396.75,371a19.41,19.41,0,0,1-3.17-3.49l-.66-1c-.21-.33-.39-.69-.59-1-.42-.73-.67-1.28-1-1.93l-1.89-3.73a21.94,21.94,0,0,0-1.88-3.27,15.24,15.24,0,0,0-5.33-4.57,14.83,14.83,0,0,0-6.75-1.61l-1.08,0c-.41,0-.82,0-1.22-.07a20.73,20.73,0,0,1-2.42-.36,21.7,21.7,0,0,1-4.64-1.56,20.6,20.6,0,0,1-7.48-6.2,19.71,19.71,0,0,1-2.42-4.24L354.62,334l-3.13-7.77-1.55-3.89c-.26-.63-.51-1.34-.77-1.91l-.77-1.7a16.64,16.64,0,0,0-4.56-5.55c-3.84-3-9.23-3.9-14.62-4.25-1.36-.1-2.73-.17-4.11-.22l-2.11-.08a15.53,15.53,0,0,1-2.32-.27,12.38,12.38,0,0,1-4.46-1.72,7.59,7.59,0,0,1-3.14-4,1.37,1.37,0,0,1,2.57-.94Z"/><path class="cls-15" d="M363.27,353.78A103.19,103.19,0,0,1,360,371a52.65,52.65,0,0,1-7.27,16.35,21.11,21.11,0,0,1-7.06,6.49,15.28,15.28,0,0,1-9.94,1.43c-.41-.08-.84-.12-1.23-.24l-1.17-.37-1.17-.38-1.09-.49a21.21,21.21,0,0,1-4.22-2.44,28.24,28.24,0,0,1-6.46-6.9,50.22,50.22,0,0,1-4.46-7.94c-.66-1.36-1.18-2.75-1.77-4.13s-1.06-2.78-1.51-4.19a129.08,129.08,0,0,1-4.38-17.09q-1.62-8.63-2.41-17.34c-.53-5.81-.91-11.58-1-17.47v-.06a2.65,2.65,0,0,1,2.59-2.7,2.69,2.69,0,0,1,1.26.29L332.45,326l.08,0a2.15,2.15,0,0,1,1.08,2.53l-4.75,15.86L324,360.23a1.37,1.37,0,0,1-2.64-.73l3.95-16.08,4-16.06,1.16,2.57-24.15-11.29,3.85-2.47c.28,5.61.82,11.34,1.5,17s1.51,11.28,2.59,16.84a145.11,145.11,0,0,0,3.94,16.42c.39,1.35.88,2.65,1.31,4s1,2.61,1.54,3.85a44.74,44.74,0,0,0,3.8,7.2,23,23,0,0,0,5.13,5.8,17.82,17.82,0,0,0,6.7,3.18,10.39,10.39,0,0,0,6.86-.7,16.68,16.68,0,0,0,5.69-4.93c3.26-4.24,5.47-9.49,7.27-14.81a109.39,109.39,0,0,0,4-16.5v0a1.37,1.37,0,0,1,2.71.36Z"/><path class="cls-15" d="M382.61,325.33c1.3-4.54,2.69-9.05,4-13.57l4.21-13.52c2.85-9,5.73-18,8.73-26.93q1.11-3.36,2.32-6.68c.78-2.23,1.62-4.43,2.45-6.64l5-13.24c3.36-8.82,6.77-17.62,10.35-26.37a1.37,1.37,0,0,1,2.59.9c-2.62,9.08-5.39,18.1-8.22,27.11l-4.27,13.5c-.72,2.25-1.42,4.5-2.19,6.73s-1.51,4.47-2.32,6.69c-3.19,8.88-6.49,17.72-9.83,26.55l-5.07,13.22c-1.74,4.39-3.44,8.79-5.23,13.16a1.37,1.37,0,0,1-2.58-.9Z"/><path class="cls-15" d="M389.81,339.3c-.41-4-.54-8.08-1.14-12.1-.26-2-.4-4-.75-6l-.94-6c-1.39-8-3-15.89-4.93-23.76-1-3.92-1.83-7.88-2.78-11.82s-1.94-7.87-3-11.81c-2.1-7.84-4.36-15.68-6.83-23.4v0a1.37,1.37,0,0,1,2.55-1c1.75,3.76,3.34,7.54,4.82,11.38s2.9,7.7,4.24,11.59,2.59,7.82,3.75,11.77l.89,3c.29,1,.52,2,.78,3,.51,2,1,4,1.44,6a231.3,231.3,0,0,1,3.88,24.45,170.49,170.49,0,0,1,.7,24.76,1.37,1.37,0,0,1-2.73.07Z"/><path class="cls-15" d="M332.8,251.78l-3.08.88a16.25,16.25,0,0,1-3.35.67,8.66,8.66,0,0,1-1.83,0,8,8,0,0,1-.93-.11l-.93-.24a4.35,4.35,0,0,1-.91-.34,9,9,0,0,1-.88-.42,8.65,8.65,0,0,1-1.56-1.18,11.73,11.73,0,0,1-3.26-6.5,22.65,22.65,0,0,1-.17-6.84,190.42,190.42,0,0,1,5.19-24.94c1.08-4.08,2.32-8.12,3.41-12.11.54-2,1-4,1.38-5.89a19.87,19.87,0,0,0,.31-2.73,4.89,4.89,0,0,0-.25-1.9c-.18-.31-.16-.28-.6-.46l-.16-.06-.23,0a2.57,2.57,0,0,0-.49-.06l-.56,0h-.84a30.58,30.58,0,0,1-6.88-.86c-1.12-.31-2.23-.7-3.34-1.05s-2.14-1-3.21-1.45-2-1.23-3-1.85-1.83-1.46-2.74-2.19-1.64-1.65-2.45-2.48-1.44-1.81-2.15-2.72L297.48,174,296,170.92a40.16,40.16,0,0,1-3.28-13.09,43.15,43.15,0,0,1,1-13.38,51.06,51.06,0,0,1,4.66-12.35,73,73,0,0,1,16.17-20.16,138,138,0,0,1,20.56-15,1.37,1.37,0,0,1,1.5,2.3,147.63,147.63,0,0,0-19.3,15.64,71.2,71.2,0,0,0-14.47,19.47,47.3,47.3,0,0,0-3.84,11.27,37.65,37.65,0,0,0,2.55,22.82,28.85,28.85,0,0,0,6.53,9.19,23.65,23.65,0,0,0,9.64,5.34,24.78,24.78,0,0,0,5.57.83l.73,0,1,.06A7.56,7.56,0,0,1,326,184l.55.11.59.2a5.29,5.29,0,0,1,1.18.53l.59.36a6.63,6.63,0,0,1,.55.46c.18.16.36.33.52.5s.29.38.42.57a5.27,5.27,0,0,1,.64,1.19,10.11,10.11,0,0,1,.61,4.28,25.11,25.11,0,0,1-.48,3.51c-.45,2.21-1,4.28-1.64,6.33-1.23,4.08-2.5,8.05-3.74,12a186.46,186.46,0,0,0-6,24.12,19.53,19.53,0,0,0-.13,5.69,8.29,8.29,0,0,0,2,4.7,5.61,5.61,0,0,0,4.49,1.63,13.58,13.58,0,0,0,2.84-.42l3-.67h.06a1.37,1.37,0,0,1,.67,2.65Z"/><path class="cls-15" d="M544.79,554c-4.84-5.85-10.13-11.48-15.52-16.93s-11-10.74-16.7-15.85a426.06,426.06,0,0,0-35.77-28.93,443.87,443.87,0,0,0-38.49-25.13c-13.26-7.68-27-14.57-40.89-20.9s-28.28-11.72-42.78-16.64l-10.95-3.46c-1.82-.61-3.68-1.07-5.52-1.58l-5.54-1.51-5.54-1.51c-1.84-.52-3.73-.88-5.59-1.33l-11.2-2.58a430,430,0,0,0-91.49-8.59h0a1.37,1.37,0,0,1-.08-2.74,412,412,0,0,1,92.54,6.47l11.39,2.37c1.89.42,3.81.74,5.69,1.23l5.64,1.44,5.64,1.44c1.88.49,3.77.92,5.62,1.51l11.16,3.34,2.79.84,2.75.94,5.51,1.89,5.51,1.9c1.84.62,3.62,1.39,5.44,2.08,3.61,1.43,7.24,2.8,10.84,4.27l10.66,4.69a431.16,431.16,0,0,1,115.35,77.56c5.66,5.29,11.1,10.82,16.42,16.44s10.44,11.43,15.26,17.59a1.37,1.37,0,0,1-2.13,1.71Z"/><path class="cls-15" d="M454.1,38a38.12,38.12,0,0,0-4.54-7.89,35.9,35.9,0,0,0-6.14-6.49,54.36,54.36,0,0,0-7.08-5.47l-1-.62c-.32-.21-.68-.36-1-.54-.69-.34-1.36-.72-2-1.09-1.39-.69-2.85-1.25-4.29-2l-.16-.08a1.37,1.37,0,0,1,.79-2.59,49.89,49.89,0,0,1,5,.83,33.08,33.08,0,0,1,4.91,1.58c.8.34,1.61.65,2.4,1s1.54.83,2.3,1.26a15.79,15.79,0,0,1,2.2,1.45,16.89,16.89,0,0,1,2,1.69,31.88,31.88,0,0,1,6.23,8.43,27.46,27.46,0,0,1,3,9.94,1.37,1.37,0,0,1-2.62.66Z"/><path class="cls-15" d="M442.06,36.09a43.48,43.48,0,0,1-8.3-2,44.09,44.09,0,0,1-7.9-3.5,18.64,18.64,0,0,1-3.54-2.71,23.92,23.92,0,0,1-3-3.46,15.12,15.12,0,0,1-2.15-4.25,10.44,10.44,0,0,1-.41-4.79,1.39,1.39,0,0,1,2.72-.09l0,.09a11.3,11.3,0,0,0,3.64,5.79,49.49,49.49,0,0,0,6,4.29c2.07,1.47,4.31,2.84,6.62,4.16s4.71,2.57,7.07,3.82l.05,0a1.38,1.38,0,0,1-.82,2.6Z"/><path class="cls-15" d="M741,380c-10.81-1.37-21.65-2.66-32.48-3.94s-21.66-2.61-32.49-3.86l-32.5-3.74-32.51-3.52-16.25-1.78c-5.42-.56-10.83-1.2-16.25-1.81L562.3,359.6q-8.13-.87-16.26-1.63c-21.68-2.08-43.41-3.86-65.16-4.45h0a1.37,1.37,0,0,1,0-2.74l16.42-.05,16.4.49c10.92.5,21.84,1,32.74,1.81,21.81,1.48,43.58,3.34,65.28,5.86s43.34,5.4,65,8.42q16.21,2.33,32.4,4.77t32.34,5.19a1.37,1.37,0,0,1-.4,2.7Z"/><path class="cls-15" d="M429.63,385.54c1.31,2.84,2.86,5.7,4.46,8.46s3.32,5.48,5.12,8.13A135.5,135.5,0,0,0,451,417.18c8.55,9.44,18.64,17.52,30,22.85a72.92,72.92,0,0,0,36.47,7.09l4.68-.38c1.55-.19,3.1-.49,4.65-.72l2.32-.37,2.29-.55,4.58-1.1,4.5-1.44,2.25-.72,2.37-.79A87.56,87.56,0,0,1,555,438.5,79.61,79.61,0,0,1,575,437.1a76.89,76.89,0,0,1,10,1.25c1.65.3,3.3.71,4.92,1.11l4.71,1.22c12.56,3.28,25.09,6.66,37.56,10.25s24.92,7.26,37.3,11.15,24.7,8,36.92,12.4a1.37,1.37,0,0,1-.88,2.6h0q-37-11.71-74.64-21.36-18.8-4.84-37.66-9.43l-4.72-1.13c-1.54-.34-3-.69-4.58-.94a80,80,0,0,0-9.27-1.07,76.6,76.6,0,0,0-9.33.12,75.38,75.38,0,0,0-9.27,1.19,81.46,81.46,0,0,0-9.07,2.3l-2.25.72-2.39.72-4.78,1.44-4.88,1.1-2.44.54-2.48.36c-1.66.23-3.3.51-5,.69l-5,.33a83.6,83.6,0,0,1-20-1.58A80.66,80.66,0,0,1,479,444.45c-12-6-22.3-14.67-30.89-24.62A135.63,135.63,0,0,1,436.39,404c-1.75-2.77-3.42-5.6-5-8.49s-3-5.8-4.31-8.88a1.37,1.37,0,0,1,2.5-1.1Z"/></svg>