<svg id="Layer_1" data-name="Layer 1" xmlns="http://www.w3.org/2000/svg" viewBox="0 0 960 560"><defs><style>.cls-1{fill:#ffce8f;}.cls-2{fill:#ad8f7b;}.cls-3{fill:#bda291;}.cls-4{fill:#ffc799;}.cls-5{fill:#f2b685;}.cls-6{fill:#d9baa6;}.cls-7{fill:#954600;}.cls-8{fill:#7a3a00;}.cls-9{fill:#233940;}</style></defs><title>drink, coffee, cafe, beverage, mug</title><path class="cls-1" d="M668.48,181.54c-12.28-8-22.3-19.72-26.9-33.74s-.49-28.47.8-42.7c.9-9.92.65-20.24-3.31-29.54-1.25-2.94-3.26-6-6.41-6.55-10.53-1.75-19.52,21-22.38,28.45-5,13-3.08,29,3.34,41.27,7.81,14.94,23.77,23.78,33.88,37.27,10.53,14,14,32,16.68,49.38.55,3.49,1.06,7.21-1.17,10.29a5.06,5.06,0,0,1-5.27,2.08c-3.35-.87-4.07-4.92-4.28-8.23-.81-12.5-1.81-25.38-7.42-36.58-6.19-12.36-17.32-21.34-26.78-31.41-13.82-14.7-22.28-31.86-21.1-52.33a62.36,62.36,0,0,1,8.13-26.36A93,93,0,0,1,614,71.19c2.38-3.1,5.5-5.49,4.72-9.79-1.21-6.65-8.25-9.62-14.05-11.23-10.85-3-20.07-5-24.82,7.34-8.72,22.58-10.23,49.51-.25,72,6.87,18.54,18.39,36,19.16,55.77.42,10.91-2.51,21.64-5.59,32.11-.67,2.3-1.69,4.95-4.19,5.34a4.26,4.26,0,0,1-4.18-2.16c-1.49-2.46-1-5.33-.4-8,1.9-8.42,4.87-16.72,4.89-25.35,0-12-5.59-23.18-10.49-34.14-6-13.41-11.09-27.32-13.65-41.79A100.39,100.39,0,0,1,566,71.15c.56-2.41,1.22-4.94.56-7.33a7.19,7.19,0,0,0-8.72-4.75,12.61,12.61,0,0,0-4.39,2.81c-20.2,17.77-31.47,50.38-13.49,73.59,3.63,4.68,7.16,9.55,9.1,15.21,3.87,11.27,2.72,23.73-.72,35-3,9.89-11.74,18.17-11.76,28.93,0,2.7.58,5.54-.49,8-1.92,4.47-12,6.63-11.87-.2.54-22.22,20.33-39.62,17.06-62.64l0-.23a6.07,6.07,0,0,0-11.78-.89c-9.58,30.63-46.49,17-46.49,17s-43-24.33-70,26c0,0-2.38,20.15-80,18.6s-73.45,135.27-61.65,164.51,45.47,102.23,136.94,116.64c46.06,7.25,94,10.32,140.25,2.78a195.32,195.32,0,0,0,36.39-9.18c10.39-3.84,20.32-7.81,29.58-13.7,9.61-6.11,20.18-12.35,28.14-20.56,9-9.3,17.65-21.16,16.28-34.8-.62-6.16-3.13-13.6-7.71-18-8.19-7.8-20.37-1-28.29,3.7a107.82,107.82,0,0,1-26.2,11.22,79,79,0,0,1-28.63,2c-9.54-.95-18.66-3.68-28.06-5.26-2.41-.4-4.88-1.16-6.11-3.45-1.38-2.56-1.83-6.09.26-8.1s5.81-1.38,8.78-.59c16.84,4.46,34.86,5.88,52,2.36,8.21-1.68,17.45-2.54,23.48-9.05,3.71-4,6.22-8.94,8.72-13.74,3.1-5.95,6.19-12.88,5.9-19.74a115.66,115.66,0,0,1,2.5-28.92,135.28,135.28,0,0,1,24.44-52.7c8.27-11,20.45-19.1,26.3-31.66,1.76-3.78,3.34-7.62,4.79-11.51C694.72,227.49,696.64,199.81,668.48,181.54Z"/><path class="cls-2" d="M617.36,417.62l-.46.23a92,92,0,0,1-76.35,3.83,12.72,12.72,0,0,1-7.2-16.47,1.88,1.88,0,0,0,.1-.25,12.77,12.77,0,0,1,11.28-8.16l66.14-3.3h.62a12.77,12.77,0,0,1,5.86,24.13Z"/><path class="cls-3" d="M664.53,313.6c-.8,13.81-2.88,27.67-7.65,40.72-.59,1.65-1.26,3.26-2,4.85-12.71,28.36-43.44,49.66-74.29,51.92C530,414.8,503.28,383,503.28,383a94.5,94.5,0,0,1-14.42-22.41c-1.87-4.08-2.49-12.69-7.76-13.91a6.41,6.41,0,0,0-.87-.15,18.82,18.82,0,0,0-5,.4,101.52,101.52,0,0,1-25.33.8c-14.09-1.24-28-5.38-39.14-13.7-37.16-27.64,10.88-61.39,36-72.57C474.89,248.91,526,239.16,560,236.7s106.8,9.8,106.8,37.22C666.85,288.18,665.31,300.5,664.53,313.6Z"/><path class="cls-3" d="M659,278.69a40.74,40.74,0,0,1-6.9,14.31c-.28.41-.58.83-.88,1.23-26.31,35.51-76.42,39.86-116.69,31.62-16.36-3.36-41.84-14-51.6-31.11-2.93-5.16-5.2-10.89-3.54-17.2h0a35.39,35.39,0,0,1,12.49-19.84c9.82-8.13,21.91-13.47,35.07-16.81,23.17-5.89,49.25-5.59,70.4-3.37a215.68,215.68,0,0,1,24,3.87C639.73,245.45,664.31,255.3,659,278.69Z"/><path class="cls-2" d="M439.65,287.4c-1.45,3.24-4.45,5-7.67,6.54,0-.29,0-.57,0-.86-.12-4.83-.71-10.6,3-14.31a8.06,8.06,0,0,1,2.72,1.13A5.84,5.84,0,0,1,439.65,287.4Z"/><path class="cls-2" d="M474,339.45a8.4,8.4,0,0,1-2.71,5.46c-3.59,3.36-9.39,3.66-14,3.54-17.61-.44-37.86-2.28-49.22-17.61-4.78-6.44-6.89-14.5-4.76-22.36,2.21-8.16,8.21-14.7,14.37-20.2,4.22-3.75,11-10.84,17.31-9.51-3.68,3.71-3.1,9.48-3,14.31,0,.29,0,.57,0,.86-3.65,1.73-7.6,3.22-10,6.28a11.48,11.48,0,0,0-2.2,10.44c1.19,3.51,4.45,6,8,7.11a27.47,27.47,0,0,0,11,.62H439a8.78,8.78,0,0,0-1.09-.79,11.45,11.45,0,0,1-1.95-1.15,5.86,5.86,0,0,1-1.48-2.77c-1.95-6.43-2.28-13.07-2.46-19.73,3.22-1.55,6.22-3.3,7.67-6.54a5.84,5.84,0,0,0-2-7.49,8.06,8.06,0,0,0-2.72-1.13h0c4.13-4.06,14.63-8.95,20.83-8.41,9.06.78,12.27,13.12,12.82,20.51a40.49,40.49,0,0,1-1.36,13.72,31.09,31.09,0,0,0,4.14,25.33l.11.17C473,332.94,474.27,336.31,474,339.45Z"/><path class="cls-2" d="M439.65,287.4c-1.45,3.24-4.45,5-7.67,6.54,0-.29,0-.57,0-.86-.12-4.83-.71-10.6,3-14.31a8.06,8.06,0,0,1,2.72,1.13A5.84,5.84,0,0,1,439.65,287.4Z"/><path class="cls-4" d="M458,298.5c-2.25,8.69-13.05,17.94-19.39,20-7.74,2.46-17.09-2.46-18.92-10.53a13.75,13.75,0,0,1,2.19-10.82,14.64,14.64,0,0,1,4.05-3.92c3.31-2.14,7.4-2,10.88-3.67a10.1,10.1,0,0,0,1.6-1c6.33-.49,14.05,3.18,17.31,8.41C456.3,297.86,457.22,297.81,458,298.5Z"/><path class="cls-2" d="M512.22,285.38c5.53,11.35-16,10.29-29.32,9.36-2.93-5.16-5.2-10.89-3.54-17.2h0a35.39,35.39,0,0,1,12.49-19.84c9.82-8.13,21.91-13.47,35.07-16.81,70.46-3.37,87.58,12.47,87.58,12.47S494.55,249.09,512.22,285.38Z"/><path class="cls-5" d="M458.23,295.64c-.06,1-.14,1.91-.22,2.86-.14,1.59-2-1.11-2.28-1.55-3.26-5.23-11-8.9-17.31-8.41a8.1,8.1,0,0,0,2.05-2.18c1-1.56,1.32-3.41,2.48-4.89,2.22-2.83,5.55-3.92,8.8-2a13.31,13.31,0,0,1,6,8.52A25.5,25.5,0,0,1,458.23,295.64Z"/><path class="cls-4" d="M459.46,334.95a9.08,9.08,0,0,1-2.71,6.48c-1.1,1-2.47,1.75-3.56,2.79-4,3.81.7,5.14,1.61,9.32,2.54,11.63,1.21,28.95-2.49,40.2-5.55,16.82-16.82,32.82-34.3,38.42-3.67,1.18-9.87,1.16-10.77,5.11-2.14,9.35-6.8,16.64-18.2,19.74-10,2.72-9.24,23-9.32,35.92-40.72-14.71-75.71-40.08-96.62-79-.64-1.18-1.24-2.35-1.84-3.54,1.31-5.83,3.8-11.45,6.24-16.88,8-17.89,18.13-34.88,28.58-51.45,24-38.06,58.53-79.57,107.58-83.87,3.3-.29,22.66-2.86,22.27,3.9-.11,2.14-14.61,8.07-17.1,9.64a91.67,91.67,0,0,0-16.3,12.69c-6.89,6.84-12.43,15.19-15.17,24.5-1.12,3.87-1.76,8-.77,11.92,2.93,11.67,14.66,12.86,24.4,9.46,5.64-2,10.92-4.91,16.67-6.47,7.46-2,17.44-1.26,21,6.84A10.31,10.31,0,0,1,459.46,334.95Z"/><path class="cls-5" d="M445.12,262.5a.55.55,0,0,1-.2.14c-4.22,2.09-8.67,3.71-12.93,5.72-8.3,3.93-14.9,10.49-20.72,17.5-5.34,6.43-11.31,13.36-12.91,21.73-1.11,5.78-.75,11.8,2.32,16.77,1.88,3,3.75,8.83,7.5,8.38.85-.1,15.18-3.34,15.18-3.34-13.48,5.85-42,28.78-49.39,38.08a129.66,129.66,0,0,0-10.5,15.28c-1.31,2.23-6.39,12.26-8.86,5.4A48.48,48.48,0,0,1,351.77,367a46.83,46.83,0,0,1,12.06-26.49c7-7.82,16.49-13.8,21.09-23.57,2.72-5.79,4.42-12,6.81-17.9a63,63,0,0,1,12.7-19.72,64.38,64.38,0,0,1,19-13.81,62.28,62.28,0,0,1,9.39-3.59q2.46-.72,5-1.22c1.93-.39,3.47-.76,5.29.22.63.34,1.24.74,1.85,1.12.15.1.33.25.27.42Z"/><path class="cls-6" d="M663.6,264.12c-10.56-15-29.32-20-46.15-24.11-21.75-5.36-44.19-6.87-66.54-5.94a339.26,339.26,0,0,0-66.65,9.51c-20.24,5-40.48,12.46-57.43,24.83-9.74,7.11-19.61,15.84-25.16,26.73-6,11.7-6.26,26.44,3.21,36.44a6.52,6.52,0,0,0,9.21-9.21,15,15,0,0,1-3.73-9.53c0-1.1,0-2.19.09-3.29l0-.29s0-.13.05-.26c.1-.54.2-1.07.33-1.61a22,22,0,0,1,2.39-6.3c4.19-7.86,11.12-14.47,18.51-20.2l1.1-.82,1.11-.81q1.39-1,2.82-2,3.14-2.12,6.41-4a136,136,0,0,1,12.91-6.64l2.41-1.06,2.77-1.12q3.41-1.35,6.88-2.55c4.65-1.62,9.36-3,14.11-4.33a314.2,314.2,0,0,1,58.82-9.88,268.68,268.68,0,0,1,31-.61,190.53,190.53,0,0,1,30.18,3.43c5.58,1.1,11.12,2.46,16.57,4.1,5,1.51,11,3.63,15.19,5.42,6,2.55,12.08,5.07,17.05,9.41,1.26,1.1,2.52,2.43,2.69,4.1s-.66,3-.92,4.54c-.74,4.42,4.5,8.6,8.65,6.9,2.77-1.14,4.39-4.09,5-7a17.52,17.52,0,0,0-1.52-11.6A18.5,18.5,0,0,0,663.6,264.12Z"/><path class="cls-2" d="M655.09,359.27c-12.94,26.59-39.45,46.22-68.68,50.87-48.26,7.67-88.06-23.83-106.56-66.22a29,29,0,0,1-1.7-5.92c-.54-2.64-1-5.29-1.39-8a90.26,90.26,0,0,1-.71-20.69c.28-3.17,2.45-5.88,5.86-5.88,7.07,0,5.37,7.53,5.69,12a91.6,91.6,0,0,0,4.16,19.92c4,13.2,10.73,25.69,20.39,35.63,24.35,25.06,65.53,27.2,91.9,3.86,14.1-12.48,23.73-31.88,42-36.6,4.77-1.23,10.94-.67,13.07,3.77,1.39,2.9.46,6.33-.64,9.35A84.6,84.6,0,0,1,655.09,359.27Z"/><path class="cls-6" d="M636.91,321.24a6.62,6.62,0,0,0-8.81-2.69,136.5,136.5,0,0,1-40.46,12.53,143,143,0,0,1-42-.17,141,141,0,0,1-22.94-5.75,6.52,6.52,0,1,0-4,12.42,151.26,151.26,0,0,0,115.45-7.52A6.6,6.6,0,0,0,636.91,321.24Z"/><path class="cls-7" d="M652.09,293c-.28.41-.58.83-.88,1.23-9.82,13.25-22.9,22.15-37.54,27.68l-.08,0C589,331.23,560,331,534.81,325.85c-21.28-4.37-58.55-21-55.3-48.31h0c4.63.73,9.18,1.77,13.69,2.92,6.46,1.65,12.8,3.39,19.18,4.94A170.65,170.65,0,0,0,537.46,290c25.32,2.42,51.06-.36,75-9.19,8.53-3.15,17.75-7,26.37-4.13C645.78,279,650.71,285.72,652.09,293Z"/><path class="cls-8" d="M613.67,321.91l-.08,0c-24.58,9.28-50.4,10.52-78.84,3.9-21.16-4.93-58.69-21-55.38-48.31h0a131.56,131.56,0,0,1,13.76,2.92c6.46,1.65,12.84,3.39,19.21,4.94,4,10.38,14.22,25.15,39.49,24,38.69-1.74,59.36-15.44,72.24-5C636.63,314.47,615.66,321,613.67,321.91Z"/><path class="cls-3" d="M617.29,417.52a3.36,3.36,0,0,0-.39.33,92,92,0,0,1-76.35,3.83,12.74,12.74,0,0,1-8.07-11.82c0,6.64,20.79,5.91,25,5.83,15.47-.32,29.81-3.81,44.61-7.92,2.28-.64,21.41-6.25,21.92-3.05C624.8,409.74,621.13,414.74,617.29,417.52Z"/><path class="cls-9" d="M355.48,391.12A125.1,125.1,0,0,1,365.75,372l3.07-4.48,3.31-4.31.83-1.08.89-1,1.77-2.06,1.78-2.06,1.89-2c2.47-2.66,5.17-5.09,7.84-7.55l4.19-3.48c.69-.59,1.41-1.14,2.15-1.68l2.19-1.63,2.19-1.62,2.27-1.51c1.53-1,3-2.06,4.6-2.94l4.72-2.75,4.86-2.49a123.16,123.16,0,0,1,20.47-7.76,32.23,32.23,0,0,1,5.79-.85,45.25,45.25,0,0,1,5.69,0,37.29,37.29,0,0,1,5.73.78,21.51,21.51,0,0,1,5.76,2.09,11,11,0,0,1,4.9,5,9.76,9.76,0,0,1,.81,3.7,12.77,12.77,0,0,1-.48,3.44,12.31,12.31,0,0,1-.51,1.54c-.2.49-.38,1-.65,1.49a14.93,14.93,0,0,1-1.82,2.75,28.46,28.46,0,0,1-4.32,4.1c-5.65,4.49-11.36,8.69-16.45,13.37a70.23,70.23,0,0,0-7,7.44,75.09,75.09,0,0,0-5.85,8.44,87.78,87.78,0,0,0-8.47,18.83,84.07,84.07,0,0,0-2.44,10.06c-.62,3.41-1,6.92-1.49,10.46-.88,7.07-1.87,14.45-4.6,21.5a46.36,46.36,0,0,1-12.92,18.23,46.9,46.9,0,0,1-9.29,6.28A35.32,35.32,0,0,1,376.41,464a32,32,0,0,1-11.33-.45,34.25,34.25,0,0,1-10.47-4.11,29.42,29.42,0,0,1-13.38-17.53,1.37,1.37,0,0,1,2.63-.79v0a26.85,26.85,0,0,0,4.76,8.88,26.34,26.34,0,0,0,7.72,6.43,30.58,30.58,0,0,0,19.43,3.61,31.4,31.4,0,0,0,9.37-3.49,42.56,42.56,0,0,0,8.29-5.88,41.65,41.65,0,0,0,11.24-16.64c2.32-6.36,3.08-13.31,3.86-20.39.39-3.55.76-7.14,1.35-10.77a89.78,89.78,0,0,1,2.43-10.79,88.24,88.24,0,0,1,8.81-20.27,80.93,80.93,0,0,1,6.3-9.19,75.54,75.54,0,0,1,7.71-8.06c5.46-5,11.32-9.19,16.92-13.49a23,23,0,0,0,3.5-3.19,9.19,9.19,0,0,0,1.16-1.69,12.16,12.16,0,0,0,.78-2,7.21,7.21,0,0,0,.31-1.84,4.12,4.12,0,0,0-.3-1.5,5.42,5.42,0,0,0-2.46-2.46,22.71,22.71,0,0,0-9.13-2.32,39.91,39.91,0,0,0-5-.06,27.33,27.33,0,0,0-4.8.62,124.26,124.26,0,0,0-19.65,7.1l-4.72,2.29-4.59,2.55c-1.55.81-3,1.82-4.48,2.74l-2.22,1.4-2.15,1.52-2.14,1.52c-.72.5-1.43,1-2.11,1.58l-4.12,3.28c-2.63,2.33-5.3,4.61-7.74,7.14a117,117,0,0,0-13.62,16.08A122.06,122.06,0,0,0,358,392.22v0a1.37,1.37,0,0,1-2.49-1.12Z"/><path class="cls-9" d="M267.34,455.33a340.6,340.6,0,0,1,56.55-131.22c9.36-13,19.29-25.61,30.92-36.83A139.08,139.08,0,0,1,373.6,272a100.4,100.4,0,0,1,21.7-11.18,85.75,85.75,0,0,1,24-5.09,74,74,0,0,1,12.37.29,65.87,65.87,0,0,1,12.17,2.52,47.17,47.17,0,0,1,11.47,5.17,66,66,0,0,1,9.87,7.58c6.05,5.59,11.18,11.86,16.24,18l3.78,4.58,1.9,2.25c.63.77,1.28,1.47,1.93,2.15l1.94,2.09c.67.68,1.39,1.3,2.08,2s1.37,1.33,2.12,1.92L497.4,306a86.54,86.54,0,0,0,19.81,11.72,127.84,127.84,0,0,0,45.27,10,129.61,129.61,0,0,0,46-6.1,92.62,92.62,0,0,0,20.85-9.89,65.3,65.3,0,0,0,16.82-15.37,67.53,67.53,0,0,0,6-9.73,81.56,81.56,0,0,0,4.42-10.65,108.1,108.1,0,0,0,4.75-22.77,149.65,149.65,0,0,0,.57-23.45,117.9,117.9,0,0,0-3.45-23.12,86.18,86.18,0,0,0-3.6-11.07,72.11,72.11,0,0,0-5.09-10.42c-3.83-6.67-9.23-12.34-14.9-17.81s-11.75-10.77-17-17a61.91,61.91,0,0,1-7-10.08,49.42,49.42,0,0,1-4.42-11.54,51.39,51.39,0,0,1-1.35-12.23,49.82,49.82,0,0,1,1.55-12.18,49,49,0,0,1,11.43-21.49,1.37,1.37,0,0,1,2,1.84h0C609.72,96.12,606,113,609.78,127.84A46.46,46.46,0,0,0,614,138.46a58.28,58.28,0,0,0,6.69,9.41c5,5.92,11.06,11.07,16.87,16.57,2.92,2.75,5.79,5.59,8.49,8.64a64.52,64.52,0,0,1,7.29,9.89,76.39,76.39,0,0,1,5.49,10.94,90.6,90.6,0,0,1,3.9,11.57,122.48,122.48,0,0,1,3.84,24,154.41,154.41,0,0,1-.34,24.22,113.14,113.14,0,0,1-4.74,23.9,86.43,86.43,0,0,1-4.6,11.42,72.92,72.92,0,0,1-6.44,10.58,70.8,70.8,0,0,1-18.09,16.81,98.29,98.29,0,0,1-22.07,10.68,131.68,131.68,0,0,1-48.08,6.63,133.79,133.79,0,0,1-47.42-10.46,92.51,92.51,0,0,1-21.14-12.52l-2.4-2c-.81-.64-1.52-1.4-2.29-2.1s-1.52-1.41-2.24-2.15l-2.11-2.29c-.71-.76-1.41-1.53-2-2.3l-1.93-2.32-3.78-4.65c-5-6.17-9.94-12.29-15.55-17.54s-11.89-9.52-19.15-11.68a60.45,60.45,0,0,0-11.14-2.4,68.67,68.67,0,0,0-11.46-.36A80.58,80.58,0,0,0,397,265.57,95.39,95.39,0,0,0,376.32,276a134.29,134.29,0,0,0-18.25,14.66c-11.39,10.8-21.31,23.21-30.65,36a336.28,336.28,0,0,0-25,40.27,340.82,340.82,0,0,0-32.41,89h0a1.37,1.37,0,0,1-2.68-.56Z"/><path class="cls-9" d="M409.33,335.69a24.62,24.62,0,0,1-6.17-3.46,21.54,21.54,0,0,1-4.76-5.34,23.6,23.6,0,0,1-2.67-6.62,27.28,27.28,0,0,1-.64-7.05,32.57,32.57,0,0,1,1-7c.31-1.13.63-2.26,1-3.32s.75-2.16,1.2-3.21a67.48,67.48,0,0,1,6.39-12.12,83.94,83.94,0,0,1,18.75-19.75,125.46,125.46,0,0,1,23.23-14,176.62,176.62,0,0,1,25.3-9.52c8.64-2.54,17.4-4.54,26.19-6.24,17.58-3.38,35.24-5.68,52.64-8.76,4.35-.8,8.68-1.58,12.87-2.62a64.62,64.62,0,0,0,12-4,34.22,34.22,0,0,0,10-6.91,28,28,0,0,0,3.79-4.73,33.09,33.09,0,0,0,2.87-5.43,43.65,43.65,0,0,0,3.07-12.09,55.21,55.21,0,0,0-.12-12.68c-1-8.49-3.67-16.82-6.87-25-1.6-4.09-3.33-8.17-5.06-12.27s-3.48-8.23-5-12.51a112,112,0,0,1-6-26.43,101.67,101.67,0,0,1,9.14-52.83,1.37,1.37,0,0,1,2.5,1.13,100.41,100.41,0,0,0-7.21,25.18,98.18,98.18,0,0,0-.48,26.09,107.78,107.78,0,0,0,6.29,25.33c1.52,4.08,3.32,8.1,5.12,12.17s3.62,8.14,5.34,12.29c3.41,8.29,6.44,17,7.64,26.17a54.42,54.42,0,0,1-3,27.65,38.9,38.9,0,0,1-3.27,6.39,33.9,33.9,0,0,1-4.46,5.72,39.17,39.17,0,0,1-11.73,8.23c-8.6,4-17.69,5.59-26.44,7.15-17.62,3.1-35.3,5.08-52.67,8.25-8.68,1.58-17.31,3.44-25.75,5.82a179.48,179.48,0,0,0-24.7,8.93,120.83,120.83,0,0,0-22.6,13.09A79.74,79.74,0,0,0,408,289.87a65.43,65.43,0,0,0-6.29,11.3c-.45,1-.83,2-1.2,3s-.72,2-1,3a29.14,29.14,0,0,0-1.07,6.19,24,24,0,0,0,.41,6.2,20.48,20.48,0,0,0,2.15,5.75,18.57,18.57,0,0,0,4,4.65,21.82,21.82,0,0,0,5.35,3.16l.08,0a1.37,1.37,0,0,1-1.07,2.51Z"/><path class="cls-9" d="M428.37,295.6a11.24,11.24,0,0,0-6.93,9.42,11,11,0,0,0,1.17,5.76,10.24,10.24,0,0,0,3.95,4.14,13.57,13.57,0,0,0,5.62,1.8,15.6,15.6,0,0,0,6-.66,25.3,25.3,0,0,0,10.53-6.8,34.27,34.27,0,0,0,7-10.82,30.57,30.57,0,0,0,2.17-12.75A32.72,32.72,0,0,0,446,262.54h0a1.37,1.37,0,0,1,1.62-2.21A34.52,34.52,0,0,1,461,300.44a33.83,33.83,0,0,1-3.27,7A32.35,32.35,0,0,1,453,313.5a29.74,29.74,0,0,1-13.37,8,20.47,20.47,0,0,1-8.1.5,18,18,0,0,1-7.65-2.92,14.94,14.94,0,0,1-5.31-6.38,15.16,15.16,0,0,1-1.1-8.08,14.35,14.35,0,0,1,10-11.56,1.37,1.37,0,0,1,.91,2.58Z"/><path class="cls-9" d="M527.56,416a78.76,78.76,0,0,0,22,7.85,85,85,0,0,0,23.15,1.33q1.47-.09,2.93-.24c1-.06,2-.14,2.93-.24,2-.19,3.9-.37,5.85-.6q5.84-.69,11.58-2c7.6-1.74,15.09-4.26,21.58-8.53h0a1.37,1.37,0,0,1,1.66,2.18,47.82,47.82,0,0,1-10.44,6.74A74.43,74.43,0,0,1,597.27,427a106.39,106.39,0,0,1-12,2.83c-2,.36-4,.7-6.08.91s-4.08.42-6.13.5a78.15,78.15,0,0,1-36.28-6.78,66.19,66.19,0,0,1-10.69-6.13,1.37,1.37,0,0,1,1.44-2.32Z"/><path class="cls-9" d="M268.09,366.29A120.25,120.25,0,0,0,276.83,399a153.92,153.92,0,0,0,16.9,29.44,171.63,171.63,0,0,0,49.62,45.8c4.8,3,9.8,5.66,14.84,8.24,2.56,1.21,5.1,2.45,7.7,3.59s5.18,2.28,7.85,3.26a224.53,224.53,0,0,0,32.51,9.9A302.29,302.29,0,0,0,474,506l4.27,0,4.27-.12c2.85-.05,5.69-.22,8.53-.34s5.68-.33,8.53-.49l8.55-.66c11.45-.84,22.78-1.84,34.06-3.42a257.36,257.36,0,0,0,33.34-6.81c5.47-1.49,10.83-3.3,16.16-5.21,2.62-1.06,5.28-2,7.86-3.18s5.2-2.24,7.7-3.56l3.79-1.9c1.26-.64,2.47-1.36,3.7-2s2.47-1.36,3.68-2.08,2.39-1.49,3.58-2.26a143.17,143.17,0,0,0,13.68-10,84.64,84.64,0,0,0,11.86-11.83,46.58,46.58,0,0,0,8.1-14.26,31.18,31.18,0,0,0,1.14-16,37.31,37.31,0,0,0-1-4c-.47-1.32-.92-2.65-1.4-3.87a13.69,13.69,0,0,0-2-3.2,10.28,10.28,0,0,0-2.84-2.31,14.63,14.63,0,0,0-7.46-1.6,31.17,31.17,0,0,0-8,1.38,49.53,49.53,0,0,0-14.84,7.49l0,0a1.37,1.37,0,0,1-1.65-2.19,52.38,52.38,0,0,1,15.59-8.27,34.3,34.3,0,0,1,8.85-1.69,18,18,0,0,1,9.2,1.84,13.78,13.78,0,0,1,3.86,3,16.81,16.81,0,0,1,2.6,4.07c.6,1.44,1.08,2.82,1.59,4.2a41,41,0,0,1,1.15,4.37,34.91,34.91,0,0,1-1,18,50.64,50.64,0,0,1-8.57,15.65,88.93,88.93,0,0,1-12.29,12.62,147.71,147.71,0,0,1-14,10.5q-1.81,1.21-3.66,2.39c-1.24.77-2.52,1.47-3.78,2.21s-2.52,1.49-3.81,2.16l-3.88,2c-2.56,1.4-5.25,2.52-7.87,3.78s-5.36,2.26-8,3.39-5.44,2.06-8.21,3-5.52,1.84-8.32,2.6a262.94,262.94,0,0,1-34,7.32c-11.44,1.72-23,2.89-34.41,3.74l-8.61.7c-2.89.17-5.77.4-8.66.53s-5.78.27-8.67.32l-4.34.1-4.34,0a299.66,299.66,0,0,1-69-7.4,229.93,229.93,0,0,1-33.2-10.44,187.25,187.25,0,0,1-31-15.8,176.08,176.08,0,0,1-50.29-47.66,156.14,156.14,0,0,1-16.76-30.46,123.31,123.31,0,0,1-8.35-33.72,1.37,1.37,0,0,1,2.72-.3Z"/><path class="cls-9" d="M687.37,196.13a76.44,76.44,0,0,1,6.05,16.29,65.81,65.81,0,0,1,1.52,8.61,60.06,60.06,0,0,1,.26,8.78,49.47,49.47,0,0,1-1.2,8.75c-.28,1.45-.77,2.86-1.17,4.28l-.77,2.09-.39,1-.45,1a85.84,85.84,0,0,1-9.08,14.88c-3.3,4.64-6.67,9.17-9.1,14.06-.61,1.23-1.22,2.46-1.72,3.74s-1,2.56-1.47,3.85a67.19,67.19,0,0,0-2.12,8,134.38,134.38,0,0,0-2.09,16.66c-.42,5.64-.84,11.41-1.43,17.07-1.11,11.36-2.62,23-6.81,34.06-.5,1.39-1.12,2.74-1.7,4.1s-1.27,2.7-2,4-1.36,2.59-2.12,3.83-1.51,2.51-2.29,3.75a83.4,83.4,0,0,1-11,13.74,77.83,77.83,0,0,1-13.83,11,89.25,89.25,0,0,1-15.82,7.77,114.77,114.77,0,0,1-16.83,4.91,108.69,108.69,0,0,1-17.42,2.16,98.21,98.21,0,0,1-34.74-4.67,91.56,91.56,0,0,1-16.17-7.08,86.48,86.48,0,0,1-14.37-10.25,91.55,91.55,0,0,1-12-12.85,94.88,94.88,0,0,1-9.5-14.79c-1.37-2.66-2.43-5.4-3.59-7.79a17.65,17.65,0,0,0-4.31-6,12.58,12.58,0,0,0-13.34-1.66,12.32,12.32,0,0,0-5.43,4.55,19.87,19.87,0,0,0-2.67,7.08c-1.06,5.25-.91,11-1.78,16.87a120.39,120.39,0,0,1-3.8,17,83.59,83.59,0,0,1-3,8.22c-.57,1.35-1.2,2.67-1.86,4-.33.66-.72,1.31-1.08,2a20.68,20.68,0,0,1-1.16,1.91,56.34,56.34,0,0,1-11.86,13,54.73,54.73,0,0,1-32.43,12.2,66.21,66.21,0,0,1-17.33-2.06,1.37,1.37,0,0,1,.61-2.67h.07a63.32,63.32,0,0,0,16.52,1.63,52.22,52.22,0,0,0,16.08-3.58,53.35,53.35,0,0,0,25-20.7,17.81,17.81,0,0,0,1-1.75c.32-.6.66-1.17,1-1.79.6-1.24,1.17-2.5,1.7-3.78a79.42,79.42,0,0,0,2.76-7.85,116.1,116.1,0,0,0,3.42-16.4c.73-5.36.49-11.15,1.57-17.11a24.56,24.56,0,0,1,3.25-8.83,17.26,17.26,0,0,1,7.38-6.4,17.52,17.52,0,0,1,9.65-1.65,17.77,17.77,0,0,1,4.83,1.21,17,17,0,0,1,4.3,2.59,22.78,22.78,0,0,1,5.75,7.64c1.35,2.72,2.37,5.29,3.64,7.68a89.44,89.44,0,0,0,9.1,13.82,85.85,85.85,0,0,0,11.41,11.93,80.6,80.6,0,0,0,13.49,9.42,89.5,89.5,0,0,0,15.12,6.52,95.4,95.4,0,0,0,32.63,4.38,107,107,0,0,0,32.43-6.5,76.55,76.55,0,0,0,27.79-17.24A77.92,77.92,0,0,0,644.79,372c.75-1.16,1.46-2.35,2.2-3.52s1.36-2.42,2-3.62,1.27-2.44,1.88-3.66,1.13-2.49,1.6-3.78c4-10.25,5.56-21.45,6.83-32.69.66-5.66,1.14-11.24,1.64-17a138.68,138.68,0,0,1,2.4-17.19,71.6,71.6,0,0,1,2.38-8.48c.52-1.38,1-2.77,1.63-4.11s1.23-2.68,1.91-4c2.73-5.28,6.27-9.89,9.62-14.47s6.64-9.1,9-14.07l.43-.93.38-1,.75-1.9c.39-1.31.88-2.59,1.15-3.93a46,46,0,0,0,1.27-8.13,56.78,56.78,0,0,0-.1-8.28,62.7,62.7,0,0,0-1.3-8.22,73.55,73.55,0,0,0-5.53-15.77v0a1.37,1.37,0,0,1,2.46-1.19Z"/></svg>