<svg id="Layer_1" data-name="Layer 1" xmlns="http://www.w3.org/2000/svg" viewBox="0 0 960 560"><defs><style>.cls-1{fill:#96a2ff;}.cls-2{fill:#cefff9;}.cls-3{fill:#ff6859;}.cls-4{fill:#808eff;}.cls-5{fill:#ff4c3b;}.cls-6{fill:#ffb195;}.cls-7{fill:#adfff5;}.cls-8{fill:#ff9f7d;}.cls-9{fill:#bafff6;}.cls-10{fill:#a0b8ff;}.cls-11{fill:#fff;}.cls-12{fill:#96fff2;}.cls-13{fill:#a2a1e0;}.cls-14{fill:#7f7de0;}.cls-15{fill:#e6e8ff;}.cls-16{fill:#c7ccff;}.cls-17{fill:#233940;}</style></defs><title>driving, driver, man, people, person</title><path class="cls-1" d="M845.14,270.1a153.67,153.67,0,0,1-1.1,18.7c-4.31,35.73-21.18,62-46.14,82.48q-3.35,2.74-6.9,5.37c-42,31-103.37,48.09-166.16,66-26.57,7.58-53.38,15.31-79.07,24.29-14.82,5.18-29.26,10.78-43.07,17-11.5,5.19-23.64,10.44-36.25,15.55C388.07,531.29,291.73,558,219.93,535a139.7,139.7,0,0,1-30-13.52,126.58,126.58,0,0,1-25.89-20.73c-17.51-18.24-31.09-43.16-39.25-76.28q-.93-3.72-1.75-7.58l-.48-2.31c-7.7-37.67-7.93-73.14-2-106.12,18.57-103.88,97.9-183.17,195.75-229.11l3.6-1.67c61.3-28.16,129.61-43.29,194.67-43.29a453.19,453.19,0,0,1,144.9,24.2C761.33,93.5,845.14,165.52,845.14,270.1Z"/><path class="cls-2" d="M378.84,110.21,359,134.75c-11.14,9.23-22,18.78-32.34,28.94-26.42,25.9-50.06,54.54-71.49,84.67-16.42,23.1-31.52,47-45.77,71.46L124.81,424.47q-.93-3.72-1.75-7.58l-.48-2.31a306.4,306.4,0,0,1-5-34,270.72,270.72,0,0,1,3-72.17c17.59-98.38,89.67-174.71,180.37-221.53q7.6-3.93,15.38-7.58l3.6-1.67,29.8,6.51c7.41,3.85,15.21,7.6,21.58,12.83C375.36,100.38,378.71,104.87,378.84,110.21Z"/><path class="cls-3" d="M795.73,111.16c-.69,11.22-8.92,21.15-17.53,28.48-9,7.64-20.11,10.46-31.74,9.56-18.24-1.41-36.7-7.92-53.49-16.56a215.08,215.08,0,0,1-19.25-11.22,1.45,1.45,0,0,1-.59-1.78,128.14,128.14,0,0,1-30.82-2.79c-6.26-1.39-13.53-4.09-15-11.16-3.8-18.11,23.52-21,35.88-23.94,0-.1.09-.19.13-.29a97.48,97.48,0,0,1,7.77-14.34,75.71,75.71,0,0,1,8.74-11c.67-.7,1.36-1.39,2.07-2.06,19.45-3.65,49.47-8.64,81.46-11.57a50.15,50.15,0,0,1,4.43,2.95c1.2.89,2.37,1.84,3.52,2.86a73.9,73.9,0,0,1,15.76,19.32C793.77,79.73,796.79,94,795.73,111.16Z"/><path class="cls-4" d="M712.57,226q-1.33,33.62-2.68,67.22c-.7,17.56,1.22,38.87-8,54.67-9,15.48-27.69,19.54-43.7,23.84L592,389.5l-66.23,17.78C505,412.85,484.22,418.38,463,422c-20.91,3.59-42.3,5.37-63.46,3-5-.56-10.06-1.34-15-2.37-2.59-.54-8.18-.77-10-2.88-1.18-1.38-1.65-4.91-2.23-6.71q-1-3.21-2-6.44c-1.34-4.35-2.61-8.72-3.78-13.11C357.47,359.35,355,320,382.63,293.43s67-28.95,103.21-29.62c3.53-.06,7.23-.12,11.05-.21-2.51-11.7,4.16-24.59,17.18-26.84A22.47,22.47,0,0,1,533,242.3c4.93,4.6,6.48,11.08,7.06,17.56,21.63-4.17,41.49-13.09,51.8-32.74L595,183.31c.74-10.26,1.09-20.65,2.46-30.85,1.08-8.07,3.28-16.19,8.72-22.47,10.26-11.85,27.52-13.45,42.14-14.53,15.81-1.16,33.85-2,47.65,7.26,13.25,8.84,17.55,24.54,18.41,39.63C715.61,183.42,713.41,204.93,712.57,226Z"/><path class="cls-5" d="M787.06,67.62c-38.57-5-77.53-6.2-116-.5a75.71,75.71,0,0,1,8.74-11c.67-.7,1.36-1.39,2.07-2.06,19.45-3.65,49.47-8.64,81.46-11.57a50.15,50.15,0,0,1,4.43,2.95c1.2.89,2.37,1.84,3.52,2.86A73.9,73.9,0,0,1,787.06,67.62Z"/><path class="cls-6" d="M810.32,250l-83,74.5-101-17,32.5-37s28.78-14.26,38.64-41.88c0,0-35.64-19.62-34.14-64.62q.11-3.22.24-6.17c1.68-39,5.76-40.83,5.76-40.83s19-14.5,49.5-14.5c28.31,0,43.7,1.29,56.16,22.68q1.44,2.48,2.84,5.32s10-16.5,19-7.5,9,27-4.5,40.5S787.32,239.13,810.32,250Z"/><path class="cls-5" d="M766.13,114.32,693,132.64a215.08,215.08,0,0,1-19.25-11.22,1.45,1.45,0,0,1-.59-1.78,128.14,128.14,0,0,1-30.82-2.79c-6.26-1.39-13.53-4.09-15-11.16-3.8-18.11,23.52-21,35.88-23.94,0-.1.09-.19.13-.29,8.75-.24,19.54,0,34.36,0C741,81.46,766.13,114.32,766.13,114.32Z"/><path class="cls-7" d="M378.84,110.21a12.17,12.17,0,0,1-.07,1.8c-.75,6.77-6.26,11.72-11.24,15.75q-4.29,3.46-8.53,7c-11.14,9.23-22,18.78-32.34,28.94-26.42,25.9-50.06,54.54-71.49,84.67-16.42,23.1-31.52,47-45.77,71.46l-30.58,37.83c37.09,28.45,73.92,62.63,73.92,62.63l-88.68,80.47c-3.41,3.1-29.42-45.9-31-50-8.74-22.44-13.36-46.29-15.48-70.22a280.8,280.8,0,0,1-.89-36.66q.39-9.27,1.43-18.5c.23-2.06,3.53-15.92,2.46-16.91l.21.2a26.56,26.56,0,0,0,40.28-5A724.24,724.24,0,0,1,308,139.29c17.59-14.47,14.34-42.38-6.3-52l-.73-.34q7.6-3.93,15.38-7.58l3.6-1.67,29.8,6.51c7.41,3.85,15.21,7.6,21.58,12.83C375.36,100.38,378.71,104.87,378.84,110.21Z"/><path class="cls-8" d="M775,125.14c-2.82,2.3-5.69,4.38-8.27,6.26a104.44,104.44,0,0,1-35.85,16.74,378.51,378.51,0,0,1-45.11,8.23,163.58,163.58,0,0,1-22.19,1.42c1.68-39,5.76-40.83,5.76-40.83s19-14.5,49.5-14.5C747.13,102.46,762.52,103.75,775,125.14Z"/><path class="cls-9" d="M605.72,143.79s0,.39-.1,1.11c-.78,6.79-6.61,42.64-44.28,48.56C519.69,200,290.2,224,290.2,224l97.49-87.66,96-86.33,121.49,10.5Z"/><path class="cls-3" d="M333.32,484.46l-38.14,5.82-92.86,14.18,3.91-89.35,4.09-93.65s61,12,81,79q2.5,8.37,5,15.73c7.39,21.57,14.77,36.81,21,47.32C326.66,479.31,333.32,484.46,333.32,484.46Z"/><path class="cls-3" d="M374.32,423.33q-16.81,4.84-31.51,9.8a171.54,171.54,0,0,0-9.63-30.42,165.41,165.41,0,0,0-20-34.87q-4.87-6.5-10.36-12.47A172.11,172.11,0,0,0,217.74,305q-2.76,4.64-5.51,9.28c-1.21,2-4.36.17-3.15-1.85l4.93-8.3-1.26-.3c-2.3-.49-1.33-4,1-3.51.74.16,1.49.35,2.24.53Q223,289,230,277.22l-2.77-1.27c-2.13-1-.28-4.11,1.84-3.15l3.19,1.45a2,2,0,0,1,2.27,1c19.75,8.88,39.84,17.34,59,27.47A144.27,144.27,0,0,1,321.37,322a151.89,151.89,0,0,1,32.1,40q3.63,6.47,6.68,13.3A195.85,195.85,0,0,1,374.32,423.33Z"/><path class="cls-10" d="M721,412.58q4-1.49,7.84-3C726.29,410.58,723.67,411.59,721,412.58Z"/><path class="cls-5" d="M317.34,463.51a60.11,60.11,0,0,1-6.93,11.35,95.22,95.22,0,0,1-15.23,15.42l-92.86,14.18,3.91-89.35a167.56,167.56,0,0,1,17-13.4c1.17-.82,2.41.54,2.2,1.69-1.54,8.7,3.52,16.7,10.67,21.3,7.68,4.95,17.25,5.14,26,3.45,12-2.32,22.83-8,34.25-12C303.74,437.76,311.12,453,317.34,463.51Z"/><path class="cls-3" d="M833.32,384.79l-2.67,4.67L797.9,371.28q-3.36,2.76-6.9,5.36l-.68-1.18c-76.38,0-143.28,3.45-201.71,9.18,7.74-17.51,11.84-28.68,11.84-28.68l-.91-1.54L579.82,321l-1.5-2.54a180.3,180.3,0,0,0-6.69-28.62c-6.2-18.47-13.28-23.8-17.08-25.33a6.7,6.7,0,0,0-2.78-.61l1.77-1.17,6.69-4.38.41-.27c7.87-5.1,21-13.55,39.69-25.21,40-25,71.3-10.38,83.28-7.1a1.2,1.2,0,0,1,1.4-1L696.36,226a1.64,1.64,0,0,1,1.1,2.61,1.56,1.56,0,0,1,.2,1.6c-7.84,18.18-19,29.66-36.34,38.78,0,.42-.09.84-.11,1.25-2.66,34.71,52.5,34.84,85.11.25,15-15.93,56.92-25.51,56.92-25.51,25.56,5.45,40.41,36.84,42.8,60.84C850.25,348.14,833.32,384.79,833.32,384.79Z"/><path class="cls-5" d="M734.49,365.73A36.67,36.67,0,0,1,723.65,388a38.56,38.56,0,0,1-38.78,8.52c-7.57-2.48-14.39-6.73-21.15-10.85a142.74,142.74,0,0,0-24.06-12.13,124.76,124.76,0,0,0-53.8-7.39,1.5,1.5,0,0,1-1.5-1.5q.38-2.86.87-5.72l-.3-.07c-3.28-.85-6.33-3.43-6.77-6.79a15,15,0,0,1,.58-5c3.08-13.93,1.52-28.54-2-42.37-2-7.79-4.6-15.53-9.09-22.19-2.6-3.85-15.7-15.87-13.89-20.84.76-2.08,9.19-5.15,11.24-6.38,4.2-2.5,8.29-5.15,12.37-7.83,15.36-10.09,30.71-21,48.63-26a80.74,80.74,0,0,1,43.77.18c6.08,1.74,12.16,4.24,18.47,3.83a23.22,23.22,0,0,1,5.58-.17c1.84.32,3.69,1.6,3.93,3.46a4,4,0,0,1-.1,1.42,10.15,10.15,0,0,1-.66,1.77,77.37,77.37,0,0,1-36.13,37.28c-.37,1.55-3.1.52-3-1.07s1.49-2.73,2.71-3.76a23.9,23.9,0,0,0,8.34-18.58c-.2-8.21-8-14-14.85-17-13.87-5.95-31.38-.51-42.34,9-11.39,9.82-12.11,22.61-19.15,34.77-1.16,2-2.6,4.33-1.69,6.46.81,1.91,3.16,2.64,5.24,2.76,11.23.67,20.5-9.72,23.31-20.61a34.69,34.69,0,0,1,2.2-7.27c1.59-3.13,5-5.73,8.88-3.68a6.9,6.9,0,0,1,2.84,2.92c1.7,3.27,1.14,7,.15,10.4-2.82,9.7-9,18.06-13.09,27.28l-.07.16a28.25,28.25,0,0,0,6.88,32.36,88.2,88.2,0,0,0,9.19,7.2c11.47,7.88,24.85,15.23,38.21,19.19,30.93,9.17,62-14,61.62-46.34,0-1.67,2.58-2.06,3-.4a67.51,67.51,0,0,1-6.27,46c0,.08,0,.15.07.22-.75,1.17-1.45,2.37-2.13,3.57l0-.12a67.74,67.74,0,0,1-5.55,7.79,52.14,52.14,0,0,0,6.45,1.74.28.28,0,0,0,0-.09,20.44,20.44,0,0,0,2.92-3l.09,0c.05,1.09.06,2.18,0,3.27l.32.34C737,363,736.28,365.81,734.49,365.73Z"/><path class="cls-11" d="M790.45,371.07a2,2,0,0,1-1,1.33C731.24,412.31,659.62,426.65,593,446.35c-2.67.79-5.35,1.59-8,2.4q-11.4,3.45-22.66,7.09l-3.4,1.12q-6.61,2.17-13.15,4.46c-14.82,5.18-29.26,10.78-43.07,17-11.5,5.19-23.64,10.44-36.25,15.55L219,490.27s31.76-31.76,123.82-62.66q14.71-4.94,31.51-9.8c33.09-9.53,72.44-18.64,118.94-26.31q38.23-6.3,83.06-11.13c.84.17,6.33-2.58,14.67-6.58,24.4-9.09,70.24-20.94,134.33-14.67l10.23,11.42c0,.58,50.79-1.89,54.92.06A2,2,0,0,1,790.45,371.07Z"/><path class="cls-7" d="M791,376.64l-.78.58-1.2.87q-4,2.87-8.2,5.57c-.5.33-1,.65-1.52,1L777.09,386c-1,.65-2.1,1.28-3.16,1.91q-4.44,2.63-9.07,5.11-.84.46-1.68.9l-2.32,1.21-2.33,1.19-2.36,1.18q-2.37,1.17-4.79,2.31c-.76.37-1.54.73-2.31,1.09q-6.13,2.83-12.53,5.51l-2.47,1c-1.72.71-3.46,1.41-5.2,2.1q-3.88,1.55-7.84,3l-2.64,1q-4.16,1.55-8.38,3-5,1.77-10.05,3.47-3.24,1.09-6.54,2.17l-4.11,1.33q-8.85,2.84-17.92,5.57l-4.75,1.43-4.26,1.26-4.27,1.26c-11,3.21-22.1,6.37-33.27,9.56l-5.69,1.63-8,2.3c-6,1.74-12.09,3.5-18.11,5.29-2.67.79-5.35,1.59-8,2.4q-11.4,3.45-22.66,7.09l-3.4,1.12q-6.61,2.17-13.15,4.46,3.57-5.84,6.94-11.62,1.65-2.85,3.27-5.69l1.65-2.92c1-1.87,2.08-3.72,3.09-5.57q3.12-5.68,6-11.19,1.39-2.66,2.72-5.25l1.36-2.65.09-.17A451,451,0,0,0,493.26,397q38.23-6.3,83.06-11.13,5.36,1.07,10.65,2.44l1.64-3.69c58.43-5.73,125.33-9.18,201.71-9.18Z"/><path class="cls-2" d="M570.91,421.88l-.09.17-1.36,2.65q-1.33,2.59-2.72,5.25-2.89,5.5-6,11.19c-1,1.85-2.05,3.7-3.09,5.57L556,449.63q-1.62,2.84-3.27,5.69-3.37,5.78-6.94,11.62c-14.82,5.18-29.26,10.78-43.07,17-11.5,5.19-23.64,10.44-36.25,15.55L219,495.79S250.75,464,342.81,433.13q14.71-4.94,31.51-9.8c33.09-9.53,72.44-18.64,118.94-26.31A451,451,0,0,1,570.91,421.88Z"/><path class="cls-12" d="M605.62,144.9c-.78,6.79-6.61,42.64-44.28,48.56C519.69,200,290.2,224,290.2,224l97.49-87.66c8.33,5.15,16.3,10.8,23.82,16.5,14.55,11,28.72,23.31,45.94,30,16.55,6.43,37.33,6.78,51.23-5.69,11.73-10.54,16.87-26.34,28.09-37.35C547,129.76,561.9,125.4,576,127.29A44.2,44.2,0,0,1,605.62,144.9Z"/><path class="cls-2" d="M588.61,384.64,587,388.33q-5.3-1.37-10.65-2.44Q582.39,385.24,588.61,384.64Z"/><path class="cls-5" d="M353.47,362c-7.9,7.82-13.22,17.86-16,29.2-.93,3.8-2,8.1-4.28,11.47a165.41,165.41,0,0,0-20-34.87q-4.87-6.5-10.36-12.47A93.68,93.68,0,0,1,312.15,332a29,29,0,0,1,9.22-9.94A151.89,151.89,0,0,1,353.47,362Z"/><path class="cls-2" d="M791,376.64h0l-.78.57Z"/><path class="cls-7" d="M376,489.45l-25.13-.07a1.66,1.66,0,0,1-1.49-.81c-.45,2.08-3.84,2-3.6-.22a172.88,172.88,0,0,0-3-55.22q14.71-4.94,31.51-9.8c3.42,20.63,4,41.78,2.73,62.64a.72.72,0,0,0,0,.15A1.84,1.84,0,0,1,376,489.45Z"/><path class="cls-7" d="M566.32,391.46S636.66,359.13,735,359.13l1.55,47.29Z"/><path class="cls-13" d="M632.18,435.5l-7.34,7.15c-26.57,7.58-53.38,15.31-79.07,24.29q-3.84,1.34-7.63,2.73-6.06,2.19-12,4.5-12,4.62-23.44,9.78C469,499.16,429.8,514.84,389.53,526.3c-58.91,16.78-120.09,24.55-169.6,8.7a139.7,139.7,0,0,1-30-13.52l20.75-42,7.83-.82Z"/><path class="cls-6" d="M580.32,334.13c-19.81,18.35-43.67,26.45-68.16,28.37l.15,3.07a239.94,239.94,0,0,1-29.41-1.92q-5.64-.72-11.12-1.66l-2.4-.43q-6-1.08-11.72-2.4c-1.41-.32-2.8-.65-4.19-1q-6-1.47-11.7-3.13l-4-1.21-2.12-.66q-2.1-.66-4.17-1.35c-1.37-.45-2.73-.92-4.08-1.38-.68-.23-1.35-.47-2-.71-1.33-.47-2.65-.95-4-1.43s-2.59-1-3.86-1.46-2.53-1-3.77-1.48-2.46-1-3.67-1.49q-2.73-1.12-5.33-2.27l-.13-.05-3.3-1.46-1.67-.76-.51-.23-2.66-1.23-.85-.4-3.88-1.86-1.6-.79c-.93-.45-1.84-.9-2.74-1.36-4.42-2.23-8.46-4.39-12.07-6.39l-1.17-.65c-1.92-1.07-3.72-2.09-5.38-3.06l-1.93-1.12-1.8-1.06-.85-.5-.82-.49-.32-.19a29.61,29.61,0,0,1-1.25,9,22.58,22.58,0,0,1-7.38,11c-5.73,4.71-11.16,8.5-15.91,12.15q-1.51.9-2.88,1.65c-3.91,2.14-6.82,5.81-8.92,9.55a28.46,28.46,0,0,0-4.86,10.34c-3.09,12.68-10.44,11.75-13,6.53-.91-1.82-1.66-5.67-1.46-10.57a26.22,26.22,0,0,1-6.76-.82c-38.47-9.25-43.17-67.91-10.08-86.63,18.13-10.26,33.61-17.61,59.12-17.61,31.36,0,61,13.34,92,16.93,16,1.86,31.63.33,47.56-1.29,6.58-.67,13.18-1.35,19.75-2.29,4-.57,8-1.24,12-2.07a129,129,0,0,0,14.92-4,79.31,79.31,0,0,0,12.8-5.46c.25-.14,4-2.62,4.1-2.54C585.81,288.43,580.32,334.13,580.32,334.13Z"/><path class="cls-8" d="M580.32,334.13c-19.81,18.35-43.67,26.45-68.16,28.37l.15,3.07a239.94,239.94,0,0,1-29.41-1.92q-5.64-.72-11.12-1.66h0l-2.4-.42c-4-.72-7.89-1.53-11.72-2.4-1.41-.32-2.8-.65-4.19-1q-6-1.47-11.7-3.13l-4-1.21-2.12-.66q-2.1-.66-4.17-1.35c-1.37-.45-2.73-.92-4.08-1.38-.68-.23-1.35-.47-2-.71-1.33-.47-2.65-.95-4-1.43s-2.59-1-3.86-1.46-2.53-1-3.77-1.48-2.46-1-3.67-1.49c-1.81-.76-3.59-1.51-5.33-2.27l-.13-.05-3.3-1.46-1.67-.76-.51-.23-2.66-1.23-.85-.4-3.88-1.86-1.6-.79-2.74-1.36c-4.42-2.23-8.46-4.39-12.07-6.39l-1.17-.65c-1.92-1.07-3.72-2.09-5.38-3.06l-1.93-1.12-1.8-1.06-.85-.5-.82-.49a39.51,39.51,0,0,0-.52-6.8c-.48-2.9-.81-7.23-2.45-10.14a1.51,1.51,0,0,1,.86.38,112.49,112.49,0,0,0,43.31,24.53c8.11,2.39,17.56,3.91,25.38-.28,6.55-3.52,10.32-10.35,14.82-16a60.78,60.78,0,0,1,35.29-21.41c7.13-1.42,16.5.33,22.8-3.62,3.26-2,5.06-5.31,6.07-8.95,4-.57,8-1.24,12-2.07a129,129,0,0,0,14.92-4,79.31,79.31,0,0,0,12.8-5.46c.25-.14,4-2.62,4.1-2.54C585.81,288.43,580.32,334.13,580.32,334.13Z"/><path class="cls-6" d="M830.82,391.31a158.1,158.1,0,0,1-23.67,33.12l-.07.06c-35.2,37.27-78.46,40.91-106.79,38.1h0c-45.39-4.51-77.87-34.07-117.17-53.51-17.24-8.53-35.94-14.18-54.9-18.44-12.8-2.87-25.74-5.11-38.43-7.17-18.57-3-35.19-11.08-38.06-31.46-2.26-16,4.26-34.18,14-43.87,18-18,49.7-14.52,49.7-14.52s-4.84-22.87-4.44-34.21,16.75-12,17.9-2.55,7.45,21.25,7.45,21.25c17.4,23.63,14.71,38.38,14.71,38.38,42.09,0,96.1,28.59,126.75,45.5,10.67,5.89,18.51,10.37,22,11.73,13.64,5.28,23.57-13.26,23.57-13.26C795.45,346.82,830.82,391.31,830.82,391.31Z"/><path class="cls-13" d="M659.48,58.59C603,71.69,546.61,85.48,492.26,105.72,403.09,138.93,317,192.28,267.35,275.85,221.4,353.19,210,446.56,219.93,535a138.38,138.38,0,0,1-33.8-15.92c-.5-.33-1-.65-1.49-1q-3.83-2.58-7.49-5.46l-1.19-.95c-1.1-.88-2.18-1.78-3.25-2.71a125.5,125.5,0,0,1-13.23-13.25l-.09-.1c-16.52-19.16-29.1-44.92-36.33-78.73a644.79,644.79,0,0,1,31-65.05,659.36,659.36,0,0,1,120-157.3q17.89-17.28,37.08-33.16,9.42-7.78,19.14-15.22c2.5-1.91,5.08-3.76,7.66-5.63,7.68-.88,15-4,19.87-10.39a23.72,23.72,0,0,0,2.49-24.45,25.71,25.71,0,0,0-2.6-4.33c-6.52-8.8-17.65-12.25-27.63-16.38-4.6-1.91-9.21-3.8-13.84-5.63q5.71-2.69,11.5-5.21C387,48.25,452.3,34.39,514.58,34.39a451.3,451.3,0,0,1,93,9.9q2.7.57,5.4,1.18c.75.17,1.49.33,2.23.51l2.23.52,1.3.3c1.52.36,3,.74,4.56,1.11,1.93.49,3.86,1,5.78,1.49Q644.48,53.45,659.48,58.59Z"/><path class="cls-14" d="M526.14,474.17q-12,4.62-23.44,9.78C469,499.16,429.8,514.84,389.53,526.3c-43.26-9.76-104.88-12-152.53-11.93a3.28,3.28,0,0,1-.37-6.54Z"/><path class="cls-15" d="M632.18,435.5l-7.34,7.15c-26.57,7.58-53.38,15.31-79.07,24.29q-3.84,1.34-7.63,2.73L408.52,484.2,242.77,502.79a21.93,21.93,0,0,1-24.25-24s0-.07,0-.1c0-.35.06-.54.06-.54L515,447.58Z"/><path class="cls-16" d="M632.18,435.5l-7.34,7.15c-26.57,7.58-53.38,15.31-79.07,24.29q-3.84,1.34-7.63,2.73L408.52,484.2a92,92,0,0,1,37.37-14.72,95.47,95.47,0,0,1,21.83-.73c8.86.69,18,2.26,26.83.69,7.23-1.28,14.81-5.17,18.57-11.73A15.4,15.4,0,0,0,515,447.58Z"/><path class="cls-14" d="M186.13,519.08c-.5-.33-1-.65-1.49-1q-3.83-2.58-7.49-5.46l-1.19-.95c-1.1-.88-2.18-1.78-3.25-2.71-6.11-6.06-12.18-12.1-13.23-13.25l-.09-.1C183.51,326.69,265.9,218.14,365.06,148.11c16.53-11.67,14.15-37-4.26-45.38l-3-1.37c-6.52-8.8-17.65-12.25-27.63-16.38-4.6-1.91-9.21-3.8-13.84-5.63q5.71-2.69,11.5-5.21a241.42,241.42,0,0,0,175.26,1.7A814.73,814.73,0,0,1,607.59,44.29c1.8.38,3.6.78,5.4,1.18.75.17,1.49.33,2.23.51l2.23.52,1.3.3c1.52.36,3,.74,4.56,1.11,1.93.49,3.86,1,5.78,1.49C450.25,87.33,169.42,218.48,186.13,519.08Z"/><path class="cls-17" d="M495.79,295.52a43.1,43.1,0,0,0-8,.89,40.4,40.4,0,0,0-7.58,2.52,39.42,39.42,0,0,0-6.93,4,42.57,42.57,0,0,0-6.08,5.21,51.46,51.46,0,0,0-13.9,28.36,47.39,47.39,0,0,0-.47,7.94,43.09,43.09,0,0,0,1,7.84,33.77,33.77,0,0,0,6.75,14,37.78,37.78,0,0,0,12.27,9.6,58,58,0,0,0,15.19,4.81l-.45,0a2.9,2.9,0,0,1,.82.14l-.29-.08c6.93,1.3,14.1,1.93,21.34,3.12,1.81.29,3.62.64,5.43,1s3.64.87,5.35,1.32l10.45,2.7c14,3.59,28,7.22,41.7,12.51a159.91,159.91,0,0,1,19.88,9.37c6.37,3.54,12.57,7.28,18.73,11,12.33,7.49,24.51,15.12,37.1,21.84,6.3,3.35,12.67,6.53,19.2,9.21a95.5,95.5,0,0,0,20,6.07c.85.15,1.69.29,2.54.38s1.7.21,2.54.26c1.7.15,3.34.16,5.17.15h2.69l2.66-.08,5.32-.17c1.78,0,3.55-.22,5.32-.32l5.32-.39,5.3-.59,2.65-.3c.88-.11,1.75-.27,2.63-.4l5.26-.82c1.75-.3,3.48-.69,5.22-1,3.5-.62,6.9-1.61,10.35-2.43a164.32,164.32,0,0,0,20-7,120.87,120.87,0,0,0,35.16-23.27l.33-.27-.17.13-.08.07.08-.08.16-.16.31-.32.63-.64,1.25-1.27c.84-.84,1.68-1.69,2.46-2.59l2.38-2.66c.78-.9,1.51-1.84,2.27-2.76,1.54-1.82,2.9-3.78,4.33-5.68.69-1,1.34-2,2-3s1.33-2,1.94-3a131.89,131.89,0,0,0,12.35-25.82A161.33,161.33,0,0,0,842.79,347q1.14-7.11,1.65-14.32a125.29,125.29,0,0,0,.27-14.35v-.06a1.37,1.37,0,0,1,2.74-.15,127.76,127.76,0,0,1,0,14.74q-.38,7.34-1.41,14.62a157.22,157.22,0,0,1-6.75,28.61,135.82,135.82,0,0,1-12.38,26.75c-.62,1.07-1.28,2.11-2,3.13s-1.34,2.07-2,3.09c-1.46,2-2.83,4-4.41,6-.77,1-1.52,2-2.32,2.89l-2.43,2.8c-.8.95-1.65,1.84-2.51,2.72L810,424.77l-.64.67-.32.33-.16.17-.08.08-.16.15-.26.2.33-.26a125.71,125.71,0,0,1-36.25,24.7,164.88,164.88,0,0,1-20.66,7.52c-3.55.88-7.07,1.93-10.67,2.61-1.79.37-3.58.78-5.37,1.11l-5.41.89c-.9.14-1.8.31-2.71.43l-2.72.33-5.44.66-5.45.45c-1.82.12-3.63.34-5.46.38l-5.48.22-2.74.11-2.72,0c-1.76,0-3.74,0-5.63-.11-1-.05-1.9-.14-2.84-.26s-1.87-.24-2.81-.39A100.91,100.91,0,0,1,665,458.43c-3.41-1.39-6.75-2.89-10-4.47-1.64-.8-3.28-1.61-4.89-2.46s-3.24-1.67-4.84-2.54c-12.81-6.91-25.07-14.61-37.3-22.21-6.12-3.79-12.23-7.55-18.43-11.06a154,154,0,0,0-19.12-9.21c-13.2-5.24-27.06-9-41-12.65L518.95,391c-1.77-.48-3.41-.93-5.13-1.31s-3.43-.73-5.18-1c-7-1.24-14.17-2-21.4-3.41l-.29-.08a1.89,1.89,0,0,0,.66.1l-.45,0a62.53,62.53,0,0,1-16.32-5.42,42.13,42.13,0,0,1-13.58-10.91,38,38,0,0,1-7.4-15.78,47.23,47.23,0,0,1-1-8.64,49.23,49.23,0,0,1,.64-8.62,55,55,0,0,1,15.39-30.11,45.76,45.76,0,0,1,6.62-5.47,42.54,42.54,0,0,1,7.52-4.16,43.36,43.36,0,0,1,8.21-2.57,45.86,45.86,0,0,1,8.55-.81,1.37,1.37,0,0,1,0,2.73Z"/><path class="cls-17" d="M549.73,313.33a51,51,0,0,0-4-15.54,76.48,76.48,0,0,0-7.55-14.29c-.76-1.11-1.53-2.2-2.34-3.25-.39-.54-.82-1-1.24-1.56s-.8-1-1.35-1.67a31.92,31.92,0,0,1-4.18-8.09c-1-2.72-1.84-5.46-2.61-8.15l-.57-2-.28-1c-.09-.23-.16-.48-.25-.7a5.82,5.82,0,0,0-1.56-2.21,6.19,6.19,0,0,0-5.17-1.2,5.94,5.94,0,0,0-4.22,3.22,6.31,6.31,0,0,0-.43,1.35,4.76,4.76,0,0,0-.11.74l0,.39v.51l-.09,4.11a63.21,63.21,0,0,0,.43,8c.58,5.42,1.57,10.88,2.19,16.5a51.85,51.85,0,0,1,.4,8.64,12.57,12.57,0,0,1-1.06,4.66,5.21,5.21,0,0,1-1.88,2.18,5.08,5.08,0,0,1-2.79.71,1.37,1.37,0,0,1-.18-2.72l.18,0a1.93,1.93,0,0,0,1.84-1.43,9.67,9.67,0,0,0,.44-3.48,53.14,53.14,0,0,0-.95-8c-1-5.38-2.24-10.81-3.15-16.41a62.92,62.92,0,0,1-.89-8.64l-.09-4.22v-.53l0-.65a10.11,10.11,0,0,1,.13-1.33,12.07,12.07,0,0,1,.72-2.64,11.34,11.34,0,0,1,3.3-4.48,11.82,11.82,0,0,1,4.94-2.4,12.44,12.44,0,0,1,5.47,0,11.49,11.49,0,0,1,5,2.56A11.87,11.87,0,0,1,531,254.9c.17.42.28.85.42,1.27l.27,1,.51,2c.67,2.67,1.37,5.28,2.21,7.79a28.29,28.29,0,0,0,3.13,6.82c.27.4.78,1.06,1.2,1.62s.88,1.16,1.28,1.76l1.22,1.79,1.13,1.84a81,81,0,0,1,7.16,15.55,69,69,0,0,1,2.17,8.29,37.73,37.73,0,0,1,.77,8.63,1.37,1.37,0,0,1-2.73,0Z"/><path class="cls-17" d="M713.9,361.53A139.81,139.81,0,0,1,749,355.38a138.29,138.29,0,0,1,17.95.26,115.05,115.05,0,0,1,17.81,2.89,84,84,0,0,1,17.07,6.05l2.06,1c.67.34,1.33.72,2,1.07,1.32.74,2.68,1.4,4,2.2l3.84,2.42c1.28.8,2.46,1.75,3.69,2.62l1.83,1.33c.6.46,1.16,1,1.75,1.44,1.15,1,2.32,1.93,3.45,2.92,2.15,2.11,4.4,4.12,6.33,6.43a95.69,95.69,0,0,1,10.68,14.39,1.37,1.37,0,0,1-2.24,1.57l0-.06a108,108,0,0,0-11.3-13.11c-2-2.1-4.26-3.85-6.39-5.77-1.12-.89-2.28-1.73-3.41-2.6-.57-.43-1.13-.88-1.72-1.28l-1.79-1.17a87.55,87.55,0,0,0-15-8.08c-2.6-1.16-5.32-2-8-3-2.73-.82-5.44-1.72-8.21-2.41a125.78,125.78,0,0,0-16.88-3.19,147.53,147.53,0,0,0-17.26-.94,155.64,155.64,0,0,0-17.34,1,144.25,144.25,0,0,0-17.13,2.87l-.07,0a1.37,1.37,0,0,1-.73-2.63Z"/><path class="cls-17" d="M830.73,244.42a153.27,153.27,0,0,0-21.23,2,134.59,134.59,0,0,0-20.58,5.16c-13.4,4.58-25.84,11.47-37.51,19.59-5.84,4.06-11.53,8.4-17.36,12.69-2.92,2.15-5.91,4.25-9,6.22a62.77,62.77,0,0,1-10,5.26l-1.35.53-1.33.43-2.67.86c-1.78.57-3.63,1-5.44,1.44A65.26,65.26,0,0,1,693,300a52.86,52.86,0,0,1-11.34-.86,42.51,42.51,0,0,1-5.57-1.44c-.92-.29-1.82-.65-2.73-1-.45-.2-.9-.39-1.35-.62s-.86-.43-1.43-.77l0,0-.19-.13a37,37,0,0,1-3-2.78q-1.42-1.42-2.7-3a42,42,0,0,1-4.56-6.67,30.75,30.75,0,0,1-2.86-7.73,23.91,23.91,0,0,1-.17-8.38l0,.44a11.42,11.42,0,0,1,.08-1.47c0-.46.12-.88.19-1.32s.18-.85.27-1.28a11.52,11.52,0,0,1,.34-1.25,26.73,26.73,0,0,1,1.94-4.71,33.83,33.83,0,0,1,5.95-8l1.78-1.71,1.9-1.55,1-.77,1-.69,2-1.38c1.37-.86,2.79-1.63,4.19-2.44l4.34-2.09a1.37,1.37,0,0,1,1.25,2.44l-.09,0-4.06,2.2c-1.29.83-2.6,1.63-3.85,2.5l-1.82,1.38-.91.69-.85.76-1.69,1.51-1.55,1.63a30,30,0,0,0-5,7.27,22.62,22.62,0,0,0-1.5,4.06,8.7,8.7,0,0,0-.24,1c-.06.35-.15.69-.18,1s-.1.69-.11,1a8.39,8.39,0,0,0,0,.88,1.83,1.83,0,0,1,0,.24l0,.2a20.22,20.22,0,0,0,.37,6.72,26.13,26.13,0,0,0,2.59,6.39,37.13,37.13,0,0,0,4.17,5.73c.79.9,1.62,1.76,2.48,2.58a32.51,32.51,0,0,0,2.63,2.28l-.22-.15c.21.11.62.32,1,.47s.74.31,1.11.47c.76.29,1.54.59,2.34.81a37.29,37.29,0,0,0,4.9,1.14,47.27,47.27,0,0,0,10.14.51,61,61,0,0,0,10.14-1.46c1.66-.46,3.34-.82,5-1.36l2.46-.82,1.23-.41,1.16-.47c6.2-2.51,12-6.55,17.89-10.61s11.68-8.39,17.73-12.41a178.93,178.93,0,0,1,18.87-11.07,131.69,131.69,0,0,1,63.52-13.9,1.37,1.37,0,0,1,0,2.73Z"/><path class="cls-17" d="M303.55,345a81.86,81.86,0,0,1,11.37-2.45,41,41,0,0,1,5.92-.41,20.23,20.23,0,0,1,3.09.26,10.09,10.09,0,0,1,3.23,1.07,6.45,6.45,0,0,1,2.63,2.81,6.39,6.39,0,0,1,.43,3.83A15.56,15.56,0,0,1,327.5,356a70,70,0,0,1-7.73,8.82l-2,2-1,1c-.35.34-.64.64-1.12,1.06a12.11,12.11,0,0,1-6.22,2.69,22.16,22.16,0,0,1-6.3-.08c-1-.14-2-.33-3-.56l-2.9-.8a40.79,40.79,0,0,1-19.81-13.21,49.89,49.89,0,0,1-10.26-21.46,55.44,55.44,0,0,1-1.34-11.86,58,58,0,0,1,1.1-11.9,55.08,55.08,0,0,1,3.68-11.44,45.67,45.67,0,0,1,15.24-18.66c1.72-1.1,3.48-2.22,5.12-3.1s3.36-1.86,5-2.79c3.39-1.82,6.86-3.57,10.4-5.17a109.59,109.59,0,0,1,11-4.19A96.59,96.59,0,0,1,340.35,262a114,114,0,0,1,11.67-.18c1.95.1,3.9.1,5.83.29l5.8.58a205.07,205.07,0,0,1,22.67,4.45c14.85,3.7,29.35,8.07,44.21,10.7a220.51,220.51,0,0,0,22.41,2.9l5.65.29,2.82.14c.94,0,1.89,0,2.83,0,3.77,0,7.55.05,11.33-.12a1.37,1.37,0,0,1,.17,2.74h0c-3.81.3-7.64.36-11.48.48-1,0-1.92.08-2.87.06l-2.87-.06-5.75-.11a206.08,206.08,0,0,1-22.88-2.41c-15.17-2.34-29.95-6.46-44.68-9.79A213.1,213.1,0,0,0,363,268.1l-5.56-.46c-1.85-.16-3.71-.12-5.56-.19a108.32,108.32,0,0,0-11.12.34,96.4,96.4,0,0,0-21.63,4.34,130.69,130.69,0,0,0-20.36,9c-3.26,1.77-6.76,3.62-9.61,5.48a39.51,39.51,0,0,0-7.78,7.11,44.57,44.57,0,0,0-9.11,19.17,52.56,52.56,0,0,0-1.13,10.76,50.93,50.93,0,0,0,4.38,21.07,42.68,42.68,0,0,0,5.61,9.16,37.84,37.84,0,0,0,7.77,7.33,38.46,38.46,0,0,0,9.59,4.74,24.4,24.4,0,0,0,10.26,1.5,8,8,0,0,0,4.16-1.65c.24-.2.62-.57,1-.88l1-1L317,362a69.44,69.44,0,0,0,7.52-8.11,12.36,12.36,0,0,0,2.25-4.34,2.92,2.92,0,0,0-.1-1.76,2.72,2.72,0,0,0-.48-.73,2.66,2.66,0,0,0-.7-.58,10.75,10.75,0,0,0-4.73-1,38,38,0,0,0-5.46.23,79.21,79.21,0,0,0-11,2h0a1.37,1.37,0,0,1-.71-2.64Z"/><path class="cls-17" d="M361,303.09a45.94,45.94,0,0,1,3.08,9.57,40.87,40.87,0,0,1,.91,10.11,28.88,28.88,0,0,1-2.3,10.17,24.8,24.8,0,0,1-6.26,8.58c-5,4.39-10.28,8.2-15.33,12.16s-9.8,8-12.94,12.94a25.58,25.58,0,0,0-2,3.84,27,27,0,0,0-1.39,4.15,26.79,26.79,0,0,1-1.84,5.12,14.25,14.25,0,0,1-3.61,4.84,7.64,7.64,0,0,1-1.42,1,7.85,7.85,0,0,1-1.69.74,9,9,0,0,1-1.9.33,7.77,7.77,0,0,1-1.93-.19c-.31-.08-.62-.16-.93-.25l-.85-.39a8.69,8.69,0,0,1-1.52-1,9.93,9.93,0,0,1-2.18-2.55,10.37,10.37,0,0,1-.75-1.46,13.41,13.41,0,0,1-.48-1.43,21.6,21.6,0,0,1-.54-2.71,34.46,34.46,0,0,1-.3-5.24,44.36,44.36,0,0,1,5.05-19.65,45.73,45.73,0,0,1,13-15.24,1.37,1.37,0,0,1,1.74,2.12,44.47,44.47,0,0,0-11.07,14.89,41.44,41.44,0,0,0-3.68,17.86,29.36,29.36,0,0,0,.45,4.43,9.71,9.71,0,0,0,1.21,3.57,4.5,4.5,0,0,0,1,1.09c.19.08.36.27.54.3l.26.12.25,0a2.28,2.28,0,0,0,2-.78,8.66,8.66,0,0,0,2-3c.31-.58.49-1.3.75-1.94s.39-1.4.6-2.09a33.43,33.43,0,0,1,1.63-5.06,31.17,31.17,0,0,1,2.54-4.73,39.51,39.51,0,0,1,6.87-7.85c2.53-2.28,5.17-4.29,7.81-6.23,5.28-3.85,10.59-7.53,15.5-11.46a20.09,20.09,0,0,0,5.42-6.73,24.65,24.65,0,0,0,2.35-8.58,43.74,43.74,0,0,0-2.52-18.3l0-.08a1.37,1.37,0,0,1,2.53-1Z"/><path class="cls-17" d="M326.17,326.09a118.27,118.27,0,0,1,17.55,17.75,152.88,152.88,0,0,1,13.89,20.78,182.89,182.89,0,0,1,10.56,22.65c.74,1.95,1.51,3.88,2.18,5.86s1.39,3.93,2,5.92,1.28,4,1.83,6,1.14,4,1.63,6.08a45.86,45.86,0,0,1,1.11,6.5,25.85,25.85,0,0,1-.3,6.95,17.15,17.15,0,0,1-2.76,6.83,15.42,15.42,0,0,1-5.7,4.91,20.06,20.06,0,0,1-6.86,2,29,29,0,0,1-6.8-.08c-4.37-.47-9.31-2.16-12.54-6.12a19.08,19.08,0,0,1-3.19-6.26c-.34-1.07-.6-2.09-.86-3.1s-.51-2-.75-3c-1-4.06-1.7-8.1-2.64-12a60.91,60.91,0,0,0-3.7-11.36,36.61,36.61,0,0,0-6.47-9.85h0a1.37,1.37,0,0,1,2-1.92,39.7,39.7,0,0,1,7.61,10.26,61.22,61.22,0,0,1,4.5,11.84c1.15,4,2.1,8,3.16,11.94.27,1,.53,2,.83,2.91s.57,1.93.89,2.81a14.26,14.26,0,0,0,2.5,4.6,10.52,10.52,0,0,0,4.06,2.77,18.27,18.27,0,0,0,5.24,1.16c3.71.36,7.51,0,10.39-1.62a10.28,10.28,0,0,0,5.18-7.7,28.84,28.84,0,0,0-.76-11c-.42-1.92-1-3.88-1.5-5.84s-1.06-3.91-1.64-5.85-1.18-3.88-1.8-5.81-1.3-3.84-2-5.75a187.61,187.61,0,0,0-9.68-22.28,148.41,148.41,0,0,0-12.73-20.67,123.12,123.12,0,0,0-16.17-18.11,1.37,1.37,0,0,1,1.78-2.07Z"/><path class="cls-17" d="M371.13,522.09a64.51,64.51,0,0,0,6.46-20.57,98.92,98.92,0,0,0,1-10.83c.19-3.65.08-7.24.11-11s.09-7.36-.08-11a59.78,59.78,0,0,0-1.25-10.54c-.75-3.33-2-6.53-4-8.45a7.55,7.55,0,0,0-3.48-1.89,12.58,12.58,0,0,0-4.44-.27c-6.1.66-12.78,4.84-12.74,10.48-.39,7.49-1.11,15-2.24,22.38a157.84,157.84,0,0,1-4.92,22A85.68,85.68,0,0,1,336.36,523a1.37,1.37,0,0,1-2.36-1.39l0,0a88.5,88.5,0,0,0,7.71-20.32,171.05,171.05,0,0,0,3.84-21.56c.79-7.28,1.29-14.59,1.42-21.92,0-.25,0-.42,0-.72l.06-.9a12.34,12.34,0,0,1,.32-1.78,13,13,0,0,1,1.32-3.29,16.62,16.62,0,0,1,4.43-5,22.69,22.69,0,0,1,11.78-4.6,18.55,18.55,0,0,1,6.59.51,13.45,13.45,0,0,1,6.06,3.55,17.89,17.89,0,0,1,3.55,5.58,31.56,31.56,0,0,1,1.72,5.86,65,65,0,0,1,1.07,11.54c.05,3.8-.07,7.56-.26,11.25s-.23,7.44-.58,11.19a103.26,103.26,0,0,1-1.56,11.24,65,65,0,0,1-8,21.23,1.37,1.37,0,0,1-2.38-1.35Z"/><path class="cls-17" d="M668.05,434.88,565.46,445.72,462.84,456.31l-205,21.08a7.85,7.85,0,0,0-3.94,2.31,22.93,22.93,0,0,0-3.47,4.48,10.59,10.59,0,0,0-.76,9.66,10.72,10.72,0,0,0,7.31,6.38l.6.16c.21,0,.42,0,.63.07a9,9,0,0,0,1.26.1l1.28-.06c.46,0,1-.11,1.56-.17l6.4-.74,51.25-5.83,102.53-11.47c68.36-7.57,136.7-15.26,205.08-22.65a1.37,1.37,0,0,1,.32,2.72C559.58,470.8,491.29,478.94,423,487.21L320.58,499.5l-51.23,6.05-6.41.74c-.55.06-1,.13-1.64.18l-1.94.09a15,15,0,0,1-2-.14c-.32,0-.65-.06-1-.12l-1-.24a16,16,0,0,1-6.91-3.61,17.42,17.42,0,0,1-4.5-6.31,16,16,0,0,1-1.22-7.69,17.21,17.21,0,0,1,2.41-7.39,28.71,28.71,0,0,1,4.42-5.67,13.7,13.7,0,0,1,7.12-3.92c.85-.14,1.22-.15,1.8-.21l1.6-.16,3.21-.32,6.42-.64,12.83-1.28,25.67-2.47,51.35-4.93,102.69-9.85,102.69-9.85,102.72-9.6a1.37,1.37,0,0,1,.27,2.72Z"/><path class="cls-17" d="M775.83,128.8a27.6,27.6,0,0,1,2.47-4.18,24.55,24.55,0,0,1,3.22-3.76,15,15,0,0,1,4.41-2.93,10.16,10.16,0,0,1,5.8-.64,11.88,11.88,0,0,1,5.18,2.45,20.76,20.76,0,0,1,3.66,3.76,30.14,30.14,0,0,1,4.67,8.95l.39,1.21c.1.41.18.83.26,1.24.14.83.32,1.66.43,2.5a29.23,29.23,0,0,1,.11,5,33.44,33.44,0,0,1-.65,5l-.63,2.4c-.19.8-.54,1.56-.8,2.34a30.2,30.2,0,0,1-4.84,8.57,18.55,18.55,0,0,1-8,5.92,1.37,1.37,0,0,1-1.11-2.5l.07,0a17,17,0,0,0,5.82-5.77,29.07,29.07,0,0,0,3.34-7.73c.16-.69.4-1.35.49-2l.34-2.07a31.33,31.33,0,0,0,.19-4.16,37.51,37.51,0,0,0-.31-4.11c-.11-.67-.28-1.33-.41-2-.07-.33-.11-.67-.19-1l-.31-1a26.35,26.35,0,0,0-3.37-7.42c-1.5-2.24-3.36-4.16-5.36-4.71s-4.39.19-6.59,1.84a27.3,27.3,0,0,0-5.85,6.19l0,.07a1.37,1.37,0,0,1-2.35-1.38Z"/><path class="cls-17" d="M722.48,114.79a27.62,27.62,0,0,1,8-6.94,24,24,0,0,1,10.5-3.31,19.29,19.29,0,0,1,10.75,3,26,26,0,0,1,7.71,7.26,1.39,1.39,0,0,1-2,1.9h0a33.77,33.77,0,0,0-8-4.68,19.64,19.64,0,0,0-4.17-1.09,35.09,35.09,0,0,0-4.17-.28,22.92,22.92,0,0,0-8.52,1.63,37.41,37.41,0,0,0-8.14,4.41l-.1.07a1.37,1.37,0,0,1-1.88-2Z"/><path class="cls-17" d="M709.6,178.59a32.41,32.41,0,0,1-5.45.76,24.57,24.57,0,0,1-5.68-.38,21.22,21.22,0,0,1-10.24-5.26,23.75,23.75,0,0,1-3.81-4.47,23.37,23.37,0,0,1-2.48-5.37,23,23,0,0,1-.54-11.82,2.43,2.43,0,0,1,.18-.53l.05-.11c1.28-2.62,2.53-5.26,3.84-7.86s2.63-5.21,4-7.79l4.18-7.69,4.22-7.67.73,3.15c-.27-.22-.72-.52-1.11-.77s-.83-.51-1.27-.73a19.76,19.76,0,0,0-2.67-1.2,16.37,16.37,0,0,0-5.62-1,14.9,14.9,0,0,0-2.82.3,15.19,15.19,0,0,0-2.69,1,13.87,13.87,0,0,0-2.52,1.52,8.62,8.62,0,0,0-1.15,1l-1.14,1-.17.15a1.36,1.36,0,0,1-1.92-1.93,32.61,32.61,0,0,1,2.37-2.59,17.22,17.22,0,0,1,2.86-2.17,16.74,16.74,0,0,1,3.31-1.58,18.73,18.73,0,0,1,3.63-.73,19.45,19.45,0,0,1,7.25.72,24.45,24.45,0,0,1,3.39,1.25c.55.24,1.09.52,1.62.8a19.17,19.17,0,0,1,1.64,1,2.38,2.38,0,0,1,.82,3l-.08.17-3.74,7.92-3.77,7.9c-1.29,2.62-2.6,5.22-4,7.8s-2.74,5.15-4.11,7.72l.23-.64a18.23,18.23,0,0,0,0,9,19.68,19.68,0,0,0,1.68,4.29,19.05,19.05,0,0,0,2.76,3.74,17.67,17.67,0,0,0,7.95,4.86,20.94,20.94,0,0,0,4.76.77,35.81,35.81,0,0,0,5-.17h0a1.37,1.37,0,0,1,.44,2.7Z"/><path class="cls-17" d="M690.51,189.8c.55.19,1.21.4,1.84.55s1.28.32,1.93.45,1.3.28,2,.37,1.31.22,2,.29c1.33.1,2.64.29,4,.27l2,0c.66,0,1.33-.07,2-.09a53.61,53.61,0,0,0,15.5-3.15,67.34,67.34,0,0,0,7.21-3.29l1.75-.93a13.25,13.25,0,0,0,1.71-1l3.32-2.19a29.84,29.84,0,0,0,3.2-2.36l3.13-2.48c2-1.78,3.88-3.67,5.85-5.46l.13-.12a3,3,0,0,1,5,2.39c-.05.92-.13,1.63-.23,2.42s-.22,1.53-.35,2.29a42.21,42.21,0,0,1-1,4.48,47.47,47.47,0,0,1-3.3,8.57,43.74,43.74,0,0,1-11.34,14.41c-1.17,1-2.45,1.86-3.7,2.74s-2.61,1.61-4,2.27a45.2,45.2,0,0,1-4.17,1.86l-2.16.72-1.08.35-1.1.28a58.26,58.26,0,0,1-17.71,1.8,1.37,1.37,0,0,1,0-2.74,60.52,60.52,0,0,0,16.53-2.94l1-.32,1-.39,1.91-.78c1.22-.63,2.49-1.16,3.65-1.88s2.31-1.44,3.44-2.2,2.15-1.65,3.13-2.58a39.48,39.48,0,0,0,9.37-13.1,55,55,0,0,0,2.71-7.68c.36-1.31.64-2.64.91-4,.13-.66.24-1.33.34-2s.18-1.37.22-1.89l5.15,2.28c-2.12,1.91-4.21,3.84-6.4,5.68l-3.44,2.56a33.64,33.64,0,0,1-3.53,2.44L735.06,188a15.28,15.28,0,0,1-1.9,1l-1.94.93a63,63,0,0,1-8,3.21,58,58,0,0,1-17,2.51,44.11,44.11,0,0,1-16.83-3.34,1.36,1.36,0,0,1,1-2.54Z"/><path class="cls-17" d="M787.35,192.07c.41,3,.92,6.09,1.56,9.1s1.29,6,2.11,9a103.78,103.78,0,0,0,6.15,17.12c.64,1.36,1.3,2.69,2,4,.32.67.72,1.3,1.06,2s.71,1.3,1.09,1.94a43.5,43.5,0,0,0,5.15,7.17,36.36,36.36,0,0,0,6.58,5.82,36.9,36.9,0,0,0,8,3.94l0,0a1.37,1.37,0,0,1-.7,2.65,33.7,33.7,0,0,1-9.36-3.12,36.07,36.07,0,0,1-8.1-5.79,44.28,44.28,0,0,1-6.46-7.53,43.79,43.79,0,0,1-2.61-4.18L792.63,232l-1-2.23a85,85,0,0,1-5.4-18.54q-.82-4.73-1.27-9.48a88.48,88.48,0,0,1-.34-9.57,1.37,1.37,0,0,1,2.73-.15Z"/><path class="cls-17" d="M758.82,210.1a83.66,83.66,0,0,1-11.2,10.17,80,80,0,0,1-12.93,8,55.87,55.87,0,0,1-14.69,4.9,40.86,40.86,0,0,1-15.81-.2l-2-.47-1-.24-.94-.34-1.88-.71a14.79,14.79,0,0,1-1.84-.77c-1.19-.61-2.38-1.2-3.55-1.83l-3.28-2.22c-.27-.19-.55-.36-.81-.57l-.75-.63-1.5-1.27-1.5-1.27c-.46-.45-.91-.93-1.36-1.39-.9-.94-1.82-1.84-2.67-2.81l-2.41-3c-.39-.51-.81-1-1.18-1.51l-1.06-1.59-2.12-3.17c-1.29-2.18-2.51-4.4-3.69-6.62s-2.17-4.54-3.15-6.84l-2.69-7a1.37,1.37,0,0,1,2.52-1.09l0,.05c4.2,8.83,9,17.44,15.24,24.61l2.38,2.65c.83.83,1.72,1.61,2.57,2.42.43.4.85.81,1.29,1.2l1.39,1.06,1.38,1.06.69.53c.23.17.49.3.73.46a38.09,38.09,0,0,0,12.45,5.42,37.44,37.44,0,0,0,13.61.57,53.62,53.62,0,0,0,13.53-3.82A75.56,75.56,0,0,0,745.32,217a92.81,92.81,0,0,0,11.52-8.8l0,0a1.37,1.37,0,0,1,1.93,1.93Z"/><path class="cls-17" d="M808.49,39.19a10,10,0,0,0,6.15-2,9.78,9.78,0,0,0,3.59-5.36,10.18,10.18,0,0,0-.45-6.43,10,10,0,0,0-4.21-4.83,8.58,8.58,0,0,0-3-1,9.34,9.34,0,0,0-1.58-.07l-1.87.12-7.5.48-15,1.05q-30,2.18-59.82,5.51c-19.89,2.24-39.73,4.95-59.44,8.33s-39.33,7.37-58.79,12a795.21,795.21,0,0,0-114.27,36q-27.78,11.21-54.48,24.84l-13.22,7c-4.39,2.37-8.68,4.91-13,7.34L408.34,124l-3.2,1.93-6.4,3.87c-4.3,2.52-8.46,5.27-12.65,8a522.41,522.41,0,0,0-92.29,75.67,473.8,473.8,0,0,0-38.68,45.53,441.26,441.26,0,0,0-32.48,50.17,518.47,518.47,0,0,0-45.21,110.63,682.57,682.57,0,0,0-21.67,117.86,1.37,1.37,0,0,1-2.73-.25c3.43-40,10-79.85,20.57-118.68a522.88,522.88,0,0,1,44.7-112,460.45,460.45,0,0,1,71.33-97.3c27.74-29.32,59.41-54.76,93.2-76.71,4.24-2.73,8.44-5.5,12.79-8.05l6.47-3.91,3.24-2,3.29-1.86,6.59-3.7c2.21-1.21,4.37-2.51,6.62-3.65l13.39-7q27-13.61,55.1-24.71A800.21,800.21,0,0,1,605.53,42.36c19.59-4.52,39.32-8.37,59.14-11.68s39.76-5.87,59.73-8,40-3.66,60-4.92l15-.9,7.51-.4,1.88-.1a12.33,12.33,0,0,1,2.17.11,11.66,11.66,0,0,1,4.08,1.42A13.08,13.08,0,0,1,821,32.56a12.75,12.75,0,0,1-12.59,9.36,1.37,1.37,0,0,1,0-2.73Z"/><path class="cls-17" d="M217.86,496.21a239.53,239.53,0,0,1-1.15-35.3q.64-17.63,2.71-35.16a524.21,524.21,0,0,1,13-69.28c3-11.39,6.36-22.68,10.38-33.78A242.42,242.42,0,0,1,257,290.17c1.36-2.64,2.93-5.19,4.43-7.76l4.73-7.47c1.54-2.51,3.25-4.92,4.87-7.38l2.46-3.67,2.55-3.61c1.72-2.39,3.38-4.83,5.16-7.18l5.31-7.07c3.66-4.62,7.3-9.26,11.15-13.73,30.39-36.12,67.45-66.39,108-90.29q15.22-8.95,31-16.79c10.53-5.23,21.27-10,32.13-14.52a553.83,553.83,0,0,1,66.69-22.56,1.37,1.37,0,0,1,.75,2.64h0C491.48,104,448,122,408.22,146.27c-10,6-19.65,12.5-29.11,19.28S360.45,179.45,351.6,187,334.22,202.44,326,210.62l-6.12,6.21-6,6.36c-2,2.1-3.89,4.31-5.85,6.46l-2.9,3.25-2.82,3.32Q291,249.49,280.85,263.68l-2.55,3.54-2.46,3.6c-1.62,2.41-3.32,4.77-4.87,7.23l-4.73,7.33c-1.47,2.47-3,4.9-4.34,7.45a236.93,236.93,0,0,0-14.17,31.66c-4.06,10.88-7.46,22-10.57,33.24a519.66,519.66,0,0,0-13.79,68.51c-1.55,11.56-2.68,23.17-3.31,34.8a236.59,236.59,0,0,0,.5,34.85v0a1.37,1.37,0,0,1-2.72.29Z"/><path class="cls-17" d="M553.95,262.85a52.85,52.85,0,0,1,12.89,12.65,75.19,75.19,0,0,1,8.86,15.74c.52,1.42,1,2.85,1.45,4.28.21.72.51,1.42.65,2.16l.5,2.2c.32,1.47.68,2.93.92,4.41l.61,4.45c.09.74.21,1.48.29,2.22l.14,2.23c.1,1.49.15,3,.23,4.46,0,3-.14,5.94-.27,8.88a1.37,1.37,0,0,1-2.73.12l0-.12c-.39-2.87-.62-5.73-1-8.56-.25-1.41-.51-2.81-.73-4.22l-.34-2.1c-.14-.7-.33-1.38-.49-2.08l-1-4.13c-.34-1.37-.83-2.7-1.22-4.05-.74-2.72-1.85-5.3-2.69-8a86.76,86.76,0,0,0-7.24-15.17l-1.1-1.81-1.2-1.74c-.77-1.19-1.64-2.29-2.49-3.42a53.38,53.38,0,0,0-5.62-6.22l-.1-.1a1.36,1.36,0,0,1,1.69-2.13Z"/><path class="cls-17" d="M686.25,228a73.76,73.76,0,0,0-10.18-3.62c-.87-.27-1.75-.48-2.63-.69s-1.75-.45-2.64-.63c-1.78-.33-3.54-.75-5.34-1a86.05,86.05,0,0,0-21.55-.76A81.63,81.63,0,0,0,623,225.9a104.4,104.4,0,0,0-9.91,4.27q-4.85,2.43-9.61,5.1c-1.58.91-3.16,1.81-4.72,2.76s-3.15,1.86-4.71,2.81c-3.12,1.93-6.25,3.84-9.37,5.8-6.24,3.92-12.44,8-18.79,11.83a183.46,183.46,0,0,1-19.68,10.77,72.15,72.15,0,0,1-10.66,3.94,39.85,39.85,0,0,1-11.4,1.54,1.37,1.37,0,0,1,0-2.74h0a36.8,36.8,0,0,0,10.4-2.1,74.45,74.45,0,0,0,9.91-4.28,204.11,204.11,0,0,0,18.74-11.35l18.33-12.46c3.07-2.08,6.17-4.14,9.34-6.11s6.37-3.9,9.66-5.71a125.48,125.48,0,0,1,20.64-9.31l5.49-1.65c1.84-.51,3.73-.83,5.58-1.25s3.76-.61,5.65-.89c.95-.11,1.88-.28,2.83-.35l2.85-.15a90.5,90.5,0,0,1,22.61,1.73c1.86.32,3.67.87,5.51,1.31.91.24,1.81.54,2.71.8s1.8.54,2.69.87a67.81,67.81,0,0,1,10.45,4.45,1.37,1.37,0,0,1-1.2,2.45Z"/><path class="cls-17" d="M607.08,101.31l.63,41.34c0,.85,0,1.74,0,2.64l-.1,2.69a24.36,24.36,0,0,1-.28,2.67l-.35,2.67c-.37,1.75-.75,3.52-1.21,5.25l-.83,2.57a20.76,20.76,0,0,1-.93,2.53,53.29,53.29,0,0,1-11.89,17.88,25.6,25.6,0,0,1-2,1.83l-2,1.78-2.2,1.59a26.46,26.46,0,0,1-2.24,1.54l-2.34,1.39-1.17.69-1.23.59a42.23,42.23,0,0,1-5,2.17l-2.55.94-2.63.71c-.88.21-1.75.51-2.64.65l-2.68.45c-1.83.34-3.49.49-5.21.71l-5.13.62c-13.68,1.63-27.36,3.34-41,4.89q-10.26,1.21-20.54,2.32l-20.55,2.18-41.12,4.23c-27.42,2.74-54.83,5.61-82.27,8.18a1.37,1.37,0,0,1-.31-2.73c27.32-3.62,54.68-6.94,82-10.38l41-5,20.52-2.46q10.26-1.21,20.54-2.32c13.69-1.54,27.4-2.92,41.1-4.38l5.14-.54c1.7-.19,3.47-.33,5-.61l2.42-.37c.81-.12,1.58-.38,2.38-.56l2.37-.6,2.31-.81A47,47,0,0,0,588.68,178a48.62,48.62,0,0,0,11.19-16,18.09,18.09,0,0,0,.9-2.3l.82-2.33c.46-1.58.83-3.19,1.21-4.79l.37-2.45a21.45,21.45,0,0,0,.31-2.46l.14-2.48c.06-.82.1-1.65.1-2.52l.63-41.34a1.37,1.37,0,0,1,2.73,0Z"/><path class="cls-17" d="M285.62,60.58l68,34.68-.14-.06a21.37,21.37,0,0,1,10.88,10.13,22.46,22.46,0,0,1,2.12,7.27,23.57,23.57,0,0,1-.4,7.53,23.29,23.29,0,0,1-7.68,12.8,24.53,24.53,0,0,1-3.09,2.2c-.55.31-1.09.65-1.66.91l-1.63.79-3,1.44c-1,.49-2,.93-3,1.5a186,186,0,0,0-22.77,14.44c-7.28,5.34-14.4,10.93-21.24,16.87a520.17,520.17,0,0,0-39.26,37.63c-12.51,13.15-24.48,26.82-36,40.85a765.58,765.58,0,0,0-63.05,88.82A649.81,649.81,0,0,0,115,435.83a1.37,1.37,0,0,1-2.56-1C125,400.52,141.21,367.55,159.67,336a732.12,732.12,0,0,1,62.39-90.24q17.29-21.34,36.34-41.19l4.78-4.94,4.87-4.85c3.22-3.26,6.56-6.4,9.87-9.56s6.74-6.22,10.11-9.32l5.18-4.53,2.59-2.26,2.64-2.21c7-6,14.27-11.56,21.75-16.93a185.38,185.38,0,0,1,23.55-14.58c1-.57,2.09-1,3.14-1.52l3.18-1.46,1.46-.68c.47-.2.9-.47,1.34-.71a19.71,19.71,0,0,0,2.5-1.72,18.64,18.64,0,0,0,6.28-10.15,19.09,19.09,0,0,0,.42-6.06,18.05,18.05,0,0,0-1.6-5.82A17.08,17.08,0,0,0,351.84,99h0L351.7,99,284.35,63a1.37,1.37,0,0,1,1.26-2.42Z"/><path class="cls-17" d="M664.83,76.07a41.47,41.47,0,0,1,2.69-6.33A57.43,57.43,0,0,1,671,63.92a61.74,61.74,0,0,1,8.8-10.29,68.05,68.05,0,0,1,23-14.14A93.13,93.13,0,0,1,729.15,34c2.24-.21,4.48-.22,6.73-.3a57.37,57.37,0,0,1,6.87.26,52.34,52.34,0,0,1,13.45,3.16,57.6,57.6,0,0,1,22.34,15.83,82,82,0,0,1,14.28,23.17,97.67,97.67,0,0,1,6.77,26.3l.19,1.73c.05.65.07,1.28.07,1.92a21.11,21.11,0,0,1-.37,3.83,11.55,11.55,0,0,1-1.58,4.16,6.39,6.39,0,0,1-2.22,2.09,5.76,5.76,0,0,1-3.3.68,7.52,7.52,0,0,1-2.6-.74,12.94,12.94,0,0,1-1.86-1.1l-2.77-1.9c-1.89-1.28-3.56-2.49-5.33-3.73-14.22-9.59-30.63-15.79-47.55-19.55a226.2,226.2,0,0,0-25.76-4.14c-8.69-.86-17.44-1.55-26.13-1.66a122.94,122.94,0,0,0-25.8,2.14,69.46,69.46,0,0,0-12.3,3.6c-1,.38-2,.77-2.94,1.25s-2,.9-2.84,1.36A11.39,11.39,0,0,0,632.28,96a9.12,9.12,0,0,0-1.7,5.11,11.33,11.33,0,0,0,1.4,5.42,18.24,18.24,0,0,0,8.72,7.9,42.9,42.9,0,0,0,12.36,2.74c4.31.42,8.72.51,13.17.9a1.37,1.37,0,0,1-.2,2.74c-4.34-.26-8.75-.24-13.22-.55a46,46,0,0,1-13.42-2.64,21.43,21.43,0,0,1-10.7-9.31,15.12,15.12,0,0,1-2-7.22A13.06,13.06,0,0,1,629,93.82a15.42,15.42,0,0,1,5.48-5.09c1.07-.6,2.06-1,3.09-1.56s2.06-1,3.12-1.39a73.79,73.79,0,0,1,13-4.06A127.58,127.58,0,0,1,680.35,79c8.94,0,17.79.45,26.65,1.23a231.74,231.74,0,0,1,26.47,3.88c2.2.42,4.36,1,6.55,1.49s4.33,1.15,6.5,1.74c4.3,1.29,8.57,2.7,12.75,4.38a118.27,118.27,0,0,1,23.94,12.58c1.83,1.29,3.73,2.68,5.48,3.87l2.67,1.85a7,7,0,0,0,1,.59,1.72,1.72,0,0,0,.55.19c.07,0-.06,0-.11.05s0,0,.15-.17a6,6,0,0,0,.72-2,15.33,15.33,0,0,0,.29-2.74c0-.47,0-.94,0-1.39l-.15-1.56a91.94,91.94,0,0,0-6.08-24.81,76.63,76.63,0,0,0-13.07-21.79A53.29,53.29,0,0,0,754.4,41.65a47.53,47.53,0,0,0-12.16-3.08,52.65,52.65,0,0,0-6.33-.35c-2.16,0-4.33,0-6.48.18a89,89,0,0,0-25.28,4.83A64.82,64.82,0,0,0,682.08,56.1a58.53,58.53,0,0,0-8.58,9.55,54.47,54.47,0,0,0-3.43,5.44,39.25,39.25,0,0,0-2.63,5.75l0,.08a1.37,1.37,0,0,1-2.59-.86Z"/><path class="cls-17" d="M508.31,367.16h-13c-.86,0-1.73-.09-2.59-.14l-5.18-.3-5.18-.34-5.16-.61c-3.43-.44-6.9-.72-10.3-1.38a241.41,241.41,0,0,1-40.32-10.06,251.86,251.86,0,0,1-37.88-17c-6.09-3.27-12-6.77-17.9-10.4-2.92-1.83-5.84-3.65-8.71-5.52s-5.77-3.78-8.6-5.86a1.37,1.37,0,0,1,1.54-2.27l0,0c2.83,1.8,5.81,3.5,8.79,5.15l9,5c6,3.25,12,6.48,18.16,9.44,3,1.54,6.17,2.88,9.24,4.35s6.23,2.72,9.36,4.05l9.47,3.76,9.54,3.54,9.63,3.29,9.74,3,9.86,2.55c3.29.84,6.64,1.4,10,2.16s6.68,1.22,10,1.8l5,.82,5.07.55,5.07.59c.85.09,1.69.21,2.54.29l2.55.15,10.21.65h.08a1.37,1.37,0,0,1-.08,2.73Z"/><path class="cls-17" d="M808.5,39.19c.27-.15.51-.29.74-.4s.37-.32.54-.44.27-.33.38-.5a6.41,6.41,0,0,0,.32-.57c.42-.81.82-1.94,1.34-3.21a13.11,13.11,0,0,1,2.82-3.72A7.88,7.88,0,0,1,819.41,28a1.43,1.43,0,0,1,1.12,2.41l-.15.16a8.41,8.41,0,0,0-1.74,2.8,25.65,25.65,0,0,1-1.42,3.52A15.3,15.3,0,0,1,814,40.71a9.82,9.82,0,0,1-1.26.81,5.69,5.69,0,0,1-2.93.65,12.41,12.41,0,0,1-1.36-.24,1.35,1.35,0,0,1-.37-2.49Z"/></svg>