<svg id="Layer_1" data-name="Layer 1" xmlns="http://www.w3.org/2000/svg" viewBox="0 0 960 560"><defs><style>.cls-1{fill:#ffe7c2;}.cls-2{fill:#d69a67;}.cls-3{fill:#c78852;}.cls-4{fill:#00415c;}.cls-5{fill:#004968;}.cls-6{fill:#ffe8d9;}.cls-7{fill:#dbd6ce;}.cls-8{fill:#ebcebc;}.cls-9{fill:#ebba9b;}.cls-10{fill:#2a393b;}.cls-11{fill:#e6b083;}.cls-12{fill:#bfbbb4;}.cls-13{fill:#fff6f0;}.cls-14{fill:#233940;}</style></defs><title>elder, man, people, person, avatar</title><path class="cls-1" d="M680.06,224.89C677.49,210.2,672,196.29,665,183c-8.9-16.91-20.23-32.79-31.06-48-22.65-31.72-47.47-62.83-80.27-84.63-39.13-26-84-29.51-129.89-24.66-27.91,3-55.94,11-79.33,26.89-37.58,25.59-47.69,68.93-59.94,109.92-21.13,70.71-52.43,151.7-33.24,225.8a205.18,205.18,0,0,0,81.53,116.45c24.27,16.69,51.61,27.76,81.05,28.25,24.32.41,49.31-12.78,73.74-21.43,102.81-36.4,29.54-138.58,124.3-157.93C652.85,345.36,689.14,276.69,680.06,224.89Z"/><path class="cls-2" d="M518.57,205.25c-.61,9.91,1,19.37,1.88,29.27,1.55,17.74-19,44-33.89,61.23-6.05,7-13.86,13.79-23.13,13.8-8.77,0-16.23-6-22.89-11.72-9.64-8.26-19.38-16.62-26.84-26.89s-12.55-22.79-11.61-35.45c.8-10.79,5.86-20.89,6.91-31.65,1.15-11.77-2.55-23.74-.48-35.38,2.09-11.81,10-22,19.52-29.22A111,111,0,0,1,449.47,127c3.41-1.55,6.86-3,10.3-4.5,10.19-4.35,22-8.69,31.92-3.86,8.49,4.12,13,15,9.86,23.91l-4.29-3.8a43.78,43.78,0,0,1,9.52,13.38c4.72,9.74,7.42,21,15.89,33.5,1.72,2.54,1.44,5.87,1.25,8.94C523.75,197.28,518.74,202.49,518.57,205.25Z"/><path class="cls-3" d="M519.86,247.06c-4.4,12.31-16.33,20-29,21.16a109.39,109.39,0,0,0-8.65,11.46c-1.1,1.69-6.86,13.91-10,7.47q-2.12-4.39-4.53-8.61c-4.46,4.53-11,6.79-17.42,7-7.19.18-14.25-2-20.88-4.76-9.08-3.78-18-9.07-23.15-17.44-4.83-7.87-5.72-17.52-5.53-26.74a133.28,133.28,0,0,1,8.6-44.36l.09.54a1.3,1.3,0,0,1,1.33-1c2.29.2,3.54-.55,5.34-2,.9-.72.15-1.7.7-2.72.75-1.4-.86-5.64.47-6.4a1.19,1.19,0,0,1,.95,0c1.79.6,2.81,2.17,4.37,3.17a6.12,6.12,0,0,0,3.71,1.08c1-.07,1.9-.46,2.87-.47,2.84,0,2.08,2.3,1,3.94-7.88,11.77-7.54,27.43,0,39.28q.79,1.23,1.66,2.41a1.34,1.34,0,0,1,.27.7c4.62,3.6,9.56,6.86,14.47,10.07l7.38,4.83c1.27.95,2.43,1.39,3.6,2.15a43.19,43.19,0,0,0,35.55,5.07.79.79,0,0,1,.54-.65c5.45-1.82,8.31-6.47,8.69-12,.27-3.86-.08-7.81,1.69-11.37,2.88-5.86,10.15-6,14.09-1.06C522.29,233,522,241,519.86,247.06Z"/><path class="cls-4" d="M555.33,278.43c-.16,11-4.92,17.79-4.92,29.25,0,10.74,1.18,18.47-6.16,26.19-10.45,11-17.72,28.6-21.25,41.85-7.56-4.65-14.8-14.89-18.91-23q.81-3.49,1.66-6.94c4.66-18.91,11-37.82,20.59-53.94a134.92,134.92,0,0,0-24.49-29.38l.13-.21,40.67-35.55C538.55,253.91,546,265,555.33,278.43Z"/><path class="cls-5" d="M696.3,468.78l-2.47-.75c-18.74-21.41-24.79-27.74-37.77-32.31-12.47-4.41-25.92-3.61-47.36-2.59a72.8,72.8,0,0,1-25.7-3.27,76.79,76.79,0,0,1-27.58-15.93,93.07,93.07,0,0,1-14.7-16.64h0c-.61-.89-1.15-1.71-1.61-2.44l-.06-.1c-.79-1.24-1.38-2.24-1.77-2.94s-.61-1.12-.61-1.12a295.84,295.84,0,0,1-6.1,32.53,236,236,0,0,1-7.31,24c-19.46,53.19-49,68.11-49,68.11S405.11,564.63,326.7,500a129.48,129.48,0,0,1-17-16.9l-1.23-1.5c-21.12-26.15-31-60.22-32.66-93.41C274,352,280.2,315.91,303.86,287.34c13.77-16.63,32.24-27,49.53-39.49,4.21-3,16.65-8.72,19-13.26-.83,1.81-7.81,17.26-15.37,41.69-8.06,26,17.24,19.85,17.24,19.85s44-16.35,65.16,8.85S459,324.18,459,324.18c1.06-11.63,21.25-44.36,21.25-44.36,26-8.42,54.12,20.58,54.12,20.58l.18-.17,35.63-29.67c4.63,20,8.44,32.42,17.73,45.87,12.37,17.89,33.58,32.1,75.07,52.25,2.63,1.27,4.86,3.43,7.2,4.78,11.91,6.85,20.31,14.6,26.1,22.64C720.79,430.12,696.3,468.78,696.3,468.78Z"/><path class="cls-3" d="M433.62,169.51a7.1,7.1,0,0,1-5.7,7.13,6.62,6.62,0,0,1-7.63-5.42,6.53,6.53,0,0,1,5.29-7.9,7.15,7.15,0,0,1,7.65,4.16,2.5,2.5,0,0,1,.26.71A3.16,3.16,0,0,1,433.62,169.51Z"/><path class="cls-4" d="M587.92,316.43c-.16,11-4.92,17.79-4.92,29.25,0,10.74,1.18,18.47-6.16,26.19-10.45,11-17.72,28.6-21.25,41.85-7.56-4.65-14.8-14.89-18.91-23q.81-3.49,1.66-6.94c4.66-18.91,11-37.82,20.59-53.94a134.92,134.92,0,0,0-24.49-29.38l.13-.21,40.67-35.55C571.14,291.91,578.63,303,587.92,316.43Z"/><path class="cls-6" d="M576.82,239.42a2.54,2.54,0,0,0,0,.32c1.6,21.09-4.78,39.66-21.41,42.59-8.62,1.52-21-6.82-26.57-12.13-8.23-7.78-13.58-21.55-18.55-31.43-6.43-12.78,10.45-28.29,27.86-34.3,7.1-2.45,15.12-5.28,22.72-3.91,7.79,1.41,8.53,4.21,10.48,11.34C573.38,219.4,577.2,231.7,576.82,239.42Z"/><path class="cls-3" d="M506.78,152.08a31,31,0,0,1-19.26-.3c-4.65-1.64-8.83-4.38-13.38-6.25s-9.86-2.82-14.34-.78c-4.79,2.18-7.63,7.38-8.38,12.59a29.05,29.05,0,0,0-.18,6.17,34.18,34.18,0,0,1-4.12-31.76,31.55,31.55,0,0,1,2.36-4.8c3.41-1.55,6.86-3,10.3-4.5,10.19-4.35,22-8.69,31.92-3.86,8.49,4.12,13,15,9.86,23.91l-4.29-3.8A43.78,43.78,0,0,1,506.78,152.08Z"/><path class="cls-7" d="M520.24,120.19c-.93,30.12-23.71,22.46-40,15.28s-32.48,8-25.61,27a40.62,40.62,0,0,1,2.6,12.38c.31,10-5.48,13.5-7.64,6.64-3.63-11.49-14-25.07-26.49-21.24a6.42,6.42,0,0,0-4.08,3.8c-2.9,6.55.16,19.17-1.86,25.36-1.76,5.39-5.84,3.45-7.82,2.55h0c-7.86-23.93-6.89-49.9-6.06-60.32.24-3,.47-4.71.47-4.71,11.47-36.6,63-33.79,63-33.79s51.5-2.9,53.45,24.66A22.41,22.41,0,0,1,520.24,120.19Z"/><path class="cls-8" d="M561.65,204.94a1.38,1.38,0,0,1,.77,2.43,17.17,17.17,0,0,0-2.56,2.58,13.14,13.14,0,0,0-1.91,3c-.13.32-.27.64-.44,1a16.26,16.26,0,0,1-1.1,1.83l0,0c-3,4.39-9,9.2-16.63,12.5a21.34,21.34,0,0,1-3.17,1,13.44,13.44,0,0,1-9.9-1.22c-2.91-1.78-4.85-5.34-4.1-8.66l-7.4,6.92C528.09,211.2,542.84,203.59,561.65,204.94Z"/><path class="cls-4" d="M696.3,396.11a50.52,50.52,0,0,1-2.24,6.6c-6.88,16.51-21.91,26.22-38,33-12.47-4.41-25.92-3.61-47.36-2.59a72.8,72.8,0,0,1-25.7-3.27,108.76,108.76,0,0,1,53-48.25,109.3,109.3,0,0,1,34.19-8.14C682.11,380.32,690.5,388.06,696.3,396.11Z"/><path class="cls-5" d="M605.85,432.09s6.37-49.52,88.83-60.22c0,0,30.28,56.45,4.05,97.66C698.74,469.52,681.88,424.26,605.85,432.09Z"/><path class="cls-9" d="M561.59,208.1l-5.11,7.27a37.68,37.68,0,0,1-5.82,6.49c-10.29,9.11-26.19,12.65-39.47,9.44-.8-.2-1.53-.34-2.2-.47,2.18-2.52,6.49-3.59,7.88-6.79.94-2.16.58-6.37,3.73-6.85,1.43-.22,2.74.81,3.85,1.56a11.37,11.37,0,0,0,3.93,1.58,23.43,23.43,0,0,0,9.5,0c5.53-1,12-3.1,16-7.19C554.79,212.24,560,206,561.59,208.1Z"/><path class="cls-3" d="M488.09,171.95l-13.7-1.9a3.29,3.29,0,0,0-3.9,2.21c-.42,1.48.52,3.67,2.21,3.9l13.7,1.9a3.28,3.28,0,0,0,3.9-2.21C490.73,174.37,489.78,172.18,488.09,171.95Z"/><path class="cls-3" d="M516.94,191.85a9.27,9.27,0,0,1-11.35,1.07c-3.48-2.16-6.67,3.33-3.2,5.48a15.7,15.7,0,0,0,19-2.06C524.39,193.52,519.9,189,516.94,191.85Z"/><path class="cls-3" d="M517.35,216c-1.65,3.52-7.47,7.7-11.31,7.24-1.71-.21-3.15,1.61-3.17,3.17,0,1.88,1.6,4.55,3.3,4.75,5.83.7,14.18-6.66,16.66-12C524.55,215.53,519.08,212.31,517.35,216Z"/><path class="cls-5" d="M474.24,290,457.55,331c-4.42-9.31-10.27-18.4-18-25.12a45.33,45.33,0,0,0-11.16-7.27c-13.49-6.1-29-9.31-43.22-5.23-4.74,1.36-9.38,3.28-14.29,3.69s-11.4-.19-14.19-4.26c-2.9-4.23-1.1-10.74,0-15.75,6.92-31.36,24.28-61.18,47.19-83.88a2.66,2.66,0,0,1,4.53,1.83c.35,13.52,3.91,45,28.89,52.21,13.38,3.87,23.07,16,29.14,26.42A99.15,99.15,0,0,1,474.24,290Z"/><path class="cls-4" d="M450.63,361q0,.5-.07,1l-.24,3.57c-1.35,20.12-1.18,49.93-19.69,63.08-9.14,6.49-24.15,4.7-33.37-1.18-10.05-6.41-15.22-17.9-16.53-29.43a66.42,66.42,0,0,1,1.41-22.18,4.44,4.44,0,0,1,8.69.23,153.86,153.86,0,0,0,4.35,18.72c2.81,9.3,8,20.65,19.8,18.28,10.69-2.16,15.92-12.85,18.92-22.27a85.49,85.49,0,0,0-.38-52.4,44.69,44.69,0,0,0-6.46-6.42,49.25,49.25,0,0,0-33.56-10.78c-6.75.42-12.69,3-19.13,4.75-5.25,1.44-11.19,2.09-15.74-1.54-4.19-3.35-5.33-8.93-5.46-14-.18-6.8,1-13.73,1.94-20.44.1-.65.2-1.31.3-2a9.32,9.32,0,0,0,4,7.34,12,12,0,0,0,6.29,2.11c5.56.34,10.56-2.1,15.69-3.83,28.24-9.5,63.75,7.24,76.09,34.35-1.72,5.69-2.67,11.68-4.58,17.29C451.13,350.41,451,355.56,450.63,361Z"/><path class="cls-10" d="M547.13,400.42c0-.12,0-.25.07-.37l.35-.16Z"/><path class="cls-5" d="M568.84,357.2c-1,6.67-5.15,12-8.48,17.63q-5.51,9.39-10.28,19.18c-2.06,4.23-4.35,8.59-7.83,2.94-4.28-6.93-13.78-24.63-24.41-20.11-12.19,5.18-20.26-6.39-18.13-19.59a39.74,39.74,0,0,1,20.56-28.63,32.82,32.82,0,0,1,32.18,1.45,29.54,29.54,0,0,1,10.43,11.51C565.82,347.2,569.1,355.53,568.84,357.2Z"/><path class="cls-2" d="M699.76,465.36c-9.24-8.24-18.13-17.14-28.74-23.65-10.87-6.67-23.41-9.54-36.42-10.17-6.95-.34-13.73,1.18-20.69.2a51,51,0,0,0-9.19.13c-1.69.27-3.71,9.11-4.38,12.71a132.58,132.58,0,0,0-2,15.91c-.77,10.92,1.71,22.34,3.3,33.19a11.67,11.67,0,0,0,2,5.73c2.09,2.61,6,2.08,8.53.36,4.5-3.08,3.69-8.62,3.62-13.34a96,96,0,0,1,4.25-29.87c1.16-3.75,2.43-8.67,6-10.87,8.41-5.17,8.37,13.11,8.32,17a61,61,0,0,1-6,25.86c-2,4-5.95,9.05-5,13.75,1.08,5.22,6.12,6,10.62,6.39a56.82,56.82,0,0,0,14.75-.85c13.78-2.47,25.7-9.61,35.78-18.89a106.1,106.1,0,0,0,16-22.77A5.13,5.13,0,0,0,699.76,465.36Z"/><path class="cls-4" d="M474.24,290,457.55,331c-4.42-9.31-10.27-18.4-18-25.12,11.57,5,21.48-10.89,21.62-24.53,0-3.1,3-5.86,5.28-7.71A99.15,99.15,0,0,1,474.24,290Z"/><path class="cls-3" d="M522.42,245.44c-1.65,10.24-11.33,18.27-7.86,29.37,1.21,3.88,7.34,2.22,6.12-1.69-1.47-4.7.6-9.22,2.76-13.35s4.36-8.07,5.1-12.65C529.17,243.14,523.06,241.42,522.42,245.44Z"/><path class="cls-11" d="M547.3,254.51l-4.22-5.29c-1.07-1.34-3.37-1.12-4.48,0a3.25,3.25,0,0,0,0,4.48l4.22,5.29c1.07,1.34,3.37,1.12,4.48,0A3.25,3.25,0,0,0,547.3,254.51Z"/><path class="cls-3" d="M553.47,257.72a62,62,0,0,1-19.26,25c-3.21,2.51,1.3,7,4.48,4.48a68,68,0,0,0,20.89-27.81C561.14,255.64,555,254,553.47,257.72Z"/><path class="cls-3" d="M560,278.53,549.79,303.6c-1.54,3.78,4.59,5.42,6.12,1.69l10.24-25.07C567.69,276.44,561.56,274.8,560,278.53Z"/><path class="cls-3" d="M663.31,453.36c-.26-4.05-6.6-4.08-6.34,0a52,52,0,0,1-26.54,48.34c-3.58,2-.38,7.44,3.2,5.48C652.71,496.71,664.68,475.08,663.31,453.36Z"/><path class="cls-3" d="M675.72,462.87a48.15,48.15,0,0,1-23.56,38.79c-3.52,2.06-.33,7.55,3.2,5.48a54.72,54.72,0,0,0,26.7-44.26C682.25,458.79,675.91,458.8,675.72,462.87Z"/><path class="cls-12" d="M520.39,117.79a13.47,13.47,0,0,0-2.47,2.14c-3.3,3.49-5.23,8.22-9.9,9.34-9,2.16-17.31-2.81-25.91-4.54l-.14,0c-6.17-1.21-8.9,7.49-3.17,10.06,3.35,1.5,6.77,2.82,9.94,4,7.21,2.59,15.82,4.51,23,.89,7-3.52,8.44-12.36,8.67-19.43A22.39,22.39,0,0,0,520.39,117.79Z"/><path class="cls-3" d="M635.16,444.24c-5.34-4.74-13.36-5.44-18.52,0-5.37,5.6-6.71,14.87-8.14,22.15a159.87,159.87,0,0,0-3,28.16c-.07,4.08,6.27,4.08,6.34,0a149.51,149.51,0,0,1,1.91-22c1.08-6.52,2.23-13.53,4.77-19.67,2-4.7,6-8.07,11-5,5.51,3.46,5.58,10.84,4.63,16.55-.66,4,5.45,5.71,6.12,1.69C641.55,458.59,641.35,449.74,635.16,444.24Z"/><path class="cls-2" d="M567.08,312.29c-1.11,5.13-2.8,10.51-6,14.61-1.07,1.39-.9,2.49-2.3,3.58a1.73,1.73,0,0,1-1.13.48,1.54,1.54,0,0,1-1.12-.76c-15-23.33-37-51.95-70.95-51.53a20.58,20.58,0,0,0-5.34,1.13c-.63.18-1.37-.54-.93-1.15A105.17,105.17,0,0,1,519,245.34c2.35-1.14,4.51-2.58,6.78-3.86,3.5-2,7.46.35,8.66,3.92,3.26,9.67-11,11.72-14.68,17.9-1.91,3.19-1.22,8.48,1.44,11.51,4.11,2.58,19.4-6.61,21.84-12.68a3.26,3.26,0,0,0-.72-3.18h0c-1.93-2.06-4.26-5.52-4.07-8.51.31-4.95,9.18-1.88,11.9-1.17a19.07,19.07,0,0,1,5.5,2.2c4.5,2.89,6.89,8.63,8.67,13.46,2.12,5.78,2.2,11.94,3.39,18A72.68,72.68,0,0,1,567.08,312.29Z"/><path class="cls-13" d="M543,259.65c.81.85.11,2.88-.56,3.59a33.51,33.51,0,0,1-3.27,3c-2.79,2.28-6.68,4.25-10,1.7-2.79-2.11-4.22-5.69-5.14-8.82a45.13,45.13,0,0,1-1.82-12.74c0-3.64.76-7.42,4.3-9.5,3.7-2.18,8.3-2.14,12.46-3a1.52,1.52,0,0,1,1.4.37c3.51,0,6.12,3.18,3.08,5.81C537.79,244.93,536.44,252.79,543,259.65Z"/><path class="cls-14" d="M602.28,292.51a76.45,76.45,0,0,0-18.23,10.68,87.13,87.13,0,0,0-14.83,15.09c-8.69,11.21-14.95,24.17-19.8,37.55-2.43,6.7-4.52,13.54-6.36,20.44s-3.42,13.9-5,20.92c-3.09,14-6,28.19-9.9,42.18s-9,27.8-16.32,40.55a106.5,106.5,0,0,1-12.86,18,55.2,55.2,0,0,1-3.8,4l-1.95,2-1,1c-.34.31-.69.61-1,.92l-4.18,3.63c-.35.3-.69.61-1.05.9l-1.11.83-2.22,1.66c-2.9,2.3-6.08,4.18-9.18,6.19-1.57,1-3.22,1.79-4.83,2.69L466.24,523c-.81.44-1.67.79-2.5,1.18l-5,2.31c-1.71.69-3.44,1.32-5.16,2l-2.59,1-2.64.81L443,531.88a121.86,121.86,0,0,1-43.88,3.54,124,124,0,0,1-42.26-12.33c-1.64-.83-3.25-1.73-4.88-2.59l-2.43-1.31-2.35-1.44-4.7-2.9L338,511.68c-.75-.54-1.51-1-2.24-1.6l-2.16-1.71c-1.43-1.15-2.9-2.26-4.3-3.45-2.73-2.46-5.56-4.81-8.11-7.46a146.26,146.26,0,0,1-14.5-16.55l-3.22-4.46-.8-1.12-.74-1.16-1.49-2.32c-2.05-3-3.79-6.28-5.61-9.46-.91-1.59-1.65-3.27-2.49-4.91s-1.65-3.27-2.36-5c-1.5-3.36-2.79-6.79-4-10.22a191.43,191.43,0,0,1-6.06-21,203.18,203.18,0,0,1-5.11-43.32A175.84,175.84,0,0,1,276,356.12c.25-1.81.42-3.62.73-5.42l.93-5.39c.76-3.57,1.46-7.15,2.48-10.66s2.09-7,3.22-10.46l2-5.12.49-1.28.56-1.25,1.11-2.5,1.12-2.5c.38-.83.83-1.63,1.23-2.44.85-1.62,1.64-3.26,2.53-4.85l2.79-4.71.7-1.18.77-1.14,1.53-2.27c2-3.08,4.3-5.89,6.5-8.8l3.58-4.13c.6-.68,1.19-1.38,1.8-2.05L312,278c1.28-1.29,2.54-2.61,3.85-3.88l4.06-3.65c.68-.6,1.34-1.23,2-1.81l2.14-1.7,4.27-3.39a1.37,1.37,0,0,1,1.72,2.13l-.06.05-4.13,3.39-2.06,1.7c-.68.58-1.31,1.2-2,1.8l-3.91,3.63c-1.26,1.26-2.46,2.57-3.7,3.85l-1.84,1.93c-.59.67-1.15,1.36-1.73,2l-3.42,4.08c-2.09,2.87-4.33,5.64-6.18,8.67l-1.46,2.23-.73,1.11-.66,1.16L295.56,306c-.85,1.56-1.6,3.17-2.41,4.75-.39.8-.81,1.58-1.17,2.39l-1.06,2.44L289.87,318l-.53,1.22-.46,1.25-1.84,5c-1.06,3.39-2.2,6.75-3,10.21s-1.59,6.92-2.29,10.4l-.84,5.26c-.28,1.75-.43,3.53-.65,5.29a171.48,171.48,0,0,0-1,21.29,198.48,198.48,0,0,0,5.47,42.24c3.36,13.82,8,27.33,14.88,39.67,1.78,3.05,3.47,6.15,5.47,9.06l1.45,2.22.72,1.11.78,1.07,3.14,4.27a140.57,140.57,0,0,0,14.07,15.79c2.46,2.53,5.21,4.75,7.84,7.1,1.35,1.13,2.77,2.18,4.15,3.27l2.08,1.63c.7.53,1.44,1,2.16,1.52l4.34,3,4.49,2.77,2.25,1.38,2.32,1.25c1.55.82,3.09,1.68,4.66,2.48a118,118,0,0,0,40.21,11.74c3.48.47,7,.48,10.5.62,1.75.06,3.51-.08,5.26-.11s3.51-.07,5.25-.29l5.24-.5c1.74-.21,3.47-.54,5.2-.8l2.6-.42c.86-.15,1.71-.38,2.57-.57l5.14-1.17,5.05-1.5,2.52-.75,2.47-.92c1.64-.62,3.3-1.21,4.93-1.85l4.8-2.16c.79-.37,1.62-.69,2.39-1.11l2.32-1.24c1.54-.85,3.12-1.62,4.62-2.53,3-1.89,6-3.65,8.76-5.82l2.12-1.56,1.06-.78c.35-.27.67-.57,1-.85l4-3.42c.33-.29.67-.56,1-.86l.93-.93,1.86-1.86a51,51,0,0,0,3.62-3.8,101.2,101.2,0,0,0,12.37-17c7.16-12.16,12.15-25.56,16.14-39.25s7-27.76,10.27-41.81c1.63-7,3.3-14.05,5.24-21s4.14-13.91,6.69-20.72c5.12-13.58,11.75-26.78,20.9-38.25a90.33,90.33,0,0,1,15.6-15.42A79.35,79.35,0,0,1,601.26,290a1.37,1.37,0,0,1,1,2.53Z"/><path class="cls-14" d="M521.87,276.61a5.24,5.24,0,0,1-3.11-2.45,7.79,7.79,0,0,1-.95-3.48,17.45,17.45,0,0,1,1-6.44,15,15,0,0,1,1.36-3,17.77,17.77,0,0,1,2-2.62,46.15,46.15,0,0,1,4.55-4.2c.76-.64,1.5-1.27,2.19-1.92a15.82,15.82,0,0,0,1.83-2,11.47,11.47,0,0,0,2.23-4.59,4.22,4.22,0,0,0,0-2c-.2-.48-.35-.66-.81-.8a4.05,4.05,0,0,0-2,0,12.31,12.31,0,0,0-2.44.8,106.57,106.57,0,0,0-37.16,27.84,134.61,134.61,0,0,0-13.6,19.05,159.76,159.76,0,0,0-10.29,21.1,208.86,208.86,0,0,0-12.13,45.44c-.6,3.88-1,7.8-1.46,11.69s-.61,7.81-.84,11.79c-.45,8-1,16.15-3.08,24.25a53.41,53.41,0,0,1-4.57,11.74A40.93,40.93,0,0,1,436.92,427a33.55,33.55,0,0,1-5.13,4,29.91,29.91,0,0,1-5.93,2.82,28.32,28.32,0,0,1-13,1.19c-8.63-1.25-16.25-5.86-22-11.93a42.27,42.27,0,0,1-7.18-10.31,36,36,0,0,1-2.27-5.89c-.27-1-.59-2-.81-3l-.62-3a64.65,64.65,0,0,1,1-24.45,117.43,117.43,0,0,1,8-22.84,1.37,1.37,0,0,1,2.51,1.1h0a114.38,114.38,0,0,0-7.12,22.43,62.42,62.42,0,0,0-.48,23.05l.63,2.8c.21.93.54,1.83.8,2.74a31.81,31.81,0,0,0,2.13,5.21,37.94,37.94,0,0,0,6.62,9.1c5.27,5.35,12.18,9.23,19.43,10.11a23.21,23.21,0,0,0,10.61-1.18,24.85,24.85,0,0,0,4.8-2.4,28.18,28.18,0,0,0,4.22-3.4c5.19-5.16,8.59-12.19,10.39-19.49s2.2-15.21,2.63-23.15c.21-4,.41-8,.79-12.06s.93-8,1.56-12a212.52,212.52,0,0,1,5.12-23.67,196.57,196.57,0,0,1,7.86-22.94,165.16,165.16,0,0,1,10.93-21.69,134.08,134.08,0,0,1,14.43-19.6,111,111,0,0,1,39.31-28.28,15.54,15.54,0,0,1,3.25-1,7.7,7.7,0,0,1,3.94.2,4.8,4.8,0,0,1,2,1.3,5.18,5.18,0,0,1,1.15,2,7.84,7.84,0,0,1,0,3.89,15,15,0,0,1-3.07,6,19.35,19.35,0,0,1-2.28,2.34c-.78.69-1.58,1.33-2.36,2-3.1,2.48-6.07,4.85-7.15,8.27a14.6,14.6,0,0,0-1,5.28,5,5,0,0,0,.51,2.25,2.42,2.42,0,0,0,1.41,1.2l.06,0a1.37,1.37,0,0,1-.82,2.6Z"/><path class="cls-14" d="M558.08,330.72a64.47,64.47,0,0,0,4.81-11.4,63.6,63.6,0,0,0,2.62-12A76,76,0,0,0,566,295c-.07-2-.25-4.08-.48-6.11s-.52-4.15-.82-6.19-.65-4.07-1-6.08-.82-4-1.36-5.93a46.55,46.55,0,0,0-2-5.68c-.38-.9-.81-1.86-1.22-2.64a26.69,26.69,0,0,0-1.53-2.47,35,35,0,0,0-8.25-8.49,13.28,13.28,0,0,0-5-2.25,6.32,6.32,0,0,0-4.88,1.07l0,0a1.37,1.37,0,0,1-1.7-2.14,9.19,9.19,0,0,1,3.23-1.92,9.78,9.78,0,0,1,3.77-.46,16.26,16.26,0,0,1,6.77,2.25A36.74,36.74,0,0,1,561.63,257a31.78,31.78,0,0,1,2,2.81,33.2,33.2,0,0,1,1.65,3,52.09,52.09,0,0,1,2.55,6.22,56.32,56.32,0,0,1,1.77,6.41c.48,2.15.84,4.31,1.11,6.47s.5,4.31.66,6.45.25,4.4.23,6.6a73.68,73.68,0,0,1-1.26,13.11,68,68,0,0,1-3.71,12.61,59.69,59.69,0,0,1-6.24,11.49,1.37,1.37,0,0,1-2.33-1.43Z"/><path class="cls-14" d="M567.57,357.72c-1.82-3.79-3.44-7.62-5.19-11.38s-3.45-7.53-5.45-11c-.51-.88-1-1.61-1.58-2.52l-1.71-2.6-3.45-5.15c-2.3-3.42-4.71-6.72-7.19-9.93-1.25-1.6-2.53-3.15-3.82-4.7s-2.62-3-4-4.48c-.68-.74-1.41-1.42-2.12-2.13s-1.48-1.4-2.24-2.09c-1.51-1.37-3-2.73-4.6-4a150,150,0,0,0-20.11-14.18,1.37,1.37,0,0,1,1.25-2.44,116.38,116.38,0,0,1,21.94,12.68c1.71,1.25,3.41,2.53,5.06,3.88.83.66,1.64,1.35,2.46,2s1.64,1.42,2.42,2.17a69,69,0,0,1,8.6,9.61c2.59,3.4,4.86,7,7.09,10.57,1.11,1.79,2.17,3.6,3.22,5.41l1.57,2.71c.51.86,1.1,1.92,1.56,2.88a126.41,126.41,0,0,1,4.82,11.79c1.39,4,2.72,7.92,4,11.84h0a1.37,1.37,0,0,1-2.53,1Z"/><path class="cls-14" d="M508.08,155.76q4.35,6.47,8.42,13.1l4,6.65,2,3.34c.66,1.1,1.33,2.22,2,3.46a17.14,17.14,0,0,1,2.3,8.84,10.51,10.51,0,0,1-1.55,5,11.31,11.31,0,0,1-3.53,3.52A14.88,14.88,0,0,1,513,201.9a35.41,35.41,0,0,1-8-1.37,1.38,1.38,0,0,1,.43-2.71,44.34,44.34,0,0,0,7.44,0,14.33,14.33,0,0,0,3.25-.76,9.46,9.46,0,0,0,2.69-1.53,6.34,6.34,0,0,0,1.71-2.13A5.18,5.18,0,0,0,521,191a16.53,16.53,0,0,0-1.94-6l-3.44-6.85-3.43-7q-3.4-7-6.51-14.15a1.37,1.37,0,0,1,2.4-1.31Z"/><path class="cls-14" d="M473.38,170.59a22,22,0,0,1,3.76-.55,32.65,32.65,0,0,1,3.69-.05,13.43,13.43,0,0,1,3.53,1.06,22.54,22.54,0,0,1,3.44,1.66,1.49,1.49,0,0,1-.4,2.71,22.54,22.54,0,0,1-3.77.6,13.42,13.42,0,0,1-3.68,0,32.65,32.65,0,0,1-3.52-1.11,22,22,0,0,1-3.45-1.61,1.48,1.48,0,0,1,.4-2.7Z"/><path class="cls-14" d="M450.67,245.63a46.43,46.43,0,0,0,21.85,8.64,60.11,60.11,0,0,0,11.71.71A46.61,46.61,0,0,0,496,252.73h0a1.38,1.38,0,0,1,1.16,2.48,36.35,36.35,0,0,1-12.26,4.72,36.73,36.73,0,0,1-13.3.36A42.36,42.36,0,0,1,459,255.84a36.47,36.47,0,0,1-10.24-8.21,1.38,1.38,0,0,1,1.86-2Z"/><path class="cls-14" d="M626.67,443.35a69.26,69.26,0,0,0-9.84,30,63.1,63.1,0,0,0-.27,7.9c0,2.66.33,5.17.57,8a26.47,26.47,0,0,1,0,4.44,14.39,14.39,0,0,1-1.19,4.67,11.19,11.19,0,0,1-3.1,4.09,8.74,8.74,0,0,1-2.4,1.39,13.64,13.64,0,0,1-1.48.39,9.89,9.89,0,0,1-1.66,0,8.08,8.08,0,0,1-1.63-.43,6.76,6.76,0,0,1-1.38-.77,9.19,9.19,0,0,1-2-2,17.43,17.43,0,0,1-2.26-4.16,46.58,46.58,0,0,1-2.33-8.3,127.34,127.34,0,0,1-2-16.53c-.17-2.76-.28-5.51-.31-8.29,0-1.38,0-2.85.09-4.22s.16-2.79.26-4.18a101.7,101.7,0,0,1,2.74-16.52c.68-2.71,1.47-5.4,2.36-8s1.93-5.26,3.07-7.81,2.35-5.07,3.72-7.54l1.05-1.86a10.82,10.82,0,0,1,.63-1l.63-.89c.85-1.16,1.72-2.28,2.62-3.36A102,102,0,0,1,638,386.72a111.59,111.59,0,0,1,30.57-12.8A121.39,121.39,0,0,1,684.82,371a144.09,144.09,0,0,1,16.47-.67,1.37,1.37,0,0,1,0,2.74h0a141.09,141.09,0,0,0-16,1.35,130,130,0,0,0-15.68,3.34,107.11,107.11,0,0,0-29,13.15A104.28,104.28,0,0,0,628,400.57,91.63,91.63,0,0,0,617.14,412c-.81,1-1.59,2.07-2.32,3.12l-.53.78a6.29,6.29,0,0,0-.43.72l-.92,1.71c-1.2,2.32-2.38,4.69-3.4,7.11a105.34,105.34,0,0,0-5.11,14.94c-.65,2.55-1.23,5.13-1.67,7.73s-.83,5.21-1.11,7.83c-.12,1.31-.25,2.63-.32,3.95s-.15,2.58-.15,3.92c0,2.65,0,5.33.15,8a122.19,122.19,0,0,0,1.58,15.84,41.71,41.71,0,0,0,1.91,7.41,12.66,12.66,0,0,0,1.53,3,2.92,2.92,0,0,0,1.57,1.29,2.4,2.4,0,0,1,.37,0c.16-.06.31-.06.49-.11a3.9,3.9,0,0,0,1.13-.61,6.48,6.48,0,0,0,1.82-2.31,13.92,13.92,0,0,0,1-6.86c-.15-2.57-.4-5.47-.35-8.25a67.2,67.2,0,0,1,.52-8.37,72.28,72.28,0,0,1,11.5-31,1.37,1.37,0,0,1,2.3,1.48Z"/><path class="cls-14" d="M623.59,500A94.88,94.88,0,0,0,632,474.71c.81-4.33,1.71-8.67,2.11-13.11a101.87,101.87,0,0,0,.32-13.44h0a1.38,1.38,0,0,1,2.71-.41,61.73,61.73,0,0,1,2,14,57.21,57.21,0,0,1-1.14,14.2,66.5,66.5,0,0,1-12,25.52,1.37,1.37,0,0,1-2.32-1.45Z"/><path class="cls-14" d="M650.54,505.23a70.31,70.31,0,0,0,14-4.92c1.1-.56,2.25-1,3.32-1.68l3.23-1.84,3.11-2c1-.67,2-1.47,3-2.19A75.68,75.68,0,0,0,688,482.43a74.24,74.24,0,0,0,8.44-12.13c.57-1.09,1.21-2.15,1.71-3.27l1.54-3.35,1.31-3.45c.46-1.14.74-2.34,1.11-3.51a70.07,70.07,0,0,0,2.55-14.48,74.47,74.47,0,0,0-.61-14.7c-.21-1.21-.33-2.43-.6-3.63l-.78-3.6-1-3.54c-.31-1.19-.79-2.32-1.17-3.48a73.18,73.18,0,0,0-6.35-13.2,70.36,70.36,0,0,0-9.07-11.47C678.3,381.56,670,376,661.4,371s-17.81-9.21-27-13.64c-4.55-2.19-9.23-4.52-13.69-7.18a129.07,129.07,0,0,1-12.82-8.84,111.44,111.44,0,0,1-11.59-10.44,100.16,100.16,0,0,1-10-12,93.3,93.3,0,0,1-8-13.47c-.59-1.17-1.08-2.39-1.62-3.58s-1-2.41-1.5-3.65a68.75,68.75,0,0,1-2.34-7.59,56.05,56.05,0,0,1-1.64-15.88,123.33,123.33,0,0,1,2.2-15.4A74.49,74.49,0,0,0,575,244.7a109.93,109.93,0,0,0-1.39-14.78,114.3,114.3,0,0,0-3.33-14.51c-.35-1.19-.73-2.37-1.12-3.55l-.59-1.75a6.94,6.94,0,0,0-.57-1.28,1.64,1.64,0,0,0-.54-.57,1.87,1.87,0,0,0-.82-.23,3.94,3.94,0,0,0-2.26.61,8.1,8.1,0,0,0-2.07,2.09c-.66.9-1.29,2-2,3.08a41.15,41.15,0,0,1-5,6.26,45.3,45.3,0,0,1-12.88,9.24,51.39,51.39,0,0,1-30.8,4,59.84,59.84,0,0,1-7.61-1.78l-.94-.29a3.39,3.39,0,0,1-1.52-.9,3,3,0,0,1-.76-1.89,3.54,3.54,0,0,1,.36-1.68,4.35,4.35,0,0,1,2.15-2c.75-.34,1.33-.51,1.91-.73a35.76,35.76,0,0,0,6.63-3,11.33,11.33,0,0,0,4.58-4.84,1.37,1.37,0,0,1,2.52,1.09h0a14.14,14.14,0,0,1-5.53,6.21,38.55,38.55,0,0,1-7.11,3.44c-.6.24-1.23.45-1.63.66a2.32,2.32,0,0,0-.48.31l-.13.14a.35.35,0,0,0,0,.07.34.34,0,0,0,0,.16s0-.06-.08-.16-.13-.07.14,0l.88.25a56.49,56.49,0,0,0,7.22,1.52c9.71,1.39,19.85.2,28.51-4.19a41.21,41.21,0,0,0,11.58-8.58,36.87,36.87,0,0,0,4.38-5.68c.64-1,1.28-2.16,2.09-3.32a12.35,12.35,0,0,1,3.24-3.29,8.39,8.39,0,0,1,5-1.37,6.41,6.41,0,0,1,2.81.8,6.23,6.23,0,0,1,2.15,2.06,11.2,11.2,0,0,1,1,2.15l.66,1.84c.43,1.22.84,2.44,1.23,3.68a119.12,119.12,0,0,1,3.71,15.06,114.94,114.94,0,0,1,1.7,15.45,76.85,76.85,0,0,1-1.39,15.65,119.37,119.37,0,0,0-1.94,14.71,50.39,50.39,0,0,0,1.65,14.25,62.92,62.92,0,0,0,2.22,6.91c.43,1.13.91,2.25,1.43,3.36s1,2.24,1.55,3.33a92.52,92.52,0,0,0,7.6,12.58,94.09,94.09,0,0,0,9.47,11.3,106.21,106.21,0,0,0,10.95,9.94A123,123,0,0,0,623.85,345c4.24,2.56,8.61,4.81,13.17,7.06,9.05,4.5,18.26,8.91,27.16,14.09a142.87,142.87,0,0,1,13,8.51A88.69,88.69,0,0,1,688.89,385a70.88,70.88,0,0,1,16.27,26.67c.39,1.25.88,2.47,1.19,3.74l1,3.79.78,3.85c.27,1.28.39,2.59.58,3.88a79,79,0,0,1,.41,15.64,74.38,74.38,0,0,1-2.95,15.37c-.42,1.24-.74,2.51-1.24,3.72l-1.44,3.64-1.68,3.54c-.55,1.18-1.25,2.29-1.87,3.44a76.31,76.31,0,0,1-9.15,12.61,79.18,79.18,0,0,1-11.56,10.39c-1.07.74-2.08,1.55-3.19,2.22l-3.29,2.06-3.41,1.86c-1.13.63-2.34,1.12-3.5,1.68a73.21,73.21,0,0,1-14.72,4.82,1.37,1.37,0,0,1-.6-2.67Z"/><path class="cls-14" d="M711.93,511.62a71.78,71.78,0,0,0-2.22-17.36A73.29,73.29,0,0,0,703.38,478a77.38,77.38,0,0,0-9.78-14.43,81.19,81.19,0,0,0-12.61-12,79.56,79.56,0,0,0-48.21-17.16c-5.83-.13-11.74.13-17.74.33a153.53,153.53,0,0,1-18.25-.17,68.06,68.06,0,0,1-18.24-3.82A71.77,71.77,0,0,1,570,427a75.47,75.47,0,0,1-8-4.83,68.22,68.22,0,0,1-7.25-5.84,61.94,61.94,0,0,1-6.43-6.81,126,126,0,0,1-10-15.28,152.39,152.39,0,0,1-8-16.33,146.77,146.77,0,0,1-9.66-34.88,1.37,1.37,0,0,1,2.7-.49v0l.92,4.34c.32,1.44.57,2.9,1,4.32.78,2.85,1.47,5.73,2.43,8.52A151.71,151.71,0,0,0,534,376.36,148.17,148.17,0,0,0,542.17,392a121.47,121.47,0,0,0,10,14.41,65.46,65.46,0,0,0,28.25,18.86,66.63,66.63,0,0,0,16.81,3.24c5.77.42,11.65.29,17.6.15l9-.23c3,0,6.06,0,9.12.1a88,88,0,0,1,18.31,2.6A86.86,86.86,0,0,1,684,447.71a85.85,85.85,0,0,1,13,13,81.6,81.6,0,0,1,9.91,15.45,75,75,0,0,1,7.73,35.49,1.37,1.37,0,0,1-2.73,0Z"/><path class="cls-14" d="M400.11,198.68a169.22,169.22,0,0,0-26.68,39.24,163,163,0,0,0-14.6,44.85,20.5,20.5,0,0,0-.34,5.2,6.59,6.59,0,0,0,1.48,3.87,6.19,6.19,0,0,0,1.48,1.35,8.62,8.62,0,0,0,2,.87,15,15,0,0,0,5,.48,54.93,54.93,0,0,0,11.22-2.08c3.83-1,7.64-2.23,11.85-3a23.23,23.23,0,0,1,3.31-.4c1,0,2.09-.09,3.13-.08,2.09,0,4.17.1,6.24.3a63,63,0,0,1,12.2,2.42A59.67,59.67,0,0,1,438,303.37a1.37,1.37,0,0,1-1.72,2.14h0a58.68,58.68,0,0,0-21-10,62.82,62.82,0,0,0-11.48-1.76c-1.93-.12-3.86-.13-5.79-.07-1,0-1.93.12-2.89.18a18.19,18.19,0,0,0-2.65.42c-3.65.84-7.46,2.21-11.36,3.36a60,60,0,0,1-12.35,2.64,20.77,20.77,0,0,1-7-.5,13.37,13.37,0,0,1-3.55-1.5,12.25,12.25,0,0,1-3-2.64,13,13,0,0,1-1.13-1.6,10.9,10.9,0,0,1-.89-1.8,13.87,13.87,0,0,1-.86-3.75,26.07,26.07,0,0,1,.46-6.78,153.82,153.82,0,0,1,6.38-23.68,163.37,163.37,0,0,1,9.84-22.38,167.61,167.61,0,0,1,13.06-20.6,157.87,157.87,0,0,1,16-18.3,1.37,1.37,0,0,1,2,1.9Z"/><path class="cls-14" d="M445.51,174.64c-3.1-4.52-6.52-8.78-10.87-11A13,13,0,0,0,428,162a9.13,9.13,0,0,0-5.64,2.35,6.92,6.92,0,0,0-2.27,5.13,10.06,10.06,0,0,0,1.65,6.13c.54,1.16,3.2,1.71,5.43,1.4a7,7,0,0,0,3-1.05,2.06,2.06,0,0,0,1-2.11v-.1a1.37,1.37,0,0,1,2.65-.64A4.85,4.85,0,0,1,434,176a5.65,5.65,0,0,1-1.47,2.53A10.06,10.06,0,0,1,428,181a12.92,12.92,0,0,1-4.94.4,9.52,9.52,0,0,1-2.65-.7,6.91,6.91,0,0,1-1.36-.77,7.07,7.07,0,0,1-.65-.54l-.48-.49a13.19,13.19,0,0,1-2.66-4.41,15.68,15.68,0,0,1-1-4.92,12.39,12.39,0,0,1,.83-5.25,11.61,11.61,0,0,1,3.18-4.47,14.52,14.52,0,0,1,9.64-3.4,17.67,17.67,0,0,1,9.18,3,22.91,22.91,0,0,1,3.61,2.92,28.92,28.92,0,0,1,2.9,3.44,46.38,46.38,0,0,1,4.24,7.52h0a1.37,1.37,0,0,1-2.38,1.34Z"/><path class="cls-14" d="M492.76,136.89a13,13,0,0,0,6.94,3.49,16.31,16.31,0,0,0,7.88-.58,14.64,14.64,0,0,0,6.5-4.24,16.55,16.55,0,0,0,3.7-6.84c1.39-5.07.24-10.71-2.37-15.36a29.2,29.2,0,0,0-11.64-11C494.06,97,482.39,95.74,471,95.93a113.47,113.47,0,0,0-33.57,5.75,74.17,74.17,0,0,0-15.22,7.07,40.32,40.32,0,0,0-11.89,11,30,30,0,0,0-5,15.09,103.41,103.41,0,0,0,.56,17.07C407,163.41,409,175,410.07,186.76a119.75,119.75,0,0,1,.41,17.8,64.88,64.88,0,0,1-3.35,17.61,1.37,1.37,0,0,1-2.6-.86h0A61.82,61.82,0,0,0,407,204.41a126.27,126.27,0,0,0-.93-17.25c-1.32-11.52-3.72-23-5.15-34.74-.66-5.82-1.4-11.78-1-18a39.37,39.37,0,0,1,1.58-9.25,32.11,32.11,0,0,1,4-8.67A44.32,44.32,0,0,1,419,103.63a73,73,0,0,1,16.53-7.71,102.6,102.6,0,0,1,17.54-4.17A120.59,120.59,0,0,1,471,90.37a97.65,97.65,0,0,1,18,1.5A53.41,53.41,0,0,1,506.2,98a33.84,33.84,0,0,1,13.12,13.19,27.74,27.74,0,0,1,2.94,9,22.37,22.37,0,0,1-.64,9.55,20.09,20.09,0,0,1-4.84,8.28,18.2,18.2,0,0,1-8.21,4.95,19.5,19.5,0,0,1-9.47.35,15.92,15.92,0,0,1-8.32-4.59,1.37,1.37,0,0,1,1.94-1.92Z"/></svg>