<svg id="Layer_1" data-name="Layer 1" xmlns="http://www.w3.org/2000/svg" viewBox="0 0 960 560"><defs><style>.cls-1{fill:#77edff;}.cls-2{fill:#6b9fff;}.cls-3{fill:#ff9e68;}.cls-4{fill:#ffbca8;}.cls-5{fill:#f08b51;}.cls-6{fill:#ffab91;}.cls-7{fill:#8cb4ff;}.cls-8{fill:#5b5d80;}.cls-9{fill:#ff654d;}.cls-10{fill:#f2533a;}.cls-11{fill:#3d4069;}.cls-12{fill:#233940;}</style></defs><title>gaming, man, people, person, avatar</title><path class="cls-1" d="M754.95,200c0-89.84-49-174.2-145.75-187.71C528.9,1.1,443,42.7,383.44,92.1c-48.24,40-89.27,87.92-126,138.53C226.37,273.55,193,333,229.55,383.33c46.41,63.86,170.94,56.2,239.24,56.2C631.51,439.53,754.95,362.73,754.95,200Z"/><path class="cls-2" d="M492.81,339.72s5.26-24.39,9-60c4.75-45.24,46.08-90.92,70.75-69.5S547.31,315,547.31,315Z"/><path class="cls-3" d="M658.81,83.72c-1.73,13.53-8.4,16.56-16.32,14.88A33.91,33.91,0,0,1,635.68,96C625.16,91.15,614.29,82,610.52,78h0c-.58,0-1-.59-1.2-.71-2.28-1.3-10.4-7.82-33.5-17.57,0,0,0,0-.05,0A131.8,131.8,0,0,0,560,53c-.93-.31-1.84-.59-2.74-.85s-1.81-.51-2.69-.72l-.88-.2c-2.59-.92-5.29-1.85-8.12-2.8,0,0-.13.6-.37,1.68-9,0-9,5.18-9,5.29S531,77.85,525.62,98.63L489.31,100s-19.58-.17-17.5-27.75c1.93-25.59,60.11-26.29,68.5-26.26h1S558.73,6.8,600.81,9.72,664.56,38.64,658.81,83.72Z"/><path class="cls-3" d="M545.19,50.15c-.83,3.89-3,14-4.88,24.37-1.65,8.91-3.13,18.05-3.5,23.7l-.73,0-10.46.38c5.4-20.78,10.52-43.19,10.52-43.19S536.19,50.15,545.19,50.15Z"/><path class="cls-3" d="M575.76,59.77c-6.21-2.62-13.51-5.47-22.08-8.5l.88.2c.88.21,1.78.46,2.69.73s1.81.55,2.74.86A132.24,132.24,0,0,1,575.76,59.77Z"/><path class="cls-4" d="M645.06,152.47s24.5-31.5,13.5-45.5-22.5-2-22.5-2S620.06,157.47,645.06,152.47Z"/><path class="cls-5" d="M540.56,46V74.52a169.55,169.55,0,0,0-3.62,23.7L489.37,100S469.89,99.8,472,72.22C473.9,46.63,531.56,45.93,540.56,46Z"/><path class="cls-4" d="M661.5,212.78c-4.07,6.88-10.3,16.84-18.11,27.46-27.52,37.46-69.06,89.5-109.47,39.05l0-.06a12.68,12.68,0,0,1-.85-14.58,62.65,62.65,0,0,1,5-6.93c.67-.81,1.34-1.69,2-2.63,5.42-7.81,10-20,10.51-32.32a12.58,12.58,0,0,0-7.09-11.85c-8.66-4.13-22.53-16.49-20.06-53a12.61,12.61,0,0,0-3.58-9.9c-3.3-3.23-6.73-9.44-2.78-20.06,2.3-6.19,5.36-17.07,8.36-28.56.07-.26.14-.52.2-.78,5.4-20.78,10.52-43.19,10.52-43.19s0-5.29,9-5.29a38.34,38.34,0,0,1,8.49,1.12l.88.2c.88.21,1.78.46,2.69.73s1.81.55,2.74.86a132.24,132.24,0,0,1,15.77,6.71l.05,0c4.58,2.25,9.37,4.8,14.32,7.53l1.75,1c4.68,2.6,9.5,5.34,14.41,8.13a9.15,9.15,0,0,0,1,.29L610.51,78h0c3.77,4,14.64,13.18,25.16,18.05a33.3,33.3,0,0,0,6.81,2.47l0,.27a12.65,12.65,0,0,0,.31,5.27c5.9,20.93,2.38,46.58,1.48,52.27a12.87,12.87,0,0,0-.13,2.71c.31,5.53,2.33,24.71,15.48,38.29A12.84,12.84,0,0,1,661.5,212.78Z"/><path class="cls-4" d="M504.56,330.47V400l-24.22,27.42-6.59,7.47-3.19,3.61a155.14,155.14,0,0,1-14.7-7.47c-29.22-16.49-93-61.3-107.55-144.28,0,0-1.75-43-38.5-43,0,0,2.48,3.21,20.62,10.56,0,0,8.58,5.36,4.69,10.15a12.31,12.31,0,0,1-5.31,3.29c-14.52,5.43-57.7-22.25-56.5-38.75,0,0-5.22-20.75-6.5-33.75s-7.37-19.26-22.5-14.75c-15.53,4.63-29.89,9.94-30-1.25-.07-7.68,2.67-12,29.5-22.25,12.84-4.92,23-3.88,29.6-3.66,5,.16,8.06-.15,8.67-3.93a10.33,10.33,0,0,0,.12-1.66c0-6.11-2.46-11.9,23.61-22.75s60.12-1.87,71,25.25c0,0,36.25,70.75,45.25,122.75,6.66,38.49,27.57,62.19,53.59,64C484.79,337.6,494.55,335.54,504.56,330.47Z"/><path class="cls-6" d="M503.56,331.91v43.56a.9.9,0,0,1-.08.37l-23.64,51.54-3.23,7.4a.9.9,0,0,1-1,.52l-2-.45L455.94,431a.89.89,0,0,1-.25-.1c-29.27-16.54-92.86-61.32-107.39-144.15a.86.86,0,0,1,0-.11c-.08-1.62-2.35-40.79-35.7-42.86a.9.9,0,0,0-.55,1.65c2.53,1.65,7.77,4.52,18.31,8.8l.14.07c.79.51,8.3,5.56,4.63,10.1-4.39,5.43-24.62-10.51-27.87-13.24-1.71-1.45-3.54-3.47-3-5.64.42-1.6,2-2.58,3.47-3.29,8.69-4.16,19.31-4.91,26.18-11.66,4.08-4,6.1-9.41,7.43-15.06a.89.89,0,0,0-1.42-.91c-7.49,5.77-17.31,9-26.68,10.18-8.61,1-21.24,1.6-29-3.2a10.21,10.21,0,0,1-4-4.52,7.81,7.81,0,0,1,1.61-8.41c.71-.75,1.59-1.26,2.47-.7a4.61,4.61,0,0,1,.85.86c1.76,1.92,4.66,2.39,7.12,2.72,3,.41,6,1.07,9,1.34a64.46,64.46,0,0,0,17.56-.83c10.61-2,26.78-7.11,30.47-18.55a1.5,1.5,0,0,1,2.89.8,30.38,30.38,0,0,1-1.4,5.7.88.88,0,0,0,.19.87,7.87,7.87,0,0,1,.87,1.33c3.47,6.47,3,14.35,1.34,21.49-4.73,20.22-10.85,54.1,18.8,58.56,5.9.89,12-1.55,17.71.6,12.71,4.75,13.77,25.56,13.77,36.6,0,21.5,23.5,50.5,39.5,50.5,12.76,0,25.34-13.66,31.87-32.37a.88.88,0,0,1,.89-.59c8.53.47,17.18-1.41,26.45-5.89A.9.9,0,0,1,503.56,331.91Z"/><path class="cls-6" d="M635.68,96.23A20.22,20.22,0,0,1,633,97.46c-7.22,2.62-15.31,1.62-22.61-.76-9.23-3-18.25-7.82-28-3.72-9,3.79-11,11.36-14.43,19.59a5.26,5.26,0,0,1-2.8,3.13c-8.23,2.92-3.52-19.47-3.38-23s-2.39-1.23-3.82-.14c-3,2.26-4.9,4.27-8.77,5-4,.79-8.22.41-12.3.58l-.73,0a42.63,42.63,0,0,0-10.42,1.5l-.24-.34c.07-.26.14-.52.2-.78,5.4-20.78,10.52-43.19,10.52-43.19s0-5.29,9-5.29a38.34,38.34,0,0,1,8.49,1.12l.88.2c.88.21,1.78.46,2.69.73s1.81.55,2.74.86a132.24,132.24,0,0,1,15.77,6.71l.05,0c4.58,2.25,9.37,4.8,14.32,7.53l1.75,1c4.68,2.6,9.5,5.34,14.41,8.13l.52.3.45.2,3.26,1.47C614.29,81.52,625.16,91.36,635.68,96.23Z"/><path class="cls-6" d="M643.39,240.24c-26.19,35.65-70.09,78.85-109.47,39.05q-2.43-3-4.86-6.57s1.92-6.52,9-15c.67-.81,1.34-1.69,2-2.63A22.93,22.93,0,0,0,559,258.92c8.62-2,15.37-8.76,19.36-16.43,4.18-8,4.84-17.13,6.44-25.89a62,62,0,0,1,8.24-22,59.53,59.53,0,0,1,13.63-15.24c3.46-2.72,7.59-8,11.89-12.86,2.59-2.94,5.18,8.3,5.47,9.43,3.39,13.46,7.36,26.77,11.79,39.93C638.43,223.58,641.85,231.87,643.39,240.24Z"/><path class="cls-7" d="M738.73,389.62c-9.9,29.12-55.91.11-70.92-8.65-14.06-8.21-28.42-7.26-31.58,8.71-6.82,34.52-25,74.74-72.57,74.74-37.2,0-93.22,17.91-118.35-2.7,13.76-33.91,19.25-89.42,78.75-196.5,2.57-4.62,9.52-9.62,12.5-5.25,8,11.68,19.28,23.34,36.75,19.75,29.05-6,63.41-66.17,93.52-76.38,9.31,7.65,20.09,13.77,29.64,20.87,20.92,15.56,34.37,39.62,41.24,64.77C746.38,320.73,749.46,358.1,738.73,389.62Z"/><path class="cls-6" d="M341.19,154.69c-4.73,11.91-19.16.82-26.28-.6-8.8-1.75-28.37,20.19-35.6,9.63-.8,0-3.83-5.63-5.9-10.41,5,.16,8.06-.15,8.67-3.93A38,38,0,0,0,302,146c6.9-3.2,14-5.72,21.61-6.32C331.69,139,345.54,143.74,341.19,154.69Z"/><path class="cls-8" d="M329,185.49c-2.3,5.61-8.69,7.83-14,9.36a42.46,42.46,0,0,1-16.27,1.62c-5.23-.59-10.47-2.64-13.62-7-1.64-2.29-2.7-4.57-2.27-7.47.47-3.15,2.3-5.86,4.21-8.32a24.62,24.62,0,0,1,40.25,1.64A9.29,9.29,0,0,1,329,185.49Z"/><path class="cls-2" d="M464.48,421.89c27.13,23.09,69,23.47,100.32,6.41s52.61-48.73,64-82.49c.93-2.75,1.86-5.63,3.92-7.68s5.63-2.9,7.86-1,2.12,5.07,1.89,7.87c-1.73,21.06-3.51,42.39-10.48,62.33S612.13,446,593.29,455.54c-9.9,5-21,7.33-32.08,8.1-38.25,2.65-77.36-13.49-102.6-42.35Z"/><path class="cls-8" d="M324.23,267.36l-1.14,12.59-2.58,29H281.56l.07-40.2,0-24.73C289.78,255,302.93,264.79,324.23,267.36Z"/><path class="cls-8" d="M324.8,240.55c.66-.21,1.29-.45,1.91-.71l-1.17,12.94a42.34,42.34,0,0,1-15.12-10A64.4,64.4,0,0,0,324.8,240.55Z"/><path class="cls-9" d="M323.56,173.84v3.33a6.29,6.29,0,0,1-4.69,6.07c-8.06,2.12-16.55,1.56-25.13.08a6.26,6.26,0,0,1-5.18-6.17v-2.83a17.87,17.87,0,0,1,1.6-7.39,17.37,17.37,0,0,1,31.92-.12A17.36,17.36,0,0,1,323.56,173.84Z"/><path class="cls-10" d="M322.08,166.81a6.25,6.25,0,0,1-3.21,2c-8.06,2.12-16.55,1.56-25.13.08a6.14,6.14,0,0,1-3.58-2,17.37,17.37,0,0,1,31.92-.12Z"/><polygon class="cls-11" points="323.08 279.83 320.51 308.97 281.56 308.97 281.63 268.77 323.08 279.83"/><path class="cls-8" d="M231.75,359.28H391.84V308.06c0-5.47-3.91-9.91-8.73-9.91H234.86c-15.55,0-28.13,14.35-28.07,32v.92C206.84,346.67,218,359.28,231.75,359.28Z"/><path class="cls-6" d="M732.48,398.65S704.22,552,558.56,552,385,466.27,364.05,442.89s-40.08-58.35-81-83.67c0,0,15.87.93,29.53-4.53,23,21.68,37,45.89,52.6,63.26C386.19,441.34,414.05,527,559.71,527,668,527,711.38,442.35,726.53,398.86,728.49,398.89,730.48,398.82,732.48,398.65Z"/><path class="cls-4" d="M726.53,398.86C711.38,442.35,668,527,559.71,527c-145.66,0-173.52-85.7-194.52-109.09-14-15.61-26.78-36.75-45.9-56.61q-3.22-3.36-6.7-6.65a33.93,33.93,0,0,0,15.79-12.08s-4.16-7.06-20.13-11A97.52,97.52,0,0,0,287.54,329c-3.8-.1-7.93-.06-12.42.18,0,0-13.89-3.24-.92-12.5,5.54-4,12.53-9.37,23-12.08,14-3.63,34.36-2.44,65.9,13.47,0,0,30.11,24.54,42.61,40.29s65.64,73.35,91.58,85.86S586,488.24,622,427.54c9.54-16.07,14.78-37.49,19.45-49.26,2.94-7.4,24.31-8.86,30.77-4.21C688.06,385.47,703.76,398.61,726.53,398.86Z"/><path class="cls-6" d="M330.56,344.47c0,7.8-5.12,13.2-11.27,16.87q-3.22-3.36-6.7-6.65a33.93,33.93,0,0,0,15.79-12.08s-4.16-7.06-20.13-11A97.52,97.52,0,0,0,287.54,329l0,0s6-11,21.5-11S330.56,325,330.56,344.47Z"/><path class="cls-4" d="M222.43,302.64c8.51-4,18.32-3.65,27.7-3.23l21.65,1a29.42,29.42,0,0,0,7.36-.29,9.9,9.9,0,0,0,6.18-3.72,6,6,0,0,0,.16-6.9,9.83,9.83,0,0,0-2.66-2.18L265,275.83a27.53,27.53,0,0,0-5.57-3c-4.62-1.63-9.84-.66-14.23,1.53s-8.09,5.5-11.74,8.77a49.67,49.67,0,0,0-8.19,8.62C223,295,220.83,298,221.31,302Z"/><path class="cls-6" d="M585.77,177.56c-6.43,7.07-15.48,13.33-25.54,11.4-2.6-.5-6.38-1.85-6.7-5-.36-3.59,3.32-4.59,6.14-4.38,6.9.51,12.25-.45,17.35-5.59,4.93-5,7.65-11.62,10.27-18a3,3,0,0,1,3.35-1.07C598.73,161.81,591,171.77,585.77,177.56Z"/><path class="cls-12" d="M303.83,231.92A47.73,47.73,0,0,0,316,245.52a40.06,40.06,0,0,0,7.83,4.55,34.88,34.88,0,0,0,4.22,1.54q1.08.31,2.19.56c.71.16,1.57.33,2.42.6a10,10,0,0,1,2.68,1.2,6,6,0,0,1,2.26,2.68,6.31,6.31,0,0,1,.45,1.68c0,.28,0,.54.06.81V261a9.46,9.46,0,0,1-.14,1.56,9.23,9.23,0,0,1-8.72,7.49h-.78c-.27,0-.42,0-.64,0l-1.21-.1-2.42-.2c-1.61-.21-3.23-.39-4.83-.66s-3.21-.55-4.79-1c-.79-.19-1.59-.36-2.38-.58l-2.36-.69a60.27,60.27,0,0,1-9.17-3.6A58,58,0,0,1,278.33,244a67.18,67.18,0,0,1-5.08-8.49,78.75,78.75,0,0,1-3.78-9.11,73.08,73.08,0,0,1-3.87-19.3c-.24-3-.55-6.17-1-9.15a41.78,41.78,0,0,0-2-8.57,15,15,0,0,0-1.79-3.48,8.15,8.15,0,0,0-2.53-2.33,13.76,13.76,0,0,0-7.56-1.28,49,49,0,0,0-8.82,1.47c-3,.73-5.95,1.61-8.91,2.58a31.7,31.7,0,0,1-10.11,1.88,14.43,14.43,0,0,1-5.64-1.07,8.57,8.57,0,0,1-4.63-4.55,8.94,8.94,0,0,1-.65-3.22,11.11,11.11,0,0,1,.4-3,15.93,15.93,0,0,1,2.41-5,27.83,27.83,0,0,1,7.51-7c.71-.48,1.41-.89,2.11-1.3s1.4-.84,2.12-1.22c1.45-.75,2.87-1.53,4.36-2.18a84,84,0,0,1,9-3.58,100.13,100.13,0,0,1,38-4.77,1.37,1.37,0,0,1-.12,2.74h0a101.55,101.55,0,0,0-36.59,5.79,79.87,79.87,0,0,0-8.5,3.63c-1.39.65-2.72,1.43-4.06,2.16-.67.38-1.31.8-2,1.19s-1.3.8-1.9,1.23a23.33,23.33,0,0,0-6.12,6,11.2,11.2,0,0,0-1.62,3.53,6.25,6.25,0,0,0-.19,1.68,4,4,0,0,0,.32,1.39,3.53,3.53,0,0,0,2.06,1.81,9.46,9.46,0,0,0,3.63.54,19.79,19.79,0,0,0,4.15-.56c.7-.14,1.41-.36,2.11-.55l2.15-.71c3-1.05,6.1-2,9.24-2.87a54.46,54.46,0,0,1,9.82-1.81,24.66,24.66,0,0,1,5.34.1,15.65,15.65,0,0,1,5.52,1.74,13.69,13.69,0,0,1,4.47,4,20.92,20.92,0,0,1,2.59,4.89,47.44,47.44,0,0,1,2.37,9.84c.24,1.62.41,3.23.58,4.84s.29,3.2.41,4.86a71.44,71.44,0,0,0,3.37,17.8,73,73,0,0,0,3.35,8.45,61.57,61.57,0,0,0,4.52,7.84,52.13,52.13,0,0,0,12.39,13,57.25,57.25,0,0,0,16.08,8.22l2.18.69c.73.22,1.47.39,2.21.59,1.47.42,3,.69,4.47,1s3,.5,4.54.74l2.3.25,1.15.12c.18,0,.42.05.54.05l.41,0a4.91,4.91,0,0,0,4.71-3.81,5.3,5.3,0,0,0,.1-.8V259.2c0-.12,0-.26,0-.37a2.22,2.22,0,0,0-.14-.6,1.84,1.84,0,0,0-.74-.89,6.13,6.13,0,0,0-1.62-.75c-.65-.22-1.34-.37-2.16-.59s-1.59-.44-2.38-.7a38.71,38.71,0,0,1-4.62-1.86,43.57,43.57,0,0,1-8.35-5.24,50.78,50.78,0,0,1-12.49-14.88,1.37,1.37,0,0,1,2.36-1.39Z"/><path class="cls-12" d="M474.79,336.31a24.56,24.56,0,0,1-12.91-.65,36.68,36.68,0,0,1-11.27-6.09,56.41,56.41,0,0,1-9-8.89,64.36,64.36,0,0,1-7-10.53c-7.83-14.81-12.44-30.84-17.28-46.47-1.21-3.92-2.43-7.82-3.69-11.69s-2.62-7.76-3.94-11.63q-4-11.63-8.14-23.21T393.05,194l-4.32-11.51c-1.44-3.82-2.89-7.61-4.49-11.33a142.19,142.19,0,0,0-11-21.39c-.51-.86-1.11-1.64-1.67-2.46s-1.1-1.65-1.73-2.42c-1.22-1.55-2.4-3.14-3.73-4.57-.66-.72-1.26-1.51-2-2.17l-2.09-2.06c-.67-.72-1.47-1.27-2.2-1.92a26.91,26.91,0,0,0-2.27-1.82l-2.37-1.67c-.79-.57-1.66-1-2.49-1.48a43.44,43.44,0,0,0-16.39-5.49A58.46,58.46,0,0,0,313,125.58a90.37,90.37,0,0,0-11.23,4.1,52.93,52.93,0,0,0-10.25,5.78c-3,2.3-5.72,5.13-6.76,8.43a10.57,10.57,0,0,0,1.77,9.74,10.18,10.18,0,0,0,4.07,3.1,10.39,10.39,0,0,0,5.06.75,10.67,10.67,0,0,0,4.81-2.08,32.47,32.47,0,0,1,5.56-3.3,17.9,17.9,0,0,1,6.59-1.4,28.17,28.17,0,0,1,6.47.62,65.49,65.49,0,0,1,12,3.87,1.37,1.37,0,0,1-1,2.55h0a62.7,62.7,0,0,0-11.51-3.38c-3.87-.69-7.81-.67-11.11.89a30.49,30.49,0,0,0-4.91,3.13,20.67,20.67,0,0,1-2.89,1.74,11.45,11.45,0,0,1-3.47,1.06,13.59,13.59,0,0,1-3.57,0,13.82,13.82,0,0,1-3.44-.88,14.1,14.1,0,0,1-5.7-4.17,14.68,14.68,0,0,1-2.72-13.48,18.06,18.06,0,0,1,3.3-6.11,29.39,29.39,0,0,1,4.77-4.63,57.37,57.37,0,0,1,11-6.53,94.92,94.92,0,0,1,11.79-4.57A62.72,62.72,0,0,1,337,118.37a49,49,0,0,1,18.49,5.9c.94.55,1.93,1,2.82,1.63l2.69,1.83a31.46,31.46,0,0,1,2.56,2c.82.7,1.72,1.33,2.47,2.09l2.33,2.23c.8.73,1.46,1.56,2.2,2.34a78.94,78.94,0,0,1,7.76,10.13c1.13,1.79,2.28,3.56,3.3,5.41s2,3.68,3,5.54q2.82,5.62,5.21,11.4c3.22,7.7,5.93,15.46,8.72,23.18s5.49,15.5,8.16,23.27,5.29,15.57,7.87,23.37,5.14,15.68,7.36,23.59c4.55,15.77,8.82,31.59,16.12,46a58.77,58.77,0,0,0,14.65,18.62,33.51,33.51,0,0,0,10.13,5.83,21.65,21.65,0,0,0,11.39.87,1.37,1.37,0,0,1,.58,2.67Z"/><path class="cls-12" d="M273.79,177.55a17.11,17.11,0,0,1,6.08,2.47,31.69,31.69,0,0,1,4.86,4.08c2.89,2.88,5.54,5.7,8.82,7a8.92,8.92,0,0,0,1.23.45,10.72,10.72,0,0,0,1.3.37c.91.21,1.84.37,2.79.51a46,46,0,0,0,5.74.43,40.47,40.47,0,0,0,11.28-1.31c3.55-1,6.86-2.67,8.66-5.23a8.32,8.32,0,0,0,.61-1c.2-.37.42-.82.62-1.25l1.28-2.74a17.1,17.1,0,0,1,4.08-5.85,10.58,10.58,0,0,1,3.6-2,13.25,13.25,0,0,1,3.85-.56,13.4,13.4,0,0,1,3.85.63,14.18,14.18,0,0,1,3.41,1.71,20.58,20.58,0,0,1,4.93,5c.33.45.64.91.93,1.37.15.23.29.46.43.69s.28.45.45.77a13.67,13.67,0,0,1,1.34,3.59c1,4.72.51,9-.11,13.15A92.17,92.17,0,0,1,350.9,212c-1.19,3.93-2.54,7.79-4,11.6-.33.93-.84,2-1.27,2.94L345,228c-.23.49-.55.94-.82,1.41l-.85,1.4a9.82,9.82,0,0,1-.91,1.35l-2,2.57A33.59,33.59,0,0,1,330,242.43a37.87,37.87,0,0,1-12.21,3.5,52.8,52.8,0,0,1-12.5-.08,67.46,67.46,0,0,1-12-2.9,1.37,1.37,0,0,1,.8-2.62h0a64.44,64.44,0,0,0,11.55,2.09,51.68,51.68,0,0,0,11.57-.49c7.56-1.25,14.63-4.81,19.37-10.48l1.63-2.23a7.36,7.36,0,0,0,.73-1.17l.67-1.21c.22-.41.47-.79.66-1.22l.53-1.29c.35-.87.73-1.66,1-2.63,1.3-3.75,2.49-7.53,3.53-11.33a108.65,108.65,0,0,0,2.48-11.43,47.08,47.08,0,0,0,.54-5.63,20.48,20.48,0,0,0-.35-5.21,7.73,7.73,0,0,0-.72-2.06,5.32,5.32,0,0,0-.3-.54c-.12-.2-.24-.4-.36-.59-.24-.39-.49-.77-.75-1.13a15.09,15.09,0,0,0-3.39-3.66,8.4,8.4,0,0,0-1.93-1,7,7,0,0,0-4.19-.16,5,5,0,0,0-1.68.86,12.07,12.07,0,0,0-2.79,4l-1.34,2.7c-.24.47-.47.92-.76,1.43a13.57,13.57,0,0,1-1,1.55,16.37,16.37,0,0,1-5.43,4.57,25,25,0,0,1-6.24,2.32,45.06,45.06,0,0,1-12.66,1,50.23,50.23,0,0,1-6.26-.71c-1-.19-2.08-.41-3.12-.7a14.49,14.49,0,0,1-1.59-.52,12.53,12.53,0,0,1-1.57-.64,20.22,20.22,0,0,1-5.4-3.8c-1.55-1.47-2.89-3-4.22-4.48-2.63-2.93-5.47-5.36-9.07-6.24h0a1.37,1.37,0,0,1,.58-2.67Z"/><path class="cls-12" d="M212.61,314.6a29.38,29.38,0,0,0-3.86,16.14,32.53,32.53,0,0,0,.82,5.49,37.36,37.36,0,0,0,20.73,24.62,103.48,103.48,0,0,0,10.79,3.94,95.57,95.57,0,0,0,11.16,2.7,101.88,101.88,0,0,0,11.37,1.44,113.57,113.57,0,0,0,22.91-.73l2.85-.41,2.84-.51c1.88-.32,3.82-.77,5.72-1.16q5.73-1.23,11.39-2.68a153.38,153.38,0,0,0,22-7.41,98.26,98.26,0,0,0,10.28-5.29,65,65,0,0,0,9.27-6.81l0,0a1.37,1.37,0,0,1,1.88,2,68,68,0,0,1-9.31,7.74,92.94,92.94,0,0,1-10.44,6c-3.61,1.75-7.29,3.36-11,4.76s-7.54,2.67-11.36,3.81-7.66,2.21-11.52,3.14c-1.94.47-3.83,1-5.82,1.37l-3,.63-3,.53a96,96,0,0,1-12.07,1.28c-1,.06-2,.09-3,.09s-2,0-3,0c-2-.08-4.06-.13-6.08-.33s-4-.42-6.05-.65-4-.63-6-1.08a101.28,101.28,0,0,1-11.72-3.16,108.61,108.61,0,0,1-11.29-4.46,39.72,39.72,0,0,1-10.35-7.11,40.87,40.87,0,0,1-12.09-21.45,32.52,32.52,0,0,1,0-12.44,33.57,33.57,0,0,1,1.77-6,36.65,36.65,0,0,1,2.86-5.47,1.37,1.37,0,0,1,2.36,1.38Z"/><path class="cls-12" d="M688.3,199.47a60,60,0,0,0-23.87,6.59,107.66,107.66,0,0,0-20.7,14.17c-12.88,10.9-23.89,23.88-35.83,36.2-3,3.08-6,6.11-9.22,9a114.81,114.81,0,0,1-10,8.41,56.68,56.68,0,0,1-11.56,6.76,32.65,32.65,0,0,1-13.61,2.67c-1.18-.05-2.37-.22-3.55-.37l-1.74-.4a12.17,12.17,0,0,1-1.72-.47c-1.11-.42-2.26-.74-3.32-1.26a32.59,32.59,0,0,1-3.11-1.65,36.79,36.79,0,0,1-5.54-4.16q-1.28-1.15-2.44-2.38c-.39-.41-.77-.83-1.15-1.24l-.56-.64-.58-.71c-1.46-1.85-2.59-3.6-3.82-5.18a14.94,14.94,0,0,0-3.71-3.69,2.6,2.6,0,0,0-3,0,9.57,9.57,0,0,0-3.28,3.53c-.49.8-1,1.71-1.49,2.65L523,270.12c-1,1.86-1.93,3.74-2.87,5.63-1.89,3.77-3.71,7.59-5.5,11.44-3.55,7.7-7,15.49-10.65,23.25l-21.62,46.33C468,387.61,455.4,419.34,447.9,452.5a1.37,1.37,0,0,1-2.69-.56,357.44,357.44,0,0,1,13.59-49.52c5.63-16.17,12.07-32.06,19-47.66L498.71,308c3.49-7.74,6.83-15.59,10.41-23.37,1.78-3.9,3.61-7.78,5.52-11.64q1.44-2.89,3-5.75l1.54-2.85c.51-.94,1-1.91,1.66-2.92a19.53,19.53,0,0,1,2.25-3,13.94,13.94,0,0,1,3.22-2.57,8.58,8.58,0,0,1,9.09.12,20.07,20.07,0,0,1,5.34,5.24c1.36,1.8,2.54,3.65,3.71,5.15l.43.53.49.57c.33.38.66.75,1,1.12q1,1.1,2.11,2.11a31,31,0,0,0,4.62,3.57,26.87,26.87,0,0,0,2.52,1.38c.85.43,1.77.68,2.65,1a8.42,8.42,0,0,0,1.36.39l1.37.34c.93.12,1.86.27,2.8.33a27.19,27.19,0,0,0,11.3-2.12,51.46,51.46,0,0,0,10.53-6,109.7,109.7,0,0,0,9.65-7.93c3.12-2.83,6.16-5.75,9.17-8.73,12-11.93,23.37-24.87,36.77-35.81A110,110,0,0,1,663,203a63,63,0,0,1,25.25-6.29,1.37,1.37,0,0,1,.1,2.73Z"/><path class="cls-12" d="M532.87,76.35c-.86,3.88-1.81,7.74-2.73,11.61l-2.89,11.56c-2,7.7-4,15.39-6.1,23q-.78,2.87-1.67,5.72c-.29.95-.56,1.9-.88,2.84l-.42,1.31a8.5,8.5,0,0,0-.34,1.23,15.35,15.35,0,0,0,1,9.88,16.09,16.09,0,0,0,7,7.44c3.47,1.79,7.05,3.62,10.55,5.48a1.37,1.37,0,0,1-1.13,2.5c-3.73-1.41-7.4-2.82-11.13-4.33a19.91,19.91,0,0,1-9.76-8.82,20.43,20.43,0,0,1-2.26-6.39,20.67,20.67,0,0,1,0-6.85,12.91,12.91,0,0,1,.34-1.67l.39-1.55c.24-1,.52-1.91.78-2.87q.78-2.87,1.66-5.71c2.31-7.58,4.74-15.13,7.2-22.67l3.76-11.29c1.3-3.75,2.57-7.51,3.93-11.24a1.37,1.37,0,0,1,2.62.76Z"/><path class="cls-12" d="M562.43,94a46.64,46.64,0,0,1,1.09,5.5c.26,1.83.47,3.67.59,5.5a30,30,0,0,1-.54,5.5,47.54,47.54,0,0,1-1.14,5.5,1.42,1.42,0,0,1-2.74,0,47.54,47.54,0,0,1-1.14-5.5A30,30,0,0,1,558,105c.13-1.83.33-3.67.59-5.5A46.64,46.64,0,0,1,559.7,94a1.42,1.42,0,0,1,2.73,0Z"/><path class="cls-12" d="M537.34,56.11c-5.26,9.17-9.24,19.13-15.39,28.19a60.34,60.34,0,0,1-5.12,6.46c-.45.52-1,1-1.46,1.49a20.54,20.54,0,0,1-1.52,1.43L512.26,95l-1.69,1.25a29.88,29.88,0,0,1-15.93,5.46,27.42,27.42,0,0,1-16.5-4.17A20.49,20.49,0,0,1,472,91.21a21.64,21.64,0,0,1-2.92-8.32,27.34,27.34,0,0,1,3.29-16.82,36.88,36.88,0,0,1,11.36-12.58A50.57,50.57,0,0,1,499,46.56a96.28,96.28,0,0,1,16.15-2.89l2-.2,2.06-.13c1.37-.06,2.75-.2,4.13-.19l4.13,0c1.37,0,2.74.17,4.11.25a99.69,99.69,0,0,1,16.2,2.68,138.23,138.23,0,0,1,15.56,5c5.05,2,10,4.21,14.84,6.6s9.57,5,14.24,7.65l3.48,2c.57.32,1.19.73,1.79,1.09l1.74,1.14c2.28,1.54,4.44,3.12,6.61,4.69,4.31,3.13,8.58,6.22,13,9a62.73,62.73,0,0,0,13.58,6.81c4.64,1.54,9.46,1.9,13.25-.06a14.34,14.34,0,0,0,4.95-4.35,34,34,0,0,0,3.68-6.32,38.92,38.92,0,0,0,3.16-14.45,49.35,49.35,0,0,0-2-14.94A57.37,57.37,0,0,0,649.43,36a52.75,52.75,0,0,0-9.66-11.74C632.38,17.42,622.22,14.13,612,12.9a89.57,89.57,0,0,0-31,1.88,62.86,62.86,0,0,0-14.51,5.37,45.14,45.14,0,0,0-12.11,9.37,78.46,78.46,0,0,0-9.07,12.74C542.59,46.8,540,51.49,537.34,56.11ZM535,54.75c2.59-4.63,5-9.36,7.7-14a81.55,81.55,0,0,1,9.2-13.44,48.69,48.69,0,0,1,12.86-10.35A65.5,65.5,0,0,1,580,11a93.69,93.69,0,0,1,32.47-2.48,66.22,66.22,0,0,1,16.11,3.6c1.31.47,2.58,1.07,3.87,1.6s2.5,1.3,3.74,1.94,2.37,1.55,3.56,2.32,2.23,1.7,3.28,2.63a57.82,57.82,0,0,1,10.8,12.69,61.07,61.07,0,0,1,6.95,15.13A54.84,54.84,0,0,1,663.2,65a44.62,44.62,0,0,1-3.45,16.63,39.66,39.66,0,0,1-4.27,7.52,20.23,20.23,0,0,1-6.91,6.14,18.91,18.91,0,0,1-9.13,2.09,30,30,0,0,1-8.73-1.55,68.47,68.47,0,0,1-15-7.39c-4.62-2.92-9-6.11-13.28-9.26-2.15-1.57-4.28-3.14-6.42-4.59l-1.6-1.06c-.54-.33-1-.66-1.62-1l-3.42-2c-4.57-2.65-9.17-5.22-13.86-7.61s-9.46-4.56-14.3-6.53a132.59,132.59,0,0,0-14.83-4.91,86.82,86.82,0,0,0-30.76-2.59,91.22,91.22,0,0,0-15.31,2.58,46.8,46.8,0,0,0-13.82,6.06,32.12,32.12,0,0,0-10,10.78,22.78,22.78,0,0,0-3,14,16.42,16.42,0,0,0,7,11.8,23.36,23.36,0,0,0,14,3.67,26.26,26.26,0,0,0,14-4.5L510,92.17,511.47,91a18,18,0,0,0,1.42-1.28c.45-.45.94-.86,1.37-1.34a56.94,56.94,0,0,0,4.92-6C525.22,73.87,529.44,64,535,54.75Z"/><path class="cls-12" d="M331.51,345.78a41.94,41.94,0,0,0-12.34-9,56.78,56.78,0,0,0-14.7-4.64,102.66,102.66,0,0,0-15.55-1.48c-2.62-.07-5.24-.07-7.87,0l-4,.07a14.49,14.49,0,0,1-4.45-.4,7.36,7.36,0,0,1-1.19-.47l-1-.56c-.33-.2-.65-.44-1-.66a11,11,0,0,1-.92-.84,6.21,6.21,0,0,1-1.42-2.34,5.69,5.69,0,0,1-.13-2.81,10,10,0,0,1,2.19-4.24,23.67,23.67,0,0,1,3-3,56.21,56.21,0,0,1,14-8.41,71.32,71.32,0,0,1,31.93-5.11,97.76,97.76,0,0,1,31.42,7.37A101.16,101.16,0,0,1,377.15,326c1,.87,2,1.82,3,2.74l2.85,2.8c1.9,1.87,3.8,3.74,5.63,5.66,3.72,3.8,7.34,7.7,10.92,11.62,7.16,7.84,14.11,15.85,21.06,23.82,13.9,15.94,27.83,31.83,43.32,46a212.45,212.45,0,0,0,24.53,19.49l3.28,2.11,1.64,1.06,1.68,1,3.36,2,3.43,1.85c2.26,1.28,4.64,2.33,7,3.49,1.18.54,2.38,1,3.56,1.56s2.37,1,3.59,1.48a124.66,124.66,0,0,0,30,7.72l3.86.46c1.29.14,2.58.2,3.87.3s2.58.22,3.88.24l3.89.08a74.08,74.08,0,0,0,15.23-1.16,58,58,0,0,0,27-12.71,75.38,75.38,0,0,0,18.32-24.15,131.25,131.25,0,0,0,10.13-29.25c.63-2.57,1-4.94,1.84-8a26.44,26.44,0,0,1,4-7.93l.66-.91.75-.83c.51-.55,1-1.12,1.53-1.63a28.09,28.09,0,0,1,3.49-2.78,28.86,28.86,0,0,1,3.87-2.22c.68-.29,1.38-.55,2.08-.82a13.68,13.68,0,0,1,2.13-.67,26.4,26.4,0,0,1,17.51,1.3,43.28,43.28,0,0,1,3.85,2.05c1.18.72,2.31,1.46,3.43,2.2l6.59,4.49c4.35,3,8.7,5.91,13.14,8.63a112.8,112.8,0,0,0,13.63,7.28,56.82,56.82,0,0,0,7.07,2.51,25.46,25.46,0,0,0,7,.92,11.59,11.59,0,0,0,6.07-1.73,11.79,11.79,0,0,0,4.13-4.85,13.27,13.27,0,0,0,.69-1.59,14.42,14.42,0,0,0,.63-1.71l1.16-3.7c.41-1.22.72-2.48,1-3.73l1-3.76A139.66,139.66,0,0,0,742,361.45c.61-5.16.81-10.37.93-15.57s-.11-10.43-.54-15.63a212,212,0,0,0-4.66-31l-.87-3.83-1-3.81c-.31-1.27-.65-2.54-1-3.78s-.69-2.51-1.1-3.74a137.21,137.21,0,0,0-5.44-14.62,119.34,119.34,0,0,0-15.88-26.69,103.39,103.39,0,0,0-10.59-11.33l-2.91-2.56-3-2.41c-2-1.59-4.19-3.1-6.34-4.6-8.63-6-17.77-11.55-25.94-18.65a66.45,66.45,0,0,1-11-12A64.47,64.47,0,0,1,645,176.76a48.18,48.18,0,0,1-3.2-16.11c0-.35,0-.69,0-1l.07-1,.14-2.09.35-2.08.18-1,.29-1,.6-2,.85-2,.43-1,.49-.91c.32-.61.68-1.19,1-1.78,2.8-4.65,6-8.88,8.66-13.32a46.53,46.53,0,0,0,3.49-6.82,21.14,21.14,0,0,0,1.61-7.17,15.43,15.43,0,0,0-1.45-7,22.35,22.35,0,0,0-4.29-6,12,12,0,0,0-6.24-3.1,8.64,8.64,0,0,0-6.52,1.34,1.37,1.37,0,0,1-1.63-2.2h0a11.42,11.42,0,0,1,8.59-1.93,14.86,14.86,0,0,1,7.8,3.77,19.76,19.76,0,0,1,1.46,1.55c.48.51.89,1.08,1.32,1.63a23.53,23.53,0,0,1,2.22,3.62,18.5,18.5,0,0,1,1.82,8.37,24.24,24.24,0,0,1-1.74,8.25,49.62,49.62,0,0,1-3.64,7.34c-2.74,4.65-5.89,8.94-8.5,13.39-.31.56-.64,1.11-.93,1.68l-.44.84-.35.84-.71,1.69-.5,1.77-.25.89-.14.92-.29,1.83-.1,1.87-.05.93c0,.31,0,.63,0,.94a44.57,44.57,0,0,0,3.09,14.85,60.7,60.7,0,0,0,7.2,13.55,62.58,62.58,0,0,0,10.49,11.21c7.89,6.75,16.92,12.19,25.73,18.18,2.2,1.51,4.4,3,6.54,4.67l3.2,2.5,3.07,2.66A107.82,107.82,0,0,1,715.91,240c13.62,16.84,22,37.34,26.64,58.17a217,217,0,0,1,5,31.69c.48,5.34.63,10.71.68,16.08s-.26,10.75-.87,16.11a145.15,145.15,0,0,1-2.53,16l-1,3.94c-.33,1.31-.64,2.63-1.06,3.92l-1.19,3.89a18.65,18.65,0,0,1-.73,2,18.22,18.22,0,0,1-.88,2,16.55,16.55,0,0,1-15,9.76,31.06,31.06,0,0,1-8.67-1.06,62.37,62.37,0,0,1-7.89-2.75,118.41,118.41,0,0,1-14.4-7.58c-4.6-2.78-9-5.74-13.44-8.71L674,379.05c-1.09-.72-2.17-1.42-3.25-2.08s-2.11-1.13-3.14-1.68a20.38,20.38,0,0,0-13.52-1,9.31,9.31,0,0,0-1.65.52c-.54.21-1.08.41-1.61.63a22.89,22.89,0,0,0-3,1.73,22.06,22.06,0,0,0-2.71,2.15c-.41.4-.78.85-1.18,1.27l-.58.64-.5.71a20.42,20.42,0,0,0-3.13,6.14c-.62,2.07-1.1,4.94-1.72,7.51a137.18,137.18,0,0,1-10.61,30.59,81.34,81.34,0,0,1-19.82,26.06,63.26,63.26,0,0,1-14,8.9,65.14,65.14,0,0,1-15.81,5,79.87,79.87,0,0,1-16.37,1.16l-4-.11c-1.35,0-2.69-.19-4-.27s-2.7-.18-4-.34l-4-.51A130.22,130.22,0,0,1,514,457.76c-1.27-.47-2.5-1-3.73-1.56s-2.48-1.07-3.7-1.64c-2.4-1.22-4.87-2.32-7.21-3.66l-3.54-1.94-3.46-2.07-1.73-1-1.69-1.1-3.38-2.2a217.55,217.55,0,0,1-25-20.11c-15.7-14.51-29.63-30.61-43.45-46.64-6.91-8-13.79-16-20.85-23.87-3.54-3.91-7.1-7.79-10.76-11.57-1.8-1.92-3.67-3.77-5.53-5.63l-2.79-2.78c-.95-.87-1.86-1.79-2.85-2.61A96.93,96.93,0,0,0,348,313a93.72,93.72,0,0,0-30.06-7.24,68,68,0,0,0-30.27,4.53c-1.17.52-2.37,1-3.5,1.59s-2.29,1.14-3.4,1.8A46.33,46.33,0,0,0,274.5,318a20.3,20.3,0,0,0-2.6,2.55,6.78,6.78,0,0,0-1.5,2.7,2.2,2.2,0,0,0,.65,2.13c.15.17.36.33.54.5s.43.31.66.46l.73.42a4,4,0,0,0,.65.26,11.53,11.53,0,0,0,3.42.3l4,0c2.66,0,5.33,0,8,.13a105.72,105.72,0,0,1,16,1.69,59.74,59.74,0,0,1,15.42,5,44.77,44.77,0,0,1,13.05,9.75,1.37,1.37,0,0,1-2,1.86Z"/><path class="cls-12" d="M527.52,178.6a58.65,58.65,0,0,0,4.23,16.57c2.19,5.18,5.42,9.94,9.84,12.81a21.18,21.18,0,0,0,15.15,2.92,50.51,50.51,0,0,0,15.72-5.4c2.48-1.34,4.93-2.74,7.28-4.32,1.22-.72,2.29-1.66,3.47-2.46s2.25-1.74,3.37-2.62a132,132,0,0,0,12.51-12c8-8.55,15.5-17.84,24.48-25.77a1.37,1.37,0,0,1,1.9,2c-8.07,8.46-14.93,18-22.64,27.11a125.59,125.59,0,0,1-12.49,13.06,69.75,69.75,0,0,1-7.2,5.7c-1.29.83-2.53,1.75-3.88,2.51s-2.69,1.52-4.07,2.21a53.14,53.14,0,0,1-17.79,5.55,28.78,28.78,0,0,1-9.67-.44,23.84,23.84,0,0,1-9-4,27.47,27.47,0,0,1-6.59-7,39.58,39.58,0,0,1-4.15-8.36,54.39,54.39,0,0,1-2.33-8.85,56,56,0,0,1-.93-9.07,1.37,1.37,0,0,1,2.72-.18Z"/><path class="cls-12" d="M358.2,436.78a157.58,157.58,0,0,0-20-28.73,211.33,211.33,0,0,0-25-24.56q-6.71-5.65-13.8-10.82c-2.37-1.71-4.75-3.39-7.18-5-1.21-.8-2.44-1.6-3.63-2.32s-2.45-1.42-3.73-2.06c-10.15-5.26-21.61-8.29-32.68-13.28a70.37,70.37,0,0,1-15.82-9.47,39.24,39.24,0,0,1-6.64-6.79,53,53,0,0,1-5.07-7.87,48.41,48.41,0,0,1-5.6-17.85,31.17,31.17,0,0,1,.53-9.63,24.17,24.17,0,0,1,4-9,23.79,23.79,0,0,1,3.35-3.63l.93-.8.86-.7,1.71-1.37c2.27-1.85,4.49-3.73,6.72-5.66a66.42,66.42,0,0,1,7.19-5.74,15.27,15.27,0,0,1,4.73-1.94,19.77,19.77,0,0,1,4.9-.37,18.52,18.52,0,0,1,2.41.2l1.27.19c.41.1.81.24,1.22.36a18.63,18.63,0,0,1,4.44,2.11,83.32,83.32,0,0,1,7.13,5.57,31.9,31.9,0,0,0,7.06,4.56,21.23,21.23,0,0,0,8,1.8h0a1.37,1.37,0,0,1,0,2.74,24.18,24.18,0,0,1-9.22-1.7,35.07,35.07,0,0,1-8-4.7c-2.42-1.79-4.66-3.7-7-5.12a14.82,14.82,0,0,0-3.58-1.59c-.3-.08-.61-.18-.91-.25l-.93-.11a14.67,14.67,0,0,0-2-.11,15.84,15.84,0,0,0-3.91.39,11.07,11.07,0,0,0-3.38,1.51,64.24,64.24,0,0,0-6.48,5.51c-2.18,2-4.41,4-6.67,5.95L231.77,288l-.84.72-.73.67a18,18,0,0,0-5.53,10.1,27,27,0,0,0-.24,8,42.89,42.89,0,0,0,5.29,15.64,47.18,47.18,0,0,0,4.66,6.91,35.69,35.69,0,0,0,5.79,5.79c1.1.85,2.19,1.73,3.37,2.48.58.39,1.15.79,1.75,1.17l1.82,1.08c1.19.75,2.48,1.37,3.72,2.06s2.56,1.26,3.86,1.87c5.24,2.38,10.72,4.42,16.25,6.57a148.72,148.72,0,0,1,16.52,7.32c1.35.71,2.66,1.53,4,2.29s2.55,1.66,3.79,2.52c2.48,1.7,4.89,3.46,7.28,5.25s4.75,3.62,7,5.53c1.15,1,2.32,1.87,3.45,2.85l3.38,2.94a215.73,215.73,0,0,1,24.86,25.72,159.49,159.49,0,0,1,19.38,30,1.37,1.37,0,0,1-2.43,1.24Z"/><path class="cls-12" d="M557.2,178.86a37.08,37.08,0,0,0,5.19-.77,37.94,37.94,0,0,0,5-1.43,28.73,28.73,0,0,0,8.69-4.92,31.34,31.34,0,0,0,6.74-7.23,42.14,42.14,0,0,0,4.38-9.55h0a1.38,1.38,0,0,1,2.7.5,31.82,31.82,0,0,1-2.68,11.42,27.1,27.1,0,0,1-3.07,5.28,20.52,20.52,0,0,1-4.34,4.4,29,29,0,0,1-11.11,4.83,30.74,30.74,0,0,1-11.78.18,1.37,1.37,0,0,1,.13-2.71Z"/></svg>