<svg id="Layer_1" data-name="Layer 1" xmlns="http://www.w3.org/2000/svg" viewBox="0 0 960 560"><defs><style>.cls-1{fill:#a1e6ff;}.cls-2{fill:#90e2ed;}.cls-3{fill:#ff9675;}.cls-4{fill:#79c9bb;}.cls-5{fill:#8ad8e3;}.cls-6{fill:#ff8f8f;}.cls-7{fill:#6fbaad;}.cls-8{fill:#20e6c2;}.cls-9{fill:#b0c8ff;}.cls-10{fill:#f66;}.cls-11{fill:#c99d79;}.cls-12{fill:#c99060;}.cls-13{fill:#94b4ff;}.cls-14{fill:#ffe7c2;}.cls-15{fill:#ffd99e;}.cls-16{fill:#233940;}</style></defs><title>hiker, man, people, person, avatar</title><path class="cls-1" d="M777,167.56c0,58.1-20,101-50.3,136.09a315,315,0,0,1-36.56,35.6c-54,45.29-122.66,79.53-173.72,127.3-16,15-35.26,27.17-55.91,36.8-26,12.11-54.14,20.22-81,24.9-39,6.8-79.65.12-112.74-18-41.43-22.68-71.09-63.29-71.18-117.83-.11-70.23,59.74-122.84,119.88-146.09,41.26-16,85.88-41,119.2-80.13a211.11,211.11,0,0,0,35.74-59.06C481.56,79.29,499,57.65,520,42,567.91,6.36,634.55,1.87,688,25.84c40.21,18,72.93,52.21,84.54,101.36A175.2,175.2,0,0,1,777,167.56Z"/><path class="cls-2" d="M777,167.56a225,225,0,0,1-3,37.64c-6.67,39.7-23.93,71.37-47.25,98.45q-8.1,9.41-17.13,18.12c-7.49-1.59-14.89-3.55-22.23-5.76-14.23-4.28-28.21-9.49-42.13-14.7-13.46-5-27-10.1-40.74-14.21-14.14-4.22-28.56-7.65-42.85-11.35-46.8-12.11-93.71-23.86-140.24-37l-2,.6a1.48,1.48,0,0,1-1.84-1.69l-2.19-.62a17.08,17.08,0,0,1,3.85-.77,154.44,154.44,0,0,0,46.36-22c18.88-13.19,31.28-33.45,36.08-56a31.84,31.84,0,0,1,2.22-6.74,28.9,28.9,0,0,1,15.25-14.39c14-5.92,31.26-3.14,44,4.56,18.31,11,30.41,29.4,46.47,43.11,13.92,11.87,35.46,20.89,52.82,12.6.57-1.4,1.12-2.8,1.66-4.21a227.6,227.6,0,0,0,10.35-37.5c2.76-14.25,5.2-29,12.4-41.81,5.46-9.73,13.61-18.41,24.23-22.4,11-4.14,23.11-2.16,33.28,3.27,13.38,7.15,22,19,28.16,32.43A175.2,175.2,0,0,1,777,167.56Z"/><path class="cls-3" d="M403,147.78a22,22,0,0,0,11-19.5s8.91-4.12,6-18.56-13.46-31.94-13.46-31.94l-47-12.5L305.08,78.51s14.47,42.27,7,60.27S370,164.78,403,147.78Z"/><path class="cls-4" d="M726.75,303.65C683.46,353.93,619.26,388.35,563,428.93a470.39,470.39,0,0,0-46.51,37.62c-16,15-35.26,27.17-55.91,36.8-26,12.11-54.14,20.22-81,24.9-39,6.8-79.65.12-112.74-18-22.78-12.47-42-30.37-54.71-53a126.73,126.73,0,0,1-13.5-36,139.59,139.59,0,0,1-3-28.76c-.11-70.23,59.74-122.84,119.88-146.09,41.26-16,85.88-41,119.2-80.13q3.76,3.25,7.34,6.7a1.5,1.5,0,0,1,2.91-.69c.46,1.66,1,3.38,1.54,5.12,3.71,3.84,7.26,7.84,10.61,12,1.2,1.49-.91,3.62-2.12,2.12-1.86-2.32-3.79-4.59-5.76-6.81,5.47,12.84,14.63,24,30.69,18.74,8-2.65,14.83-8,22.25-11.94a79.16,79.16,0,0,1,23.59-8c30-5.09,59.91,8.08,78.74,31.47a72.63,72.63,0,0,0,20.86-19.11c4.68-6.47,7.91-13.88,12.89-20.14,8.24-10.36,21-14.34,32.86-7.36,11.5,6.74,17.76,20.33,20.64,32.82a69.75,69.75,0,0,1,1.58,11.31c1.16,17.91-2.79,37,2,53.59C696.66,270.84,723.88,307,726.75,303.65Z"/><path class="cls-5" d="M750.44,216.46c-15.27,10.48-24.21,26.2-35.79,40.16-10.59,12.79-24,21.22-40,23.39q.32,13.91.77,27.81a77.69,77.69,0,0,0,12,8.18c7.34,2.21,14.74,4.17,22.23,5.76q9-8.73,17.13-18.12c23.32-27.08,40.58-58.75,47.25-98.45A84.46,84.46,0,0,0,750.44,216.46Z"/><path class="cls-6" d="M543.3,311a49.5,49.5,0,0,1-1.41,8.24c-3.76,14.43-16.19,27.39-31.1,27.73-11.37.25-22-6.77-28.64-16a61,61,0,0,1-7.46-14.15c-.17-.42-.33-.85-.49-1.27a133.09,133.09,0,0,1-4.58-16.07c-.42,0-.83.08-1.24.15-10.48,1.55-18.06,11.37-22.65,21.09-2.53,5.37-4.65,11.06-7.29,16.38-.06.13-.13.25-.19.38a43.8,43.8,0,0,1-8.64,12.36c-12.27,11.78-31.94,11.64-48.16,6.5A159.59,159.59,0,0,1,365.12,350l-.55-.24c-9.39-4.19-18.66-8.7-28.49-11.59l-.59-.18-1.45-.4c-26.36-7.06-56.72-1.72-80.56-13.26l-.17-.08a56.1,56.1,0,0,1-5.74-3.23c-.8-.52-1.58-1.06-2.36-1.62a110.26,110.26,0,0,1-6.22,11.4l-.34.51q-.63,1-1.29,1.89c-.08.11-.16.23-.25.34a42.73,42.73,0,0,1-4.68,5.47c-5.61,5.48-13.46,9.19-21.22,8-8.06-1.17-13.86-6.29-17.57-13-.19-.33-.37-.66-.54-1a.16.16,0,0,1,0-.07l-.14-.27c0-.09-.09-.19-.13-.28a44.08,44.08,0,0,1-3.41-27c.12-.55.25-1.12.42-1.69,1.57-5.72,5-12.18,7.85-18.34a55,55,0,0,0,3.54-9.5c.34-1.4.69-2.75,1.06-4,1-3.46,2-6.57,3.11-9.51,3.73-10,8.08-18.06,12.11-31.45,0-.05,0-.11,0-.16,4.4-14.65,15.12-27.43,28.55-36.44.5-.3,1-.63,1.49-1a0,0,0,0,0,0,0c.91-.58,1.83-1.15,2.76-1.7a84.65,84.65,0,0,1,17.32-7.77,75.51,75.51,0,0,1,11.12-2.66c1.49-.24,3-.43,4.45-.57,1.25-.12,2.5-.2,3.74-.25-.44-.77-.86-1.56-1.25-2.35h0a50.77,50.77,0,0,1-4.59-13.55A51.8,51.8,0,0,1,282,141a34.79,34.79,0,0,1,5.64-11.71,19.68,19.68,0,0,1,10.91-7.62,17.86,17.86,0,0,1,3.8-.5,24.88,24.88,0,0,1,10.45,2.35,0,0,0,0,1,0,0,54.74,54.74,0,0,1,5,2.52c3.66,2,7.25,4.42,10.78,6.44,31.47,18,70.51,9.94,106.77,13.16a3.11,3.11,0,0,1,2.5,4.5l0,0c24,10.85,41.71,31.91,57.48,53,13,17.4,25.37,35.51,34.72,55q4,8.42,7.25,17.21C541.43,286.83,544.36,299.09,543.3,311Z"/><path class="cls-7" d="M726.75,303.65C683.46,353.93,619.26,388.35,563,428.93a470.39,470.39,0,0,0-46.51,37.62c-16,15-35.26,27.17-55.91,36.8-26,12.11-54.14,20.22-81,24.9-39,6.8-79.65.12-112.74-18-22.78-12.47-42-30.37-54.71-53a126.73,126.73,0,0,1-13.5-36q2.1-1.36,4.2-2.87a256.15,256.15,0,0,0,55.5-54.26c24.78-33,42.77-73.16,77.66-95.18,26.85-16.94,60.44-20.49,91.89-16.15,26.28,3.63,53.15,13.36,69.87,33.95,19.2,23.63,21.36,57.48,13.65,86.94-3.51,13.37-20.3,47.92-11.72,58.76,10.57,13.34,45.35-12,55.48-25.69s12.35-31.45,18.43-47.35c11.46-30,33.46-78.72,62.82-89.56,43.33-16,54-28,56.95-57.3,1.16,17.91-2.79,37,2,53.59C696.66,270.84,723.88,307,726.75,303.65Z"/><path class="cls-8" d="M563,428.93a470.39,470.39,0,0,0-46.51,37.62c-16,15-35.26,27.17-55.91,36.8-26,12.11-54.14,20.22-81,24.9-39,6.8-79.65.12-112.74-18-22.78-12.47-42-30.37-54.71-53a1052.86,1052.86,0,0,1,177.74-45.46q30.76-5.05,61.8-8.29c20.39-2.13,41.19-4.08,61.53-.48A94.31,94.31,0,0,1,563,428.93Z"/><path class="cls-9" d="M469,426.78s-.23,3.46-.71,9.34c-1.13,13.63-3.62,40.28-7.78,67.23-26,12.11-54.14,20.22-81,24.9a176,176,0,0,1-24.39,2.51q-7.2.24-14.36-.1a171.78,171.78,0,0,1-74-20.4c1.55-4.18,3.41-9.53,5.25-15.57,4.85-15.91,9.56-36.69,8-53.91Z"/><path class="cls-10" d="M543.15,311.29c-2.86,16-12.92,32.69-28.94,35.17-11.75,1.81-23.58-4.82-30.92-14.16a60.67,60.67,0,0,1-8.6-15.46c-.17-.42-.33-.85-.49-1.27a139.53,139.53,0,0,1-4.75-15.83c-10.89,1.1-18.7,11-23.47,20.85-2.62,5.42-4.8,11.18-7.54,16.53-.06.13-.13.25-.19.38a44.31,44.31,0,0,1-8.19,11.57c-12.37,12.07-32.34,12.12-48.85,7A155.55,155.55,0,0,1,365.12,350l-.55-.24c-9.42-4.11-18.7-8.6-28.49-11.59l-.59-.18c-.84-.25-1.68-.48-2.52-.71-26-7-55.57-2.16-79.49-13l-.17-.08a58.76,58.76,0,0,1-8-4.44,109.3,109.3,0,0,1-6.27,11l-.34.51q-.63,1-1.29,1.89c-.08.11-.16.23-.25.34a44.45,44.45,0,0,1-4.75,5.43c-5.59,5.36-13.29,9-21,8-7-.91-13-5.55-16.87-11.49a18.72,18.72,0,0,0,16.93-.53c18.12-9.3,16.56-34.66,23-51.08,3.41-8.73,7.6-17.55,6.79-27.18-.64-7.65-4.48-14.81-11.85-17.79a21.6,21.6,0,0,0-14.21-1c.78-2.19,1.54-4.51,2.3-7,0-.05,0-.11,0-.16,4.4-14.65,15.12-27.43,28.55-36.44.5-.3,1-.63,1.49-1a0,0,0,0,0,0,0,59.26,59.26,0,0,1,20.08-9.47,52.58,52.58,0,0,1,7.25-1.28c2.78-.28,6-.62,8.32-2a6,6,0,0,0,2.49-2.6h0c.06-.12.11-.24.16-.36a51.33,51.33,0,0,0,31.45,20.66,2.15,2.15,0,0,0,1-4.17l-2-.51c-12.82-3.29-27-15.54-35.2-29.17A51.8,51.8,0,0,1,282,141a34.79,34.79,0,0,1,5.64-11.71c.3-.3.6-.62.88-.94a21.54,21.54,0,0,1,13.83-7.18,16.76,16.76,0,0,1,8.24,1.21,17,17,0,0,1,2.21,1.14,0,0,0,0,1,0,0c10.45,6.38,11.92,22.33,20.41,31.83,7.74,8.67,20.17,10.85,31,15S386.45,183.53,384.9,195l33-37.12c1-1.11,2.19-2.33,3.68-2.3s2.49,1.08,3.44,2.08A411.89,411.89,0,0,1,502.24,272.9c4.12,9.2,8,18.71,14.53,26.39a36.31,36.31,0,0,0,14.49,10.5A24.36,24.36,0,0,0,543.15,311.29Z"/><path class="cls-11" d="M429.49,222.13c7.59,51.12-29.47,1.11-29.47,1.11s-.66-2.45-1.3-6.46c-.3-1.93-.6-4.23-.82-6.79a86.07,86.07,0,0,1-.1-13.42A56.77,56.77,0,0,1,404,173.69C415.59,152.37,427.59,152,435.18,152h.12s-9.22,13.06-8,46.68c.17,5.11.59,10.7,1.33,16.79C428.85,217.64,429.15,219.86,429.49,222.13Z"/><path class="cls-12" d="M435.18,152c-7.71,6.6-11.75,17.11-17.2,25.61a56.05,56.05,0,0,1-20.18,18.93A56.77,56.77,0,0,1,404,173.69C415.59,152.37,427.59,152,435.18,152Z"/><path class="cls-10" d="M410.67,77q-4.57,1.43-10.13,2.8A242.81,242.81,0,0,1,372,85a218.72,218.72,0,0,1-44.08,1.07c-11.55-.93-23-2.74-33.66-7.56a46.37,46.37,0,0,1-5-2.66A5.33,5.33,0,0,1,286.78,70l.12-.47a8.72,8.72,0,0,1,12.88-5.36l.09,0a29.06,29.06,0,0,0,3.53,1.87h0c.78.34,1.57.66,2.37,1a42.48,42.48,0,0,1,2.39-7c.62-1.41,1.32-2.81,2.09-4.18,8.11-14.39,24.27-26.41,43-29.58,29.84-5.06,47.28,21.32,47.28,21.32q.82-.18,1.65-.33A87.77,87.77,0,0,1,430.62,47a9.25,9.25,0,0,1,7.19,5.56C440.2,58.32,438.84,68.22,410.67,77Z"/><path class="cls-13" d="M469,426.78s-.23,3.46-.71,9.34a100.51,100.51,0,0,1-17.91,17.6c-14.92,11.47-32.43,19-50.06,25.2q-6.26,2.21-12.58,4.35a43.44,43.44,0,0,0-28.59,31.84c-1.16,5.28-2.48,10.51-4,15.65q-7.2.24-14.36-.1h0a30.81,30.81,0,0,0-30.92-31.3,149,149,0,0,1-37.82-4.67c4.85-15.91,9.56-36.69,8-53.91Z"/><path class="cls-11" d="M473.76,341.67c-.35-.45-.69-.89-1-1.33-3.16-4.45-4.12-8.58-4.07-14.21.08-10.39-.45-19.71-.64-30.11a2,2,0,0,1,.56-1.46c0-.64-.07-1.29-.09-1.93-.3-6.85-.06-13.74-.38-20.61-.91-20.12-8.3-42-26.08-51.47-19.09-10.16-42.15-2.51-63.9-2.79-1.23,0-2.46,0-3.68-.12a41.3,41.3,0,0,0-2.2-10.15,40,40,0,0,0-29.58-25.94c-16.61-3.44-37.86,3.57-44.88,20.21a120.81,120.81,0,0,0-16.37-18.83c-2.43-2.27-5.19-4.55-8.51-4.83a12.27,12.27,0,0,0-5.83,1.22c-.55.23-1.09.49-1.63.75a85.24,85.24,0,0,0-13.63,8.27c-1,.78-2.18,1.6-2.46,2.42-.24.67.11,1.34,1.58,2a6,6,0,0,0,1.33.39,19.14,19.14,0,0,0,4.66,0c12-.72,23.86,7.49,27.82,18.76a23.44,23.44,0,0,1,.85,3c-9.49,4.8-16.87,12.83-22.11,22.16a75,75,0,0,0-6.12,14.26c-4.7,15-5.25,31.06-5.57,46.83A69.29,69.29,0,0,1,250.63,312a78.57,78.57,0,0,1-3.83,11.12c-.38,1-.76,2-1.13,2.93a238,238,0,0,0-15.14,75c-.07,1.85-.12,3.7-.09,5.56a46.31,46.31,0,0,0,2.15,14.82c2.25,6.49,7,12.44,13.58,14.48,2.39.74,4.94.95,7.28,1.85a18.32,18.32,0,0,1,4.18,2.35c1.35,1,2.64,2.09,3.94,3.15,25.76,21,61.31,27.47,94.15,22.52,23.66-3.57,48.32-13.12,71.49-23.5,9-4,17.77-8.19,26.17-12.17A16.22,16.22,0,0,0,457,435c5.12,4.64,12.63,4.74,18.86-.19,8-6.31,9.81-16.93,10.11-27.09C486.72,383.78,488.38,360.11,473.76,341.67ZM358.12,215.53c-4,2.7-16.93,1.36-19.87,1.32-8.58-.11-17.15-.61-25.73-.92a1.56,1.56,0,0,1-1.57-1.18,1.68,1.68,0,0,1-.32-1.51,26.5,26.5,0,0,1,10.08-16.12c6.58-4.85,15.81-4.29,23.27-1.8,8.43,2.81,12.31,9.47,15.11,17.27A2.3,2.3,0,0,1,358.12,215.53Z"/><path class="cls-12" d="M296.22,211c-3,1.7-6.58,2.73-9.74,4a1.5,1.5,0,0,1-1.69-.69,86.92,86.92,0,0,1-5.94-12A28.29,28.29,0,0,0,257,193.17a19.14,19.14,0,0,1-4.66,0c-1-.78-2-1.56-2.91-2.37.28-.82,1.41-1.64,2.46-2.42a85.24,85.24,0,0,1,13.63-8.27c.54-.26,1.08-.52,1.63-.75,7.63,4.85,14.82,10.72,19.92,17.58,1.75,2.36,3,5.12,2.84,7.84a6.5,6.5,0,0,0,1.59.77c1.43.5,2.87.09,4.29.43a2.75,2.75,0,0,1,2.35,2.31C298.25,209.65,297.31,210.38,296.22,211Z"/><path class="cls-14" d="M285.55,214.95a51.74,51.74,0,0,0-19.32,17.71c-4.83-4.72-24.64-22.72-53.18-30.21q-1.1-.29-2.13-.6c-30.65-9.05-25.87-30.4-25.87-30.4s9.33-30.34,36-13.34c12.5,8,25.93,16.58,37.48,25.75a135.38,135.38,0,0,1,15.94,14.61,69.52,69.52,0,0,1,7.59,9.83A46.71,46.71,0,0,1,285.55,214.95Z"/><path class="cls-15" d="M229.83,176.61c-.2,10.52-3.79,23.69-14.9,27.38l-.29.06a1.56,1.56,0,0,1-1.59.19l-18.54-7.89a1.2,1.2,0,0,1-.74-.78c-4.19-2.32-7.43-6.42-8.66-12.65-.37-1.89,2.52-2.69,2.9-.8,4.26,21.68,36.93,13.38,38.45-5.68A1.6,1.6,0,0,1,229,175.3,1.32,1.32,0,0,1,229.83,176.61Z"/><path class="cls-12" d="M428.6,215.5c-3.59,0-7.2.16-10.82.34l-19.06.94c-.3-1.93-.6-4.23-.82-6.79l29.37-11.28C427.44,203.82,427.86,209.41,428.6,215.5Z"/><path class="cls-12" d="M417.33,306.91a1.82,1.82,0,0,0-.1-.42,84,84,0,0,1-6.1-35.71,1.36,1.36,0,0,0-1.58-1.43,1.5,1.5,0,0,0-.41-.38l-.1-.06a6,6,0,0,0-9.28,6.09c.22,1.24.46,2.46.67,3.61.86,4.66,2.4,10.15.91,14.83-2.76,8.68-14.65,5.71-19,0-5.57-7.23-4.86-18.16-4.17-26.71.38-4.74,1-9.45,1.55-14.17A38.76,38.76,0,0,0,376.84,233c-.75-1.81-1.55-3.65-2.42-5.46a82.56,82.56,0,0,1-19.52,52.13c1.52,6-.5,12.94-3.71,18.27,23.28,9.63,41.27,10.79,64.87,11.17A1.43,1.43,0,0,0,417.33,306.91Z"/><path class="cls-12" d="M468.46,321.09q-.05-14.15-.11-28.3a121.47,121.47,0,0,1-24.59,49.89c-10.88,13.18-10.48,29.78-6,45.46a62.2,62.2,0,0,1-10.4,54.06l26-12q0-1.27,0-2.55c0-2.45-1-5.25-1.26-7.76-.26-2.93-.57-5.88-.78-8.82-.79-11.13.22-22.14.45-33.26.19-9.85-.64-20-4.86-28.9-2.64-5.59,4.36-11.26,9.23-11.82a28,28,0,0,1,9.19.82c1.51.34,6.41,1,7.38,2.27C468.68,334.89,468.49,327.74,468.46,321.09Z"/><path class="cls-7" d="M310.86,287.71s5.68,21.7,21.68,21.7,18.65-11.51,18.65-11.51-14.64-6.12-20.14-9.12S310.86,287.71,310.86,287.71Z"/><path class="cls-15" d="M282.06,208.3c-.75-1.19-11.2,3.92-12.43,4.48a15.53,15.53,0,0,1-8.48,1.55c-9-.78-17.07-5.15-23.63-11.23-1-.94-12.51-11.82-11.15-12.63-2.42,1.43-3.64,5-5.81,6.86a42.49,42.49,0,0,1-8,5.35c-3.07,1.61-7.36,4-11.57,5a1.4,1.4,0,0,0-1.09,1.27,1.38,1.38,0,0,0,1.08,1.45,319.76,319.76,0,0,1,64.17,21.32.85.85,0,0,0,.21.07l.9.86a52.23,52.23,0,0,1,18.18-17.11,1.38,1.38,0,0,0,.62-1.78A47.86,47.86,0,0,0,282.06,208.3Z"/><path class="cls-12" d="M425.29,329.9c-20-5.66-40.22-12.57-61-14.88a103.75,103.75,0,0,0-29.54,1.13c-9.53,1.66-21.52,3.46-29.08-3.71a3.35,3.35,0,0,1-.66-4l0-.06a3.42,3.42,0,0,1,5-1.24q.54.39,1.08.81a26.29,26.29,0,0,0,4.25,2.73,27.44,27.44,0,0,0,21.35,1.5,5.72,5.72,0,0,0,1.11-.48,2.58,2.58,0,0,0,.56-.44,1.54,1.54,0,0,0,.32-1.76c-.52-.86-1.79-.68-2.77-.46a19.85,19.85,0,0,1-24.22-19c0-.87-.08-1.92-.85-2.32a2.29,2.29,0,0,0-1.53,0,107.83,107.83,0,0,0-44.11,20c-.36.28-.87.64-1.33,1.06a117.92,117.92,0,0,1-.36-71.69,75,75,0,0,0-6.12,14.26c-4.7,15-5.25,31.06-5.57,46.83A69.29,69.29,0,0,1,250.63,312a78.57,78.57,0,0,1-3.83,11.12c-.38,1-.76,2-1.13,2.93a22.61,22.61,0,0,1,5.08,14.78,1.39,1.39,0,0,0,0,.2c-2,10.18-4.9,20.09-5,30.44-.36,4.22-.71,8.44-1.08,12.66-.59,6.83-1,14.82-6.76,19.49a13.42,13.42,0,0,1-7.44,3,46.31,46.31,0,0,0,2.15,14.82c2.25,6.49,7,12.44,13.58,14.48,2.39.74,4.94.95,7.28,1.85a18.32,18.32,0,0,1,4.18,2.35c-5.17-21.09-4.64-39.65-4.33-62.67,0-.2.84-6.32.85-6.52.9-10.57.76-21.17,1.49-31.76a1.24,1.24,0,0,0,1.1-1.06l1.29-6.67q3.12-.46,6.2-1.12l.22,0a525.07,525.07,0,0,1,159,2.28h.25l.81.24A1.51,1.51,0,0,0,425.29,329.9ZM302.15,307.11a6.28,6.28,0,0,1-1.91,2.74c-4.92,4.71-11,8-17.19,10.88-7.46,3.5-15.34,6.55-23.57,6.9a8.9,8.9,0,0,1-4.22-.59c-7-3.31,4.2-12.13,7.25-14.07,4.1-2.61,8.65-4.4,13.08-6.34a81.46,81.46,0,0,1,10.8-4.26,21.31,21.31,0,0,1,11.47-.35c2.22.63,4.61,2.32,4.37,4.62A3.11,3.11,0,0,1,302.15,307.11Z"/><path class="cls-6" d="M403.37,49.77a22,22,0,0,0-1.18-2.43,87.39,87.39,0,0,1,27.88-.42,9.84,9.84,0,0,1,8.47,8.36c.4,3.32-.86,7.43-6.41,11.73-2.05.26-4.11.48-6.17.6l-.39,0A20,20,0,0,1,406,55.29,44.61,44.61,0,0,0,403.37,49.77Z"/><circle class="cls-7" cx="338.72" cy="407.78" r="13.33"/><path class="cls-6" d="M296.74,73.2a1.38,1.38,0,0,1-1-.2,3.35,3.35,0,0,1-1.5-3.82,1.57,1.57,0,0,1,.07-.23,2.86,2.86,0,0,1,.19-.39,2.14,2.14,0,0,1,.13-.26,1.48,1.48,0,0,1,.1-.13l.06-.07L295,68a2.9,2.9,0,0,1,.44-.42,3.17,3.17,0,1,1,1.35,5.65Z"/><path class="cls-6" d="M307,77.49a1.38,1.38,0,0,1-1-.2,3.35,3.35,0,0,1-1.5-3.82,1.57,1.57,0,0,1,.07-.23,2.86,2.86,0,0,1,.19-.39,2.14,2.14,0,0,1,.13-.26,1.48,1.48,0,0,1,.1-.13l.06-.07.14-.13a2.9,2.9,0,0,1,.44-.42A3.17,3.17,0,1,1,307,77.49Z"/><path class="cls-6" d="M319.07,80.07a1.38,1.38,0,0,1-1-.2,3.35,3.35,0,0,1-1.5-3.82,1.57,1.57,0,0,1,.07-.23,2.86,2.86,0,0,1,.19-.39,2.14,2.14,0,0,1,.13-.26,1.48,1.48,0,0,1,.1-.13l.06-.07.14-.13a2.9,2.9,0,0,1,.44-.42,3.17,3.17,0,1,1,1.35,5.65Z"/><path class="cls-6" d="M300.16,71.42h0Z"/><path class="cls-6" d="M321.36,66.67c-6.86,2.85-15.58.41-15.58.41a42.48,42.48,0,0,1,2.39-7A90.51,90.51,0,0,0,321.36,66.67Z"/><path class="cls-16" d="M231.1,341.81a27.72,27.72,0,0,1-9.22,5.62,22.71,22.71,0,0,1-11,1.13,26.15,26.15,0,0,1-10.32-4,32.3,32.3,0,0,1-4.36-3.4,35.9,35.9,0,0,1-9-13.68A35,35,0,0,1,185,316.6c-.07-.93,0-1.87,0-2.8s.1-1.82.2-2.72a53,53,0,0,1,.81-5.36q.54-2.64,1.28-5.22c.51-1.71,1.08-3.39,1.69-5.05s1.27-3.29,2-4.9l2.09-4.67c1.29-3.06,2.51-6.16,3.56-9.32l1.57-4.87q.8-2.47,1.66-4.91c1.13-3.26,2.33-6.5,3.58-9.71a329.54,329.54,0,0,1,17.3-37.48,1.37,1.37,0,0,1,2.46,1.22c-5.59,12.45-10.66,25.11-15.06,38-1.1,3.21-2.13,6.45-3.13,9.69q-.75,2.43-1.45,4.87l-1.4,5a94.32,94.32,0,0,1-3.49,10l-1,2.43-1,2.3c-.67,1.53-1.31,3.06-1.9,4.61a74.67,74.67,0,0,0-2.92,9.38,47.41,47.41,0,0,0-.87,4.77c-.11.8-.18,1.6-.25,2.4s-.1,1.55-.06,2.33a31.44,31.44,0,0,0,5.93,17.67c3.62,5.19,9,9.28,15.12,10.51a19.25,19.25,0,0,0,9.27-.43,26.07,26.07,0,0,0,8.52-4.48,1.37,1.37,0,0,1,1.76,2.09Z"/><path class="cls-16" d="M289.6,243.54c-.26-3.74-.66-7.46-1.26-11.15q-.42-2.77-1-5.53a25.84,25.84,0,0,0-.64-2.62l-.34-1.26c-.11-.42-.31-.83-.46-1.25-2.43-6.69-6.7-12.84-11.25-18.58a143.32,143.32,0,0,0-15-16.34,111.53,111.53,0,0,0-17.8-13.44h0a1.37,1.37,0,0,1,1.25-2.44A89.58,89.58,0,0,1,262.94,183a93,93,0,0,1,16.55,16.41l1.76,2.35c.59.78,1.09,1.63,1.64,2.44,1.11,1.61,2.09,3.33,3.07,5a51.64,51.64,0,0,1,4.67,11c.13.49.31,1,.4,1.46l.28,1.52c.19,1,.38,2,.47,3q.32,2.88.53,5.77a94.69,94.69,0,0,1,0,11.58,1.37,1.37,0,0,1-2.73,0Z"/><path class="cls-16" d="M286.12,180.61c-.87-1.61-1.66-3.26-2.37-4.93s-1.32-3.39-1.88-5.13a70,70,0,0,1-2.53-10.64,61.83,61.83,0,0,1-.71-11,46.07,46.07,0,0,1,1.59-11.09,31.09,31.09,0,0,1,5-10.36,25.13,25.13,0,0,1,4.05-4.3,26.19,26.19,0,0,1,2.36-1.8c.83-.54,1.7-1,2.56-1.52a21.36,21.36,0,0,1,11.89-2.34,30.6,30.6,0,0,1,11.13,3.66,98.14,98.14,0,0,1,9.29,5.78c1.46,1,2.91,1.84,4.34,2.79s3,1.74,4.48,2.54a99.42,99.42,0,0,0,19.24,7.59c13.4,3.76,27.51,5,41.63,5.57h0a1.37,1.37,0,0,1,0,2.74,205.14,205.14,0,0,1-21.47-.3,129.28,129.28,0,0,1-21.41-3.17,100,100,0,0,1-20.61-7.27c-1.65-.8-3.25-1.7-4.88-2.55s-3.17-1.92-4.67-2.88-3-1.94-4.42-2.86-2.91-1.81-4.37-2.62a33.57,33.57,0,0,0-4.44-2,20.16,20.16,0,0,0-4.48-1.16,15.58,15.58,0,0,0-8.76,1.48c-.68.39-1.38.74-2.06,1.14a21,21,0,0,0-1.92,1.37,19.84,19.84,0,0,0-3.34,3.34,27.34,27.34,0,0,0-4.48,8.57,49.31,49.31,0,0,0-1.62,20.15,64.89,64.89,0,0,0,5.27,20v0a1.37,1.37,0,0,1-2.45,1.22Z"/><path class="cls-16" d="M479.41,215.17a91.28,91.28,0,0,1,9.52-11.1,100.43,100.43,0,0,1,11-9.56,79.29,79.29,0,0,1,26-13.14,65.32,65.32,0,0,1,14.55-2.31,52.5,52.5,0,0,1,14.75,1.38c9.67,2.3,18.46,7.18,26.27,13a159.8,159.8,0,0,1,21.34,19.75c6.56,7.08,12.69,14.51,19,21.7,1.57,1.79,3.15,3.57,4.76,5.29a59.5,59.5,0,0,0,4.93,4.85,30.69,30.69,0,0,0,11.86,6.07,38.73,38.73,0,0,0,13.45,1.15,40,40,0,0,0,13.05-3.52,34.73,34.73,0,0,0,5.8-3.4,34.05,34.05,0,0,0,5-4.49,36.86,36.86,0,0,0,6.95-11.5,51.64,51.64,0,0,0-2.18-39.94,40.88,40.88,0,0,0-3.47-5.83c-.63-.94-1.36-1.78-2.05-2.65s-1.49-1.66-2.32-2.41-1.67-1.49-2.52-2.22-1.77-1.37-2.73-1.95a31.84,31.84,0,0,0-5.9-3.08,23.59,23.59,0,0,0-12.67-1.59,22.42,22.42,0,0,0-11.26,5.83,49.46,49.46,0,0,0-8.41,10.66l-3.7,6.17c-.61,1.06-1.29,2.07-2,3.09s-1.34,2.05-2,3.06c-1.47,2-2.84,4-4.45,5.89-.79.95-1.53,1.94-2.37,2.85L617,210c-.82.93-1.78,1.74-2.66,2.62L613,213.88c-.45.43-1,.81-1.43,1.21-1,.79-1.91,1.62-2.9,2.37l-3.06,2.18a15.66,15.66,0,0,1-1.58,1l-1.61,1-1.61,1c-.55.31-1.12.57-1.68.85-1.13.55-2.23,1.15-3.39,1.65l-3.49,1.41a15.55,15.55,0,0,1-1.77.63l-1.79.56a35.58,35.58,0,0,1-3.61,1l-3.65.85c-1.22.22-2.45.4-3.68.6l-1.84.29-1.85.18-3.7.34c-1.23.08-2.47.09-3.7.14l-3.61.12A58.45,58.45,0,0,0,537,238.39,87.68,87.68,0,0,0,515,255.29a117.89,117.89,0,0,0-16.72,22.41,110.46,110.46,0,0,0-10.93,25.68,48.06,48.06,0,0,0-2,13.37,32.48,32.48,0,0,0,2.5,12.84,30.8,30.8,0,0,0,1.45,2.85c.28.45.59.88.88,1.32a10.06,10.06,0,0,0,1,1.27,22.15,22.15,0,0,0,4.66,4.35,24.72,24.72,0,0,0,11.93,4.4,23.64,23.64,0,0,0,12.47-2.21,25.72,25.72,0,0,0,5.35-3.54,31.59,31.59,0,0,0,4.39-4.87,38.76,38.76,0,0,0,3.44-5.76,49.84,49.84,0,0,0,2.61-6.31,67.58,67.58,0,0,0,1.89-6.64,38.65,38.65,0,0,0,1-6.66,86,86,0,0,0-.45-13.9,112.82,112.82,0,0,0-2.31-13.84,68.39,68.39,0,0,0-1.92-6.63c-.75-2-1.77-4.25-2.75-6.38-2-4.29-4.15-8.54-6.37-12.75a425.41,425.41,0,0,0-30.09-48.57,280.4,280.4,0,0,0-17.75-22.31A145,145,0,0,0,456.76,164a67.16,67.16,0,0,0-11.9-7.23,32.47,32.47,0,0,0-13.06-3.24,20.48,20.48,0,0,0-6.52.92,21.28,21.28,0,0,0-6,2.86,35.22,35.22,0,0,0-9.31,9.86l.09-.16a95.35,95.35,0,0,1-5.19,8.43q-2.77,4.06-5.89,7.87a99,99,0,0,1-13.84,14,80.24,80.24,0,0,1-8.05,5.74,64.57,64.57,0,0,1-8.84,4.51,54.58,54.58,0,0,1-9.51,2.9,52.74,52.74,0,0,1-9.91,1,1.37,1.37,0,0,1-.06-2.74h.06a50,50,0,0,0,9.33-1,51.64,51.64,0,0,0,9-2.84,61.6,61.6,0,0,0,8.35-4.38,77.21,77.21,0,0,0,7.65-5.59,95.71,95.71,0,0,0,13.22-13.66,107,107,0,0,0,10.51-15.81l0-.06.06-.1a47.48,47.48,0,0,1,4.55-5.94,31.8,31.8,0,0,1,5.69-5,25.23,25.23,0,0,1,14.58-4.54,31.72,31.72,0,0,1,7.58,1,44.38,44.38,0,0,1,7.09,2.5,71.09,71.09,0,0,1,12.69,7.57,149.14,149.14,0,0,1,21.33,19.83,284.76,284.76,0,0,1,18.21,22.52A430,430,0,0,1,529.55,252c2.28,4.25,4.5,8.54,6.58,12.92,1,2.21,2.06,4.34,3,6.79a73.24,73.24,0,0,1,2.14,7.16,117.76,117.76,0,0,1,2.53,14.49,90.26,90.26,0,0,1,.56,14.8c0,.62-.1,1.27-.15,1.9s-.12,1.27-.23,1.92c-.18,1.32-.45,2.51-.71,3.72a72.58,72.58,0,0,1-2,7.19,55.3,55.3,0,0,1-2.84,7,44.35,44.35,0,0,1-3.89,6.58,37.19,37.19,0,0,1-5.19,5.81,31.32,31.32,0,0,1-6.58,4.41,29.33,29.33,0,0,1-15.46,2.84,30.49,30.49,0,0,1-14.75-5.35,28,28,0,0,1-5.85-5.4,14.29,14.29,0,0,1-1.22-1.59c-.37-.55-.77-1.09-1.12-1.66a36.39,36.39,0,0,1-1.83-3.54,38.36,38.36,0,0,1-3.08-15.16,52.54,52.54,0,0,1,2.16-15,116.45,116.45,0,0,1,11.52-27.09,123.86,123.86,0,0,1,17.59-23.56,93.63,93.63,0,0,1,23.44-18.05,63.8,63.8,0,0,1,28.84-7.8l7.06-.2,3.46-.3,1.73-.16,1.71-.26c1.14-.18,2.28-.34,3.42-.54l3.36-.77a31.15,31.15,0,0,0,3.31-.92l1.64-.5a13.2,13.2,0,0,0,1.62-.56l3.19-1.26c1.05-.44,2.05-1,3.08-1.48.51-.26,1-.49,1.53-.76l1.47-.87,1.47-.87a13.41,13.41,0,0,0,1.44-.93l2.81-2c.91-.69,1.78-1.45,2.67-2.16.44-.37.9-.71,1.32-1.1l1.25-1.19c.82-.81,1.71-1.54,2.48-2.41l2.36-2.54c.79-.84,1.49-1.78,2.24-2.66,1.52-1.75,2.84-3.69,4.24-5.55.67-1,1.31-1.94,2-2.91s1.31-1.94,1.91-3l3.73-6.14a54.67,54.67,0,0,1,9.44-11.77,27.75,27.75,0,0,1,14-7.07,28.82,28.82,0,0,1,15.48,2,37,37,0,0,1,6.8,3.6c1.09.67,2.08,1.48,3.1,2.25s2,1.63,2.86,2.54,1.78,1.84,2.64,2.78,1.63,2,2.33,3a45.83,45.83,0,0,1,3.84,6.53,56.55,56.55,0,0,1,2.12,43.89A41.59,41.59,0,0,1,684.12,244a38.77,38.77,0,0,1-5.7,5.1,39.34,39.34,0,0,1-6.6,3.82,44.56,44.56,0,0,1-14.59,3.84,43.2,43.2,0,0,1-15-1.38,35.07,35.07,0,0,1-13.48-7,63,63,0,0,1-5.29-5.25c-1.65-1.79-3.24-3.6-4.82-5.42-6.28-7.3-12.32-14.7-18.75-21.72a158.46,158.46,0,0,0-20.67-19.4c-7.46-5.68-15.76-10.37-24.77-12.61s-18.55-1.73-27.57.63a76.13,76.13,0,0,0-25.12,12.37A97.48,97.48,0,0,0,491,206.12a88.94,88.94,0,0,0-9.3,10.61l0,.05a1.37,1.37,0,0,1-2.21-1.6Z"/><path class="cls-16" d="M432,336.24c-14.5-2.39-29-4.56-43.7-5.75-7.31-.76-14.65-1.12-22-1.61-3.66-.23-7.34-.29-11-.45l-5.5-.2c-1.83-.05-3.67,0-5.51-.07-14.68-.27-29.37.18-44,1a436.28,436.28,0,0,0-43.64,4.64l2.29-2.49c-1,11.9-1.66,23.88-2.09,35.84s-.66,23.92-.35,35.83c.11,3,.2,5.95.34,8.91l.3,4.44c.1,1.48.19,3,.37,4.42l.47,4.4c.14,1.47.43,2.89.63,4.34s.42,3,.74,4.11a18.1,18.1,0,0,0,1.45,3.55c2.51,4.62,6.88,8.45,11.67,11.51a78.06,78.06,0,0,0,15.67,7.49,142.17,142.17,0,0,0,34.53,7.32,179.61,179.61,0,0,0,35.54-.32A168.71,168.71,0,0,0,393,455.74a153.82,153.82,0,0,0,16.56-6.55,139.09,139.09,0,0,0,15.6-8.6h0a1.37,1.37,0,0,1,1.5,2.29A141.92,141.92,0,0,1,411,452.05a155.43,155.43,0,0,1-16.78,7.1,172.63,172.63,0,0,1-35.45,8.24,184.11,184.11,0,0,1-36.43.94,145.09,145.09,0,0,1-35.93-7,83.48,83.48,0,0,1-16.88-7.83,49.62,49.62,0,0,1-7.62-5.75,31.89,31.89,0,0,1-6.18-7.71,23.94,23.94,0,0,1-2-4.75,45.91,45.91,0,0,1-.94-4.74c-.23-1.52-.57-3-.72-4.57l-.51-4.56c-.19-1.52-.29-3-.4-4.56l-.33-4.55c-.16-3-.27-6.06-.39-9.09-.29-12.11,0-24.19.51-36.24s1.38-24.06,2.49-36.11v-.06a2.71,2.71,0,0,1,2.29-2.43,440.57,440.57,0,0,1,44.32-4.25q22.19-1.11,44.4-.4c1.85.05,3.7.08,5.55.16l5.54.29c3.69.21,7.39.33,11.08.62l11.06.88c3.69.25,7.36.76,11,1.15,14.72,1.52,29.31,4,43.83,6.75a1.37,1.37,0,0,1-.47,2.69Z"/><path class="cls-16" d="M253.44,319.52a144.59,144.59,0,0,0-12.61,32.74q-2.23,8.51-3.65,17.2c-.49,2.89-.88,5.8-1.25,8.71s-.6,5.8-.78,8.72-.29,5.85-.37,8.79l-.19,8.89c-.16,5.87-.2,11.64,1.59,16.6a17.65,17.65,0,0,0,10.66,10.32,20.39,20.39,0,0,0,3.76,1,15.13,15.13,0,0,0,10.75-2.06,36.3,36.3,0,0,0,6.41-5.07L271,422.3c1.09-1.06,2.23-2.05,3.37-3.06a122.47,122.47,0,0,1,14.52-11c10.19-6.56,21.4-11.78,33.39-14.34a73.82,73.82,0,0,1,9.08-1.38l1.14-.12,1.23-.06c.82,0,1.64,0,2.45.07a27.25,27.25,0,0,1,4.78.8,23,23,0,0,1,8.77,4.29,14.8,14.8,0,0,1,3.39,3.89,11.44,11.44,0,0,1,1.53,5.13,12.52,12.52,0,0,1-.87,5.15,18.51,18.51,0,0,1-2.42,4.32l-.82,1a11.27,11.27,0,0,1-.92.89,14.54,14.54,0,0,1-2,1.54,16.77,16.77,0,0,1-4.54,2,17.23,17.23,0,0,1-9.69-.08,12.52,12.52,0,0,1-7.58-6.19,1.37,1.37,0,0,1,2.4-1.33l0,.05a9.59,9.59,0,0,0,6,4.49l1,.24,1,.12a14.76,14.76,0,0,0,2,.08,15.11,15.11,0,0,0,3.92-.7,11.93,11.93,0,0,0,6.23-4.29,11.15,11.15,0,0,0,2.34-7,7.38,7.38,0,0,0-1.08-3.28,10.66,10.66,0,0,0-2.51-2.7,18.72,18.72,0,0,0-7.19-3.24,22.71,22.71,0,0,0-4-.55c-.67,0-1.34,0-2,0l-1,.08-1.07.14a69,69,0,0,0-8.46,1.53,98.77,98.77,0,0,0-31.31,14.33,133.15,133.15,0,0,0-13.69,10.67c-1.08,1-2.17,1.92-3.19,2.94l-3.2,3.09a41.77,41.77,0,0,1-7.57,5.86,21.5,21.5,0,0,1-9.75,3,20.86,20.86,0,0,1-5.13-.37,26.3,26.3,0,0,1-4.79-1.39,24.73,24.73,0,0,1-4.46-2.27,22.88,22.88,0,0,1-3.94-3.14,22,22,0,0,1-5.4-8.54,35,35,0,0,1-1.67-9.47c-.17-3.13,0-6.17.08-9.14l.34-8.89c.13-3,.31-6,.58-9s.6-6,1-9,.94-5.92,1.51-8.86q1.69-8.83,4.18-17.49a146.78,146.78,0,0,1,14.08-33,1.37,1.37,0,0,1,2.38,1.34Z"/><path class="cls-16" d="M434.81,276.78A389.17,389.17,0,0,1,445,316.49a392.34,392.34,0,0,1,5.77,40.65c.64,6.81,1.1,13.63,1.49,20.45.09,1.73.2,3.36.26,5.17s.05,3.48.05,5.19l0,10.2a192.63,192.63,0,0,0,.83,20.08c.19,1.63.42,3.25.72,4.81a24.14,24.14,0,0,0,1.21,4.36,9.4,9.4,0,0,0,.41.88l.21.4.3.41a8.85,8.85,0,0,0,1.26,1.56l.7.71c.26.2.54.38.8.58a8.65,8.65,0,0,0,1.71,1,12.57,12.57,0,0,0,8.05.67,13.29,13.29,0,0,0,2-.59c.67-.23,1.28-.59,1.92-.87a14.52,14.52,0,0,0,3.28-2.56l.71-.76c.21-.27.39-.56.58-.84a9.3,9.3,0,0,0,1-1.77l.23-.45.21-.57.42-1.14c.28-.76.58-1.52.84-2.28a78.72,78.72,0,0,0,2.43-9.51,102.67,102.67,0,0,0,1.71-19.77,127.11,127.11,0,0,0-1.69-19.92c-.56-3.29-1.19-6.57-2-9.81l-.61-2.43-.7-2.4c-.45-1.62-1-3.16-1.54-4.68a35,35,0,0,0-4.49-8.47,21.91,21.91,0,0,0-3.14-3.41,15.57,15.57,0,0,0-12.74-3.57,24.92,24.92,0,0,0-8.9,3.15c-5.6,3.25-10.14,8.3-14.63,13.37a1.37,1.37,0,0,1-2.08-1.78c4.33-5.22,8.82-10.69,14.94-14.54a27.46,27.46,0,0,1,10.13-3.89,19.94,19.94,0,0,1,11.07,1.19,20.25,20.25,0,0,1,4.85,2.92,26,26,0,0,1,3.87,4,39.25,39.25,0,0,1,5.29,9.39c.67,1.64,1.27,3.32,1.77,5l.79,2.49.7,2.51c.94,3.34,1.68,6.73,2.34,10.14a126.48,126.48,0,0,1,2.22,20.69,108.28,108.28,0,0,1-1.44,20.89,84.44,84.44,0,0,1-2.45,10.3c-.27.84-.58,1.68-.88,2.52l-.45,1.26-.23.63-.33.69a15.08,15.08,0,0,1-1.49,2.67c-.29.42-.57.85-.88,1.25l-1,1.13a20.58,20.58,0,0,1-4.72,3.72c-.9.43-1.78.92-2.71,1.25a19.37,19.37,0,0,1-2.86.86l-1.47.3c-.5.06-1,.09-1.5.13a17.73,17.73,0,0,1-3,0,9.28,9.28,0,0,1-1.51-.2l-1.5-.29-1.47-.48a8,8,0,0,1-1.44-.58,14.58,14.58,0,0,1-2.69-1.57c-.42-.31-.85-.61-1.25-.94l-1.1-1.1a14.68,14.68,0,0,1-1.92-2.41l-.44-.63-.39-.73a15,15,0,0,1-.65-1.44,29,29,0,0,1-1.47-5.48c-.32-1.79-.54-3.55-.71-5.3a197.67,197.67,0,0,1-.56-20.72l.18-10.22c0-1.69,0-3.38,0-5s-.11-3.36-.18-5c-.27-6.78-.67-13.55-1.13-20.31a387.72,387.72,0,0,0-4.8-40.32,392.1,392.1,0,0,0-8.9-39.67,1.37,1.37,0,0,1,2.62-.78Z"/><path class="cls-16" d="M370.79,251.2a113.61,113.61,0,0,0,1.92-19.57,74.79,74.79,0,0,0-2.09-19.24,42.32,42.32,0,0,0-8.07-16.81,31.36,31.36,0,0,0-6.77-6.12,35,35,0,0,0-8.21-4,36.28,36.28,0,0,0-9-1.65,46.68,46.68,0,0,0-9.32.45,57.18,57.18,0,0,0-18,6.1,26.85,26.85,0,0,0-3.93,2.43,22.65,22.65,0,0,0-3.33,3,16.09,16.09,0,0,0-4,7.74,15.14,15.14,0,0,0,7.17,15.24h0a1.37,1.37,0,0,1-1.28,2.43A18.25,18.25,0,0,1,296.09,203a19.88,19.88,0,0,1,4.46-10.1,27.31,27.31,0,0,1,3.86-3.86,31.62,31.62,0,0,1,4.43-3,60.64,60.64,0,0,1,19.44-7.45,45.71,45.71,0,0,1,10.59-.81,37.17,37.17,0,0,1,28,14.34,46.68,46.68,0,0,1,8.51,19.19c2.73,13.64,1.38,27.46-1.94,40.5a1.37,1.37,0,0,1-2.67-.57Z"/><path class="cls-16" d="M312.77,233.82c.26,6,.43,12.05.63,18.08l.46,18.08.35,18.08a18.56,18.56,0,0,0,9.5,16c.55.33,1.15.58,1.72.88s1.2.46,1.81.68a19.39,19.39,0,0,0,7.68.76,18.56,18.56,0,0,0,16.24-15.12l.18-1,.08-1,.08-1,0-1.13.14-4.52q.27-9,.65-18.08a1.37,1.37,0,0,1,2.74,0q.39,9,.65,18.08l.14,4.52,0,1.13,0,1.24,0,1.25-.16,1.24a23.52,23.52,0,0,1-20,20.14,23.26,23.26,0,0,1-19.13-5.74,23.87,23.87,0,0,1-7.93-18.28l.35-18.08.46-18.08c.2-6,.37-12.05.63-18.08a1.37,1.37,0,0,1,2.73,0Z"/><path class="cls-16" d="M198.78,206.08a29.61,29.61,0,0,0,6.59-.77,30.09,30.09,0,0,0,6.31-2.18,24.43,24.43,0,0,0,9.89-8.51,30.47,30.47,0,0,0,4.54-12.4,36.7,36.7,0,0,0,.44-6.67,26.52,26.52,0,0,0-1-6.47,18.86,18.86,0,0,0-7.18-10.3,20.44,20.44,0,0,0-12-3.64,18.55,18.55,0,0,0-11.69,4.1,19.71,19.71,0,0,0-4,4.83,22,22,0,0,0-2.51,5.85,22.82,22.82,0,0,0,.37,12.61,24.07,24.07,0,0,0,6.89,10.61,23.71,23.71,0,0,0,11.35,5.56c2.33.57,4.68,1.05,7,1.7l3.43,1c1.15.35,2.29.69,3.41,1.12a141,141,0,0,1,25.72,12.35c4,2.51,8,5.1,11.85,7.92a140.22,140.22,0,0,1,11.16,9,2.62,2.62,0,0,1,.66,2.94l-.08.18c-1.22,2.94-2.55,5.85-3.69,8.82l-1.53,4.52-.77,2.26c-.23.76-.4,1.54-.6,2.3l-1.18,4.61c-.37,1.54-.57,3.11-.87,4.67l-.41,2.34c-.16.78-.18,1.57-.27,2.35l-.46,4.72a83.67,83.67,0,0,0,1.06,18.81l.41,2.32.55,2.28c.33,1.53.81,3,1.26,4.51.21.75.51,1.47.76,2.2s.53,1.46.83,2.17.59,1.43.92,2.1c.16.34.32.7.49,1s.35.68.48.91l-4.58-.7a91.93,91.93,0,0,1,8.34-6.42q4.28-3,8.83-5.53A94.05,94.05,0,0,1,298.61,287,72.8,72.8,0,0,1,309,284.71a63.22,63.22,0,0,1,10.65-.55,55.61,55.61,0,0,1,10.63,1.52,50.42,50.42,0,0,1,10.09,3.69l4.56,2.22,2.22,1.09c.74.37,1.48.73,2.25,1,3.05,1.27,6.08,2.61,9.23,3.66s6.29,2.08,9.46,3.06c1.6.45,3.21.84,4.82,1.26.81.2,1.61.43,2.42.61l2.44.52A169,169,0,0,0,397.45,306a155.24,155.24,0,0,0,19.85.81l-2.36,3.41A217,217,0,0,1,409.42,287a116.27,116.27,0,0,1-1.55-11.91,81.27,81.27,0,0,1,.08-12.1,77.9,77.9,0,0,1,5.25-23.58,38.25,38.25,0,0,1,6.45-10.62,22.78,22.78,0,0,1,10.68-7,20.56,20.56,0,0,1,12.8.51,29.34,29.34,0,0,1,10.6,6.62,39.06,39.06,0,0,1,7.32,9.9,55.73,55.73,0,0,1,4.42,11.3,75.61,75.61,0,0,1,2.21,11.81c.46,3.93.79,7.87,1.06,11.79l.77,11.73c.16,1.93.32,3.87.61,5.74a14.78,14.78,0,0,0,1.45,5l.07.12a1.37,1.37,0,0,1-2.33,1.44,11.06,11.06,0,0,1-1.34-3.11,15.29,15.29,0,0,1-.37-1.52c-.1-.5-.22-1-.29-1.51-.35-2-.54-4-.73-5.94l-1-11.74c-.33-3.89-.73-7.77-1.25-11.62a72.19,72.19,0,0,0-2.3-11.25c-2.14-7.28-5.59-14.3-11-19.37s-12.94-8.09-19.58-6a18.57,18.57,0,0,0-8.66,5.85,34,34,0,0,0-5.58,9.48,73.46,73.46,0,0,0-4.65,22.23,76.57,76.57,0,0,0,.06,11.4,111.71,111.71,0,0,0,1.62,11.39,212.27,212.27,0,0,0,5.64,22.5v0a2.61,2.61,0,0,1-1.72,3.26,2.73,2.73,0,0,1-.65.11c-3.56.17-6.94.13-10.4,0q-2.58-.11-5.15-.25c-1.71-.14-3.42-.24-5.13-.4a174.54,174.54,0,0,1-20.37-3.06l-2.53-.52c-.84-.18-1.67-.41-2.51-.61-1.67-.42-3.35-.81-5-1.26-3.3-1-6.63-1.89-9.86-3.09s-6.46-2.43-9.66-3.73c-.81-.31-1.59-.68-2.37-1.06l-2.34-1.12-4.58-2.18a45.88,45.88,0,0,0-8.93-3.25,49.62,49.62,0,0,0-9.42-1.34,57.25,57.25,0,0,0-9.58.49,66.81,66.81,0,0,0-9.46,2.07,88.09,88.09,0,0,0-18,7.73c-2.86,1.61-5.66,3.36-8.36,5.23a92.69,92.69,0,0,0-7.74,5.93l-.08.07a3,3,0,0,1-4.18-.3,3.11,3.11,0,0,1-.32-.46c-.28-.48-.45-.85-.66-1.25s-.38-.79-.57-1.19c-.38-.79-.7-1.59-1-2.38s-.63-1.6-.91-2.41-.59-1.61-.82-2.43c-.47-1.63-1-3.26-1.33-4.92l-.57-2.48-.43-2.5a89.51,89.51,0,0,1-1-20.18l.53-5c.11-.83.14-1.68.31-2.5l.45-2.48c.32-1.65.56-3.31,1-4.94l1.28-4.86c.22-.81.41-1.62.66-2.42l.82-2.37,1.65-4.74c1.21-3.11,2.62-6.13,3.93-9.2l.59,3.12a135.88,135.88,0,0,0-10.6-8.68c-3.68-2.76-7.52-5.3-11.42-7.76a138.11,138.11,0,0,0-24.68-12.1c-1.06-.43-2.15-.77-3.24-1.11l-3.27-1c-2.19-.64-4.42-1.12-6.63-1.7a28.39,28.39,0,0,1-21.54-19.54,27.22,27.22,0,0,1-.27-15.07,26.27,26.27,0,0,1,3.08-7,23.86,23.86,0,0,1,5-5.81,22.63,22.63,0,0,1,14.31-4.89,24.13,24.13,0,0,1,14.31,4.56,22.59,22.59,0,0,1,8.41,12.4,30.09,30.09,0,0,1,1,7.37,40.29,40.29,0,0,1-.59,7.3,33.74,33.74,0,0,1-5.26,13.64,27.51,27.51,0,0,1-11.26,9.4,33,33,0,0,1-7,2.28,32,32,0,0,1-7.33.72,1.37,1.37,0,0,1,0-2.73Z"/><path class="cls-16" d="M435.94,250.53a137.7,137.7,0,0,1-5-13.78q-2.08-7-3.63-14.17A152.11,152.11,0,0,1,424,193.4a105.42,105.42,0,0,1,3.9-29.26A89.16,89.16,0,0,1,433,150.27a81.28,81.28,0,0,1,7.54-12.68,1.37,1.37,0,0,1,2.32,1.47l0,0a95.38,95.38,0,0,0-6.12,12.76,98.23,98.23,0,0,0-4,13.5,112.76,112.76,0,0,0-2.08,13.93c-.37,4.69-.55,9.39-.6,14.1a178.31,178.31,0,0,0,2.15,28.3q1.06,7.06,2.66,14c1,4.65,2.25,9.3,3.65,13.81v0a1.37,1.37,0,0,1-2.56.95Z"/><path class="cls-16" d="M306.69,145.52a30.76,30.76,0,0,0,3.59-5.25l.39-.69.33-.72c.21-.48.44-1,.64-1.44a27.63,27.63,0,0,0,1-3,29.55,29.55,0,0,0,.63-3.07c.1-1,.25-2.08.26-3.14s0-2.11,0-3.17-.14-2.12-.3-3.18c-1.06-8.53-4.2-16.84-6.85-25.41A107.15,107.15,0,0,1,303,83.21a48.08,48.08,0,0,1-.55-14.09,45.92,45.92,0,0,1,11.83-25.43,56.58,56.58,0,0,1,10.6-9.2,65,65,0,0,1,12.32-6.54c2.16-.87,4.36-1.62,6.58-2.28s4.5-1.17,6.79-1.59,4.63-.6,7-.82L361,23.2a13.47,13.47,0,0,1,1.76.06l1.75.12a48.77,48.77,0,0,1,13.67,3.13,47.27,47.27,0,0,1,12,7.1,49.28,49.28,0,0,1,9.47,10.07,64.37,64.37,0,0,1,6.6,12,1.37,1.37,0,0,1-2.5,1.14v0c-3.8-7.83-9.12-14.95-16-20a44.78,44.78,0,0,0-11.16-6,44,44,0,0,0-12.38-2.4l-1.58-.06a11.21,11.21,0,0,0-1.58,0l-3.17.15c-2.1.28-4.2.49-6.29.93s-4.15,1-6.18,1.63-4,1.41-6,2.26a61.82,61.82,0,0,0-20.66,14.48,44,44,0,0,0-3.92,4.9A40.11,40.11,0,0,0,311.61,58a36.31,36.31,0,0,0-2.34,5.76c-.34,1-.56,2-.82,3s-.43,2-.54,3.06c-1.22,8.22.78,16.78,3.12,25.26s5.26,17.12,6.11,26.38a39.11,39.11,0,0,1,0,7c-.07,1.17-.28,2.34-.45,3.5a32.94,32.94,0,0,1-.87,3.43,30.25,30.25,0,0,1-7.14,12,1.37,1.37,0,0,1-2.07-1.78Z"/><path class="cls-16" d="M373,59.44c3.69-3.79,8.27-6.25,12.89-8.3a85.76,85.76,0,0,1,14.39-4.67,97.32,97.32,0,0,1,15-2.27,70.4,70.4,0,0,1,7.65-.14,42.38,42.38,0,0,1,7.79.95,22.23,22.23,0,0,1,4,1.26,12.35,12.35,0,0,1,3.86,2.54,7.9,7.9,0,0,1,2.34,4.79,10,10,0,0,1-.83,4.89,23.82,23.82,0,0,1-4.77,6.82c-.89,1-1.92,1.83-2.88,2.75s-2.06,1.64-3.09,2.46a65.7,65.7,0,0,1-13.6,7.36,109.34,109.34,0,0,1-14.45,4.72,181,181,0,0,1-29.66,4.87c-9.95.89-19.91,1.27-29.87,1.2-2.49,0-5-.07-7.48-.15-1.24,0-2.52-.09-3.79-.19s-2.51-.21-3.76-.34a126.82,126.82,0,0,1-14.86-2.46A83.17,83.17,0,0,1,297.35,81a37.92,37.92,0,0,1-12.79-8.49,1.37,1.37,0,0,1,2-1.92l0,0a34.94,34.94,0,0,0,12.12,7.2,83.85,83.85,0,0,0,14,3.81,134.36,134.36,0,0,0,14.45,1.87c1.21.09,2.42.17,3.63.22s2.38.07,3.61.07c2.44,0,4.9,0,7.35-.07,9.8-.25,19.61-.84,29.32-2,4.86-.56,9.69-1.26,14.5-2l3.59-.64,3.57-.72c2.38-.49,4.75-1,7.09-1.6a121.2,121.2,0,0,0,13.77-4.28A60.13,60.13,0,0,0,426.06,66c.91-.7,1.88-1.36,2.75-2.1s1.74-1.48,2.53-2.32a18.94,18.94,0,0,0,3.84-5.15,4.89,4.89,0,0,0,.51-2.31,2.71,2.71,0,0,0-.83-1.74,11.78,11.78,0,0,0-5.35-2.6,50.59,50.59,0,0,0-14-1.13,93.11,93.11,0,0,0-14.38,1.73,84.05,84.05,0,0,0-13.94,3.92,52.41,52.41,0,0,0-6.51,3,28.8,28.8,0,0,0-5.73,4.07l0,0A1.37,1.37,0,0,1,373,59.44Z"/><path class="cls-16" d="M412.75,85.23c3.6,7.28,6.72,14.74,9.69,22.25.18.49.34.9.52,1.47s.37,1.16.48,1.75a16.17,16.17,0,0,1,.31,3.61,17,17,0,0,1-1.66,6.91,16.35,16.35,0,0,1-4.19,5.52c-.43.38-.91.7-1.36,1s-1,.6-1.46.88-1,.48-1.53.71l-.79.27-.4.13-.2.06-.1,0,0,0h0c-.23-.57.5,1.27-.52-1.27a12.89,12.89,0,1,1-.5-1.28h0l0,0,.07,0,.15-.09.29-.19.58-.36,1.08-.83c.32-.32.67-.6,1-.91s.61-.64.88-1a13.81,13.81,0,0,0,2.41-4.52,12.94,12.94,0,0,0,.49-4.91,15.44,15.44,0,0,0-.44-2.38c-.09-.39-.24-.77-.35-1.15s-.32-.93-.47-1.39c-2.44-7.7-4.72-15.45-6.52-23.38a1.38,1.38,0,0,1,2.58-.92Z"/><path class="cls-16" d="M376,123.45a47,47,0,0,0,5.8,3.81,41.83,41.83,0,0,0,6.21,2.85c2.1.79,4.11,1.89,6.33,2.54,1.09.41,2.22.66,3.35,1s2.31.5,3.5.83l.14,0a1.39,1.39,0,0,1-.14,2.71,28.64,28.64,0,0,1-7.85.34,23.3,23.3,0,0,1-7.77-1.87,29.67,29.67,0,0,1-6.64-4.44,23.72,23.72,0,0,1-5.1-6.13,1.38,1.38,0,0,1,2-1.77Z"/><path class="cls-16" d="M379.37,94.65a14.08,14.08,0,0,1,2.14-2.31,16.45,16.45,0,0,1,2.54-1.84,15.31,15.31,0,0,1,6.25-2.08,8.48,8.48,0,0,1,1.73,0c.58.09,1.15.2,1.71.34a14.53,14.53,0,0,1,3.12,1.42,12.55,12.55,0,0,1,2.59,2,7.56,7.56,0,0,1,1,1.21c.31.42.63.83.91,1.26a1.39,1.39,0,0,1-1.7,2l-.24-.1c-.84-.36-1.57-.82-2.34-1.11-.39-.14-.77-.28-1.13-.43a7.09,7.09,0,0,0-1.12-.3,11,11,0,0,0-2.17-.3c-.73,0-1.4,0-2.12,0A15.63,15.63,0,0,0,386,95a33.33,33.33,0,0,0-4.8,1.68l-.16.07a1.39,1.39,0,0,1-1.67-2.1Z"/><path class="cls-16" d="M449.48,547.3l2.61-9.1,2.08-9.27c1.21-6.23,2.38-12.46,3.25-18.76l.73-4.71.63-4.73c.4-3.16.87-6.3,1.21-9.46l1-9.49,1-9.5c.65-6.33,1.28-12.67,2-19l1-9.51.91-9.52q1.74-19,3.21-38.14h0a1.37,1.37,0,0,1,2.74.1c0,12.82-.35,25.61-1,38.41l-.5,9.59-.62,9.59c-.19,3.2-.46,6.39-.75,9.58l-.42,4.79-.55,4.78Q465.85,492,462.25,511c-2.51,12.59-5.3,25.22-10.21,37.25a1.37,1.37,0,0,1-2.58-.89Z"/><path class="cls-16" d="M255,530.16a270.53,270.53,0,0,0,12.28-26.32c1.83-4.48,3.56-9,5.11-13.58.81-2.28,1.51-4.58,2.25-6.88.37-1.15.68-2.31,1-3.47s.63-2.27,1-3.53a44.51,44.51,0,0,1,6.87-13.81,45.69,45.69,0,0,1,11.18-10.7,45,45,0,0,1,29.7-7.5,44.2,44.2,0,0,1,27.61,13.35,45.16,45.16,0,0,1,12.57,27.78,29.87,29.87,0,0,1,.14,3.86l0,1.93,0,1-.07.92c-.2,2.44-.37,4.89-.59,7.33-.44,4.88-1,9.76-1.62,14.63s-1.38,9.73-2.36,14.56c-.5,2.41-1,4.82-1.65,7.22-.3,1.2-.64,2.39-1,3.59a38.08,38.08,0,0,1-1.27,3.63,1.37,1.37,0,0,1-2.56-1l0-.11c.35-1,.7-2.19,1-3.33s.56-2.32.8-3.5c.5-2.35.89-4.73,1.27-7.12.72-4.78,1.29-9.59,1.74-14.41s.77-9.67,1.08-14.51c.15-2.42.25-4.85.37-7.27l0-.91v-2.59a25.57,25.57,0,0,0-.23-3.43A40.07,40.07,0,0,0,336.87,454a41.89,41.89,0,0,0-13-3.64,40.71,40.71,0,0,0-13.5.81,39.78,39.78,0,0,0-12.5,5.3,40.3,40.3,0,0,0-10.05,9.22,40.93,40.93,0,0,0-6.38,12.12c-.4,1-.76,2.3-1.15,3.45s-.74,2.35-1.16,3.51c-.82,2.32-1.62,4.66-2.51,7-1.72,4.61-3.63,9.15-5.62,13.64s-4.16,8.9-6.41,13.26-4.6,8.65-7.18,12.88A1.37,1.37,0,0,1,255,530.2Z"/><path class="cls-14" d="M688,29.28A84.51,84.51,0,0,1,520,42C567.91,6.36,634.55,1.87,688,25.84,688,27,688,28.13,688,29.28Z"/></svg>