<svg id="Layer_1" data-name="Layer 1" xmlns="http://www.w3.org/2000/svg" viewBox="0 0 960 560"><defs><style>.cls-1{fill:#707aba;}.cls-2{fill:#ffe7c2;}.cls-3{fill:#ffd99e;}.cls-4{fill:#00b09e;}.cls-5{fill:#009989;}.cls-6{fill:#5b68ba;}.cls-7{fill:#ffefd1;}.cls-8{fill:#ba643c;}.cls-9{fill:#ba5425;}.cls-10{fill:#233940;}</style></defs><title>home, house, coat, hanger</title><path class="cls-1" d="M618.68,162.48c-4.61-41.36-40.88-75.11-74.48-71.36S488.85,127.81,496,172c6.62,41.09,37.93,71.45,71.54,67.7S623.29,203.84,618.68,162.48Z"/><path class="cls-2" d="M592.56,432.74a190.6,190.6,0,0,1-36.14,43c-2.33,2.09-4.74,4.13-7.22,6.15s-4.81,3.82-7.31,5.67q-8,6-17,11.47l-.62.38a249,249,0,0,1-22.11,11.91q-10.74,5.13-22.59,9.54-2.18.81-4.31,1.56c-52.32,18.55-104.43-3.17-132-43.06a112.57,112.57,0,0,1-16.82-91.12c23.49-98.44,12.14-131.07-17.06-254-14.51-61,14.36-113.8,79.88-120.19,31.07-3,60.18,5.62,79.88,30.92,11.79,15.16,19.55,32.93,26,51.25,5.3,15.07,9.69,30.53,14.69,45.21,13.72,40.28,33,79.14,59.43,112.55a284.78,284.78,0,0,0,22.23,25C622.6,310.11,627.75,375.08,592.56,432.74Z"/><path class="cls-3" d="M569.32,254c-.81.12-1.63.23-2.45.32a61.74,61.74,0,0,1-15-.16,69,69,0,0,1-27.61-10.12V185.72h-26s-5.87-11.2-20-22c-2.78-27.61,3.84-51.14,16.88-67.43,5.3,15.07,9.69,30.53,14.69,45.21C523.61,181.75,542.88,220.61,569.32,254Z"/><path class="cls-3" d="M480.68,178.45c12.08,11.7,22.45,28.4,27.24,52.23C495,217.31,485.27,199.17,480.68,178.45Z"/><path class="cls-3" d="M592.56,432.74a190.6,190.6,0,0,1-36.14,43c-2.33,2.09-4.74,4.13-7.22,6.15s-4.81,3.82-7.31,5.67q-8,6-17,11.47l-32.62,15.35L418.13,129.33S465,160.39,487,237.72C487,237.72,578.72,301,592.56,432.74Z"/><path class="cls-4" d="M649,259.05c-13.33,14.67-30.58-7.08-30.58-7.08-36.41,1.44-59.74,24.38-74.09,47.37a177.23,177.23,0,0,0-20,46.78v153.6l-.55-.13-13.62-3.2V246.19a138.36,138.36,0,0,0-2.22-15.51c-4.79-23.83-15.16-40.53-27.24-52.23a96.81,96.81,0,0,0-34.06-21.06,109.1,109.1,0,0,0-24.22-5.9c-3.11-.37-4.92-.42-4.92-.42L415,143.72q3,0,6,.14a116.83,116.83,0,0,1,15.44,1.71,95.59,95.59,0,0,1,41.95,18.12c14.12,10.83,20,22,20,22h26V321.45a151.58,151.58,0,0,1,14.28-30.26c25-40,58.56-43.07,69.72-44.14a94.05,94.05,0,0,0,13-2.35,166.9,166.9,0,0,0,18.29-5.65S662.31,244.39,649,259.05Z"/><path class="cls-5" d="M524.31,185.72v58.34a85.6,85.6,0,0,1-16.39-13.38c-4.79-23.83-15.16-40.53-27.24-52.23-.51-2.28-1-4.6-1.33-6.94q-.64-4-1-7.82c14.12,10.83,20,22,20,22Z"/><path class="cls-6" d="M649,259.05c-13.33,14.67-30.58-7.08-30.58-7.08s5.48-4,3-7.27a166.9,166.9,0,0,0,18.29-5.65S662.31,244.39,649,259.05Z"/><path class="cls-7" d="M567.51,239.74a50.41,50.41,0,0,1-12.22-.13c-28.7-3.74-53.51-31.53-59.32-67.57-7.13-44.24,14.61-77.18,48.22-80.93,27.75-3.09,57.3,19.37,69.35,50.57a83.11,83.11,0,0,1,5.13,20.79C623.28,203.83,601.12,236,567.51,239.74Z"/><path class="cls-1" d="M549.2,481.9a236.63,236.63,0,0,1-54,32.67q-7.51,3.32-15.54,6.3-2.18.81-4.31,1.56c-52.32,18.55-104.43-3.17-132-43.06,34.93-89.06,54-289.62,54.31-292.94v0l-.31-.08-1.61-.43a14.64,14.64,0,0,1-10.91-14.36c.3-19.27,3.65-55.19,24.83-47.8,28.67,10,56,111.33,56,111.33,18.62,15,33.2,38.89,44.57,66.06C542.42,378,549,481.05,549,481.05S549.07,481.34,549.2,481.9Z"/><path class="cls-5" d="M446.62,157.39a109.1,109.1,0,0,0-24.22-5.9l-1.47-7.63a116.83,116.83,0,0,1,15.44,1.71C439.56,148.94,443,152.87,446.62,157.39Z"/><path class="cls-5" d="M544.3,299.34a177.23,177.23,0,0,0-20,46.78V499.33l-.55.26-13.62-3.2V257.87c4.39,4.37,9.18,9.46,14.17,15.28v48.3a151.58,151.58,0,0,1,14.28-30.26Q541.44,295.12,544.3,299.34Z"/><path class="cls-6" d="M541.56,487.33a17.28,17.28,0,0,1-4.36,3.8,268.82,268.82,0,0,1-34.82,20.16c8-29.89,8.29-61.25,7.09-92.16-1.07-27.57-3.33-55.14-2.31-82.75.34-9.07,1-17.65,5.71-25.67,2.59,2.66,4.06,6.19,5.37,9.67,11.83,31.47,14.84,65.42,20.66,98.52,3.67,20.87,8.51,42.2,4.63,63a14.24,14.24,0,0,1-1.53,4.74Q541.79,487,541.56,487.33Z"/><path class="cls-8" d="M556.37,474.56a2.49,2.49,0,0,1-.83,2c-2.05,1.81-4.16,3.59-6.33,5.36a223.37,223.37,0,0,1-21.08,15.15A2.48,2.48,0,0,1,524.3,495c-.48-76-12.42-148.84-13.12-153.06a2.38,2.38,0,0,1,0-.4v-33.6a2.48,2.48,0,0,1,2.17-2.46h0a2.49,2.49,0,0,1,2.58,1.46C548.9,380.9,555.17,450.7,556.37,474.56Z"/><path class="cls-6" d="M489.48,388.38c-1.1,32.68-16.67,65.86-42.71,84.37-16,11.36-37.31,17.57-56.35,10.63-8-2.91-15.39-8.14-19.36-15.83-5.33-10.32-3.2-22.09.11-32.68,4.09-13.14,8.77-26,12.37-39.34s6.64-27,9-40.64a465.26,465.26,0,0,0,6.9-84.39,1.5,1.5,0,0,1,3,0c0,.94,0,1.87,0,2.81a1.88,1.88,0,0,1,.35,0,1.42,1.42,0,0,1,.88.28,1.46,1.46,0,0,1,2.31,1.21l-4,96.17c-.32,7.84-3.55,16.65-3.06,24.33,1,15.47,17.74,23.18,30.62,27.06,11,3.32,29.05,9.62,40.28,4.94,10.07-4.2,7.54-18.77,7.66-27.28.21-14.54-1.52-29.05-3.87-43.38A499.45,499.45,0,0,0,459,293.33c-2-6.78-4.22-14.2-1.54-20.76,1.85-4.53,5.82-7.92,10.2-10.08,2.15-1.06,4.59-1.88,6.93-1.35s4.4,2.85,3.88,5.19c-.73,3.27-5.08,3.8-7.92,5.59-5.42,3.41-5,11.32-3.85,17.62,3.57,19.57,7.81,39.16,15.52,57.49A98.28,98.28,0,0,1,489.48,388.38Z"/><path class="cls-8" d="M398.28,401.43s-1,22.62,15,26.29,48.33,7.67,60,6.33c0,0-5,34.33-35.33,37.67-15.58,1.71-30.19-1.41-40.72-4.86-9.29-3-17.68-13.54-11.72-21.29C393.64,435.06,398.28,401.43,398.28,401.43Z"/><path class="cls-8" d="M465.63,235s0,0,0,0a256,256,0,0,0-40.57-33.9,153,153,0,0,0-27.42-14.71l-.31-.12c-1.71-.68-3.44-1.32-5.17-1.89a14.58,14.58,0,0,1-7.35-12.9c.3-19.27,3.65-55.19,24.83-47.8,10.54,3.67,20.9,19.69,29.78,38.48,8.75,18.49,16.07,39.66,20.73,54.4,1.12,3.53,2.08,6.69,2.87,9.35.84,2.83,1.5,5.11,1.94,6.67,0,.13.07.25.11.37.19.7.34,1.23.44,1.58,0,.09,0,.17.06.23Z"/><path class="cls-8" d="M599.4,173.59l-.16-.61c-2.6,3.52-5.78,6.5-10,8-9.46,3.38-19.26-3.44-24.85-10.6a35.43,35.43,0,0,1,1.35-44.93H566a1.5,1.5,0,0,0,1.44-1.65,77.71,77.71,0,0,0-18.11,1.88c-1.86.46-3.64.82-5.4,1.31-11.71,18.08-9.36,43.16,7.08,57.85,7.18,6.41,17.37,10.69,27.21,9.36C588.81,192.78,597.86,184.28,599.4,173.59Z"/><path class="cls-3" d="M614.07,154.69l-.12,0a6.62,6.62,0,0,0-9,5.22c-1,6.65-1.47,12.92-4.56,19-3.65,7.18-9.15,12.26-16,16.2-8.64,4.94-21.62,4.78-30.2-.27-8.91-5.24-15.53-13.64-20.08-22.82-4.42-8.92-7.12-22.63-1.49-32a19.73,19.73,0,0,1,3.8-4.78c2-1.71-.3-4.79-2.43-3.3a18.73,18.73,0,0,0-4,3.86c-5.93,7.67-6.42,17.89-7.07,27.3-.66,9.59,1.41,19.28,7.75,26.55,6.59,7.55,16.27,12.3,21.47,20.87s4.94,19,3.59,28.83c14.68,2.32,30.1-2.84,41.32-12.6s18.35-23.75,21-38.38a85.75,85.75,0,0,0,.56-25.88q-.17-1.36-.39-2.7A6.62,6.62,0,0,0,614.07,154.69Z"/><path class="cls-3" d="M599.39,165.21a1.69,1.69,0,0,1-1.33,1.09c-1.1,0-1.55-1.38-1.71-2.47A28,28,0,0,0,587,146.9c-4.17-3.57-9-5.34-14.27-6.4-3-.6-4.79-.55-1.69-3.28,1.81-1.59,4.68-2.23,7-2.68a32.12,32.12,0,0,1,11.29-.5,16.52,16.52,0,0,1,9.88,5.15c2.9,3.35,3.94,8,3.69,12.44s-1.67,8.7-3.17,12.87A5.93,5.93,0,0,1,599.39,165.21Z"/><path class="cls-9" d="M465.64,235.05h0a256,256,0,0,0-40.57-33.9,1.51,1.51,0,0,1,1.64-.68l.22.06a13.78,13.78,0,0,0,17.48-15.65q-2-11.42-5-22.67c8.75,18.49,16.07,39.66,20.73,54.4,1.12,3.53,2.08,6.69,2.87,9.35.84,2.83,1.5,5.11,1.94,6.67,0,.13.07.25.11.37.19.7.34,1.23.44,1.58,0,.09,0,.17.06.23l.06.23Z"/><path class="cls-10" d="M522.72,545c.6-9.35,1.08-18.7,1.17-28.07s0-18.72-.44-28.07c-.76-18.7-2.57-37.36-4.69-56l-3.25-28-1.63-14c-.55-4.62-1.21-9.25-1.89-13.89-1.35-9.29-2.76-18.62-3.72-28.06a148.63,148.63,0,0,1-.62-28.7,64.72,64.72,0,0,1,2.86-14.47c.36-1.2.88-2.36,1.33-3.53s1-2.32,1.68-3.42a35.13,35.13,0,0,1,2-3.28c.72-1,1.47-1.95,2.21-2.93a96.42,96.42,0,0,1,9.74-10.78c1.81-1.59,3.56-3.26,5.43-4.78s3.71-3.07,5.69-4.43a153.41,153.41,0,0,1,51.62-24.28c2.3-.65,4.64-1.12,7-1.65,1.16-.29,2.36-.44,3.54-.66s2.38-.44,3.55-.59c4.7-.66,9.36-1.17,13.94-1.87,2.29-.35,4.56-.74,6.8-1.22.55-.12,1.13-.25,1.66-.38s1-.27,1.55-.44c1.05-.33,2.13-.73,3.23-1.14a53,53,0,0,1,7-2.22,14.78,14.78,0,0,1,8.06.16,11.39,11.39,0,0,1,3.68,2.23,12.47,12.47,0,0,1,2.49,3.37,15.33,15.33,0,0,1,1.51,7.81,14.25,14.25,0,0,1-.79,3.93,13,13,0,0,1-1.9,3.58,16,16,0,0,1-6.1,4.91,17.29,17.29,0,0,1-7.55,1.66,18.09,18.09,0,0,1-7.47-1.75c-4.61-2.21-8.05-5.77-11.36-9.06a1.37,1.37,0,0,1,1.92-2c3.38,3.23,6.75,6.44,10.72,8.21a14.17,14.17,0,0,0,12.24-.2,12.65,12.65,0,0,0,4.68-3.94,9.29,9.29,0,0,0,1.35-2.64,10.61,10.61,0,0,0,.53-3,11.55,11.55,0,0,0-1.22-5.84,8.6,8.6,0,0,0-1.71-2.24,7.49,7.49,0,0,0-2.33-1.36,10.89,10.89,0,0,0-5.85.08,49.55,49.55,0,0,0-6.4,2.17c-1.09.42-2.21.86-3.39,1.26-.58.2-1.2.39-1.83.56s-1.18.29-1.77.44c-2.34.54-4.7,1-7,1.39-4.69.8-9.36,1.39-14,2.12-1.16.17-2.26.41-3.39.62s-2.25.39-3.37.69c-2.24.56-4.5,1-6.71,1.71a150.71,150.71,0,0,0-49.45,24.13c-1.88,1.33-3.58,2.86-5.37,4.29s-3.39,3.06-5.09,4.59a96.88,96.88,0,0,0-9.06,10.17c-.67.9-1.4,1.8-2,2.7a29,29,0,0,0-1.66,2.73c-.55.92-.94,1.93-1.41,2.9s-.83,2-1.13,3.07a59,59,0,0,0-2.63,13.11,151.41,151.41,0,0,0,.41,27.56c.84,9.26,2.13,18.53,3.39,27.85.63,4.66,1.24,9.34,1.75,14l1.48,14c1,9.34,2,18.68,2.91,28,1.82,18.72,3.34,37.52,3.8,56.38.26,9.43.12,18.86-.18,28.28s-1,18.83-1.81,28.21a1.37,1.37,0,0,1-2.73-.2Z"/><path class="cls-10" d="M508.78,284.72c-.26-7.83-.42-15.67-.63-23.5l-.23-11.75-.06-2.94-.12-2.87c0-1.91-.25-3.81-.43-5.71a93.83,93.83,0,0,0-5.09-22.22A98,98,0,0,0,492,195.44a105.66,105.66,0,0,0-14.6-17.4,93.78,93.78,0,0,0-28.59-18.57,96.41,96.41,0,0,0-22.13-6.06,109.76,109.76,0,0,0-11.53-1,1.37,1.37,0,0,1,0-2.74A112.77,112.77,0,0,1,427,150a96,96,0,0,1,23.38,5.23,98.35,98.35,0,0,1,11,4.87,94.21,94.21,0,0,1,35.6,32,97.09,97.09,0,0,1,15.17,45.4c.11,2,.25,4,.22,6v3l-.06,2.94-.23,11.75c-.2,7.83-.37,15.67-.63,23.5a1.37,1.37,0,0,1-2.73,0Z"/><path class="cls-10" d="M453.61,201.22c-2.24-6.13-4.42-12.28-6.94-18.28s-5-12-8-17.76a176.58,176.58,0,0,0-9.45-16.86c-1.72-2.71-3.58-5.31-5.49-7.86s-4-4.95-6.12-7.25L416,131.53c-.53-.43-1-.91-1.53-1.29a11.68,11.68,0,0,0-1.67-1.06c-.3-.15-.58-.33-.88-.45l-.93-.35a4.94,4.94,0,0,0-.95-.29l-1-.24-1-.13a4.75,4.75,0,0,0-1-.08l-1,0-1,.09-.5,0-.49.1-1,.19a13.58,13.58,0,0,0-6.78,4.23,11.87,11.87,0,0,0-1.21,1.66l-.55.88-.53,1c-.7,1.38-1.33,2.82-1.91,4.28a88.45,88.45,0,0,0-4.73,18.49,172,172,0,0,0-1.77,19.34h0a1.37,1.37,0,0,1-2.74,0,148.4,148.4,0,0,1,.51-19.85,86.43,86.43,0,0,1,4-19.71c.55-1.61,1.17-3.21,1.88-4.78l.54-1.18c.21-.41.45-.83.68-1.24a17.09,17.09,0,0,1,1.59-2.37,19.18,19.18,0,0,1,9.4-6.35,18.93,18.93,0,0,1,11.43.2l1.37.51c.45.18.88.43,1.31.64a17.79,17.79,0,0,1,2.48,1.54,27.46,27.46,0,0,1,2.19,1.9l1.76,1.86A99.61,99.61,0,0,1,434,145.39a168.12,168.12,0,0,1,9.17,17.7,261.11,261.11,0,0,1,13.07,37.31,1.37,1.37,0,0,1-2.6.84Z"/><path class="cls-10" d="M400.55,149.1c-.28,15.37-1,30.69-1.88,46s-2.17,30.61-3.6,45.89c-2.95,30.55-6.76,61-11.78,91.34l-1.93,11.36L379.24,355c-.69,3.78-1.46,7.54-2.24,11.3s-1.53,7.53-2.38,11.27c-3.2,15-6.86,30-10.8,44.8s-8.38,29.57-13.09,44.19-10.15,29-15.95,43.23a1.37,1.37,0,0,1-2.56-1v0q8-21.5,14.7-43.42c4.38-14.64,8.47-29.37,12.08-44.22,1-3.7,1.76-7.44,2.65-11.15s1.75-7.44,2.55-11.17l2.46-11.2L369,376.41q4.45-22.49,8.35-45.08c2.54-15.07,5-30.16,7.14-45.31s4-30.32,5.74-45.52,3.23-30.43,4.5-45.68,2.43-30.52,3.12-45.78v0a1.37,1.37,0,0,1,2.73.09Z"/><path class="cls-10" d="M470,264.38a21.09,21.09,0,0,0-6.68,3.13,12.13,12.13,0,0,0-4.25,5.5,17.53,17.53,0,0,0-1,7.12,40,40,0,0,0,1.12,7.49c.58,2.5,1.33,5,2.12,7.49s1.58,5.08,2.33,7.62q2.24,7.66,4.19,15.39c2.62,10.3,4.89,20.69,6.74,31.17s3.34,21,4.28,31.68a218.51,218.51,0,0,1,.69,32.12,129.87,129.87,0,0,1-1.91,16.1A85.06,85.06,0,0,1,473.28,445a65.46,65.46,0,0,1-3.46,7.55,50.9,50.9,0,0,1-4.61,7,40,40,0,0,1-5.87,6.1,42.22,42.22,0,0,1-3.39,2.58,40.44,40.44,0,0,1-3.69,2.14,39.23,39.23,0,0,1-7.9,3c-1.37.32-2.73.69-4.11.87-.69.1-1.38.23-2.07.32l-2.08.19a63.8,63.8,0,0,1-16.39-1l.24,0a87.09,87.09,0,0,1-14.32-2.49A53.45,53.45,0,0,1,392,465.9a26,26,0,0,1-5.91-4.74c-.46-.45-.82-1-1.24-1.5s-.74-1.08-1.07-1.64a21.34,21.34,0,0,1-1.55-3.56,12.73,12.73,0,0,1-.17-7.94,10.94,10.94,0,0,1,2.08-3.52,10.54,10.54,0,0,1,1.47-1.39,9.68,9.68,0,0,1,1.76-1.13,1.37,1.37,0,0,1,1.28,2.42l-.1.05a7.41,7.41,0,0,0-1.17.84,7.7,7.7,0,0,0-1.06,1.08,8,8,0,0,0-1.41,2.58,9.64,9.64,0,0,0,.4,6c1.37,4.11,4.69,7.07,8.55,9.28a49.69,49.69,0,0,0,12.73,4.68,83.21,83.21,0,0,0,13.59,2l.21,0h0a59.21,59.21,0,0,0,15.22.53l1.87-.21c.62-.09,1.23-.22,1.84-.33,1.24-.19,2.42-.55,3.63-.86a34.12,34.12,0,0,0,6.81-2.81,36.4,36.4,0,0,0,3.13-1.91c1-.75,2-1.43,2.87-2.28a34.51,34.51,0,0,0,5-5.4,45.37,45.37,0,0,0,4-6.3,59.53,59.53,0,0,0,3-6.92c3.46-9.55,5-19.87,5.66-30.21a236.52,236.52,0,0,0-.32-31.28c-1.53-20.91-5.14-41.7-9.76-62.23q-1.76-7.7-3.79-15.32c-.68-2.54-1.39-5.06-2.13-7.6s-1.43-5.17-2-7.84a43.35,43.35,0,0,1-.95-8.21,20.86,20.86,0,0,1,1.5-8.43,15.29,15.29,0,0,1,5.52-6.71,23.89,23.89,0,0,1,7.71-3.34,1.37,1.37,0,0,1,.74,2.63Z"/><path class="cls-10" d="M404.53,270.36c.48,4.92.84,9.81,1.11,14.72s.52,9.81.69,14.72q.45,14.73.32,29.48c-.15,9.83-.46,19.66-1.08,29.49s-1.38,19.64-2.49,29.43c-.27,2.45-.62,4.89-.93,7.33l-.51,3.66-.25,1.83-.12.91-.08.8A24,24,0,0,0,401,406a26.78,26.78,0,0,0,.36,3.21,21,21,0,0,0,2,6.12,23.28,23.28,0,0,0,3.74,5.29,22.82,22.82,0,0,0,5.17,3.93l1.45.75,1.52.61a14.8,14.8,0,0,0,1.56.5l.79.24.87.21c2.33.56,4.7,1,7.07,1.48a284.47,284.47,0,0,0,28.91,3.56c9.72.75,19.48,1.19,29.26,1.44h0a1.37,1.37,0,0,1,0,2.74c-9.82.22-19.65.26-29.5-.16a260.79,260.79,0,0,1-29.51-2.66c-2.45-.4-4.91-.8-7.35-1.31l-.92-.19-1-.26a19.07,19.07,0,0,1-2-.56l-1.91-.71c-.62-.28-1.23-.59-1.84-.88a28.3,28.3,0,0,1-6.6-4.77,29,29,0,0,1-4.88-6.54,26.84,26.84,0,0,1-2.77-7.7,25.72,25.72,0,0,1-.37-8.19l.1-1,.12-.91.24-1.81.47-3.62c.32-2.41.69-4.82,1-7.24q3.59-29,4.69-58.32.59-14.64.59-29.3c0-9.77-.12-19.56-.54-29.29v0a1.37,1.37,0,0,1,2.73-.19Z"/><path class="cls-10" d="M391.76,181.64a216.2,216.2,0,0,1,36.76,19.25A218.82,218.82,0,0,1,460.91,227c19.87,19.46,36,42.57,48.42,67.4,1.57,3.1,3,6.27,4.48,9.4s2.73,6.38,4.11,9.56,2.54,6.45,3.78,9.69,2.29,6.54,3.44,9.81A369.08,369.08,0,0,1,536,372.9,472.06,472.06,0,0,1,545.9,455a1.37,1.37,0,0,1-2.74.14c-2-27.35-5.63-54.57-12-81.16a394.87,394.87,0,0,0-11.5-39.28c-1.19-3.19-2.3-6.42-3.55-9.59s-2.47-6.35-3.8-9.48-2.66-6.27-4.09-9.35-2.82-6.19-4.34-9.23a277.33,277.33,0,0,0-20.52-35.21,235.7,235.7,0,0,0-25.92-31.4,217.54,217.54,0,0,0-66.76-46.3,1.37,1.37,0,0,1,1.07-2.52Z"/><path class="cls-10" d="M522.71,257.59c-.26-9-.42-18-.63-26.94l-.46-26.94-.33-26.94c-.08-8.82-1-18,.29-27.33a30.38,30.38,0,0,1,5.08-13.87,20.12,20.12,0,0,1,5.65-5.44,46.19,46.19,0,0,1,6.42-3.27A62.42,62.42,0,0,1,552.25,123a79.28,79.28,0,0,1,13.86-1.18,74.38,74.38,0,0,1,13.83,1.28,54.58,54.58,0,0,1,13.32,4.23,32.82,32.82,0,0,1,11.33,8.48A23.59,23.59,0,0,1,610,148.91a1.37,1.37,0,0,1-2.72.33v0A20.46,20.46,0,0,0,602,138.06,29.86,29.86,0,0,0,591.6,131a52.7,52.7,0,0,0-12.43-3.41,69.61,69.61,0,0,0-13-.77,77.27,77.27,0,0,0-12.91,1.51A56.9,56.9,0,0,0,541,132.17a40.37,40.37,0,0,0-5.5,3,15.08,15.08,0,0,0-3.92,3.92,21.21,21.21,0,0,0-2.61,5.26,30.25,30.25,0,0,0-1.41,6c-1.19,8.47-.68,17.37-.75,26.49l-.32,26.94-.46,26.94c-.2,9-.37,18-.63,26.94a1.37,1.37,0,0,1-2.73,0Z"/><path class="cls-10" d="M580.73,233.44a49.73,49.73,0,0,0,16.5-10A56.47,56.47,0,0,0,609,208.14c6.12-11.43,8.62-24.63,8-37.56a88.6,88.6,0,0,0-10.1-37.22,79.83,79.83,0,0,0-25.17-28.78,73.2,73.2,0,0,0-8.25-4.83,63.18,63.18,0,0,0-8.83-3.55,54.56,54.56,0,0,0-9.25-2,47.14,47.14,0,0,0-9.43-.37,49.17,49.17,0,0,0-9.32,1.45,51.28,51.28,0,0,0-8.86,3.28,49.28,49.28,0,0,0-8.07,5,48.33,48.33,0,0,0-7,6.42,56.31,56.31,0,0,0-5.83,7.61,67.77,67.77,0,0,0-4.55,8.5,76.44,76.44,0,0,0-3.26,9.13,83.31,83.31,0,0,0-2,9.53,87.62,87.62,0,0,0,3.53,38.77h0a1.37,1.37,0,0,1-2.6.88,88.11,88.11,0,0,1-4.88-40.18,87.12,87.12,0,0,1,1.87-10.1,80.88,80.88,0,0,1,3.23-9.79,72.33,72.33,0,0,1,4.66-9.25,61.23,61.23,0,0,1,6.13-8.42,53.4,53.4,0,0,1,7.56-7.24,51.93,51.93,0,0,1,8.84-5.69,56.76,56.76,0,0,1,9.82-3.83A54.88,54.88,0,0,1,545.61,88a53,53,0,0,1,10.55.22,56.26,56.26,0,0,1,10.3,2.16,69.27,69.27,0,0,1,9.75,3.85,78.35,78.35,0,0,1,9,5.32,83.82,83.82,0,0,1,26.66,31.23,92.92,92.92,0,0,1,10.06,39.61c.3,13.7-2.66,27.62-9.44,39.63a59.57,59.57,0,0,1-13,15.9A52.77,52.77,0,0,1,581.61,236a1.37,1.37,0,0,1-.91-2.58Z"/></svg>