<svg id="Layer_1" data-name="Layer 1" xmlns="http://www.w3.org/2000/svg" viewBox="0 0 960 560"><defs><style>.cls-1{fill:#7abcff;}.cls-2{fill:#eda671;}.cls-3{fill:#6ab2e6;}.cls-4{fill:#c3d9f7;}.cls-5{fill:#ed995a;}.cls-6{fill:#e76f6f;}.cls-7{fill:#e75353;}.cls-8{fill:#233940;}</style></defs><title>jog, run, exercise, activity</title><path class="cls-1" d="M694.47,450.64c-26.1,51-94,70.53-146.64,77.25-69.17,8.83-143.81,1-202.91-38.62A220,220,0,0,1,256.71,368c-21.22-74.55-.16-161.14,53-217.34,18.85-19.94,62.88-52.84,94.81-73.67,27.2-11.28,57.2-5.25,86,.78h.07a165.2,165.2,0,0,1,29,8.86,150.65,150.65,0,0,1,26.77,14.21,130.28,130.28,0,0,1,21.2,17.72c13.12-4.7,25.48-11,35.77-19.51,10.65,23.64,20.79,47.48,29.45,71.85,20.23,56.95,35.12,115.59,48.91,174.35C689.27,377.43,711.24,417.92,694.47,450.64Z"/><path class="cls-2" d="M700.77,415.07c-3,15.51-12.4,27.93-31.59,26.77-7.08-.43-14.09-3.27-18.84-8.42a4.31,4.31,0,0,1-4.46-3.51q-6.2-25.79-14.54-51a610.22,610.22,0,0,0-37.92-89.43,616.62,616.62,0,0,0-41.78-68.8c-.69-1-1.38-2-2.09-3-.71.3-2.53-.45-4.85-1.81-1.31-.76-2.79-1.73-4.34-2.82-7-4.9-15.19-12.23-15.11-14.79a64.82,64.82,0,0,1,.92-8.95c6.86-40,49.8-64.21,88.54-80.81l1.31-1.74c1.93-2.57,6.83-3.77,8.48,0,17.57,40.06,33.48,81.18,45,123.41,15.32,56.06,30.74,112.78,32.3,170.87A64.82,64.82,0,0,1,700.77,415.07Z"/><path class="cls-3" d="M763.63,470.91c-4.69,8.18-15.32,10.38-24.69,11.33-22.93,2.34-45.57,1.53-68.51.64-5-.19-10.13-1-14.1-4-3.53-2.64-6-6.54-7.71-11a328.89,328.89,0,0,0,50.06,4c10.26,0,20.54-.39,30.76-1.36a130,130,0,0,0,28.63-5.51q3.71-1.23,7.29-2.79A14.39,14.39,0,0,1,763.63,470.91Z"/><path class="cls-4" d="M765.35,462.26q-3.57,1.57-7.29,2.79a130,130,0,0,1-28.63,5.51c-10.22,1-20.5,1.4-30.76,1.36a328.89,328.89,0,0,1-50.06-4q-.27-.71-.52-1.43c-3.37-9.85-3.81-20.9-3.45-31.22a8.36,8.36,0,0,1,.46-2.91,4.5,4.5,0,0,1,5.09-2.55,4,4,0,0,1,3.5.42,29.92,29.92,0,0,0,23.69,3.62c7.57-2,17.88-8.13,16.89-17.18-.44-4.06,5.12-5.66,7.67-3.18a183.87,183.87,0,0,0,36.41,27.7c4,2.33,8.24,4.31,12.37,6.43,1.42.73,2.83,1.47,4.22,2.25,4.42,2.47,8.76,6,10.22,11v0C765.24,461.34,765.31,461.8,765.35,462.26Z"/><path class="cls-5" d="M629.89,118.38a32.76,32.76,0,0,1-2.15,3.27c-8.14,10.9-21.58,17.3-27,30.25-6.09,14.51-3.56,31.69-2.19,46.87a796.82,796.82,0,0,0,17.86,110c1.27,5.42-6,8.58-9,3.77l-14-23.12c-15-24.65-27.95-54.92-49.43-74.62-11.21-10.27-20.73-20.88-14.66-37.19,4.24-11.39,11.61-21.28,20.27-29.7,9.26-9,20.05-16.36,31.21-22.8,7.88-4.55,28.78-9.83,33.91-16.64l1.31-1.74c1.93-2.57,6.83-3.77,8.48,0S628,114.41,629.89,118.38Z"/><path class="cls-2" d="M548.53,194c-.55,1.82-1.4,7.34-1.92,9.17-6.86,24.26-13.06,46.47-25.38,68.7-25.09,45.31-63.29,82-117.54,84.92-56.67,3-115.36-40.37-135.47-92.55-8.94-23.19.48-39.12,20.38-51.71,6-3.78,9.93-2.11,14,3.08a124.38,124.38,0,0,0,9.94,11.17,126.81,126.81,0,0,0,20,16.35c.77.51,1.54,1,2.32,1.48h0l2,1.24c.5.29,1,.58,1.51.86.79.45,1.58.88,2.38,1.3q3.64,1.92,7.4,3.47l1.13.45c15.2,6,31.27,6.7,45.43-2.79a48.9,48.9,0,0,0,5.4-4.2,31.6,31.6,0,0,0,3.6-3.86s0,0,0,0c8.2-8.17,13.15-19.8,11.8-34.67s-15.89-42.66-16.8-44.38a12.6,12.6,0,0,1,.49-1.34c2.81-6.81,10.4-11.57,17.54-13.56,8.58-2.4,17.72-1.76,26.54-.42,19.11,2.88,37.77,8,56,14h0s0,.18,0,.2c5.51,1.87,11,3.93,16.43,6,8.06,3,24.47,6.17,30.35,12.84C550.25,184.29,550.07,188.86,548.53,194Z"/><path class="cls-5" d="M526,184.53c-17.11,1.13-31.16,13.37-43.79,25l-42,38.53c-5.46,5-10.93,10-17.06,14.18a75.91,75.91,0,0,1-58.7,11,73.75,73.75,0,0,1-49.9-41.13c-.76-1.72-1.46-3.49-2.08-5.27a126.81,126.81,0,0,0,20,16.35l2.32,1.48h0l2,1.24c.5.29,1,.58,1.51.86.78.44,1.58.88,2.38,1.3q3.64,1.92,7.4,3.47l1.13.45c17.81,6.77,40.69,2.81,54.43-10.85,0,0,0,0,0,0,8.2-8.17,13.15-19.8,11.8-34.67s-15.89-42.66-16.8-44.38l0-.08c.16-.43.33-.85.53-1.26a23.83,23.83,0,0,1,10.79-10.85l89.33,10.89h0s0,.18,0,.2A123.79,123.79,0,0,1,526,184.53Z"/><path class="cls-3" d="M285.3,186.4a93.24,93.24,0,0,0-24,13.41c-10.78,8.15-20.15,18-29.46,27.79-8.76,9.21-17.7,18.69-22.77,30.35-4.22,9.7-5.29,21.36-1.17,30.89a19.88,19.88,0,0,1-2.09-.81c-8-3.65-11.8-12.46-11.2-20.94.73-10.06,7.17-18.16,13.7-25.35,15.54-17.1,31.67-33.87,48.52-49.69,7.11-6.67,15.8-11.53,25.51-7.22A21.71,21.71,0,0,1,285.3,186.4Z"/><path class="cls-4" d="M298.73,215.16a54.89,54.89,0,0,0-23.94,19.66,53.81,53.81,0,0,0-6.4,12.83c-.82,2.46-1.08,5.16-1.94,7.57-1,2.84-4.46,4.72-6.72,6.53-9.08,7.24-17.92,15.1-27.49,21.7-5.15,3.56-11.39,6.26-17.65,6.35a20.42,20.42,0,0,1-6.66-1c-4.12-9.52-3.06-21.19,1.17-30.89,5.07-11.66,14-21.14,22.77-30.35,9.31-9.8,18.68-19.64,29.46-27.79a93.24,93.24,0,0,1,24-13.41,24.67,24.67,0,0,1,5.87,5.25c3.75,4.54,6.21,10.24,8.45,15.77a2.94,2.94,0,0,1,.17.59C301.8,210.17,302.13,213.7,298.73,215.16Z"/><path class="cls-6" d="M643.51,92.9c0,.13-.08.25-.13.38a8.87,8.87,0,0,1-1,1.82,22.21,22.21,0,0,1-3.52,3.74c-24.43,22.09-49.44,44.56-79.68,57.62a14.26,14.26,0,0,0-5,3c-1.92,2-1.53,4.82-.93,7.32-2.27,8.65,0,22.88-4.54,32.63-.06.14-.13.27-.19.4-.85,1.71-8.65-3.8-10.1-4.59-4.37-2.4-8.81-4.69-13.37-6.72-8.77-3.91-18-6.9-27.66-7.7-13.72-1.14-27.37,2.18-41.08,3.44a137.78,137.78,0,0,1-37.65-1.76c-10.42-1.93-25.37-4.2-32.28-13.17-10.5-13.61-12.76-34.77-9.15-51.83C382,94.82,399,77,420.1,68.23c12.56-5.24,25.5-6.36,38.58-5.42,4.51.33,9,.89,13.56,1.62a164.59,164.59,0,0,1,38.48,11.4,216.4,216.4,0,0,1,28.41,14.84c2.35,1.46,4.69,3,7,4.5l.26.18q2.5,1.89,4.94,3.9a31.12,31.12,0,0,0,4.62,3.17,30.26,30.26,0,0,0,8.38,3.2,38.75,38.75,0,0,0,11.95,1.55c11.06-.37,21.34-6.13,29.55-13.55,5.91-5.34,15.06-14.63,13.3-23.45a11.63,11.63,0,0,0-4.43-6.82c.65-1.47,5.07,4.21,6.67,5.34,3.91,2.76,7.38,8.57,11.26,11.44,1.73,1.29,3.62,2.34,5.42,3.52C641.2,85.71,644.91,88.64,643.51,92.9Z"/><path class="cls-7" d="M629.43,85.09a6.84,6.84,0,0,1-.07,1.09C628.25,94,617.64,103,612.2,108.08a98.47,98.47,0,0,1-25.95,17.74c-9,4.17-16.94,7.45-24.29,14.22-8.25,7.59-9.05-1.73-12.79-8.77-8.15-15.37-21.6-27.41-37.3-34.73-16.67-7.76-32.85-8.06-50.75-8-18.9.1-40.14,1.38-55.34-12,5.86-8,22.5-11.31,31.83-12.64,10.05-1.43,20.24-1.09,30.33-.33,26.39,2,53.34,16.37,75.25,31.42,4.43,3,10.93,6.2,15.68,8.71,21.87,11.58,45.64-6.39,56.49-19,1.14-1.33,1.79-3,3-4.32C622.48,75.94,629.33,79.59,629.43,85.09Z"/><path class="cls-3" d="M247.44,226.17a37.69,37.69,0,0,0-14.22-10.09c-1.59-.65-2.29,1.93-.71,2.58a34.89,34.89,0,0,1,13,9.4C246.69,229.36,248.57,227.46,247.44,226.17Z"/><path class="cls-3" d="M237.82,240.3c-4.21-4.74-11.23,2.12-7,6.84a22.48,22.48,0,0,1,4,23.14c-2.21,5.92,7.26,8.51,9.46,2.63A32.23,32.23,0,0,0,237.82,240.3Z"/><path class="cls-3" d="M255,237c-1.57-6.09-11.2-4.18-9.62,2a33.21,33.21,0,0,1-2.63,24.24c-3,5.52,5.13,11.08,8.12,5.52A43.33,43.33,0,0,0,255,237Z"/><path class="cls-8" d="M588.47,29.94a40.89,40.89,0,0,0,7.7,16.71,39.38,39.38,0,0,0,6.41,6.6c.59.5,1.2,1,1.82,1.4a21.25,21.25,0,0,0,1.87,1.25c1.3.79,2.7,1.52,4.12,2.3,2.82,1.57,5.9,3.26,8.3,6.21a12.57,12.57,0,0,1,2.5,5.16,15.14,15.14,0,0,1,.09,5.63,20.1,20.1,0,0,1-1.65,5.13,30.72,30.72,0,0,1-2.58,4.5,56.12,56.12,0,0,1-6.48,7.68,66.33,66.33,0,0,1-15.82,12.13,48,48,0,0,1-9.43,3.85A39.47,39.47,0,0,1,575.12,110a47.18,47.18,0,0,1-19.79-4.6,105.58,105.58,0,0,1-17-10c-5.21-3.7-10.46-7.08-16-10.21a175.06,175.06,0,0,0-16.92-8.43,144.85,144.85,0,0,0-36.22-10.43A122.69,122.69,0,0,0,450.39,65a91.53,91.53,0,0,0-18.66,2.12c-12.2,2.78-23.94,8.22-33.22,16.73h0a1.37,1.37,0,0,1-1.88-2,69.17,69.17,0,0,1,15.84-11.59,80.31,80.31,0,0,1,18.36-7,95.77,95.77,0,0,1,19.47-2.72c3.27-.12,6.55-.11,9.81.05s6.53.42,9.78.8a145.09,145.09,0,0,1,37.8,10,157,157,0,0,1,17.65,8.48q4.28,2.39,8.41,5c2.74,1.75,5.47,3.66,8.05,5.5a109,109,0,0,0,16,9.69,41.52,41.52,0,0,0,17.34,4.37,34,34,0,0,0,8.8-1.14,42.71,42.71,0,0,0,8.41-3.28,63.24,63.24,0,0,0,14.81-11,51.44,51.44,0,0,0,6.09-6.87,26.16,26.16,0,0,0,2.3-3.78,15.64,15.64,0,0,0,1.4-4,10.77,10.77,0,0,0,.05-3.93A8.26,8.26,0,0,0,615.38,67c-1.62-2.13-4.22-3.76-6.95-5.34-1.37-.8-2.79-1.6-4.21-2.52a25,25,0,0,1-2.08-1.49c-.66-.51-1.32-1-1.94-1.6a42.9,42.9,0,0,1-6.74-7.4,43.94,43.94,0,0,1-7.69-18.22,1.37,1.37,0,0,1,2.68-.51Z"/><path class="cls-8" d="M427,49.93a96,96,0,0,0-36.2,37,94.2,94.2,0,0,0-11.5,50.14c.1,2.16.29,4.32.54,6.47s.52,4.37.86,6.49a33.67,33.67,0,0,0,3.78,11.72,26,26,0,0,0,8.34,8.63,38.92,38.92,0,0,0,5.47,3c1.9.88,4,1.58,6,2.36a96.84,96.84,0,0,0,25.3,5.28,171.1,171.1,0,0,0,26.17,0c8.79-.66,17.57-1.56,26.28-2.81s17.36-2.87,25.9-4.93a234,234,0,0,0,49.44-18,290.35,290.35,0,0,0,84.19-63.34,1.37,1.37,0,0,1,2,1.83,286.56,286.56,0,0,1-84,65.94,232.46,232.46,0,0,1-50.29,19.18,259.62,259.62,0,0,1-26.42,5.32c-8.88,1.34-17.8,2.26-26.74,2.87a165.3,165.3,0,0,1-27.11-.18,102.53,102.53,0,0,1-26.69-5.91c-2.12-.85-4.25-1.59-6.38-2.6a44.33,44.33,0,0,1-6.18-3.47,31.34,31.34,0,0,1-9.89-10.5,38.73,38.73,0,0,1-4.26-13.54c-.34-2.27-.59-4.51-.81-6.74s-.38-4.54-.45-6.82a98,98,0,0,1,51.28-89.72A1.37,1.37,0,0,1,427,49.93Z"/><path class="cls-8" d="M401.53,165.19c5.93,10.25,11.83,20.87,14.91,32.77a59.54,59.54,0,0,1,2,18.36,44.57,44.57,0,0,1-4.83,18.18,41.36,41.36,0,0,1-12.48,14.27A49.09,49.09,0,0,1,384,256.65a56.26,56.26,0,0,1-18.61,1.25,72.07,72.07,0,0,1-17.93-4.14l-.29-.12a2.19,2.19,0,0,0,1,.23l-.77-.13a92.72,92.72,0,0,1-17.83-8.86,143.52,143.52,0,0,1-15.84-11.73,1.37,1.37,0,0,1,1.7-2.16,158.09,158.09,0,0,0,16.13,10.55A95.73,95.73,0,0,0,349,249.25l-.77-.13a2.6,2.6,0,0,1,1.1.27l-.29-.12a68.56,68.56,0,0,0,16.8,3.23,50.53,50.53,0,0,0,16.7-1.64,47.74,47.74,0,0,0,15-7,37.09,37.09,0,0,0,11-12A39.18,39.18,0,0,0,413.25,216a58,58,0,0,0-1.2-17c-2.46-11.27-7.66-21.93-12.93-32.52a1.37,1.37,0,0,1,2.41-1.29Z"/><path class="cls-8" d="M616,87.73c2.54,5.49,5.13,10.94,7.82,16.37s5.33,10.89,7.92,16.41,5,11.15,7.27,16.81,4.51,11.28,6.62,17q1.63,4.26,3.13,8.56c1,2.86,2,5.74,2.94,8.63,1.92,5.77,3.81,11.54,5.6,17.35s3.46,11.65,5.14,17.5,3.33,11.69,4.94,17.54a1.37,1.37,0,0,1-2.61.84l0,0c-4.19-11.38-8.15-22.82-12.18-34.23l-6.32-17c-1.07-2.83-2.16-5.65-3.19-8.5s-2.1-5.67-3.12-8.52l-6.17-17.07c-2-5.68-4.22-11.26-6.52-16.84s-4.69-11.14-7.06-16.74-4.63-11.25-6.71-17a1.37,1.37,0,0,1,2.53-1Z"/><path class="cls-8" d="M546.67,212.61c11.14,14.45,21.88,29.24,31.78,44.63a415,415,0,0,1,26.67,48c7.69,16.66,14.28,33.7,20.75,50.76s12.73,34.15,19.39,51c1.67,4.21,3.39,8.45,5.12,12.58a31.94,31.94,0,0,0,3,5.43,29.28,29.28,0,0,0,4,4.64,28.42,28.42,0,0,0,5,3.62,29.46,29.46,0,0,0,5.63,2.39,25.66,25.66,0,0,0,6,1,22.11,22.11,0,0,0,6-.5,22.74,22.74,0,0,0,5.67-2,23,23,0,0,0,4.87-3.55,23.49,23.49,0,0,0,3.78-4.77,29.42,29.42,0,0,0,2.58-5.65,44.16,44.16,0,0,0,2-12.67,118.88,118.88,0,0,0-.66-13.35c-3.3-36.17-9.57-72.06-17-107.69a1.37,1.37,0,0,1,2.68-.6,879.81,879.81,0,0,1,19.26,107.79,123.63,123.63,0,0,1,.93,13.92,48.21,48.21,0,0,1-2,14.27,34.86,34.86,0,0,1-3,6.8,29,29,0,0,1-4.6,6,27,27,0,0,1-13.19,7.23,27.91,27.91,0,0,1-7.52.72,31.57,31.57,0,0,1-7.44-1.14,33.46,33.46,0,0,1-6.94-2.87,34.45,34.45,0,0,1-6.08-4.39,35.34,35.34,0,0,1-4.95-5.62,38,38,0,0,1-3.61-6.51c-1.78-4.28-3.45-8.49-5.13-12.76-13.29-34.05-24.27-68.84-39-102a410.56,410.56,0,0,0-25.58-47.93c-9.49-15.47-19.81-30.45-30.59-45.11a1.37,1.37,0,0,1,2.18-1.65Z"/><path class="cls-8" d="M645.78,441.17c.31,4.33.66,8.63,1.31,12.85a59.24,59.24,0,0,0,3.06,12.25c.34,1,.8,1.9,1.2,2.84a28.43,28.43,0,0,0,1.48,2.64,18.68,18.68,0,0,0,3.78,4.47c2.82,2.55,6.65,3.61,10.71,4q1.52.14,3.08.17l3.26.09,6.52.16q6.52.16,13,.23c8.67.1,17.32,0,25.94-.34q6.46-.26,12.91-.71c2.15-.14,4.29-.36,6.43-.52s4.2-.42,6.25-.76a32.53,32.53,0,0,0,11.34-3.73,15.91,15.91,0,0,0,4.22-3.61,9.3,9.3,0,0,0,.81-1.11,7.85,7.85,0,0,0,.69-1.15,10.8,10.8,0,0,0,.9-2.5,14.62,14.62,0,0,0-2-10.72,12.42,12.42,0,0,0-8.9-6,14.55,14.55,0,0,0-10.67,3.44,13.83,13.83,0,0,0-5.28,10.09h0a1.37,1.37,0,0,1-2.74,0,15.43,15.43,0,0,1,1.51-7,18.51,18.51,0,0,1,4.24-5.71,18.06,18.06,0,0,1,13.33-4.86,15.55,15.55,0,0,1,7.08,2.38,18,18,0,0,1,5.26,5.19,20,20,0,0,1,2.9,6.75,18,18,0,0,1,.16,7.48,15.86,15.86,0,0,1-1.18,3.67,12.48,12.48,0,0,1-.92,1.69,14.08,14.08,0,0,1-1.06,1.57,20.74,20.74,0,0,1-5.49,5,37.88,37.88,0,0,1-13.17,4.82c-2.24.44-4.47.75-6.68,1s-4.38.45-6.57.63-4.39.32-6.58.47-4.39.2-6.58.26c-8.78.3-17.54.1-26.27-.17q-6.55-.22-13.08-.54l-6.53-.32-3.27-.17c-1.13-.06-2.28-.17-3.42-.31a29.33,29.33,0,0,1-6.89-1.67,18.42,18.42,0,0,1-6.23-3.87,23,23,0,0,1-4.43-5.6,32.6,32.6,0,0,1-1.6-3.11c-.42-1.07-.9-2.12-1.23-3.21a61.6,61.6,0,0,1-2.67-13.16c-.48-4.41-.62-8.81-.67-13.17a1.37,1.37,0,0,1,2.73-.12Z"/><path class="cls-8" d="M718.16,454.16a13.82,13.82,0,0,1,.85-6.7,20.89,20.89,0,0,1,3.29-5.82,16,16,0,0,1,5.45-3.95,12.66,12.66,0,0,1,6.74-1.3,1.4,1.4,0,0,1,.38,2.68l-.13.05a16,16,0,0,0-4.33,2.82c-1.32,1.13-2.36,2.55-3.58,3.76a28.27,28.27,0,0,0-3.44,4,19.92,19.92,0,0,0-2.51,4.65l0,.11a1.39,1.39,0,0,1-2.69-.27Z"/><path class="cls-8" d="M701,448.26a29.2,29.2,0,0,1,3-6.12,37.46,37.46,0,0,1,4.2-5.42,23.36,23.36,0,0,1,5.69-4,20.76,20.76,0,0,1,6.68-2.28,1.4,1.4,0,0,1,1,2.54l-.05,0a41,41,0,0,0-4.75,3.83c-1.51,1.35-2.81,2.93-4.34,4.26s-3.1,2.68-4.61,4.12-3,2.92-4.51,4.44l0,0a1.4,1.4,0,0,1-2.31-1.44Z"/><path class="cls-8" d="M433.08,182.91a69.2,69.2,0,0,0,22.06-6.85,85,85,0,0,0,10-5.54,62.06,62.06,0,0,0,8.94-7.43h0a1.38,1.38,0,0,1,2.16,1.69,42.24,42.24,0,0,1-8,9.67,41.09,41.09,0,0,1-10.49,7.13,50.28,50.28,0,0,1-24.61,4.07,1.38,1.38,0,0,1-.07-2.73Z"/><path class="cls-8" d="M236.21,238.42a21.47,21.47,0,0,1,6.35,4.6,25.91,25.91,0,0,1,4.59,6.52,20.89,20.89,0,0,1,1.71,7.79,21.84,21.84,0,0,1-1,7.79,1.4,1.4,0,0,1-2.72-.3v0a35.73,35.73,0,0,0-1.24-6.69,62.05,62.05,0,0,0-2.34-6.12,33.07,33.07,0,0,0-2.86-5.91,37.18,37.18,0,0,0-4.1-5.43l0,0a1.39,1.39,0,0,1,1.62-2.2Z"/><path class="cls-8" d="M251.87,234.38c-.43-.26-.87-.52-1.29-.8l2.55-2.08a26.13,26.13,0,0,1,3.87,6l.73,1.64.62,1.69.53,1.72c.14.58.27,1.17.38,1.76a26.71,26.71,0,0,1-2.18,14,1.4,1.4,0,0,1-2.67-.62v0a54.67,54.67,0,0,0-.24-6.33c-.16-2.06-.65-4.06-1-6-.09-.5-.16-1-.21-1.5l-.22-1.51-.29-1.5-.33-1.5a50.11,50.11,0,0,0-1.87-6l-.21-.56a1.59,1.59,0,0,1,2.76-1.52c.3.4.6.81.89,1.23a1.4,1.4,0,0,1-1.86,2Z"/><path class="cls-8" d="M223.27,248.7a22.65,22.65,0,0,1,10.59,8.74,23.92,23.92,0,0,1,3.87,13.21,21.55,21.55,0,0,1-4.85,13,24.63,24.63,0,0,1-11.42,7.82,21.39,21.39,0,0,1-14-.3,24.48,24.48,0,0,1-11-8.49,22.47,22.47,0,0,1-4.34-13.33,29.61,29.61,0,0,1,3.62-13.38,66,66,0,0,1,7.57-11.13c2.81-3.43,5.67-6.68,8.54-10,5.77-6.57,11.66-13,17.74-19.34S241.9,203,248.32,197.06q4.82-4.47,9.78-8.79c.85-.72,1.61-1.43,2.53-2.17.47-.36.92-.75,1.41-1.09l1.47-1a26.07,26.07,0,0,1,6.53-3,20.7,20.7,0,0,1,7.3-.82,16.59,16.59,0,0,1,7.22,2.22,16,16,0,0,1,3,2.31c.43.45.91.92,1.29,1.35l1.09,1.3a54.4,54.4,0,0,1,4,5.54,32.19,32.19,0,0,1,3.13,6.35,17,17,0,0,1,1,7.54,12.68,12.68,0,0,1-3.44,7.21,20.27,20.27,0,0,1-6.11,4.24A41,41,0,0,0,271.13,235a33,33,0,0,0-3.9,11.37l-.2,1.48,0,1.48,0,1.48.13,1.47c0,.49.07,1,.13,1.47l.3,1.44c.1.48.18,1,.3,1.45l.45,1.53A114,114,0,0,0,278,281.71a129.62,129.62,0,0,0,14.58,21,149.1,149.1,0,0,0,39.31,32.49,140.58,140.58,0,0,0,47.93,17.17,114.11,114.11,0,0,0,25.41,1.24l6.38-.46,6.33-.86,1.58-.21,1.56-.31,3.13-.64,3.13-.63,3.08-.83,3.08-.84,1.54-.42,1.51-.52,6-2.09,5.89-2.47c1-.38,1.93-.89,2.89-1.36l2.86-1.42a129.7,129.7,0,0,0,21.41-13.92,148.38,148.38,0,0,0,18.45-17.82,173.24,173.24,0,0,0,15.51-20.56,232.87,232.87,0,0,0,12.77-22.47c3.81-7.75,7.21-15.7,10.29-23.78s5.75-16.32,8.13-24.65,4.45-16.75,6.16-25.24a328.85,328.85,0,0,0,4.79-103.5,1.37,1.37,0,0,1,2.72-.33,325.85,325.85,0,0,1,2.42,52.43,330.45,330.45,0,0,1-6,52.18c-1.64,8.61-3.67,17.15-6,25.6s-4.94,16.84-8,25.07-6.43,16.36-10.24,24.29a237.69,237.69,0,0,1-12.83,23.09A178.31,178.31,0,0,1,498,312.16a150.27,150.27,0,0,1-19,18.61,135.21,135.21,0,0,1-22.25,14.69l-3,1.51c-1,.5-2,1-3,1.44L444.64,351l-6.3,2.24-1.58.55-1.61.45-3.22.9-3.22.89-3.27.69-3.27.69-1.64.34-1.65.24-6.62.94-6.66.53a115.85,115.85,0,0,1-26.7-1.26,146.57,146.57,0,0,1-50-17.9A158.76,158.76,0,0,1,307,325.22a147.33,147.33,0,0,1-18.88-18.79,135.34,135.34,0,0,1-15.08-22A119.56,119.56,0,0,1,263,259.66l-.46-1.61c-.13-.57-.24-1.17-.36-1.75l-.34-1.76c-.07-.59-.1-1.19-.15-1.79l-.13-1.79.06-1.78c0-.59,0-1.19.07-1.78l.25-1.76a38.32,38.32,0,0,1,4.6-13.18A46.75,46.75,0,0,1,275,221.58a43.8,43.8,0,0,1,11.36-7.91,15.3,15.3,0,0,0,4.62-3.1,7.61,7.61,0,0,0,2.14-4.36,12.05,12.05,0,0,0-.7-5.31,27.35,27.35,0,0,0-2.61-5.37,49.57,49.57,0,0,0-3.62-5.06l-1-1.21c-.34-.39-.64-.67-1-1a11.15,11.15,0,0,0-2.14-1.65,13.56,13.56,0,0,0-10.76-1A21.38,21.38,0,0,0,266,188l-1.23.83c-.41.28-.78.61-1.18.91-.79.62-1.64,1.39-2.45,2.07q-4.94,4.22-9.73,8.62-9.59,8.78-18.68,18.11c-6.07,6.2-12,12.58-17.74,19.07-2.86,3.25-5.78,6.53-8.51,9.82a62.13,62.13,0,0,0-7.19,10.39,26.13,26.13,0,0,0-3.3,11.58,18.68,18.68,0,0,0,3.5,11.14,20.89,20.89,0,0,0,9.3,7.34,17.91,17.91,0,0,0,11.7.38,21.36,21.36,0,0,0,9.94-6.64,18.4,18.4,0,0,0,4.29-11A21,21,0,0,0,231.43,259a19.85,19.85,0,0,0-9.14-7.76h0a1.37,1.37,0,0,1,1-2.54Z"/><path class="cls-8" d="M246.45,228.07a70.93,70.93,0,0,0-18.22-12.57,108.44,108.44,0,0,0-10-4.6,76.18,76.18,0,0,0-10.75-3.1h0a1.38,1.38,0,0,1,.22-2.73,45.71,45.71,0,0,1,11.94,1,42.62,42.62,0,0,1,11.42,4,49.59,49.59,0,0,1,17.52,16.24,1.38,1.38,0,0,1-2.1,1.74Z"/><path class="cls-8" d="M690.9,452.93a44.28,44.28,0,0,1-10.47,4,50.15,50.15,0,0,1-11.23,1.35A47.4,47.4,0,0,1,647.12,453a45,45,0,0,1-16.55-15.58,45.84,45.84,0,0,1-7.31-21.13,1.37,1.37,0,0,1,2.71-.41h0a48.16,48.16,0,0,0,8.7,18.67A49.72,49.72,0,0,0,650,447.66a46.42,46.42,0,0,0,19.36,5.74,45.71,45.71,0,0,0,10.3-.37,47,47,0,0,0,10.09-2.59h0a1.37,1.37,0,0,1,1.14,2.49Z"/></svg>