<svg id="Layer_1" data-name="Layer 1" xmlns="http://www.w3.org/2000/svg" viewBox="0 0 960 560"><defs><style>.cls-1{fill:#ff8484;}.cls-2{fill:#1cb2e8;}.cls-3{fill:#ff6b6b;}.cls-4{fill:#ffbda5;}.cls-5{fill:#84cde8;}.cls-6{fill:#46bde8;}.cls-7{fill:#ffa685;}.cls-8{fill:#ffaf91;}.cls-9{fill:#ffca91;}.cls-10{fill:#ffbf7a;}.cls-11{fill:#ffb094;}.cls-12{fill:#233940;}</style></defs><title>make up, cover up, hide, hidden, people</title><path class="cls-1" d="M761.73,341c-19.94,35.6-48.58,67.69-76.93,92.21-75.27,65.12-175.48,87.48-272,89.61-22.33.49-67.35.71-92.2-14.08-14.7-8.75-22.34-22.75-14-45.06,87-234,28.46-261.44,51-333,40.9-129.81,213.1-113.8,344.87-19,23.33,16.79,44.21,36.81,60.46,59.8,2.4,3.41,4.68,6.91,6.79,10.51C800.52,234.53,789.65,291.23,761.73,341Z"/><ellipse class="cls-2" cx="394.09" cy="466.15" rx="80.11" ry="39.26" transform="translate(-162.55 215.65) rotate(-25.56)"/><path class="cls-1" d="M333.59,342.65C311.22,356.32,287.31,359,267,357.46a151.68,151.68,0,0,1-50.39-12.81,178,178,0,0,0,21.82-18.75,35.74,35.74,0,0,1-12.6-5,85.69,85.69,0,0,0-12.22,17.71s-24.36-13.18-34.21-40.54c-5.75-15.94-6.57-36.69,5.21-62.46A59.76,59.76,0,0,1,195,226.46c13.58-9.55,38.6-18.94,63.62,14.19,13.43,17.79,11.58,36.36,3.76,52.8-.64,1.36-1.33,2.71-2,4,11-3.61,24-4.89,39.29-1.84C359.59,307.65,333.59,342.65,333.59,342.65Z"/><path class="cls-3" d="M333.59,342.65C311.22,356.32,287.31,359,267,357.46a55.27,55.27,0,0,1-11.58-15.72c-3.06-6.2-4.28-12.71-5.66-19.43-1.8-8.69-5.34-15.36-12.34-20.92-6.65-5.27-14.19-9.51-21.33-14.07l-11.77-7.51L188.51,291.4l-9.13,6.71c-5.75-15.94-6.57-36.69,5.21-62.46A59.76,59.76,0,0,1,195,226.46c14.52,1.19,28.26,8.48,38.3,19.46,13.9,15.19,21,35.61,21.73,56a68.33,68.33,0,0,1,7.35-8.49c-.64,1.36-1.33,2.71-2,4,11-3.61,24-4.89,39.29-1.84C359.59,307.65,333.59,342.65,333.59,342.65Z"/><path class="cls-4" d="M651.26,347.44c0,99.86-204.67,54.65-204.67-7.46,0,0,3.52-.79,9-2.5.66-.2,1.34-.42,2-.66,1.24-.4,2.57-.85,4-1.34,14.39-5.14,35.52-14.93,46.37-30.77a38,38,0,0,0,7-21.85C514.93,259.13,651.26,247.59,651.26,347.44Z"/><path class="cls-5" d="M737.78,376.16c-35,50.22-86.32,87.95-142.79,111.61a428.57,428.57,0,0,1-79.59,24.31q-14.12,2.91-28.42,5a577.05,577.05,0,0,1-71.17,5.79c-24.93.54-50-.38-74.43-5.55-6-1.26-12.07-2.88-16.76-6.75-4.15-3.43-7.75-10.1-5.22-15.37,7.16,5.2,12.94,9.68,22.46,10.19,8.8.48,17.49-1.85,25.93-4.4,24.7-7.45,49.24-17.23,69-33.76,7.49-6.25,20.75-20.09,21.72-32.4a14.82,14.82,0,0,0-2.07-9.17c-2.84-4.62-7.91-7.17-14-8.27-16.75-3-41.41,4.8-49.86,10.61-1.57-2.76-.09,1.26-1.65-1.5a1.32,1.32,0,0,1-1.24-.73q-6-10.87-12.1-21.76l-6.06-10.87c-1.11-2-4.27-7.68-1.53-9.94,28.56-23.55,56.23-36,88.51-45.86a1.52,1.52,0,0,1,1.85,1c4.66,16.28,16.87,26.62,32.51,31.79a165.4,165.4,0,0,0,28.91,6.95c15,2.05,30.43,1.31,41.63-6.3,12.81-8.7,23.94-20.06,36.7-29.09.48-.34,1-.68,1.44-1A432.92,432.92,0,0,1,643,315c8.52-4.65,17.35-9.08,26.9-10.84s20-.57,27.84,5.2a77.86,77.86,0,0,0,16,45.93A75.8,75.8,0,0,0,737.78,376.16Z"/><path class="cls-6" d="M601.56,340.71c-.48.32-1,.66-1.44,1-12.76,9-23.89,20.39-36.7,29.09-11.2,7.61-26.66,8.35-41.63,6.3-17,17.61-37.07,46.15-63.77,34.16a30.46,30.46,0,0,1-16.63-19.09q-.18-.6-.31-1.18a8.14,8.14,0,0,0-15.15-2.17l-.1.19A120.23,120.23,0,0,0,416,413.89c-.53,1.94-.65,2.26-.21,3-.11-.19,8.44-1.59,9.24-1.73,7.83-1.37,17.94-1,25.36,2,7.74,3.19,11,9.35,10.46,17.35-.09,1.26-1,3.93-.6,5.07q4.31,12.49,8.63,25,8.69,25.11,17.38,50.21c.26.74.51,1.49.75,2.26q14.29-2.08,28.42-5a607.08,607.08,0,0,1-18.12-66.51c16.11-.81,32.79-.89,48.44-4.73a66.33,66.33,0,0,0,35.5-22.45C599.3,396.55,603.23,368.19,601.56,340.71Z"/><path class="cls-7" d="M626,314.12c-30.73-8.89-62.67-16.48-94.9-13.58a131.45,131.45,0,0,0-23.18,4.17c-9.25,13.51-26,22.61-39.62,28.19a37.25,37.25,0,0,0,8.63,5.79c4.15,2,7.86,2.18,12.36,1.47,3.35-.52,6.54-.87,9.88,0,4,1.08,6.43,4.43,9.38,7.17,3.11,2.88,10.16,2.74,14.18,3.08,5.09.43,9.18-1.09,14-2.38,3.67-1,9.68-3.36,13.1-.54s.17,6.82-2.34,8.8c-1.51,1.2-3.08,2.31-4.68,3.4a218,218,0,0,0-22.43,17.81,5.19,5.19,0,0,0-1.63,2.06c-1.47,4.36,10.09,5.22,12.57,5.74a94.15,94.15,0,0,0,21.81,2.07c13.92-.35,27.81-4.14,39.29-12.17,17.75-12.41,28.72-34,25.37-55.73a1.22,1.22,0,0,0-.48-.85c2.86-.68,5.75-1.25,8.7-1.65C627.54,316.8,627.3,314.49,626,314.12Z"/><path class="cls-4" d="M414.28,483.36a167.69,167.69,0,0,1-32.65,14c-14.81,4.55-33,11.29-48.56,7.12l-.21-.06c-15.51-4.29-15.1-20.09-14.37-33.32,1.26-22.71-4.28-45.57-17.72-64.15-28.18-38.94-85.59-35.74-111.25-76.37a96.21,96.21,0,0,1-14.12-38.23A190,190,0,0,1,178.2,269c2.47-13.35,8-31.46,25.2-30.06,9.06.74,11.94,7.21,16.4,15.14s11,17.16,11.76,26.23c4.24-3.32,10-4.42,12.65.25s3.78,14.57,5.34,19.72A31.63,31.63,0,0,0,267.19,320c11.72,5,25.25,2.4,37.72,5,15.66,3.27,28.46,14.42,39.14,26.34a261.18,261.18,0,0,1,27.68,37.58,459.89,459.89,0,0,1,23.52,44q1.74,3.67,3.43,7.38C405,454.22,410.75,468.59,414.28,483.36Z"/><path class="cls-8" d="M414.28,483.36a167.69,167.69,0,0,1-32.65,14c-14.81,4.55-33,11.29-48.56,7.12l-.21-.06a165.78,165.78,0,0,0,65.82-64.11C405,454.22,410.75,468.59,414.28,483.36Z"/><path class="cls-9" d="M694.52,325.5a26.63,26.63,0,0,0-2.93-4.13c-4.82-5.54-11.71-8.41-16.6-1.37-6,8.65-13.15,6.29-13.15,6.29s-11.26-9.82-16.52-3.54-9.39,5.9-15.4,5.9-10.14-14.15-18.77-9.82c-5.53,2.76-9,7.58-13.94,10.26a15.62,15.62,0,0,1-7.62,1.91c-1.62,0-16.16-2.88-13.56-5.84-15.94,18.1-26.85,7-30.86,4.61s-3.12-9.37-15.35,2.11-24.58,3.05-29.46-3.23-9.38-2-9.38-2c-12.77,10.19-23.67,2.76-28-1.48s-7.36,0-7.36,0c-9.8,10.3-22.5,5.42-27.24.77s-7.38,0-7.38,0c-25.64,17.74-28.5-8.78-28.5-8.78,24.6-111.41,12-213.78,12-213.78C511,124.83,574.71,77.18,574.71,77.18c55.34,39.57,114,25.82,114,25.82.8,95.68,31,211.9,31,211.9C722.31,330.22,699,333.36,694.52,325.5Z"/><path class="cls-2" d="M622.09,324.86S552.45,365.28,512,412.54s7,65,107.33,31.26S661.89,324.86,622.09,324.86Z"/><path class="cls-10" d="M694.63,273.84s-3,25.47-3,47.53c-4.82-5.54-11.71-8.41-16.6-1.37-6,8.65-13.15,6.29-13.15,6.29s-11.26-9.82-16.52-3.54-9.39,5.9-15.4,5.9-10.14-14.15-18.77-9.82c-5.53,2.76-9,7.58-13.94,10.26,0-3.9.12-7.8.21-11.7.73-30.69,6.16-64.37,26.46-88.67,4.27-5.11,8.14-8.76,7.22-16.1-1.41-11.14-14.21-21.56-25.48-19.79-10.3,1.61-5.56-14.61,1.39-15.3s30.6-5.56,62.59,9.73c0,0,10.74-14.21-1.44-29.47,0,0-1.44-17.55,5.25-19s7.22,10.19,7.22,10.19S709.75,199.26,694.63,273.84Z"/><path class="cls-11" d="M706.76,339.93c3,6.69,3.43,14.79,3,21.77a84,84,0,0,1-2.63,15.95S684.92,415,619.36,443.8c-.45.19-5-58.93-5.25-63.77q-.3-6.63-.5-13.25-.9-28.68-.22-57.38c.7-29.42,5.91-61.71,25.37-85,4.09-4.9,7.81-8.4,6.92-15.43-1.35-10.68-13.62-20.67-24.43-19-9.87,1.55-5.33-14,1.34-14.66s29.33-5.34,60,9.33c0,0,1.29-20.82-10.39-35.45,0,0-4.1-8.47,2.31-9.88s11.17,8.6,11.17,8.6,35.41,48.23,20.91,119.73C706.59,267.65,699.93,324.72,706.76,339.93Z"/><path class="cls-7" d="M709.72,361.7a84,84,0,0,1-2.63,15.95S684.92,415,619.36,443.8c-.45.19-5-58.93-5.25-63.77q-.3-6.63-.5-13.25c9,12.2,25.27,18.52,40.69,18C675,384,693.18,373.46,709.72,361.7Z"/><path class="cls-12" d="M618.23,468.76q-1.91-19.34-3.5-38.71t-2.62-38.79c-.71-12.95-1.22-25.91-1.42-38.91-.07-6.5-.12-13,.07-19.53s.45-13,.85-19.49c.18-3.25.44-6.5.69-9.75s.6-6.5,1-9.74c.69-6.5,1.79-13,3-19.4a192.51,192.51,0,0,1,4.85-19.11c.47-1.58,1.07-3.12,1.6-4.68l.82-2.33c.29-.77.62-1.53.93-2.3.64-1.53,1.25-3.06,1.91-4.58l2.17-4.47c.68-1.51,1.58-2.92,2.38-4.37a49.44,49.44,0,0,1,2.59-4.26l2.79-4.13a36.42,36.42,0,0,0,2.43-3.85,32.09,32.09,0,0,0,3.21-8.46,19.46,19.46,0,0,0,.09-8.73,14.53,14.53,0,0,0-4.22-7.32,13.8,13.8,0,0,0-3.52-2.5,17,17,0,0,0-4.12-1.5,17.47,17.47,0,0,0-4.4-.43c-.37,0-.73,0-1.12.06s-.89.07-1.35.06a10.9,10.9,0,0,1-2.84-.33,6.19,6.19,0,0,1-2.77-1.6,5.67,5.67,0,0,1-1.46-2.87,12.2,12.2,0,0,1,.45-5.46,1.37,1.37,0,0,1,2.66.69v0a9.57,9.57,0,0,0-.25,4.14,2.65,2.65,0,0,0,2.16,2.1,7.91,7.91,0,0,0,2,.14c.35,0,.71-.06,1.07-.09s.87-.1,1.3-.12a20.81,20.81,0,0,1,5.25.32,19.1,19.1,0,0,1,9.47,4.63,18.42,18.42,0,0,1,5.55,9.11,23.53,23.53,0,0,1,.19,10.52,36.38,36.38,0,0,1-3.4,9.72,40.84,40.84,0,0,1-2.64,4.42l-2.55,4a45.57,45.57,0,0,0-2.35,4.1c-.73,1.4-1.55,2.74-2.16,4.21l-2,4.31c-.6,1.46-1.14,3-1.72,4.43-.28.74-.58,1.47-.84,2.22l-.74,2.26c-.48,1.51-1,3-1.45,4.53a187.11,187.11,0,0,0-4.35,18.6,361.83,361.83,0,0,0-4.34,38.2c-.42,6.41-.79,12.88-1,19.29s-.33,12.85-.37,19.3c0,12.89.34,25.81.76,38.73s1,25.84,1.7,38.75,1.39,25.83,2.25,38.74a1.37,1.37,0,0,1-2.72.23Z"/><path class="cls-12" d="M574.1,68.67a134.45,134.45,0,0,1-37,25.9A163.52,163.52,0,0,1,494,107.93a222.39,222.39,0,0,1-45.07,2.76,286.49,286.49,0,0,1-44.81-5.3l2.44-2.2,1.72,17.59-4.16.4-1.71-17.56,4.25-.42c4.29,45.58,5.28,91.66.43,137.34v-.27l0,10.46a2.41,2.41,0,0,1,0,.42v0c-1.45,8.13-2.54,16.35-3.69,24.62s-2.39,16.58-4.23,24.84c-.89,4.12-2,8.26-3.24,12.26l-.47,1.49-.23.75a4.34,4.34,0,0,0-.14.61l-.12.56-.06.62a7.24,7.24,0,0,0,0,1.24,11.7,11.7,0,0,0,4.38,8.78c.31.27.67.45,1,.68s.7.37,1.06.51a7.31,7.31,0,0,0,1.13.35l.6.13.72.13a18.05,18.05,0,0,0,5.45.1,44.18,44.18,0,0,0,5.75-1.25l-.21.06a4.44,4.44,0,0,0,1.24-.79c.5-.41,1-.94,1.65-1.52a17.05,17.05,0,0,1,2.23-1.86,6.88,6.88,0,0,1,3.78-1.25l-.7.09a10,10,0,0,1,1.42-.21,7.42,7.42,0,0,1,1.38.07,7.18,7.18,0,0,1,1.26.28,7.39,7.39,0,0,1,1.12.41,18.43,18.43,0,0,1,3.51,2.11c1,.74,1.92,1.48,2.8,2.15a18.28,18.28,0,0,0,2.5,1.67l-.27-.12a9.21,9.21,0,0,0,4.58.56,15.79,15.79,0,0,0,4.85-1.57c3.29-1.6,6.48-4,10.09-6.17a2.78,2.78,0,0,1,1.42-.4h4a2.83,2.83,0,0,1,2.21,1.05l0,0a17.1,17.1,0,0,0,6.26,5,17.31,17.31,0,0,0,7.91,1.45,29.75,29.75,0,0,0,15.85-6h0a2.94,2.94,0,0,1,3.55.06c3.67,2.89,6.81,6,10.12,8.52s6.76,4.13,10.27,3.95l1.32-.12,1.26-.28a2.08,2.08,0,0,0,.61-.18l.59-.23c.42-.2.84-.38,1.24-.62a22.77,22.77,0,0,0,4.68-3.53c1.5-1.41,2.94-3,4.45-4.65l1.16-1.24.29-.31c.14-.14.32-.32.47-.46a8.67,8.67,0,0,1,1-.77,7.32,7.32,0,0,1,2.59-1.09,5,5,0,0,1,2,0,4.47,4.47,0,0,1,2.25,1.25l-.63-.5c3.85,2.34,6.71,5.32,9.6,7.65a19.57,19.57,0,0,0,4.28,2.79,7.63,7.63,0,0,0,4.19.67l-.47.1a47.58,47.58,0,0,0,7-2.63,16.51,16.51,0,0,0,5.44-3.89,7.32,7.32,0,0,0,1.37-2.4c0-.22.08-.43.12-.65l.08-.32v-.34c0-.23,0-.45,0-.68s-.07-.5-.1-.76l-.11-.81-.16-1-.31-2-.63-4-5.16-31.59c-1.72-10.54-3.41-21.1-4.92-31.7s-2.78-21.25-3.79-31.92-1.59-21.41-2-32.12-.45-21.48,0-32.24a255.08,255.08,0,0,1,3.49-32.15c.44-2.65,1-5.33,1.54-8,.23-1.32.65-2.73,1-4s.75-2.62,1.2-3.94a41.3,41.3,0,0,1,3.39-7.83,26.68,26.68,0,0,1,5.58-6.86h0l.22-.17a22.53,22.53,0,0,1,7.55-3.36,27.14,27.14,0,0,1,8.06-.62,57.5,57.5,0,0,1,14.94,3.47,190.94,190.94,0,0,0,28,7.71A185.72,185.72,0,0,0,659.43,102c4.84.17,9.7.17,14.56.06q3.64-.09,7.28-.27l3.63-.21a11.7,11.7,0,0,0,3-.5l.43-.15a1.86,1.86,0,0,1,2.36,1.16,1.91,1.91,0,0,1,.1.51l1.47,29.65.72,14.82c.28,4.91.67,9.76,1.05,14.65,1.56,19.5,3.66,39,6.17,58.36s5.71,38.69,10.61,57.57c1.21,4.72,2.56,9.4,4,14.06s3.32,9.14,4.76,13.91A57.94,57.94,0,0,1,721.4,313a23.54,23.54,0,0,1,.14,7.8,11.88,11.88,0,0,1-1.37,3.91,10.54,10.54,0,0,1-2.83,3.16,15.55,15.55,0,0,1-7.6,2.5,1.37,1.37,0,0,1-.25-2.73,12.86,12.86,0,0,0,6.2-2,7.7,7.7,0,0,0,2-2.29,9,9,0,0,0,1-3,20.75,20.75,0,0,0-.21-6.82,55.15,55.15,0,0,0-1.76-6.92c-1.43-4.6-3.37-9.08-4.89-13.85s-2.91-9.41-4.18-14.17c-5.12-19-8.48-38.45-11.15-57.9s-4.87-39-6.56-58.52c-.41-4.88-.84-9.8-1.15-14.67L688,132.91l-1.53-29.06,2.89,1.52a16,16,0,0,1-4.18.75l-3.71.24q-3.7.21-7.4.32c-4.93.14-9.88.17-14.83,0a190.5,190.5,0,0,1-29.57-3.08A195.94,195.94,0,0,1,601,95.92a52.73,52.73,0,0,0-13.61-3.12,19,19,0,0,0-12.31,3.14l.22-.17c-3.58,3.11-5.79,7.53-7.34,12.4-.4,1.21-.76,2.47-1.11,3.73a38.12,38.12,0,0,0-.93,3.76c-.51,2.55-1,5.1-1.45,7.72a249.61,249.61,0,0,0-3.27,31.48c-.43,10.57-.34,21.17.11,31.78s1,21.24,2.14,31.77c2.1,21.14,5.38,42.17,8.81,63.22l5.16,31.61.62,3.92.31,2,.15,1,.16,1.17c0,.41.12.8.14,1.23l0,1.32,0,.66-.13.66-.28,1.31a13.3,13.3,0,0,1-2.52,4.53,7.74,7.74,0,0,1-.83.91c-.29.28-.58.58-.87.85a23.17,23.17,0,0,1-1.85,1.43,20.85,20.85,0,0,1-1.92,1.21c-.64.39-1.3.7-2,1a53.4,53.4,0,0,1-7.94,3,2.78,2.78,0,0,1-.4.09H560a13.69,13.69,0,0,1-7.38-1.12,25.3,25.3,0,0,1-5.65-3.63c-3.24-2.65-5.95-5.4-8.9-7.16l-.63-.5a1.58,1.58,0,0,0,.82.47,1.09,1.09,0,0,0,.37,0,1.72,1.72,0,0,0-.44.22,2.66,2.66,0,0,0-.31.24l-.13.12-.28.29-1.11,1.19c-1.49,1.61-3,3.31-4.75,4.95A28.66,28.66,0,0,1,525.7,339c-.55.32-1.15.58-1.73.86-.3.13-.64.25-1,.38a4.77,4.77,0,0,1-1,.3l-2,.44-2,.18a18.24,18.24,0,0,1-7.74-1.43A29.28,29.28,0,0,1,504,336c-3.76-2.87-6.89-6-10.18-8.64l3.55.06a39.31,39.31,0,0,1-9,4.89,31.49,31.49,0,0,1-10.15,2.17,23.08,23.08,0,0,1-10.51-2,22.85,22.85,0,0,1-8.37-6.71l2.24,1.09h-4l1.46-.4c-3.3,2-6.59,4.43-10.57,6.35a21.27,21.27,0,0,1-6.62,2.06,14.84,14.84,0,0,1-7.28-.94h0l-.24-.11a23.37,23.37,0,0,1-3.29-2.19c-1-.74-1.85-1.47-2.71-2.1a13.34,13.34,0,0,0-2.42-1.5,2.59,2.59,0,0,0-1.6-.28h-.07a3.27,3.27,0,0,1-.63.07,1.55,1.55,0,0,0-.75.32,12.14,12.14,0,0,0-1.5,1.26c-.57.53-1.19,1.14-1.94,1.76a9.66,9.66,0,0,1-2.91,1.71l-.21.06a49.06,49.06,0,0,1-6.46,1.36,23.56,23.56,0,0,1-7-.17l-.82-.16-.92-.2a12.64,12.64,0,0,1-1.85-.59c-.6-.25-1.17-.55-1.74-.86a18,18,0,0,1-1.58-1.08,17,17,0,0,1-6.4-12.89,12.15,12.15,0,0,1,.07-1.87c0-.31.06-.62.1-.94l.2-1a13,13,0,0,1,.46-1.65l.47-1.49c1.24-3.95,2.31-7.86,3.2-11.88,1.83-8,3.08-16.18,4.27-24.41s2.32-16.53,3.84-24.8l0,.45,0-10.46h0a2.43,2.43,0,0,1,0-.25c5-45.25,4.27-91,.22-136.42v0a2.13,2.13,0,0,1,4.25-.39l1.64,17.64h0a2.09,2.09,0,1,1-4.17.39l-1.64-17.61h0a2,2,0,0,1,1.85-2.23,2.11,2.11,0,0,1,.59,0,290.55,290.55,0,0,0,44.17,5.48,218.74,218.74,0,0,0,44.35-2.35A160.24,160.24,0,0,0,535.8,91.76a131.52,131.52,0,0,0,36.38-25,1.37,1.37,0,0,1,1.92,1.95Z"/><path class="cls-12" d="M491.19,192a27,27,0,0,1,.68-7.23,26.47,26.47,0,0,1,2.71-6.84,25.34,25.34,0,0,1,10.85-10.09,26,26,0,0,1,7.32-2.15,26.58,26.58,0,0,1,7.67.24,27.08,27.08,0,0,1,7.25,2.63,26.23,26.23,0,0,1,6.1,4.73,25.67,25.67,0,0,1,6.69,13.63,29.82,29.82,0,0,1,.17,7.59,27.89,27.89,0,0,1-1.93,7.31,27.28,27.28,0,0,1-3.86,6.44,25.93,25.93,0,0,1-5.53,5,25.59,25.59,0,0,1-6.73,3.09,25.16,25.16,0,0,1-7.27.8,1.37,1.37,0,0,1-.06-2.74h.06a23.74,23.74,0,0,0,6.21-1.33,23.33,23.33,0,0,0,5.44-3.09,23.64,23.64,0,0,0,4.26-4.5A22.52,22.52,0,0,0,534,200a22.43,22.43,0,0,0,.73-12,24.88,24.88,0,0,0-2-5.64c-.2-.46-.5-.86-.74-1.3l-.38-.64-.44-.6c-.3-.4-.55-.83-.87-1.21l-1-1.14a23.42,23.42,0,0,0-4.59-3.77,21.41,21.41,0,0,0-5.49-2.25,22.36,22.36,0,0,0-6-.47,22.59,22.59,0,0,0-5.87,1.38c-7.63,3-13.07,11-13.49,19.67v0a1.37,1.37,0,0,1-2.73,0Z"/><path class="cls-12" d="M443.2,173.27a24.32,24.32,0,0,0-6.22,1.31,23,23,0,0,0-5.45,3.09,21.51,21.51,0,0,0-7.11,10,24.38,24.38,0,0,0-1.22,6,25.07,25.07,0,0,0,.44,6.07,22.49,22.49,0,0,0,2,5.67,23.49,23.49,0,0,0,3.48,4.85c.33.37.72.68,1.08,1,.18.17.36.35.55.5l.59.45a21.67,21.67,0,0,0,2.42,1.71,23.62,23.62,0,0,0,5.47,2.24,21.67,21.67,0,0,0,5.94.49,19.63,19.63,0,0,0,11.11-4.47,23.63,23.63,0,0,0,4.21-4.57,23.92,23.92,0,0,0,2.82-5.64,26.37,26.37,0,0,0,1.23-6.29v-.08a1.37,1.37,0,0,1,2.74.08,27.51,27.51,0,0,1-.66,7.23,25.59,25.59,0,0,1-7.33,12.69,27,27,0,0,1-6.23,4.27,26.26,26.26,0,0,1-7.33,2.17,27.2,27.2,0,0,1-7.7-.22,24,24,0,0,1-13.33-7.45,26.35,26.35,0,0,1-4.3-6.36,28.25,28.25,0,0,1-2.3-7.28,29.06,29.06,0,0,1-.19-7.57,27.62,27.62,0,0,1,1.9-7.29,27.21,27.21,0,0,1,3.87-6.42,26.82,26.82,0,0,1,5.5-5,25.89,25.89,0,0,1,6.72-3.08,24.7,24.7,0,0,1,7.27-.81,1.37,1.37,0,0,1,.06,2.73Z"/><path class="cls-12" d="M601.33,342.16c-11,7.36-21.86,15.09-32.47,23.06s-21,16.26-31,25c-5,4.36-9.87,8.83-14.55,13.47a174.93,174.93,0,0,0-13.29,14.56c-4,5.1-7.83,10.51-10.08,16.33a19.62,19.62,0,0,0-1.48,8.69,10.88,10.88,0,0,0,3.83,7.06,22.85,22.85,0,0,0,7.95,4.16c1.46.55,3,.85,4.56,1.26l2.36.44,1.18.22,1.2.16a123.89,123.89,0,0,0,19.52,1l9.86-.35c.82,0,1.64,0,2.46-.1l2.45-.25,4.91-.49,4.9-.49c.82-.06,1.63-.19,2.44-.33l2.43-.4c3.24-.55,6.49-1,9.72-1.64a216.66,216.66,0,0,0,72.68-29.36,249.39,249.39,0,0,0,31.55-23.6c2.44-2.21,4.88-4.41,7.26-6.67s4.83-4.6,6.83-6.89a43.56,43.56,0,0,0,8.87-16.26,42.48,42.48,0,0,0,1.68-9.18c.19-1.55.12-3.12.16-4.68s-.12-3.12-.37-4.67-.51-3.08-.81-4.62c-.17-.76-.41-1.51-.61-2.26l-.31-1.13-.39-1.11-1.67-4.75a24.1,24.1,0,0,1-.74-2.54c-.21-.85-.47-1.7-.64-2.56a93.8,93.8,0,0,1-1.59-20.51c.12-6.77.64-13.47,1.28-20.14,1.31-13.33,3.13-26.52,4.84-39.72a179.94,179.94,0,0,0,1.56-19.62,160.32,160.32,0,0,0-.88-19.64,151.17,151.17,0,0,0-9.21-38.15,144.46,144.46,0,0,0-8.29-17.85c-1.57-2.88-3.27-5.69-5.06-8.43a86.36,86.36,0,0,0-5.73-7.86l.7.49a11.61,11.61,0,0,0-3.09-.69,3.78,3.78,0,0,0-2.38.47c-.15.06-.19.22-.32.31s-.15.3-.25.43a4.19,4.19,0,0,0-.25,1.27,4.3,4.3,0,0,0,.06,1.39,8.87,8.87,0,0,0,.47,1.48c.85,2.05,2.25,4.2,3.46,6.42a61,61,0,0,1,3.37,6.94,56.62,56.62,0,0,1,3.68,15,86.05,86.05,0,0,1,.2,15.27,1.37,1.37,0,0,1-2.74-.16h0a83.24,83.24,0,0,0-.42-14.75,53.5,53.5,0,0,0-3.69-14.09,57.64,57.64,0,0,0-3.3-6.52,73.12,73.12,0,0,1-3.76-6.75,12.26,12.26,0,0,1-.69-2.09,7.8,7.8,0,0,1-.16-2.35,6.72,6.72,0,0,1,.14-1.17A11.18,11.18,0,0,1,670,141a8.52,8.52,0,0,1,.68-1.2,5.65,5.65,0,0,1,1-1,7.19,7.19,0,0,1,4.77-1.24,15,15,0,0,1,4.23.9,1.59,1.59,0,0,1,.67.46l0,0c1.17,1.36,2.19,2.67,3.2,4s2,2.75,2.93,4.15c1.88,2.81,3.66,5.68,5.31,8.62a148.47,148.47,0,0,1,8.72,18.24,155.5,155.5,0,0,1,9.91,39.14,165,165,0,0,1,1.13,20.21,185.05,185.05,0,0,1-1.37,20.18c-1.57,13.22-3.21,26.42-4.41,39.6-.58,6.59-1,13.17-1.09,19.71A88.4,88.4,0,0,0,707.37,332c.16.77.4,1.52.59,2.28a20,20,0,0,0,.67,2.24l1.68,4.65.45,1.24.36,1.27c.23.85.5,1.69.71,2.55.36,1.73.77,3.45,1,5.2s.34,3.51.46,5.27.06,3.54-.13,5.3a48.3,48.3,0,0,1-1.9,10.42,49.57,49.57,0,0,1-10.1,18.51l-1.8,2c-.6.67-1.2,1.2-1.8,1.81l-3.61,3.53c-2.44,2.32-4.94,4.58-7.44,6.83a247.16,247.16,0,0,1-32.36,24.14,222.35,222.35,0,0,1-74.8,29.61c-3.31.6-6.65,1.07-10,1.61l-2.5.39c-.83.14-1.66.27-2.5.32l-5,.47-5,.47-2.51.23c-.84,0-1.68.05-2.52.08l-10.09.29a125.25,125.25,0,0,1-20.3-1.22l-1.27-.18-1.27-.25-2.54-.51c-1.68-.46-3.38-.81-5-1.45a27.45,27.45,0,0,1-9.53-5.19l-1-1c-.17-.17-.35-.33-.51-.51l-.45-.58-.89-1.17c-.28-.4-.49-.86-.73-1.28a15.27,15.27,0,0,1-1.7-5.6,24,24,0,0,1,1.87-10.8c2.65-6.59,6.7-12.16,10.95-17.42a179,179,0,0,1,13.77-14.77q7.23-7,14.89-13.48c10.19-8.66,20.77-16.82,31.54-24.7s21.74-15.45,33-22.7a1.37,1.37,0,0,1,1.5,2.28Z"/><path class="cls-12" d="M342.75,411.82c6.26-10.49,14.36-19.4,23-27.74a204.76,204.76,0,0,1,28.38-22.22q3.84-2.36,7.74-4.64c2.55-1.6,5.28-2.86,8-4.23l4-2c1.34-.67,2.67-1.38,4.06-1.95l8.26-3.57c1.38-.58,2.74-1.21,4.14-1.75l4.22-1.55,8.44-3.05c1.39-.54,2.84-.92,4.27-1.36l4.3-1.27,8.6-2.48a1.37,1.37,0,0,1,.87,2.6l-.08,0-8.3,3.13-4.15,1.54c-1.38.52-2.78,1-4.12,1.6l-8.12,3.49-4.06,1.72c-1.34.6-2.65,1.28-4,1.92l-7.92,3.88c-1.34.61-2.6,1.36-3.89,2.07l-3.85,2.14c-2.55,1.44-5.16,2.79-7.63,4.37s-5,3-7.53,4.52a236.72,236.72,0,0,0-28.33,20.73l-3.32,2.88c-1.12,1-2.14,2-3.21,3s-2.13,2-3.18,3l-3,3.17a118.35,118.35,0,0,0-11.23,13.4l-.06.09a1.36,1.36,0,0,1-2.29-1.48Z"/><path class="cls-12" d="M574.41,491.25A404.07,404.07,0,0,1,565.15,450c-1.18-6.95-2.23-13.92-3.1-20.92-.22-1.75-.47-3.5-.67-5.25l-.55-5.26c-.35-3.51-.78-7-1-10.54s-.45-7-.63-10.57-.12-7.06-.16-10.59,0-7.06.13-10.59l.15-5.3.08-2.65c0-.88.12-1.76.18-2.64l.77-10.57c.09-1.76.34-3.52.56-5.27l.67-5.26.67-5.25c.21-1.75.6-3.48.92-5.22l2-10.4a1.37,1.37,0,0,1,2.71.42v.09l-1.26,10.39-.32,2.59c-.11.86-.24,1.72-.28,2.6l-.38,5.21-.38,5.21c-.12,1.74-.29,3.47-.31,5.21l-.32,10.44c-.14,13.93.33,27.85,1.3,41.75.09,1.74.18,3.48.35,5.21l.39,5.21.39,5.21c.15,1.74.34,3.47.51,5.2.64,6.95,1.53,13.87,2.42,20.79.49,3.45.93,6.92,1.47,10.37s1,6.91,1.68,10.34c1.12,6.89,2.46,13.77,3.9,20.57v0a1.37,1.37,0,0,1-2.65.66Z"/><path class="cls-12" d="M426.3,517.07c-5.15-14.52-10.86-28.89-16.84-43.1s-12.29-28.3-19.1-42.12-14-27.43-22-40.55a260.65,260.65,0,0,0-26.78-37.13c-2.55-2.8-5.13-5.58-7.89-8.14a92.1,92.1,0,0,0-8.54-7.29,68.6,68.6,0,0,0-9.33-5.94A43.72,43.72,0,0,0,305.69,329l-1.31-.3c-.44-.08-.88-.13-1.32-.2a20.47,20.47,0,0,0-2.65-.29c-1.68-.13-3.76-.11-5.72-.2a99.34,99.34,0,0,1-11.87-1.14,65.5,65.5,0,0,1-11.7-2.91,46.4,46.4,0,0,1-10.93-5.5,36.4,36.4,0,0,1-8.86-8.61A41.08,41.08,0,0,1,245.79,299,82.28,82.28,0,0,1,243,287.41a51.09,51.09,0,0,0-1.22-5.4,5.82,5.82,0,0,0-.88-1.84.66.66,0,0,0-.31-.24.91.91,0,0,0-.51,0,2.27,2.27,0,0,0-.46.11c-.17.05-.35.08-.5.15a4.89,4.89,0,0,0-.9.48,5.1,5.1,0,0,0-1.48,1.51,12,12,0,0,0-1.63,4.66,38.76,38.76,0,0,0,.23,11,73.28,73.28,0,0,0,2.5,11.05,60.81,60.81,0,0,0,4.2,10.49v0a1.37,1.37,0,0,1-2.41,1.31,63.61,63.61,0,0,1-4.75-10.87,76.43,76.43,0,0,1-3-11.47,40.28,40.28,0,0,1-.52-12.09,15.72,15.72,0,0,1,2.09-6.22,8.92,8.92,0,0,1,6-4.08,4.89,4.89,0,0,1,2.35.13,4.66,4.66,0,0,1,2.08,1.34,9.35,9.35,0,0,1,1.79,3.26,53.71,53.71,0,0,1,1.48,5.87,78.16,78.16,0,0,0,2.9,10.9,36.48,36.48,0,0,0,5.12,9.59,31.56,31.56,0,0,0,7.85,7.31c6,4,13.29,6.09,20.66,7.16a93.85,93.85,0,0,0,11.22.9c1.91.06,3.69,0,5.87.11a25.42,25.42,0,0,1,3.12.29c.52.07,1,.12,1.55.21l1.52.32a49.54,49.54,0,0,1,11.6,4.11,69.56,69.56,0,0,1,10.26,6.41,114.14,114.14,0,0,1,17.33,16.26c10.42,11.83,19.05,24.93,27,38.3s15,27.24,21.64,41.29a769,769,0,0,1,34.12,86.49,1.37,1.37,0,0,1-2.59.88Z"/><path class="cls-12" d="M285.47,295a97.43,97.43,0,0,1,13.54.23,94.71,94.71,0,0,1,13.46,2.21,66.57,66.57,0,0,1,13,4.62,44.32,44.32,0,0,1,11.69,8c.83.89,1.67,1.73,2.48,2.66.39.52.79,1,1.15,1.56s.7,1.1,1,1.68a17.81,17.81,0,0,1,2.09,7.57,21.21,21.21,0,0,1-1,7.57,27.75,27.75,0,0,1-3.2,6.58,37.49,37.49,0,0,1-9.84,10.09,31.54,31.54,0,0,1-12.81,5.55,1.37,1.37,0,0,1-.61-2.67h0a30.78,30.78,0,0,0,10.93-6.07,35.41,35.41,0,0,0,8-9.49c2-3.54,3.16-7.48,2.74-11.12a13.65,13.65,0,0,0-1.65-5.11c-.22-.4-.49-.77-.73-1.16s-.57-.73-.85-1.1c-.64-.74-1.35-1.49-2-2.24-5.74-5.8-13.59-9.64-21.78-12.2a90.25,90.25,0,0,0-12.65-3,116,116,0,0,0-13-1.45h0a1.37,1.37,0,0,1,0-2.73Z"/><path class="cls-12" d="M450.56,457.61a165.92,165.92,0,0,1-66.67,41.1c-6.24,2-12.4,4.06-18.78,5.82A88.6,88.6,0,0,1,345.37,508a49.16,49.16,0,0,1-10.24-.71,24.66,24.66,0,0,1-9.94-3.91,19.8,19.8,0,0,1-6.82-8.55A33.57,33.57,0,0,1,316,484.57a81.49,81.49,0,0,1-.18-10.09c.12-3.35.33-6.48.28-9.68a105.26,105.26,0,0,0-1.77-19,92.14,92.14,0,0,0-14.23-35,73.07,73.07,0,0,0-12.46-14.06,94.57,94.57,0,0,0-15.55-10.87c-11.08-6.34-23.16-11.12-35.15-16.42-6-2.66-12-5.42-17.84-8.64a107.86,107.86,0,0,1-16.68-11.24,72.34,72.34,0,0,1-13.72-15,87.23,87.23,0,0,1-5.23-8.65q-2.38-4.44-4.31-9.1a100.23,100.23,0,0,1-7.46-39.28,111.72,111.72,0,0,1,2-19.91c.3-1.64.65-3.27,1-4.89.16-.8.44-1.65.66-2.47s.44-1.66.73-2.47l.91-2.41c.15-.4.3-.81.46-1.2l.55-1.17,1.11-2.33c.41-.75.86-1.49,1.28-2.23a48.38,48.38,0,0,1,13.86-15,22.84,22.84,0,0,1,2.15-1.41c.73-.44,1.45-.91,2.2-1.33l2.29-1.16c.38-.19.76-.39,1.15-.57l1.19-.48,2.38-1,2.46-.76a47.83,47.83,0,0,1,5-1.2,44.11,44.11,0,0,1,20.38,1,41,41,0,0,1,17.32,10.73,58.19,58.19,0,0,1,6.34,7.9,87.74,87.74,0,0,1,5.1,8.59,65.22,65.22,0,0,1,6.58,18.91c2.4,13.23-.27,27.48-8.6,38.39a1.37,1.37,0,1,1-2.18-1.66h0l.08-.1a30.7,30.7,0,0,0,2.53-3.88,42.12,42.12,0,0,0,2.08-4.25,46.91,46.91,0,0,0,2.77-9,48.5,48.5,0,0,0-.08-18.82,63.33,63.33,0,0,0-6.5-17.8,83.94,83.94,0,0,0-5-8.16,54.34,54.34,0,0,0-6-7.27,36.88,36.88,0,0,0-15.7-9.48,39.79,39.79,0,0,0-18.36-.7,43.39,43.39,0,0,0-4.5,1.14l-2.21.71-2.14.9-1.07.45c-.35.16-.69.35-1,.53l-2.06,1.07c-.67.38-1.31.82-2,1.23a19.47,19.47,0,0,0-1.92,1.3A43.54,43.54,0,0,0,184.71,241c-.37.67-.77,1.34-1.13,2l-1,2.1-.49,1.05-.4,1.09-.79,2.17c-.25.73-.41,1.49-.62,2.23s-.43,1.46-.58,2.26c-.34,1.56-.66,3.12-.93,4.69a109.73,109.73,0,0,0-1.68,19,94.61,94.61,0,0,0,7.37,37q1.85,4.37,4.14,8.54a81.36,81.36,0,0,0,5,8A68.1,68.1,0,0,0,206.3,345c9.71,8,21.29,13.73,33.11,19S263.5,374.12,275,380.86a100.31,100.31,0,0,1,16.38,11.65,78.77,78.77,0,0,1,13.3,15.24,97.54,97.54,0,0,1,14.79,37.12,110.42,110.42,0,0,1,1.7,19.94c0,6.75-.84,13.14-.32,19.34a28.85,28.85,0,0,0,1.91,8.78,15,15,0,0,0,5.12,6.61,20,20,0,0,0,8.1,3.24,44.7,44.7,0,0,0,9.23.74,84.42,84.42,0,0,0,18.78-3c6.21-1.63,12.43-3.67,18.66-5.55a162.87,162.87,0,0,0,66-39.24,1.37,1.37,0,0,1,1.93,1.93Z"/></svg>