<svg id="Layer_1" data-name="Layer 1" xmlns="http://www.w3.org/2000/svg" viewBox="0 0 960 560"><defs><style>.cls-1{fill:#ff895e;}.cls-2{fill:#ff7a4a;}.cls-3{fill:#ffbda5;}.cls-4{fill:#ffb094;}.cls-5{fill:#ff4830;}.cls-6{fill:#fff;}.cls-7{fill:#ffe7de;}.cls-8{fill:#233940;}.cls-9{fill:#ffa98a;}</style></defs><title>make up, lipstick, woman, cosmetics</title><path class="cls-1" d="M677.49,305a267.39,267.39,0,0,1-4,46.91c-6.92,38.85-22.56,73-45.63,99.86-31.13,36.27-75.77,59.32-130.75,62.9q-7.47.5-15.2.49a139.4,139.4,0,0,1-42-6.46c-1-.32-2.06-.66-3.08-1-.74-.25-1.48-.5-2.22-.77l-1-.36c-.84-.3-1.66-.61-2.49-.93l-.76-.3c-.88-.34-1.76-.7-2.64-1.06q-4.5-1.86-8.88-4c-1-.48-1.95-1-2.91-1.46l-.12-.06c-.93-.48-1.85-1-2.77-1.47s-1.91-1.05-2.86-1.59l-2.58-1.49-.25-.15c-.94-.56-1.88-1.13-2.81-1.71l-.17-.1c-.88-.55-1.75-1.1-2.61-1.66s-1.84-1.2-2.76-1.82l-1-.66-1.76-1.22c-.9-.63-1.8-1.28-2.7-1.93l-.21-.15L390.85,483c-2.59-1.95-5.14-4-7.65-6.09l-.46-.39-2.31-2c-.85-.74-1.7-1.49-2.54-2.25L375.46,470q-2.53-2.35-5-4.81l-2-2-.39-.4c-.63-.64-1.25-1.28-1.87-1.94l-.36-.37c-.1-.09-.19-.19-.29-.3-.75-.79-1.5-1.58-2.24-2.39s-1.26-1.37-1.89-2.07l-1.1-1.23-.17-.18c-.49-.56-1-1.12-1.48-1.69-.77-.88-1.53-1.77-2.29-2.66l-2.22-2.67a0,0,0,0,1,0,0c-30.86-37.48-53.06-86.3-64.26-135.44-2.37-10.38-4.24-20.78-5.6-31.08-.23-1.73-.45-3.45-.64-5.17a296.61,296.61,0,0,1-2-34.11c0-39.78,3.78-74.14,10.4-102.89A271,271,0,0,1,303,102c28.92-74.86,82.26-91.75,129.58-44.44C448,73,465.88,87,484.82,100.28c25.08,17.63,52,34.06,77.59,51C624,192,677.49,235.39,677.49,305Z"/><path class="cls-2" d="M592,397.8c-11.28,11.27-24.42,20.65-37.82,29.23-9.88,6.31-21,12.27-32.66,13q-.87,7-2.12,13.9c-3.67,20-9.59,43.49-22.34,60.72q-7.47.5-15.2.49a139.4,139.4,0,0,1-42-6.46c23.06-20,37.61-46.09,42.93-79.06,9.44-58.49,2-95.71-16.3-122.79a43.18,43.18,0,0,0,5-5.49c6.84-9,8.87-19.92,7.42-30.92a192.76,192.76,0,0,1,23.15,37.82c21.36,45.76,84.89,49.93,111.39,6.94l.63-1a1.52,1.52,0,0,1,2.74.36C628.11,344.59,613.41,376.4,592,397.8Z"/><path class="cls-3" d="M498,149.75a83,83,0,0,1-4.73,26.33c-4.36,12.41-11.48,20.81-20.29,26.63a20.53,20.53,0,0,0-8.73,22.23s0,.11,0,.16c3.88,14.81,11.86,28.29,14.37,43.51.1.61.19,1.22.26,1.83,1.45,11-.58,21.93-7.42,30.92a43.18,43.18,0,0,1-5,5.49,50.72,50.72,0,0,1-21.22,11.73c-25.42,6.95-53-4.8-73.65-19.21a139,139,0,0,1-58.76-106.76c0-.1,0-.2,0-.3l-.53-.52c-.82-.79-1.62-1.6-2.39-2.44-12.83-14.06-14.07-34.18-13.22-52.22a149.61,149.61,0,0,1,4.62-30.59c.36-1.38.74-2.75,1.14-4.12,7-23.81,20.4-45.64,41.32-59.65,12.38-8.28,27.58-12.9,42.33-10.81,22.22,3.15,39.4,20.19,56.65,34.55,11.46,9.53,23.67,18.25,34,29A75.81,75.81,0,0,1,498,149.75Z"/><path class="cls-4" d="M471.48,301.36a43.18,43.18,0,0,1-5,5.49,50.72,50.72,0,0,1-21.22,11.73c-25.42,6.95-53-4.8-73.65-19.21a139,139,0,0,1-58.76-106.76c0-.1,0-.2,0-.3l-.53-.52c-.82-.79-1.62-1.6-2.39-2.44-12.83-14.06-14.07-34.18-13.22-52.22a149.61,149.61,0,0,1,4.62-30.59c.36-1.38.74-2.75,1.14-4.12l.48-.18c.8-.31,1.62-.59,2.45-.85.09-.51.17-1,.27-1.55.39-1.89,3.28-1.08,2.9.8a62.13,62.13,0,0,0,.62,27.17c5.91,24.29,23.59,61.67,43.66,75.45,25.85,17.75,59.22,21.55,92.25,12.28q7.48-2.1,14.8-4.84a1.51,1.51,0,0,1,1.46,2.51l-.53.45a24.07,24.07,0,0,0-1.11,36q6,5.6,11.49,11.68,4,4.43,7.67,9.1C480.35,281.44,478.32,292.37,471.48,301.36Z"/><path class="cls-5" d="M454,144.22s-14.79,25.29-47.24,17.18-35.15-13.83-35.15-13.83l24.17-15.76A18.64,18.64,0,0,1,412,133.72c8.11,5.25,17.66-2.86,17.66-2.86S447.33,127.52,454,144.22Z"/><path class="cls-5" d="M499.42,178.75a141.25,141.25,0,0,0-20.76-17.18l-.61-.4a5.47,5.47,0,0,0-4.8-.59,52.59,52.59,0,0,1-11.84,2.83,5.44,5.44,0,0,0-3.87,8.55l.06.08c5.14,7,12,13.16,19,18.63a1.46,1.46,0,0,0,2-.25h0a1.32,1.32,0,0,0,.74-.21,1.39,1.39,0,0,0,1.38.52,31.39,31.39,0,0,0,18.66-10.32A1.14,1.14,0,0,0,499.42,178.75Z"/><path class="cls-6" d="M573.16,276.58a82.8,82.8,0,0,1-23-2.57l-49.89-49.89,1.84-2.56-27.58-25.22c.79-27.58,22.39-22.45,22.39-22.45l27.45,27.46,1.85.11,29.5,1.73,2.81.17,1.37,1.41,35.46,36.76C603.28,269,588,275.85,573.16,276.58Z"/><path class="cls-7" d="M595.38,241.53l-35.46-36.76c-1.38-.56-2.77-1.09-4.18-1.58A79.46,79.46,0,0,0,534.09,199c-.69.49-1.36,1-2,1.5-1.81,1.33-3.6,2.71-5.39,4.07l0,.13-.56.37-.14.09a98.67,98.67,0,0,0-21.45,18.42c-1.26,1.45.85,3.58,2.12,2.12a97.07,97.07,0,0,1,7.09-7.33,16.93,16.93,0,0,1,21.71-1c7.34,5.45,17.6,8.5,25.22,12.13,8.39,4,17.94,12.63,14.78,23.11-1.87,6.18-6.81,8-12.14,7.54a1.5,1.5,0,0,0-1.58-.2,29.72,29.72,0,0,1-13-5.75c-9.56-7.69-23.11-25.2-37.16-18.8l36.07,36.07a51.69,51.69,0,0,0,13.64-7.42,18.13,18.13,0,0,0,11.86,12.51C588,275.85,603.28,269,595.38,241.53Z"/><path class="cls-3" d="M658.53,271.92c-12.89-19.88-33.44-39-51.8-54A226.14,226.14,0,0,0,583,201l-.33-.2c-1.38-.86-2.83-1.75-4.31-2.57a28.14,28.14,0,0,0-20.58-6.72c-10,.89-18.91,9.66-29.22,6.49a1.51,1.51,0,0,0-1.84,1.84c1.72,6.55,6,9.6,11.18,11.36l.09,0c11.91-2.47,23.36,4.32,31.73,12.19s17.87,19.62,17,31.92a18.51,18.51,0,0,1-.39,2.76c-1.13,5.08-5.52,7.61-10.48,7.63a11.54,11.54,0,0,1-1.67-.09s-39.7-29.25-53.76-19.09,3.12,18,3.12,18,32,11.72,34.38,54.69,33.59,41.41,33.59,41.41c-55.08,55.08-106.25,56.25-106.25,56.25s-53.91,14.07-45.39,91.85a139.4,139.4,0,0,0,42,6.46c104.09,0,174.47-67.22,191.58-163.25.07-3.4.1-6.76.1-10.06C673.55,317.38,671.91,292.54,658.53,271.92Z"/><path class="cls-1" d="M482.8,429.64c-5.32,33-19.87,59-42.93,79.06-33-10.36-62-32.52-85.76-61.42-45.81-55.63-72.53-136.23-72.53-205.8q0-10.34.34-20.19c1.57-46.62,8.63-85,19.41-114.75.52-1.45,1.05-2.88,1.6-4.29L303,102a2.12,2.12,0,0,1-.07.24c-6.24,21.88-11.35,58,9.37,89.55.18.28.36.55.55.82,8.29,12.35,20.58,24,38.36,33.8,47.78,26.36,91,44.45,115.27,80.44C484.76,333.93,492.24,371.15,482.8,429.64Z"/><path class="cls-8" d="M450.68,138.25,446,135.17a20.1,20.1,0,0,0-4.49-2.55,14.58,14.58,0,0,0-9.59-.22,22.69,22.69,0,0,0-4.57,2.31,18.18,18.18,0,0,1-6,2.09,18.55,18.55,0,0,1-12.4-2.31,13.62,13.62,0,0,0-8.9-1.64,12.89,12.89,0,0,0-4.29,1.47,10.39,10.39,0,0,0-1,.59l-.48.32-.56.41-2.26,1.62q-9,6.48-18.3,12.64l.32-4.43c.23.22.64.57,1,.86s.77.6,1.16.89c.81.58,1.62,1.16,2.48,1.68l1.29.8,1.33.75c.87.52,1.8,1,2.7,1.42A74.2,74.2,0,0,0,395,156.35c2,.54,4,1.14,6,1.54s4.08.81,6.14,1.16c1,.2,2.07.29,3.11.42l3.12.37c2.09.18,4.18.28,6.28.45h.09a1.37,1.37,0,0,1-.09,2.74c-2.15,0-4.31.09-6.47.07L410,163c-1.08,0-2.17-.08-3.24-.22-2.16-.22-4.32-.41-6.47-.8s-4.29-.76-6.42-1.24a79.05,79.05,0,0,1-12.5-4.14,55.16,55.16,0,0,1-6-3c-1-.54-1.92-1.16-2.87-1.78-.47-.33-.94-.63-1.41-1s-.9-.67-1.46-1.16a2.78,2.78,0,0,1,.17-4.31l.15-.11q8.94-6.61,18.13-12.89l2.29-1.57.58-.39.69-.44a16.13,16.13,0,0,1,1.43-.81,18.94,18.94,0,0,1,18.69.83,13.87,13.87,0,0,0,9,2.07,13.5,13.5,0,0,0,4.54-1.32c.34-.15.78-.4,1.19-.61s.86-.44,1.34-.67a18.53,18.53,0,0,1,3-1.09,18.72,18.72,0,0,1,6.21-.58,18.5,18.5,0,0,1,6,1.58,23.44,23.44,0,0,1,5,3.26l4.38,3.44a1.37,1.37,0,0,1-1.6,2.21Z"/><path class="cls-8" d="M449.86,162.08a10.77,10.77,0,0,0,.35,6,20.86,20.86,0,0,0,3,5.63,52.72,52.72,0,0,0,9.39,9.5c7.1,6,14.23,12,21.25,18.06q2.64,2.27,5.22,4.63c1.74,1.55,3.43,3.14,5.13,4.73l10.18,9.54c6.77,6.38,13.51,12.8,20.13,19.34a1.37,1.37,0,0,1-1.82,2.05c-7.29-5.79-14.48-11.7-21.63-17.66l-10.7-9c-1.78-1.5-3.57-3-5.31-4.52s-3.5-3.05-5.22-4.62c-6.9-6.25-13.7-12.56-20.5-18.95a56.81,56.81,0,0,1-9.45-11,23.9,23.9,0,0,1-2.95-6.92,16.13,16.13,0,0,1-.42-3.86,12.21,12.21,0,0,1,.76-3.89,1.37,1.37,0,0,1,2.61.82Z"/><path class="cls-8" d="M586.91,361.25A25.79,25.79,0,0,1,573.84,358a29.55,29.55,0,0,1-9.8-9.26,41.91,41.91,0,0,1-5.57-12.16,46.37,46.37,0,0,1-1.35-6.56c-.15-1.11-.25-2.23-.31-3.35s-.06-2.26-.08-3.29a81.38,81.38,0,0,0-3.84-24.68,49.74,49.74,0,0,0-5.26-11.08,45.05,45.05,0,0,0-8-9.19A65,65,0,0,0,529.7,271c-.87-.52-1.82-1.06-2.6-1.43s-1.83-.79-2.82-1.18a36.7,36.7,0,0,1-6.25-3,12.78,12.78,0,0,1-3-2.61,9.14,9.14,0,0,1-2-4,7.56,7.56,0,0,1-.18-1c0-.3-.1-.59-.12-.9a18.48,18.48,0,0,1-.11-1.87,13.57,13.57,0,0,1,.51-4,10,10,0,0,1,2.11-3.82,10.59,10.59,0,0,1,3.47-2.53,18.53,18.53,0,0,1,7.38-1.47,51.48,51.48,0,0,1,13.45,2,109.27,109.27,0,0,1,12.53,4.19,112.62,112.62,0,0,1,12,5.58c1,.54,2,1.11,2.95,1.75.49.32,1,.66,1.53,1.07l.71.58.63.53a27.83,27.83,0,0,0,4.65,3.44,5.93,5.93,0,0,0,4.12.77,5.4,5.4,0,0,0,1.83-.81,7.9,7.9,0,0,0,1.57-1.56c1.91-2.52,2.22-6.18,1.41-9.87a33.61,33.61,0,0,0-1.79-5.62,58.43,58.43,0,0,0-2.59-5.5,63.69,63.69,0,0,0-6.87-10.17c-5.21-6.3-11.66-11.75-19-14.77a28.19,28.19,0,0,0-11.47-2.14,23.74,23.74,0,0,0-5.72.88,29.91,29.91,0,0,0-5.47,2.27c-3.61,1.88-7.13,4.34-11,6.5a38.61,38.61,0,0,1-6.2,2.84l-1.66.54c-.55.18-1.13.27-1.69.41a26.53,26.53,0,0,1-3.43.56,33.39,33.39,0,0,1-25.38-8.37c-.85-.77-1.64-1.61-2.42-2.45a29.42,29.42,0,0,1-2.1-2.73l-1-1.44-.81-1.56a22.66,22.66,0,0,1-1.34-3.22,30.61,30.61,0,0,1-1-13.51,39.51,39.51,0,0,1,3.94-12.75,35.46,35.46,0,0,1,8.06-10.65,1.37,1.37,0,0,1,1.84,2l0,0a32.58,32.58,0,0,0-7.1,9.94,36.27,36.27,0,0,0-3.3,11.81A27.86,27.86,0,0,0,477,205.78a18.87,18.87,0,0,0,1.18,2.69l.7,1.28.85,1.23a25.63,25.63,0,0,0,1.86,2.33c.69.71,1.39,1.43,2.14,2.09a29.2,29.2,0,0,0,22.24,6.9,22.1,22.1,0,0,0,2.91-.53c.47-.13,1-.2,1.43-.37l1.39-.48a34,34,0,0,0,5.43-2.62c3.57-2.06,7.05-4.61,11-6.78a34.84,34.84,0,0,1,6.35-2.76,28.81,28.81,0,0,1,6.95-1.21,32.92,32.92,0,0,1,13.68,2.3,47.75,47.75,0,0,1,11.8,6.79A57.18,57.18,0,0,1,572,221a63.8,63.8,0,0,1,4.59,4.9,69.52,69.52,0,0,1,7.66,11,57.07,57.07,0,0,1,2.94,6.1,39.5,39.5,0,0,1,2.13,6.62,22.24,22.24,0,0,1,.44,7.4,17.51,17.51,0,0,1-.93,3.83,16.09,16.09,0,0,1-1.92,3.55,13.74,13.74,0,0,1-3,2.93,11.52,11.52,0,0,1-4,1.75,10.8,10.8,0,0,1-4.41,0l-1.05-.24-1-.35a12.56,12.56,0,0,1-1.82-.83,33,33,0,0,1-5.69-4.18l-.6-.51-.54-.44c-.32-.25-.7-.52-1.1-.78-.81-.53-1.68-1-2.58-1.54a109.24,109.24,0,0,0-11.27-5.4,103.73,103.73,0,0,0-11.81-4.11,46.26,46.26,0,0,0-11.91-1.92,13.29,13.29,0,0,0-5.17.9,4.56,4.56,0,0,0-2.69,2.94,8.22,8.22,0,0,0-.32,2.38,13.06,13.06,0,0,0,.07,1.34c0,.22.06.46.09.69a3.63,3.63,0,0,0,.11.61,5.39,5.39,0,0,0,2.66,3.31,32.27,32.27,0,0,0,5.33,2.58c1,.41,2,.83,3.09,1.35s2,1.11,3,1.7a66.69,66.69,0,0,1,10.61,8.08,49.92,49.92,0,0,1,8.65,10.31,54.29,54.29,0,0,1,5.53,12.2,85.55,85.55,0,0,1,3.6,26c0,1.12,0,2.13,0,3.15s.09,2,.21,3.06a42.54,42.54,0,0,0,1.09,6.06,38.4,38.4,0,0,0,4.81,11.26,26.34,26.34,0,0,0,8.52,8.49,22.87,22.87,0,0,0,11.53,3.2,1.37,1.37,0,0,1,0,2.73Z"/><path class="cls-8" d="M523.92,201.59c-5.7-4.08-11-8.53-16.28-13.09a102.86,102.86,0,0,1-7.19-7.56c-2.33-2.59-4.61-5.22-6.79-8a1.39,1.39,0,0,1,1.89-2c2.87,2,5.62,4.16,8.34,6.34a102.75,102.75,0,0,1,7.94,6.76c4.85,5,9.58,10.07,14,15.53a1.38,1.38,0,0,1-1.88,2Z"/><path class="cls-8" d="M487.18,516.37c20.33-.23,40.34-5.46,58.92-13.55A201.64,201.64,0,0,0,573,488.59c4.32-2.67,8.49-5.57,12.62-8.52s8.12-6.09,12-9.37a233.73,233.73,0,0,0,41.26-44.47,209.64,209.64,0,0,0,15.67-26c1.09-2.28,2.26-4.52,3.26-6.83l1.55-3.45,1.45-3.49c.5-1.16.95-2.33,1.39-3.51l1.33-3.54c.79-2.39,1.68-4.75,2.37-7.17a150.61,150.61,0,0,0,6-29.48,132.91,132.91,0,0,0,.55-15l0-1.88-.1-1.87c-.08-1.25-.12-2.5-.23-3.75-.26-2.49-.45-5-.87-7.45A114.56,114.56,0,0,0,663,284a126.37,126.37,0,0,0-15.27-25.87,131.9,131.9,0,0,0-21.27-21.36c-7.86-6.43-16.2-12.34-24.52-18.36l-6.23-4.55-3.1-2.32c-1.09-.84-2.08-1.69-3-2.55-3.86-3.42-7.62-6.79-11.68-9.73a41.91,41.91,0,0,0-13.08-6.75,18.89,18.89,0,0,0-13.91,1.2,1.37,1.37,0,0,1-1.29-2.42h0a20.78,20.78,0,0,1,7.83-2.42,23.51,23.51,0,0,1,8.14.65,45.06,45.06,0,0,1,14.29,6.93A144.48,144.48,0,0,1,592,206.2c1,.82,1.93,1.63,2.89,2.34l3.1,2.24,6.26,4.43c8.39,5.87,16.89,11.68,25,18.12a136.53,136.53,0,0,1,22.38,21.79A128.91,128.91,0,0,1,668,281.86,120.15,120.15,0,0,1,676.89,312c3.33,20.78,1.06,42.21-5.24,62.1s-16.18,38.54-28.28,55.39a236.33,236.33,0,0,1-42.67,45c-4,3.29-8.18,6.36-12.39,9.38s-8.56,5.84-13,8.5a205.85,205.85,0,0,1-27.65,14.12c-19.12,7.89-39.7,12.79-60.48,12.61a1.37,1.37,0,0,1,0-2.73Z"/><path class="cls-8" d="M420.08,526.41a134.31,134.31,0,0,0,13.55-10.85,130.84,130.84,0,0,0,12-12.56c.91-1.12,1.87-2.2,2.74-3.36l2.64-3.45c1.68-2.36,3.38-4.7,4.93-7.15a156.06,156.06,0,0,0,8.66-15c10.5-20.65,16.75-43.36,19.35-66.35.67-5.75,1.06-11.53,1.26-17.31s.17-11.57-.14-17.35a130.22,130.22,0,0,0-2-17.08,118.68,118.68,0,0,0-4.42-16.56,115.58,115.58,0,0,0-15.95-30.22A151.1,151.1,0,0,0,439.25,284c-4.35-3.78-8.89-7.34-13.57-10.72s-9.47-6.63-14.38-9.72-9.93-6-15-8.83-10.24-5.51-15.43-8.26c-10.36-5.49-20.74-11.12-30.71-17.54a157.82,157.82,0,0,1-27.86-22.23,95.11,95.11,0,0,1-19.86-29.8,92.06,92.06,0,0,1-6.86-35.06,118.2,118.2,0,0,1,5.48-35.13,164.9,164.9,0,0,1,14.18-32.44,1.37,1.37,0,0,1,2.4,1.33,161.79,161.79,0,0,0-13.28,32.09,116.79,116.79,0,0,0-4.81,34.11,87.82,87.82,0,0,0,7,33.37,90.38,90.38,0,0,0,19.27,28.05c8.1,8.11,17.48,15,27.24,21.14s20.09,11.63,30.47,17c20.92,10.48,41.73,22.38,59.68,38.07a151.62,151.62,0,0,1,24.21,26.3,121.3,121.3,0,0,1,16.45,31.84,124.28,124.28,0,0,1,4.48,17.4,135.53,135.53,0,0,1,1.89,17.81c.27,5.93.23,11.86,0,17.78s-.71,11.83-1.48,17.71c-3,23.48-9.64,46.6-20.67,67.6A154.33,154.33,0,0,1,459,491.08c-1.63,2.47-3.42,4.84-5.18,7.23L451,501.79c-.91,1.17-1.92,2.26-2.87,3.4a134.13,134.13,0,0,1-12.48,12.64,137.15,137.15,0,0,1-14.06,10.85,1.37,1.37,0,0,1-1.55-2.25Z"/><path class="cls-8" d="M412.46,46.63c1.33,4.4,2.62,8.82,3.83,13.25s2.44,8.86,3.59,13.3,2.32,8.89,3.36,13.36,1.89,9,2.72,13.5l0,.23a2.56,2.56,0,0,1-1.45,2.79l-11.44,5.22c-3.83,1.7-7.66,3.4-11.54,5a1.38,1.38,0,0,1-1.25-2.44c3.58-2.2,7.2-4.31,10.82-6.42l10.93-6.21-1.41,3c-1.2-4.43-2.38-8.87-3.37-13.35s-1.84-9-2.73-13.5-1.7-9-2.5-13.55-1.57-9.06-2.27-13.6a1.37,1.37,0,0,1,2.67-.6Z"/><path class="cls-9" d="M383.2,476.86Q387,480,390.85,483C388.26,481,385.71,479,383.2,476.86Z"/></svg>