<svg id="Layer_1" data-name="Layer 1" xmlns="http://www.w3.org/2000/svg" viewBox="0 0 960 560"><defs><style>.cls-1{fill:#4f2a00;}.cls-2{fill:#e3dfca;}.cls-3{fill:#fffdf2;}.cls-4{fill:#ffa792;}.cls-5{fill:#ff9880;}.cls-6{fill:#b3d1ff;}.cls-7{fill:#5a57d4;}.cls-8{fill:#5553c9;}.cls-9{fill:#ff7757;}.cls-10{fill:#ff6a47;}.cls-11{fill:#233940;}</style></defs><title>man, people, person, avatar, read</title><path class="cls-1" d="M707,65.71c26.49,4.31,71.26,15.09,98.39,40.86a26.94,26.94,0,0,1,4.86,32.89l-25.17,44.08A26.9,26.9,0,0,1,746,192c-15.43-11.17-38.06-24.13-66.12-30.51a27,27,0,0,1-19.21-36.26L677.8,82.3A26.87,26.87,0,0,1,707,65.71Z"/><path class="cls-2" d="M801.65,130.82l-25.89,45.33a27.67,27.67,0,0,1-40.25,8.7A200.26,200.26,0,0,0,709,168.61a178.45,178.45,0,0,0-41.45-15.14,27.72,27.72,0,0,1-19.76-37.29L665.39,72A27.63,27.63,0,0,1,695.46,55c17.16,2.8,41.8,8.23,64.65,18.5,13.41,6,26.22,13.73,36.54,23.53A27.71,27.71,0,0,1,801.65,130.82Z"/><path class="cls-3" d="M759.15,72.94c-7.64,12.66-23.16,39.17-40.26,73.2-2.64,5.24-10.56,3.91-11.22-1.92l0-.18c-2-18.5-11-22.75-11-22.75s-.21.23-.31.34c1.59-.08,2.65,1.25,2.82,4.32.93,17.19-3,24.48,7.69,38.22a172.59,172.59,0,0,0-37.74-13.44,27,27,0,0,1-19.21-36.26l17.15-42.93A26.87,26.87,0,0,1,696.29,55C713,57.67,736.93,63,759.15,72.94Z"/><path class="cls-4" d="M744.4,188.54S765.29,400,644.65,437.79c-82.67,25.92-125-28-125-28s69.5-42.75,59.5-97.5c0,0,31.33,54.75,74.5-10,0,0,29.65-54,26.25-98s-10.2-30.82-2.5-51,9.31-30.45,19.25-32c0,0,4.68,6.8,3.25,26.5,0,0,3,12.24,11.5,22C716.48,175.61,744.4,188.54,744.4,188.54Z"/><path class="cls-5" d="M742.3,284c-7.32,58.95-28,121.8-80.38,146-51.71,23.92-91.48,13.45-119.06-4.24,20,6.51,46.45,8.95,79.29-1.35C695,401.64,726.57,334,740.12,284Z"/><path class="cls-6" d="M581.57,317c5.66-6.05,3.09-27.19,3.52-34.94,6.53-117.14-71.23-221.66-181-259.84-30.39-10.57-69.54-5-86.43,22.36-7.37,11.95-9.66,26.52-17.27,38.32-12.23,19-35.31,27.11-55.47,37.32-35.55,18-66.18,46.4-84.55,81.76-58,111.71,41.87,292.87,177.79,265C464.42,441.19,580.22,318.44,581.57,317Z"/><path class="cls-7" d="M522.36,410.75q-3.48,2.4-7.23,4.78Q509,419.48,502,423.38a363.62,363.62,0,0,1-39.33,18.91,568.18,568.18,0,0,1-70.54,23.42q-9,2.4-18.6,4.71-14.44,3.47-27.35,5.45C151.62,506.13,212.15,297,212.15,297s26-64,71-68c26.61-2.36,96.2-6.47,148.65-9.44l5.16-.29,33.87-1.89c34.7-1.91,67.55,17,82.34,48.45.33.72.66,1.44,1,2.17,18,41,27.41,49,27.41,49S590.72,363.78,522.36,410.75Z"/><path class="cls-4" d="M498.63,220.67c-9.62-1-18.08,3.91-16.16,15.48a136.78,136.78,0,0,1,1.65,15.56l-29.72-8.17s5.6-54.66,10.75-40.75C468.65,212.25,487.15,218,498.63,220.67Z"/><path class="cls-8" d="M522.65,411l-7.52,4.49L502,423.38a363.62,363.62,0,0,1-39.33,18.91c-7.09,1.58-13.64,1.52-14.52-3.75-2-12,37-16.5,22.5-45s9.5-69.5,15-41.5c5.19,26.42,33.53,55.52,36.71,58.71Z"/><path class="cls-4" d="M507.9,222.54l-.45.56c-.67-.28-1.36-.55-2.05-.81l-1.14-.41C506.52,222.33,507.9,222.54,507.9,222.54Z"/><path class="cls-4" d="M292,228.92c-.38,0-.34-.61,0-.62,12.45-.36,52.81-4.63,62.08-44.25,11-47,79-55,79-55l32,43s0,25-13,29-91,74-91,74S345.9,232,292,228.92Z"/><path class="cls-8" d="M437.4,357.29c-23.25,8.75-40.42,3.92-44.5,44-2.52,24.78-1.73,49.31-.77,64.42q-9,2.4-18.6,4.71-14.44,3.47-27.35,5.45L359.4,331.29,383,294.94c3.94,12.33,12.67,22.38,30.94,27.35,17.71,4.82,31,4.14,41-.08C455.37,324.45,459.58,348.94,437.4,357.29Z"/><path class="cls-9" d="M484.4,251.79c.06,24.92-3.65,59.5-29.46,70.42-10,4.22-23.33,4.9-41,.08-18.27-5-27-15-30.94-27.35-9.75-30.49,9.78-74.95-13.06-91.15-32.08-22.75-41.25-21.92-32-54S372.65,83,409.9,83s59.08,9.5,44.5,50.75c-9.53,26.95-27.63,22.95-39,16.94-9.92-5.22-22.37-2.81-29.06,6.2-4.42,6-5.54,13.73,3.59,22.86,18.62,18.62,32.6,29.24,58.81,18.07A19.45,19.45,0,0,1,474,207.55C479.15,218.75,484.36,234.36,484.4,251.79Z"/><path class="cls-10" d="M458.9,309.29c-16.08,9.42-4,12.75-4,12.75s0,.06,0,.17c-10,4.22-23.33,4.9-41,.08-18.27-5-27-15-30.94-27.35L431.8,219.6l3.6-5.56s.58,2.08,1.56,5.27C439.91,229,446.44,249,450.9,252,456.82,256,475,299.87,458.9,309.29Z"/><path class="cls-4" d="M430.4,290.54c-18.21,10.27-46.86,61.14-52.63,96.12s-6.37,32.25-4.24,83.76-61,86.85-93.63,63.62-66.12-61.2-77-157.75c0,0,20.4-33.49,62-30.94,1.34.08,2.7.2,4.09.36,20.93,2.41,20,6.6,35.68-33.17,3.26-8.26,7.28-17.35,12-26.65,8.7-17.32,19.69-35.4,32.29-50.35,0,0,13.73-18.74,5.75-47.25l4.1-5.55s13.43,2.42,22.9,23.55,19.75-7.75,35.75-7.5c5.45.09,18.75,4.92,18,25-.6,16,6.61,30.68,6.61,30.68S448.61,280.27,430.4,290.54Z"/><path class="cls-11" d="M497.66,376.63c.63,1.1,1.33,2.24,2,3.34s1.44,2.21,2.19,3.29q2.25,3.26,4.67,6.4l.31.88a1.49,1.49,0,0,0-.1-.49,1.52,1.52,0,0,0-1.42-1l1.21.61a149.08,149.08,0,0,0,32.6,31.27,115.38,115.38,0,0,0,40.9,18.14,111.34,111.34,0,0,0,22.27,2.39l5.61-.09c1.87-.06,3.73-.29,5.59-.43l2.8-.24c.93-.1,1.85-.28,2.78-.41l5.55-.86a144.75,144.75,0,0,0,21.67-6c1.76-.65,3.54-1.27,5.29-1.94l5.18-2.25a96.62,96.62,0,0,0,10.08-4.88,109.11,109.11,0,0,0,33.33-29.27A166.81,166.81,0,0,0,722,355.82a261.47,261.47,0,0,0,12.94-43.45q2.35-11.13,4-22.42l.8-5.64c.26-1.89.43-3.78.66-5.67l1.27-11.34.68-1.47a2.31,2.31,0,0,0-.68,1.63v-.2a531.56,531.56,0,0,0,2.18-53.4c-.07-8.92-.35-17.83-.78-26.75s-1.07-17.83-2-26.66v0a1.37,1.37,0,0,1,2.72-.33c1.2,8.94,2,17.85,2.68,26.81s1.07,17.92,1.28,26.89a535.83,535.83,0,0,1-1.34,53.86v-.2a2.47,2.47,0,0,1-.7,1.69l.68-1.47-1.1,11.48c-.19,1.91-.34,3.83-.57,5.74l-.72,5.73c-1,7.63-2.23,15.24-3.75,22.8A267.11,267.11,0,0,1,727.53,358c-5.66,14.42-12.93,28.38-22.52,40.77a112.81,112.81,0,0,1-35.39,30.57,102,102,0,0,1-10.6,5l-5.37,2.26c-1.82.68-3.67,1.3-5.5,2a150.13,150.13,0,0,1-22.55,6l-5.79.84c-1,.13-1.93.3-2.9.4l-2.92.22c-1.95.12-3.89.35-5.85.39l-5.86,0A115.94,115.94,0,0,1,579,443.66a119.71,119.71,0,0,1-42.18-19.45,151.66,151.66,0,0,1-32.74-32.68l1.21.61a1.54,1.54,0,0,1-1.43-1,1.51,1.51,0,0,1-.1-.5l.31.88q-2.4-3.25-4.63-6.63-1.11-1.69-2.17-3.42c-.71-1.16-1.39-2.3-2.06-3.53a1.37,1.37,0,0,1,2.39-1.33Z"/><path class="cls-8" d="M316.61,285.89c-4.68,9.3-8.7,18.39-12,26.65C289,352.31,289.9,348.12,269,345.71c-1.39-.16-2.75-.28-4.09-.36,4.61-12.07,4.94-26.84-.73-39.31-7.5-16.5,2.5-45,24-47C308.82,257.12,319.78,276,316.61,285.89Z"/><path class="cls-5" d="M316.44,286.27c-2.92,12.68-10.62,24.84-15.34,37-5.31,13.68-9.68,27.78-11.8,42.33a142.52,142.52,0,0,0,1.83,50.78c1.42,6.52,6.07,14.67,3.81,21.06-2.37,6.73-10.7,10.75-17.25,8-5.25-2.22-8.81-7.16-11.61-12.12-16.13-28.6-12.35-58.56-1.2-88,1.34.08,2.7.2,4.09.36,20.93,2.41,20,6.6,35.68-33.17C308.18,303.62,312.09,294.82,316.44,286.27Z"/><path class="cls-11" d="M429.35,203.38a8.13,8.13,0,0,1,3.32,2.17,13.13,13.13,0,0,1,2,3.08,27.66,27.66,0,0,1,2,6.58,60.28,60.28,0,0,1,.88,6.66c.19,2.22.23,4.46.37,6.57a90.14,90.14,0,0,0,5.48,25.08,30.19,30.19,0,0,1,1.88,13.61,35.42,35.42,0,0,1-4.06,13.1,54.78,54.78,0,0,1-7.86,11q-2.27,2.5-4.78,4.75a59,59,0,0,1-5.29,4.29l.27-.22a118.51,118.51,0,0,0-7.87,9.09q-3.75,4.76-7.17,9.78A199.74,199.74,0,0,0,396.2,339.8a195.07,195.07,0,0,0-16.52,45.5,202.19,202.19,0,0,0-3.89,23.92,206.09,206.09,0,0,0-.87,24.21l.24,6.06c.07,2,.3,4,.45,6,.3,4,.75,8.23.85,12.4A111.32,111.32,0,0,1,376,470.5a104.15,104.15,0,0,1-2,12.43A99.6,99.6,0,0,1,370.34,495,88,88,0,0,1,365,506.49a76.72,76.72,0,0,1-15.66,19.91,63.71,63.71,0,0,1-21.85,13.13,58.26,58.26,0,0,1-25.45,2.9,65.57,65.57,0,0,1-24.31-7.82,91,91,0,0,1-10.64-7c-.84-.64-1.65-1.32-2.47-2l-1.23-1-1.18-1-2.36-2.1-2.26-2.2a129.57,129.57,0,0,1-16-19.32A186.63,186.63,0,0,1,229,478.51c-3.73-7.41-7.05-15-10-22.71s-5.55-15.56-7.89-23.47a308.57,308.57,0,0,1-10.16-48.46l-1.15-12.36-.38-12.42c0-.52,0-1,0-1.55l.06-1.55.11-3.11.23-6.22c0-2.08.34-4.13.53-6.2l.65-6.19.16-1.55.27-1.53.54-3.07L203,322c.4-2,1-4,1.45-6.06s1-4,1.54-6a153.53,153.53,0,0,1,8.93-23.26,140.84,140.84,0,0,1,12.66-21.45l3.71-5c1.29-1.63,2.65-3.2,4-4.8.68-.79,1.3-1.61,2-2.37l2.17-2.29,1.08-1.15,1.16-1.07,2.32-2.14a75,75,0,0,1,21.44-13.11,75.4,75.4,0,0,1,71.83,8.94,72.75,72.75,0,0,1,27.61,40.63v0a1.37,1.37,0,0,1-2.65.71,69.67,69.67,0,0,0-26.93-38.64A71.83,71.83,0,0,0,267,237a70.83,70.83,0,0,0-20.12,12.55l-2.17,2-1.08,1-1,1.09-2,2.18c-.68.72-1.29,1.54-1.94,2.31-1.27,1.57-2.58,3.1-3.81,4.69l-3.55,4.88a136.23,136.23,0,0,0-12.07,20.87,148.7,148.7,0,0,0-8.45,22.58c-.55,1.93-1,3.91-1.44,5.86s-1,3.9-1.35,5.88l-1,6-.5,3-.25,1.49-.14,1.5-.58,6c-.16,2-.47,4-.46,6l-.17,6-.09,3,0,1.51c0,.5,0,1,0,1.51l.45,12.1,1.2,12.07a303,303,0,0,0,10.27,47.44,283.54,283.54,0,0,0,17.69,45.16,180.69,180.69,0,0,0,12.2,20.8,123.61,123.61,0,0,0,15.24,18.45l2.14,2.08,2.22,2,1.11,1,1.15.93c.77.62,1.53,1.26,2.31,1.86a85,85,0,0,0,9.88,6.46,61.06,61.06,0,0,0,22.08,7.23,52.43,52.43,0,0,0,22.93-2.46,58.07,58.07,0,0,0,20-11.86,71.24,71.24,0,0,0,14.66-18.4,82.61,82.61,0,0,0,5.06-10.74,94.36,94.36,0,0,0,3.51-11.38,99,99,0,0,0,2-11.76,106.19,106.19,0,0,0,.52-11.94c-.07-4-.45-7.9-.75-12.09-.13-2.07-.36-4.12-.42-6.19l-.21-6.21a210.87,210.87,0,0,1,1.06-24.8,206.89,206.89,0,0,1,4.15-24.47,199.51,199.51,0,0,1,17.2-46.42,203.9,203.9,0,0,1,12.78-21.24q3.54-5.1,7.41-10a118.23,118.23,0,0,1,8.27-9.4,1.67,1.67,0,0,1,.22-.19l0,0a55.78,55.78,0,0,0,4.93-3.91q2.39-2.1,4.56-4.43a51.09,51.09,0,0,0,7.44-10.17,31.87,31.87,0,0,0,3.8-11.73,26.73,26.73,0,0,0-1.56-12.14,93.32,93.32,0,0,1-5.37-26c-.12-2.25-.13-4.38-.29-6.52a57.44,57.44,0,0,0-.76-6.34,24.93,24.93,0,0,0-1.75-5.92,10.41,10.41,0,0,0-1.51-2.43,5.42,5.42,0,0,0-2.07-1.42l-.08,0a1.37,1.37,0,0,1,.89-2.58Z"/><path class="cls-11" d="M289.86,416.74a81.19,81.19,0,0,1-4-17.31l-.42-4.42c-.1-1.48-.12-3-.19-4.43s-.06-3,0-4.43,0-3,.12-4.43a167.3,167.3,0,0,1,1.94-17.57c1-5.79,2.18-11.56,3.65-17.25s3.1-11.33,4.93-16.9,3.8-11.09,5.9-16.56,4.35-10.88,6.68-16.25,4.81-10.68,7.4-15.92,5.28-10.45,8.12-15.57c1.43-2.56,2.85-5.12,4.38-7.64s3.21-5.09,4.94-7.47c3.45-4.81,7.08-9.35,10.45-14,1.67-2.32,3.3-4.66,4.78-7a65.25,65.25,0,0,0,4-7.37c.51-1.27,1.06-2.55,1.47-3.83a35,35,0,0,0,1-3.93,32.65,32.65,0,0,0,.43-8.12,61.45,61.45,0,0,0-1.22-8.33,37.05,37.05,0,0,1-1.06-9.15,10.5,10.5,0,0,1,1.42-5.12,6.28,6.28,0,0,1,1-1.19,7.73,7.73,0,0,1,1.24-.94,12.26,12.26,0,0,1,1.39-.6,5.85,5.85,0,0,1,1.59-.24,9.36,9.36,0,0,1,5.07,1.72,24.28,24.28,0,0,1,3.64,3c4.35,4.21,7.73,9.13,11.13,13.71l0,0a1.37,1.37,0,0,1-2.16,1.68c-1.9-2.33-3.61-4.59-5.48-6.78a61,61,0,0,0-5.85-6.13,21.83,21.83,0,0,0-3.21-2.42,5.91,5.91,0,0,0-3.06-1.05,2.07,2.07,0,0,0-.56.1c-.19.11-.42.18-.6.28a2.74,2.74,0,0,0-.86.91,6.83,6.83,0,0,0-.71,3.22,33.54,33.54,0,0,0,1.21,8.09,65.75,65.75,0,0,1,1.55,8.88,37.26,37.26,0,0,1-.23,9.27,39.74,39.74,0,0,1-1,4.55c-.43,1.5-1,2.92-1.53,4.35a83.8,83.8,0,0,1-8.88,15.61c-3.37,4.84-6.9,9.47-10.13,14.17-1.64,2.36-3.11,4.72-4.53,7.17s-2.83,5-4.21,7.54q-4.11,7.62-8,15.36C311,304.62,301.9,326,295.7,348.16c-1.58,5.54-2.87,11.14-4,16.77a163.13,163.13,0,0,0-2.33,17,110,110,0,0,0-.1,17.13,78.19,78.19,0,0,0,3.19,16.75v0a1.37,1.37,0,0,1-2.59.87Z"/><path class="cls-11" d="M429.77,324.18a63.21,63.21,0,0,0,12.3-.29,41.83,41.83,0,0,0,11.71-3.23,38,38,0,0,0,10.11-6.57,43.36,43.36,0,0,0,7.72-9.33,68.4,68.4,0,0,0,8.52-22.91,118,118,0,0,0,2-24.68c-.07-4.14-.31-8.29-.76-12.4-.22-2.06-.48-4.11-.8-6.16a32.37,32.37,0,0,1-.63-6.73,14.58,14.58,0,0,1,2.18-7.06,13.76,13.76,0,0,1,5.61-4.94,18.76,18.76,0,0,1,6.93-1.79,24.66,24.66,0,0,1,3.49,0,12.14,12.14,0,0,1,1.85.21c.61.12,1.16.26,1.67.38,16.89,4.53,31.45,15.74,41.81,29.44a170.88,170.88,0,0,1,13.84,21.56c4.12,7.41,7.95,14.92,12,22.25a200.82,200.82,0,0,0,13,21.19c.61.82,1.2,1.69,1.83,2.47l1.89,2.32c.61.79,1.35,1.45,2,2.18l1,1.07c.35.35.74.65,1.1,1a36.26,36.26,0,0,0,9.7,6.46A30.48,30.48,0,0,0,611,331.4a29.12,29.12,0,0,0,11.18-1.82l1.34-.52.67-.26c.22-.1.43-.22.64-.33l2.56-1.34c.82-.52,1.62-1.08,2.43-1.61a19.3,19.3,0,0,0,2.33-1.78,58,58,0,0,0,8.46-8.5,94.81,94.81,0,0,0,7.12-9.91c2.17-3.48,4.17-7.09,6.07-10.78,3.83-7.36,7.25-15,10.93-22.65l-.11.27a263.46,263.46,0,0,0,8.18-29,195.69,195.69,0,0,0,4.4-29.77c.57-9.94.22-20-2.67-29.35a50.22,50.22,0,0,1-1.73-7.85,54.44,54.44,0,0,1-.44-8,60.67,60.67,0,0,1,.65-7.9,67.37,67.37,0,0,1,1.56-7.73,73.45,73.45,0,0,1,2.35-7.49,75.14,75.14,0,0,1,3.08-7.22,58.73,58.73,0,0,1,8.57-13.29,25.56,25.56,0,0,1,3-2.88,13.53,13.53,0,0,1,1.9-1.25,6.79,6.79,0,0,1,2.58-.82,4.16,4.16,0,0,1,1.73.18,4.09,4.09,0,0,1,1.58,1,5.66,5.66,0,0,1,1.39,2.55,11.19,11.19,0,0,1,.35,2.28l.07,2c.2,5.18-.13,10.36-.13,15.32a28.83,28.83,0,0,0,3.12,13.93l.4.81.47.78L706,160c.71,1,1.38,2,2.14,3l2.35,3a37.26,37.26,0,0,1,2.33,3.25,35.07,35.07,0,0,1,5.2,15,38.48,38.48,0,0,1,0,7.93,35.1,35.1,0,0,1-1.62,7.82,1.37,1.37,0,0,1-2.61-.85l0-.09a32.69,32.69,0,0,0,1.33-7.14,35.51,35.51,0,0,0-.15-7.32,31.91,31.91,0,0,0-5-13.55,34,34,0,0,0-2.17-2.92l-2.45-3c-.82-1-1.57-2.11-2.34-3.18L702,160.24l-.53-.85-.47-.89a28.29,28.29,0,0,1-2.85-7.57,38.77,38.77,0,0,1-.87-7.94c-.06-5.22.2-10.23-.05-15.22l-.09-1.85a7.32,7.32,0,0,0-.24-1.48,1.88,1.88,0,0,0-.38-.78c-.08,0,.08,0-.17,0a5.8,5.8,0,0,0-2.28,1.25,21.66,21.66,0,0,0-2.46,2.43,54.76,54.76,0,0,0-7.77,12.41,70.88,70.88,0,0,0-2.83,6.86,69,69,0,0,0-2.13,7.1c-2.35,9.55-2.76,19.7.24,28.86a69.85,69.85,0,0,1,3,15.51,114.59,114.59,0,0,1,.23,15.61,196,196,0,0,1-4.21,30.65,268.51,268.51,0,0,1-8.12,29.81,2.1,2.1,0,0,1-.09.22l0,.05c-3.57,7.56-6.93,15.3-10.81,22.91-1.95,3.8-4,7.56-6.28,11.23a100.87,100.87,0,0,1-7.56,10.59,61.94,61.94,0,0,1-9.3,9.37,23.84,23.84,0,0,1-2.69,2c-.95.62-1.88,1.26-2.84,1.86l-3,1.57c-.25.13-.5.27-.76.38l-.8.31-1.61.62a35.19,35.19,0,0,1-13.57,2.14,36.49,36.49,0,0,1-13.26-3.37,42.09,42.09,0,0,1-11.17-7.54c-.41-.38-.85-.73-1.24-1.13l-1.15-1.21c-.75-.82-1.58-1.58-2.25-2.46l-2.08-2.59c-.69-.87-1.27-1.75-1.91-2.62a206.36,206.36,0,0,1-13.25-21.88c-8-14.89-15.05-30.17-25-43.3a97.4,97.4,0,0,0-8-9.3,78.27,78.27,0,0,0-9.25-8c-1.62-1.23-3.35-2.31-5.05-3.42s-3.51-2.07-5.34-3l-1.36-.7-1.4-.63-2.79-1.25-1.39-.62-.17-.08-.18-.08-.27-.13a5.29,5.29,0,0,1-.58-.36c-.1-.07-.16-.11-.08-.06a1.44,1.44,0,0,0,.27.1l.27.05a.81.81,0,0,0,.19,0,15.13,15.13,0,0,1-3.69-.62c-.51-.13-1-.26-1.4-.34a7.71,7.71,0,0,0-1.28-.16,19.94,19.94,0,0,0-2.81,0,14.12,14.12,0,0,0-5.24,1.27A9.13,9.13,0,0,0,486,227.3a10,10,0,0,0-1.53,4.86A28.54,28.54,0,0,0,485,238c.3,2.12.55,4.24.76,6.37.41,4.26.61,8.52.64,12.79A121.23,121.23,0,0,1,484,282.64a72.06,72.06,0,0,1-9.38,24,46.78,46.78,0,0,1-8.48,9.93,41.28,41.28,0,0,1-11.08,7,44.87,44.87,0,0,1-12.59,3.27,66,66,0,0,1-12.9.11,1.37,1.37,0,0,1,.2-2.73Z"/><path class="cls-11" d="M340.81,142.81a67.63,67.63,0,0,1,11.3-28.52A79.15,79.15,0,0,1,374.48,93a93.33,93.33,0,0,1,28.49-12,88,88,0,0,1,15.41-2.28c2.61-.13,5.23-.15,7.85,0a68,68,0,0,1,7.86.93,44,44,0,0,1,15.12,5.53A27.83,27.83,0,0,1,460.36,97.5a30.24,30.24,0,0,1,2.11,16.29A107.55,107.55,0,0,1,459.33,129a56.35,56.35,0,0,1-6.4,14.37c-.35.56-.78,1.09-1.16,1.64s-.76,1.1-1.22,1.6a29.85,29.85,0,0,1-2.79,2.94,28.49,28.49,0,0,1-3.17,2.57,26.65,26.65,0,0,1-3.56,2,27.6,27.6,0,0,1-15.78,2.21,39.85,39.85,0,0,1-7.64-1.84,40.7,40.7,0,0,1-7.15-3.24,1.37,1.37,0,0,1,1.3-2.41l.08,0a38.6,38.6,0,0,0,13.79,4,24.24,24.24,0,0,0,13.61-2.41,22.56,22.56,0,0,0,2.93-1.81,24.29,24.29,0,0,0,2.6-2.28,27.21,27.21,0,0,0,2.31-2.61c.39-.43.68-1,1-1.43s.69-1,1-1.46a51.69,51.69,0,0,0,5.43-13.28,107.3,107.3,0,0,0,2.57-14.44,24.65,24.65,0,0,0-2-13.22,22.77,22.77,0,0,0-9-9.54,34.26,34.26,0,0,0-6.27-2.9A44.75,44.75,0,0,0,433,85.65a73.47,73.47,0,0,0-28.78.82,89.74,89.74,0,0,0-27.13,10.74,74.71,74.71,0,0,0-21.72,19.4,64.67,64.67,0,0,0-7.41,12.63,69,69,0,0,0-4.44,14h0a1.37,1.37,0,0,1-2.69-.47Z"/><path class="cls-11" d="M444.07,205.56a37.64,37.64,0,0,0,4.52,3.88,31.78,31.78,0,0,0,4.91,2.91c1.67.84,3.25,1.91,5,2.66a35.72,35.72,0,0,0,5.64,1.91h0a1.41,1.41,0,0,1,0,2.73,19.43,19.43,0,0,1-7,.19,18.24,18.24,0,0,1-6.72-2.19A23.24,23.24,0,0,1,445.2,213a19.05,19.05,0,0,1-3.46-6,1.4,1.4,0,0,1,2.31-1.44Z"/><path class="cls-11" d="M414.71,176.28a14.21,14.21,0,0,1,3.41-5.11,17.71,17.71,0,0,1,5.19-3.52,14,14,0,0,1,6.23-.8,14.29,14.29,0,0,1,5.93,1.67,1.42,1.42,0,0,1-.62,2.65h-.07a24.84,24.84,0,0,0-4.91.69c-1.56.35-3,1.06-4.42,1.5a22.37,22.37,0,0,0-4.36,1.73,25.22,25.22,0,0,0-4.13,2.75l0,0a1.41,1.41,0,0,1-2.2-1.59Z"/><path class="cls-11" d="M706.62,56.44c15.63,2.5,30.61,7.6,45.1,13.71a233.1,233.1,0,0,1,21.22,10.36c3.47,1.86,6.84,3.93,10.22,6s6.65,4.26,9.83,6.63c1.61,1.15,3.23,2.29,4.76,3.55s3.13,2.44,4.63,3.75l4.47,4c.74.69,1.51,1.49,2.23,2.27a29.47,29.47,0,0,1,4.14,33.1c-.49,1-1,1.82-1.45,2.67L810.34,145l-5.74,10.2-11.52,20.39-2.89,5.09-1.44,2.55c-.51.86-.9,1.66-1.53,2.6a29.75,29.75,0,0,1-33.89,12.94c-1-.28-2-.73-3-1.1s-1.94-1-2.91-1.43-1.82-1.15-2.73-1.73-1.59-1.14-2.39-1.72c-3.14-2.26-6.31-4.49-9.53-6.63-6.44-4.29-13-8.44-19.73-12.18a160.33,160.33,0,0,0-20.82-9.88l-1.34-.52-1.35-.45-2.71-.9c-.91-.29-1.83-.51-2.74-.76s-1.83-.53-2.75-.68l-2.77-.56-2.95-.54a58.91,58.91,0,0,1-5.87-1.52,47.17,47.17,0,0,1-11.07-5.06,34.38,34.38,0,0,1-9.13-8.2,25.54,25.54,0,0,1-5-11.3,22.35,22.35,0,0,1,1.45-12.28,1.37,1.37,0,0,1,2.55,1,19.42,19.42,0,0,0-1,10.71,22.27,22.27,0,0,0,4.71,9.72c4.66,5.72,11.49,9.48,18.65,11.58a54.91,54.91,0,0,0,5.49,1.29l2.82.46,3,.53c1,.15,2,.43,2.94.66s2,.47,2.92.75l2.86.89,1.43.44,1.4.51a164.91,164.91,0,0,1,21.66,9.72c7,3.69,13.74,7.74,20.35,12q5,3.2,9.79,6.59c.79.55,1.64,1.17,2.39,1.66s1.46,1,2.23,1.37,1.55.8,2.36,1.12,1.62.64,2.47.85A24.31,24.31,0,0,0,774.88,190a23.62,23.62,0,0,0,7.11-7.43c.47-.67,1-1.62,1.45-2.43l1.46-2.54,2.92-5.08,11.7-20.28,5.87-10.13,1.47-2.53c.49-.84,1-1.71,1.37-2.46a24.56,24.56,0,0,0,1.95-4.86,24.31,24.31,0,0,0-3.42-20.12,24.77,24.77,0,0,0-1.6-2.1c-.6-.66-1.17-1.28-1.85-1.93l-4.24-3.86c-1.42-1.28-3-2.44-4.42-3.67s-3-2.39-4.55-3.53c-3-2.36-6.27-4.47-9.45-6.64s-6.51-4.14-9.88-6A228.89,228.89,0,0,0,750.11,73.8C736,67.44,721.35,62,706.18,59.14h0a1.37,1.37,0,0,1,.47-2.69Z"/><path class="cls-11" d="M458.43,195.46c-1.69-2.15-.46-.6-.84-1.08h0l0,0,0,0,.09-.09.18-.19.35-.37.7-.74c.41-.54.84-1.05,1.24-1.59s.73-1.12,1-1.71.61-1.18.85-1.79a18.46,18.46,0,0,0,1.39-7.61,17.77,17.77,0,0,0-1.81-7.33c-.27-.57-.62-1.09-.91-1.64s-.73-1-1.09-1.52l-1.25-1.39-1.52-1.57c-4-4.22-7.8-8.71-11.6-13.17s-7.54-9-11.17-13.57a1.38,1.38,0,0,1,2-1.88c4.37,3.92,8.62,8,12.82,12s8.44,8.11,12.4,12.42l1.47,1.64c.53.65,1.06,1.3,1.56,2s.92,1.4,1.33,2.13.77,1.49,1.08,2.26a22.12,22.12,0,0,1,1.6,9.72,21.66,21.66,0,0,1-2.73,9.28c-.37.71-.88,1.35-1.31,2s-1,1.24-1.52,1.85-1.14,1.11-1.7,1.65l-.94.72-.47.35-.23.18-.12.09-.06,0,0,0h0C458.91,196,460.13,197.6,458.43,195.46Z"/></svg>