<svg id="Layer_1" data-name="Layer 1" xmlns="http://www.w3.org/2000/svg" viewBox="0 0 960 560"><defs><style>.cls-1{fill:#85f6ff;}.cls-2{fill:#96dcff;}.cls-3{fill:#43f1ff;}.cls-4{fill:#ffab91;}.cls-5{fill:#ff9e80;}.cls-6{fill:#64bdff;}.cls-7{fill:#40aeff;}.cls-8{fill:#f23d3d;}.cls-9{fill:#ff5252;}.cls-10{fill:#233940;}</style></defs><title>man, people, person, avatar, relax, pool</title><path class="cls-1" d="M760.51,421.49c-.61,1.06-1.23,2.11-1.87,3.15C721.78,484.54,629,516.75,563.7,526.32c-124.21,18.18-267-11.9-351.19-111.12-60.29-71-122-211.87-71.35-302.7C194.27,17.31,342.85,17.87,433.72,43,498,60.76,551.24,104.49,599,149.35l8,7.57c21.25,20,42.63,39.9,65.41,58.18,10.13,8.13,20.75,17.12,31.17,26.83C754,289,799.52,353.44,760.51,421.49Z"/><path class="cls-2" d="M206.73,276q2.65-2,5.47-3.73l-.09-1.46,1.68.49c2,.58,16.84-7.71,19.45-8.57a208.18,208.18,0,0,1,26.85-6.9c34-6.37,68.91-3.44,103,.95,33.33,4.29,66.89,8.09,100.06,13.47,48,7.78,93,13.07,141.54,7.6,50.18-5.65,100.52-11.73,151.12-10.22a99.5,99.5,0,0,0-6.15-28.46c-9.87-26.13-30.6-46.81-54.16-61.07C667.19,161,634.67,149.74,602.27,145c-35.38-5.21-61.92-9.54-97.55-12.55-37.52-3.16-84.46-.22-122.11.68-36.23.87-73,2.86-108.85,8.71-29.53,4.83-56.79,17-72.35,43.79A82.59,82.59,0,0,0,200,265.47,80.7,80.7,0,0,0,206.73,276Z"/><path class="cls-3" d="M703.58,241.93a196.4,196.4,0,0,0-111.35,55.75c-80.89,80.89-343.16,22.87-343.16,22.87s64.41,111.06,261,131.58c-1.26.33-2.51.7-3.76,1.07a58.55,58.55,0,0,1,3.36,12.7,18.47,18.47,0,0,1,2.38-.11c5.9.12,12,3.82,13.43,9.53,1.29,5.11-1.45,10.71-5.84,13.62s-10.08,3.36-15.21,2.16-9.76-3.95-14-7a35.31,35.31,0,0,0-7-4.49c-2.57-1.07-5.66-1.35-8.09,0a6.44,6.44,0,0,0-3,4.26c-1.34,6,2.32,7.36,4.67,9.94,1.5,1.63,2.51,4.14.63,6a4.17,4.17,0,0,1-4,1c-5.93-1.51-7.17-8.76-12.65-10.88-3.67-1.42-7.59,1.73-6.58,5.44,2,7.4,11.17,11.3,17.53,14.1a87.91,87.91,0,0,0,22.48,6.42A118.47,118.47,0,0,0,541.45,513a72.89,72.89,0,0,0,18.14-7.13l.45-.26c3.66-2.17,7.24-5.06,8.54-9.11s-.75-9.37-4.93-10.17c-3.76-.74-7.13,2.2-10.07,4.66-10.46,8.77-24.61,14.12-37.93,11.1,10.26-1.87,21-3.94,29.18-10.35,6.51-5.09,11-13,11.11-21.22q0-.61,0-1.23a13.14,13.14,0,0,1,13.12-14l5.22,0c83.75,0,143.12-12.32,184.39-30.74.64-1,1.27-2.09,1.87-3.15C799.52,353.44,754,289,703.58,241.93Z"/><path class="cls-4" d="M526.66,134h-.12c-26.81-1.69-40.31-.74-52.71,2.47l-.54.14c-5.11,1.34-10.07,3.08-15.73,5.17l-62.11-20.75c84.77-31.84,118.59-3,128.15,8.61A28.92,28.92,0,0,1,526.66,134Z"/><path class="cls-5" d="M526.66,134h-.12c-2.11-.29-32.35-4.23-52.71,2.47l-.76.25.22-.11c1.72-.79,14.27-6,50.3-7A28.92,28.92,0,0,1,526.66,134Z"/><path class="cls-2" d="M212.58,278.15l-.06-1c-1.06.7-2.09,1.44-3.11,2.2,0,.4,0,.79.08,1.18a1.69,1.69,0,0,0,2.21,1.49l.29.34c1.41,1.56,3.69-.75,2.29-2.29C213.7,279.46,213.13,278.81,212.58,278.15Z"/><path class="cls-4" d="M554.93,233.65c1.22,3.39-45.49,13.74-49.69,14.65-29.84,6.42-56.66-4.41-82.44-19.43-17.07-9.94-35.49-20.58-49.49-34.69a73.17,73.17,0,0,1-9.72-12.12,62.27,62.27,0,0,1-6.46-13.21,48,48,0,0,1-2.64-21c.84-8,11-10.79,17-14.48.22-.12.42-.26.63-.39,1.63-1.07,3.28-2.13,5-3.15C388,123.23,399.88,118,412.8,117.23c17-1,35.32,6,43.32,21.69,1.76-.67,3.21,1.95,1.44,2.89-15.85,8.35-24.48,26.66-19.32,44.1,5.71,19.26,23.23,26.51,41.26,30.45,23.79,5.18,60.77,9.26,85.1,9.11C565.37,228.75,553.75,230.41,554.93,233.65Z"/><path class="cls-6" d="M755.94,284.84a74.83,74.83,0,0,1-3.25,17.06c-4.58,14.67-18.41,28.47-35.89,40.52-30.2,20.83-71.27,36.48-94.32,42.61a466.06,466.06,0,0,1-75.94,13.36c-44.25,4.11-93.42,2.5-143.3-8.77-62.22-14.05-125.58-43.14-182-94.9,0,0-26-25.47-24.88-48.69,1.81-38.7,36.65-81.56,83.31-66a526.35,526.35,0,0,1,51.93,28.13c28.13,17.31,115.77,83.31,251,7.57,38.44-21.53,89.5-38.93,129.64-11.66C739.13,222.32,758.26,252.51,755.94,284.84Z"/><path class="cls-4" d="M566.93,174.08s12.91-35.37,55.35-36.36C657,136.9,676.39,162,676.39,180.8c0,39-78.05,13.12-78.05,13.12Z"/><path class="cls-7" d="M348.05,260a33.63,33.63,0,0,0,1.61-4.4C347.29,256.8,344.9,258.91,348.05,260Z"/><path class="cls-7" d="M546.54,398.39c-44.25,4.11-93.42,2.5-143.3-8.77A203.82,203.82,0,0,1,365.7,338c-9.48-18.67-16-38.93-18-59.83,0-.5-.1-1-.15-1.54,1.8-3.62,3.61-7.26,5.44-10.87,2.74-5.42,5.41-11.38,8.83-16.63a6.43,6.43,0,0,0,2.75-1.32c-1-7.89.28-16.53,9.37-18.24,5.43-1,11.09,1.89,15.92,4a185,185,0,0,1,20.5,10.41,1.64,1.64,0,0,1-.82,3c-6.74.57-14.22,1.21-20,5.15q-.46.31-.88.64a15.61,15.61,0,0,0-3.65,20c7.41,13,16.59,25.3,25.66,34.06a426.56,426.56,0,0,0,55.27,44.78c17.55,12,36.08,21.22,55.16,30.44,8.26,4,16.39,8.41,23.34,14.44C545.08,397.06,545.8,397.69,546.54,398.39Z"/><path class="cls-7" d="M755.94,284.84a74.83,74.83,0,0,1-3.25,17.06c-4.58,14.67-18.41,28.47-35.89,40.52-1.26-8.7.74-19.35-.9-26.61-2-9.06-7-17.83-15.39-22.33-10.11-5.39-22.18-3.39-32.88-1.27-19.62,3.9-38.82,6.13-58.83,4.09a176.87,176.87,0,0,1-30.14-5.9c-7.35-2.08-27.65-8.57-39-14.84,22.74-12.21,60.48-20.37,83.06-33.09,19.27-10.86,39.38-21.63,61.42-25.42,15.71-2.68,34.15-2.79,44.06,11.76,5.81,8.54,9.67,18.74,14.16,28Z"/><path class="cls-4" d="M378.23,187.54a28.73,28.73,0,0,1-9.67,9.61c-14.76,8.88-32.49,4.3-47.84-.44a1.78,1.78,0,0,1-2.47,1.77c-3.54-1.59-7.09-3.21-10.61-4.88-14.39-6.81-28.44-14.5-39.76-25.36q-2.34-2.24-4.5-4.66c-.73-.8,2.16-5.88,3.46-6.06,29.35-4.17,39.24-35.57,45.82-60.1a1.5,1.5,0,0,1,1.07-1.1,1.61,1.61,0,0,1,2-2c29.56,8.58,59.92,33,66.73,64.37q.31,1.41.52,2.86C384.29,170.5,382.9,180,378.23,187.54Z"/><path class="cls-8" d="M495,218.95s34.32,1.76,72-48.51c14.61-19.48,42.17-15.55,56.93-.79s18.37,30.17,18.37,30.17l-99,53.78-13.77-11.81S533.66,227.48,495,218.95Z"/><path class="cls-5" d="M426,218.24c-3.51-10.93-11.78-18.61-20.1-26.09-8.73-7.84-14.64-16.68-17.24-28.22C386,152,385,139.79,377,129.88c-1.68,1-3.32,2.08-5,3.15-.21.13-.41.27-.63.39,7.87,10.48,14.56,22.15,10.19,34.71-3.51,4-9,4.7-14,3.89a53.29,53.29,0,0,1-10.52-3.17,84,84,0,0,0-8.42-2.89c-10.68-2.79-18.46,1.3-27.41,6.71-5.49,3.31-11,5.84-17.59,5.54-7.1-.32-14-2.91-20.65-5.07l-15.19-4.9c11.32,10.86,25.37,18.56,39.76,25.36,14.66-14.33,36.79-16.69,56-11.53l1.07.3a87.23,87.23,0,0,1,13.57,5.17c16.68,7.89,31.17,20.39,45.05,32.29C424.43,220.81,426.53,219.9,426,218.24Z"/><path class="cls-4" d="M522.5,415.33c-4.43-1.4-9.73-1.46-14.48-3a96.75,96.75,0,0,1-14.69-6.49c-16.32-8.33-29.5-21.15-43-33.41-28-25.4-54.69-53-70.24-88A105.84,105.84,0,0,1,371.59,234c.2-2.48,1.84-3.51,4-2,11.36,7.63,25,10.17,38.13,13q12.58,2.67,25.33,4.41c3.43.46,38.64,2.1,38.75,2.51-.34-1.26-.25-2.29-1.52-2.88a327.11,327.11,0,0,1-36-20.39c-5.88-3.74-11.7-7.56-17.55-11.34-12.07-7.82-23.81-16.58-36.26-24a143.33,143.33,0,0,0-18-9.23c-10.85-4.54-23.12-7.57-34.79-4.57a36.8,36.8,0,0,0-12.27,5.78C276,217.92,309,297.57,331.74,334.36a230.86,230.86,0,0,0,124.88,97.48c13.95,4.44,21.24,18,11.6,21.2-4.4,1.47-8.94-4.25-10.55-6.37a2.6,2.6,0,0,0-4.58,2.24c1.89,7.77,12.31,21.54,19.39,25.12l.55.08c12.8,1.47,24.82-5.6,31-16.39a77.61,77.61,0,0,1-.67,22.66c-1.22,6.82,9.2,9.74,10.43,2.88a90.64,90.64,0,0,0-9-58.56,47.23,47.23,0,0,0,11.65-.13,2.62,2.62,0,0,1,.8,0C523.37,425.62,531,418,522.5,415.33Z"/><path class="cls-4" d="M690.08,243.28s65.93,57,59.84,143.5c0,0-13.83,30.58,10.59,34.71s40.79,14,56.41,23.13,21,10.22,15.62-16.82-29.21-27-35.7-95.21S784.47,147.92,676,167.22L642.13,219Z"/><path class="cls-9" d="M351.69,60.42c-18,11-26.09,31.06-33.29,50a0,0,0,0,0,0,0l-.68,1.8c-.12.29-.23.58-.34.88-1.93,5.06-3.93,10.05-6.13,14.88q-.36.8-.75,1.59a115.47,115.47,0,0,1-8,14.2c-1.37,2.1-2.83,4.14-4.36,6.12a95.18,95.18,0,0,1-8.58,9.74,19,19,0,0,1-7.86,5c-.72.26-1.51.48-2.36.69a24.22,24.22,0,0,1-10.5.42c-7.7-1.47-13.66-7-17.81-13.43-5.3-8.16-10.07-17.24-11.72-26.46a33.19,33.19,0,0,1,1.14-17c10.8-30.79,46.94-41.8,75.7-31.34,1,.37,2,.76,3,1.19l.49.21a88.23,88.23,0,0,1,29.13-20.78l1.23-.54a1.67,1.67,0,0,1,.3-.1,1.6,1.6,0,0,1,.5,0,1.58,1.58,0,0,1,1,.37A1.5,1.5,0,0,1,351.69,60.42Z"/><path class="cls-9" d="M690.08,243.28l-.35.58c-26,43.28-94.13,66-203.41,7.57l-.37-.21c39.88-4.59,77.53-22.15,111.6-43.64,18.24-11.5,35.84-24.25,55.51-33.08a110.62,110.62,0,0,1,22.89-7.3C682.88,173.75,712.51,205.09,690.08,243.28Z"/><path class="cls-10" d="M717,343.73c-33.48,20.1-69.52,36.13-107.25,46.5a393.32,393.32,0,0,1-116.12,14,435.58,435.58,0,0,1-115.41-19.53A521.55,521.55,0,0,1,271,337.49c-17-9.54-33.43-21-47.2-35.21a121.16,121.16,0,0,1-18.12-23.59,81.11,81.11,0,0,1-10.23-28.17,70.63,70.63,0,0,1,1.88-30l1.21-3.62.62-1.81.78-1.74c.52-1.16,1-2.33,1.57-3.48l1.87-3.32c.32-.55.61-1.12,1-1.65l1.08-1.57c.73-1,1.42-2.11,2.18-3.12l2.41-2.94c.41-.48.79-1,1.23-1.45l1.32-1.36a69.47,69.47,0,0,1,11.6-9.75,70.71,70.71,0,0,1,6.55-3.82c1.14-.56,2.23-1.2,3.4-1.68l3.51-1.45a35.72,35.72,0,0,1,3.59-1.24l1.81-.57a15.21,15.21,0,0,1,1.83-.51,61.26,61.26,0,0,1,7.49-1.43l1.89-.25.95-.12,1,0,3.82-.15c.32,0,.64,0,1,0l1,.05,1.91.11c1.27.1,2.56.09,3.81.31a70.73,70.73,0,0,1,14.74,3.43,106.14,106.14,0,0,1,13.79,5.89,266.5,266.5,0,0,1,25.23,15.31c8.1,5.41,16.25,10.53,24.61,15.39s17,9.22,25.73,13.26c2.19,1,4.41,1.93,6.62,2.91l3.32,1.44,3.36,1.32c2.25.86,4.47,1.8,6.74,2.61l6.81,2.39c1.13.41,2.28.78,3.43,1.12l3.45,1.06,3.45,1.06c1.15.36,2.32.62,3.48.94l7,1.81,7,1.52a188.47,188.47,0,0,0,57.19,3.13c19.07-2,37.77-7,55.68-14.07a333.2,333.2,0,0,0,51.58-26.14c16.5-10,32.32-21.6,49.78-30.88,4.37-2.32,8.8-4.48,13.4-6.45A111.88,111.88,0,0,1,668.23,166a115,115,0,0,1,29.62-4,87.44,87.44,0,0,1,29.67,4.85,64.81,64.81,0,0,1,13.63,6.78,75.38,75.38,0,0,1,11.77,9.54,99.32,99.32,0,0,1,17.58,24.24,172.25,172.25,0,0,1,11.16,27.48c3,9.37,5.39,18.92,7.48,28.49s3.78,19.22,5.32,28.87c3.06,19.31,5.25,38.71,7.56,58l.44,3.62.49,3.55c.38,2.35.79,4.7,1.3,7a103.16,103.16,0,0,0,4,13.69c3.28,8.95,7.82,17.46,12.52,26,1.19,2.13,2.33,4.27,3.55,6.31s2.48,4.21,3.68,6.37a119,119,0,0,1,6.56,13.37,49.36,49.36,0,0,1,2.36,7.28,19.48,19.48,0,0,1,.4,8.22,9.39,9.39,0,0,1-2.09,4.3,9.13,9.13,0,0,1-4.14,2.52,9.87,9.87,0,0,1-4.67.14,14.92,14.92,0,0,1-4-1.46,36.64,36.64,0,0,1-6.38-4.43l-2.79-2.28-2.84-2.16a99.12,99.12,0,0,0-12.11-7.56,97.5,97.5,0,0,0-26.85-9.52c-4.68-.94-9.64-1.56-14.53-3.25a23.69,23.69,0,0,1-7-3.72,15.73,15.73,0,0,1-5-6.62,17.82,17.82,0,0,1-1-8.12,42.73,42.73,0,0,1,1.53-7.5c.66-2.38,1.38-4.69,1.94-7s.85-4.61,1.22-7a114.09,114.09,0,0,0,.83-14.3,132.09,132.09,0,0,0-1-14.33c-.66-4.75-1.52-9.48-2.64-14.16s-2.44-9.31-4-13.86a199.07,199.07,0,0,0-26.66-51.15c-11.28-15.66-24.63-30-40.09-41.49a133.67,133.67,0,0,0-12-8,106.21,106.21,0,0,0-12.91-6.31,69,69,0,0,0-13.74-3.86,45.12,45.12,0,0,0-14.11-.24h0a1.37,1.37,0,0,1-.42-2.71,47.89,47.89,0,0,1,15,.15,71.82,71.82,0,0,1,14.35,3.94,109.06,109.06,0,0,1,13.35,6.42,136.75,136.75,0,0,1,12.37,8.08c15.85,11.68,29.48,26.12,41,42a200.78,200.78,0,0,1,27.41,52c1.63,4.65,3,9.39,4.17,14.17s2.07,9.65,2.77,14.54a135.9,135.9,0,0,1,1.12,14.79,118,118,0,0,1-.8,14.85c-.37,2.45-.65,4.93-1.27,7.41s-1.31,4.8-1.94,7.11c-1.27,4.57-2.16,9.22-.64,13a11.62,11.62,0,0,0,3.73,4.88,19.6,19.6,0,0,0,5.83,3c4.34,1.49,9.1,2.09,14,3a101.78,101.78,0,0,1,28.06,9.82A103.5,103.5,0,0,1,813,438.74l3,2.25,2.88,2.33a32.49,32.49,0,0,0,5.59,3.88,7.4,7.4,0,0,0,5.39,1,4.67,4.67,0,0,0,2-1.21,4.92,4.92,0,0,0,1-2.22,15.26,15.26,0,0,0-.41-6.25,44.86,44.86,0,0,0-2.18-6.59,114.45,114.45,0,0,0-6.36-12.81c-1.18-2.1-2.41-4.17-3.66-6.26s-2.44-4.29-3.64-6.4c-4.75-8.52-9.46-17.22-12.93-26.57a108,108,0,0,1-4.24-14.31c-.55-2.43-1-4.88-1.39-7.33l-.53-3.69-.45-3.63c-2.4-19.34-4.66-38.65-7.78-57.81-1.57-9.57-3.27-19.12-5.38-28.56s-4.43-18.83-7.43-28A166.94,166.94,0,0,0,765.62,210,93.8,93.8,0,0,0,749,187.19a63.7,63.7,0,0,0-23.39-15,81.74,81.74,0,0,0-27.72-4.42,109.21,109.21,0,0,0-28.1,3.9,106,106,0,0,0-13.43,4.62c-4.34,1.87-8.67,4-12.89,6.26-16.93,9.1-32.7,20.52-49.45,30.75a339.15,339.15,0,0,1-52.52,26.61c-18.31,7.2-37.55,12.43-57.25,14.46a194.47,194.47,0,0,1-59-3.22L418,249.61l-7.15-1.88c-1.19-.33-2.39-.6-3.57-1l-3.53-1.09-3.53-1.09c-1.18-.35-2.35-.73-3.51-1.16l-7-2.46c-2.31-.84-4.58-1.79-6.88-2.68l-3.43-1.36L376,235.42c-2.25-1-4.52-1.95-6.74-3-8.92-4.14-17.62-8.72-26.15-13.58s-16.79-10.23-24.87-15.66a261.54,261.54,0,0,0-24.64-15.08,100.67,100.67,0,0,0-13-5.62A65.27,65.27,0,0,0,267,179.28c-18.45-2.31-37.71,5.29-50.57,18.81l-1.23,1.25c-.41.41-.75.89-1.14,1.33l-2.23,2.7c-.7.93-1.33,1.91-2,2.86l-1,1.44c-.32.49-.58,1-.87,1.51l-1.72,3-1.44,3.17L204,217l-.56,1.65-1.12,3.3a65.47,65.47,0,0,0-1.83,27.83,76.07,76.07,0,0,0,9.54,26.45,116.26,116.26,0,0,0,17.31,22.67,171.25,171.25,0,0,0,21.69,18.89q5.79,4.3,11.9,8.17c4,2.6,8.27,5,12.44,7.46a517,517,0,0,0,106.1,47.11,431.4,431.4,0,0,0,114.25,19.7A390.85,390.85,0,0,0,608.87,387c37.47-10.08,73.33-25.79,106.73-45.59h0a1.37,1.37,0,0,1,1.4,2.35Z"/><path class="cls-10" d="M472.28,475.45a25.3,25.3,0,0,1-6-4.26,55.25,55.25,0,0,1-4.9-5.16,61.78,61.78,0,0,1-7.9-11.8l-.76-1.65-.67-1.72-.27-.9-.14-.45-.07-.23-.07-.33a4.18,4.18,0,0,1,5.16-4.75,4.14,4.14,0,0,1,2.29,1.52c.34.44.69.87,1,1.29a15.85,15.85,0,0,0,4.71,4.05,4.3,4.3,0,0,0,2.41.51l.54-.12.66-.25c.21-.09.4-.21.61-.31s.36-.24.54-.36a3.61,3.61,0,0,0,1.29-1.91,5.19,5.19,0,0,0-.08-2.57,13.4,13.4,0,0,0-3-5.23,25.84,25.84,0,0,0-10.77-6.95l-6.57-2.21L447,430.55c-1.1-.38-2.18-.83-3.27-1.24l-6.52-2.54-6.4-2.83A232.47,232.47,0,0,1,314.66,307.56c-7.75-17-14-34.75-17.09-53.36-.22-1.16-.33-2.33-.5-3.5s-.34-2.33-.44-3.51c-.2-2.36-.48-4.7-.54-7.08a95.53,95.53,0,0,1,.32-14.27,78.38,78.38,0,0,1,2.8-14.14,62.71,62.71,0,0,1,6-13.27c.61-1.05,1.37-2,2.05-3l1.05-1.5c.38-.48.79-.94,1.18-1.41.8-.93,1.57-1.88,2.4-2.78l2.63-2.55a27.64,27.64,0,0,1,2.78-2.38c1-.75,1.88-1.55,2.9-2.25s2.05-1.41,3.15-2a35,35,0,0,1,3.33-1.72,38.32,38.32,0,0,1,7.1-2.41c1.21-.33,2.45-.48,3.68-.71s2.47-.32,3.71-.34a53.16,53.16,0,0,1,14.58,1.36c9.45,2.16,18.18,6.12,26.43,10.62a259,259,0,0,1,23.7,15c7.63,5.33,15.07,10.85,22.54,16.2,3.74,2.67,7.5,5.27,11.33,7.65,1.89,1.16,3.92,2.31,5.91,3.46s4,2.3,6,3.41c32.09,18,66,32.89,101.42,42.67,17.73,4.73,35.77,8.8,54,9.34a135.07,135.07,0,0,0,13.61-.34,110.77,110.77,0,0,0,13.42-2,85.88,85.88,0,0,0,12.89-4,77.54,77.54,0,0,0,12-6.22,94.3,94.3,0,0,0,20.62-17.56,87.5,87.5,0,0,0,8.15-10.84A70.5,70.5,0,0,0,693.81,232c3.21-8.36,4.55-17.56,2.65-26.3a41,41,0,0,0-4.9-12.38,26.48,26.48,0,0,0-1.82-2.82c-.67-.9-1.28-1.84-2-2.7l-2.21-2.55c-.74-.85-1.58-1.65-2.36-2.48a1.37,1.37,0,0,1,1.94-1.94c6.79,6.43,12.29,14.81,14.37,24.21a44.22,44.22,0,0,1,.82,14.29A56.42,56.42,0,0,1,697,233.23,73.12,73.12,0,0,1,690.82,246a91.27,91.27,0,0,1-8.4,11.38,98.15,98.15,0,0,1-21.31,18.47,81.57,81.57,0,0,1-12.55,6.64A90,90,0,0,1,635,286.82a115,115,0,0,1-14,2.23,139.4,139.4,0,0,1-14.1.47q-7-.19-14-.93c-4.65-.53-9.28-1.18-13.88-2s-9.17-1.72-13.7-2.79-9.05-2.16-13.57-3.3c-36-9.56-70.41-24.47-102.94-42.41-2-1.11-4.06-2.25-6.08-3.4s-4-2.26-6.08-3.51c-4-2.48-7.9-5.11-11.71-7.79-7.61-5.35-15-10.89-22.54-16.14a253.17,253.17,0,0,0-23.15-14.66c-7.95-4.35-16.25-8.07-24.86-10s-17.54-1.83-25.28,1.71c-1,.46-1.92.9-2.83,1.45s-1.82,1.11-2.71,1.69-1.72,1.33-2.59,2a23.3,23.3,0,0,0-2.5,2.11l-2.37,2.26c-.74.8-1.43,1.64-2.14,2.46-.35.41-.72.82-1.06,1.24l-.94,1.34c-.61.9-1.3,1.75-1.85,2.69a57,57,0,0,0-5.47,11.92,72.7,72.7,0,0,0-2.66,13,89.92,89.92,0,0,0-.39,13.43c0,2.25.29,4.5.46,6.75.09,1.13.27,2.25.4,3.37s.25,2.25.46,3.37c2.83,17.94,8.83,35.41,16.32,52.1A227.87,227.87,0,0,0,432.46,420.32l6.26,2.83,6.38,2.56c1.07.42,2.12.88,3.2,1.26l3.24,1.14,6.55,2.29a29.4,29.4,0,0,1,12.19,8.1,16.76,16.76,0,0,1,3.73,6.73,8.58,8.58,0,0,1,0,4.29,7,7,0,0,1-2.55,3.71c-.3.2-.6.41-.91.59s-.62.33-.94.46-.63.25-1,.36-.76.2-1.15.25a7.57,7.57,0,0,1-4.29-.86,18.85,18.85,0,0,1-5.72-4.95c-.39-.47-.76-.94-1.12-1.42a.93.93,0,0,0-.53-.38,1.07,1.07,0,0,0-1.18.49,1.08,1.08,0,0,0-.12.68l0,.1.06.19.11.38.22.76.57,1.52.68,1.51a58.91,58.91,0,0,0,7.37,11.28,52.43,52.43,0,0,0,4.59,4.94,22.94,22.94,0,0,0,5.21,3.84l.08,0a1.37,1.37,0,0,1-1.21,2.45Z"/><path class="cls-10" d="M496.82,446.23a45.5,45.5,0,0,1,7.1,9.57,33.93,33.93,0,0,1,3.78,11.44l.2,1.5.1,1.51c.1,1,0,2,.07,3-.06,2-.21,4-.45,5.94l-.34,2.85c-.06.48-.08.9-.12,1.35,0,.1,0,.25,0,.3a.89.89,0,0,0,0,.14,1,1,0,0,0,.06.26,1.14,1.14,0,0,0,.76.7,1.18,1.18,0,0,0,1-.16.86.86,0,0,0,.29-.35l0-.06.06-.16.12-.32.25-.64,1-2.58c.29-.87.51-1.77.77-2.65l.38-1.33c.1-.45.17-.9.26-1.35l.5-2.71.27-2.74A24.33,24.33,0,0,0,513,467c0-.92.08-1.84,0-2.76A61,61,0,0,0,508,442.69a85,85,0,0,0-5.06-10l-.36-.6-.18-.3-.1-.17-.15-.29a5.38,5.38,0,0,1-.63-2.56,5.69,5.69,0,0,1,2.26-4.55,5.41,5.41,0,0,1,2.46-1.06,5.34,5.34,0,0,1,1.34-.05l.63.08.32,0a24.79,24.79,0,0,0,2.57.3,18.64,18.64,0,0,0,9.77-2.06,17,17,0,0,0,2.12-1.31l.45-.35s0,0,0,0a.29.29,0,0,0,0-.13.36.36,0,0,0,0-.18l-.2-.6c-.05-.16,0-.12,0-.13s0,0,0,0,.05.05,0,0a1.46,1.46,0,0,0-.44-.12l-.37,0-.71,0c-.54,0-1.08,0-1.62-.07-1.05-.12-2.11-.22-3.13-.43a47.41,47.41,0,0,1-6-1.51A84.39,84.39,0,0,1,499.94,412a160.38,160.38,0,0,1-20.18-12c-6.44-4.41-12.61-9.15-18.6-14.1s-11.79-10.11-17.42-15.45a377.85,377.85,0,0,1-31.79-33.93,264.51,264.51,0,0,1-26.64-38.16Q382.43,293.27,380,288a103.19,103.19,0,0,1-4.39-10.88c-2.46-7.42-4.19-15.29-3.52-23.3a1.37,1.37,0,0,1,2.74.18v0c-.39,7.42,1.44,14.88,4,21.95a131.82,131.82,0,0,0,9.93,20.46,260.16,260.16,0,0,0,27,36.94,397.93,397.93,0,0,0,31.94,32.9A352.4,352.4,0,0,0,483.21,395a169.62,169.62,0,0,0,19.35,11.79,78.77,78.77,0,0,0,10.21,4.39,41.82,41.82,0,0,0,5.21,1.39c.87.2,1.73.28,2.59.39.43,0,.84,0,1.27.07l.32,0,.41,0a8.62,8.62,0,0,1,1.07.1,6.84,6.84,0,0,1,2.29.78,5.51,5.51,0,0,1,2.05,2,6,6,0,0,1,.33.65c.09.22.18.48.2.55l.25.78a5.84,5.84,0,0,1,.15,2.68,5.75,5.75,0,0,1-1.09,2.49,5.64,5.64,0,0,1-1,1l-.7.52a22.42,22.42,0,0,1-2.81,1.69,24,24,0,0,1-12.58,2.51,29.91,29.91,0,0,1-3.16-.41l-.39-.07h-.09a.24.24,0,0,0-.09,0,.25.25,0,0,0-.16.06.55.55,0,0,0-.24.43.3.3,0,0,0,0,.21v0l.08.14.19.32.37.64a83.35,83.35,0,0,1,5.19,10.69,65.69,65.69,0,0,1,5,23.29c.07,1,0,2-.05,3a27.64,27.64,0,0,1-.2,3l-.36,3c-.19,1-.4,2-.61,3-.11.49-.2,1-.32,1.47L515.5,479c-.3,1-.57,1.93-.9,2.88l-1.14,2.79-.29.7-.14.35-.07.17-.13.26a4.88,4.88,0,0,1-1.61,1.78,5.11,5.11,0,0,1-4.51.58,5,5,0,0,1-3.17-3.25,4.77,4.77,0,0,1-.21-1.16,4.68,4.68,0,0,1,0-.59c0-.18,0-.27,0-.42.06-.51.1-1,.18-1.52l.43-2.87c.29-1.87.47-3.72.58-5.56,0-.92.08-1.84,0-2.75L504.5,469l-.15-1.36a30.67,30.67,0,0,0-3.14-10.46,42.59,42.59,0,0,0-6.38-9.1l0,0a1.37,1.37,0,0,1,2-1.85Z"/><path class="cls-10" d="M311.32,92.82c2.93,1.39,5.81,2.87,8.71,4.32l8.62,4.46c5.73,3,11.43,6.06,17.07,9.22q2.12,1.17,4.19,2.43c.69.42,1.39.82,2.08,1.25a25.81,25.81,0,0,1,2.27,1.53,16.69,16.69,0,0,1,6.35,15.18,18.6,18.6,0,0,1-.52,2.62l-.59,2.35q-1.18,4.71-2.46,9.4a1.38,1.38,0,0,1-2.69-.52q.53-4.83,1.19-9.65c.19-1.57.49-3.33.53-4.58a12,12,0,0,0-.57-4,11.75,11.75,0,0,0-4.66-6.15,20.34,20.34,0,0,0-1.83-1.05c-.72-.37-1.41-.78-2.12-1.18q-2.12-1.17-4.2-2.43c-5.55-3.32-11-6.76-16.49-10.22L318,100.58c-2.7-1.79-5.41-3.56-8.08-5.4a1.37,1.37,0,0,1,1.37-2.37Z"/><path class="cls-10" d="M350.82,168.42a33.62,33.62,0,0,0,3.26-1.71,30.7,30.7,0,0,0,3-2.11,28.34,28.34,0,0,0,5-5.12,51,51,0,0,0,4.27-5.85l.49-.79.42-.84c.28-.56.59-1.12.89-1.68.54-1.15,1-2.36,1.59-3.55l.08-.16a1.38,1.38,0,0,1,2.61.7c-.1,1.39-.19,2.81-.43,4.21-.15.69-.29,1.4-.46,2.1l-.25,1.05c-.11.34-.24.68-.36,1l-.75,2.05c-.3.67-.63,1.33-1,2l-.51,1c-.19.32-.41.62-.62.93a17.6,17.6,0,0,1-1.36,1.77,25.19,25.19,0,0,1-7.06,5.34,20.55,20.55,0,0,1-8.44,2.35,1.37,1.37,0,0,1-.64-2.61Z"/><path class="cls-8" d="M356.18,62.36a4.91,4.91,0,0,1-.66,1.3,14.44,14.44,0,0,1-3.13,3,87.07,87.07,0,0,0-27.39,38c-1.92,5.2-3.35,10.58-5.53,15.69s-5.36,9.17-8.71,13.37c-2.67,3.34-5.45,6.71-8.26,10.08-2.54,3.05-5.11,6.11-7.62,9.16-3.74,4.54-8,9-13.18,11.74-.72.26-1.51.48-2.36.69a24.22,24.22,0,0,1-10.5.42c-7.7-1.47-13.66-7-17.81-13.43-5.3-8.16-10.07-17.24-11.72-26.46,3.4,8.21,8.49,15.46,16.78,19.79,17.82,9.29,33.59-6.12,42.86-19.91,0-.06.11-.12.15-.18a78.16,78.16,0,0,1,5.65-24.78c.66-1.59,2.17-2.06,3-.27.62,1.34-.13,2.66-.77,3.85-2.14,4-2.75,8.46-3.33,12.89a99,99,0,0,0-1.27,13.29v0a3.31,3.31,0,0,0,6,1.93q1.12-1.44,2.11-3A54.18,54.18,0,0,0,315.81,119a76.54,76.54,0,0,0,2.58-8.52,0,0,0,0,1,0,0c1.51-6.06,2.68-12.23,5-18,3.86-9.75,10.72-18,17.08-26.27A34.92,34.92,0,0,1,347,59.51a11.06,11.06,0,0,1,3.82-2,4.72,4.72,0,0,1,1.1-.19,4.22,4.22,0,0,1,4.23,2.26A3.88,3.88,0,0,1,356.18,62.36Z"/><path class="cls-10" d="M319.61,82.78A78.12,78.12,0,0,0,301.71,77a63.24,63.24,0,0,0-18.62-1,45.44,45.44,0,0,0-17.47,5.35,52.87,52.87,0,0,0-7.54,5.29c-1.22,1-2.34,2-3.51,3.06l-1.64,1.64c-.55.54-1.1,1.08-1.59,1.67l-1.53,1.72c-.49.59-.94,1.2-1.41,1.8l-.71.9-.64.94c-.42.63-.87,1.25-1.26,1.89a37.63,37.63,0,0,0-3.75,8.15,33.93,33.93,0,0,0-.71,17.65,53.42,53.42,0,0,0,7,16.79,97,97,0,0,0,11.39,14.74c.26.28.54.6.79.84l.74.71a15.55,15.55,0,0,0,1.58,1.3c.54.42,1.15.73,1.71,1.11s1.21.63,1.85.87a17,17,0,0,0,15.67-1.3c.58-.36,1.11-.79,1.67-1.19s1-.87,1.55-1.42c1.11-1.12,2.21-2.25,3.28-3.4a123.49,123.49,0,0,0,21.52-30.75c.63-1.43,1.33-2.83,1.88-4.29l.87-2.17c.27-.73.51-1.47.77-2.21.54-1.46.95-3,1.38-4.46l1.36-4.67c.84-3.17,2.07-6.22,3.19-9.3l2-4.51c.31-.76.68-1.49,1.06-2.22l1.12-2.19A90,90,0,0,1,334.59,72a79.85,79.85,0,0,1,6.76-7.12,56,56,0,0,1,7.77-6.16A1.37,1.37,0,0,1,350.66,61l-.08.06a53.71,53.71,0,0,0-7.08,6.07,76.63,76.63,0,0,0-6.24,7.07,90.87,90.87,0,0,0-10,15.95l-1,2.13c-.34.71-.68,1.41-1,2.15l-1.77,4.37c-1,3-2.1,5.93-2.82,9l-1.22,4.61c-.42,1.6-.81,3.21-1.34,4.77-.25.79-.49,1.58-.76,2.36l-.86,2.32c-.54,1.56-1.24,3.06-1.87,4.58-5.35,12.08-13,22.89-21.77,32.6-1.09,1.22-2.21,2.41-3.34,3.6-.57.6-1.31,1.25-2,1.87s-1.45,1.14-2.22,1.65A23.07,23.07,0,0,1,275,169.75a23.71,23.71,0,0,1-10.85-1.65c-.86-.33-1.67-.79-2.5-1.2s-1.59-1-2.32-1.51a21.58,21.58,0,0,1-2.12-1.77l-1-1c-.33-.32-.57-.61-.86-.92a95.56,95.56,0,0,1-12-15.83,59.06,59.06,0,0,1-7.45-18.71,39.35,39.35,0,0,1,1.16-20.38,42.78,42.78,0,0,1,4.42-9.23,51.87,51.87,0,0,1,6.27-7.91c.56-.63,1.16-1.2,1.77-1.77l1.81-1.72c1.27-1.06,2.51-2.18,3.82-3.18a57.48,57.48,0,0,1,8.35-5.56A49.67,49.67,0,0,1,282.74,72a66.09,66.09,0,0,1,19.67,1.67,80.88,80.88,0,0,1,18.47,6.65,1.37,1.37,0,0,1-1.2,2.45Z"/><path class="cls-10" d="M311.05,152a17.15,17.15,0,0,1-.42-3.66,20.22,20.22,0,0,1,.26-3.67,18.59,18.59,0,0,1,2.72-7.16,11.05,11.05,0,0,1,1.26-1.56c.49-.46,1-.9,1.52-1.32a16.6,16.6,0,0,1,3.49-1.89,16.44,16.44,0,0,1,7.37-1.11,1.38,1.38,0,0,1,.53,2.63l-.21.1c-.49.23-1,.43-1.46.64a9.35,9.35,0,0,0-1.4.62c-.44.25-.86.51-1.29.73a9.71,9.71,0,0,0-1.17.82,13.84,13.84,0,0,0-2,1.83c-.28.36-.54.72-.84,1a3.29,3.29,0,0,0-.41.52l-.42.53a19.22,19.22,0,0,0-2.92,4.88,36.15,36.15,0,0,0-1.85,5.89l0,.14a1.38,1.38,0,0,1-2.7,0Z"/><path class="cls-10" d="M546.66,488.55a6.93,6.93,0,0,1-.59,3.12,10.11,10.11,0,0,1-1.64,2.53,19,19,0,0,1-4.34,3.55,44,44,0,0,1-9.81,4.15,78.93,78.93,0,0,1-20.66,2.95,71.22,71.22,0,0,1-20.67-2.9,41.45,41.45,0,0,1-9.81-4.17,18.71,18.71,0,0,1-4.34-3.55,10.14,10.14,0,0,1-1.63-2.54,6.8,6.8,0,0,1-.59-3.12,1.37,1.37,0,0,1,2.73-.08v.08a5.37,5.37,0,0,0,2,3.28,16.54,16.54,0,0,0,3.79,2.4,42.75,42.75,0,0,0,9.1,2.87,105.69,105.69,0,0,0,19.44,1.69,90.55,90.55,0,0,0,19.45-1.64,39.74,39.74,0,0,0,9.1-2.89,16.2,16.2,0,0,0,3.8-2.4,5.44,5.44,0,0,0,1.94-3.29v-.07a1.37,1.37,0,0,1,2.73.07Z"/><path class="cls-10" d="M454.1,493.74a9.33,9.33,0,0,0,3.18,6,26.35,26.35,0,0,0,6.22,4.17,64.34,64.34,0,0,0,14.73,5,139.89,139.89,0,0,0,31.38,3c10.53-.12,21.12-.76,31.37-3.05a67.21,67.21,0,0,0,14.73-5,26.66,26.66,0,0,0,6.21-4.17,9.25,9.25,0,0,0,3.2-5.94v0a1.37,1.37,0,0,1,2.74,0,10,10,0,0,1-.95,4.57,15.07,15.07,0,0,1-2.5,3.76,28.91,28.91,0,0,1-6.76,5.32,66,66,0,0,1-15.44,6.27,121.61,121.61,0,0,1-32.6,4.27A128.45,128.45,0,0,1,477,513.61a68.61,68.61,0,0,1-15.44-6.24,29.19,29.19,0,0,1-6.76-5.32,15,15,0,0,1-2.52-3.74,10.17,10.17,0,0,1-1-4.57,1.37,1.37,0,0,1,2.73,0Z"/><path class="cls-5" d="M520.36,232.59l-10.84-1.13a1.75,1.75,0,0,0-.61,0c-2.78-.59-1.38,2.59-.75,3.53,2.24,3.34,9.29,2,12.33.68C521.77,235.17,522.15,232.78,520.36,232.59Z"/><path class="cls-10" d="M605.17,94c-2.26-.09,3.22-.42,2.6.86l0,.15-.05.17-.1.31-.21.6-.42,1.19-.86,2.36q-.88,2.35-1.8,4.69-1.84,4.67-3.81,9.28-3.94,9.22-8.37,18.24a314.23,314.23,0,0,1-20,34.86,185.54,185.54,0,0,1-25.78,31.16,110.86,110.86,0,0,1-16,12.73,74,74,0,0,1-18.74,8.85,61.21,61.21,0,0,1-10.26,2.19c-1.74.2-3.5.34-5.25.37l-5.16,0a77.75,77.75,0,0,1-20.43-3.26,60,60,0,0,1-18.62-9.34c-.7-.53-1.4-1.05-2.09-1.6l-2-1.77a42.5,42.5,0,0,1-3.67-3.78,20.3,20.3,0,0,1-1.66-2l-1.59-2.11c-.48-.74-.93-1.5-1.4-2.25a20.69,20.69,0,0,1-1.31-2.3,39.11,39.11,0,0,1-4.57-20.47l.08-1.33a7.94,7.94,0,0,1,.15-1.32l.45-2.62.11-.65.18-.64.36-1.28.37-1.28.19-.64.25-.61,1-2.45.25-.61.32-.58.64-1.16a25.86,25.86,0,0,1,1.33-2.28l1.52-2.15a17.28,17.28,0,0,1,1.66-2l1.74-2,1.93-1.77a20.75,20.75,0,0,1,2-1.7,47.38,47.38,0,0,1,8.78-5.46,69.47,69.47,0,0,1,19.5-5.87,1.37,1.37,0,0,1,.48,2.7h0a66.39,66.39,0,0,0-18.4,6.23,47.35,47.35,0,0,0-8,5.29,18,18,0,0,0-1.77,1.59l-1.72,1.64L445.42,154a14.61,14.61,0,0,0-1.44,1.87l-1.31,2a22.09,22.09,0,0,0-1.13,2.06l-.54,1-.27.52-.21.55-.84,2.19-.21.55-.15.57-.29,1.13-.3,1.13-.15.56-.08.58-.33,2.31a6.28,6.28,0,0,0-.1,1.16l0,1.17a34.39,34.39,0,0,0,4.47,17.91,17.1,17.1,0,0,0,1.21,2l1.28,2,1.46,1.84A16.83,16.83,0,0,0,448,198.8a37.8,37.8,0,0,0,3.36,3.3l1.77,1.56L455,205a54.42,54.42,0,0,0,17,8.15A76.68,76.68,0,0,0,491,215.94h4.82c1.58,0,3.14-.17,4.7-.37a55.68,55.68,0,0,0,9.26-1.92c12.17-3.65,23.16-11,32.72-19.83A184.2,184.2,0,0,0,568,164a309.84,309.84,0,0,0,20.52-33.9q4.64-8.78,8.85-17.79,2.1-4.51,4.07-9.07l1.93-4.58.93-2.3.45-1.15.21-.57.1-.28,0-.12s0,0,0,0c-.59,1.18,4.83,1,2.56.91A1.37,1.37,0,0,1,605.17,94Z"/><path class="cls-10" d="M363.89,176.51a27.72,27.72,0,0,0,5.37-1.64,22.9,22.9,0,0,0,4.86-2.69,13.67,13.67,0,0,0,5.67-8.57,16.48,16.48,0,0,0,.1-5.26l-.21-1.34-.32-1.33c-.23-.85-.47-2-.69-3.05a29.05,29.05,0,0,1,.64-12.82,38.62,38.62,0,0,1,14.27-20.7c.44-.31.87-.64,1.32-.94l1.4-.84a24.16,24.16,0,0,1,2.92-1.5c1-.51,1.92-.79,2.87-1.18l2.83-1.1,5.72-2,5.8-1.78,5.85-1.57,5.92-1.31c4-.79,8-1.47,12-1.93a159.77,159.77,0,0,1,24.19-1.19,146.92,146.92,0,0,1,24,2.81,133.86,133.86,0,0,1,23,7.25,1.37,1.37,0,0,1-1,2.57h0a144.19,144.19,0,0,0-22.75-5.84,155.55,155.55,0,0,0-23.36-1.78,180.91,180.91,0,0,0-46.22,6.84l-5.62,1.66L406.9,119l-2.75,1c-.89.34-1.9.64-2.66,1a18.7,18.7,0,0,0-2.4,1.16l-1.18.66c-.38.24-.75.51-1.12.76A33.72,33.72,0,0,0,384,141.14a24.41,24.41,0,0,0-1,10.76c.16.9.27,1.7.52,2.78l.31,1.58.2,1.61a20.57,20.57,0,0,1-.4,6.59,16,16,0,0,1-2.83,6.06,18.76,18.76,0,0,1-4.79,4.45,26.14,26.14,0,0,1-5.69,2.79,30.08,30.08,0,0,1-6.12,1.46,1.37,1.37,0,0,1-.43-2.7Z"/></svg>