<svg id="Layer_1" data-name="Layer 1" xmlns="http://www.w3.org/2000/svg" viewBox="0 0 960 560"><defs><style>.cls-1{fill:#c4c4c4;}.cls-2{fill:#7abcff;}.cls-3{fill:#ffa792;}.cls-4{fill:#ff9177;}.cls-5{fill:#ff9f87;}.cls-6{fill:#ffe4ad;}.cls-7{fill:#ffd070;}.cls-8{fill:#969696;}.cls-9{fill:#d6d6d6;}.cls-10{fill:#b3b3b3;}.cls-11{fill:#b36f5f;}.cls-12{fill:#233940;}</style></defs><title>man, people, person, avatar</title><path class="cls-1" d="M334.35,450.88a10.81,10.81,0,0,1-13.68.45l-36.09-27.55a9.23,9.23,0,1,1,10.93-14.58l36.09,27.55A10.82,10.82,0,0,1,334.35,450.88Z"/><path class="cls-2" d="M526.51,543.83h-.42c-63.75,0-125.49-32.21-169.55-79.7-46.4-50-73.21-117.66-62.12-183.87,12.46-74.37,28.28-152.39,94.75-197.73,59.23-40.4,154-46.6,212.38-.92C661.08,128.12,688.09,211.22,733.46,270,855.68,428.54,657.37,543.83,526.51,543.83Z"/><path class="cls-3" d="M394.26,384.09c-28.71,10.9-51.84,11.29-70.49,4.64-36.94-13.19-56.24-54-66.27-95.55a.18.18,0,0,1,0-.09A596.62,596.62,0,0,1,247,201.87l-.1,0c-1.84-.45-28.14-7.49-35.11-38.33-7.22-32-14.77-49-14.77-49-6.74-11.28-9.13-20-8.61-26.33,1-13.55,15.09-16.6,27.79-11.71,15.54,6,41.78,27.69,50.16,34.81l2.65,2.29c1.51-17,20.75-4.09,20.75-4.09,34.6,29.22,32.69,65.39,32.69,65.39L325,232.65c18.5,69.81,150.52,3.17,150.52,3.17l-83.15,65.71Z"/><path class="cls-4" d="M392.33,301.53l1.92,82.56c-28.71,10.9-51.84,11.29-70.49,4.64A183.84,183.84,0,0,0,304,357.21a38.57,38.57,0,0,1-1.65-44.8l6.51-29.47a38.05,38.05,0,0,1,61.85-1.75C376.07,288.21,383.86,296.44,392.33,301.53Z"/><path class="cls-4" d="M421.78,349.37l10.34-43.47c3.28,1.89,5.63,5.38,5.63,11.54C437.75,317.45,442.79,338.45,421.78,349.37Z"/><path class="cls-4" d="M229,116c-23.18-33-39.92-26.72-39.92-26.72l-.75-1.18c1-13.55,15.09-16.6,27.79-11.71,15.54,6,41.78,27.69,50.16,34.81a98.5,98.5,0,0,0,6.74,11.4C287.87,143.7,265.34,167.76,229,116Z"/><path class="cls-3" d="M661.47,204.48l-89.64,99.88a14,14,0,0,1-4.73,3.9c-2.11.88-4.51.65-6.79.4L461,298.07c.5-9.39-.54-20.57,1.72-29.69,2.13-8.54,7.93-17.45,12.1-25.15A299.19,299.19,0,0,1,509.08,193c1.36-1.61,2.85-3.32,3.18-5.39a8.46,8.46,0,0,0,.14-1.48h0a13.82,13.82,0,0,0-.68-3.24c-.83-3.27-1.64-6.55-2.35-9.86a3.14,3.14,0,0,0-.12-.31q-2.58-12.05-4.12-24.29a.16.16,0,0,1,0-.08c0-.11,0-.23,0-.34-2.44-20.5,8.84-39.58,11.4-60.08.06-.57.12-1.18.19-1.76,0-.3-1.16-1.33-2.79-1.33h0c-2.82-1-7-2-8.6-2.74-.43-.19-.68-.33-.67-.47-.36-.44-.72-.87-1-1.32a29.39,29.39,0,0,1-1.74-2.48,41.53,41.53,0,0,1-5.55-13.5,0,0,0,0,1,0,0c-.18-.79-.33-1.6-.45-2.4s-.24-1.63-.31-2.45a44.6,44.6,0,0,1-.2-5.8c0-1.14.1-2.29.23-3.42.05-.5,0-1,.11-1.5.2-1.48-.23-3,.77-4.43h0c2-5.83,4.12-11.35,8-16,7.72-9.36,21-15.1,32.35-10.9a20.85,20.85,0,0,1,2.43,1.06,34.62,34.62,0,0,1,6.69,4.46c2.69,2.21,5.21,4.72,7.75,7.09a128.44,128.44,0,0,0,13.26,10.89c.67.48,1.33.94,2,1.4,9,6.09,18.95,10.71,29.61,12.66l1.45.25c7.27,1.28,15.47,2.55,21.24,7.27a33,33,0,0,1,10.34,36.31,35.35,35.35,0,0,1-3.12,6.84c-.84,1.14-1.69,2.22-2.53,3.36-.23.3-.45.86-.67.86h0l-.68,1a83.16,83.16,0,0,0-5.18,8,40.24,40.24,0,0,0-3.36,7.6c-4.83,15.19,1.75,31.91,11.64,44.39S650.5,192.91,661.47,204.48Z"/><path class="cls-5" d="M534,193.69l-8.26,12.64a46.11,46.11,0,0,1-9.77-12.13c-5.58-10-8-21.49-9.26-32.76-1.2-10.63-2.53-22.64-.36-33.2,2.91-14.15,8.92-27.59,10.37-42.05,0-.29-1.16-.75-2.79-1.3.09-.41.19-.82.28-1.22.39-1.74-9-2.7-8.49-4.4,0,0-1.5-.47-3.85-1.46a42.63,42.63,0,0,1-6.51-24.23l59.4,3.68L543.39,78s-22,40.87-26.41,61.61,17.6,27,17.6,27-5.73,16.16,2.83,14.15c22.21-5.23,29.55-15.09,31.44-6.92S534,193.69,534,193.69Z"/><path class="cls-5" d="M569.31,204.33c-5.73,6.24-15.24,18.06-15.24,27.71,0,13.83-13.2,37.72-33.32,37.72-12.54,0-20.43-.24-23.09,1.55-1.61,1.08-1.28,2.92,1.08,6a27.19,27.19,0,0,1,5.66,17l-43.29,2.19-6.38.33,4.78-21.39,3.62-16.26-.5,9.19c13.86-30.63,30.56-58.65,50.51-79.58.06.13.14.26.2.4C520.73,203.33,532,216,548.62,212.4A65.72,65.72,0,0,0,569.31,204.33Z"/><path class="cls-6" d="M710.11,398a15,15,0,0,1-2.07,6.09,8.46,8.46,0,0,1-.74.89c-1.65,1.72-4,2.72-6.21,3.65l-106.38,44-14.5,6c-12.17,5-24.39,10.1-37.09,13.62-12.28,3.42-24.92,5.38-37.52,7.33L412,494.16c-4,.62-8.15,1.23-12,.13-3.29-.93-6.12-3-8.74-5.21C361.3,463.86,359.41,422,370,386.87c8.79-29.23,30.38-60.17,28.17-91.49-.35-5.05-1.75-10-1.89-15.06-.28-11.19,5.65-21.61,12.52-30.45A133.74,133.74,0,0,1,420.1,237.1c24.58-24.48,58-39.55,92-47.61-8.24,1.95-15.4,43.85-16.53,50.72-2.35,14.33-2.58,32.45,10.83,38.07a20.48,20.48,0,0,0,2.8,1,44.86,44.86,0,0,0,12.6,1c10.36-.2,20.86-1.08,30.58-4.69,20.22-7.51,34.25-25.56,48-42.21s29.86-33.62,51.1-37.38c28.39,23.38,47.52,56.94,56.62,92.57S716.67,361.86,710.11,398Z"/><path class="cls-7" d="M597.92,346.95l-3.16,103.71a3.17,3.17,0,0,1-2,2.83l-12.6,5.22c-12.17,5-24.39,10-37.09,13.56-9.08,2.53-11.09,46.56-16.6,70.56h-.42c-63.75,0-125.49-31.71-169.55-79.2,1.35-28.71,8-58.91,13.42-76.79,8.79-29.23,30.38-60.15,28.17-91.48-.35-5.05-1.75-10-1.89-15.06-.28-11.19,5.65-21.61,12.52-30.45a134.8,134.8,0,0,1,10-11.4,3.19,3.19,0,0,1,3.19-.8c26.72,8.16,57.28,20.27,60.31,33.61,5.48,24.13-10.52,27.42-.47,48.8s-20.12,64.13,36.46,71.67c39.83,5.31,63.31-26.87,73.72-46.39A3.17,3.17,0,0,1,597.92,346.95Z"/><rect class="cls-8" x="359.08" y="237.22" width="41.18" height="182.01" rx="16.37" ry="16.37" transform="translate(275.29 -162.68) rotate(37.15)"/><path class="cls-9" d="M384.2,428.49A20.56,20.56,0,0,1,380.1,439l-6.45,8.53a20.57,20.57,0,0,1-28.84,4L275.9,399.31a20.59,20.59,0,0,1-4-28.85l3.45-4.56,3-4a20.59,20.59,0,0,1,28.84-4l3.11,2.35,65.8,49.86A20.59,20.59,0,0,1,384.2,428.49Z"/><path class="cls-1" d="M384.29,426.62c0,.31,0,.62,0,.93s0,.64-.06,1l-3,3.95a20.57,20.57,0,0,1-28.84,4l-3.28-2.49-65.62-49.72a20.59,20.59,0,0,1-8.07-18.32l3-4a20.59,20.59,0,0,1,28.84-4l3.11,2.35,65.8,49.86A20.55,20.55,0,0,1,384.29,426.62Z"/><path class="cls-10" d="M482.59,288.72a19.77,19.77,0,0,1-1.3,1.94L475,299a20.08,20.08,0,0,1-28.13,3.88l-67.19-50.92a20.08,20.08,0,0,1-3.89-28.13l6.3-8.3a19.54,19.54,0,0,1,2.73-2.94,20.06,20.06,0,0,1,25.4-.94l67.19,50.93A20.08,20.08,0,0,1,482.59,288.72Z"/><path class="cls-1" d="M479.77,274.79a16.8,16.8,0,0,1-21.25.78L402.3,233A16.8,16.8,0,0,1,398,211a16.79,16.79,0,0,1,21.25-.79l56.22,42.61A16.8,16.8,0,0,1,479.77,274.79Z"/><path class="cls-9" d="M472.74,254.63a10.81,10.81,0,0,1-13.68.5l-36.19-27.42a10.82,10.82,0,0,1-2.79-14.11,10.81,10.81,0,0,1,13.68-.51l36.19,27.43A10.82,10.82,0,0,1,472.74,254.63Z"/><path class="cls-1" d="M384.2,428.5A20.62,20.62,0,0,1,380.1,439l-6.45,8.53A20.57,20.57,0,0,1,356,455.66c-2.33-8-4.64-15.21-6.9-21.73l3.28,2.49a20.57,20.57,0,0,0,28.84-4Z"/><path class="cls-10" d="M384.29,426.62c0,.31,0,.62,0,.93s0,.64-.06,1l-3,3.95a20.57,20.57,0,0,1-28.84,4l-3.28-2.49c-17.82-51.14-33.11-58.91-38.17-72-.11-.26-.21-.55-.3-.83l-.26-.79,65.8,49.86A20.55,20.55,0,0,1,384.29,426.62Z"/><path class="cls-11" d="M631.49,98.77a35.35,35.35,0,0,1-3.12,6.84c-2.52,4.25-5.51,8.26-8.3,12.34a2.11,2.11,0,0,1-1,.93c-.7-1.39-.82-3.15-1.59-4.62a15.41,15.41,0,0,0-3.48-4.45c-2.78-2.41-6.48-3.18-9.3-.37a25.71,25.71,0,0,1-4.16,3.47c-7.19,4.66-10.52-.92-10-7.87.63-8.17-10.69-27.4-38.35-19.86-9.76,2.67-24.15,5.61-35.71,2.73a24.84,24.84,0,0,1-11.22-5.78,21.38,21.38,0,0,1-1.71-1.82,20.55,20.55,0,0,1-1.74-2.38,40.75,40.75,0,0,1-5.55-13.64c-.18-.79-.33-1.6-.45-2.4s-.24-1.63-.31-2.45a44.6,44.6,0,0,1-.2-5.8c0-1.14.1-2.29.23-3.42.05-.5.27-1,.33-1.5.21-1.48-.26-3,1-4.44a37.56,37.56,0,0,1,7.74-16c7.72-9.36,20.86-15.13,32.24-10.93a22.23,22.23,0,0,1,2.37,1,34.42,34.42,0,0,1,6.66,4.46c2.69,2.23,5.2,4.73,7.74,7.1a123.54,123.54,0,0,0,13.25,10.88c.67.48,1.33.94,2,1.4,9,6.09,18.95,10.71,29.61,12.66l1.45.25c7.27,1.28,15.47,2.55,21.24,7.27a33,33,0,0,1,10.34,36.31Z"/><path class="cls-3" d="M707.83,406.15l.27.26c-15.65,36.73-38.8,70.71-69.74,95.94s-70,41.29-109.91,41.54c-35.53.22-70.41-12-100.66-30.58-23.93-14.73-45.94-34.31-57.53-59.92-9.12-20.14-11.39-43.08-22.19-62.38-5.48-9.79-13-18.29-18.9-27.82-7.52-12.09-9.85-23.36-7.43-37.22,2.3-13.18,5.29-26.68,12.84-38,8.51-12.74,24.38-21.87,39.13-17.77,21.91,6.09,31.79,37.07,54.48,38.57,7.48.49,15.23-2.54,22.34-.16,8.88,3,13.23,13.9,11.25,23s-8.83,16.52-16.42,22c23.08,17.56,22,55,44.28,73.62,17.69,14.81,45,12.33,65,.79,27.65-16,45.29-47.86,44.1-79.76,7.71,11.35,22.92,14,36.23,17.34A163.93,163.93,0,0,1,707.83,406.15Z"/><path class="cls-4" d="M708.11,405.88c0,.05,0,.09-.05.14-.42,1.21-.84,2.4-1.27,3.58q-1.92,5.39-3.92,10.5s0,0,0,0c-.13.28-.26.54-.4.8-5.34,10.88-12.52,19.94-21.26,33.51-40,62.08-107.6,98.62-180.63,87-2.31-.36-4.64.41-7-1.59h0a211.42,211.42,0,0,1-25.58-7c-.21-.14-.43-.09-.63-.23-19.31-12.52-23-37.89,32-31.84,147.71,16.23,160.11-69.64,160-95.52s-38.33-41.81-38.33-41.81c18.17,3,40.69,9.34,61.79,22.46,11.83,8.6,20.63,16,23.89,18.83C707.63,405.45,708.11,405.88,708.11,405.88Z"/><path class="cls-4" d="M432.42,342.38c1.85,1.29,8.45,7.23,10.06,8.8,7.26,7.05,18.69-16.52,19.35-21.39-3.88-.49-9,3.74-12.7,5.2-4.79,1.86-9.51,2.3-14.2-.15C422.67,328.45,424.14,336.62,432.42,342.38Z"/><path class="cls-4" d="M199.74,113.92c4.87-2.41,9.83.76,11.94,6.38,3.46,9.22,7.12,18.13,13.11,26.06,4.55,6,11,12.86,18.54,15,3.72,1.06,5.31-4.73,1.6-5.79-8.87-2.53-16.71-13.72-21.08-21.87-2.91-5.43-4.67-11.18-7.06-16.81-1.49-3.51-3.69-6.68-7.16-8.45a14.65,14.65,0,0,0-12.91.28c-3.46,1.71-.42,6.89,3,5.18Z"/><path class="cls-12" d="M340.24,259A34.56,34.56,0,0,1,326,243.54a37,37,0,0,1-3-10.3c-.48-3.42-.86-6.8-1.22-10.22-.69-6.81-1.23-13.63-1.55-20.47s-.51-13.66-.59-20.49a1.91,1.91,0,0,1,0-.23l0-.2c.13-1.15.23-2.53.25-3.84s0-2.65,0-4-.15-2.66-.22-4l-.44-4a83.57,83.57,0,0,0-10.3-30.05,73,73,0,0,0-4.41-6.68l-2.4-3.22c-.87-1-1.78-2-2.66-3s-1.75-2-2.71-3-1.89-1.93-2.89-2.82a66.4,66.4,0,0,0-6.13-5.13,34.27,34.27,0,0,0-6.69-3.87,16.63,16.63,0,0,0-3.46-1,8.05,8.05,0,0,0-3.12.11,3.7,3.7,0,0,0-2.13,1.58,7,7,0,0,0-1,3,18,18,0,0,0,1.13,7.34,44.2,44.2,0,0,0,8.19,13.65l0,0a1.37,1.37,0,0,1-2.06,1.81,47.15,47.15,0,0,1-9.53-14.23,21.65,21.65,0,0,1-1.69-8.91,11,11,0,0,1,1.42-4.87,8,8,0,0,1,4.26-3.46,12,12,0,0,1,5.1-.46,21,21,0,0,1,4.52,1.18,38.84,38.84,0,0,1,7.81,4.16,71.35,71.35,0,0,1,6.79,5.3c1.1.92,2.11,1.91,3.15,2.88s2,2.06,3,3.08,2,2.07,2.92,3.14l2.66,3.37a78.78,78.78,0,0,1,4.93,7,77.69,77.69,0,0,1,7.36,15.55,82.18,82.18,0,0,1,3.84,16.77l.38,4.29c0,1.44.15,2.87.14,4.31s0,2.88-.09,4.33-.19,2.85-.41,4.44l0-.42c-.07,6.77,0,13.54.12,20.31s.41,13.53.89,20.27c.23,3.36.5,6.76.85,10.08a35.29,35.29,0,0,0,2.32,9.32,32,32,0,0,0,12.28,14.65,1.37,1.37,0,0,1-1.41,2.34Z"/><path class="cls-12" d="M507.84,110.37a22.11,22.11,0,0,1,4.45-4,9,9,0,0,1,1.45-.78,7.8,7.8,0,0,1,1.68-.55,7.14,7.14,0,0,1,3.75.28,12.54,12.54,0,0,1,2.91,1.6c.82.57,1.54,1.12,2.22,1.55l.27.18.41.29a7.27,7.27,0,0,1,2.9,6.26,7.54,7.54,0,0,1-.41,2l-.46,1.32-.91,2.62-1.83,5.23-1.86,5.22-.93,2.61a25.82,25.82,0,0,0-.86,2.5c-.1.38-.23.74-.31,1.14l-.23,1.19a11.14,11.14,0,0,0-.19,1.2,10.79,10.79,0,0,0-.13,1.2,24.57,24.57,0,0,0,.13,4.85,21.35,21.35,0,0,0,3.49,9.13,21.53,21.53,0,0,0,3.27,3.77,9.81,9.81,0,0,0,1,.82c.34.26.63.53,1,.81l2.23,1.67q4.47,3.32,8.87,6.74a1.37,1.37,0,0,1-1.53,2.28q-4.83-2.78-9.59-5.66l-2.39-1.43a27.63,27.63,0,0,1-2.48-1.72,26.3,26.3,0,0,1-4.35-4.29,25.46,25.46,0,0,1-4.53-23.52c.31-1.09.67-1.83,1-2.73l1.06-2.58,2.13-5.16,2.15-5.15,1.08-2.57.54-1.28a2.59,2.59,0,0,0,.21-.66,2.5,2.5,0,0,0-.17-1.4,2.55,2.55,0,0,0-.39-.63,2.67,2.67,0,0,0-.26-.28l-.15-.13-.29-.23a29.18,29.18,0,0,0-4-3.08,3.47,3.47,0,0,0-1.7-.33,4.18,4.18,0,0,0-1,.21,5.66,5.66,0,0,0-1.05.42,22.55,22.55,0,0,0-4.19,3l0,0a1.37,1.37,0,0,1-1.89-2Z"/><path class="cls-12" d="M445,351.93a32.9,32.9,0,0,0,7.48-5.33,26.22,26.22,0,0,0,5.35-7.31,27.31,27.31,0,0,0,2.55-8.71,29.79,29.79,0,0,0,.21-4.56,25,25,0,0,0-.5-4.44v0a1.7,1.7,0,0,1,0-.34,14.48,14.48,0,0,0-1.3-6.36,8.66,8.66,0,0,0-1.81-2.47c-.37-.36-.82-.62-1.21-.95a14.41,14.41,0,0,0-1.36-.76,16.25,16.25,0,0,0-6.42-1.3,32.61,32.61,0,0,0-6.87.65c-1.14.21-2.28.49-3.38.81l-.84.26c-.34.1-.68.19-1,.26q-1,.22-2,.36a22.9,22.9,0,0,1-7.81-.39A39.85,39.85,0,0,1,412.37,305l-.26-.21a1.32,1.32,0,0,0,.4.29l-.23-.13a87.86,87.86,0,0,1-18.12-17.41l-1-1.24c-.32-.41-.6-.77-.92-1.16q-.93-1.13-1.95-2.19a36,36,0,0,0-37.63-9,35.5,35.5,0,0,0-18.11,14l.34-.83-6.45,29.57a2.22,2.22,0,0,1-.32.76v0a35.2,35.2,0,0,0-5.55,14.61l-.09.39a1.72,1.72,0,0,0,.11-.63l0,.33a36.46,36.46,0,0,0,.26,11.85c.17,1,.46,1.93.69,2.91a14.93,14.93,0,0,0,.4,1.44l.22.72.23.62c.38,1,.72,1.88,1.14,2.81s.86,1.78,1.35,2.64a37.65,37.65,0,0,0,3.36,4.94c1.28,1.72,2.64,3.38,3.85,5.15s2.5,3.48,3.65,5.29l1.76,2.69c.58.9,1.12,1.82,1.69,2.73,8.95,14.61,15.81,30.33,21.56,46.33,1.45,4,2.81,8,4.12,12.06s2.5,8.15,3.91,11.94A106.45,106.45,0,0,0,382,468.22c9.14,13.78,21.13,25.6,34.53,35.38a194.74,194.74,0,0,0,43.76,23.74A212.54,212.54,0,0,0,484,535.21c4,1,8.06,2,12.15,2.71s8.18,1.43,12.29,1.85a157.1,157.1,0,0,0,49.47-2.62,187,187,0,0,0,46.94-16.45,202.25,202.25,0,0,0,74.64-64.93A183,183,0,0,0,702,411.31a201.21,201.21,0,0,0,10-49,226.62,226.62,0,0,0-1.67-50.06,242.68,242.68,0,0,0-12.49-48.58l-1.09-2.94-.54-1.47c-.09-.24-.17-.5-.27-.7l-.32-.71q-1.26-2.87-2.63-5.68c-1.83-3.75-3.82-7.43-5.92-11a185.63,185.63,0,0,0-14.14-20.73c-2.59-3.31-5.25-6.52-8.09-9.58s-5.81-6-8.82-9c-6-5.87-12.27-11.64-18-18a1.37,1.37,0,0,1,2-1.85c5.69,6.14,11.92,11.8,18.06,17.64,3.07,2.92,6.11,5.89,9,9s5.71,6.37,8.36,9.68a189.05,189.05,0,0,1,14.62,21q3.29,5.49,6.15,11.23,1.43,2.87,2.74,5.79l.33.73c.13.27.21.52.31.77l.57,1.5,1.13,3a246.56,246.56,0,0,1,13.07,49.31,231,231,0,0,1,2.08,51,205.9,205.9,0,0,1-9.82,50.18,188.16,188.16,0,0,1-22.75,45.87,207.5,207.5,0,0,1-76.35,67.17A187.43,187.43,0,0,1,559.13,543a163.11,163.11,0,0,1-51.33,2.7c-4.29-.44-8.54-1.14-12.76-1.92s-8.42-1.73-12.57-2.81a218.45,218.45,0,0,1-24.37-8.1,198.9,198.9,0,0,1-45-24.7c-13.8-10.2-26.19-22.53-35.68-37a111.81,111.81,0,0,1-11.69-23.12c-1.5-4.14-2.6-8.17-3.91-12.16s-2.59-8-4-11.94c-5.57-15.81-12.23-31.26-20.86-45.53-.54-.89-1.07-1.79-1.62-2.67l-1.7-2.62c-1.11-1.77-2.33-3.45-3.51-5.16s-2.48-3.34-3.71-5a42.57,42.57,0,0,1-3.73-5.55q-.82-1.47-1.52-3c-.45-1-.9-2.12-1.23-3.07l-.31-.87-.24-.79q-.26-.79-.44-1.61c-.25-1.09-.57-2.18-.75-3.26a41.1,41.1,0,0,1-.22-13.37l0,.33a3,3,0,0,1,.13-.83l-.09.39a39.76,39.76,0,0,1,6.37-16.47l-.33.77,6.58-29.37,0-.1a2.15,2.15,0,0,1,.31-.73,40.46,40.46,0,0,1,8.9-9.44A39.58,39.58,0,0,1,351.34,270a40.52,40.52,0,0,1,25.55-.09,39.51,39.51,0,0,1,16.3,10.31q1.12,1.17,2.13,2.43c.33.41.68.86,1,1.27l.92,1.19a84.18,84.18,0,0,0,17.15,16.83l-.23-.13a2.44,2.44,0,0,1,.55.39l-.25-.21a36.36,36.36,0,0,0,12.42,5.9,19.4,19.4,0,0,0,6.63.41q.82-.1,1.62-.28l.77-.19.9-.26c1.23-.33,2.45-.62,3.69-.84a35.91,35.91,0,0,1,7.58-.64,19.47,19.47,0,0,1,7.7,1.67,17.19,17.19,0,0,1,1.79,1,19.29,19.29,0,0,1,1.63,1.31,11.87,11.87,0,0,1,2.44,3.38,17.56,17.56,0,0,1,1.56,7.76l0-.36a27.56,27.56,0,0,1,.54,5.1,32.84,32.84,0,0,1-.28,5,30.28,30.28,0,0,1-2.92,9.62,29.11,29.11,0,0,1-6,8.06,35.67,35.67,0,0,1-8.17,5.71,1.37,1.37,0,0,1-1.26-2.42Z"/><path class="cls-12" d="M428.94,335.32a169.31,169.31,0,0,1,19.41,19.51,176.74,176.74,0,0,1,16.28,22.28c.59,1,1.2,2,1.78,3l1.66,3c1.08,2,2.12,4.11,3.06,6.22a129,129,0,0,1,5.16,12.88,104,104,0,0,1,5.58,27.08,1.37,1.37,0,0,1-2.72.34v0a128.18,128.18,0,0,0-3.07-13A131.24,131.24,0,0,0,471.61,404a190.09,190.09,0,0,0-12.19-23.76,223.43,223.43,0,0,0-14.9-22.32q-4-5.39-8.42-10.53c-2.88-3.44-5.91-6.82-9-10l0,0a1.37,1.37,0,0,1,1.86-2Z"/><path class="cls-12" d="M512.36,277.89l2.74.67,1.37.33,1.38.25c.92.16,1.83.36,2.75.5l2.77.34a50.13,50.13,0,0,0,11-.14c7.29-.93,14.17-3.81,20.67-7.47,3.24-1.86,6.47-3.83,9.63-5.9a62,62,0,0,0,8.55-6.88c5.35-5.08,9.87-11.09,14.39-17.18s9-12.42,14.16-18.32a108.17,108.17,0,0,1,17.28-15.92,100.93,100.93,0,0,1,9.86-6.41l2.6-1.39,1.3-.69,1.34-.62,2.67-1.24,2.73-1.1a72.86,72.86,0,0,1,22.85-5.06,1.37,1.37,0,0,1,.25,2.73h0c-14.94,1.78-28.91,8.41-40.54,17.74a107.67,107.67,0,0,0-15.91,15.69c-2.37,2.89-4.62,5.91-6.88,9S594.83,243,592.5,246s-4.7,6.16-7.27,9.11a92.57,92.57,0,0,1-8.21,8.51,67.43,67.43,0,0,1-9.52,7.24c-3.31,2-6.64,4-10.13,5.79-6.95,3.56-14.57,6.42-22.56,7.12a52.65,52.65,0,0,1-11.88-.45,67.72,67.72,0,0,1-11.39-2.86,1.37,1.37,0,0,1,.74-2.63Z"/><path class="cls-12" d="M599.1,175.27a40.21,40.21,0,0,1-2.31,8.45,45.16,45.16,0,0,1-3.94,7.83,58.07,58.07,0,0,1-11.5,13.18,62.38,62.38,0,0,1-7.12,5.18,60,60,0,0,1-7.87,4.05,52.22,52.22,0,0,1-8.5,2.72,40.59,40.59,0,0,1-9,1.08,36,36,0,0,1-17.64-4.16,39.64,39.64,0,0,1-13.35-12A60.4,60.4,0,0,1,510,186c-.94-2.72-1.78-5.47-2.47-8.22l-2-8.28a1.37,1.37,0,0,1,2.64-.75l0,0,2.61,8c.91,2.64,1.85,5.24,2.93,7.77a60,60,0,0,0,8.09,14,35.34,35.34,0,0,0,12,9.88,37,37,0,0,0,7.28,2.46l1.89.36,1.92.23c.64.1,1.29.1,1.93.15a17.48,17.48,0,0,0,1.94.05c10.42,0,20.89-4.24,29.42-10.79a53.64,53.64,0,0,0,11.26-11.58,42.59,42.59,0,0,0,6.89-14.59v0a1.37,1.37,0,0,1,2.68.55Z"/><path class="cls-12" d="M543,111.85a13.2,13.2,0,0,1,2.13-2.45,15.6,15.6,0,0,1,2.62-1.94,13.71,13.71,0,0,1,6.6-1.9,11,11,0,0,1,6.54,2.36l.69.49c.21.18.4.38.6.57.4.38.78.77,1.15,1.16a23.66,23.66,0,0,1,1.81,2.59,1.38,1.38,0,0,1-1.79,2l-.23-.12c-.84-.42-1.59-.91-2.35-1.31-.39-.17-.78-.34-1.15-.52-.19-.08-.37-.18-.56-.26l-.57-.17a15.24,15.24,0,0,0-4.31-.68,12.05,12.05,0,0,0-4.48.32,25.47,25.47,0,0,0-4.76,1.81l-.18.09a1.39,1.39,0,0,1-1.76-2Z"/><path class="cls-12" d="M598.74,313.32a31.91,31.91,0,0,1,2,12.25,45.15,45.15,0,0,1-.58,6.15,26.16,26.16,0,0,0-.24,5.52A25.55,25.55,0,0,0,610,356a25.82,25.82,0,0,0,9.73,4.52c1.67.35,3.78.64,5.74,1s4,.72,5.93,1.12A171.69,171.69,0,0,1,654.71,369c1.91.66,3.79,1.4,5.68,2.13s3.74,1.55,5.57,2.4c3.7,1.63,7.29,3.52,10.83,5.48,1.75,1,3.52,2,5.23,3.09s3.44,2.13,5.11,3.27c3.36,2.26,6.6,4.69,9.74,7.24a128.22,128.22,0,0,1,31,36.76,1.37,1.37,0,0,1-2.35,1.42,134.33,134.33,0,0,0-31.72-34.25A142,142,0,0,0,674,384.09a187.27,187.27,0,0,0-21.38-9.38,191.54,191.54,0,0,0-22.44-6.7c-1.9-.45-3.82-.85-5.74-1.24s-3.76-.68-6-1.19A29.77,29.77,0,0,1,596,337.41a28.75,28.75,0,0,1,.58-6.33,41.58,41.58,0,0,0,.83-5.66,30.24,30.24,0,0,0-1.2-11.19h0a1.37,1.37,0,0,1,2.58-.9Z"/><path class="cls-12" d="M270.66,207a49.32,49.32,0,0,1-17.19-.6c-1.43-.27-2.81-.71-4.21-1.09s-2.76-.9-4.09-1.48a53,53,0,0,1-7.79-3.88,68.06,68.06,0,0,1-23.68-25,64.75,64.75,0,0,1-6.42-16.12c-.36-1.41-.66-2.83-.93-4.26s-.46-2.92-.66-4.23-.38-2.7-.62-4l-.74-4A114.55,114.55,0,0,0,200,126.54c-.89-2.58-2-5.08-3.09-7.57a58.75,58.75,0,0,0-3.82-7.12l-.05-.08a1.37,1.37,0,0,1,2.23-1.59,55,55,0,0,1,4.71,7.22,83.72,83.72,0,0,1,3.76,7.65,105,105,0,0,1,5.5,16.11l1,4.14c.32,1.38.56,2.78.84,4.18s.52,2.68.8,4,.63,2.58,1,3.85a77.78,77.78,0,0,0,2.7,7.51c.52,1.22,1.06,2.45,1.65,3.64s1.17,2.4,1.8,3.57a66.5,66.5,0,0,0,21,23.75,49.12,49.12,0,0,0,30.38,8.48h0a1.37,1.37,0,0,1,.26,2.72Z"/><path class="cls-12" d="M248.32,187.15c-.15,7.55.1,15.17.39,22.76s.8,15.18,1.43,22.74,1.46,15.1,2.53,22.6,2.36,15,4,22.34,3.42,14.72,5.67,21.92c.51,1.82,1.15,3.59,1.73,5.38l.88,2.68,1,2.66c.65,1.75,1.27,3.58,1.95,5.27s1.43,3.39,2.24,5.06c1.6,3.35,3.4,6.65,5.24,10l5.56,10a36.72,36.72,0,0,1,2.54,5.67,21.63,21.63,0,0,1,.8,3.23l.12.85.06.92a12,12,0,0,1,0,1.83,19,19,0,0,1-2,6.44c-.9,1.87-1.84,3.49-2.53,5a11.62,11.62,0,0,0-1.22,4.44,15.62,15.62,0,0,0,.43,4.74,24,24,0,0,0,4.57,8.95,52.65,52.65,0,0,0,7.56,7.68,99,99,0,0,0,8.9,6.64c6.08,4.16,12.92,7.35,19.69,11.16a86.9,86.9,0,0,1,9.93,6.34,41.9,41.9,0,0,1,8.64,8.5,24.73,24.73,0,0,1,4.85,11.52,20.46,20.46,0,0,1-.1,6.42,17,17,0,0,1-2.33,6.12,13.69,13.69,0,0,1-4.84,4.7,11.53,11.53,0,0,1-1.59.74c-.55.2-1.08.31-1.62.46-.27.07-.54.15-.81.2l-.82.1a11.74,11.74,0,0,1-1.63.14,23.09,23.09,0,0,1-6.24-.75,38.8,38.8,0,0,1-5.7-2,70,70,0,0,1-10.26-5.73c-3.23-2.15-6.33-4.4-9.38-6.77a141.34,141.34,0,0,1-17-15.6,1.37,1.37,0,0,1,2-1.9A138.21,138.21,0,0,0,300,435.4c6.13,4.39,12.37,8.77,19.12,11.59a34.84,34.84,0,0,0,5.11,1.68,19,19,0,0,0,5.09.51,7.92,7.92,0,0,0,1.21-.13l.6-.08c.2,0,.38-.11.57-.16.37-.12.78-.2,1.12-.34a7.22,7.22,0,0,0,1-.48,9.31,9.31,0,0,0,3.19-3.27,14.13,14.13,0,0,0,1.56-9.5,19.91,19.91,0,0,0-4.15-9.23c-4.3-5.57-10.67-9.51-17.22-13.07s-13.66-6.73-20.26-11.08-12.93-9-18-15.41a30,30,0,0,1-5.75-11.25,21.57,21.57,0,0,1-.56-6.6,12.22,12.22,0,0,1,.2-1.74c.1-.58.26-1.14.4-1.7a23.86,23.86,0,0,1,1.18-3.07c.88-1.91,1.86-3.59,2.62-5.16a13.19,13.19,0,0,0,1.44-4.4,6.92,6.92,0,0,0,0-1l0-.51-.07-.57a15.69,15.69,0,0,0-.54-2.32,31,31,0,0,0-2.07-4.78l-5.38-10c-1.81-3.37-3.62-6.79-5.26-10.34-.82-1.78-1.6-3.58-2.31-5.43s-1.29-3.65-1.95-5.48l-.95-2.73-.87-2.76c-.56-1.84-1.19-3.67-1.69-5.53-2.19-7.39-4-14.89-5.45-22.43s-2.67-15.14-3.59-22.75-1.64-15.25-2.1-22.89-.72-15.29-.82-22.94-.11-15.28.25-23a1.37,1.37,0,0,1,2.73.09Z"/><path class="cls-12" d="M593.59,127.45a39.41,39.41,0,0,1,2.36-11.32,26.27,26.27,0,0,1,2.72-5.43,15.64,15.64,0,0,1,4.71-4.73,10.72,10.72,0,0,1,7.1-1.45l.91.17.45.09.33.09.22.08a15,15,0,0,1,1.55.68,14.82,14.82,0,0,1,2.78,1.81,10.38,10.38,0,0,1,3.45,12.05,1.38,1.38,0,0,1-2.68-.52v-.08a8.87,8.87,0,0,0-.77-4.47,7.17,7.17,0,0,0-2.91-2.92,10.94,10.94,0,0,0-2-.89,9.32,9.32,0,0,0-1-.28l-.11,0s.07,0,0,0h-.23l-.46,0a7.47,7.47,0,0,0-3.5.94,11.06,11.06,0,0,0-3.27,2.79,24.82,24.82,0,0,0-2.76,4.13,61,61,0,0,0-4.13,9.74l0,.07a1.37,1.37,0,0,1-2.67-.52Z"/><path class="cls-12" d="M542.78,89.4a54.75,54.75,0,0,1-10.34,1.69,51.48,51.48,0,0,1-10.53-.25A38.77,38.77,0,0,1,511.56,88a29.46,29.46,0,0,1-15.28-15.27,45,45,0,0,1-3.07-10.4,63.87,63.87,0,0,1-.78-10.63,53.7,53.7,0,0,1,1.05-10.67,42.35,42.35,0,0,1,3.61-10.32,32.39,32.39,0,0,1,6.7-8.85,31.23,31.23,0,0,1,9.34-6,33,33,0,0,1,10.71-2.44c14.62-1,29,7.47,35.23,20.25A1.37,1.37,0,0,1,556.64,35a34.05,34.05,0,0,0-14-13,33.52,33.52,0,0,0-18.46-3.53A26.91,26.91,0,0,0,507.79,26a29.42,29.42,0,0,0-5.32,7.45,34.81,34.81,0,0,0-1.76,4.31,43.48,43.48,0,0,0-1.31,4.53,60,60,0,0,0-.71,19.19,39.72,39.72,0,0,0,2.4,9.14A26.2,26.2,0,0,0,506,78.45,25.33,25.33,0,0,0,513.44,84a34.57,34.57,0,0,0,9.1,2.91,55.17,55.17,0,0,0,19.57-.15l.08,0a1.37,1.37,0,0,1,.59,2.66Z"/><path class="cls-12" d="M535.55,184.15c.53-.06,1.26-.2,1.9-.33s1.32-.29,2-.47c1.32-.35,2.63-.77,3.93-1.22,2.61-.89,5.17-1.94,7.69-3.09s5-2.39,7.46-3.68l3.66-2,3.61-2.1a3,3,0,0,1,4.52,2.56v.07c0,.95,0,1.69-.11,2.52s-.17,1.61-.3,2.4a32.55,32.55,0,0,1-1.09,4.72,30.15,30.15,0,0,1-4.29,8.86,18.75,18.75,0,0,1-17.35,8,1.37,1.37,0,0,1-.08-2.73h.08a21.5,21.5,0,0,0,4.1-.8c.66-.17,1.28-.46,1.91-.69a16.63,16.63,0,0,0,1.75-.94,16,16,0,0,0,5.39-5.62,27.31,27.31,0,0,0,2.84-7.6c.29-1.35.54-2.72.73-4.09.1-.69.15-1.38.23-2.07s.12-1.42.14-2l4.52,2.64-3.87,2L561,180.36c-2.67,1.15-5.34,2.28-8.11,3.21a69.38,69.38,0,0,1-8.43,2.39c-1.44.3-2.89.54-4.36.72a24.82,24.82,0,0,1-4.56.21,1.36,1.36,0,0,1-.08-2.72Z"/><path class="cls-12" d="M357.46,321.44c3.54-5.08,7.16-10.1,10.74-15.14l10.88-15,2.73-3.75,1.37-1.87,1.62-2a26.7,26.7,0,0,1,8.17-6.21A27,27,0,0,1,413.19,276c.83.25,1.63.62,2.44.93s1.56.77,2.34,1.16a38.43,38.43,0,0,1,4.17,2.84c2.52,1.9,4.9,3.9,7.28,5.85A137.73,137.73,0,0,0,444,297.57a45.36,45.36,0,0,0,7.88,3.9,25.87,25.87,0,0,0,8.35,1.73,21.54,21.54,0,0,0,8.34-1.45,29.59,29.59,0,0,0,7.54-4.48h0a1.37,1.37,0,0,1,1.8,2.07,31.31,31.31,0,0,1-8,5.58,24.62,24.62,0,0,1-9.69,2.32,28.83,28.83,0,0,1-9.83-1.45,50.07,50.07,0,0,1-8.92-3.89,130.92,130.92,0,0,1-15.66-10.62l-7.35-5.55a32.11,32.11,0,0,0-3.52-2.34c-.61-.3-1.18-.67-1.8-.92s-1.24-.55-1.88-.74a21.69,21.69,0,0,0-22.6,5.5l-1.37,1.56-1.44,1.82L383,294.23l-11.61,14.48c-3.91,4.8-7.79,9.62-11.74,14.38a1.37,1.37,0,0,1-2.17-1.66Z"/><path class="cls-12" d="M399.94,228.77c7.65,5.62,15.23,11.31,22.84,17l22.74,17.11,11.33,8.6a51.82,51.82,0,0,0,5.41,3.88,13,13,0,0,0,5.63,1.44,12.58,12.58,0,0,0,10.24-4.47c.26-.39.55-.76.8-1.15s.45-.83.65-1.24a8.71,8.71,0,0,0,.65-2.54,10.57,10.57,0,0,0-.06-2.73,11.83,11.83,0,0,0-.8-2.67,9.56,9.56,0,0,0-3.32-4.18,7.48,7.48,0,0,0-2.22-1.08c-.41,0-.77-.18-1.22-.2a8.64,8.64,0,0,0-1.36,0,48.59,48.59,0,0,0-6.53,1.21,26,26,0,0,1-4,.53,18.2,18.2,0,0,1-4.22-.31,25,25,0,0,1-7.45-2.89,57.79,57.79,0,0,1-6.2-4.16c-3.85-2.87-7.58-5.9-11.22-9s-7.16-6.39-10.57-9.76l-2.53-2.55a34,34,0,0,1-2.54-2.81,12.84,12.84,0,0,1-2.11-3.68,8.39,8.39,0,0,1-.31-4.62,9.62,9.62,0,0,1,2-4,11.8,11.8,0,0,1,3.25-2.72,17,17,0,0,1,3.71-1.48,20.9,20.9,0,0,1,11.47.12,14.7,14.7,0,0,1,6.66,4.07,1.37,1.37,0,0,1-2,1.91l0,0a11.81,11.81,0,0,0-5.5-3,17.35,17.35,0,0,0-6.45-.34,17.63,17.63,0,0,0-3.14.71c-.52.14-1,.37-1.49.55s-1,.45-1.35.7a6.78,6.78,0,0,0-3.19,4.27c-.3,1.57.44,3.17,1.82,4.76a32.84,32.84,0,0,0,2.33,2.38l2.56,2.42q5.16,4.78,10.62,9.22t11.2,8.48c3.76,2.68,7.61,5.08,11.5,5.74a14.27,14.27,0,0,0,5.91-.36,45.56,45.56,0,0,1,7.43-1.43,14.64,14.64,0,0,1,2.19,0,19.52,19.52,0,0,1,2.29.37,13.57,13.57,0,0,1,4.17,1.95,15.57,15.57,0,0,1,5.4,6.81,16.36,16.36,0,0,1,1.25,8.49,14.36,14.36,0,0,1-1.21,4.3c-.32.66-.69,1.26-1,1.89s-.84,1.17-1.27,1.74a17.22,17.22,0,0,1-6.84,4.95,19.17,19.17,0,0,1-8.16,1.36,18.49,18.49,0,0,1-8-2.24,13,13,0,0,1-1.78-1.13c-.62-.42-1-.78-1.51-1.15l-2.78-2.21-11.12-8.87-22.18-17.83c-7.36-6-14.75-11.94-22.07-18a1.37,1.37,0,0,1,1.68-2.16Z"/></svg>