<svg id="Layer_1" data-name="Layer 1" xmlns="http://www.w3.org/2000/svg" viewBox="0 0 960 560"><defs><style>.cls-1{fill:#ffce8f;}.cls-2{fill:#ffc2a7;}.cls-3{fill:#ffb391;}.cls-4{fill:#ffa37a;}.cls-5{fill:#ff7761;}.cls-6{fill:#f0634d;}.cls-7{fill:#62b9cc;}.cls-8{fill:#41b3cc;}.cls-9{fill:#7d5f52;}.cls-10{fill:#233940;}</style></defs><title>man, directions, people, person, avatar</title><path class="cls-1" d="M550.07,232.73c-4,24.83-7.76,50.12-6.21,73.62a130.61,130.61,0,0,0,1.63,14.11,223,223,0,0,1,3.46,42.69q-.15,7.2-.86,14c-8.81,85.24-81.54,117.36-164.6,117.36-27.4,0-48.81-10.07-65.46-26.75-38-38.05-51.11-110.43-53.92-176-.43-10-.62-19.78-.62-29.28,0-99.41,80.59-198,180-198C577.68,64.46,562.57,155.34,550.07,232.73Z"/><path class="cls-2" d="M599.55,180.78c-.29,5.26-.92,10.81-4.08,15-4.61,6.14-14.5,8.89-21.27,4.92l-.09,0c-1.11,0,.13,13.66,1,23.5.48,5,.87,9,.83,9.77-.67,14.67-51.78-25.05-51.78-25.05,3.75-38.62,10.33-76.12,17.89-114.36,2.39-12.09,20.35-12.5,18.39-.09-2,12.67-3.75,19.1,1.42,27.29l.16.24a13.47,13.47,0,0,0,2.28,2.65c6.38,5.74,16.7,4,24.05,8.41,7.95,4.78,10.17,15.18,10.88,24.43A174.25,174.25,0,0,1,599.55,180.78Z"/><path class="cls-2" d="M449.7,241.5c-1.78,16,.61,36.71,1,39.81,0,.26.05.4.05.4l-.09,0c-2.74,1.22-67.37,29.51-99.91-2.54,0,0,10.08-3.58,6.75-11.5-.43-1-1-2.22-1.55-3.57-4-9.1-10.57-25.06-6.48-39.94,0,0-15.19-12.6-1.58-23.5s20.36-48.24,20.36-48.24l78.5,20s13.92-1.17,14,10.75.75,30.08-7.25,44C451.5,230.67,450.33,235.78,449.7,241.5Z"/><path class="cls-3" d="M550.24,216.71s.75-16.25-7-27.5c-5.33-7.73-7.69-19.5-3.44-28.19,2.27-4.64,5.18-7.95,4.77-13.37s-3.2-10.59.68-15.37c4.23-5.22,12.91-5.17,16.8-10.65-.39,1.76.73,3.53.6,5.32a5.2,5.2,0,0,1-2.63,3.83c-2.22,1.36-4.83,1.21-6.59,3.33-1.48,1.78-1.89,4.39-2.23,6.6-.63,4.15.13,8.73-1.21,12.75-3.55,10.61-2.67,19.83,5.75,31.75,8,11.27,17.37,15.09,18.37,15.48-1.11,0,.13,13.66,1,23.5Z"/><path class="cls-3" d="M450.62,281.32l.06.47a193.49,193.49,0,0,1-28.6,9.27,12,12,0,0,1-4.68.47,12.36,12.36,0,0,1-3.57-1.38L399.74,283l17.78-25.78c-8.2,9.54-18.62,18.21-31.09,19.89-10.25,1.38-20.91-2.33-28.66-9.2l2.57,3c-2.17-1.83-4.57-4.48-3.51-7.11a5.73,5.73,0,0,1,1.15-1.68c6.06-6.63,15.93-7.78,23.9-11.93A34.14,34.14,0,0,0,398.61,230a22.28,22.28,0,0,0-18.41-5.35c-5.62,1-11.49,4.07-16.66,1.69-4.52-2.08-6.37-7.51-6.9-12.46-1.33-12.39,6.61-23.1,19.28-24.74a18.38,18.38,0,0,1,15.25,4.85c4.16,4.17,6.48,11,12.23,12.22a17.81,17.81,0,0,0,5.26-7.94c.85-3.1.23-6.75-2.15-8.91-1.22-1.1-2.78-1.75-4-2.83s-2.09-2.93-1.29-4.36,2.8-1.66,4.47-1.59c4.42.18,9.41,1.5,11.41,5.44,2.28,4.49-.28,10.62,2.78,14.62,1.5,2,4,2.83,6.17,3.94a26.88,26.88,0,0,1,14.52,22.63c.12,3.49-.43,7.11.79,10.38s5.25,5.87,8.22,4A215.35,215.35,0,0,0,450.62,281.32Z"/><path class="cls-4" d="M417.49,257.21s-12.61,30.84,3.75,35.25c11.91,3.21-29.74,3.09-42.74.61-10.24-1.93-19.93-6.15-27.76-13.86,0,0,9.78-3.47,6.89-11.14a28.21,28.21,0,0,0,2.69,2.9h0c4.77,4.46,11.4,7.48,20.59,7.48,0,0,26,.53,36.06-20.66C417.16,257.61,417.32,257.41,417.49,257.21Z"/><path class="cls-5" d="M516.1,449.59c-2.87-.51-5.81-1.14-8.84-1.87l18.23-58c-.8-6.34-1.47-12.93-2-19.67-.48-5.68-.88-11.46-1.21-17.3-3.59-62.4.49-130.28.49-130.28h.32l48.7,1.4a8.58,8.58,0,0,1-.53,2l-5,12.59s-1.35.05-3.58,0a50.66,50.66,0,0,1,24.07,21c6.28,10.64,12.12,26.4,16.25,44.4a237.79,237.79,0,0,1,6.09,50.76C609.48,409.75,587.77,462.53,516.1,449.59Z"/><path class="cls-6" d="M609.07,354.58c-7.2.41-13,8.73-16.21,14.54-3.76,6.82-7.27,13.38-13.79,18-10.45,7.36-27.2,8.64-36.62,17.76a111.78,111.78,0,0,1-26.35,44.73c-30.64,31.74-79.51,44.87-132.61,44.87-27.4,0-48.81-10.07-65.46-26.75l28.46-147.25,175.76,32.28,15.82,2.91c10.88-20.7,28.6-40.19,50-49.37a29.13,29.13,0,0,1,14.9-2.46A237.79,237.79,0,0,1,609.07,354.58Z"/><path class="cls-3" d="M417,257.8c-10.07,21.19-36.06,20.66-36.06,20.66-9.19,0-15.82-3-20.59-7.48h0l-2.55-3.1C358.76,268.82,385.79,294.23,417,257.8Z"/><path class="cls-2" d="M536.61,312.15q-4.11,3.34-8.14,6.78a19.18,19.18,0,0,1,2.82-2.65C533,314.9,534.83,313.53,536.61,312.15Z"/><path class="cls-7" d="M578.77,227.35c-.08,2-.4,3.93-.5,5.83-.23,4.2.57,8.35.81,12.53l.16,2.75s-10.34-7.41-12.75-8.25c-14.05-4.89-35.7,1.47-43.43-13.8-.11-.2-.22-.43-.32-.65l.77-5.26,3.23-22s16.19,15.63,42.68,17.29a10.12,10.12,0,0,1,8.35,5.69A12,12,0,0,1,578.77,227.35Z"/><path class="cls-5" d="M539.8,347.16c-1.25,16-4.8,32.61-11.19,46.42-7.87,17-19.7,31.69-29.31,47.68a96.77,96.77,0,0,1-43.39,38.66l-1.89.85q-3.2,1.41-6.6,2.66c-12.73,4.69-27.43,7.67-44.34,8.67-1.13.07-2.27.12-3.42.17q-4.52.19-9.24.19h-.14l-.72.08-.31,0h-.16l-.27,0c-.48,0-1.05.07-1.71.09-1.79.08-4.25.11-7.23,0q-1.62-.08-3.42-.21c-23.69-1.82-71.06-14-87.05-80-8.09-33.4-9.41-68.84,5.89-100.5,5.83-12.07,15-23,27.37-28.31l.92-.38.93-.36c.61-.23,1.23-.45,1.85-.65,13.43-4.39,28.41-2.25,42.3,1.08,19.34,4.65,54,16.64,71,1.11,10.51-9.57,7.53-22,7.32-34.25,0,.09,20,3.76,21.47,4.13a165.26,165.26,0,0,1,30.16,10.34c12.24,5.7,24.27,13.33,31.22,25.14,6.84,11.61,9.89,25.23,10.34,38.6A170.09,170.09,0,0,1,539.8,347.16Z"/><path class="cls-6" d="M535.74,297.71s-5.14-8.7-5.1-8.74a62.69,62.69,0,0,0-12.45-13.17,2.85,2.85,0,0,1-.86.39c-10.21,2.71-18.41,6-26,13.71-11.44,11.6-18.89,26.48-26.95,40.45-6.57,11.4-14.17,25.34-26.87,30.86-29.33,12.75-22-29.42-36.75-34s-14,22.5-14,22.5l-.16.26c2.26,72.2,44.29,45.56,94.77,8.09,11.66-8.66,31.43-26.36,42.14-35.6,16.33-15.33,49.65-32.48,56.25-42C581.57,277.82,542.15,303.13,535.74,297.71Z"/><path class="cls-2" d="M692.1,279.47c-.39-2.46-3.65-4-6.36-4.53a55.23,55.23,0,0,0-29.81,2.68c-1.79.69-3.71,1.48-5.58,1a9.38,9.38,0,0,1-3.65-2.3c-6.73-5.76-15-10.42-23.89-10.22-6.83.15-13.24,3.15-19.29,6.31a268.93,268.93,0,0,0-36.29,22.86q-8.6,6.43-16.66,13.52-4.13,3.64-8.11,7.44c-.73.7-2.93,2.06-2.81,3.14s1.77,2,2.63,1.17a86.14,86.14,0,0,0,16.17,35.91c1.85,2.4,3.93,5.49,2.56,8.19-.61,1.21-1.78,2.78-.72,3.61.89.69,2.13-.34,2.59-1.37s.86-2.33,2-2.6c-.44,1.51,2.43,2.08,3.05.64s-.65-3.09-2.12-3.63c6-9.87,15.12-17.58,25.23-23.15s21.22-9.11,32.43-11.88c6.25-1.54,12.88-3,17.59-7.41,7-6.51,7.83-17.62,14.46-24.49,7.68-8,20.17-7.7,31-9.89,2.38-.48,5.17-1.55,5.59-3.94A3.28,3.28,0,0,0,692.1,279.47Z"/><path class="cls-7" d="M578.72,362.92c-.17,2.66-2,4.47-4.32,5.85a46.76,46.76,0,0,1-6.63,2.9,36.75,36.75,0,0,0-14.4,10.14c-3,3.48-6.25,8-10.84,7.62-8.4-.63-11.67-15.28-13.5-21.49-3.56-12.11-7.95-29.5-5.14-42.88a7.52,7.52,0,0,1,2.59-4.23q10.74-8.87,21.86-17.25a2.44,2.44,0,0,1,3.76,1.12v0a18.36,18.36,0,0,1,.57,7.39c-.35,6.1-.73,12.29.07,18.32.16,1.31.39,2.6.68,3.89,1.65,7.24,5.76,14.29,12.35,17.72,2.68,1.39,5.67,2.14,8.26,3.67S578.92,359.91,578.72,362.92Z"/><path class="cls-8" d="M574.45,369c-17.93,5.87-18.27,11.46-26.32,18.34a8.5,8.5,0,0,1-14-7.58c0-.09,0-.19,0-.28a82.61,82.61,0,0,0,.57-10.06q.39-.27.78-.6c8.05-6.88,8.39-12.47,26.32-18.35a4.41,4.41,0,0,0,.74-.3c3.39,2.5,7.24,3.77,11,5.24C579.5,357.7,580.51,367,574.45,369Z"/><path class="cls-9" d="M427.49,191.21c.87,23.08,7.33,35.92,10.75,17.25s21.25-12.75,21.25-12.75c16.67-51.42-5.82-85.3-37.25-98-25.32-10.23-47.75-5.42-61,16.5-10.38,17.18,4.2,48,25.75,48C422.27,162.18,426.49,165,427.49,191.21Z"/><path class="cls-3" d="M637.54,286.15c-3.32,1.73-7.6,4.76-11.31,2.33-3.52-2.31-3.49-6.75-3.08-10.46a1.62,1.62,0,0,1,1.76-1.43,6.28,6.28,0,0,1,.35-1.3c.7-1.78,3.6-1,2.89.8-2.09,5.27,5.05,6.81,8.63,7.26C638.11,283.52,639,285.38,637.54,286.15Z"/><path class="cls-10" d="M387.85,343.66a153.53,153.53,0,0,0,1.57,20.75c1.07,6.78,2.75,13.58,6.09,19.26a20.09,20.09,0,0,0,6.43,6.94,17.07,17.07,0,0,0,8.89,2.56,32.52,32.52,0,0,0,9.69-1.38,65.8,65.8,0,0,0,9.49-3.58,154,154,0,0,0,18-10.08c5.85-3.73,11.57-7.72,17.23-11.81s11.3-8.26,16.8-12.53c2.76-2.12,5.51-4.25,8.2-6.47l4.07-3.28,4-3.35c2.7-2.22,5.35-4.49,8-6.75l8-6.78q8-6.83,16.17-13.52a385.06,385.06,0,0,1,33.94-25.32,198.27,198.27,0,0,1,37.71-19.56c3.39-1.13,6.7-2.3,10.14-3.39a35.68,35.68,0,0,1,11-1.15,38.35,38.35,0,0,1,10.78,1.92,24,24,0,0,1,9.55,5.66,1.37,1.37,0,0,1-1.9,2l0,0a21.2,21.2,0,0,0-8.56-4.66,35.12,35.12,0,0,0-9.92-1.42,33.88,33.88,0,0,0-9.85,1.29c-3.22,1.1-6.49,2.35-9.73,3.51a193.83,193.83,0,0,0-36.4,20,412.38,412.38,0,0,0-33,25.63l-15.94,13.69c-5.32,4.58-10.66,9.15-16.12,13.6l-4.08,3.35L494,352c-2.75,2.21-5.58,4.33-8.41,6.45-5.65,4.24-11.35,8.31-17.12,12.38s-11.62,8-17.66,11.73A149.59,149.59,0,0,1,432,392.7a70.51,70.51,0,0,1-10.26,3.61,37,37,0,0,1-11.09,1.31,21.42,21.42,0,0,1-11-3.47,24.18,24.18,0,0,1-7.59-8.48c-3.6-6.57-5.05-13.75-6-20.79a156.48,156.48,0,0,1-1-21.22,1.37,1.37,0,0,1,2.73,0Z"/><path class="cls-10" d="M354.19,228.81l-3.88-2.14c-.65-.37-1.28-.7-1.94-1.1l-1-.67-.52-.34-.48-.4a16,16,0,0,1-5.42-8.32,16.74,16.74,0,0,1,.33-10.13,20,20,0,0,1,1.05-2.39,17.33,17.33,0,0,1,1.43-2.19l.81-1,.94-.94a22.5,22.5,0,0,1,1.77-1.56c4.53-3.77,9-7.6,13.72-11.17s9.45-7.07,14.21-10.56l-.53,3.21a8.52,8.52,0,0,0-.57-.81c-.23-.29-.47-.58-.73-.85s-.53-.53-.8-.8l-.86-.73a11.87,11.87,0,0,0-4-2.1,12.1,12.1,0,0,0-4.53-.51,15.22,15.22,0,0,0-2.36.32c-.78.18-1.56.45-2.36.67l-.2.06a1.36,1.36,0,0,1-.9-2.57c.86-.37,1.7-.8,2.6-1.12a18.51,18.51,0,0,1,2.8-.73,14.9,14.9,0,0,1,5.92.05,15.83,15.83,0,0,1,5.56,2.29c.41.28.82.58,1.22.88s.78.63,1.14,1,.73.69,1.07,1.07a12.85,12.85,0,0,1,1,1.27,2.29,2.29,0,0,1-.36,3.07l-.17.15c-4.46,3.85-8.93,7.69-13.45,11.46S355.5,198.4,350.81,202a18.49,18.49,0,0,0-1.6,1.28l-.66.58-.59.67a11.92,11.92,0,0,0-1.08,1.44,15,15,0,0,0-.83,1.61,10.73,10.73,0,0,0-.58,1.73,11.39,11.39,0,0,0-.35,1.8,12.65,12.65,0,0,0,1.4,7.24,11.83,11.83,0,0,0,1,1.59c.2.25.37.52.58.76l.67.69.33.35.38.3.76.62c.56.42,1.19.85,1.78,1.28l3.6,2.58a1.37,1.37,0,0,1-1.46,2.31Z"/><path class="cls-10" d="M394.18,181.85a14.42,14.42,0,0,1,3.41-1.48c.59-.18,1.19-.29,1.8-.43s1.23-.18,1.86-.22a16.26,16.26,0,0,1,7.55,1.27,9.39,9.39,0,0,1,1.7,1c.27.18.54.36.8.56s.48.44.71.66c.47.44.93.89,1.35,1.35l1.15,1.49c.18.25.39.49.54.75l.45.8c.3.53.57,1.07.85,1.6a31.5,31.5,0,0,1,1.19,3.34,1.38,1.38,0,0,1-2.31,1.37l-.14-.15c-.76-.78-1.42-1.58-2.1-2.34-.37-.35-.75-.69-1.1-1l-.53-.52c-.18-.16-.38-.3-.57-.45a25.4,25.4,0,0,0-4.64-2.89,15.16,15.16,0,0,0-5.1-1.85,23.19,23.19,0,0,0-5.85-.24l-.21,0a1.38,1.38,0,0,1-.81-2.55Z"/><path class="cls-10" d="M404.07,160.61a27.87,27.87,0,0,1-3.62,1.78,33,33,0,0,1-11.65,2.51,27.91,27.91,0,0,1-15.47-4.24,34.05,34.05,0,0,1-6.27-5.09,45.93,45.93,0,0,1-5-6.22c-.77-1.08-1.4-2.24-2.11-3.35l-1.82-3.65c-.49-1.27-.92-2.57-1.38-3.86s-.6-2.68-.89-4a32.58,32.58,0,0,1,1.82-16.2,40.17,40.17,0,0,1,8.68-13.66,45,45,0,0,1,28.7-13.66,56.69,56.69,0,0,1,8.05-.1A62.39,62.39,0,0,1,411,91.94a66.7,66.7,0,0,1,15,5,72.69,72.69,0,0,1,25,18.91,68.57,68.57,0,0,1,13.83,58.9,1.37,1.37,0,0,1-2.68-.58,66.22,66.22,0,0,0-14.94-55.07,68.52,68.52,0,0,0-23.59-16.9c-8.91-3.86-18.63-6-28.12-5.24a42,42,0,0,0-7,1.16,34,34,0,0,0-6.66,2.32,39.09,39.09,0,0,0-11.58,8,34.79,34.79,0,0,0-7.76,11.66,28.19,28.19,0,0,0-1.87,13.67c.22,1.14.41,2.29.65,3.43s.69,2.23,1.08,3.34l1.48,3.21c.62,1,1.17,2.14,1.84,3.14a41.64,41.64,0,0,0,4.34,5.76,30,30,0,0,0,5.37,4.64,24.35,24.35,0,0,0,13.3,4.2,30.9,30.9,0,0,0,13.89-3.24l.07,0a1.37,1.37,0,0,1,1.32,2.39Z"/><path class="cls-10" d="M398.79,231.36a13.58,13.58,0,0,1-.22,2.68c-.06.43-.16.85-.26,1.27a10.89,10.89,0,0,1-.33,1.26,22.86,22.86,0,0,1-2.06,4.76,29,29,0,0,1-6.7,7.86c-.68.52-1.38,1-2.09,1.51s-1.5.81-2.26,1.19l-1.14.57-1.18.46-2.35.89c-1.58.52-3.19.94-4.78,1.34s-3.24.54-4.86.74a1.38,1.38,0,0,1-.77-2.61l.1,0c1.42-.68,2.83-1.31,4.24-1.9,1.35-.74,2.73-1.36,4-2.09a75.8,75.8,0,0,0,7.32-4.9,31.46,31.46,0,0,0,6.34-5.76,18.8,18.8,0,0,0,1.29-1.72l.62-.89.54-.94a18.56,18.56,0,0,0,1-1.93c.14-.33.3-.67.41-1s.26-.7.35-.95l.08-.23a1.36,1.36,0,0,1,2.64.44Z"/><path class="cls-10" d="M443.59,197.43a23.38,23.38,0,0,1,3.5-2.45,15.8,15.8,0,0,1,4-1.68,8.21,8.21,0,0,1,4.76.11,7.4,7.4,0,0,1,3.68,3.17,19.2,19.2,0,0,1,2.25,8.3c.12,1.39.16,2.74.14,4.14,0,.7,0,1.4-.11,2.1a20.54,20.54,0,0,1-.26,2.1,28.47,28.47,0,0,1-2.63,8c-1.24,2.49-2.69,4.79-4.06,7a58.93,58.93,0,0,0-3.69,6.86,26.88,26.88,0,0,0-2.09,7.24c-.75,5-.32,10.29,0,15.63s.55,10.94-1.06,16.47a24.39,24.39,0,0,1-3.8,7.7l-1.35,1.68-1.5,1.53a18.81,18.81,0,0,1-1.6,1.42,18.44,18.44,0,0,1-1.71,1.29,35,35,0,0,1-15.77,5.59,71.93,71.93,0,0,1-16.41-.12,147.47,147.47,0,0,1-16-2.77c-10.52-2.32-20.69-5.57-31-7.35-2.58-.46-5.17-.83-7.77-1.08a72.49,72.49,0,0,0-7.77-.41,55.2,55.2,0,0,0-7.7.48c-1.28.14-2.53.4-3.78.62s-2.49.56-3.7,1c-9.79,2.82-18.06,9.58-24.14,17.86a67.79,67.79,0,0,0-7.69,13.44l-1.59,3.58-1.38,3.67c-1,2.42-1.66,5-2.47,7.43a128.46,128.46,0,0,0-4.83,31,172.31,172.31,0,0,0,2,31.43q.61,3.9,1.34,7.79c.54,2.58,1,5.18,1.63,7.74l.89,3.86,1,3.8c.62,2.55,1.48,5,2.24,7.53A129.37,129.37,0,0,0,301,437.6a109.81,109.81,0,0,0,7.73,13.53,87.9,87.9,0,0,0,21.53,22.14,86.26,86.26,0,0,0,13.37,7.81,92.4,92.4,0,0,0,14.56,5.34,97.58,97.58,0,0,0,15.26,2.9c2.57.27,5.17.49,7.75.5H387l1.79-.1.32,0a1.47,1.47,0,0,0-.4,0l.3,0,.56,0,.49,0h.38c14.48-.06,29-1.4,42.95-4.94q5.22-1.33,10.31-3.07l2.54-.9,2.49-1c1.66-.69,3.32-1.3,5-2a96.28,96.28,0,0,0,18.42-10.73,107.66,107.66,0,0,0,28-32,151.07,151.07,0,0,0,15.93-40,193.93,193.93,0,0,0,5.48-42.93c.14-7.23-.25-14.44-.75-21.77s-1.08-14.64-1.47-22-.52-14.77-.65-22.13-.12-14.73,0-22.1c.19-14.74.79-29.48,2-44.19q3.83-44.07,11.6-87.57c1.31-7.25,2.68-14.48,4.18-21.69.74-3.61,1.51-7.21,2.29-10.8l1.19-5.39a15.81,15.81,0,0,1,2.48-5.82,13.11,13.11,0,0,1,5-4.28,13.71,13.71,0,0,1,3.15-1.05,13,13,0,0,1,3.34-.18,10.39,10.39,0,0,1,6.27,2.72,9.26,9.26,0,0,1,2.06,2.94,10,10,0,0,1,.78,3.41,12.67,12.67,0,0,1-.29,3.29c-.21,1-.42,1.8-.63,2.72-.4,1.77-.81,3.54-1.13,5.29a31,31,0,0,0-.55,10.25,15.31,15.31,0,0,0,4.36,8.55,13.26,13.26,0,0,0,3.83,2.9,22.38,22.38,0,0,0,4.75,1.69c3.41.85,7.09,1.28,10.84,2.41a23.29,23.29,0,0,1,5.5,2.4,19.08,19.08,0,0,1,4.58,4,22.4,22.4,0,0,1,3.18,5.06,32.94,32.94,0,0,1,2,5.48,60,60,0,0,1,1.79,11.22,174.92,174.92,0,0,1,.27,22.24,47,47,0,0,1-1.6,11.3,19.29,19.29,0,0,1-2.58,5.43,16.75,16.75,0,0,1-4.35,4.27A21.62,21.62,0,0,1,581.6,204a26.4,26.4,0,0,1-5.81-.43l-.76-.14-.71-.18c-.47-.13-1-.21-1.4-.38-.91-.32-1.83-.6-2.73-.95a36.05,36.05,0,0,1-9.79-6,39.74,39.74,0,0,1-7.59-8.51A32.9,32.9,0,0,1,548.19,177a24.61,24.61,0,0,1,0-11.57,1.37,1.37,0,0,1,2.66.65A21.82,21.82,0,0,0,551,176.3a30,30,0,0,0,4.31,9.52A35.61,35.61,0,0,0,571.35,199c.82.31,1.66.55,2.48.84.41.15.84.22,1.26.33l.63.15.6.1a23.15,23.15,0,0,0,5.15.34,18.36,18.36,0,0,0,9.51-3,13.35,13.35,0,0,0,3.44-3.43,15.87,15.87,0,0,0,2.08-4.5,43.8,43.8,0,0,0,1.35-10.47,174.65,174.65,0,0,0-.41-21.78,56.36,56.36,0,0,0-1.73-10.5,29.11,29.11,0,0,0-1.79-4.85,18.58,18.58,0,0,0-2.68-4.23,15.2,15.2,0,0,0-3.67-3.19,19.43,19.43,0,0,0-4.58-2c-3.3-1-6.95-1.39-10.67-2.29a26.32,26.32,0,0,1-5.61-2,17.43,17.43,0,0,1-4.93-3.67,19.47,19.47,0,0,1-5.52-10.72,35,35,0,0,1,.49-11.65c.32-1.86.73-3.68,1.13-5.49.2-.88.44-1.84.6-2.65a8.43,8.43,0,0,0,.19-2.17,5,5,0,0,0-1.53-3.45,6.08,6.08,0,0,0-3.67-1.52A8.31,8.31,0,0,0,546,91a11.37,11.37,0,0,0-1.76,4.26l-1.15,5.37c-.76,3.58-1.5,7.17-2.21,10.76-1.44,7.18-2.76,14.39-4,21.6-5,28.86-8.63,58-11,87.16-1.07,14.58-1.62,29.21-1.73,43.84q-.08,11,.13,22c.17,7.32.31,14.65.75,21.91s1,14.59,1.57,21.94,1,14.79.87,22.25a193.33,193.33,0,0,1-5.56,44.3,157,157,0,0,1-16.58,41.59,113.66,113.66,0,0,1-29.63,33.81,102.32,102.32,0,0,1-19.57,11.4c-1.7.77-3.48,1.43-5.21,2.14l-2.62,1-2.65.94q-5.34,1.82-10.81,3.17a183.2,183.2,0,0,1-44.4,4.91l.38,0-.68.06-.61,0,.3,0a4.75,4.75,0,0,1-.72.07l.32,0-.72,0-.49,0-1,0h-2.06l-4.13,0c-2.75,0-5.47-.27-8.2-.57a103.18,103.18,0,0,1-16.12-3.15,97.94,97.94,0,0,1-15.41-5.73,91.73,91.73,0,0,1-14.18-8.37,93.26,93.26,0,0,1-22.73-23.6,115,115,0,0,1-8.06-14.25,134.53,134.53,0,0,1-6-15.17c-.77-2.6-1.65-5.18-2.28-7.81l-1-3.93-.89-3.94c-.63-2.62-1.09-5.28-1.63-7.92s-.93-5.31-1.33-8a177.14,177.14,0,0,1-1.87-32.35,133.17,133.17,0,0,1,5.17-32.08c.85-2.58,1.57-5.21,2.61-7.73l1.46-3.81,1.67-3.72a72.29,72.29,0,0,1,8.24-14.22,60.11,60.11,0,0,1,5.37-6.31,51.69,51.69,0,0,1,6.24-5.51,45.6,45.6,0,0,1,14.9-7.52c1.33-.42,2.69-.71,4.05-1s2.73-.52,4.11-.66a59.43,59.43,0,0,1,8.26-.48,76.79,76.79,0,0,1,8.19.47c2.71.28,5.4.68,8.07,1.16,5.33,1,10.58,2.25,15.75,3.62s10.29,2.73,15.44,3.92a145.87,145.87,0,0,0,15.52,2.78,68.16,68.16,0,0,0,15.51.26A31.31,31.31,0,0,0,436,285a15.23,15.23,0,0,0,1.49-1.1,15.61,15.61,0,0,0,1.4-1.22l1.32-1.31,1.16-1.43a20.8,20.8,0,0,0,3.29-6.54c1.45-4.76,1.31-10,1.05-15.29s-.68-10.76.18-16.3a30.21,30.21,0,0,1,2.4-8.05,62,62,0,0,1,3.94-7.19c1.41-2.29,2.83-4.49,4-6.78a25.4,25.4,0,0,0,2.42-7.13,31.3,31.3,0,0,0,.26-7.6,16.6,16.6,0,0,0-1.77-7,4.56,4.56,0,0,0-2.21-2,5.43,5.43,0,0,0-3.12,0,17.21,17.21,0,0,0-6.4,3.47l-.06,0a1.37,1.37,0,0,1-1.74-2.1Z"/><path class="cls-10" d="M465.43,253.11a110.14,110.14,0,0,1,11.77,1.58q5.84,1.15,11.57,2.84a101.51,101.51,0,0,1,22,9.44,66.47,66.47,0,0,1,18.27,15.86,50.06,50.06,0,0,1,10.26,21.8,1.37,1.37,0,0,1-2.66.68,52.47,52.47,0,0,0-11.41-19.24c-5.07-5.52-11.21-9.94-17.6-13.91a117.24,117.24,0,0,0-20.46-10q-5.36-2.05-10.92-3.6c-3.69-1.08-7.44-2-11.22-2.76h0a1.37,1.37,0,0,1,.38-2.71Z"/><path class="cls-10" d="M421.51,246.78a27.34,27.34,0,0,1-4.66,14.43,38.16,38.16,0,0,1-10.78,10.74,45.8,45.8,0,0,1-13.87,6.24A45.31,45.31,0,0,1,377,279.73a35.85,35.85,0,0,1-7.67-1.32c-1.26-.39-2.52-.87-3.76-1.34-1.19-.63-2.4-1.2-3.53-1.91a30.16,30.16,0,0,1-10.49-11.64A44.16,44.16,0,0,1,347.12,249a65.9,65.9,0,0,1-.34-14.78,1.37,1.37,0,0,1,2.74.08v0a73.45,73.45,0,0,0,1.57,14,42.61,42.61,0,0,0,4.81,12.74,25.55,25.55,0,0,0,9.09,9.11c.93.52,1.93.91,2.88,1.38,1,.3,2,.7,3.06,1s2.13.55,3.23.67l1.64.28,1.66.16a42.76,42.76,0,0,0,13.39-.93,47.5,47.5,0,0,0,6.5-2,45,45,0,0,0,6.1-3,33.71,33.71,0,0,0,10.13-8.87,25.11,25.11,0,0,0,5.2-12.3h0a1.37,1.37,0,0,1,2.73.16Z"/><path class="cls-10" d="M580.58,253.51a56.19,56.19,0,0,0-7-6.15,41.42,41.42,0,0,0-7.83-4.66c-.69-.31-1.38-.59-2.07-.87s-1.34-.49-2-.66a29,29,0,0,0-4.28-.8c-3-.35-6.11-.29-9.44-.55a35.22,35.22,0,0,1-5.08-.69,46.54,46.54,0,0,1-4.89-1.34,77.49,77.49,0,0,1-9.21-3.72,147.17,147.17,0,0,1-16.9-9.64,1.38,1.38,0,0,1,1.3-2.42c5.88,2.59,11.66,5.29,17.54,7.45a87.5,87.5,0,0,0,8.89,2.75c1.48.36,3,.7,4.44,1s2.91.43,4.44.59c3.06.28,6.33.49,9.73,1a30.92,30.92,0,0,1,5.08,1.32c.84.28,1.66.65,2.47,1s1.53.76,2.27,1.19a45.85,45.85,0,0,1,8.16,6,49.32,49.32,0,0,1,6.55,7.48,1.37,1.37,0,0,1-2.1,1.75Z"/><path class="cls-10" d="M465.31,431.22c7.91,3.34,15.91,6.47,24,9.1,4.06,1.33,8.15,2.59,12.29,3.57l6.19,1.57c2.08.4,4.15.89,6.24,1.23a117,117,0,0,0,25.16,1.88,77.54,77.54,0,0,0,24.26-5l2.8-1.26a23.73,23.73,0,0,0,2.75-1.35l2.69-1.47a10.37,10.37,0,0,0,1.3-.8l1.27-.85c.84-.58,1.72-1.1,2.52-1.74l2.38-1.93,1.2-1c.38-.34.74-.71,1.11-1.06l2.21-2.14a64.19,64.19,0,0,0,7.68-9.72c1.19-1.71,2.16-3.55,3.21-5.35.52-.9.94-1.86,1.42-2.79s1-1.86,1.34-2.84l1.24-2.89c.4-1,.74-2,1.12-2.95.78-2,1.35-4,2-6,1.15-4.06,2.24-8.17,3-12.35a181.51,181.51,0,0,0,2.91-25.43h0a1.37,1.37,0,0,1,2.74.07,166.62,166.62,0,0,1-1.67,26.06,121.91,121.91,0,0,1-2.58,12.9c-.61,2.11-1.14,4.26-1.89,6.34-.36,1-.68,2.1-1.07,3.14L602,411.29c-.38,1-.86,2-1.32,3.06s-.89,2-1.41,3c-1,2-2,4-3.26,5.84A69.76,69.76,0,0,1,588,434a59.74,59.74,0,0,1-22.23,15.26,79.29,79.29,0,0,1-26.3,4.88,118.48,118.48,0,0,1-26.28-2.62c-2.15-.43-4.27-1-6.4-1.5l-6.29-1.83c-4.21-1.16-8.33-2.59-12.41-4.09a258.71,258.71,0,0,1-23.88-10.38,1.37,1.37,0,0,1,1.14-2.48Z"/><path class="cls-10" d="M627.06,277.38a9.49,9.49,0,0,0-1.14,1.49,8.76,8.76,0,0,0-.82,1.72,5.87,5.87,0,0,0-.14,3.52,7.27,7.27,0,0,0,1.88,3.15c.18.22.57.59.4.44a3.14,3.14,0,0,0,.37,0,6.88,6.88,0,0,0,1.72-.25,44.18,44.18,0,0,0,7.87-3.27c2.62-1.31,5.18-2.75,7.84-4.17.69-.36,1.31-.7,2.2-1.07l2.11-.82c1.42-.52,2.84-1,4.27-1.52,2.87-1,5.77-1.84,8.72-2.56a68.64,68.64,0,0,1,18.3-2.29,33.19,33.19,0,0,1,9.48,1.65l1.17.43.58.22c.23.1.49.25.74.37a8.17,8.17,0,0,1,2.46,2.17,7.5,7.5,0,0,1,1.36,3.14,5.55,5.55,0,0,1-.78,4,5.72,5.72,0,0,1-3.3,2.31,6.47,6.47,0,0,1-.82.17c-.25,0-.59.1-.73.11l-1.09.11c-1.46.15-2.91.33-4.35.52-2.9.39-5.78.86-8.62,1.43a83.64,83.64,0,0,0-8.35,2.11,35.46,35.46,0,0,0-7.55,3.24c-.53.35-1,.71-1.55,1.06s-.9.73-1.29,1.19a22,22,0,0,0-2.32,3.13,82.63,82.63,0,0,0-4.09,7.55l-2,4a41.58,41.58,0,0,1-2.35,4.2,26.71,26.71,0,0,1-16.19,11.13c-2.87.68-5.72,1.33-8.54,2.11a153.92,153.92,0,0,0-16.63,5.48,106.26,106.26,0,0,0-15.64,7.61,71.34,71.34,0,0,0-7.16,4.84c-.58.43-1.14.88-1.69,1.34s-1.11.91-1.64,1.39-1,.92-1.74,1.5l-1,.81-1.11.68a15.52,15.52,0,0,1-17.06-1c-.35-.25-.65-.56-1-.84a7.59,7.59,0,0,1-.92-.9l-.84-1a12.28,12.28,0,0,1-.73-1.06,13.57,13.57,0,0,1-1.2-2.27,22.63,22.63,0,0,1-.8-2.41l-.51-2.17c-.69-2.9-1.34-5.86-1.79-8.87a47.31,47.31,0,0,1,.44-18.31,1.37,1.37,0,0,1,2.68.59h0a44.24,44.24,0,0,0,.28,17.14c.55,2.85,1.26,5.69,2,8.55l.57,2.16c.23.6.37,1.23.66,1.8a9.73,9.73,0,0,0,.93,1.64,8.55,8.55,0,0,0,.55.76l.63.69a4.7,4.7,0,0,0,.69.64c.25.19.47.42.73.59a11.73,11.73,0,0,0,5.22,2,11,11,0,0,0,7.13-1.6l.78-.5.71-.61c.43-.35,1-.94,1.6-1.45s1.14-1,1.72-1.54,1.16-1,1.77-1.48a76.14,76.14,0,0,1,7.47-5.36c10.32-6.6,21.75-11,33.32-14.44,2.89-.86,5.83-1.6,8.73-2.35a21.52,21.52,0,0,0,7.07-3.2,20.5,20.5,0,0,0,5.39-5.52,37.42,37.42,0,0,0,2-3.58l2-4a88,88,0,0,1,4.47-8.09,26.79,26.79,0,0,1,3.06-4,23.59,23.59,0,0,1,2-1.8c.71-.5,1.43-1,2.15-1.42a41,41,0,0,1,8.87-3.66,89.23,89.23,0,0,1,9-2.11c3-.56,6-1,9-1.34,1.5-.17,3-.33,4.51-.46l1.13-.1a3.09,3.09,0,0,0,.37-.05,1.8,1.8,0,0,0,.27,0c.33-.08.34-.16.32-.11s0,0,0-.26a2.32,2.32,0,0,0-.39-.92,3,3,0,0,0-.84-.77l-.25-.14-.46-.18-.92-.36a29.81,29.81,0,0,0-8-1.55,64.15,64.15,0,0,0-17,1.72c-2.84.62-5.65,1.4-8.45,2.25-1.4.42-2.78.89-4.17,1.36l-2.07.74c-.49.18-1.19.53-1.83.84-2.62,1.31-5.31,2.68-8.05,3.94-1.37.63-2.77,1.24-4.2,1.8a30.66,30.66,0,0,1-4.51,1.43,9.8,9.8,0,0,1-2.7.25,4.21,4.21,0,0,1-1.77-.5,4.83,4.83,0,0,1-1.18-1.12,10.35,10.35,0,0,1-2.44-4.54,8.87,8.87,0,0,1,.38-5.25,11.61,11.61,0,0,1,1.18-2.26,11.81,11.81,0,0,1,1.65-2,1.37,1.37,0,0,1,1.93,1.93Z"/></svg>