<svg id="Layer_1" data-name="Layer 1" xmlns="http://www.w3.org/2000/svg" viewBox="0 0 960 560"><defs><style>.cls-1{fill:#43f1ff;}.cls-2{fill:#ffab91;}.cls-3{fill:#ff9c7d;}.cls-4{fill:#a0a4ff;}.cls-5{fill:#d3fffd;}.cls-6{fill:#878cff;}.cls-7{fill:#fff;}.cls-8{fill:#ffdee8;}.cls-9{fill:#a25000;}.cls-10{fill:#8f4700;}.cls-11{fill:#ffdf69;}.cls-12{fill:#fff4cc;}.cls-13{fill:#ffc869;}.cls-14{fill:#fff1d9;}.cls-15{fill:#233940;}</style></defs><title>man, people, person, avatar, drink</title><path class="cls-1" d="M701.63,432.7c-62.06,51.58-168.37,77.68-229.51,64-34.19-7.64-63.45-20.35-88.1-37.85-44.72-31.73-74.25-79.19-90.4-140.65C251.41,157.65,447.88-7.11,591.61,87.38,666.28,136.46,710,225,742.66,305.22,763.22,355.73,741.6,399.49,701.63,432.7Z"/><path class="cls-2" d="M330.16,326.8s-1.72-2.45-4.78-6c-1.27-1.46-2.77-3.11-4.47-4.84-.94-1-1.94-1.94-3-2.93l-.74-.68a81.53,81.53,0,0,0-9-7.19c-1.22-.83-2.47-1.63-3.76-2.38-6.32-3.72-13.44-6.35-20.9-6.35-25.33,0-44.87-28.15-40-52.11a70.21,70.21,0,0,0,1.62-12.75c.15-9.82-3.82-9.24-3.82-9.24s-7.66-2.13-14.72-3.79a89.89,89.89,0,0,0-9.58-1.86c-4.16-.42-11.63-13.1,1-14.1,3.63-.29,7.52-.35,11.15-.29,6.79.11,12.66.63,14.16.77l.38,0,80,.64s33.9.13,48.77,58.17c.09.34.17.68.24,1a57.84,57.84,0,0,1,1.5,9.33C377.4,313.77,330.16,326.8,330.16,326.8Z"/><path class="cls-3" d="M374.15,272.29a5.44,5.44,0,0,1-4.34,1.9,53.53,53.53,0,0,0-21.9,4.51,61.06,61.06,0,0,0-11.41,12.66c-3,4.52-4.73,9.35-7.09,14.17a17,17,0,0,1-1.18,2,6.69,6.69,0,0,1-.43,6.47,5.61,5.61,0,0,1-.46,4.82,5.89,5.89,0,0,1-2,2c-1.27-1.46-2.77-3.11-4.47-4.84-.94-1-1.94-1.94-3-2.93l-.74-.68a81.53,81.53,0,0,0-9-7.19c-1.22-.83-2.47-1.63-3.76-2.38a6.5,6.5,0,0,1,2.13-1.64,6.25,6.25,0,0,1,4.35-6.13c7.61-2.67,10.74-9.87,9.24-17.12a5.46,5.46,0,0,1-1.16-3.72c0-.31,0-.62,0-.93a5.76,5.76,0,0,1,2.22-4.62c-.2-.32-.41-.64-.61-1a26.65,26.65,0,0,1-3.5-13.46c0-4,2-10-1.17-13.14-5.4-5.45,3-13.87,8.42-8.42,6.29,6.35,4.58,13.57,4.66,21.56a14.63,14.63,0,0,0,6.48,12.11c5.12,3.2,11.17.78,16.32-1a53.47,53.47,0,0,1,18-3,5.85,5.85,0,0,1,2.84.68C375.94,264.73,376.44,269.58,374.15,272.29Z"/><path class="cls-2" d="M589.38,287.39c-26.07,32.91-79.06,17.1-83.42-24.66l-3.36-32.25a47.73,47.73,0,0,0-9.51-23.7c-3.61-4.8-7.45-12.37-9-23.8-.35-2.58-.68-4.89-1-7-.2-1.36-.46-2.7-.79-4a38.57,38.57,0,0,0-1.38-4.59,47.12,47.12,0,0,0-8.83-14.91c-3.55-4.08-6.91-10.45-6.91-19.94a47,47,0,0,1,20.74-39c12.26-8.24,33.1-17.21,52-12.29,16.25,4.23,26.56,16.39,34.19,31.58,3.85,7.66,4.74,16,6.68,24.26,5.54,23.54,13.47,55.64,34.3,70.65C626.75,217.58,613.25,257.27,589.38,287.39Z"/><path class="cls-4" d="M728.05,403.25c-9.51,11.55-19.35,19.66-26.42,29.45-1.29,1.08-2.61,2.14-3.94,3.2-34.63,27.39-81.74,47.2-127,57.15-36.49,8-71.82,9.64-98.53,3.67-34.19-7.64-63.45-20.35-88.1-37.85,0,0,17.18-6.08,38.19-32.88-27.28.74-51.93-5.27-71.44-25.94s-35.23-56.48-28.16-83.58c1.89-7.23,7.21-12.72,11.84-19.34a123.88,123.88,0,0,1,17.46-19.64c6-5.61,12.67-12.54,20.5-15.54,7.43-2.84,16.85-.72,20.23,7,3.68,8.45.42,16.68-5.32,21.83h0a21.75,21.75,0,0,1-3,2.26c-4.11,2.59-3.28,9.19-1.5,15.69,1,3.67,2.32,7.32,3.22,10.18,2.32,7.34,5,15.22,10.32,21,7.36,8,17.24,8.38,26,4.61a37,37,0,0,0,15.38-12.54c10.91-15.56,12.65-35.1,18.79-52.62,5.71-16.31,15.59-31.21,32.37-37.43a5.52,5.52,0,0,1,3-.3l1.89-1.2s-8.14-29.73-1.14-37.26c0,0,10,15.52,21.78,16.55,0,0,7.28,6.11,0,30.39,0,0,11.58,28.12,11.65,44.2S535.72,290,538.42,279c1.76-7.17,4-17.16,6.87-26.26a110.83,110.83,0,0,1,4-11c.34-.76.68-1.5,1-2.21,0,0-16.09-11-15.63-28,0,0,17.09-23.43,38.77-34.22s58.27-1.34,97.48,33.18c23.18,20.4,57.75,55.32,72.64,95.22C755.16,336.66,754.84,370.68,728.05,403.25Z"/><path class="cls-5" d="M324.87,229.23s-.71,48.24-7.71,65.69A37.4,37.4,0,0,1,310,306.74a7.32,7.32,0,0,1-5.33,2.29c-11,0-16.6.12-27.79.12-9.31,0-13.58-11.37-16.2-21.79,13.73,8.51,25-9.44,26.53-23.72a23.4,23.4,0,0,0-.26-7.75c-1.27-5.49-4.88-6.64-5.83-11.06a10.41,10.41,0,0,1-.24-2.35c0-8.5-6.67-15.67-19.67-15.67-11.61,0-15.25-8.24-17-19.5-.21-1.35-.4-2.74-.56-4.16l0-.25a18.2,18.2,0,0,1,0-4.39,9.6,9.6,0,0,1,9.4-8.66c21.79,6.07,53.78-2.39,62.19-4.44l1.07-.26.33-.07.31,0a4.67,4.67,0,0,1,5.65,3.49.81.81,0,0,1,.07.22c.14.52.34,1,.36,1.21,0,.07.15.14.15.22v.07l.59,13.33-.22.17c-5-1.47-11.81,5.78-11.81,5.78l-18.43,19.72a16.21,16.21,0,0,0,1.55,3.62c4.22,7.11,12.09,5.36,12.09,5.36L317.44,233Z"/><path class="cls-3" d="M514.44,219.79s9.62,15.21-1.52,34.43a116,116,0,0,1,13.17,40.17s5.56,15.29,7.82,5.06,25.44-51.31,29.31-59.63c0,0-26.21-2.27-27.3-19.64C535.92,220.18,520.58,221.59,514.44,219.79Z"/><ellipse class="cls-3" cx="554.1" cy="123.41" rx="13.94" ry="16.02"/><ellipse class="cls-2" cx="550.26" cy="123.08" rx="12.33" ry="14.17"/><path class="cls-6" d="M381.18,299.22c-.19-1.43-.29-2.86-.36-4.3a53.87,53.87,0,0,0-21.47,33.54c-1.36,7.49,10.11,10.7,11.48,3.16a42.93,42.93,0,0,1,12-22.83,34.45,34.45,0,0,1-1.46-8.95A2.1,2.1,0,0,1,381.18,299.22Z"/><path class="cls-7" d="M743.59,305.65l-.93-.43s-21.28-29.62-39.89-9.59c-16.74,18-34.14,22.2-37.45,22.85l-.35.07a19.42,19.42,0,0,1,1.65,5.14.32.32,0,0,1,0,.14c.07.35.13.7.18,1.06s.09.61.13.92.07.61.1.92.06.62.08.93.05.62.06.93,0,.49,0,.73,0,.68,0,1,0,.83,0,1.24,0,.76,0,1.15,0,.69,0,1.05,0,.44,0,.67v.32a27.91,27.91,0,0,1-1.15,6,.68.68,0,0,0-.21-.28.17.17,0,0,0-.1,0h-.13c-.05,0-.1.1-.15.08l-.17-.08h-.17a1,1,0,0,1-.21,0h0c-.05,0-.11.11-.17.09a1.21,1.21,0,0,0-.51,0c-.18,0-.38-.33-.58-.42s-.21-.17-.33-.22a3.56,3.56,0,0,0-.34-.17c-.07,0-.15-.11-.23-.15l-.06,0h-.84c-.27,0-.56-.38-.85-.49s-.29-.18-.43-.24,0,0,0,0l-.46-.2a.45.45,0,0,1-.14-.07,7,7,0,0,0-.85-.53c-.08,0-.16.09-.24.13s-.09,0-.13,0a1.56,1.56,0,0,1-.15-.51h-1.07c-.19,0-.37-.25-.56-.32a110.87,110.87,0,0,0-31.4-6.86A83.32,83.32,0,0,0,602,332c-19.53,4.36-33.43,20-52.61,24.74-14.74,3.67-34.18,5.09-46.65-5.39-14.49-12.17-30.66-7.73-38.42,1a18.17,18.17,0,0,0-1.59,2,143.93,143.93,0,0,1-5.21,19.82,82.16,82.16,0,0,1-5.65,13l-.13.25s-.25-14.19-5.08-22.88c-2.14-3.84-5.16-6.61-9.45-6.61-14,0-14.89-11.88-14.89-11.88l.08-1.5a37,37,0,0,0,15.38-12.54c10.91-15.56,12.65-35.1,18.79-52.62a74.39,74.39,0,0,1,12.54-23.12c6.32-7.6,13.81-12.78,23.44-15,2.46-.57,0-6.14-.37-7.93-.71-3.38-1.32-6.78-1.74-10.21-.68-5.55-1.43-12.13.76-17.45a8.05,8.05,0,0,1,1.5-2.45s5.19,8,12.47,12.91a0,0,0,0,0,0,0,20.09,20.09,0,0,0,9.27,3.62s7.28,6.11,0,30.39c0,0,5.63,14.83,10.33,29.41.49,1.53,1,3.06,1.44,4.56,1.26,4.09,2.39,8,3.24,11.49a20.36,20.36,0,0,1,1.42-9.76,30.34,30.34,0,0,1,4.89-8.36c5-6.18,12.78-10.89,15.61-20,.34-1.09.71-2.24,1-3.43a17.62,17.62,0,0,0,.63-7.37c0-.22-.08-.45-.13-.67s-.08-.38-.14-.57a10.87,10.87,0,0,0-.48-1.46c-.31-.77-2.29-3.87-2-4.58,0,0-10.78-4.12-14.57-15.84-.9-2.79-1.15-8.88-1.06-12.14,0,0,17-23.43,38.68-34.22a42.5,42.5,0,0,1,11.78-3.66c22-3.33,53,8,85.7,36.84C694,230.83,728.7,265.75,743.59,305.65Z"/><path class="cls-8" d="M497.19,242.7c3.65,2.8,8.3,4.42,11.79,7.52a45.73,45.73,0,0,1,5.79,6.23c.93,1.2,4.6,5.17,4.42,6.72,2.3-19.31-.14-40.42-.57-44.65-4.44.65-8-3-11.75-4.07-4-1.15-3.3-3.76-6-7.06-1.66-2-7-1.47-8.76-3.45-4.3,7.13-4.81,15.51-2.94,23.23C490.51,232.6,492.56,239.16,497.19,242.7Z"/><path class="cls-8" d="M590,220.13c-5.61,5.45-11.07,11.33-17.43,15.92a25.37,25.37,0,0,1-22.24,3.4c-.34.71,1.64,3.81,2,4.58a10.87,10.87,0,0,1,.48,1.46c0,.19.1.38.14.57s.09.45.13.67a17.62,17.62,0,0,1-.63,7.37c-.32,1.19-.69,2.34-1,3.43-2.83,9.1-10.61,13.81-15.61,20-.47.58-.9,1.16-1.31,1.73a32.89,32.89,0,0,1,5.3.62c4.09.86,8.52,4.89,13,4.4s9.37-5.92,11-10.08c2-5.29,1.79-11.12,4-16.32,4.38-10.13,14.55-15.58,23-21.9a55.21,55.21,0,0,0,5.28-7,49,49,0,0,0,5.69-12.31c1.16-3.89,1.56-9.48,4.65-12.46Z"/><path class="cls-9" d="M585.74,170.82a7.17,7.17,0,0,1-.58,2.78,42.41,42.41,0,0,0-11.79,3.65c-16.63,8.28-30.54,24-36.11,30.87a11.85,11.85,0,0,0-2.51,7.66,41.46,41.46,0,0,0,.41,4.93,5.39,5.39,0,0,1-1.45.12,79.6,79.6,0,0,1-13.66-.58l-.78-.12A43.5,43.5,0,0,1,497,210c-6.85-6.07-10.41-14.07-12.08-22.94-1.81-9.63-4.67-18.73,5.26-23.54,11.61-5.62,27.3-8,40-5.79,7.48,1.33,12.33,7.43,24,3.16,7.27-2.66,5.55-11.58,8.42-15.74a6.75,6.75,0,0,1,6-2.93h.07a6.54,6.54,0,0,1,3.88,1.61,6.7,6.7,0,0,1,2.14,3.47,47.76,47.76,0,0,0,5.64,13.43,46.09,46.09,0,0,0,3,4.29c.34.43.67.85,1,1.26A7,7,0,0,1,585.74,170.82Z"/><path class="cls-6" d="M451.82,387.22c-7,14.42-16.62,28-29.61,38.77,0,0-38,2.48-62.06-17.14,1,.43,35,14.61,67.71-18.05,7.33-7.33,13.53-16.45,18.75-26.22,4.83,8.69,5.08,22.88,5.08,22.88Z"/><path class="cls-10" d="M585.74,170.82a7.17,7.17,0,0,1-.58,2.78,42.41,42.41,0,0,0-11.79,3.65c-18.33,9.13-33.85,27.11-37.44,32.91a9.36,9.36,0,0,0-1,3.47c-.18,2.34-.47,4.82.26,7.08a5.39,5.39,0,0,1-1.45.12,79.6,79.6,0,0,1-13.66-.58l-.78-.12a5.37,5.37,0,0,1-.15-.76,27,27,0,0,1,2-15.15c3.15-6.55,9.51-11.68,15-16.23,9.18-7.6,20.07-15.42,32.08-17.4A58.21,58.21,0,0,1,585.74,170.82Z"/><path class="cls-8" d="M470.3,315.72a242.62,242.62,0,0,1-6,36.63,192.41,192.41,0,0,1-6.8,21.83c-1.67,4.38-3.55,8.75-5.65,13l-.13.24s-.25-14.19-5.08-22.88c8.87-16.6,14.89-35.06,18.75-49.73A2.52,2.52,0,0,1,470.3,315.72Z"/><path class="cls-6" d="M564.1,484.54q.92.82,1.76,1.71c2.1,2.22,4.12,4.92,7.12,5.48a11.57,11.57,0,0,0,4.67-.4A323.21,323.21,0,0,0,696.43,436.9,85.38,85.38,0,0,1,641.56,450c-7-.74-14.51-2.69-19-8.15-3.14-3.81-4.38-8.79-5.83-13.52a117,117,0,0,0-10.47-24c-3.33-5.77-7.26-11.61-7.54-18.26a18.14,18.14,0,0,1,12.13-17.49c9.25-3,19.63,2.28,25.29,10.2s7.57,17.85,8.87,27.49c.48,3.58,1.75,8.07,5.34,8.46,4.08.44,6.1-4.85,6.22-8.95a51.79,51.79,0,0,0-3.88-21.24c-2.45-5.93-6.07-12.42-3.59-18.35,1.68-4,5.71-6.43,8.81-9.49a24.91,24.91,0,0,0,7.28-15.85A113,113,0,0,0,632.6,331c-2.25-.32-4.7-.55-6.67.58s-2.88,3.07-4,4.88c-7,11.56-19.83,18.16-29.5,27.63-17.17,16.81-23.55,41.65-27,65.43-2,13.66-3.19,27.4-4.43,41.14-4.8-2-9.7-4-14.87-4.41-3.94-.34-8.55.28-11.83,2.66-4.28,3.1-.71,6.45,3.44,7.45,2.63.63,5.37.43,8.07.59A30.39,30.39,0,0,1,564.1,484.54Z"/><path class="cls-5" d="M323.7,203.78c0-.07,0-.15,0-.22l-.08-1.74c-1.21.74-2.47,1.43-3.76,2.09A6.1,6.1,0,0,1,323.7,203.78Z"/><path class="cls-3" d="M572.52,143.81a6.54,6.54,0,0,0-3.88-1.61h-.07a6.75,6.75,0,0,0-6,2.93c-2.87,4.16-1.15,13.08-8.42,15.74-11.67,4.27-16.52-1.83-24-3.16-12.68-2.25-28.37.17-40,5.79-4.38,2.13-6.75,5.07-7.88,8.52a38.57,38.57,0,0,0-1.38-4.59,14.59,14.59,0,0,1,7.26-6.93c11.61-5.62,27.3-8,40-5.79,7.48,1.33,12.33,7.43,24,3.16,7.27-2.66,5.55-11.58,8.42-15.74a6.75,6.75,0,0,1,6-2.93h.07A6.68,6.68,0,0,1,572.52,143.81Z"/><path class="cls-7" d="M243.63,203.14c.16,1.42.35,2.81.56,4.16q.38,2.49.91,4.76a36.09,36.09,0,0,0,11.58,6.12c12.56,3.61,23.66-2.64,34.79-7.51,10.16-4.44,22.72-7,32-13.45l-.31-7v-.07c0-.08-.13-.15-.15-.22,0-.25-.22-.69-.36-1.21a.81.81,0,0,0-.07-.22,4.67,4.67,0,0,0-5.65-3.49l-.31,0-.33.07-1.07.26c-8.41,2-28.58,16.62-55,9.88-.11,0-15.46-5.41-16.64,3.22a18.2,18.2,0,0,0,0,4.39Z"/><path class="cls-11" d="M324.87,229.23s-.06,4.08-.31,10.3c-.64,15.16-2.44,43-7.4,55.39a36.24,36.24,0,0,1-8.1,12.72,5,5,0,0,1-3.45,1.38c-11.71,0-17.27.12-28.79.12-7.66,0-11.91-7.7-14.64-16.24-.58-1.83-1.1-3.71-1.56-5.55,13.73,8.51,25-9.44,26.53-23.72a23.4,23.4,0,0,0-.26-7.75c-1.27-5.49-4.88-6.64-5.83-11.06a10.41,10.41,0,0,1-.24-2.35c0-6-3.35-10.36-8.51-13-3.76-1.91-7.9-1.74-11.94-2.4-1.14-.19-2.1-.35-3-.55a14.85,14.85,0,0,1-6.53-3.15c-4-3.08-6.37-12.84-6.37-12.84,5.22-3.16,11.14-1.2,16,1.48,5.34,3,10.65,4.18,16.52,2.59,6.11-1.65,12-5.21,17.24-8.75,7.19-4.9,14.22-10.39,22.43-13.5,7.2-2.71,10.27,8.84,3.13,11.49h0A5.15,5.15,0,0,1,317,207.2q-3,1.59-6.11,3.16l-17.64,18.87a16.21,16.21,0,0,0,1.55,3.62,11,11,0,0,0,3.85,3.94v0a12.37,12.37,0,0,0,8.23,1.4L317.44,233Z"/><path class="cls-12" d="M324.3,193.36a2,2,0,0,1-.65-.79c-7.17-15.27-29.17,5.3-37,9.45-10.81,5.73-23.52,5.87-34.75,1.38-7.11-2.85-10.2,8.66-3.17,11.48a52.23,52.23,0,0,0,33.54,1.61,6.33,6.33,0,0,0,1.87-.24,38.43,38.43,0,0,1,18-1c.76.15,1.56.33,2.37.53,4.69-6.56,12.4-10.29,20.24-11a54.67,54.67,0,0,0-.26-6.38C324.37,197,324.38,195.22,324.3,193.36Z"/><path class="cls-13" d="M290.58,245.21c-2.19-5.68-5.5-10.9-10.65-14.26-6.61-4.3-14.78-4.77-22.52-4.42.87.2,1.83.36,3,.55,4,.66,8.18.49,11.94,2.4,5.16,2.63,8.51,7,8.51,13a10.41,10.41,0,0,0,.24,2.35c.95,4.42,4.56,5.57,5.83,11.06a23.4,23.4,0,0,1,.26,7.75c-1.49,14.28-12.8,32.23-26.53,23.72.46,1.84,1,3.72,1.56,5.55,5.36,3.11,12.08,2.44,17.26-.92a19.1,19.1,0,0,0,7.79-11.15l.14-.19-.07,2.49a5.39,5.39,0,0,0,1.43,4,2.08,2.08,0,0,1,1.32,1c3.47,1.87,9,.2,9.16-5l.92-33.34C300.29,244.25,294.09,242.72,290.58,245.21Z"/><path class="cls-8" d="M667.25,330.35c-1.15-25.06-23.64-38.5-38.92-54.83-2.24-2.4-4.45-5.06-7.53-6.2-2.91-1.07-7.5-.05-8,3.48-.61,4,5,9.39,7.06,12.28a48.49,48.49,0,0,1,5.85,45,128.15,128.15,0,0,1,40.21,10.69A32.85,32.85,0,0,0,667.25,330.35Z"/><path class="cls-14" d="M310.65,289.07c-1.44,0-2.89,0-3.77.7-2.35,1.81-.73,5.28,1.13,6.64l0,0a2.22,2.22,0,0,0,3.23-.83,28.7,28.7,0,0,0,1.5-3.55A2.26,2.26,0,0,0,310.65,289.07Z"/><path class="cls-14" d="M322.25,261.45c.17-3-1-5.56-4.72-5.56-2,0-3.92,1.89-4.89,3.49a7.77,7.77,0,0,0,0,7.14c.32.62.79,1.16,1.12,1.77a1.9,1.9,0,0,1-2.14,3,4.2,4.2,0,0,1-2.41-2.67,12.41,12.41,0,0,1,0-8.92c1.15-3.1,3.7-5.08,5.57-7.7,2.24-3.13,2.68-9.21-2.62-9.17a6.39,6.39,0,0,0-4.93,2.06c-1.59,1.94-1.42,4.85-1.69,7.13s-.37,4.85-.42,7.29c-.07,3.53-.79,7.22-.53,10.78a11,11,0,0,0,2.24,6.22c1.53,1.87,3.89,1.24,5.29,2.71,1.08,1.13.73,3.31-1.06,3.29a9,9,0,0,1-3.62-.78,3.31,3.31,0,0,0-4.67,2.36l0,.19c-.66,3.48-1.7,7.18-4.47,9.37a12.48,12.48,0,0,1-6.59,2.28,37.31,37.31,0,0,1-9-.36,11.35,11.35,0,0,0-4.46-.1c-4.47,1.16-3,6.86.1,8.68a15.16,15.16,0,0,0,6.43,1.55,52.93,52.93,0,0,0,11.88.06,19.8,19.8,0,0,0,10.93-4.81A1.67,1.67,0,0,0,307,298c-2.64-1-3.73-4.71-3.44-7.28.77-6.85,10.54-2,11.44-7.61.28-1.75.55-3.7.72-5.08a16.61,16.61,0,0,1,3.56-8.71A15,15,0,0,0,322.25,261.45Z"/><path class="cls-13" d="M324.87,229.23s-.06,4.08-.31,10.3c-9.66-1.23-12.07,3.28-20.07,1.44-6.5-1.5-4.83-3-5.79-4.16a12.37,12.37,0,0,0,8.23,1.4L317.44,233Z"/><circle class="cls-8" cx="567.74" cy="214.76" r="6.46"/><circle class="cls-6" cx="621.66" cy="391.69" r="7.22"/><circle class="cls-6" cx="367.45" cy="283.42" r="7.22"/><path class="cls-2" d="M630.42,446.28c-1.2-.85-11.43,3.66-13.07,4.39-10.91,4.84-22,10-33.27,14.28-18.56,7.07-37.8,11.86-58.19,9.24-7.37-1-7.89-11.93,0-11.91,3.85,0,21.64.15,14.51-7.28a23,23,0,0,1-4.07-5.79,24.21,24.21,0,0,1-2.1-6.7c-.4-2.39.73-4.68-1-6.8-1.28-1.6-3.36-2-5.31-2-2.5,0-5.13.86-7.65,1.08a71.56,71.56,0,0,1-14.92-.25c-7.4-.91-7.88-11.86,0-11.91a63.53,63.53,0,0,0,34.77-10.41,2.75,2.75,0,0,0,0-.57c0-3.74,0-7.72,1.23-11.22,1.2-3.34,4.22-6.57,7.24-8.59,4-2.7,9.26-2.56,14.11-2.47q9.38.18,18.74-.36,4.41-.24,8.81-.65c1.46-.13,2.91-.28,4.36-.44l1.66-.19.44,0a6.68,6.68,0,0,1,2.06-.22,8.67,8.67,0,0,0,.82,3.67,41.71,41.71,0,0,0,2.43,5,14,14,0,0,0,2.57,3.67c.06.06.11.12.17.17,5.54,5.06,8.38,12.22,10.78,19.42.47,1.4.92,2.8,1.37,4.18C619.7,432.11,623.12,441.09,630.42,446.28Z"/><circle class="cls-8" cx="533.58" cy="330.29" r="9.06"/><path class="cls-3" d="M630.42,446.28c-1.2-.85-11.43,3.66-13.07,4.39-10.91,4.84-22,10-33.27,14.28,5.79-7.61,11-15.62,14.15-24.41a68.93,68.93,0,0,0-1.47-50.78,5.51,5.51,0,0,1-.46-2l.44,0a6.68,6.68,0,0,1,2.06-.22,8.67,8.67,0,0,0,.82,3.67,41.71,41.71,0,0,0,2.43,5,14,14,0,0,0,2.57,3.67c.06.06.11.12.17.17,5.54,5.06,8.38,12.22,10.78,19.42.47,1.4.92,2.8,1.37,4.18C619.7,432.11,623.12,441.09,630.42,446.28Z"/><path class="cls-3" d="M245.68,229.52a6.13,6.13,0,0,1-.58,2.09c.15-9.82-3.82-9.24-3.82-9.24s-7.66-2.13-14.72-3.79a115.4,115.4,0,0,0,2.54-16.25c6.79.11,12.66.63,14.16.77A67.88,67.88,0,0,1,245.68,229.52Z"/><circle class="cls-6" cx="511.55" cy="395.34" r="9.06"/><circle class="cls-6" cx="475.82" cy="469.42" r="9.06"/><path class="cls-15" d="M608.61,201.7,574.73,235c-.34.34-.74.7-1.14,1.05s-.78.72-1.2,1a24.76,24.76,0,0,1-2.63,1.8,23.29,23.29,0,0,1-5.85,2.53,24.73,24.73,0,0,1-12.67.21,26.07,26.07,0,0,1-6-2.37,24.87,24.87,0,0,1-11.67-14.79,24.76,24.76,0,0,1-.15-12.77,25.08,25.08,0,0,1,6.26-11.18c.79-.71,1.6-1.5,2.38-2.14l2.3-1.88,4.6-3.75,9.21-7.5,4.6-3.75,2.44-1.89c.84-.6,1.71-1.17,2.56-1.75a47.83,47.83,0,0,1,11.24-5.28,53.91,53.91,0,0,1,24.52-1.66A90.19,90.19,0,0,1,626.86,178,151.73,151.73,0,0,1,648,189.68a265.9,265.9,0,0,1,37.27,30.11,354.81,354.81,0,0,1,32.31,35.29,169.73,169.73,0,0,1,13.72,19.86,156.84,156.84,0,0,1,10.56,21.76A126.85,126.85,0,0,1,751,344.18a100.31,100.31,0,0,1-3.18,24.2A95.35,95.35,0,0,1,744,380c-.35,1-.78,1.88-1.2,2.8l-1.25,2.77c-.43.92-.82,1.86-1.28,2.76L738.85,391a119.66,119.66,0,0,1-30.66,37.32,123.61,123.61,0,0,1-20.3,13.23l-2.7,1.38-1.35.69-1.39.61-5.55,2.43-5.68,2.11c-.94.37-1.91.67-2.87,1l-2.9.88c-1,.29-1.92.61-2.9.86l-2.94.72a59.85,59.85,0,0,1-6,1.3,34.58,34.58,0,0,1-33.42-14.11A33.48,33.48,0,0,1,615,427.88c-.3-1.06-.46-1.95-.68-2.9s-.45-1.88-.71-2.8c-.51-1.86-1.07-3.7-1.73-5.49a49.62,49.62,0,0,0-5-10.22,34.79,34.79,0,0,0-3.41-4.46c-.3-.36-.63-.68-1-1l-1-1.06-1.12-1.2c-.35-.42-.67-.87-1-1.3a20.09,20.09,0,0,1-3-5.81,20.44,20.44,0,0,1-1-6.42,21.16,21.16,0,0,1,3.8-12.25,21.38,21.38,0,0,1,10.13-7.81,21.14,21.14,0,0,1,12.74-.5,21.5,21.5,0,0,1,5.88,2.64l1.31.94c.44.32.82.7,1.23,1s.78.71,1.13,1.07.73.71,1.07,1.09a53.78,53.78,0,0,1,7.43,9.69,44.69,44.69,0,0,1,6.44,23.36,1.37,1.37,0,0,1-2.74,0,41.74,41.74,0,0,0-6.34-21.76,50.64,50.64,0,0,0-7.13-9c-.33-.35-.69-.67-1-1s-.69-.68-1-1-.67-.6-1-.86l-1.11-.77a18.1,18.1,0,0,0-4.94-2.13,17.52,17.52,0,0,0-18.92,7.11,17.35,17.35,0,0,0-3,10.09,16.55,16.55,0,0,0,.9,5.24,16.14,16.14,0,0,0,2.45,4.69c.28.35.53.71.82,1l.92,1c.27.3.69.7,1.05,1.06s.75.74,1.09,1.13a38.84,38.84,0,0,1,3.84,4.92,53.73,53.73,0,0,1,5.53,11c.73,1.91,1.35,3.85,1.9,5.81.29,1,.53,2,.78,2.94s.45,2,.71,2.87a29.08,29.08,0,0,0,4.6,10,29.91,29.91,0,0,0,29,11.92,56,56,0,0,0,5.57-1.27l2.82-.72c.94-.25,1.85-.58,2.78-.86l2.77-.88c.93-.29,1.85-.58,2.75-.95L675,442l5.3-2.39,1.32-.6,1.29-.68,2.57-1.35a121,121,0,0,0,19.31-12.83,114.05,114.05,0,0,0,29-35.79l1.34-2.57c.43-.86.79-1.76,1.19-2.64l1.17-2.65c.39-.88.8-1.76,1.12-2.66a89.53,89.53,0,0,0,3.52-10.94A98.18,98.18,0,0,0,745,344.11a120.88,120.88,0,0,0-8.75-45.22A150.87,150.87,0,0,0,726.1,278c-1.95-3.36-4-6.64-6.21-9.86s-4.5-6.33-6.91-9.42a349.22,349.22,0,0,0-31.52-35,260.73,260.73,0,0,0-36.29-29.8,146.78,146.78,0,0,0-20.32-11.45,85.44,85.44,0,0,0-22-6.89,49.28,49.28,0,0,0-22.45,1.32,43.32,43.32,0,0,0-10.23,4.71l-2.35,1.58-2.27,1.72L561,188.65l-9.26,7.43-4.63,3.71-2.32,1.86c-.75.62-1.36,1.21-2.05,1.81a21,21,0,0,0-5.28,9.26,20.78,20.78,0,0,0,14.75,25.34A21.12,21.12,0,0,0,563,238a19.81,19.81,0,0,0,5-2.1,21.37,21.37,0,0,0,2.28-1.52c.37-.27.7-.59,1-.89s.69-.59,1.05-.95l34.32-32.84a1.37,1.37,0,0,1,1.9,2Z"/><path class="cls-15" d="M545.59,422.57a14.9,14.9,0,0,1-4.58-5.75,24.83,24.83,0,0,1-2.13-6.84,22.92,22.92,0,0,1,0-7.28,19.07,19.07,0,0,1,2.62-7.06,17.5,17.5,0,0,1,5.42-5.43,23,23,0,0,1,6.91-2.91,34.18,34.18,0,0,1,7.17-1c1.18,0,2.38-.07,3.54,0l3.38.19a114.53,114.53,0,0,0,25.76-.82,95.7,95.7,0,0,0,12.66-2.82,75.7,75.7,0,0,0,12.08-4.6l.09,0a1.37,1.37,0,0,1,1.36,2.38,65.3,65.3,0,0,1-12.22,6.09,85.23,85.23,0,0,1-13,3.91L593,391l-1.68.3c-1.12.2-2.24.42-3.37.58-2.26.26-4.52.63-6.79.74l-3.41.24c-1.14,0-2.28,0-3.42,0s-2.28,0-3.42-.06l-3.41-.25-3.25-.24c-1-.12-2.07-.11-3.1-.14a28.52,28.52,0,0,0-6,.55,18.56,18.56,0,0,0-5.4,1.94,13.07,13.07,0,0,0-4.12,3.67,16.52,16.52,0,0,0-2.74,11.13,21.87,21.87,0,0,0,1.28,6,13,13,0,0,0,3.11,4.92l.07.06a1.37,1.37,0,0,1-1.71,2.13Z"/><path class="cls-15" d="M492.78,160.58c-1.56.17-3.05.38-4.67.51a20.85,20.85,0,0,1-5-.14A22.42,22.42,0,0,1,464,140.14l0,.18a47.67,47.67,0,0,1-.33-5.95c0-2,.1-3.9.28-5.84A59,59,0,0,1,466.23,117,50.65,50.65,0,0,1,478,96.64a54.7,54.7,0,0,1,19.66-13,76.31,76.31,0,0,1,22.78-5.15,57.27,57.27,0,0,1,23.33,3.09,49.79,49.79,0,0,1,19.48,13.16,62.34,62.34,0,0,1,12.09,19.79A73.79,73.79,0,0,1,580.24,137a1.37,1.37,0,0,1-2.73.23v0A73.43,73.43,0,0,0,571.82,116a60.12,60.12,0,0,0-11.94-18A45.09,45.09,0,0,0,542,86.68a51.57,51.57,0,0,0-21.09-2.2,76.59,76.59,0,0,0-10.69,1.67c-1.75.43-3.51.86-5.24,1.35s-3.45,1-5.09,1.75A50,50,0,0,0,482,100.53a45.32,45.32,0,0,0-11,18,57.05,57.05,0,0,0-2.41,10.5c-.23,1.79-.38,3.59-.45,5.39a44.28,44.28,0,0,0,.11,5.31l0,.18h0a18.74,18.74,0,0,0,15.3,17.85,14.27,14.27,0,0,0,2.13.28,16.93,16.93,0,0,0,2.16,0c1.48,0,3.09-.17,4.62-.26h0a1.37,1.37,0,0,1,.22,2.72Z"/><path class="cls-15" d="M506.86,188.71a39.4,39.4,0,0,0,6-5,41,41,0,0,0,5-6q.58-.78,1.07-1.61c.33-.55.7-1.08,1-1.65.6-1.14,1.22-2.26,1.71-3.44a41.89,41.89,0,0,0,2.43-7.23l4,3.61q-1.93.75-3.89,1.42c-1.3.47-2.62.89-3.93,1.32l-7.92,2.49c-5.28,1.65-10.59,3.24-15.95,4.68a1.38,1.38,0,0,1-.95-2.57c5-2.39,10.08-4.62,15.16-6.8l7.64-3.25c1.28-.53,2.55-1.07,3.84-1.55s2.58-1,3.88-1.45l.17-.06a3,3,0,0,1,3.84,3.67,42.14,42.14,0,0,1-3.31,8.2,38.84,38.84,0,0,1-4.94,7.25c-.93,1.12-2,2.15-3,3.17l-1.62,1.44c-.55.47-1.12.91-1.68,1.36-1.15.87-2.35,1.67-3.57,2.42a29,29,0,0,1-3.89,2,1.37,1.37,0,0,1-1.29-2.4Z"/><path class="cls-15" d="M506.26,116.49A23.06,23.06,0,0,1,508,120a34.3,34.3,0,0,1,1.21,3.59,14.07,14.07,0,0,1,.09,3.78,23.57,23.57,0,0,1-.5,3.88,1.48,1.48,0,0,1-2.7.46,23.52,23.52,0,0,1-1.75-3.5,14.09,14.09,0,0,1-1.16-3.6,34.31,34.31,0,0,1,0-3.79,23,23,0,0,1,.45-3.87,1.47,1.47,0,0,1,2.7-.46Z"/><path class="cls-15" d="M483.26,169.49c.91,3.73,1.66,7.5,2.49,11.2a102.78,102.78,0,0,0,2.78,10.86,39.88,39.88,0,0,0,11.39,17.75,36.66,36.66,0,0,0,8.71,5.68,38.28,38.28,0,0,0,10.24,3c7.2,1.1,14.77.71,22.34.15a1.37,1.37,0,0,1,.39,2.72,110.88,110.88,0,0,1-11.46,1.87,63.65,63.65,0,0,1-11.84.24,41.17,41.17,0,0,1-11.9-2.59,32,32,0,0,1-5.57-2.77,29.42,29.42,0,0,1-5-3.76,42.29,42.29,0,0,1-12-20.92c-1.85-7.73-2.39-15.37-3.25-22.93a1.37,1.37,0,0,1,2.69-.48Z"/><path class="cls-15" d="M500.56,196.75A45.13,45.13,0,0,0,494,204a22.05,22.05,0,0,0-4.41,13.29,31.14,31.14,0,0,0,.42,4.76,57.86,57.86,0,0,0,2.61,9.46c1.09,3.15,2.38,6.22,3.63,9.41s2.39,6.47,3.39,9.77A133.24,133.24,0,0,1,504,270.92a174.1,174.1,0,0,1,.27,41.17,273.77,273.77,0,0,1-7.44,40.35c-1.69,6.62-3.58,13.17-5.63,19.67-1,3.25-2,6.5-3.18,9.72l-1.67,4.84-1.76,4.81A362,362,0,0,1,468.27,429a349.26,349.26,0,0,1-44.55,68.33,1.37,1.37,0,0,1-2.13-1.73,378.88,378.88,0,0,0,23-33.24,358.59,358.59,0,0,0,19.19-35.53,387.34,387.34,0,0,0,15.3-37.33c4.41-12.69,8.34-25.62,11.8-38.6a289.11,289.11,0,0,0,7.79-39.44,199.68,199.68,0,0,0,1.36-20c0-3.34,0-6.67-.17-10s-.42-6.65-.8-10a128.53,128.53,0,0,0-3.75-19.59c-.9-3.2-1.88-6.38-3.06-9.5s-2.42-6.36-3.47-9.63a59.2,59.2,0,0,1-2.47-10.19,34.72,34.72,0,0,1-.3-5.37,25.36,25.36,0,0,1,5.46-15,48,48,0,0,1,7.26-7.54,1.37,1.37,0,0,1,1.81,2Z"/><path class="cls-15" d="M328.5,228.95,313,236.86l-3.87,2-1,.49c-.32.16-.63.33-1,.51a10.63,10.63,0,0,1-2.42.76A10.15,10.15,0,0,1,293,227.86a10.59,10.59,0,0,1,2.61-4.47l3-3.13c4-4.18,8.06-8.5,13-12.07a33.21,33.21,0,0,1,8.12-4.39,25.34,25.34,0,0,1,4.62-1.14,23.76,23.76,0,0,1,4.8-.12,25.54,25.54,0,0,1,9,2.66,41.65,41.65,0,0,1,7.67,5,62.47,62.47,0,0,1,11.82,13.56,152.84,152.84,0,0,1,8.72,15.36c10.61,21.14,15.41,44.56,19.11,67.28A95.34,95.34,0,0,0,390,322.66,48.69,48.69,0,0,0,398,336.83c3.44,4,7.89,6.88,12.85,7.45a23.26,23.26,0,0,0,14.73-3.21,32.26,32.26,0,0,0,10.89-11.34,79.56,79.56,0,0,0,7-15.18c1.88-5.33,3.38-10.86,4.93-16.43l4.7-16.81a118.85,118.85,0,0,1,6.21-16.66,58.18,58.18,0,0,1,10-15.18,38,38,0,0,1,7.15-6,27.6,27.6,0,0,1,27.45-1.14,31.83,31.83,0,0,1,13,13.21c.37.67.72,1.39,1,2.06l.9,2,1.8,4c.57,1.35,1.08,2.73,1.62,4.1s1.11,2.72,1.56,4.12A165.27,165.27,0,0,1,532,306l.3,2.18.19,2.19.37,4.39c.16,1.46.14,2.93.21,4.4l.14,4.4-.09,4.4c-.06,1.47,0,2.94-.16,4.4l-.37,4.39-.19,2.19-.32,2.18a104.88,104.88,0,0,1-10.2,33.6,1.37,1.37,0,0,1-2.46-1.22v0a101.81,101.81,0,0,0,9.24-32.78l.27-2.12.14-2.14.28-4.27c.12-1.42.06-2.86.09-4.28l0-4.28-.2-4.28c-.08-1.43-.08-2.86-.26-4.28l-.42-4.27-.22-2.13-.32-2.12a161,161,0,0,0-8.41-33.18c-.46-1.35-1.05-2.65-1.57-4s-1.06-2.65-1.63-4l-1.8-3.88-.9-1.94c-.31-.64-.6-1.22-.94-1.81a27,27,0,0,0-11.15-11.07A22.54,22.54,0,0,0,479.3,248a32.77,32.77,0,0,0-6,5.22A52.76,52.76,0,0,0,464.39,267,113.33,113.33,0,0,0,458.64,283l-4.48,16.71c-1.47,5.61-3,11.27-5,16.88a85.54,85.54,0,0,1-7.46,16.36,38.24,38.24,0,0,1-13,13.38,29.29,29.29,0,0,1-18.63,3.95,23.67,23.67,0,0,1-9.27-3.3,29.9,29.9,0,0,1-7.24-6.29,54.32,54.32,0,0,1-8.94-16A101,101,0,0,1,380,307.45c-.53-3-.92-5.78-1.4-8.62s-1-5.67-1.49-8.5c-1.06-5.65-2.27-11.26-3.68-16.81a169.74,169.74,0,0,0-11.47-32.2,148.25,148.25,0,0,0-8.23-15,58,58,0,0,0-10.76-12.71c-4.2-3.5-9.09-6.38-14.26-6.91a19.62,19.62,0,0,0-3.87,0,21.24,21.24,0,0,0-3.81.89,29.22,29.22,0,0,0-7.16,3.77c-4.53,3.2-8.57,7.27-12.63,11.38l-3.07,3.1a7,7,0,0,0-1.79,2.92,6.78,6.78,0,0,0,7.8,8.61,7.45,7.45,0,0,0,1.72-.51c.25-.11.58-.27.91-.43l1-.48,3.9-1.91,15.61-7.63a1.37,1.37,0,0,1,1.22,2.44Z"/><path class="cls-15" d="M290.28,219.29a79.34,79.34,0,0,1-18.42,3.36,45.28,45.28,0,0,1-9.51-.57,56.6,56.6,0,0,1-9.18-2.5,17.69,17.69,0,0,1-11.43-15.7c0-.89,0-1.59,0-2.38l0-2.3V198c0-.2,0-.36,0-.6l0-.72a11.71,11.71,0,0,1,.21-1.43,11,11,0,0,1,.43-1.38,9.74,9.74,0,0,1,10.41-6.25l.72.11.55.09,2.2.37,1.1.18,1.11.12,2.22.24c1.48.15,3,.2,4.48.3l4.51.09a151.63,151.63,0,0,0,18.08-1.24c6-.75,12-1.78,18-3,3-.62,5.94-1.28,8.89-2l1.09-.27c.27-.06.56-.13.87-.17s.55-.05.83-.07a7.91,7.91,0,0,1,6.09,2.59,8.08,8.08,0,0,1,1,1.37c.13.24.28.52.38.75l.15.35,0,.12.09.26a4.73,4.73,0,0,1,.13.54l-.12-.52a4.68,4.68,0,0,1,.24,1.33l0,.53,0-.18a2.69,2.69,0,0,1-.2,1.46,2.74,2.74,0,0,1-.28.5c-.1.14-.1.15,0-.07a2.45,2.45,0,0,0,.26-.59,2.8,2.8,0,0,0,.1-.7v1.1l0,1.36c0,.91.1,1.83.18,2.75L326,201l.11,1.44.05.78v.2s0,.08,0,0a2.57,2.57,0,0,0-.12-.67,1.71,1.71,0,1,1-.09-.22,2.81,2.81,0,0,1,.27,1l0,.26V204l.15,2.83.29,5.66.59,11.32.29,5.67c.09,1.94.1,3.81.14,5.72.22,15.21-.35,30.54-2.86,45.71-.3,1.9-.66,3.78-1,5.67s-.73,3.71-1.25,5.72a30.26,30.26,0,0,1-5.35,11.31,22,22,0,0,1-10.81,7.11,42.53,42.53,0,0,1-12.08,1.58c-3.93,0-7.76-.28-11.53-.54l-2.81-.19-1.4-.09c-.49,0-1.14-.12-1.7-.19a16.29,16.29,0,0,1-6.35-2.53,21.29,21.29,0,0,1-4.78-4.36,32,32,0,0,1-3.47-5.14,42.83,42.83,0,0,1-2.53-5.5c-.36-.93-.68-1.89-1-2.83l-.42-1.4-.07-.22-.14-.4a4.92,4.92,0,0,1-.27-1.55l.1.73c-.88-3.25-1.5-6.52-2.17-9.62s-1.3-6.48-1.78-9.73c-1-6.52-1.5-13-2-19.51-.13-1.6-.23-3.28-.39-4.8a31.45,31.45,0,0,0-.73-4.47,28.25,28.25,0,0,0-3.35-8.28,21,21,0,0,0-14-9.83l-9.54-1.77-4.78-.88-2.39-.44-.68-.14a6.46,6.46,0,0,1-.74-.2,8.62,8.62,0,0,1-1.42-.57,9.32,9.32,0,0,1-4.25-4.29,8.64,8.64,0,0,1-.81-3,9.43,9.43,0,0,1,.26-3.06,9,9,0,0,1,3.44-5,9.11,9.11,0,0,1,2.75-1.32,9.46,9.46,0,0,1,1.5-.29,13.06,13.06,0,0,1,1.43,0l38.89.86a1.37,1.37,0,0,1,0,2.74c-13,.06-25.93,0-38.89,0a9.3,9.3,0,0,0-1,0,5.83,5.83,0,0,0-.88.19,5.43,5.43,0,0,0-1.6.8,5.24,5.24,0,0,0-1.94,2.9,5.08,5.08,0,0,0,.37,3.43,5.43,5.43,0,0,0,2.52,2.44,4.73,4.73,0,0,0,.84.32,3.06,3.06,0,0,0,.44.11l.51.1,2.4.4,4.79.8,9.6,1.62a25.18,25.18,0,0,1,9.78,4,25.92,25.92,0,0,1,7.31,7.6,32.88,32.88,0,0,1,4.07,9.59,36.2,36.2,0,0,1,.92,5.1c.2,1.7.31,3.25.48,4.88.6,6.44,1.24,12.84,2.27,19.13.51,3.16,1.12,6.24,1.86,9.37s1.35,6.32,2.21,9.32l.1.73c0-.23,0-.28,0-.16l.1.27.15.45.41,1.31c.29.86.57,1.69.9,2.52a37.34,37.34,0,0,0,2.26,4.77,26.37,26.37,0,0,0,2.91,4.21,15.64,15.64,0,0,0,3.58,3.21,10.5,10.5,0,0,0,4.1,1.59c.38,0,.66.09,1.12.12l1.43.07,2.84.16c3.77.21,7.49.43,11.12.39a36.9,36.9,0,0,0,10.32-1.36,15.94,15.94,0,0,0,7.85-5.15,6,6,0,0,0,.7-.92q.34-.51.65-1.05c.42-.72.8-1.46,1.15-2.23a31.11,31.11,0,0,0,1.72-4.86c.44-1.65.8-3.55,1.19-5.35s.71-3.65,1-5.48a261.42,261.42,0,0,0,3.16-44.65c0-1.87,0-3.77-.08-5.61l-.23-5.66-.47-11.33L321,207l-.12-2.83v-.22c0,.06,0-.2,0,.12a2.3,2.3,0,0,0,.22.81,2.71,2.71,0,0,1-.16-.39,2.88,2.88,0,0,1-.14-.75v-.24l0-.63-.1-1.39-.43-5.67c-.06-1-.12-1.93-.16-2.91l0-1.47v-1.2a3,3,0,0,1,.11-.79,2.77,2.77,0,0,1,.3-.67c.17-.26.21-.3.14-.21a2.33,2.33,0,0,0-.24.42,2.53,2.53,0,0,0-.19,1.37l0-.18c0-.35,0-.59,0-.69s0,0,0,.13l-.12-.52a1.09,1.09,0,0,0,0,.26l0,.13h0l-.07-.18c0-.13-.09-.18-.13-.28a2.87,2.87,0,0,0-.35-.48,2.78,2.78,0,0,0-1-.7,2.81,2.81,0,0,0-1.15-.23l-.31,0-.26,0-1.15.27c-3,.71-6.06,1.34-9.1,1.95-6.09,1.16-12.22,2.12-18.39,2.8a156.19,156.19,0,0,1-18.65,1l-4.7-.16c-1.57-.13-3.13-.2-4.7-.39l-2.35-.29-1.17-.15-1.17-.21L253.2,192l-.58-.11-.42-.06a5.75,5.75,0,0,0-.83-.07,5.81,5.81,0,0,0-5.26,3.64,7,7,0,0,0-.27.81,7.84,7.84,0,0,0-.13.85l0,.43c0,.14,0,.37,0,.55v1.15l0,4.53a13.89,13.89,0,0,0,2.51,7.58,14.11,14.11,0,0,0,6.31,5,53.41,53.41,0,0,0,8.51,2.51,42.06,42.06,0,0,0,8.82.71,76.52,76.52,0,0,0,17.78-2.87h0a1.37,1.37,0,0,1,.73,2.64Z"/><path class="cls-15" d="M448.39,420.3a106.71,106.71,0,0,1-45.29,6.5,93.94,93.94,0,0,1-22.7-4.54,73.92,73.92,0,0,1-20.72-10.7,88.65,88.65,0,0,1-16.49-16.45,120,120,0,0,1-12.42-19.57A127.72,127.72,0,0,1,322.19,354c-.53-1.86-1-3.74-1.51-5.61s-.88-3.78-1.23-5.69l-.49-2.87-.25-1.44-.18-1.45c-.24-1.93-.51-3.84-.62-5.87a41.65,41.65,0,0,1,5.22-23.44,75.41,75.41,0,0,1,6.47-9.85c2.35-3.08,4.76-6,7.21-8.94A194.18,194.18,0,0,1,352.48,272a115.47,115.47,0,0,1,8.82-7.53q2.3-1.77,4.71-3.42a29.52,29.52,0,0,1,2.67-1.64,16.3,16.3,0,0,1,1.49-.67,9.67,9.67,0,0,1,1.53-.56A18.3,18.3,0,0,1,395,270.39a15.81,15.81,0,0,1,.69,3.13,18.26,18.26,0,0,1-7.19,16.86c-.42.32-.87.6-1.31.9L386,292c-.79.48-1.54,1-2.31,1.53s-1.5,1.07-2.26,1.6l-2.19,1.69a64.2,64.2,0,0,0-8,7.57,39.55,39.55,0,0,0-9.7,19.26,1.37,1.37,0,0,1-2.71-.42,42.64,42.64,0,0,1,9.79-21.07,62.8,62.8,0,0,1,8.25-8.23c.74-.62,1.51-1.22,2.26-1.82s1.54-1.17,2.33-1.73,1.58-1.13,2.39-1.65l1.2-.8c.33-.25.69-.47,1-.73a14.29,14.29,0,0,0,5.14-8.24,14.14,14.14,0,0,0,.15-4.89,11.58,11.58,0,0,0-.58-2.38,13.69,13.69,0,0,0-8.07-8.57,13.78,13.78,0,0,0-9.44-.25,6,6,0,0,0-1.11.44,11.43,11.43,0,0,0-1.08.51,24.81,24.81,0,0,0-2.12,1.38q-2.25,1.6-4.4,3.34c-2.87,2.31-5.63,4.78-8.29,7.36a188.74,188.74,0,0,0-15,16.6c-4.69,5.86-9.43,11.7-12.8,18a37.8,37.8,0,0,0-3.7,9.81,38.26,38.26,0,0,0-.81,10.44c.07,1.75.33,3.59.54,5.41l.16,1.37.23,1.36.45,2.72c.32,1.81.74,3.61,1.1,5.42s.89,3.58,1.37,5.36A122.08,122.08,0,0,0,335.74,373a114.62,114.62,0,0,0,11.6,18.84,86.37,86.37,0,0,0,15.29,15.75,69.25,69.25,0,0,0,19.24,10.42,89.74,89.74,0,0,0,21.58,4.76,103.75,103.75,0,0,0,44-5.1h0a1.37,1.37,0,0,1,.93,2.57Z"/><path class="cls-15" d="M644.42,364.32a68.54,68.54,0,0,0,11-9.63,45.38,45.38,0,0,0,4.33-5.69,32.46,32.46,0,0,0,3-6.31,28.13,28.13,0,0,0,1.27-13.59,43,43,0,0,0-4.47-13.27,101.69,101.69,0,0,0-17.31-23.37,185.23,185.23,0,0,0-22.37-19.57l0,0a1.37,1.37,0,0,1,1.52-2.28,137.09,137.09,0,0,1,12.65,8.52,144.27,144.27,0,0,1,11.74,9.79A113.25,113.25,0,0,1,656.41,300a72.66,72.66,0,0,1,4.67,6.24c.73,1.08,1.41,2.2,2.09,3.32s1.27,2.3,1.85,3.49a45.73,45.73,0,0,1,4.62,15.31,32.55,32.55,0,0,1-2.25,16,37.17,37.17,0,0,1-3.9,7,49.51,49.51,0,0,1-5.15,6,65.14,65.14,0,0,1-12.43,9.17,1.37,1.37,0,0,1-1.48-2.29Z"/><path class="cls-15" d="M281.91,282.78a21.19,21.19,0,0,1-7.64,7.31,16.4,16.4,0,0,1-5.39,1.84,15,15,0,0,1-5.92-.3,14.17,14.17,0,0,1-5.12-2.62,23.64,23.64,0,0,1-3.86-3.82,34,34,0,0,1-5.05-8.87,1.39,1.39,0,0,1,2.36-1.39l0,0a57.3,57.3,0,0,0,6.29,6.79,23,23,0,0,0,3.49,2.46,20.45,20.45,0,0,0,3.56,1.57,11.36,11.36,0,0,0,7.58-.15,24.47,24.47,0,0,0,7.52-4.52l.1-.09a1.37,1.37,0,0,1,2.05,1.77Z"/><path class="cls-15" d="M549,107.54a14.29,14.29,0,0,1,3.31.11,16.72,16.72,0,0,1,3.23.75,14.15,14.15,0,0,1,5.79,3.77,15.3,15.3,0,0,1,2.1,2.91l.71,1.62c.11.27.24.55.34.82l.22.84.42,1.69c.09.56.13,1.12.2,1.68s.14,1.13.14,1.69l0,1.65a15.55,15.55,0,0,1-1.61,6.75,13.51,13.51,0,0,1-2.15,3.08,11.74,11.74,0,0,1-3,2.28,13.86,13.86,0,0,1-6.77,1.57,18.87,18.87,0,0,1-6.39-1.17,1.37,1.37,0,0,1,.59-2.66h.13c3.56.32,7.48-.21,9.83-2s3.08-4.74,3.29-8.24l.13-1.31c0-.43,0-.84,0-1.27s0-.85,0-1.27l-.19-1.21-.09-.61c0-.2-.11-.38-.16-.57l-.33-1.15a12.38,12.38,0,0,0-1.11-2,10.68,10.68,0,0,0-3.6-3.24,16,16,0,0,0-4.94-1.79l-.15,0a1.37,1.37,0,0,1,.15-2.7Z"/><path class="cls-15" d="M553.78,404.09a45.78,45.78,0,0,1-12.5,11,65.2,65.2,0,0,1-15.1,7,69.94,69.94,0,0,1-8.05,2.13,63.26,63.26,0,0,1-8.22,1l-2.06.13-1,.06c-.12,0-.47,0-.71.07a9.08,9.08,0,0,0-2.9.87c-.78.44-1.12.81-1.26,1.31a4.41,4.41,0,0,0,.42,2.47l.1.23c-.08-.18,0,0,0,0l.1.18a3.26,3.26,0,0,0,.32.41,5,5,0,0,0,.94.79,9.16,9.16,0,0,0,2.62,1.16c.48.16,1,.23,1.5.37s1,.18,1.58.24c1.07.12,2.17.16,3.28.2h.08a1.37,1.37,0,0,1,.12,2.73l-1.79.21c-.6.05-1.21.07-1.82.1s-1.23,0-1.86,0-1.26-.09-1.89-.22a13.09,13.09,0,0,1-3.83-1.2,9.29,9.29,0,0,1-1.85-1.21,7.78,7.78,0,0,1-.85-.85c-.14-.17-.27-.33-.4-.53a4.13,4.13,0,0,1-.42-.77l.1.23a9,9,0,0,1-1.22-5.26,5.78,5.78,0,0,1,.41-1.56,5.61,5.61,0,0,1,.77-1.4c.15-.21.31-.43.48-.62l.53-.51a7.74,7.74,0,0,1,1.11-.87,13.72,13.72,0,0,1,4.6-1.89c.42-.09.73-.16,1.28-.23l1-.14,1.94-.26c1.29-.19,2.6-.29,3.87-.55s2.54-.47,3.83-.64,2.52-.53,3.79-.78,2.52-.56,3.76-.89A74,74,0,0,0,539,411.16a60.23,60.23,0,0,0,6.67-3.93,42.14,42.14,0,0,0,5.94-4.82l.1-.1a1.36,1.36,0,0,1,2.05,1.78Z"/><path class="cls-15" d="M643.32,441.3c-11.24,4.15-22.21,8.91-33.15,13.86-5.48,2.46-10.95,5-16.5,7.36s-11.16,4.66-16.82,6.81l-4.26,1.59-4.28,1.53c-2.86,1-5.89,2-8.84,2.72a110.05,110.05,0,0,1-18.23,3.16,65,65,0,0,1-9.45.07,30.8,30.8,0,0,1-9.7-2.2,14.15,14.15,0,0,1-2.37-1.25,13.32,13.32,0,0,1-2.25-1.77c-.35-.4-.7-.82-1-1.24a12.74,12.74,0,0,1-.81-1.58c-.09-.3-.18-.61-.25-.92a3.26,3.26,0,0,1-.13-.95c0-.32,0-.65,0-1a7.39,7.39,0,0,1,.17-.93,7.58,7.58,0,0,1,1.56-3.05,10.45,10.45,0,0,1,2.28-2,10.8,10.8,0,0,1,5.6-1.78H525c1.25.09,2.65.1,4,.07s2.68-.11,4-.26a23.2,23.2,0,0,0,7.37-1.92l-.73,3.17a50.91,50.91,0,0,1-3.81-6.93,47.73,47.73,0,0,1-2.7-7.39,34.66,34.66,0,0,1-1.11-7.88,24,24,0,0,1,1.37-7.95,1.37,1.37,0,0,1,2.61.84l0,.08a21,21,0,0,0-.77,6.92,32,32,0,0,0,1.41,7,44,44,0,0,0,2.79,6.66,47.32,47.32,0,0,0,3.74,6.13,2.15,2.15,0,0,1-.46,3l-.23.15,0,0a26.56,26.56,0,0,1-8.8,2.73c-1.48.22-2.95.36-4.42.46s-2.91.13-4.48.08h.19a5.91,5.91,0,0,0-2.83,1.07,5.29,5.29,0,0,0-1.08,1,2.26,2.26,0,0,0-.44.94c-.09.26,0,.42.07.66a3.25,3.25,0,0,1,.23.41,4.88,4.88,0,0,1,.44.48,8.12,8.12,0,0,0,1.33.95,9,9,0,0,0,1.64.79,25.4,25.4,0,0,0,7.86,1.49,75.13,75.13,0,0,0,8.57-.26,126.85,126.85,0,0,0,17.28-3c2.87-.7,5.63-1.44,8.45-2.38l4.25-1.39,4.23-1.46c11.27-3.93,22.32-8.51,33.48-13s22.47-8.87,34-12.36a1.37,1.37,0,0,1,.87,2.59Z"/><path class="cls-3" d="M550.79,111.4c-1.74-.89-3.27,2-1.51,2.87,2.14,1.09,4.62,2.24,6,4.51,1.92,3.21-.12,7.25-2.5,9.39a4.66,4.66,0,0,1-6.08.51c2.51.57,5-.92,5.4-4.61.53-5.17-4.5-8.92-8.62-6.5a7,7,0,0,0-.66.46,10,10,0,0,1-.16,10.86,13.63,13.63,0,0,0,1.46,1.79c4.92,5,11.27,1.22,13.93-4.56C561.28,119,556.17,114.15,550.79,111.4Z"/></svg>