<svg id="Layer_1" data-name="Layer 1" xmlns="http://www.w3.org/2000/svg" viewBox="0 0 960 560"><defs><style>.cls-1{fill:#233940;}.cls-2{fill:#7abcff;}.cls-3{fill:#96523b;}.cls-4{fill:#45a1ff;}.cls-5{fill:#ffa792;}.cls-6{fill:#ad6045;}.cls-7{fill:#99563d;}.cls-8{fill:#a35a41;}.cls-9{fill:#e86764;}.cls-10{fill:#e05a57;}.cls-11{fill:#3f94eb;}.cls-12{fill:#e05551;}.cls-13{fill:#e88989;}.cls-14{fill:#fff;}</style></defs><title>man, woman, people, person, bag</title><path class="cls-1" d="M516,131.94a2.28,2.28,0,0,1-.27-1.43l0-.18a.31.31,0,0,0,0-.05V130c0-.25,0-.49,0-.74,0-.49.07-1,.12-1.45.11-.95.26-1.85.4-2.7a2.42,2.42,0,0,1,4.12-1.3l.68.7c.34.35.66.73,1,1.11a11.62,11.62,0,0,1,1,1.23,10.9,10.9,0,0,1,1.33,3l.24.77a2.42,2.42,0,0,1-1.58,3,2.46,2.46,0,0,1-1,.09,17.08,17.08,0,0,1-3.39-.81C517.55,132.64,516.7,132.23,516,131.94Zm2.19-1.65a11.58,11.58,0,0,0,2.3-1,8.53,8.53,0,0,1,1.53-.81l-2.38,3.89a17.63,17.63,0,0,1-1.7-2.18c-.25-.4-.45-.84-.68-1.29s-.46-.91-.67-1.4l4.8-.61c-.44.85-.93,1.65-1.42,2.4-.25.38-.49.75-.75,1.12l-.39.56-.1.14-.05.07,0,0v-.1A.88.88,0,0,0,518.15,130.29Z"/><path class="cls-2" d="M658.52,321.57C621.2,220.75,584.67,84.91,459.87,73.77c-133.18-11.89-207.08,85.7-145.72,216.68,53.16,113.46,45.66,169.18,145.72,205.63C583.64,541.18,702,439.07,658.52,321.57Z"/><rect class="cls-3" x="398.06" y="227.61" width="162" height="234"/><path class="cls-4" d="M576.31,210.86l-81.73,8.77-51,5.48L437.1,77.91s36.58-11.38,86,35.7a184.23,184.23,0,0,1,51,86.43A98.76,98.76,0,0,1,576.31,210.86Z"/><path class="cls-5" d="M588.56,226.11c-.83-6.17-3.93-11.65-9.79-14.22-5-2.21-10.84-2.19-16.21-1.6-2.55.28-6,2.13-8-.28-2.83-3.4-3.49-9.43-3.79-13.69-.36-5.18-.13-10.51-2-15.45-.77-2-2.19-3.74-4.55-3.5-5.33.53-8.08,3.6-11.3,7.46-2.68,3.21-5.07,6.64-8,9.64l-14.52,14.84-18.4,18.8,47,90.5s19.5-43,31.5-48C591.42,261.92,591.06,244.61,588.56,226.11Z"/><path class="cls-6" d="M529,95.73c-1.3,4-2.86,8.59-4.52,13.51-.34,1-.68,2-1,3l-4.69,13.84a64.55,64.55,0,0,0-8.56-10.5c-9.46-9.36-21.51-15.31-33.64-20.44-11.4-4.81-26.18-5.71-34.95-15.39-6.42-7.09-7-20.14,3.24-24.11,11.6-4.5,23.78,2.13,34.82,5.21l39.54,11c3.26.91,6.69,1.91,9,4.36C533,81.21,531.18,89.23,529,95.73Z"/><path class="cls-6" d="M437.1,77.92c2.08-.24,3.78,1.61,7.37,3.47,22.1,11.39,48.09,16.75,65.77,34.24a64.55,64.55,0,0,1,8.56,10.5c13.15,20.08,20.94,45,17.2,69.45-3.85,25.19-17.5,48.74-29.09,71.1l-.75,1.44c-5.7,11-13.2,21.55-23.61,28.36-14.27,9.33-35.17,10.72-45.44-5-9.95-15.19-.51-32.26,4.8-47.24,11.67-33,33.85-72.5,18.83-104.19-7.56-15.94-23.32-22.56-39.72-15.61-23.44,9.92-34.38,33.94-45.32,55.11,1.74-3.37,2-9.29,3-13.21,5.08-18.82,14.19-36.37,25.39-52.26A233.4,233.4,0,0,1,422.85,91q5-5.43,10.25-10.57C434.77,78.77,436,78,437.1,77.92Z"/><path class="cls-7" d="M460.93,139.5a49.12,49.12,0,0,1,2.61,6.91c-.15-.35-.32-.7-.48-1A36.5,36.5,0,0,1,460.93,139.5Z"/><path class="cls-8" d="M518.41,125.55c-1.56,4.46-3.43,10.12-4.85,15.56-3,11.5-17.5,21-17.5-7.5s-49.5-48.5-49.5-48.5h1.78c8.53,5,19.41,6.34,28.26,10.07,12.13,5.13,24.18,11.08,33.64,20.44A63.36,63.36,0,0,1,518.41,125.55Z"/><path class="cls-3" d="M521.09,238.62c.21,2.2-2.29,5.24-3.17,7-8.88,17.52-18.41,38.78-35.36,49.87-14.27,9.33-35.17,10.72-45.44-5-9.95-15.19-.51-32.26,4.8-47.24,10.79-30.47,30.55-66.55,21.63-96.86,12,26.31,8.64,59.78-1,87-4.43,12.51-9.55,26.07-1.25,38.75,15.69,24,37.18-17.72,44.5-28.72,2.86-4.29,7.7-8.82,13.24-6.95C520.43,236.92,521,237.69,521.09,238.62Z"/><path class="cls-9" d="M585.89,475.94c0,.61,0,1.23,0,1.84a26.7,26.7,0,0,1-.63,6A27.18,27.18,0,0,1,559,505.12L416.8,506.46a36.63,36.63,0,0,1-36.7-41.14l.65-5.21.31-2.5.18-6,.26-9,.18-6.06,1.56-52.9.1-3.42a25.24,25.24,0,0,1,25.45-24.48c41.06.17,82.13.82,123.19.82h2.7c8.3,0,16.6,0,24.9,0,10.07.08,21.06-1.47,24.83,10.34,5,15.66,1,35.95,1.13,52.16Q585.72,447.56,585.89,475.94Z"/><path class="cls-10" d="M585.13,370.48c0,.28-.07.57-.07.86V480.11a26.5,26.5,0,0,1-26.5,26.5H407.81a26.75,26.75,0,0,1-26.75-26.75v-8.78a25.77,25.77,0,0,0,25.81,25.58l122.35-1a25.8,25.8,0,0,0,25.84-25.58V371.34a14.91,14.91,0,0,1,1.28-6.73H583.7c.13.26.25.53.36.8s.17.39.24.6A15,15,0,0,1,585.13,370.48Z"/><path class="cls-4" d="M584.06,261.65V373.86a14.75,14.75,0,1,1-29.5,0c0-17.69,0-47.69,0-69.65,0-5,0-9.59,0-13.52.37-.63.89-1.63,1.52-2.95a0,0,0,0,1,0,0,66.44,66.44,0,0,1,11.7-14.45l.25-.23a37.69,37.69,0,0,1,9.8-6.34A15.5,15.5,0,0,0,584.06,261.65Z"/><path class="cls-11" d="M584.06,261.66c-.6.8-.24,4-.54,5.14a13.71,13.71,0,0,1-2,4.34c-2.16,3.18-6,5.34-8.85,7.87a72.4,72.4,0,0,0-10.14,10.94c-3.38,4.54-5.08,9.53-8,14.29,0-5,0-9.59,0-13.52.37-.63.89-1.63,1.53-3a66.44,66.44,0,0,1,11.7-14.45l.25-.23a37.69,37.69,0,0,1,9.8-6.34A15.51,15.51,0,0,0,584.06,261.66Z"/><path class="cls-10" d="M554.56,434.36c0,1.53-.39,17.51-.39,19,0,26.79-11.45,7.25-36.86,7.25H380.75l.31-2.75.18-6.25H524.56C537.56,451.61,554.56,434.36,554.56,434.36Z"/><path class="cls-12" d="M532,356.34c-8.16,12.55-17.29,24.57-29.3,33.38-11.23,8.24-24.34,13.09-37.94,15.37a118.88,118.88,0,0,1-19.65,1.62c-17.64,0-41.57-1.54-54.78-14.85a79.57,79.57,0,0,1-7.07-8.17l.1-3.42a25.35,25.35,0,0,1,25.45-24.61C449.85,355.83,490.92,356.32,532,356.34Z"/><path class="cls-6" d="M542.76,309.59a48.2,48.2,0,0,1-6.28,16.66c-9.34,15-19.54,30-33.8,40.47-11.23,8.24-24.34,13.09-37.94,15.37a118.88,118.88,0,0,1-19.65,1.62c-17.64,0-41.57-1.54-54.78-14.85-27.56-27.78-29.15-70.65-28-107.37,1.34-43,7.76-85.81,35.4-120.49,13.3-16.69,40.3-26.67,56.11-11.71a32.33,32.33,0,0,1,6.93,9.79c15,31.69-7.16,71.22-18.83,104.19-5.31,15-14.75,32-4.8,47.24,5.09,7.77,12.78,11.35,21,11.85a41.29,41.29,0,0,0,24.45-6.89c10.41-6.81,17.91-17.31,23.61-28.36,5.24-10.17,10.35-21,14.9-32.21v3c0,.37,3.77,3.15,4.14,3.53,3.92,4,6.75,9.11,9,14.15a112,112,0,0,1,6.61,18.87C543.76,286,544.88,298.33,542.76,309.59Z"/><rect class="cls-13" x="446.56" y="427.36" width="23.5" height="40.5" rx="11.75" ry="11.75"/><rect class="cls-14" x="444.06" y="427.36" width="23.5" height="40.5" rx="11.75" ry="11.75"/><path class="cls-8" d="M542.76,309.59a48.2,48.2,0,0,1-6.28,16.66c-9.34,15-19.54,30-33.8,40.47-11.23,8.24-24.34,13.09-37.94,15.37,9.75-1.63,16.13-9.6,19.87-18.21,4.55-10.48,7.34-24.35,5.6-35.69-2.61-17-17-22.74-32.2-25.67,7.81,1.51,18.19-2.89,24.55-7.05,10.41-6.81,17.91-17.31,23.61-28.36,5.24-10.17,10.35-21,14.9-32.21v3c0,.37,3.77,3.15,4.14,3.53,3.92,4,6.75,9.11,9,14.15a112,112,0,0,1,6.61,18.87C543.76,286,544.88,298.33,542.76,309.59Z"/><path class="cls-1" d="M510.61,146.23,527,96.48c1.36-4.1,2.55-8.21,2.47-12.2A10.65,10.65,0,0,0,528,78.93l-.37-.56c-.13-.18-.29-.34-.43-.51a6.45,6.45,0,0,0-1-.94,11.16,11.16,0,0,0-2.38-1.47A38.16,38.16,0,0,0,518,73.52l-6.32-1.72L499,68.35l-12.63-3.47-6.31-1.74c-2.12-.57-4.3-1.24-6.37-1.94-4.18-1.39-8.23-2.86-12.32-3.82a29.42,29.42,0,0,0-12.09-.67l-1.44.32c-.48.11-.94.3-1.4.44l-.7.23c-.23.08-.42.2-.63.29a8.3,8.3,0,0,0-1.21.63,9,9,0,0,0-3.56,3.84c-1.59,3.21-1.41,7.35,0,10.91a15.89,15.89,0,0,0,3,4.86,24.14,24.14,0,0,0,4.54,3.87,45.89,45.89,0,0,0,11.32,5.08c4.06,1.3,8.29,2.35,12.55,3.7,2.12.66,4.29,1.44,6.36,2.32s4.05,1.73,6.07,2.65c8,3.66,16,7.92,23,13.65a65.7,65.7,0,0,1,9.65,9.57c1.43,1.74,2.8,3.63,4,5.45s2.39,3.79,3.56,5.71a117,117,0,0,1,10.84,24.46,98.29,98.29,0,0,1,3.14,13.07c.42,2.21.65,4.45.93,6.68s.38,4.49.4,6.74a82.54,82.54,0,0,1-.71,13.51c-.12,1.13-.32,2.23-.51,3.34s-.36,2.22-.6,3.31c-.49,2.19-.93,4.39-1.54,6.54a163.94,163.94,0,0,1-9,25.06c-3.63,8.06-7.65,15.89-11.71,23.63l-6.07,11.59a118,118,0,0,1-6.7,11.62c-5,7.49-11.21,14.46-19,19.48a46.67,46.67,0,0,1-12.75,5.66,39.57,39.57,0,0,1-14,1.34,30.43,30.43,0,0,1-13.63-4.5,29.07,29.07,0,0,1-9.8-10.53,29.55,29.55,0,0,1-3.68-13.85,46.08,46.08,0,0,1,2-13.73c1.25-4.36,2.85-8.52,4.44-12.59.79-2,1.6-4.06,2.34-6.07l2.27-6.16c6.22-16.45,13.52-32.29,18.22-48.86a100,100,0,0,0,4.17-25.16,53.16,53.16,0,0,0-5-24.37,34.42,34.42,0,0,0-7.09-10,24,24,0,0,0-4.79-3.64,21.65,21.65,0,0,0-5.51-2.33,22.92,22.92,0,0,0-5.95-.86,27.18,27.18,0,0,0-6.07.53c-1,.16-2,.47-3,.71s-2,.59-2.94,1-1.95.74-2.88,1.22-1.88.91-2.8,1.42a59.45,59.45,0,0,0-10.32,7.34c-1.63,1.36-3.13,2.89-4.66,4.37l-2.18,2.35c-.74.77-1.43,1.59-2.11,2.41a112.68,112.68,0,0,0-7.73,10.29c-2.33,3.62-4.59,7.29-6.59,11.12l-1.51,2.86-1.41,2.92c-.46,1-.95,1.94-1.39,2.93l-1.3,3c-1.76,3.95-3.3,8-4.74,12.08a216.3,216.3,0,0,0-7,25,1.37,1.37,0,0,1-2.68-.57,219.17,219.17,0,0,1,6.8-25.46c1.41-4.17,2.92-8.31,4.66-12.36l1.28-3c.44-1,.92-2,1.38-3l1.4-3,1.51-2.95c2-3.94,4.26-7.75,6.61-11.49a116.34,116.34,0,0,1,7.89-10.72c.7-.87,1.41-1.72,2.18-2.53l2.25-2.47c1.59-1.57,3.14-3.18,4.85-4.63A63.31,63.31,0,0,1,415.45,125c1-.56,2-1,3-1.57s2.09-.91,3.14-1.36,2.16-.77,3.24-1.15,2.21-.64,3.36-.83a31.29,31.29,0,0,1,6.94-.67,27.08,27.08,0,0,1,7,.95,25.88,25.88,0,0,1,6.54,2.69,28.36,28.36,0,0,1,5.65,4.2,38.8,38.8,0,0,1,8.1,11.17,54.59,54.59,0,0,1,4.43,12.9,63.36,63.36,0,0,1,1.27,13.51A104.75,104.75,0,0,1,464,191.27c-4.7,17.12-11.9,33.19-17.92,49.43l-2.22,6.14c-.75,2.09-1.55,4.13-2.33,6.17-1.55,4.07-3.06,8.08-4.19,12.13a40.54,40.54,0,0,0-1.74,12.08,23.76,23.76,0,0,0,3,11.17,23.25,23.25,0,0,0,7.88,8.38,24.52,24.52,0,0,0,11,3.53,38.13,38.13,0,0,0,23-6.13c6.92-4.42,12.62-10.73,17.28-17.74a112.08,112.08,0,0,0,6.37-11.06l6.08-11.61c4.05-7.72,8-15.43,11.55-23.3a160.43,160.43,0,0,0,8.88-24.1,86.7,86.7,0,0,0,3.35-25.07c0-2.11-.18-4.22-.33-6.33s-.45-4.21-.83-6.3a92.81,92.81,0,0,0-2.88-12.4,111.62,111.62,0,0,0-10.18-23.4c-1.09-1.82-2.22-3.64-3.33-5.43s-2.39-3.47-3.72-5.11a60.52,60.52,0,0,0-8.85-8.9c-6.5-5.37-14-9.51-21.84-13.13q-2.94-1.35-5.92-2.63c-1.95-.84-3.88-1.55-5.92-2.2-4.06-1.31-8.3-2.4-12.55-3.79a50.4,50.4,0,0,1-12.44-5.73,28.77,28.77,0,0,1-5.37-4.64,20.87,20.87,0,0,1-5.16-13.48,16.16,16.16,0,0,1,1.65-7.34,13.44,13.44,0,0,1,5.25-5.61,12.45,12.45,0,0,1,1.69-.87c.29-.13.58-.28.86-.38l.86-.28c.57-.17,1.14-.4,1.72-.53l1.76-.38a33.63,33.63,0,0,1,13.86.81c4.41,1.07,8.57,2.62,12.66,4,2.06.71,4.05,1.34,6.14,1.92L487.5,61l12.6,3.56,12.6,3.58,6.3,1.8a41.25,41.25,0,0,1,6.48,2.23,14.82,14.82,0,0,1,3.15,2A10,10,0,0,1,530,75.49c.2.25.42.49.61.75l.53.81A14.2,14.2,0,0,1,533,84.2c0,4.8-1.38,9.19-2.8,13.33l-17,49.55v0a1.37,1.37,0,0,1-2.59-.87Z"/><path class="cls-1" d="M549.26,178.69a66.14,66.14,0,0,1,3,11.64,28.22,28.22,0,0,1,.23,6.19c-.06,1-.26,2.12-.37,3a22.73,22.73,0,0,0-.16,2.75,10.72,10.72,0,0,0,1.09,5,5.47,5.47,0,0,0,3.59,2.73,13.33,13.33,0,0,0,5.25.14c.94-.11,1.89-.27,2.89-.41s2-.23,3.06-.29a39.68,39.68,0,0,1,12.24,1,16.22,16.22,0,0,1,5.92,2.81,9.45,9.45,0,0,1,2.35,2.71,8.16,8.16,0,0,1,.73,1.7c.19.59.26,1,.4,1.52a83.77,83.77,0,0,1,2.09,24,50.2,50.2,0,0,1-2.15,12.06c-.37,1-.71,2-1.12,2.93l-.7,1.43a10.65,10.65,0,0,1-.77,1.4,26.44,26.44,0,0,1-1.84,2.67,18.44,18.44,0,0,1-2.31,2.36,16.65,16.65,0,0,1-2.75,1.9c-.47.27-1,.53-1.47.73s-.84.39-1.26.6a34.69,34.69,0,0,0-4.75,2.89,46,46,0,0,0-8.17,7.75c-4.89,5.84-8.73,12.62-12.36,19.5s-6.95,14-10.49,21.09a235.85,235.85,0,0,1-11.59,20.8,119.43,119.43,0,0,1-14.83,18.92,86.69,86.69,0,0,1-19.16,14.76,83.74,83.74,0,0,1-11,5.2,111.13,111.13,0,0,1-11.51,3.61c-7.7,2-15.39,3.66-23,5.47s-15.18,3.72-22.54,6.13a108,108,0,0,0-21.06,9.12c-6.53,3.81-12.36,8.72-16.35,14.85a37.52,37.52,0,0,0-5.95,20.82l.05,23.54v7.37l.07,1.31a17.1,17.1,0,0,0,.29,2.58,21.45,21.45,0,0,0,.58,2.53c.24.83.58,1.63.86,2.45a23.64,23.64,0,0,0,2.59,4.5,22.29,22.29,0,0,0,7.83,6.71,22.91,22.91,0,0,0,10,2.5c31.36-.19,62.87-.54,94.3-.64l23.59-.11h4.42l1.32-.06a22.2,22.2,0,0,0,14.19-6,21.71,21.71,0,0,0,1.82-1.89c.57-.66,1.07-1.39,1.59-2.09a23.47,23.47,0,0,0,2.38-4.68l.45-1.24.33-1.28a19.39,19.39,0,0,0,.49-2.59,8.12,8.12,0,0,0,.13-1.31l.07-1.32c0-.92,0-1.95,0-2.92l.09-23.59.2-47.18.1-23.59v-1.47c0-.48,0-1.13.07-1.67a16.64,16.64,0,0,1,.66-3.34,19,19,0,0,1,1.25-3.09,16.85,16.85,0,0,1,1.81-2.85,17.48,17.48,0,0,1,11.45-6.58l-.26,0c.18,0,.43-.08.56-.09l.36,0,.72,0,.72,0,.36,0c.14,0,.38,0,.56,0h-.21a17.42,17.42,0,0,1,14.27,8,16.2,16.2,0,0,1,1.33,2.52c.19.44.36.89.49,1.25s.3.85.43,1.3a14.81,14.81,0,0,1,.58,2.83l0,.37v.18c0,.06,0,0,0,0v-.06a4.77,4.77,0,0,1,.16.71l0,.23v1.29l0,5,0,9.94-.17,39.75-.47,79.5a1.37,1.37,0,0,1-2.74,0l-.47-79.5-.17-39.75,0-9.94,0-5v-1.09c0-.05,0,0,0,.05v.08c0,.15,0,0-.13-.5l0-.21,0-.2v-.13l0-.25a10.67,10.67,0,0,0-.44-2c-.11-.35-.23-.7-.36-1.06s-.29-.75-.43-1.06a12.1,12.1,0,0,0-1-1.86,13.12,13.12,0,0,0-2.89-3.13,13,13,0,0,0-7.89-2.78H570l-.27,0-.53,0-.53,0-.27,0h-.09l-.23,0a15.28,15.28,0,0,0-2.4.59,13,13,0,0,0-6,4.38,12.37,12.37,0,0,0-1.32,2.13,14.46,14.46,0,0,0-.94,2.38,12,12,0,0,0-.5,3.71v1.47l.1,23.59.2,47.18.09,23.59c0,1,0,1.94,0,3l-.07,1.63a11.47,11.47,0,0,1-.15,1.62,24.64,24.64,0,0,1-.59,3.2l-.4,1.58-.54,1.54a28.94,28.94,0,0,1-2.91,5.82c-.63.88-1.26,1.78-2,2.61a27.33,27.33,0,0,1-2.25,2.37,27.78,27.78,0,0,1-17.64,7.63l-1.63.08-1.47,0-2.95,0-23.59.26c-31.47.39-62.85.6-94.39.82A28.9,28.9,0,0,1,394,496.47a28.29,28.29,0,0,1-9.91-8.49,29.62,29.62,0,0,1-3.28-5.7c-.38-1-.8-2.05-1.1-3.11A27.43,27.43,0,0,1,379,476a22.81,22.81,0,0,1-.36-3.27l-.08-1.64v-7.37l.1-23.63a43.3,43.3,0,0,1,7-23.84c4.66-7.06,11.27-12.47,18.31-16.51a113.26,113.26,0,0,1,22.2-9.46c7.61-2.43,15.32-4.33,23-6.1s15.39-3.36,22.92-5.29a106.44,106.44,0,0,0,11-3.37,78.81,78.81,0,0,0,10.35-4.83,81.85,81.85,0,0,0,18.18-13.83A114.8,114.8,0,0,0,526,338.77a231.46,231.46,0,0,0,11.49-20.32c3.56-7,7-14.07,10.66-21.08s7.73-14,13-20.17a50,50,0,0,1,9-8.38,38.71,38.71,0,0,1,5.33-3.2q.7-.34,1.41-.66c.46-.2.79-.36,1.18-.57a12.59,12.59,0,0,0,2.1-1.43,14.45,14.45,0,0,0,1.82-1.84,22.79,22.79,0,0,0,1.51-2.18c.5-.74.83-1.6,1.26-2.39s.67-1.71,1-2.56a46.45,46.45,0,0,0,2.09-11.09A80.14,80.14,0,0,0,586.1,220c-.11-.44-.21-1-.33-1.33a4.69,4.69,0,0,0-.42-1,6,6,0,0,0-1.48-1.73,12.9,12.9,0,0,0-4.65-2.23,36.49,36.49,0,0,0-11.16-1.06c-.94,0-1.89.12-2.81.23s-1.93.27-2.95.39a16.37,16.37,0,0,1-6.46-.3,9,9,0,0,1-3.16-1.55,8.52,8.52,0,0,1-2.28-2.73,13.65,13.65,0,0,1-1.4-6.43,25.7,25.7,0,0,1,.21-3.13c.15-1.08.32-1.93.38-2.86a25.33,25.33,0,0,0-.15-5.57,63.63,63.63,0,0,0-2.8-11.17,1.37,1.37,0,0,1,2.6-.85Z"/><path class="cls-1" d="M461.56,432.93a6.73,6.73,0,0,0-6.26-3.64,6.63,6.63,0,0,0-3.5,1.2,11.77,11.77,0,0,0-2.82,2.88,11.09,11.09,0,0,0-1.78,7.63,10.92,10.92,0,0,0,3.7,6.77,10.74,10.74,0,0,0,7.19,2.58l9.3-.11L486,450l18.59-.17,9.3-.08H515l1.11-.06,2.2-.13c.73-.05,1.47-.06,2.2-.15l2.18-.35a51,51,0,0,0,16.56-5.65,52.43,52.43,0,0,0,13.57-11,51.15,51.15,0,0,0,12.81-31.92c.12-1.43.11-3,.13-4.56l0-4.65.09-9.3.23-18.59c.35-24.79.58-49.58,1.11-74.37a1.37,1.37,0,0,1,2.74,0c.53,24.79.75,49.58,1.11,74.37l.23,18.59.09,9.3,0,4.65c0,1.56.06,3.07,0,4.73l-.1,2.45a18.67,18.67,0,0,1-.19,2.44l-.7,4.85-1.19,4.76c-.44,1.57-1.08,3.09-1.61,4.64a56.35,56.35,0,0,1-25.56,28.75,56.66,56.66,0,0,1-18.54,6l-2.42.35c-.81.09-1.63.09-2.44.13l-2.44.1-1.21,0h-1.16l-9.3-.08L486,454.91l-18.59-.23-9.3-.11a14.66,14.66,0,0,1-14.56-13.14,14.62,14.62,0,0,1,2.68-10,15,15,0,0,1,3.78-3.6,9.77,9.77,0,0,1,5.23-1.59,9.63,9.63,0,0,1,8.79,5.49,1.37,1.37,0,0,1-2.46,1.2Z"/><path class="cls-1" d="M375.09,347.14a42.17,42.17,0,0,0,3.23,5.48,52.85,52.85,0,0,0,4,5.07,57.49,57.49,0,0,0,9.42,8.7,70.94,70.94,0,0,0,22.9,11.19A111.53,111.53,0,0,0,440.07,382a166.23,166.23,0,0,0,26.28-.76h0a1.37,1.37,0,0,1,.42,2.71,129.41,129.41,0,0,1-26.83,3c-2.27,0-4.55,0-6.82-.17l-3.41-.22-3.41-.39c-2.28-.21-4.53-.68-6.79-1.09s-4.49-1-6.67-1.78a69.72,69.72,0,0,1-24.18-13.15,61.93,61.93,0,0,1-9.47-10,52.82,52.82,0,0,1-3.76-5.77,37.19,37.19,0,0,1-2.92-6.33,1.37,1.37,0,0,1,2.52-1Z"/></svg>