<svg id="Layer_1" data-name="Layer 1" xmlns="http://www.w3.org/2000/svg" viewBox="0 0 960 560"><defs><style>.cls-1{fill:#69efff;}.cls-2{fill:#ffe7c2;}.cls-3{fill:#ffd799;}.cls-4{fill:#ff745e;}.cls-5{fill:#e05c4a;}.cls-6{fill:#e07061;}.cls-7{fill:#fff98f;}.cls-8{fill:#ffd491;}.cls-9{fill:#ebe365;}.cls-10{fill:#e0503c;}.cls-11{fill:#b7ff8f;}.cls-12{fill:#8eed5a;}.cls-13{fill:#233940;}</style></defs><title>meal, food, hotdog, activity</title><path class="cls-1" d="M812.37,289.42a168.12,168.12,0,0,1-22.6,84.75c-20,34.33-49.49,60.25-83.54,79.87-51.5,29.69-113.43,45-168.7,53.25-92.76,13.86-185.8,16.78-270-30.59S127,343.42,99.18,252.75C83.56,201.8,78.54,135.89,108,88.73,149.09,22.78,241.56,41,299.37,70.49c62.84,32.09,114.38,92,180.95,114.53,53.75,18.22,107.08,19.3,163.12,25.61C688.47,215.68,812.37,222.12,812.37,289.42Z"/><path class="cls-2" d="M788,337.79l-548-3.33c0-1.85.09-3.64.25-5.37.06-.56.13-1.11.2-1.66s.15-1.12.24-1.67a46.93,46.93,0,0,1,1-4.77,45.73,45.73,0,0,1,4.45-10.86,49.47,49.47,0,0,1,8.52-11C273,281.22,302,277.79,302,277.79H722.68c33.4,7.58,50.26,19.41,58.58,30.58.43.59.85,1.18,1.24,1.76a37.5,37.5,0,0,1,5.62,12.81,34.72,34.72,0,0,1,.81,6c0,.23,0,.46,0,.68A26.57,26.57,0,0,1,788,337.79Z"/><path class="cls-3" d="M788,337.79l-548-3.33c0-1.85.09-3.64.25-5.37.06-.56.13-1.11.2-1.66s.15-1.12.24-1.67c.27-1.64.62-3.23,1-4.77h0a45.73,45.73,0,0,1,4.45-10.86,49.47,49.47,0,0,1,8.52-11,27.83,27.83,0,0,1,21.71,5.23c5.35-3.86,12.71-4.92,19.21-3.57,5.72,1.19,10.94,4.15,16.09,6.77a54.51,54.51,0,0,0,5.57,2.53h10.89a6.86,6.86,0,0,1,4.43-.19c10.85-8.6,24-15.82,37.75-8.88,6.53,3.29,11.17,7.69,18.73,8.78.86.13,1.72.22,2.59.29h9.13c3.76-.26,7.51-.76,11.16-1.27a9.48,9.48,0,0,1,4.64.45c17.74-9.36,38-5.4,56.47.82h11.29a66.18,66.18,0,0,1,37.73-8.72,7,7,0,0,1,6.35,5,34,34,0,0,1,15-2c8.42.58,16.85,1.85,25.24,2.9a7.6,7.6,0,0,1,1.21-.88,54.44,54.44,0,0,1,53.65-.78c9.29-1.5,18.58-3.11,27.91-4.37,8.88-1.2,17.65-.54,24.68,5.1,17.64-8.17,39-3.55,57.58-2l47.58,3.93c.43.59.85,1.18,1.24,1.76a37.5,37.5,0,0,1,5.62,12.81,34.72,34.72,0,0,1,.81,6c0,.23,0,.46,0,.68A26.57,26.57,0,0,1,788,337.79Z"/><path class="cls-4" d="M754.63,127.12,662.9,284.44l-1.2,2.06-.55.94s-9,14.12-25.37,19.75a45.23,45.23,0,0,1-30.86-1l-.75.39L601,308.23l-3.55,1.84,0,0-9.06-5.76-2.18-1.38-.55-1.42-2-5.22-.25-.63-.44-1.14c-53.39-28.09-37-62.83-37-62.83l2-3.46c13-22.21,84.33-144.2,90.29-154,6.56-10.78,38-42.18,88.1-16.87C739.38,64,747.57,71.86,752.52,80,766.53,102.84,754.63,127.12,754.63,127.12Z"/><path class="cls-5" d="M598.85,257.71l-15.24,38.56-.25-.63-.44-1.14c-53.39-28.09-37-62.83-37-62.83l2-3.46a8.57,8.57,0,0,0,3.41-2.8,1.16,1.16,0,0,1,1.59-.34,1.29,1.29,0,0,1,1.72,1c3.9,20.28,25.89,26,43.19,29.77A1.51,1.51,0,0,1,598.85,257.71Z"/><path class="cls-6" d="M821.68,353.46a30,30,0,0,1-30,30h-548a30,30,0,0,1-30-30,29.5,29.5,0,0,1,1.42-9.11A30,30,0,0,1,243,323.48c.23,0,.47,0,.71,0h548a30,30,0,0,1,30,30Z"/><path class="cls-5" d="M752.52,80q-4.83,13.92-10.38,27.61a593.7,593.7,0,0,1-26.3,56.32c-9.87,18.54-20.06,39.78-36,53.9-9.63,8.51-24.09,13.75-36.55,10.84a1.77,1.77,0,0,0-2.12,1.31v0a1.81,1.81,0,0,0,.75,1.93,64.61,64.61,0,0,1,16.3,16.59c7.58,10.82,8.42,24.29,1.42,35.61a1.5,1.5,0,0,0,1.63,2.2l.48.21,1.2-2.06,91.73-157.32S766.53,102.84,752.52,80Z"/><path class="cls-2" d="M807.61,399.33A75.84,75.84,0,0,1,803.2,408a104.31,104.31,0,0,1-27.81,30.44C744.77,460.34,706.22,463,670,466.83c-99.79,10.44-202.87,18.84-302.28,1-27.41-4.91-103.3-13.7-117.4-55.12a43.39,43.39,0,0,1-2.27-14.07S240.78,377,280.56,377H707.75l77.43-5.57C800.17,370.34,813.53,385.52,807.61,399.33Z"/><path class="cls-7" d="M761.45,326.62a55.05,55.05,0,0,1-36,37.33c-19.3,6-38.17,0-53.6-12-11.41-8.9-22.53-21.79-37.94-22.83-18.6-1.24-35,11.52-50.42,20-13.5,7.4-28.92,13.57-44.33,11.4a43.4,43.4,0,0,1-7.83-1.86,67.71,67.71,0,0,1-15.22-7.73c-7.91-5.17-15.25-11.3-23.58-15.9-15-8.28-30.05-4.18-44.85,2.41-5,2.2-9.83,4.43-14.74,6.5A128.21,128.21,0,0,1,412,351a76.46,76.46,0,0,1-14.1,2,83.74,83.74,0,0,1-48.15-12.86,85.5,85.5,0,0,1-14.41-11.32c-7.62-7.45-18.58-19.61-22.91-29.65-1.49-3.46-1.1-7.53,2.51-9.58,3-1.71,8.07-1,9.57,2.51,5,11.47,17.24,24.35,26.49,31.62a70.25,70.25,0,0,0,64.29,12.16c.53-.16,1.06-.32,1.59-.5,15.42-5.11,29.34-14.37,45.32-17.9,15.8-3.49,30.17.31,43.46,9.14,9.55,6.35,19,15.26,30.16,18.81a33,33,0,0,0,5.71,1.29c17.78,2.36,34.26-9.5,48.84-17.85,3-1.72,6.07-3.39,9.21-4.94,12.61-6.26,26.25-10.61,40.46-8.1,14.57,2.56,25.66,12.93,36.61,22.07,12,10,25.67,17.17,41.77,13.41a40.6,40.6,0,0,0,29.53-28.45C750.45,314.25,764,318,761.45,326.62Z"/><path class="cls-8" d="M785.18,371.41,708,377l-.55,0H280.56c-35.64,0-33.51,17.41-32.68,21a7.29,7.29,0,0,1,.18,1.5,44,44,0,0,0,1.2,9.56,7.72,7.72,0,0,0,4.34,5.2c57.72,26.27,125.31,21.18,185.13,2.4,10.24-3.22,20.36-6.82,30.36-10.71a7.64,7.64,0,0,1,5.79.09,70.7,70.7,0,0,1,30.75,25.66,7.74,7.74,0,0,0,6.17,3.49h.07a7.69,7.69,0,0,0,4.48-1.29c45.63-30.19,104.38-39.23,157-23.21a7.75,7.75,0,0,1,1.9.89c22,14,50.63,17,75,7.14,13.79-5.58,25.53-16.26,41.33-14.21a37.45,37.45,0,0,1,6,1.27,7.64,7.64,0,0,0,9-4.11q.55-1.17,1.06-2.35C813.53,385.52,800.17,370.34,785.18,371.41Z"/><path class="cls-5" d="M349.75,340.18c-17.17,7.54-20.29,23.13-54.66,27.52-23.65,3-60.86-10-80-23.35A30,30,0,0,1,243,323.48c16.69,14.7,31.4,27.23,53.91,20.56,13.1-3.89,25.6-10.2,38.46-15.18A85.5,85.5,0,0,0,349.75,340.18Z"/><path class="cls-5" d="M415.29,335.92A70.25,70.25,0,0,1,351,323.76c.4-.11.81-.2,1.21-.3a73.49,73.49,0,0,1,18.71-2.12,63.42,63.42,0,0,1,14.77,2.12,118.57,118.57,0,0,1,23.24,9.29C411.06,333.82,413.17,334.88,415.29,335.92Z"/><path class="cls-5" d="M539.13,360.5c-4.1,1.38-8.27,2.6-12.48,3.65a167.1,167.1,0,0,1-86.76-1.88A182.79,182.79,0,0,1,412,351a128.21,128.21,0,0,0,20.91-7.12,130.15,130.15,0,0,0,14.9,5,149.19,149.19,0,0,0,68.27,2,67.71,67.71,0,0,0,15.22,7.73A43.4,43.4,0,0,0,539.13,360.5Z"/><path class="cls-9" d="M415.29,335.92c5.82,2.88,11.63,5.61,17.62,8A128.21,128.21,0,0,1,412,351c-4.21-2-8.4-4.13-12.63-6.23-12.45-6.17-25.2-10.26-39.34-7.7a45.35,45.35,0,0,0-10.28,3.07,85.5,85.5,0,0,1-14.41-11.32,129.45,129.45,0,0,1,15.66-5.1A70.25,70.25,0,0,0,415.29,335.92Z"/><path class="cls-10" d="M600.11,323.46l-.53.51c-3.14,1.55-6.21,3.22-9.21,4.94-14.58,8.35-31.06,20.21-48.84,17.85a33,33,0,0,1-5.71-1.29,147.86,147.86,0,0,0,40.9-22Z"/><path class="cls-9" d="M599.58,324a162.59,162.59,0,0,1-60.45,36.53,43.4,43.4,0,0,1-7.83-1.86,67.71,67.71,0,0,1-15.22-7.73,149.38,149.38,0,0,0,19.74-5.44,33,33,0,0,0,5.71,1.29c17.78,2.36,34.26-9.5,48.84-17.85C593.37,327.19,596.44,325.52,599.58,324Z"/><path class="cls-5" d="M601,308.23l-3.55,1.84,0,0c1-5.64-4.2-7.74-9.06-5.76l-2.18-1.38-.55-1.42-2.26-5.85a1.49,1.49,0,0,1,.43-.17c5.32-1.35,12.15-2.57,16.16,2.29C602.91,301.37,603.6,304.62,601,308.23Z"/><path class="cls-5" d="M638.47,297.22a22.75,22.75,0,0,1-9.46-.94,17.94,17.94,0,0,1-10.24-8.64,2.42,2.42,0,0,0-4.25-.14l0,0c-1.16,2.1-2.29,4.22-3.44,6.33l-6.9,12.69a3.59,3.59,0,0,1,2.78.29,43.36,43.36,0,0,0,32-.91,52,52,0,0,0,24-21.44c-4.77,4.07-9.82,8-15.59,10.4A30.82,30.82,0,0,1,638.47,297.22Z"/><path class="cls-4" d="M587.52,300.17c-32.83,36.55-83.82,51.94-131.31,38.69-12.44-3.47-23.51-9.19-34.87-15.16-10.69-5.62-21.83-10.42-34.09-10.69-24-.54-44.25,14.42-66.39,21.27a73.55,73.55,0,0,1-69.71-14.62c-6.75-5.92-16.69,3.95-9.9,9.9,18,15.78,42.27,24.14,66.22,21.65,25.16-2.61,45.55-18.79,70-23.42,12.67-2.4,24.12,1.44,35.28,7.22,11.9,6.16,23.46,12.41,36.33,16.37a142.47,142.47,0,0,0,148.32-41.3C603.43,303.38,593.56,293.45,587.52,300.17Z"/><path class="cls-11" d="M873.35,378.46S814,404.56,808.5,393.62c-1.5-3-2.75-6.4-4.29-9.67-4.24-9-10.64-16.64-30.2-8.82-26.66,10.66-134,19.33-171.33,8s-164.67,10-164.67,10-66.37,13.16-125.4,11.17c-7.33-.24-14.55-.72-21.51-1.49-24.39-2.7-45.66-8.93-57.75-21,0,0,8.66,2.26,20.33-10.87,2-2.21,4-4.3,6.07-6.23,10.23-9.55,21.4-15.45,30.26-14.9,0,0,.76.79,2.25,2a70.6,70.6,0,0,0,45.09,16c30,0,52.66,2.67,61.33,8l.37.22.12,0a628,628,0,0,1,141.61-2.88h0c15.41-4.25,32.29-9.66,50.76-16.49,0,0,16.36,9.26,41,17.34a302.42,302.42,0,0,1,148.22-12.2c10.85-6.09,39.28-20,65.41-15a0,0,0,0,0,0,0C845.87,347.92,838.09,374.54,873.35,378.46Z"/><path class="cls-7" d="M326,283.79l0,.26-.46,5.12-.18,2-12.78,12-5.59-.28-3.57-.18-2.08-2.09-.07-.08-5.1-5.13-7.2-7.25-.21-.22-.46-.46-3.65-3.67-1.29-1.3-.32.19c-.77.45-1.54.89-2.29,1.29-15.07,8.18-28.43,8.59-37.61,9.44a26,26,0,0,1-24.29-11.91l-92.16-141c-10-17.71-11-31.23-8.35-41.2,4.4-16.68,19-23.47,19-23.47C175,54.64,199.21,56.73,212.82,62.07a39.16,39.16,0,0,1,12,7.2,18.34,18.34,0,0,1,1.85,1.86l82.77,141.8.62,1.05.51.89,2.1,3.59c8.41,13.82-2.67,35.23-4.94,39.31l-.39.69.86,1.17.66.88.17.24,4.89,6.65Z"/><path class="cls-12" d="M780.81,361.76s-29.8,19.7-69.3,23.87S632.59,374,632.59,374A302.42,302.42,0,0,1,780.81,361.76Z"/><path class="cls-12" d="M540.78,373.11a321,321,0,0,1-70,12.06c-13.52.8-27.31,1-40.81-.31-9.56-1-22.47-3.23-30.84-8.87A628,628,0,0,1,540.78,373.11Z"/><path class="cls-9" d="M315.32,225a22.21,22.21,0,0,0-2.64-6.51l-2.1-3.59a81,81,0,0,1-12.36,29C289,257.27,274.58,270,258,272.66c-19.8,3.15-34.11-12.36-43.82-27.47-10.24-15.93-19.81-32.33-29.68-48.5a1.53,1.53,0,0,0,.13-2.16,39.14,39.14,0,0,1-6-9.3c-.52-.66-1-1.35-1.51-2.05-5.74-8.39-8.15-18.46-14.75-26.37A43.83,43.83,0,0,0,142,142.93a15.09,15.09,0,0,1-3.21-1.24,2.51,2.51,0,0,1-1.37-1.75c-.11-1.08,1-2,2.09-2a6,6,0,0,1,3.08.95c4.16,2.18,8,4.55,12.58,5.63a39.68,39.68,0,0,0,13.09.67c18.61-1.93,36.39-10.82,47.8-25.84,10.18-13.4,17.92-34.2,8.72-50A18.43,18.43,0,0,0,217.24,62a1,1,0,0,0,0-.17,1.59,1.59,0,0,0-2.67-1,1.33,1.33,0,0,0-1.74,1.24,1.52,1.52,0,0,0,1,1.67c.18.06.34.14.51.21.72,22.09-12.18,43.71-33,52.06a55.57,55.57,0,0,1-32.7,2.55c-10.15-2.33-23.83-8.43-25.72-19.9l.18-.19a1.53,1.53,0,0,0-.84-2.54,1.47,1.47,0,0,0-2.54,1l.06.69c-.49.54-1,1.08-1.42,1.63-2.65,10-1.63,23.49,8.35,41.2l92.16,141a26,26,0,0,0,24.29,11.91c9.18-.85,22.54-1.26,37.61-9.44.75-.4,1.52-.84,2.29-1.29l.32-.19,0,0c.41.42,11.86-10.69,12.89-11.72a126.68,126.68,0,0,0,9.24-10.16c.24-.29.46-.58.68-.87A45.27,45.27,0,0,0,311.81,249C314.82,241.49,317.18,233,315.32,225Z"/><path class="cls-12" d="M873.35,378.46S814,404.56,808.5,393.62c-1.5-3-2.75-6.4-4.29-9.67,6.39-.29,22.77-4.59,42-37.13C845.87,347.92,838.09,374.54,873.35,378.46Z"/><path class="cls-12" d="M312.21,404.34l-17.05-1a7.74,7.74,0,0,1-4-1,8,8,0,0,1-2.26-3.1c-7.32-14.23-18.3-23-28.45-34.61,4.85-7.71,16.84-12.69,25.38-14.75,1.5-.36,3.18-.64,4.52.14,2.12,1.22,2.17,4.19,2.11,6.63A64.12,64.12,0,0,0,312.21,404.34Z"/><path class="cls-9" d="M326,284.05l-.46,5.12A40.43,40.43,0,0,1,307,302.84l-3.57-.18c-.46,0-1.66-1.61-2.08-2.09l-.07-.08-5.1-5.13-7.2-7.25-.21-.22c-.67-.72-2.59-2.81-4-4.18l-.16,0a1.35,1.35,0,0,1-1.61-1.11,1.57,1.57,0,0,1,.57-1.72,130.08,130.08,0,0,0,23.76-22.83,1.27,1.27,0,0,1,.38-.33l-.39.69.86,1.17.83,1.12,4.89,6.65a1.46,1.46,0,0,1-1,1.08l-.65.23A13.36,13.36,0,0,0,303.46,282a12.45,12.45,0,0,0,3.85,8.43c2.22,2.17,5.31,5.24,8.73,4s7-6.63,8.91-9.67A1.41,1.41,0,0,1,326,284.05Z"/><path class="cls-13" d="M686.32,276.92q8.6-.39,17.25-.47c5.77,0,11.55.11,17.34.45a160.76,160.76,0,0,1,17.36,2,98,98,0,0,1,17.11,4.44,61.82,61.82,0,0,1,8.19,3.63l2,1.07c.66.37,1.28.79,1.92,1.2s1.28.8,1.89,1.24l1.82,1.36c1.24.86,2.34,1.94,3.5,2.92s2.15,2.16,3.23,3.23,2,2.32,2.85,3.58l1.28,1.9c.21.32.43.63.63,1l.55,1a46.15,46.15,0,0,1,5.59,17.06c.81,6,.41,11.72.34,17.48a1.37,1.37,0,0,1-2.74.1v-.1c-.44-5.68-.49-11.45-1.58-16.83A43.81,43.81,0,0,0,778.94,308l-.53-.86c-.19-.28-.4-.54-.6-.81l-1.21-1.61a17.78,17.78,0,0,0-1.31-1.53l-1.34-1.5c-1-.9-1.92-1.88-3-2.73s-2.06-1.73-3.21-2.45l-1.67-1.14c-.56-.38-1.17-.69-1.75-1l-1.76-1-1.82-.94c-1.19-.66-2.47-1.18-3.71-1.74s-2.54-1-3.81-1.58c-10.33-4-21.52-6-32.77-7.22-5.63-.64-11.31-1.06-17-1.35s-11.42-.52-17.15-.78a1.37,1.37,0,0,1,0-2.73Z"/><path class="cls-13" d="M813.54,377a67.81,67.81,0,0,1-3.92,19.89A82.27,82.27,0,0,1,800.48,415a98.64,98.64,0,0,1-28.81,28.15,114.66,114.66,0,0,1-17.89,9.44,144.79,144.79,0,0,1-19.08,6.57c-1.62.46-3.24.91-4.87,1.27l-4.9,1.16c-3.28.66-6.56,1.39-9.86,1.93-6.59,1.2-13.21,2.1-19.82,2.93-26.46,3-52.83,5.85-79.33,8.3s-53,4.43-79.63,5.53-53.27,1.21-79.91.05a654.38,654.38,0,0,1-79.56-8.17l-9.87-1.65-9.78-1.69c-6.55-1.12-13.13-2.27-19.68-3.61a272,272,0,0,1-38.78-10.53,145,145,0,0,1-18.52-8.15,87.07,87.07,0,0,1-16.86-11.49,53.63,53.63,0,0,1-12.71-16.24A44.59,44.59,0,0,1,246,398.65l.1.64a13.13,13.13,0,0,1-.4-1.76c-.08-.56-.15-1.11-.18-1.67a17,17,0,0,1,.14-3.35,15.57,15.57,0,0,1,2.37-6.28,17.73,17.73,0,0,1,4.59-4.73,27,27,0,0,1,5.62-3c7.84-3,16.08-3.35,24-3.27l47.37.36a1.37,1.37,0,0,1,0,2.74l-47.37.36a99,99,0,0,0-11.61.62,44.51,44.51,0,0,0-11,2.67c-3.41,1.4-6.54,3.45-8.34,6.35a11.61,11.61,0,0,0-1.73,4.73,13,13,0,0,0-.08,2.56,12.75,12.75,0,0,0,.15,1.27,10.22,10.22,0,0,0,.26,1.13v0a2.06,2.06,0,0,1,.09.61,40.44,40.44,0,0,0,4.36,18.29,49.31,49.31,0,0,0,11.85,14.79,82.56,82.56,0,0,0,16.1,10.71,140.24,140.24,0,0,0,18,7.69,267.08,267.08,0,0,0,38.16,9.92c6.48,1.25,13,2.35,19.54,3.41l9.86,1.63,9.79,1.56a715.52,715.52,0,0,0,78.92,7.71c26.44,1.2,52.94,1,79.42.1,53-1.82,105.85-7.25,158.63-12.62,6.57-.75,13.12-1.58,19.61-2.7,3.26-.5,6.47-1.18,9.71-1.8l4.8-1.09c1.61-.34,3.19-.76,4.77-1.2a128.34,128.34,0,0,0,36-15.13,95.1,95.1,0,0,0,28.16-26.76c7.37-10.71,12.35-23.24,13-36.26a1.37,1.37,0,0,1,2.73.12Z"/><path class="cls-13" d="M225.57,333.4a28.69,28.69,0,0,0-8,13.15,31.77,31.77,0,0,0-.72,15.36,24.82,24.82,0,0,0,2.56,7.13A20.32,20.32,0,0,0,227,377a35.48,35.48,0,0,0,3.41,1.72,14.54,14.54,0,0,0,6.82,1.36c4.36-.43,8.3-4,11.85-7.91.9-1,1.77-2,2.65-3s1.83-2.12,2.78-3.15,1.9-2.07,2.92-3.06l1.51-1.49,1.57-1.44a55.94,55.94,0,0,1,6.8-5.31,40.13,40.13,0,0,1,7.79-4.1,36.6,36.6,0,0,1,8.63-2.26,43.43,43.43,0,0,1,8.86-.13,2.9,2.9,0,0,1,1.71.74l.11.1c.33.31.88.76,1.36,1.13s1,.77,1.55,1.15c1.07.74,2.15,1.48,3.3,2.15a69.75,69.75,0,0,0,7,3.77,101.67,101.67,0,0,0,15.11,5.54,132.88,132.88,0,0,0,32.2,4.38,152.14,152.14,0,0,1,33.46,4,104.15,104.15,0,0,1,16.08,5.23,81.65,81.65,0,0,1,7.62,3.73,47.28,47.28,0,0,1,7.18,4.77A1.37,1.37,0,0,1,417.6,387l-.09-.07a45.25,45.25,0,0,0-6.85-4.13,78.55,78.55,0,0,0-7.46-3.27A108.76,108.76,0,0,0,387.52,375a147.66,147.66,0,0,0-32.59-2.91,132.56,132.56,0,0,1-33.67-3.76,95.5,95.5,0,0,1-16.18-5.64c-1.29-.63-2.62-1.2-3.88-1.91l-1.91-1c-.63-.36-1.25-.74-1.87-1.11-1.25-.74-2.45-1.57-3.65-2.42-.59-.45-1.19-.86-1.78-1.34s-1.13-.91-1.81-1.55l1.82.84a37.64,37.64,0,0,0-7.54,0A30.67,30.67,0,0,0,277.2,356a34.39,34.39,0,0,0-6.79,3.42,50.38,50.38,0,0,0-6.23,4.68l-1.48,1.31-1.44,1.37c-1,.9-1.88,1.88-2.81,2.83s-1.81,2-2.71,3-1.85,2.08-2.84,3.1a44.82,44.82,0,0,1-6.49,5.82,17.54,17.54,0,0,1-8.82,3.4,19.22,19.22,0,0,1-9.09-2,40.22,40.22,0,0,1-3.87-2.08,24.9,24.9,0,0,1-3.6-2.74,24.55,24.55,0,0,1-5.39-7.13,28.92,28.92,0,0,1-2.75-8.36,33,33,0,0,1-.34-8.67,35.47,35.47,0,0,1,1.76-8.44,31.73,31.73,0,0,1,9.46-14.19,1.37,1.37,0,0,1,1.8,2.06Z"/><path class="cls-13" d="M730.45,338.81a40,40,0,0,1,5,9.27,60.31,60.31,0,0,1,2.7,10.06c.65,3.37,1.15,6.71,1.81,10a61.12,61.12,0,0,0,2.64,9.46,21.5,21.5,0,0,0,5.11,7.65,31.06,31.06,0,0,0,7.74,5.43,54.23,54.23,0,0,0,18.67,5.1,74.68,74.68,0,0,0,19.56-.61,57.14,57.14,0,0,0,18.31-6.09c5.53-3.06,10.34-7.44,12.58-12.94a19.32,19.32,0,0,0,1.22-4.24c.14-.72.19-1.46.27-2.2l.05-2.37a7.5,7.5,0,0,0,0-.91l-.17-1.16-.37-2.43c-.14-.81-.31-1.6-.46-2.4s-.31-1.6-.52-2.38a54.87,54.87,0,0,0-2.95-9.16,38,38,0,0,0-4.58-8.19,31.59,31.59,0,0,0-14.8-10.79c-5.95-2.18-12.49-3-19.09-3.37s-13.33-.13-20.06.15c-27.26,1.22-54.36-.78-81.36-1.35a1.37,1.37,0,0,1,0-2.74c13.57-.23,27.13,0,40.65.11s27-.06,40.44-1c6.78-.43,13.62-.81,20.54-.61a70.52,70.52,0,0,1,20.82,3.34,39.7,39.7,0,0,1,9.76,4.92,35.11,35.11,0,0,1,7.93,7.67,51,51,0,0,1,8.59,19.62c.22.86.39,1.72.55,2.58s.34,1.72.48,2.59l.38,2.59.19,1.36a13.25,13.25,0,0,1,0,1.63c0,.76,0,1.76-.1,2.7a28.36,28.36,0,0,1-.38,2.83,25.24,25.24,0,0,1-1.66,5.47,28.48,28.48,0,0,1-6.46,9.18,39.33,39.33,0,0,1-8.86,6.35,62.46,62.46,0,0,1-20.15,6.4,77.23,77.23,0,0,1-20.93.3,58.83,58.83,0,0,1-20.17-6,35.38,35.38,0,0,1-8.68-6.4,25.59,25.59,0,0,1-5.86-9.25c-2.37-6.69-3-13.65-4-20.23a57.21,57.21,0,0,0-2.25-9.61,37.12,37.12,0,0,0-4.32-8.73h0a1.37,1.37,0,0,1,2.24-1.56Z"/><path class="cls-13" d="M462.92,384.57l8.25-.5c2.75-.18,5.5-.29,8.24-.62l8.22-.83,2.05-.21,2-.29,4.09-.57c10.91-1.44,21.72-3.6,32.44-6s21.29-5.54,31.71-9c5.21-1.73,10.36-3.65,15.47-5.65s10.19-4.17,15-6.53a2.64,2.64,0,0,1,2.39,0l0,0c9.57,5.08,19.94,9,30.37,12.52s21.09,6.58,31.81,9.27c2.68.65,5.36,1.34,8,1.95l4,.94,4,.86a158.44,158.44,0,0,0,16.09,2.72c1.29,0,2.41.18,3.9.17l4.19.07c2.76,0,5.5.06,8.23,0a141.88,141.88,0,0,0,16.28-1.23l2-.26,2-.34,4-.7c2.65-.6,5.34-1.07,8-1.83l4-1,3.9-1.23c2.62-.76,5.16-1.78,7.72-2.71,1.29-.45,2.55-1,3.8-1.52l3.77-1.61c1.27-.5,2.48-1.15,3.72-1.73l3.7-1.78c2.45-1.21,4.82-2.59,7.24-3.88l7.4-4a135.1,135.1,0,0,1,31.61-12.09,99.65,99.65,0,0,1,16.79-2.66A82.92,82.92,0,0,1,838,344c1.43.07,2.86.12,4.29.28.72.07,1.43.14,2.15.25s1.41.21,2.22.39a1.84,1.84,0,0,1,1.43,2.11v.06a40.59,40.59,0,0,0-.4,10.09,25.57,25.57,0,0,0,2.58,9.56A15.42,15.42,0,0,0,857,373.5a22.62,22.62,0,0,0,9.68,2.11h0a1.37,1.37,0,0,1,0,2.74,25.45,25.45,0,0,1-11-2.15,18.6,18.6,0,0,1-8.31-7.85,28.91,28.91,0,0,1-3.23-10.78,43.6,43.6,0,0,1,.24-11.14l1.42,2.17c-.55-.1-1.24-.21-1.89-.29s-1.32-.15-2-.2c-1.33-.13-2.69-.15-4-.19a79,79,0,0,0-8.12.34,95.41,95.41,0,0,0-16.07,2.84,130.41,130.41,0,0,0-30.33,12.23l-7.18,4.07c-2.46,1.37-4.88,2.84-7.38,4.13s-5,2.6-7.59,3.75L757.32,377c-1.29.58-2.58,1.15-3.92,1.63-2.65,1-5.26,2.09-8,2.92l-4,1.33-4.1,1.14c-2.72.82-5.51,1.35-8.27,2l-4.19.78-2.1.38-2.11.3c-2.81.44-5.63.71-8.46,1l-4.25.27c-1.42.07-2.83.1-4.25.16-2.83.07-5.65.07-8.45,0s-5.38,0-8.57-.24a163.47,163.47,0,0,1-16.78-2.9c-5.5-1.16-10.93-2.51-16.34-3.92-10.82-2.85-21.54-6.07-32.12-9.75s-21.05-7.79-31.09-13.25l2.43,0c-5.16,2.46-10.29,4.54-15.51,6.56s-10.49,3.81-15.8,5.48c-10.62,3.36-21.37,6.31-32.27,8.6A325.09,325.09,0,0,1,496.26,385l-4.14.48-2.07.24-2.08.16-8.31.65c-2.77.27-5.55.32-8.32.43l-8.33.31a1.37,1.37,0,0,1-.14-2.73Z"/><path class="cls-13" d="M411.66,349.84a17.88,17.88,0,0,0,8.12-2.5,39,39,0,0,0,6.93-5.55c4.36-4.23,8.49-9,13.26-13.27a59.84,59.84,0,0,1,16.26-10.64,57.7,57.7,0,0,1,19-4.44c.81,0,1.62-.06,2.44-.09s1.61-.08,2.46,0,1.69,0,2.53.14l2.52.31a33.84,33.84,0,0,1,9.66,3.1c6.09,3,11,7.46,15.37,12.07s8.26,9.44,12.65,13.53A31.68,31.68,0,0,0,530,347.6a20.41,20.41,0,0,0,8.31,2.24h0a1.37,1.37,0,0,1,0,2.74,22.86,22.86,0,0,1-9.76-1.85,33.94,33.94,0,0,1-8.32-5.22c-5-4.1-9.15-8.84-13.56-13.06s-9-8-14.26-10.35a31.89,31.89,0,0,0-8.14-2.35l-2.11-.23c-.71-.07-1.42-.05-2.13-.09-1.43,0-3,0-4.43.06s-3,.17-4.42.4c-.73.1-1.47.17-2.2.29l-2.17.4a49.76,49.76,0,0,0-8.46,2.48,56.66,56.66,0,0,0-15.21,9.18c-4.71,3.81-9,8.28-13.77,12.49a41.39,41.39,0,0,1-8,5.59,20.13,20.13,0,0,1-9.74,2.25,1.37,1.37,0,0,1,0-2.73Z"/><path class="cls-13" d="M636.63,314.9a42.41,42.41,0,0,1,18.11,7.71c5.35,3.93,9.78,8.81,14,13.63s8.13,9.76,12.59,13.92a47.35,47.35,0,0,0,7.08,5.56,38.2,38.2,0,0,0,7.92,3.8A53.68,53.68,0,0,0,714,361.87a62.83,62.83,0,0,0,18-2.94c5.74-1.89,11.21-4.78,15.31-9.06a24.24,24.24,0,0,0,6.71-16.1,1.37,1.37,0,0,1,2.74,0v0a27.85,27.85,0,0,1-1.4,9.95,27.18,27.18,0,0,1-5,8.84,33.4,33.4,0,0,1-7.67,6.62,48.58,48.58,0,0,1-9,4.46,65.66,65.66,0,0,1-19.41,4,60.4,60.4,0,0,1-10-.2,41.55,41.55,0,0,1-10-2.2,44.78,44.78,0,0,1-16.85-11.09,167.91,167.91,0,0,1-12.51-14.79c-3.91-5-7.89-9.75-12.64-13.6a41.6,41.6,0,0,0-7.62-5,42.31,42.31,0,0,0-8.59-3.18h0a1.37,1.37,0,0,1,.56-2.68Z"/><path class="cls-13" d="M306.3,261.31a62.66,62.66,0,0,1-4.8,6.29q-2.56,3-5.34,5.75c-1.87,1.83-3.77,3.63-5.79,5.3s-4.07,3.3-6.17,4.87l.32-3.38L295,290.4l10.4,10.33-.16-.15a.77.77,0,0,0,.95,0l.28-.2a4.46,4.46,0,0,1,.45-.29,6.17,6.17,0,0,1,1-.46,6.42,6.42,0,0,1,6.1.88,4.5,4.5,0,0,1,.42.34l.32.3.43.41.85.82,1.71,1.65,3.4,3.31.2.21,0,0A201,201,0,0,0,335.15,323a116.67,116.67,0,0,0,15.76,13.23,82.77,82.77,0,0,0,18.1,9.56,64.81,64.81,0,0,0,20.06,4.06,1.37,1.37,0,0,1,0,2.74,64.28,64.28,0,0,1-21.37-2.95,82.51,82.51,0,0,1-19.57-9.2,115.92,115.92,0,0,1-17-13.23,134.73,134.73,0,0,1-14.5-15.84l.23.26-3.33-3.38-3-3.12A.66.66,0,0,0,310,305a.71.71,0,0,0-.23,0l-.11,0-.05,0h0l-.18.12a6.36,6.36,0,0,1-7.84-.44l-.05,0-.11-.11L291.35,294l-10-10.7-.05-.06a2.2,2.2,0,0,1,.1-3.11,2.41,2.41,0,0,1,.27-.21c2.08-1.41,4.15-2.86,6.13-4.41s3.93-3.16,5.84-4.81,3.72-3.42,5.47-5.23a70.25,70.25,0,0,0,4.94-5.64l0-.05a1.37,1.37,0,0,1,2.22,1.58Z"/><path class="cls-13" d="M309.9,340.56c13.43-5.12,25.78-12.78,38.94-19.22a119.22,119.22,0,0,1,20.65-8,71,71,0,0,1,22.28-2.59,48.51,48.51,0,0,1,11.25,2,59.91,59.91,0,0,1,10.46,4.4c3.32,1.74,6.47,3.68,9.56,5.63s6,3.88,9.16,5.57a113.79,113.79,0,0,0,40.31,12.66,110.66,110.66,0,0,0,21.15.7,137.52,137.52,0,0,0,21.05-3.08c3.49-.76,7-1.62,10.43-2.55,1.73-.48,3.47-.94,5.2-1.45s3.45-1,5.12-1.54a98.79,98.79,0,0,0,19.33-8.59,75.13,75.13,0,0,0,8.79-5.9l8.46-6.75,8.44-6.74a15.26,15.26,0,0,0,1.7-1.62,3.14,3.14,0,0,0,.73-1.18c0-.06,0,0,0-.07s-.05-.07-.07-.13l-.1-.1,0-.06-.15-.16a7.69,7.69,0,0,1-2-7.09,7.84,7.84,0,0,1,.27-.92l.25-.67.49-1.27,2-5.08,3.91-10.17,7.83-20.33,0-.1a1.63,1.63,0,0,1,1.08-1,12.48,12.48,0,0,1,2-.39c.65-.09,1.29-.1,1.94-.13a18.43,18.43,0,0,1,3.83.38,19.2,19.2,0,0,1,7,3l1.5,1.15a17.55,17.55,0,0,1,1.37,1.28,24.75,24.75,0,0,1,2.44,2.79c.74,1,1.35,2,2,3.05l1.66,3.23a1.37,1.37,0,0,1-2.42,1.29l-.06-.12L616,267.83c-.65-.9-1.22-1.85-1.92-2.71a21.76,21.76,0,0,0-2.22-2.4,14.62,14.62,0,0,0-1.21-1.07l-1.3-.94a15.93,15.93,0,0,0-5.83-2.3,15,15,0,0,0-3.12-.22c-.52,0-1,.06-1.54.15a9.62,9.62,0,0,0-1.39.3l1.12-1.07-7.4,20.49-3.7,10.24-1.85,5.12-.46,1.28-.22.61a3.63,3.63,0,0,0-.11.39,3.26,3.26,0,0,0,.08,1.59,3.17,3.17,0,0,0,.83,1.34l.27.29.36.4a5.56,5.56,0,0,1,.64,1,4.61,4.61,0,0,1,.42,2.58,7.11,7.11,0,0,1-1.73,3.6,19.5,19.5,0,0,1-2.18,2.19l-8.44,7-8.43,7a76.18,76.18,0,0,1-9.16,6.4,104.3,104.3,0,0,1-20.27,9.38c-1.77.61-3.54,1.15-5.28,1.68s-3.51,1-5.27,1.56c-3.53,1-7.08,2-10.69,2.76a136.51,136.51,0,0,1-22,3.29,115.39,115.39,0,0,1-22.31-.86,119.47,119.47,0,0,1-42.15-13.86c-3.25-1.81-6.4-3.91-9.37-5.86s-6-3.87-9.13-5.54a48.22,48.22,0,0,0-19.64-6.19,66.56,66.56,0,0,0-20.85,2,116.66,116.66,0,0,0-20.08,7.3c-13.08,6-25.77,13.37-39.67,18.25a1.37,1.37,0,0,1-.94-2.57Z"/><path class="cls-13" d="M582.84,162,620,99.83l9.32-15.51L634,76.55c.75-1.28,1.59-2.6,2.44-3.92s1.78-2.56,2.7-3.82a65.28,65.28,0,0,1,6.24-7,60.13,60.13,0,0,1,7.29-6,59.29,59.29,0,0,1,8.18-4.69,63.64,63.64,0,0,1,8.82-3.31c12.11-3.5,25-3.15,37.09-.24a86.51,86.51,0,0,1,33.33,16.26,70.85,70.85,0,0,1,13.06,13.52,54.11,54.11,0,0,1,8.4,17.08,44.27,44.27,0,0,1,1,19.21,49.09,49.09,0,0,1-2.63,9.29,59.06,59.06,0,0,1-4.27,8.42q-9.09,15.65-18.27,31.25L719,193.84,700.56,225,696,232.79l-2.31,3.89c-.79,1.31-1.49,2.55-2.38,4a28.5,28.5,0,0,1-6.37,7.49A22.42,22.42,0,0,1,676,252.8a21.36,21.36,0,0,1-10.12.11,23.14,23.14,0,0,1-9-4.27,15.41,15.41,0,0,1-1.9-1.57,19.8,19.8,0,0,1-1.77-1.69l-1.62-1.82c-.54-.61-.95-1.12-1.42-1.69a53.61,53.61,0,0,0-6.18-6.09,62.19,62.19,0,0,0-14.84-9.14,95.8,95.8,0,0,0-16.83-5.45c-11.55-2.64-23.57-3.89-35.29-2.54a50.54,50.54,0,0,0-16.8,4.72,30.9,30.9,0,0,0-12.72,11.37,1.37,1.37,0,0,1-2.35-1.41,33.84,33.84,0,0,1,13.66-12.71,53.76,53.76,0,0,1,17.77-5.38,89.91,89.91,0,0,1,18.42-.53,125.18,125.18,0,0,1,18.19,2.61,99.91,99.91,0,0,1,17.63,5.46,66.53,66.53,0,0,1,16,9.57,58,58,0,0,1,6.79,6.51c.5.58,1,1.24,1.51,1.75l1.41,1.54a15.68,15.68,0,0,0,1.52,1.41,11.8,11.8,0,0,0,1.6,1.29,16.94,16.94,0,0,0,22-.6,23.4,23.4,0,0,0,5.19-6.31l9-15.58L713.95,191l18.15-31.32q9.09-15.65,18.26-31.25a53.22,53.22,0,0,0,3.94-7.68,43.11,43.11,0,0,0,2.32-8.08A38.5,38.5,0,0,0,755.87,96a48.33,48.33,0,0,0-7.38-15.29,65.26,65.26,0,0,0-11.92-12.53,81.14,81.14,0,0,0-31.1-15.49c-11.31-2.85-23.33-3.2-34.51-.14a58.85,58.85,0,0,0-8.14,2.94,54.59,54.59,0,0,0-7.56,4.21,55.46,55.46,0,0,0-6.78,5.39,60.91,60.91,0,0,0-5.87,6.42c-.87,1.16-1.76,2.32-2.56,3.54s-1.6,2.43-2.39,3.74l-4.76,7.7-9.52,15.4-38.22,61.49a1.37,1.37,0,0,1-2.33-1.42Z"/><path class="cls-13" d="M617.86,307.61a57.54,57.54,0,0,0,8.83-.75,56.77,56.77,0,0,0,8.56-2,39,39,0,0,0,14.71-8.4,38.44,38.44,0,0,0,5.51-6.29c.38-.59.83-1.14,1.17-1.76l1.07-1.84c.34-.62.62-1.29.94-1.93l.47-1,.39-1a61.1,61.1,0,0,0,3.74-17.27,1.38,1.38,0,0,1,2.74,0,52.37,52.37,0,0,1-1.75,18.89l-.33,1.17-.42,1.15c-.29.76-.54,1.54-.87,2.29a38.47,38.47,0,0,1-2.25,4.4l-.63,1.07-.71,1a21.72,21.72,0,0,1-1.51,2c-.55.63-1.09,1.27-1.65,1.88L654,301a40.78,40.78,0,0,1-17.48,8.6,51.1,51.1,0,0,1-19,.77,1.37,1.37,0,0,1,.19-2.72Z"/><path class="cls-13" d="M135.71,139.93a53.58,53.58,0,0,1-13-10.06,34.15,34.15,0,0,1-5-6.79,28.94,28.94,0,0,1-2.92-8,30,30,0,0,1,1.79-16.75,41.36,41.36,0,0,1,3.82-7.47,55.21,55.21,0,0,1,5-6.67,84.67,84.67,0,0,1,26.32-19.59,100.47,100.47,0,0,1,31.46-9.34,73.63,73.63,0,0,1,16.62-.16c1.39.13,2.78.39,4.17.61s2.77.54,4.13,1a39.49,39.49,0,0,1,8,3.11,30.67,30.67,0,0,1,7.14,5.08A26.4,26.4,0,0,1,228.55,72a29.06,29.06,0,0,1,2.8,8.37,33.29,33.29,0,0,1,.47,4.33c0,.72.09,1.45.08,2.16L231.81,89a42.85,42.85,0,0,1-.41,4.27,16.45,16.45,0,0,1-.36,2.09l-.44,2.06c-.26,1.38-.67,2.71-1,4.06-.2.67-.36,1.35-.58,2l-.69,2a62.55,62.55,0,0,1-7.65,15,60,60,0,0,1-11.46,12.34A74.51,74.51,0,0,1,195,141.7a31.68,31.68,0,0,0-16.35,37.14l.51,1.77.7,1.7c.25.56.42,1.15.72,1.69l.88,1.62c.53,1.06,1.28,2.23,2,3.37l2.09,3.43,33.47,55,4.18,6.88c.7,1.12,1.39,2.35,2.09,3.38l1,1.56c.37.5.77,1,1.15,1.48l.58.74.64.69c.43.45.85.92,1.29,1.37a35.42,35.42,0,0,0,2.85,2.45,30.94,30.94,0,0,0,6.42,3.88,32.42,32.42,0,0,0,14.65,2.91,34.15,34.15,0,0,0,7.44-1.2c1.23-.34,2.49-.78,3.74-1.17l3.69-1.36a71.77,71.77,0,0,0,13.85-7.26,57.89,57.89,0,0,0,20-23.47,73.11,73.11,0,0,0,4.79-15v-.05a1.37,1.37,0,0,1,2.69.55,76,76,0,0,1-4.66,15.73,62.1,62.1,0,0,1-8.62,14.05,60.69,60.69,0,0,1-12.12,11.22,75.61,75.61,0,0,1-14.48,7.88l-3.84,1.48c-1.31.43-2.58.9-3.92,1.29a38.27,38.27,0,0,1-8.39,1.48,36.76,36.76,0,0,1-16.67-3.05,35.47,35.47,0,0,1-7.38-4.31,39.66,39.66,0,0,1-3.29-2.75c-.51-.5-1-1-1.5-1.54l-.74-.78-.68-.83c-.45-.56-.92-1.1-1.35-1.67l-1.22-1.77c-.82-1.19-1.46-2.29-2.19-3.43L214.8,250l-34.17-54.54-2.13-3.41c-.71-1.14-1.42-2.22-2.13-3.55l-1.05-1.91c-.36-.63-.59-1.33-.88-2l-.84-2c-.23-.69-.43-1.39-.64-2.09a37.62,37.62,0,0,1-.94-17.3,38.34,38.34,0,0,1,7-15.88,37.53,37.53,0,0,1,13.36-11.06,68.42,68.42,0,0,0,13-8.16A54.45,54.45,0,0,0,215.85,117a56.72,56.72,0,0,0,7.06-13.53l.65-1.81c.21-.6.37-1.23.55-1.85.35-1.24.75-2.46,1-3.72a40.45,40.45,0,0,0,1.16-7.47l.09-1.87c0-.62,0-1.24-.05-1.86a28,28,0,0,0-.36-3.66,23.66,23.66,0,0,0-2.21-6.85,23.23,23.23,0,0,0-10.1-10,34.3,34.3,0,0,0-6.94-2.77c-1.2-.39-2.46-.61-3.69-.9s-2.51-.46-3.79-.59a71.23,71.23,0,0,0-15.49,0,95.84,95.84,0,0,0-30.08,8.47A80.49,80.49,0,0,0,128.4,86.83,45.78,45.78,0,0,0,120,99.7a26.43,26.43,0,0,0-1.9,14.76,25.66,25.66,0,0,0,2.44,7.11,31,31,0,0,0,4.39,6.25,50.73,50.73,0,0,0,12.15,9.75,1.37,1.37,0,0,1-1.38,2.36Z"/><path class="cls-13" d="M323.9,278.52c9.11-.26,18.22-.43,27.34-.63l27.34-.46,27.34-.32c9.11-.08,18.22-.25,27.34-.26q6.83-.05,13.67,0c4.56,0,9.11.08,13.67.14l27.34.39q27.34.41,54.67,1.13a1.37,1.37,0,0,1,0,2.74q-27.34.75-54.67,1.13l-27.34.39c-4.56.06-9.11.13-13.67.14s-9.11,0-13.67,0c-9.11,0-18.22-.17-27.34-.26l-27.34-.32-27.34-.46c-9.11-.2-18.22-.37-27.34-.63a1.37,1.37,0,0,1,0-2.73Z"/><path d="M309.85,213.74a1.47,1.47,0,0,1-.4-.81l.62,1.05Z"/></svg>