<svg id="Layer_1" data-name="Layer 1" xmlns="http://www.w3.org/2000/svg" viewBox="0 0 960 560"><defs><style>.cls-1{fill:#ffe9e0;}.cls-2{fill:#f66;}.cls-3{fill:#ff8bc2;}.cls-4{fill:#ed68a7;}.cls-5{fill:#e03462;}.cls-6{fill:#cfabff;}.cls-7{fill:#bf8fff;}.cls-8{fill:#ffa682;}.cls-9{fill:#f59770;}.cls-10{fill:#ffcab5;}.cls-11{fill:#ffb091;}.cls-12{fill:#f2d0c2;}.cls-13{fill:#233940;}</style></defs><title>mother, child, baby, family, people</title><path class="cls-1" d="M704.13,445.61s9.79,2.4,11.88,12.56,7.36,4.1,8.51-1.9a64.68,64.68,0,0,1,4.51-13s.29-3.42-12.45-4.33S702.67,440.95,704.13,445.61Z"/><path class="cls-1" d="M596.51,463.62a39.22,39.22,0,0,0-5.9,12.67c-1.75,7.13-6,8-9,5.44s-5.7-6.24-11.4-3.47-12.71-2-11.35-5.41,3.93-7.94,9.78-6.78a74.7,74.7,0,0,1,7.4,1.69s7.32.46,8.47-5.91S597,459,596.51,463.62Z"/><path class="cls-2" d="M636,190.58s22.7-3.45,39.51,11.83l10.84,47.31-42.91,46.94s-41.86-19.38-40.72-15.94,18.73-72.34,17.27-72.57S636,190.58,636,190.58Z"/><path class="cls-3" d="M597.52,77.87a31.88,31.88,0,0,1-9.38,9.25,32,32,0,0,0-6.92.63,89.38,89.38,0,0,0-15.12,5l-.81.32q-8.07,3.2-16,6.84A247.45,247.45,0,0,0,522.84,114q-1.91,1.19-3.79,2.41c-8.22,5.37,17.06,13.88,14.21,23.89-2.62,9.17-20.34,9.49-16.21,17.23,2.68,5-6.19,16.63-5,22.29a25.91,25.91,0,0,1-1.8,15.09c-5,12.3-13.58,23.39-21.55,33.87-7.7,10.12-15.77,20-23,30.47-13.54,19.71-24,41.59-29.73,64.86A169.67,169.67,0,0,0,434.11,396c3.34,17.88,14.34,35.8,32.48,41.51,9.48,3,18.91,1.94,28.28-.8,10.72-3.15,21.39-7.52,32.69-8a26.23,26.23,0,0,1,15.33,3.69,47.55,47.55,0,0,1,11.28,10.4l-3.6,27.49c-4.8,12.93-11.5,25-21.19,34.84-19,19.37-47,30.34-74,31.07s-53.9-5.47-76.45-20.89c-15.62-10.68-31.47-25.59-50.22-23.11-19.11,2.52-30.76,21.86-46.92,32.36-22.44,14.59-54.18,10.3-74.58-7a71.75,71.75,0,0,1-8.55-8.61c-14.47-17.22-21.06-40.85-19.67-63.49,1.64-26.71,13.37-52.05,29.31-73.55q2.8-3.79,5.78-7.44c15.56-19.27,33.83-36.38,47.79-56.83,15.74-23,25.67-52.76,16-78.94-3.78-10.25-10.31-19.26-14.74-29.26-9-20.39-7.36-44.28,2.16-64.37,7.9-16.69,21.22-30.75,38.28-38,50.6-21.46,112.76,14,162.44-9.48,15.15-7.17,27.36-19.18,39.56-30.67S530.75,34,546.53,28.34s35.23-4.14,46.94,7.86C604,47,605.77,65.25,597.52,77.87Z"/><path class="cls-4" d="M542.89,432.41a26.22,26.22,0,0,0-15.33-3.69c-11.3.43-22,4.81-32.69,8-9.38,2.75-18.81,3.78-28.28.8-18.14-5.71-29.14-23.63-32.48-41.51A169.67,169.67,0,0,1,436,324.08c5.74-23.26,16.19-45.14,29.73-64.86,7.2-10.49,15.28-20.35,23-30.47,8-10.48,16.6-21.58,21.55-33.87a25.91,25.91,0,0,0,1.8-15.09c-1.17-5.66,7.7-17.27,5-22.29-4.13-7.74,13.59-8.06,16.21-17.23,2.85-10-22.42-18.52-14.21-23.89q1.88-1.23,3.79-2.41c-16.3,0-24.25.47-40.55.44l-5.9-2.31c-5.63,12.84,3,31.82-2.62,46.72-12.39,32.69-51.23,45.06-77.88,67.69-36.68,31.14-48.11,86.43-31.09,130.73,8.41,22.42,23.62,42.06,33,64.15,3.11,7.33,11.51,21.86,6.76,29.92-9.45,16.05-48.33-6.07-62.59-3.77-13.65,2.2-24.86,11.74-34.61,21.54-17.44,17.53-44,43.55-71.59,34.73-7.82-2.5-13.78-8.91-22.69-7.82-6.84.84-12,6.35-14.38,12.95a71.75,71.75,0,0,0,8.55,8.61c20.4,17.32,52.14,21.61,74.58,7,16.16-10.5,27.81-29.83,46.92-32.36,18.75-2.48,34.6,12.43,50.22,23.11,22.55,15.42,49.37,21.61,76.45,20.89s54.92-11.69,74-31.07c9.69-9.85,16.39-21.92,21.19-34.84l3.6-27.49A47.54,47.54,0,0,0,542.89,432.41Zm-50,76.9a9.58,9.58,0,0,1-3,3c-8.94,6.22-20.81,8.25-31.4,9.64a98.33,98.33,0,0,1-15.57.84c-5.11-.14-10.36-1.82-15.37-1.82a72.67,72.67,0,0,1-25-10.48A69,69,0,0,1,391.17,501a25.68,25.68,0,0,1-6.31-10.11c-1.88-6.24.07-12.73,5.59-16.4,6.77-4.5,16.47-4.5,23.94-2,8.51,2.88,15.29,9.29,22.1,14.88,6.29,5.17,13.21,10.5,21.55,11.44,7.2.81,14.49.28,21.7,1.07,4,.44,16.8,2.72,13.22,9.35Z"/><path class="cls-2" d="M444.38,214.7s49.88,13.53,50.23,74.89-19.8,83.87-6.51,93.7,49.33,23.59,51,17.69,63.64-92.43,63.64-92.43l44.94,9.11,35.46-36.93-75.32-62.34L605,218l-7.56-1-11.34-1.49-14.08-1.85-15.79-2.08-16.46-2.17-16.1-2.12L509,205.38l-12.28-1.62-8.81-1.16c-4.28-.56-8.71-1.3-13-1a42.49,42.49,0,0,0-4.3.66,68,68,0,0,0-15.79,4.67C450.86,208.69,446.89,211.09,444.38,214.7Z"/><path class="cls-5" d="M518.38,285.36c2,18-.77,79,10.67,89.31,0,0,10.18,23.77-13.05,22.63S473.76,384.6,473.1,384.6s2.62-50.69,2.18-51,21.43-53,23.61-53.9a37.17,37.17,0,0,0,1.56,4.54A7.82,7.82,0,0,0,514.18,286l.08-.11C516,283.39,517.85,280.73,518.38,285.36Z"/><path class="cls-6" d="M683.1,345.66S666,366.95,654,388q-1.37,2.37-2.73,4.7c-4,6.91-8.07,13.42-11.64,18.63-4.48,6.53-8.27,11-10.54,11.62-7.63,2.08-11.77,7.85-14.11,15.64a57.92,57.92,0,0,0-1.66,7.52c-1.83,11.52-10.56,16.94-25,16.37s-16.18-19.2-16.18-19.2,8.75-40.51,13.12-74.59,35.44-58,35.44-58Z"/><path class="cls-6" d="M708.74,439.75c-2.32,12.91-18.71,14-29.13,12.91a46,46,0,0,1-23-8.65,38.38,38.38,0,0,1-6.43-6.08c-6.27-7.49-9.41-17-10.58-26.61-.07-.52-.12-1-.17-1.57-.94-9.38-.06-15.29,2-18.74,2.7-4.59,7.42-4.82,12.58-3,10.83,3.77,23.6,16.47,23.64,16.51.77.77.34,3.37-.1,5.81a18.21,18.21,0,0,0-.51,4.23c.61,4,3.94,7.38,7.67,9.13a14,14,0,0,0,3,1c4.5,1,9.37-.25,13.69,1.35a11.06,11.06,0,0,1,4.77,3.51A13,13,0,0,1,708.74,439.75Z"/><path class="cls-7" d="M650.17,437.93c-6.27-7.49-9.41-17-10.58-26.61-4.48,6.53-8.27,11-10.54,11.62-7.63,2.08-11.77,7.85-14.11,15.64a181,181,0,0,1-20.43-7.87c-3.82-1.74-7.7-3.71-10.37-7s-3.84-8.08-1.71-11.7c0,0,44.39-16.6,59-21.05,2.68-.82,4.35-1.22,4.55-1s2.32,1.22,5.3,2.73c6.82,3.43,18.63,9.75,26.27,17.62a18.21,18.21,0,0,0-.51,4.23c.61,4,3.94,7.38,7.67,9.13,0,0-.15,8.44-13.44,14.23C658.89,443.27,650.17,437.93,650.17,437.93Z"/><path class="cls-8" d="M747.13,329a123.89,123.89,0,0,1-3.19,25.64c-17.06,74-101.18,74-141.79,64.19l-1.18-.29c-7.77-2-13.84-4.27-17.37-6.44l-.35-.23a13.58,13.58,0,0,1-1.12-.78c-6.57-5.17-14.89-8.1-22.28-11.86-10.57-5.38-20.48-11.92-28.7-20.54-15.29-16-27.47-39.75-26.3-62.11.47-9,8.86-23.57,12.39-31.84,1.17-2.74,4.18-7.56,9.78-6.52,6.57,1.23,12.64,6.46,14.33,12.64,2,7.21,14.81,33.4,27.39,32.43a47.37,47.37,0,0,0-.24-10.47,41.38,41.38,0,0,0-2.19-9.16,34,34,0,0,0-1.59-3.64c-.15-.28-.3-.57-.46-.85l0-.06c-.26-.47-.54-.94-.83-1.4a26.23,26.23,0,0,0-4.66-5.56,41.53,41.53,0,0,0-6.37-4.32.62.62,0,0,1-.33-.34.6.6,0,0,1,.1-.4c1.83-3.56,5.65-6.31,9.76-6.14,4.57.19,8.64,3.25,11.83,6.26a55.05,55.05,0,0,1,4.51,4.83c.69.82,1.42,1.58,2.16,2.39.43.47.86,1,1.29,1.49.3.36.6.75.9,1.16.65.9-.33,3.93.35,4.92,8.79,12.87,14.25,22.39,18.69,29.38,4.59,7.22,8.11,11.74,13.12,14.44,3,1.61,6.5,2.49,11.1,3a188.36,188.36,0,0,0,21.29,1.26h.37c.34,0,.69.1,1,.1,33.13.13,85.26-8.29,83.64-65.25l-20.72-20.18L669.61,224s5.7-16.36,5.89-21.58A197.21,197.21,0,0,1,724.42,254C737.37,274.22,747.68,299.62,747.13,329Z"/><path class="cls-9" d="M744.71,328.21c-2.18,6.4-6.35,12-12.55,16.82a69.33,69.33,0,0,1-43.3,14.22c-8.28-.11-15.43-2.32-23.31-4.41-2-.53-16.36-5.22-17.34-4.21l.33-.33c33.13.14,85.26-8.33,83.64-65.3l-20.72-20.2a109.22,109.22,0,0,1,16.17-12.86c4.24-2.69,17.85,54.24,18.48,59A37.61,37.61,0,0,1,744.71,328.21Z"/><path class="cls-8" d="M600.38,259.49a65.43,65.43,0,0,1-23,4c-.69,0-1.38,0-2.08,0,0,0-26.84-7-41.53-28.48s-48-35.63-58.46-33.52c.88-.25,29.07-8.28,29.21-37.21,0-7.39-1.31-14.89-4.84-21.45-4.59-8.5-13.9-11.87-19.8-19.05-2.77-3.38-4.24-8.38-2-12.14,1.72-2.89,5.14-4.3,8.43-5,8.68-1.94,15-4.58,21.77-10.46,9-7.88,17.45-14,29.26-16.88a92,92,0,0,1,37.46-1.36c4.85.86,9.77,2.22,13.69,5.22,7.45,5.72,11.07,16.51,12.89,25.37A87.8,87.8,0,0,1,603,126.26c0,10.38-1.55,23-5.73,38.07a35.5,35.5,0,0,0,2.24,7c3.82,8.94,9.62,18.92,36.43,19.26C636,190.59,640.36,244.14,600.38,259.49Z"/><path class="cls-4" d="M332.54,273c-6.09-29.36-25.73-53.23-36.76-80.62a107.7,107.7,0,0,1-6.21-20.83c-1.27-7-1.05-14.11-2.26-21.09-.93-5.34-3-10.76-7.55-14l.78.05c.84.07.84-1.25,0-1.31-1.1-.09-2.19-.15-3.29-.18a13.52,13.52,0,0,0-10.5-.76,8.58,8.58,0,0,0-1.42.71c-9.51,20.09-11.2,44-2.16,64.37,4.43,10,11,19,14.74,29.26,9.66,26.19-.27,55.9-16,78.94-14,20.45-32.24,37.57-47.79,56.83,7.61-4.6,15.4-8.56,22.24-11.87,12-5.79,24.91-7.39,38-8.74,12.46-1.28,25.49-2.65,36.5-9.12C331.86,322.38,337.17,295.31,332.54,273ZM267.36,135.54a10.85,10.85,0,0,1,5.51-.44C271,135.17,269.19,135.32,267.36,135.54Z"/><path class="cls-9" d="M615.79,249.5A69.83,69.83,0,0,1,603,258.15c-.85.45-1.74.9-2.65,1.33h0a56.22,56.22,0,0,1-5.64,2.3,39.79,39.79,0,0,1-12.88,2.32h0a41.44,41.44,0,0,1-4.44-.58c-11.55-2.1-22.35-8.78-31.3-16.72-3.81-3.38-7.42-6.76-11-10.4a64.91,64.91,0,0,1,9.45-10.14c10.76-8.8,3.19-30.54,3.19-30.54-1.18-7.58-12.22-5.83-14.57-17.75-1.48-7.53,5.11-4,9.22-2.2,7.94,3.46,16.48,6.45,25.23,4.3a13.2,13.2,0,0,0,5.58-2.63c3.12-2.68,3.83-7.9-1.54-7.77a17.14,17.14,0,0,0-4.88,1.22,23,23,0,0,1-7.82,1.37,12.2,12.2,0,0,1-7.42-2.52c-3.4-2.76-2.6-5.61,1.54-6.4,9-1.71,16.57-.75,24.8-5.51a38.1,38.1,0,0,0,10-17.8c1.24-4.79,2.24-10.21,6.73-13.13,3.19-2.08,6-2,8.42-.65,0,10.38-1.55,23-5.73,38.07a35.5,35.5,0,0,0,2.24,7c.71,3.32,1.42,6.62,2.11,9.93C606.37,204.09,611.08,226.68,615.79,249.5Z"/><path class="cls-10" d="M603.26,167.51s-4.37,10.55-19.56,9.05c0,0-.27-23,7.25-29.81,11-10.05,16.53-8.76,13.34,5S603.26,167.51,603.26,167.51Z"/><path class="cls-3" d="M732.26,287.78q0,.59-.05,1.18c-.54,11.76-2.21,23.27-8.77,34-6.13,10.08-15.14,17.8-26.34,21.52a71.49,71.49,0,0,1-25.61,3.08c-65.33-2.84-51.35-72.25-51.35-72.25S621,247.08,603.55,233s-19.84-55.74-19.84-55.74,8.56-7.62,20.46-7.62c0,0,23.52,65.29,65.32,55.75,0,0-20.83,20.72-6.1,39.63a40,40,0,0,0,2.76,3.2c9.66,10.14,21.44,11.72,32.37,10.62,7.47-.75,14.64-2.87,21.94-4.5a26,26,0,0,1,7.53-1c2.63.21,3.85,1.75,4.09,4.26A77.53,77.53,0,0,1,732.26,287.78Z"/><path class="cls-4" d="M732.17,279.07a12.57,12.57,0,0,1,.08,2.85q.12,3.05.06,6.11c-.08,3.74.12,8.42-1.07,12-1.21-.59-2.31-2.26-3.43-3.16a18.68,18.68,0,0,0-3.93-2.45,17.62,17.62,0,0,0-9.17-1.4c-5.28.57-10,3.16-14.08,6.5-6.19,10-16.74,18.46-28.31,19.46s-22.09-5.65-29.85-13.67a25.63,25.63,0,0,1-2.87-3.45,3.28,3.28,0,0,1-.59-1.27,2.3,2.3,0,0,1,1-2.05c2-1.54,4.52-.72,6,1.12a28.82,28.82,0,0,0,2.82,2.92,31.25,31.25,0,0,0,6.68,4.6,33,33,0,0,0,15.69,3.67h.32a25.91,25.91,0,0,0,14.65-4.69c4.17-3.12,7.16-8.92,5-14.08a2.94,2.94,0,0,1-.22-1.47c-5.49-8.42-16.44-10.34-23-17.65a20.83,20.83,0,0,1-1.78-2.31,7.77,7.77,0,0,1-.88-1.63c-.07-.22-.34-.89,0-1a.64.64,0,0,1,.5.07l.32.14c5.95,2.59,11.85,5.48,18,7.56a56.85,56.85,0,0,0,14.38,3.06c1,.07,2.06.11,3.09.1,6.2,0,11.95-1.65,18-2.5a19.9,19.9,0,0,1,6.42,0,13.14,13.14,0,0,1,3.13,1c.52.24,1,.69,1.56.88.69.25.93,0,1.33.56A.79.79,0,0,1,732.17,279.07Z"/><path class="cls-8" d="M642.19,300.68s-12.61,2.51-34.77,24.48c-28.73,28.49-25.71,73.49-25.71,73.49s3,11.37-3.69,29.82c-3.25,9-8.78,19.57-18,31.37-28.33,36.09-62.49,35-84.74,24.71-32-14.84-58-55.82-65.81-89-7.22-30.67-7.74-62.7-2.7-93.76,4.4-27.13,11.7-57.48,28.61-79.72a51.62,51.62,0,0,1,6.28-6.4c2.64-2.29,5.46-.69,8.5,1,6.64,3.75,19.6,9,24.24,14.45,14.63,17.22,23.66,30.73,26.1,53,1.23,11.21,3.25,21.31,1.15,32.39-2.27,11.92-8.14,33.63-7.42,45.89.48,8.14,2.16,17.74,8.76,23.29,14.45,12.13,21.23-.15,24.38-9.79a55.79,55.79,0,0,0,2.07-8.48c3.85-22.84,11.89-38.64,21-49.55a71.83,71.83,0,0,1,15.94-14.28,67.77,67.77,0,0,1,15.44-7.52,48.64,48.64,0,0,1,10.84-2.48c10.48-2.48,20.08,9.25,20.08,9.25s23.62-15,30.09-10.56S642.19,300.68,642.19,300.68Z"/><path class="cls-9" d="M601.36,108.53c-5.95-4.84-13.44-10.18-20.42-8.41-11.91,3-26.06-1.79-36.58-8.68a25.12,25.12,0,0,1-9.81-11.59q1.43-.4,3-.75l.76-.17.35-.07.77-.16.3-.06.9-.17,1.07-.19c.75-.13,1.52-.24,2.31-.35,33.42-4.59,44.36,4.37,46.77,7.32,0,0,4,3.78,7.45,12.48-.22.13,0,.66.55,1.47A65.86,65.86,0,0,1,601.36,108.53Z"/><path class="cls-9" d="M572.48,147.49a15.74,15.74,0,0,1-2.39,2.15,15.1,15.1,0,0,1-3.92,2.07c-.91.32-4.32.34-4.82.85l-.12.09a2.66,2.66,0,0,1-3.31-.41l-.2,0a.59.59,0,0,1-.4-.88,2.45,2.45,0,0,1-.09-.25c-.68-2.38,1.36-4.73,3.41-5.13,9.29-1.82,12.15-5.77,13.77-14.17a.6.6,0,0,1,.39-.43c.38-.13.68.32.81.7a15.37,15.37,0,0,1-3.13,15.45Z"/><path class="cls-10" d="M724.61,241.24c.19,32-6.13,35.27-6.13,35.27s-.69.23-1.93.57a86,86,0,0,1-11.61,2.38c-10.26-.33-25.64-2-35.55-8.76h0a44,44,0,0,1-5-5.3c-4.61-5.8-9.37-15-4.88-25,7.56-16.84,28.72-31.89,38-35.45C707.06,201.34,724.41,209.22,724.61,241.24Z"/><path class="cls-9" d="M606.6,394.67c.93,9.62,1.21,22.15-5.63,23.9-7.77-2-13.84-4.26-17.37-6.44l-.35-.22a15.48,15.48,0,0,1-.09-2.91s-2-51.4,18.46-77.58c-1.2,1.53,6.59,11.55,8.3,12.66-6.09,12.84-5.35,27.19-4.36,41C605.69,387.06,606.2,390.61,606.6,394.67Z"/><path class="cls-9" d="M553,314.34l-.9,2.31c-9.09,10.91-17.13,26.71-21,49.55,0,0-1.81,4.16-3.33,8.79C517,364.23,509.4,341.92,509,341.17c.38.54,9.6,15.1,16-5.5C531.57,314.68,553,314.34,553,314.34Z"/><path class="cls-6" d="M782.22,283.77c-.29,7.87.57,19.78-8.33,22.6l-.1,0a11.88,11.88,0,0,1-2,.41l-.1,0-.37.05a6.1,6.1,0,0,1-.62.07,10.31,10.31,0,0,1-5.43-1.09,11.2,11.2,0,0,1-5.24-5.87c-3.34-8-14.31-20.09-44.49-20.66,0,0,7.85-19.78,7.94-39,.07-16.28-5.43-32.17-26-35.33,0,0,19.13-8.94,40.78-2.56,17.49,5.15,31.63,19,39,42.64a114.94,114.94,0,0,1,4,18.48A117.87,117.87,0,0,1,782.22,283.77Z"/><path class="cls-7" d="M782.22,283.77c-.29,7.87.57,19.78-8.33,22.6l-.1,0a21,21,0,0,1-2.06.43l-.37.05a6.1,6.1,0,0,1-.62.07,10.31,10.31,0,0,1-5.43-1.09,11.2,11.2,0,0,1-5.24-5.87c-3.34-8-14.31-20.09-44.49-20.66,0,0,7.85-19.78,7.94-39l.83-1.72c.56-1.07,13.46,5.46,14.69,6.16a68.57,68.57,0,0,1,13.14,9.77c9.16,8.7,14.13,20.68,19.45,31.88.36.76.85,1.61,1.68,1.73,1.09.15,1.85-1.07,2.15-2.13,1.53-5.34-.49-11-2.05-16.3a99,99,0,0,1-2.75-11.92c-.45-2.79-1.37-6-.58-8.79s4.24-5.63,7.22-3.93a114.94,114.94,0,0,1,4,18.48A117.87,117.87,0,0,1,782.22,283.77Z"/><path class="cls-10" d="M639.79,291.55s6.64,1.1,6.11-2c-1.47-8.62-18.3-15.19-27.44-3.92-7.45,9.18,3,28,3,28s6.12-7.3,18.59-11.9C640.08,301.76,634.68,290.86,639.79,291.55Z"/><path class="cls-11" d="M698.93,213c-.88-2.35-4.68-1.33-3.79,1a10.93,10.93,0,0,1-.13,8.29c-1,2.34,2.85,3.36,3.79,1A14.22,14.22,0,0,0,698.93,213Z"/><path class="cls-11" d="M674.36,248.31c-1.84-.94-2.31-3.45-2.55-5.33a16.29,16.29,0,0,1,.68-6.9c.74-2.42-3.05-3.46-3.79-1-1.53,5-1.82,13.85,3.68,16.66C674.62,252.85,676.61,249.46,674.36,248.31Z"/><path class="cls-12" d="M685,235.22l-1.66-.41a2,2,0,0,0-1,3.79l1.66.41a2,2,0,0,0,1-3.79Z"/><path class="cls-9" d="M536.9,118.93a23.81,23.81,0,0,1-17.6-3.07c-3.61-2.21-6.9,3.46-3.31,5.66a30.63,30.63,0,0,0,22.65,3.73C542.76,124.35,541,118,536.9,118.93Z"/><path class="cls-11" d="M720.61,267.73l-4.06,9.35-1,2.25s-4.36.32-10.64.13c-10.26-.33-25.64-2-35.55-8.76h0a23.7,23.7,0,0,1-6-5.69s.35.15,1,.39c3.56,1.34,16.12,5.55,29.78,3.9,16.17-1.95,12.51-18.43,12.51-18.43s1.64-4.45,6.53-1.13,12.4-26.39-3-40.24C710.73,209.73,732,219.92,720.61,267.73Z"/><path class="cls-9" d="M578.17,426.5c0,.66-.09,1.31-.15,2-3.25,9-8.78,19.57-18,31.37-28.33,36.09-62.49,35-84.74,24.71C450,472.85,402.55,419,404.42,359.26q.33-10.57.94-20.15a203.55,203.55,0,0,0,6.08,32.42c6.1,22,16.84,43,33.13,58.91S483,456.9,505.8,456.77s45.79-11.74,57.32-31.4c1.37-2.35,2.63-4.84,4.68-6.62s5.2-2.65,7.52-1.24C578.15,419.23,578.38,423.19,578.17,426.5Z"/><path class="cls-9" d="M592.35,110.11c-1.41-.82-3.75-.44-4.48,1.18a9.11,9.11,0,0,1-6.78,5.43,3.28,3.28,0,0,0,1.74,6.32,15.16,15.16,0,0,0,10.7-8.44A3.38,3.38,0,0,0,592.35,110.11Z"/><path class="cls-4" d="M601.2,56.74c-2.91-5.72-8.87-9.31-15-11.24a44.13,44.13,0,0,0-35.11,4c-9.86,5.79-17.12,15.8-20.31,26.71a5.38,5.38,0,0,0-.19,3.41,5.48,5.48,0,0,0,1.68,2c7,6,14.78,10.74,24,12.36a46,46,0,0,0,33.22-7.09c4.9-3.3,9.21-7.67,11.62-13.05S603.87,62,601.2,56.74Z"/><path class="cls-9" d="M581.75,296.17a67.77,67.77,0,0,0-15.44,7.52,34,34,0,0,0-1.59-3.64c-.15-.28-.3-.57-.46-.85l0-.06a1.47,1.47,0,0,1-.61-.56,27.82,27.82,0,0,0-4.91-6.06c-1.79-1.65-3.89-2.66-5.79-4.1a3.73,3.73,0,0,1-.36-.32,3,3,0,0,1-.59-.81,14.31,14.31,0,0,1,2.74-3.55,1,1,0,0,1,.27.11,1.4,1.4,0,0,1,.08,2.45,2.32,2.32,0,0,1,.88.43l.69.43c.58.37,1.14.77,1.69,1.17a31.49,31.49,0,0,1,2.81,2.35,30.27,30.27,0,0,1,4.64,5.71,23.37,23.37,0,0,1,10.9-2.71H577a7.1,7.1,0,0,1,3.43.77,3.07,3.07,0,0,1,1.24,1.37.62.62,0,0,1,.05.12A.94.94,0,0,1,581.75,296.17Z"/><path class="cls-8" d="M603,258.15c-.85.45-1.74.9-2.65,1.33h0a56.22,56.22,0,0,1-5.64,2.3,81.09,81.09,0,0,1-7.63-21.58c-1.16-5.73,7.73-8.12,8.71-2.2A64.37,64.37,0,0,0,603,258.15Z"/><path class="cls-13" d="M569.37,114.43c.44,3.5,2.93,6.25,5.45,9.46a30.16,30.16,0,0,1,3.61,5.49,17.3,17.3,0,0,1,1.69,7,16.77,16.77,0,0,1-18.39,16.79,1.38,1.38,0,0,1,0-2.74h0a14.78,14.78,0,0,0,9.14-4.9,14.24,14.24,0,0,0,3.13-9.12,12.79,12.79,0,0,0-.75-4.79,29.46,29.46,0,0,0-2.51-4.92,47,47,0,0,1-3-5.57,13.35,13.35,0,0,1-1.14-6.73,1.37,1.37,0,0,1,2.73,0Z"/><path class="cls-13" d="M519.23,115.5a30.45,30.45,0,0,0,4.86,2.72,26.63,26.63,0,0,0,5.06,1.63c1.69.4,3.34,1,5.13,1.32a30,30,0,0,0,5.56.41h0a1.41,1.41,0,0,1,.71,2.64,16.81,16.81,0,0,1-6.39,2,16.22,16.22,0,0,1-6.78-.5,20.57,20.57,0,0,1-5.94-3.31,16.73,16.73,0,0,1-4.32-5.08,1.4,1.4,0,0,1,2-1.82Z"/><path class="cls-13" d="M277.78,229.14c-4-10.7-11.27-20.06-15.86-31.14a74.65,74.65,0,0,1-5.17-35.15,87.15,87.15,0,0,1,10.44-34.05A80.8,80.8,0,0,1,290.85,102a70,70,0,0,1,16-8.48,93.17,93.17,0,0,1,17.34-4.72c11.82-2,23.78-2,35.52-1.21S383,89.86,394.6,91.08s23.08,2.17,34.5,1.81A107.35,107.35,0,0,0,446,91.1a84.41,84.41,0,0,0,16.19-4.66c10.4-4.19,19.68-10.93,28.35-18.48s16.9-15.89,26-23.52,19.07-14.53,30.57-18.51A57.08,57.08,0,0,1,565,22.87c1.52-.06,3,.08,4.57.14.76.07,1.52.17,2.28.25l1.14.13,1.13.21A44.25,44.25,0,0,1,583,26a41.28,41.28,0,0,1,8.15,4.38,37.6,37.6,0,0,1,6.8,6.35,36.9,36.9,0,0,1,4.8,8,39.71,39.71,0,0,1,2.56,8.87,37,37,0,0,1-1.63,18.2c-.28.72-.51,1.46-.84,2.15l-1,2.09c-.35.69-.78,1.34-1.17,2A20.14,20.14,0,0,1,599.41,80a33.09,33.09,0,0,1-6.42,6.6,37.24,37.24,0,0,1-16.61,7.25,34.22,34.22,0,0,1-18-1.68,1.37,1.37,0,0,1,1-2.57,31.31,31.31,0,0,0,16.47,1.2,34,34,0,0,0,15-6.9,28.94,28.94,0,0,0,9.32-13.33,33.11,33.11,0,0,0,1.23-16.3A35.69,35.69,0,0,0,599,46.39a32.77,32.77,0,0,0-4.31-6.92,33.39,33.39,0,0,0-6-5.48,36.89,36.89,0,0,0-7.28-3.78,39.73,39.73,0,0,0-8-2.09l-1-.17-1-.1-2.07-.2c-1.39,0-2.78-.15-4.17-.07a52.25,52.25,0,0,0-16.36,3c-10.59,3.82-20,10.5-28.7,18s-16.81,15.9-25.66,23.74a144,144,0,0,1-14,11.09,86.64,86.64,0,0,1-7.69,4.74c-1.31.75-2.68,1.4-4,2.09L464.5,92a99.11,99.11,0,0,1-35.21,6.89c-11.92.35-23.7-.7-35.33-2s-23.16-2.9-34.68-3.76-23-.94-34.28.85-22.1,5.61-31.35,12a76.13,76.13,0,0,0-22.59,25,83,83,0,0,0-10.35,32.25A71.28,71.28,0,0,0,265,196.74c4.13,10.61,11.24,20.19,15.3,31.46a1.37,1.37,0,0,1-2.56.95Z"/><path class="cls-13" d="M549.42,163.49a55.69,55.69,0,0,0,6.8,1,44.69,44.69,0,0,0,6.65,0c2.18-.13,4.4,0,6.63-.25a52.59,52.59,0,0,0,6.77-1.13h0a1.4,1.4,0,0,1,1.14,2.49,25.47,25.47,0,0,1-6.83,3.54,23.21,23.21,0,0,1-7.65,1.45,30,30,0,0,1-7.68-1.27,25,25,0,0,1-6.94-3.29,1.39,1.39,0,0,1,1.07-2.51Z"/><path class="cls-13" d="M554.32,290.23a5.44,5.44,0,0,1-1.53-3.57,6.83,6.83,0,0,1,.94-3.62,7,7,0,0,1,1.19-1.5,4.67,4.67,0,0,1,1.93-1.11,17.64,17.64,0,0,1,3.19-.57,23.43,23.43,0,0,1,6.33.35,19.87,19.87,0,0,1,6.06,2.26,41.43,41.43,0,0,1,9.38,8,91,91,0,0,1,7.46,9.46,162.59,162.59,0,0,1,12.36,20.42c3.76,7.15,5.55,15.35,10.16,19.89a12.86,12.86,0,0,0,4,2.62,29.44,29.44,0,0,0,5.05,1.64c1.83.45,3.75.81,5.61,1.26s3.77.76,5.66,1.1A151.41,151.41,0,0,0,655,349.18c15.34.32,30.86-2.21,44.8-8.84h0a1.37,1.37,0,0,1,1.26,2.44,86.59,86.59,0,0,1-22.31,8.54A108.91,108.91,0,0,1,655,354.18a147.8,147.8,0,0,1-23.86-1.57c-2-.29-3.94-.63-5.9-1s-3.89-.77-5.87-1.22a35.34,35.34,0,0,1-6.12-1.94,18.92,18.92,0,0,1-5.73-3.9,24.71,24.71,0,0,1-4-5.39,50,50,0,0,1-2.59-5.68L598.89,328q-1-2.65-2.25-5.25a166.15,166.15,0,0,0-11.42-20.08,86.49,86.49,0,0,0-6.72-9.25,37.59,37.59,0,0,0-8.09-7.55,16.58,16.58,0,0,0-4.8-2.07,19.91,19.91,0,0,0-5.34-.58,14.31,14.31,0,0,0-2.61.32,2.47,2.47,0,0,0-1.27,1.08,3.9,3.9,0,0,0-.67,2,2.57,2.57,0,0,0,.61,1.75l0,0a1.37,1.37,0,0,1-2,1.84Z"/><path class="cls-13" d="M599.37,293.27a70.16,70.16,0,0,0-37.13,16.35,74.79,74.79,0,0,0-13.75,15.11,66.66,66.66,0,0,0-5.12,8.82,71.53,71.53,0,0,0-3.84,9.45A97.13,97.13,0,0,0,535.3,363a73.8,73.8,0,0,1-1.76,10.77,31.16,31.16,0,0,1-4.69,10.48,21.18,21.18,0,0,1-9.49,7.36,17.36,17.36,0,0,1-6.16,1.19,14.88,14.88,0,0,1-6.36-1.41,16.77,16.77,0,0,1-5.07-3.8,25,25,0,0,1-3.48-4.84,43.18,43.18,0,0,1-4-10.58,57.07,57.07,0,0,1-1.49-11,85.1,85.1,0,0,1,.37-10.93A139.27,139.27,0,0,1,497,329.11a169.41,169.41,0,0,1,6.85-20.31,187.56,187.56,0,0,1,9.3-19.23c.89-1.54,1.74-3.1,2.66-4.62s1.76-3,2.86-4.63a13.36,13.36,0,0,1,4.58-4.37,8.76,8.76,0,0,1,3.4-1,9.91,9.91,0,0,1,3.37.35,13.18,13.18,0,0,1,5.42,3.11,27.65,27.65,0,0,1,3.73,4.31c1.06,1.5,2,2.87,3,4.46s1.86,3.15,2.68,4.75c1.64,3.2,3,6.44,4.56,9.54a67.48,67.48,0,0,0,5.12,8.87,35,35,0,0,0,6.74,7.43,23.76,23.76,0,0,0,4.16,2.64,20.43,20.43,0,0,0,4.63,1.54h.06a1.37,1.37,0,0,1-.51,2.69,23.24,23.24,0,0,1-5.4-1.59,26.76,26.76,0,0,1-4.82-2.84,38.25,38.25,0,0,1-7.65-7.87,64.78,64.78,0,0,1-5.66-9.21c-1.64-3.17-3.11-6.35-4.74-9.37-.82-1.51-1.67-3-2.6-4.37s-2-2.83-3-4.17c-2-2.67-4.28-5-6.89-5.61a4.62,4.62,0,0,0-3.47.35,9,9,0,0,0-2.84,3c-.86,1.31-1.71,2.9-2.57,4.4s-1.66,3-2.49,4.57a195,195,0,0,0-8.63,18.89,163.84,163.84,0,0,0-6.28,19.72,148.57,148.57,0,0,0-3.46,20.3,64,64,0,0,0,1,20,37.24,37.24,0,0,0,3.39,9.08c1.5,2.75,3.47,5.13,5.85,6.28a10.06,10.06,0,0,0,8,.16,15.59,15.59,0,0,0,7-5.29,25.73,25.73,0,0,0,4-8.6,68.77,68.77,0,0,0,1.76-10,98.37,98.37,0,0,1,4.8-21,76.3,76.3,0,0,1,4.3-10,71.22,71.22,0,0,1,5.66-9.27,79,79,0,0,1,14.87-15.65,73.31,73.31,0,0,1,39.41-16,1.37,1.37,0,0,1,.26,2.72Z"/><path class="cls-13" d="M396.14,225.47A75.73,75.73,0,0,1,407.82,217a51.72,51.72,0,0,1,13.55-5.31,46.81,46.81,0,0,1,14.59-1,59.6,59.6,0,0,1,14.22,3.16,87.14,87.14,0,0,1,13.22,5.89c1.09.53,2.1,1.21,3.13,1.84s2.08,1.26,3.07,1.94l2.94,2.15c.48.37,1,.7,1.46,1.09l1.39,1.18c.92.8,1.86,1.56,2.76,2.39l2.59,2.58a34.28,34.28,0,0,1,2.46,2.69c.78.93,1.62,1.82,2.35,2.79,1.44,2,3,3.87,4.2,6s2.49,4.17,3.66,6.3a86.75,86.75,0,0,1,5.53,13.43c.81,2.29,1.35,4.64,2,7,.3,1.17.52,2.35.79,3.53s.53,2.35.71,3.54l.6,3.56c.21,1.19.31,2.38.47,3.58.32,2.4.53,4.75.77,7.1l1.32,14.06c.48,4.66,1,9.29,1.73,13.88s1.64,9.11,2.79,13.55a77.51,77.51,0,0,0,11.09,24.71A141.84,141.84,0,0,0,561,396.56a158.61,158.61,0,0,0,51.09,21.18,149.79,149.79,0,0,0,27.58,3.48,139.39,139.39,0,0,0,27.75-2c9.3-1.51,18.54-3.08,27.58-5.38s17.86-5.44,25.77-10.24a1.37,1.37,0,0,1,1.45,2.33c-8.12,5.2-17.17,8.65-26.33,11.24s-18.53,4.29-27.8,6a143.7,143.7,0,0,1-28.52,2.51,154.49,154.49,0,0,1-28.51-3.1,161.1,161.1,0,0,1-53.16-21.15,147.53,147.53,0,0,1-22.85-17.53,141.76,141.76,0,0,1-10-10.39c-1.53-1.86-3.12-3.68-4.55-5.62-.73-1-1.48-1.9-2.18-2.89l-2.08-3a75.25,75.25,0,0,1-7.12-12.85,94.56,94.56,0,0,1-4.64-13.83c-1.17-4.7-2.07-9.43-2.76-14.17s-1.19-9.47-1.62-14.2l-1.18-14.11c-.2-2.34-.39-4.68-.67-7-.14-1.14-.23-2.3-.42-3.44l-.54-3.42c-.16-1.14-.41-2.27-.64-3.39s-.44-2.26-.71-3.38c-.59-2.22-1.08-4.47-1.83-6.64a86.5,86.5,0,0,0-5-12.75c-1.06-2-2.09-4.06-3.34-6s-2.53-3.79-3.85-5.65c-.67-.92-1.44-1.76-2.16-2.65a31.05,31.05,0,0,0-2.26-2.56L475,233.65c-.82-.79-1.7-1.52-2.55-2.28l-1.28-1.13c-.43-.38-.9-.7-1.35-1l-2.73-2.07c-.93-.66-1.91-1.25-2.87-1.88s-1.9-1.27-2.93-1.79a83.15,83.15,0,0,0-12.49-5.81,57,57,0,0,0-13.25-3.26,43.27,43.27,0,0,0-13.52.61,48.5,48.5,0,0,0-12.79,4.69,72.88,72.88,0,0,0-11.37,7.84l0,0a1.37,1.37,0,0,1-1.75-2.1Z"/><path class="cls-13" d="M490.75,112.81c-.77-2.35-2.61-4.34-4.7-4.68a5.14,5.14,0,0,0-3.12.44,6.56,6.56,0,0,0-2.48,2.13,6.38,6.38,0,0,0-1.13,3.06,8.24,8.24,0,0,0,.31,3.38,17.26,17.26,0,0,0,4,6.36,63.53,63.53,0,0,0,6,5.62c2.16,1.81,4.43,3.56,6.68,5.52a38.81,38.81,0,0,1,3.35,3.22c.58.62,1,1.23,1.5,1.85a20.46,20.46,0,0,1,1.37,1.89,38.55,38.55,0,0,1,2.39,4l1,2.14c.31.72.55,1.47.82,2.2a34.37,34.37,0,0,1,1.8,9.19,35.75,35.75,0,0,1-.62,9.27,44.16,44.16,0,0,1-7.1,16.78,44.75,44.75,0,0,1-29.52,19,1.37,1.37,0,0,1-.54-2.69,42.9,42.9,0,0,0,25.88-19,40.08,40.08,0,0,0,5.58-15A34.62,34.62,0,0,0,501,151.9a30.45,30.45,0,0,0-3.34-7.08,16,16,0,0,0-1.11-1.63c-.39-.52-.77-1.1-1.17-1.54a33.41,33.41,0,0,0-2.78-2.83c-4.08-3.78-8.76-7.4-12.69-12.11a21.7,21.7,0,0,1-4.56-8.44,12.58,12.58,0,0,1-.17-5.16,10.53,10.53,0,0,1,2.12-4.82,10.17,10.17,0,0,1,4.22-3.13,8.68,8.68,0,0,1,5.32-.34,8.54,8.54,0,0,1,4.39,2.83,10.85,10.85,0,0,1,2.18,4.44,1.37,1.37,0,0,1-2.63.75Z"/><path class="cls-13" d="M582.84,117.25c.77-.59,1.43-1.12,2-1.65s1.12-1.08,1.62-1.6a12.67,12.67,0,0,1,1.95-1.14c.69-.41,1.39-.89,2.19-1.46l.14-.1a1.51,1.51,0,0,1,2.38,1.18,7.72,7.72,0,0,1-.79,3.51,6.9,6.9,0,0,1-2.21,2.89,9.83,9.83,0,0,1-3.41,1.27,7.63,7.63,0,0,1-3.57-.18,1.49,1.49,0,0,1-.46-2.61Z"/><path class="cls-13" d="M532.09,173.71a34.7,34.7,0,0,0,12.18,9.14,30.74,30.74,0,0,0,14.83,2.77c5-.33,9.81-2.41,14.45-4.84l7-3.79c2.36-1.24,4.75-2.48,7.18-3.65a61.59,61.59,0,0,1,15.5-5.37,30,30,0,0,1,16.68,1.68,32.56,32.56,0,0,1,13.43,10A30.56,30.56,0,0,1,637.7,187l.78,2,.58,2.06a19,19,0,0,1,.46,2.07c.14.69.27,1.38.34,2.07a42.09,42.09,0,0,1,.33,8.35,53.45,53.45,0,0,1-1.07,8.22,80.66,80.66,0,0,1-5,15.59,78.14,78.14,0,0,1-18.4,26.95,49.8,49.8,0,0,1-13.87,9.19,39.78,39.78,0,0,1-16.45,3.44A47,47,0,0,1,569,263.61a59.2,59.2,0,0,1-7.52-3.51,74.82,74.82,0,0,1-7-4.34,106.67,106.67,0,0,1-12.6-10.39c-3.93-3.71-7.66-7.55-11.4-11.34s-7.47-7.51-11.39-11a81.89,81.89,0,0,0-12.42-9.25,61.62,61.62,0,0,0-14-6.16,57,57,0,0,0-15-2.43,47.68,47.68,0,0,0-14.91,2.09,45.28,45.28,0,0,0-13.26,7.06,63.07,63.07,0,0,0-5.89,4.91,65.78,65.78,0,0,0-5.3,5.54,57.66,57.66,0,0,0-4.53,6.1c-.65,1.07-1.31,2.14-1.85,3.25-.29.53-.57,1.12-.85,1.73l-.83,1.79a249.81,249.81,0,0,0-11.56,29.4,261.73,261.73,0,0,0-7.86,30.6A242.81,242.81,0,0,0,406.68,329c-1.34,21,.08,42.21,5.16,62.56s13.88,39.74,26.87,56.1a129.3,129.3,0,0,0,22.18,21.95,76.83,76.83,0,0,0,12.91,8.53,75.12,75.12,0,0,0,14.29,5.71,62,62,0,0,0,30.34,1.22l1.87-.42.94-.21.92-.28,3.67-1.13a74.29,74.29,0,0,0,7.08-3A72,72,0,0,0,546,471.84a92.17,92.17,0,0,0,11.37-10.59,112.8,112.8,0,0,0,9.56-12.34,116.33,116.33,0,0,0,7.65-13.63l1.51-3.54c.51-1.18.84-2.43,1.28-3.65l.61-1.83.49-1.88c.31-1.26.67-2.5.95-3.78a147.82,147.82,0,0,0,2.36-15.54c.5-5.26.89-10.55,1.27-15.88.82-10.63,1.7-21.49,5-32l.29-1,.37-1,.74-1.93.75-1.93.84-1.86q1.7-3.7,3.69-7.26a105.59,105.59,0,0,1,9-13.55,103.3,103.3,0,0,1,23.71-22.09q3.37-2.27,6.92-4.26c1.18-.67,2.38-1.3,3.58-1.92,1.44-.69,2.65-1.06,3.9-1.53a28.08,28.08,0,0,0,3.45-1.49,6.45,6.45,0,0,0,1.27-.88l.18-.2a.81.81,0,0,1,.1-.15,4.4,4.4,0,0,0,.24-.65,1.55,1.55,0,0,0,0-1,1.85,1.85,0,0,0-.66-.82,6.06,6.06,0,0,0-2.95-1c-.28,0-.56,0-.84,0l-1,0c-.64,0-1.28.06-1.92.13s-1.28.13-1.91.22-1.27.19-1.9.31a42.28,42.28,0,0,0-20.52,10.14,1.37,1.37,0,0,1-1.86-2,44.73,44.73,0,0,1,13.9-8.74,45.27,45.27,0,0,1,7.91-2.34c.68-.14,1.35-.27,2-.35s1.37-.2,2.05-.26,1.37-.13,2.06-.16l1-.05c.39,0,.77,0,1.16,0a9,9,0,0,1,4.55,1.52,5,5,0,0,1,1.77,2.26,4.71,4.71,0,0,1,.11,2.9,7.46,7.46,0,0,1-.43,1.23,7.86,7.86,0,0,1-.42.7c-.15.2-.32.37-.48.55a9.39,9.39,0,0,1-2,1.43A30.94,30.94,0,0,1,643,302c-1.24.48-2.57.94-3.53,1.42-1.16.62-2.31,1.24-3.44,1.9q-3.4,2-6.64,4.2a101,101,0,0,0-31.27,34.66q-1.9,3.43-3.5,7l-.79,1.79-.68,1.81-.68,1.81-.34.9-.27.93c-3.07,9.9-3.88,20.49-4.61,31.08-.34,5.31-.69,10.65-1.16,16a152.06,152.06,0,0,1-2.32,16.07c-.28,1.33-.65,2.66-1,4l-.51,2-.64,2c-.45,1.3-.8,2.63-1.33,3.9l-1.6,3.82a120.88,120.88,0,0,1-7.88,14.29,117.54,117.54,0,0,1-9.9,13A97,97,0,0,1,549,475.75a77,77,0,0,1-13.9,8.85,79.28,79.28,0,0,1-7.61,3.29l-4,1.25-1,.31-1,.24-2,.47A63.28,63.28,0,0,1,503,491.67a71.75,71.75,0,0,1-16.36-2.61,80.57,80.57,0,0,1-15.38-6,82.34,82.34,0,0,1-13.78-9,135,135,0,0,1-23.28-22.78,142.23,142.23,0,0,1-17.27-27.61A161.27,161.27,0,0,1,406,393c-5.25-21.05-6.69-42.88-5.32-64.4a258.86,258.86,0,0,1,24.38-93.33l.86-1.83c.28-.61.57-1.22.92-1.85.65-1.28,1.39-2.48,2.13-3.68a63.19,63.19,0,0,1,5-6.69,71.28,71.28,0,0,1,5.78-6,68.59,68.59,0,0,1,6.41-5.28,50.61,50.61,0,0,1,14.89-7.78A53,53,0,0,1,477.73,200a62.18,62.18,0,0,1,16.42,2.74,66.73,66.73,0,0,1,15.14,6.74,86.89,86.89,0,0,1,13.13,9.89c4.05,3.62,7.84,7.45,11.57,11.28,7.45,7.63,14.69,15.36,23.19,21.29a70.12,70.12,0,0,0,6.55,4.12,54.6,54.6,0,0,0,6.94,3.29,42.45,42.45,0,0,0,14.76,3.09,35.27,35.27,0,0,0,14.63-3,45.41,45.41,0,0,0,12.7-8.33,73.91,73.91,0,0,0,17.51-25.39,76.59,76.59,0,0,0,4.86-14.76,49.41,49.41,0,0,0,1-7.61,38.1,38.1,0,0,0-.25-7.6c-.06-.63-.18-1.25-.3-1.87a16,16,0,0,0-.4-1.83l-.49-1.79-.66-1.74a26.68,26.68,0,0,0-3.72-6.44,28.8,28.8,0,0,0-11.79-9,25.79,25.79,0,0,0-7.22-1.86c-.31,0-.62-.09-.93-.11l-.93,0c-.62,0-1.25-.07-1.86,0l-1.86.14c-.62,0-1.26.17-1.88.25a58.24,58.24,0,0,0-14.67,4.94c-2.38,1.11-4.74,2.31-7.1,3.52L575,183.63a60.94,60.94,0,0,1-7.51,3.31,30.45,30.45,0,0,1-8.21,1.72,33.71,33.71,0,0,1-16.25-3.18,37.5,37.5,0,0,1-13.08-10,1.37,1.37,0,0,1,2.09-1.76Z"/><path class="cls-13" d="M706.19,248.46a8.77,8.77,0,0,1,4.06,1.09,8.35,8.35,0,0,1,3.37,3.41,7.73,7.73,0,0,1,.5,4.44,12,12,0,0,1-1.14,3.79,1.49,1.49,0,0,1-2.72-.12l0,0c-.44-1.16-.77-2.26-1.13-3.23s-.88-1.71-1.06-2.36a6,6,0,0,0-.89-2.07,20.58,20.58,0,0,0-2-2.38l-.07-.07a1.46,1.46,0,0,1,1.1-2.45Z"/><path class="cls-13" d="M700,212a7.4,7.4,0,0,1,2.43,2.8,9.56,9.56,0,0,1,1,3.64,6.94,6.94,0,0,1-1.12,3.62,7.48,7.48,0,0,1-2.57,2.7,1.49,1.49,0,0,1-2.26-1.38v-.2a20.93,20.93,0,0,0,0-2.62,15,15,0,0,1-.18-2.23,19,19,0,0,0,.31-2.24,22.63,22.63,0,0,0,0-2.61v-.19A1.48,1.48,0,0,1,700,212Z"/><path class="cls-13" d="M687.13,236.65a15.75,15.75,0,0,1-2.85.26,24.86,24.86,0,0,1-2.75-.12l2.33-.35c.15,0,.24,0,.16-.06a.84.84,0,0,0-.4-.07c-.34,0-.41.75.06,1.34l.55.69a1.29,1.29,0,0,1-.21,1.81,1.32,1.32,0,0,1-.47.24,4,4,0,0,1-2.83-.36,4.61,4.61,0,0,1-2.15-2.38,5.22,5.22,0,0,1-.16-3.47,4.65,4.65,0,0,1,2.3-2.7l.59-.31a2,2,0,0,1,1.74,0,24.79,24.79,0,0,1,2.44,1.27,15.75,15.75,0,0,1,2.34,1.65,1.52,1.52,0,0,1-.71,2.64Z"/><path class="cls-13" d="M671.36,235.79a19.69,19.69,0,0,0-.41,3.87,17.39,17.39,0,0,0,.37,3.57c.2,1.13.11,2.34.36,3.56a19.24,19.24,0,0,0,1.09,3.74l0,.1a1.43,1.43,0,0,1-2,1.78,10.8,10.8,0,0,1-3.69-3.63,10.6,10.6,0,0,1-1.81-5,13.68,13.68,0,0,1,.9-5.2,10.73,10.73,0,0,1,2.89-4.27,1.43,1.43,0,0,1,2.33,1.35Z"/><path class="cls-13" d="M671.25,225.28a33.56,33.56,0,0,1-15.47,2.09,38.86,38.86,0,0,1-3.9-.59c-1.27-.33-2.56-.6-3.79-1a41.14,41.14,0,0,1-7.19-3.11,50.84,50.84,0,0,1-6.54-4.25,63.64,63.64,0,0,1-5.82-5.14,97.46,97.46,0,0,1-10-11.69,103,103,0,0,1-14.24-27.21,45.91,45.91,0,0,1-2.37-15.62,23.49,23.49,0,0,1,.44-4.18c.32-1.4.71-2.6,1.06-3.8s.67-2.32.88-3.42a8.75,8.75,0,0,0,.18-2.92,1.82,1.82,0,0,0-.83-1.43,2.27,2.27,0,0,0-1.7-.13,9.27,9.27,0,0,0-1.35.48,14,14,0,0,0-1.42.72A19.41,19.41,0,0,0,596.5,146a20.17,20.17,0,0,0-2.37,2.35l-1,1.34c-.16.23-.35.44-.5.68l-.43.73a29.25,29.25,0,0,0-2.85,6.3A54.72,54.72,0,0,0,587,171.53a92.64,92.64,0,0,0,.51,14.63,78,78,0,0,0,2.85,14.27,85.65,85.65,0,0,0,5.4,13.53,97,97,0,0,0,7.54,12.52c1.41,2,2.89,3.93,4.44,5.83s3.21,3.84,4.81,5.89a50.48,50.48,0,0,1,4.48,6.65,37.82,37.82,0,0,1,3.09,7.57,83.65,83.65,0,0,1,2.63,15.44c.88,10.31.28,20.39.94,30.19.17,2.43.38,4.91.76,7.25a43.82,43.82,0,0,0,1.62,6.9,44.85,44.85,0,0,0,2.69,6.55,48.07,48.07,0,0,0,3.72,6,49.56,49.56,0,0,0,22.65,16.89,55.39,55.39,0,0,0,28.47,2.75,64.47,64.47,0,0,0,26.84-10.86A50.24,50.24,0,0,0,728.13,311a52.72,52.72,0,0,0,3.45-14.16,51.24,51.24,0,0,0-.69-14.58v0a1.37,1.37,0,0,1,2.69-.56,54.16,54.16,0,0,1,1.09,15.42,56,56,0,0,1-3.32,15.13,53.41,53.41,0,0,1-18.58,24.55,68.67,68.67,0,0,1-28.42,12,60.11,60.11,0,0,1-30.94-2.5A54.3,54.3,0,0,1,628.11,328a53.49,53.49,0,0,1-4.26-6.74,50.39,50.39,0,0,1-3.12-7.34,49.46,49.46,0,0,1-1.92-7.74c-.46-2.63-.7-5.16-.91-7.74-.8-10.27-.35-20.34-1.21-30.09a78,78,0,0,0-2.47-14.24,32.07,32.07,0,0,0-2.56-6.38,44.55,44.55,0,0,0-3.92-5.85c-1.48-1.92-3.09-3.82-4.71-5.81s-3.18-4.07-4.67-6.19a101.64,101.64,0,0,1-7.88-13.37A91.41,91.41,0,0,1,584.86,202a83.8,83.8,0,0,1-2.9-15.3,98.08,98.08,0,0,1-.38-15.49,59.93,59.93,0,0,1,2.77-15.5,34.43,34.43,0,0,1,3.43-7.37l.54-.88c.19-.29.41-.56.62-.84.42-.55.84-1.11,1.28-1.66a25.27,25.27,0,0,1,3-2.92,24.46,24.46,0,0,1,3.46-2.4,16.29,16.29,0,0,1,4.17-1.7,8,8,0,0,1,2.72-.15,6.44,6.44,0,0,1,2.84,1c.39.3.78.62,1.14,1a13.67,13.67,0,0,1,.91,1.22,12.77,12.77,0,0,1,.58,1.34c.11.44.23.89.3,1.32a13.34,13.34,0,0,1-.28,4.57c-.29,1.37-.67,2.65-1.05,3.87s-.78,2.4-1,3.45a19.42,19.42,0,0,0-.38,3.31A41.37,41.37,0,0,0,608.54,173a98.85,98.85,0,0,0,13.25,26.24,96.63,96.63,0,0,0,9.36,11.42,60,60,0,0,0,5.38,5,47.41,47.41,0,0,0,6,4.09,37.84,37.84,0,0,0,6.57,3c1.12.44,2.3.7,3.45,1a35.69,35.69,0,0,0,3.54.61,30.65,30.65,0,0,0,14.17-1.62h0a1.37,1.37,0,0,1,.94,2.57Z"/><path class="cls-13" d="M679.94,418.35a8.67,8.67,0,0,0,5.27,3.14,17.68,17.68,0,0,0,3.3.44,33.21,33.21,0,0,0,3.5,0,49.78,49.78,0,0,1,7.86,0,17.8,17.8,0,0,1,4.31,1,14.2,14.2,0,0,1,4,2.3,15.13,15.13,0,0,1,5,7.49,14.75,14.75,0,0,1-.08,9,14.9,14.9,0,0,1-12.77,10.15,1.38,1.38,0,0,1-.46-2.7h.05a12.12,12.12,0,0,0,5.49-3.36,11.76,11.76,0,0,0,2.88-5.43,9.88,9.88,0,0,0-.6-5.74,12.7,12.7,0,0,0-3.39-4.68,9.73,9.73,0,0,0-2.35-1.55,12,12,0,0,0-2.91-.9,54.37,54.37,0,0,0-7.08-.62,37.46,37.46,0,0,1-4-.41,21.54,21.54,0,0,1-4-1.1,13.75,13.75,0,0,1-3.72-2.15,9.62,9.62,0,0,1-2.71-3.46,1.37,1.37,0,0,1,2.35-1.38Z"/><path class="cls-13" d="M633.3,424.47a16.87,16.87,0,0,0-8.17,1.48l-.86.45c-.27.17-.52.38-.78.56l-.39.28-.34.33c-.22.23-.47.42-.68.66a12.2,12.2,0,0,0-2.07,3.24c-2.23,4.82-1.56,11-3.12,17.67a20.45,20.45,0,0,1-5,9.31,22.51,22.51,0,0,1-8.68,5.7,23.45,23.45,0,0,1-10,1.46,19.41,19.41,0,0,1-9.48-3.21,1.38,1.38,0,0,1,1.35-2.39h0a19.23,19.23,0,0,0,16.19-.47,18.1,18.1,0,0,0,6.28-4.94,18.43,18.43,0,0,0,3.41-7,84.83,84.83,0,0,0,1.66-8.75,28.93,28.93,0,0,1,3-9.62,16.86,16.86,0,0,1,3.32-4.23c.33-.31.72-.57,1.07-.85l.55-.41.59-.34c.4-.22.78-.46,1.19-.65l1.25-.5a6.41,6.41,0,0,1,1.27-.38l1.28-.3c.85-.1,1.71-.21,2.55-.25s1.68,0,2.5.07l2.43.34a1.37,1.37,0,0,1-.21,2.72Z"/><path class="cls-13" d="M711.36,436.55c3.64.2,7.26.48,10.88.81l2.71.26,1.35.13c.45.05.88.09,1.45.17a7.83,7.83,0,0,1,1.93.54,5.46,5.46,0,0,1,2.08,1.58,5.59,5.59,0,0,1,1.12,2.38,7.64,7.64,0,0,1,.12,2.17,13.57,13.57,0,0,1-.78,3.38c-.33.94-.62,1.73-1,2.59-.64,1.69-1.33,3.37-2.07,5-1.5,3.3-3.08,6.57-4.66,9.84l-.11.24a2.25,2.25,0,0,1-2.74,1.16,8.74,8.74,0,0,1-3.4-2.11,9.86,9.86,0,0,1-2.09-3.16,8.66,8.66,0,0,1,.11-7.19,1.38,1.38,0,0,1,2.56,1l0,.06a5.9,5.9,0,0,0,.82,4.46,5.2,5.2,0,0,0,3.31,2.4l-2.86,1.4c1.15-3.45,2.29-6.89,3.51-10.31.62-1.71,1.29-3.39,2-5.05l1.08-2.44a8.41,8.41,0,0,0,.62-1.85,3,3,0,0,0,.05-.54c0-.1,0-.09,0-.09s.08,0,0-.09a2.26,2.26,0,0,0-.67-.26l-5.22-1.16c-3.54-.81-7.07-1.66-10.59-2.6a1.37,1.37,0,0,1,.43-2.7Z"/><path class="cls-13" d="M601.18,463.7a10.61,10.61,0,0,0-3.19,3,18,18,0,0,0-2.06,4.08c-1.16,3-1.83,6.22-3.17,9.65a13.07,13.07,0,0,1-1.35,2.72,6.77,6.77,0,0,1-1.36,1.49,5.88,5.88,0,0,1-2,1,6.93,6.93,0,0,1-4.07-.19,10.17,10.17,0,0,1-3-1.63,26.56,26.56,0,0,0-3.58-2.78,5.42,5.42,0,0,0-3.14-.27c-.67.09-1.4.26-2.18.44s-1.62.38-2.58.56a13.52,13.52,0,0,1-6.37-.15,8.06,8.06,0,0,1-3.31-1.9,7.76,7.76,0,0,1-2-3.3,9.24,9.24,0,0,1,.63-6.86,9.82,9.82,0,0,1,4.81-4.44,13.27,13.27,0,0,1,5.87-1.1c3.92.15,7.23,1.65,10.3,3a1.38,1.38,0,0,1-.94,2.58c-3.23-.92-6.4-1.8-9.28-1.57a9.74,9.74,0,0,0-3.91,1.15,5,5,0,0,0-2.31,2.48,4.15,4.15,0,0,0,0,3,2.16,2.16,0,0,0,.68.89,2.66,2.66,0,0,0,1.09.48,9.57,9.57,0,0,0,3.66-.21c.69-.14,1.48-.36,2.35-.57a26.86,26.86,0,0,1,2.79-.5,13.41,13.41,0,0,1,3.26,0,9.55,9.55,0,0,1,3.45,1.15,26.93,26.93,0,0,1,4.28,3.56,5.42,5.42,0,0,0,1.35.88,2,2,0,0,0,.9.21c.13,0,.26,0,.59-.4a10.47,10.47,0,0,0,1-1.74c1.39-2.74,2.41-6,4-9.26a20.74,20.74,0,0,1,3.06-4.61,12.62,12.62,0,0,1,4.63-3.31,1.37,1.37,0,0,1,1.22,2.44Z"/><path class="cls-13" d="M673.09,273.86a23,23,0,0,1-8.44-5.9,27.57,27.57,0,0,1-5.29-8.79,29.28,29.28,0,0,1-1.9-10.1,31.35,31.35,0,0,1,1.6-10.16,44.52,44.52,0,0,1,10.76-17.12,81.13,81.13,0,0,1,7.5-6.56c2.51-2,5.07-4.13,7.83-6.05a44,44,0,0,1,9-5,24.41,24.41,0,0,1,10.64-1.76,17.93,17.93,0,0,1,5.48,1.27,19.48,19.48,0,0,1,4.85,2.75,26.75,26.75,0,0,1,6.93,8.21,55.26,55.26,0,0,1,6,19.48,74.78,74.78,0,0,1,.14,20.18,76.62,76.62,0,0,1-5.54,19.38,99.52,99.52,0,0,1-9.6,17.51,100.68,100.68,0,0,1-12.74,15.36,54.26,54.26,0,0,1-16.68,11.52,39.7,39.7,0,0,1-9.92,2.85c-.86.1-1.72.23-2.6.26a23.74,23.74,0,0,1-2.65.06,25.69,25.69,0,0,1-5.26-.71,30.17,30.17,0,0,1-9.54-4.18,47.71,47.71,0,0,1-7.75-6.54,36.36,36.36,0,0,1-6.26-8.09,17.5,17.5,0,0,1-1.82-5.09,12.72,12.72,0,0,1-.2-2.79,19,19,0,0,1,.31-2.59c.43-2.82-.07-6.08-2.1-6.49l-.4-.1-.45,0a2.53,2.53,0,0,0-.82,0,2.85,2.85,0,0,0-1.41.77,11.23,11.23,0,0,0-2.22,3.64v0A1.37,1.37,0,0,1,628,288a13.72,13.72,0,0,1,2.71-4.66,5.83,5.83,0,0,1,2.75-1.61,5.47,5.47,0,0,1,1.59-.17l.76,0,.79.15a5.68,5.68,0,0,1,2.85,1.68,7.07,7.07,0,0,1,1.48,2.73,14.08,14.08,0,0,1,.41,5.48,15.86,15.86,0,0,0-.2,2.24,9.85,9.85,0,0,0,.22,2,13.85,13.85,0,0,0,1.55,4,32.71,32.71,0,0,0,5.79,7.07A43.69,43.69,0,0,0,656,312.8a25.84,25.84,0,0,0,8.25,3.38,21.17,21.17,0,0,0,4.36.48,19.29,19.29,0,0,0,2.21-.11c.75,0,1.49-.18,2.23-.28a34.88,34.88,0,0,0,8.63-2.73,50.2,50.2,0,0,0,14.86-10.81A95.11,95.11,0,0,0,708.27,288c6.84-10.54,12.06-22.33,13.95-34.53a62.06,62.06,0,0,0,.61-9.24,78.32,78.32,0,0,0-.56-9.33,49.78,49.78,0,0,0-5.07-17.53,21.33,21.33,0,0,0-5.39-6.64,14.13,14.13,0,0,0-3.54-2.08,12.6,12.6,0,0,0-3.93-1,19.28,19.28,0,0,0-8.39,1.29,41.61,41.61,0,0,0-8,4.29c-2.6,1.72-5.12,3.68-7.68,5.66a76.87,76.87,0,0,0-7.27,6,40.33,40.33,0,0,0-10.12,15.25,28.21,28.21,0,0,0-1.7,8.9,25.76,25.76,0,0,0,1.39,9,24.37,24.37,0,0,0,4.41,7.91,20.1,20.1,0,0,0,7.18,5.38h0a1.37,1.37,0,0,1-1,2.52Z"/><path class="cls-13" d="M205.94,379.26a131.75,131.75,0,0,0-18.85,38.41,114.38,114.38,0,0,0-4.18,20.92c-.23,1.76-.27,3.54-.41,5.31s-.09,3.55-.14,5.32l.12,5.34c.12,1.77.18,3.55.35,5.32a98.82,98.82,0,0,0,4,20.78l.38,1.26.45,1.24.9,2.47c.64,1.63,1.37,3.23,2.07,4.83a71.77,71.77,0,0,0,37.07,35.27,68.29,68.29,0,0,0,20.06,5.14,58.26,58.26,0,0,0,20.5-1.67c1.64-.51,3.28-1,4.91-1.6,1.57-.7,3.18-1.33,4.74-2.07s3.08-1.62,4.51-2.49l1-.67c.34-.24.68-.5,1-.75.69-.49,1.36-1,2-1.59,5.35-4.47,10.3-9.79,15.53-14.9a88.3,88.3,0,0,1,8.37-7.43,39.71,39.71,0,0,1,10.11-5.53,34.8,34.8,0,0,1,11.38-2,41,41,0,0,1,11.3,1.58,59.6,59.6,0,0,1,10.47,4,92.33,92.33,0,0,1,9.63,5.49c6.18,4,12,8.48,17.66,13a1.37,1.37,0,0,1-1.66,2.18c-5.84-4.29-11.69-8.53-17.82-12.22s-12.53-6.92-19.29-8.61a36.88,36.88,0,0,0-10.21-1.2,30.44,30.44,0,0,0-9.91,2,35.14,35.14,0,0,0-8.8,5.08,84.06,84.06,0,0,0-7.73,7.19c-5,5.13-9.84,10.62-15.55,15.54-.73.61-1.44,1.23-2.22,1.8-.39.29-.76.59-1.16.87l-1.23.83c-1.64,1-3.31,1.9-5,2.85s-3.46,1.58-5.19,2.37c-1.79.64-3.59,1.27-5.4,1.86a61.75,61.75,0,0,1-22.61,2.14,70.24,70.24,0,0,1-21.92-5.6,76.19,76.19,0,0,1-19.17-11.86,77,77,0,0,1-15-16.84,78.41,78.41,0,0,1-5.45-9.87c-.73-1.73-1.49-3.45-2.14-5.2l-.93-2.65-.46-1.33-.39-1.35a100.2,100.2,0,0,1-3.85-21.95c-.14-1.85-.16-3.7-.25-5.54v-5.54c.09-1.85.12-3.71.27-5.55s.27-3.7.54-5.53a118.6,118.6,0,0,1,4.79-21.61,134.44,134.44,0,0,1,20.45-38.84,1.37,1.37,0,0,1,2.21,1.61Z"/></svg>