<svg id="Layer_1" data-name="Layer 1" xmlns="http://www.w3.org/2000/svg" viewBox="0 0 960 560"><defs><style>.cls-1{fill:#e65a47;}.cls-2{fill:#d44c3b;}.cls-3{fill:#454dc7;}.cls-4{fill:#363db3;}.cls-5{fill:#ff8e7c;}.cls-6{fill:#e67263;}.cls-7{fill:#402b22;}.cls-8{fill:#e6432e;}.cls-9{fill:#233940;}</style></defs><title>people, person, man, avatar</title><path class="cls-1" d="M598.6,389.79,487.94,450.46l-173.33-22-.38,0s-1.26-1.67-3.36-4.79a.33.33,0,0,1-.08-.11,278,278,0,0,1-19.45-34.2C275.12,355.57,258.27,304,270.7,250.38a162.07,162.07,0,0,1,19.5-47.66,178.13,178.13,0,0,1,12-17.38l94,64.84,64.89,44.76,126.1,87Z"/><path class="cls-2" d="M534.76,404.31,508,408.8c-29.24-39-58.75-41.67-153.42-86.34-55.51-26.19-76.24-53.76-83.9-72.08a162.07,162.07,0,0,1,19.5-47.66l106,47.46,49.74,22.27,15.15,22.49Z"/><path class="cls-3" d="M721.82,323.65s-.68,34.81-37.63,95.11c0,0-37.38,55.55-88.15,79.13a171.33,171.33,0,0,0-7.56-16c-19.43-40.52-48-73.79-81.29-105.91q-3.45-3.33-7-6.57l-2.13-1.91-1.65-1.47-1.52-1.33c-1-.88-2-1.74-3-2.59A314.91,314.91,0,0,0,426.33,319c-14.19-7-27.6-15.36-41.43-22.95C361,283,336.41,273.39,314.35,256.83a311.79,311.79,0,0,1-57.16-56.47A316.53,316.53,0,0,1,232,163.62c-3.92-6.73-7.55-13.63-10.85-20.69-2.83-6.05-4.44-13.22-7.73-18.92a.07.07,0,0,0,0,0c-1-1.8-3.66-5.56-6.35-10.6l0,0a79.69,79.69,0,0,1-3.67-7.83c-4.52-11.3-6.86-25.88,2.62-39.29a51.52,51.52,0,0,1,15-13.66c.46-.21.94-.41,1.45-.59,3.06-1,10.51-2.39,18.33,4.34a36.07,36.07,0,0,1,7,8.36c4.28,6.85,8.31,17,11.39,31.91a17.77,17.77,0,0,0,.38,1.89c23.26,76,125.74,98.15,125.74,98.15s72,5.88,118.5-6.64c40.45-10.89,82.1,15.33,110.48,41.73,10.32,9.6,19.17,20.78,30.85,28.87,15.72,10.89,36.53,14.09,54.19,5.88,45.57-21.17,51.87-1.45,51.87-1.45C764.22,280.16,767,300,721.82,323.65Z"/><path class="cls-4" d="M502.74,371.81s30.32,5.24,57.71-11.19a37.24,37.24,0,0,0,11.95-52.11c-10-15.45-21.53-37.52-25.55-61.46,0,0,2.68,14.81,15.89,31.51,22.38,28.28,67.38,21.67,80.32-12q1.1-2.85,2-6l9.15,5.2s-13,103.37-119.47,138.52C534.76,404.3,516.21,383.16,502.74,371.81Z"/><path class="cls-1" d="M724.15,257.33a14.71,14.71,0,0,0-1.66-.26c-5.07-.54-12.59,1-16.6,4.48-35.66,31-73.29-11.44-97.88-35.51-30.06-29.43-62.56-41.26-102-36.36-.37-.38-.77-.26-1.15.14a13.07,13.07,0,0,0-2,3.89c-1.56,4.3-4.94,8.35-8.81,11.87-28.92,26.3-82.57,15-108.83-9l-.69-.64-.21-.22c-13.8-16.42-21.8-37.94-20.35-59.58,1.69-25.29,14.9-48.88,33-66.65,42.39-41.71,96-37.24,153.8-16.35a145.79,145.79,0,0,1,15.07,6.42l0,0C668.5,104.47,716,180.22,724.15,257.33Z"/><path class="cls-4" d="M237.71,104.68c3.92,3.79-23.3,10.75-23-8.24-3.36,7.71-4.67,22-4.67,22-17.41-25.38-8.66-39.4-2.67-37s16.33-7.09,16.33-7.09L216.88,91c1,1.55,3.2,2.74,7.88,2.63,12.79-.32,10.58-8.37,15.16-7.58S233.13,100.26,237.71,104.68Z"/><path class="cls-2" d="M653.83,265c-17.33-9.64-33.26-26.67-45.8-39,.89.51,27.36,15.28,34.57-11.59C649.94,187.13,623.94,94,556.94,55.58c3,1.24,6,2.59,8.89,4l0,0C638.52,95.43,669,185.36,653.83,265Z"/><path class="cls-5" d="M423.53,126.44s-14.31-2.59-13.62,10.38c.67,12.64,9,26.39,16.34,36.34,13,17.67,33.64,28,55.59,22,2.33-.64,16.77-3.9,18.47-4.63,12-5.15.3-26-5-40,0,0,8-7.8-1.32-17.08s-17.36-36.25-20-33.92S423.53,126.44,423.53,126.44Z"/><path class="cls-6" d="M721.82,323.65c-3.5,33.93-29.4,81.66-29.4,81.66,0-54.05-58.44-81.69-59.35-82.11,28.47,9.34,60.4,10.77,87.49-.74C721.38,323.21,721.82,323.65,721.82,323.65Z"/><path class="cls-7" d="M409.89,136.15c-1,3.75-8.44-8.24-9.12-12.06-2.43-13.6,13.46-27.28,33.51-30.13,28.1-4,25.36-37,57.21-12.5,25.43,19.56,4.53,44.62-30.42,33a5.66,5.66,0,0,0-3.32-.11c-3.8,1.07-12.08,5-12.51,19.34a5.72,5.72,0,0,1-2.91,4.81h0a5.72,5.72,0,0,1-8-2.65C431.52,129.66,414.77,117,409.89,136.15Z"/><path class="cls-8" d="M716.27,354.46c-17.06,56.14-55,104.77-103.43,134.25h0c-46.55,23-88.33,31.55-125.15,30.71-46.71-1-85.45-17.12-115.85-37.73a260.49,260.49,0,0,1-57.22-53.26c-1.31-1.64-2.56-3.26-3.74-4.84a.33.33,0,0,1-.08-.11,278,278,0,0,1-19.45-34.2c-3.42-15.07,5.45-24.29,16.35-29.88a48.7,48.7,0,0,1,46.17,1.34c41.66,23.67,156.87,84.3,232.14,16.56,16.36-14.72,34.58-27.52,47.07-54.11C712.74,153.64,578.15,65.72,575.48,64c44.09,17.37,79.93,47.25,105.93,83.69l.13.19a260.9,260.9,0,0,1,29.22,53.28A238.48,238.48,0,0,1,716.27,354.46Z"/><path class="cls-9" d="M239.55,56.92h0l0-.1a7.23,7.23,0,0,0-3.13-3.6,10.93,10.93,0,0,0-4.87-1.31,22.13,22.13,0,0,0-10.43,2.28A32.72,32.72,0,0,0,206,69.64a43.34,43.34,0,0,0-3.52,21.65c.63,7.41,2.23,15,6.16,21l.1.17a1.61,1.61,0,0,0-.33-.45l.26.32a24.17,24.17,0,0,0,8.07,7.84,28.33,28.33,0,0,0,10.82,3.53,45.27,45.27,0,0,0,11.7-.12,38.06,38.06,0,0,0,11.19-2.9c3.33-1.58,6.17-4.14,7.34-7.34s.93-7.1.23-11c-.35-1.93-.79-4-1.2-6l-1.25-6a116.8,116.8,0,0,0-3.05-11.64c-.62-1.89-1.31-3.74-2.09-5.54a27.31,27.31,0,0,0-2.67-5c-2.13-3-4.94-4.77-8.05-4.18A13.06,13.06,0,0,0,235,66.17a28.23,28.23,0,0,0-4.32,3.62A61.76,61.76,0,0,0,223.4,79a63,63,0,0,0-5.51,10.41c-.76,1.83-1.37,3.62-2,5.59s-1.22,3.84-1.73,5.75A34.75,34.75,0,0,0,212.7,112a19.64,19.64,0,0,0,.39,2.65c.1.43.23.85.35,1.27l.46,1.42,2,5.75-.61-1A2.76,2.76,0,0,1,216,124l-.15-.87c7.94,22.34,20.15,43,34.08,62.24a366.53,366.53,0,0,0,47.43,53.17A289.78,289.78,0,0,0,325,261c4.8,3.49,9.79,6.67,14.82,9.77s10.26,5.87,15.57,8.42c1.32.65,2.67,1.23,4,1.85l4.07,1.83,8.25,3.68c2.74,1.24,5.52,2.41,8.23,3.72l8.15,3.9c2.71,1.31,5.45,2.57,8.14,3.93l8,4.14c2.67,1.39,5.36,2.74,8,4.16l7.9,4.39a495.74,495.74,0,0,1,60.54,39.48A402.9,402.9,0,0,1,534.1,399a352.57,352.57,0,0,1,43,58.08l4.49,7.85,2.24,3.93,2,4,4.07,8.09q1.94,4.09,3.73,8.25a264.55,264.55,0,0,1,12,34.1,1.37,1.37,0,0,1-2.64.75,261.54,261.54,0,0,0-12.33-33.56q-1.83-4.08-3.79-8.1l-4.12-7.93-2.06-4-2.27-3.86L573.91,459a348.6,348.6,0,0,0-43-57,398.26,398.26,0,0,0-53.18-47.71,503.43,503.43,0,0,0-60.22-38.59l-7.85-4.3c-2.64-1.38-5.32-2.71-8-4.07l-8-4c-2.67-1.33-5.39-2.56-8.09-3.84l-8.1-3.81c-2.7-1.28-5.46-2.42-8.19-3.63l-8.21-3.59L357,286.53c-1.39-.63-2.81-1.22-4.17-1.9C347.3,282,342,279,336.73,275.94s-10.3-6.46-15.21-10A295.81,295.81,0,0,1,293.34,243a351,351,0,0,1-25.4-25.9q-12-13.62-22.6-28.36a308,308,0,0,1-19.43-30.66A214.71,214.71,0,0,1,211,124.89l-.15-.87a2.53,2.53,0,0,0,.74,1.8l-.61-1L209,119l-.48-1.5c-.15-.56-.32-1.12-.45-1.69a24.77,24.77,0,0,1-.48-3.42,39.62,39.62,0,0,1,1.7-12.95c.56-2,1.2-4,1.85-6s1.34-4,2.17-5.94a67.88,67.88,0,0,1,6-11.2,66.34,66.34,0,0,1,8-9.92,32.92,32.92,0,0,1,5.1-4.2,17.66,17.66,0,0,1,6.51-2.73,11.28,11.28,0,0,1,7.45,1.29l.83.47c.26.17.5.34.74.53A13.22,13.22,0,0,1,249.33,63a18.36,18.36,0,0,1,2.24,2.66,31.73,31.73,0,0,1,3.09,5.83c.83,2,1.56,3.94,2.2,5.95A121.17,121.17,0,0,1,260,89.51l1.23,6c.39,2,.81,4,1.17,6.07a38.37,38.37,0,0,1,.63,6.47,23.73,23.73,0,0,1-.26,3.39,18.5,18.5,0,0,1-.9,3.39,16,16,0,0,1-3.92,5.81,21,21,0,0,1-5.62,3.8,42,42,0,0,1-12.47,3.19,49.32,49.32,0,0,1-12.76,0,32.31,32.31,0,0,1-12.31-4.13,27.94,27.94,0,0,1-9.27-9.19l.26.32a2.24,2.24,0,0,1-.39-.53l.1.17a39.26,39.26,0,0,1-4.66-11.12A65.2,65.2,0,0,1,199,91.52a46.71,46.71,0,0,1,4.11-23.31,35.87,35.87,0,0,1,16.71-16.74,26.52,26.52,0,0,1,5.78-1.94,22.49,22.49,0,0,1,6.12-.49,13.73,13.73,0,0,1,6.12,1.77,10,10,0,0,1,4.24,5l0-.1c.05.12.11.24.15.36a.73.73,0,0,1-.73,1Z"/><path class="cls-9" d="M708.05,287.83a12.36,12.36,0,0,1,2.67-4.57,27.72,27.72,0,0,1,3.68-3.38,20.26,20.26,0,0,1,4.35-2.64,14,14,0,0,1,2.52-.82l1.36-.2a10.28,10.28,0,0,1,1.38,0,11.17,11.17,0,0,1,5.19,1.6,19.08,19.08,0,0,1,4,3.25,81.71,81.71,0,0,1,6,7.6,36.7,36.7,0,0,0,2.78,3.58,5.11,5.11,0,0,0,1.28,1.08c.06,0,.06,0,0,0a.77.77,0,0,0-.43.09c-.29.2-.17.19-.11,0a4,4,0,0,0,.18-.8l.12-1.09c.11-.72.08-1.47.13-2.2a29.27,29.27,0,0,0-.32-4.44,35.71,35.71,0,0,0-7-16.32,24.4,24.4,0,0,0-6.4-5.92,20.32,20.32,0,0,0-8-3,17.52,17.52,0,0,0-8.32.82,36.55,36.55,0,0,0-7.85,4.21c-2.57,1.71-5.15,3.61-8,5.29a34.57,34.57,0,0,1-4.51,2.27,31,31,0,0,1-4.86,1.54,42.35,42.35,0,0,1-19.89-.31,66.06,66.06,0,0,1-18-7.76,127.62,127.62,0,0,1-15.7-11.25c-9.9-8.15-18.81-17.27-27.8-26.05a176.91,176.91,0,0,0-14-12.25A137.92,137.92,0,0,0,577,205.86a109.34,109.34,0,0,0-16.73-7.72,102.65,102.65,0,0,0-17.76-4.78,122,122,0,0,0-18.35-1.67,132.3,132.3,0,0,0-18.48,1.08c-3.05.38-6.13.88-9.17,1.45s-6,1.24-9.18,1.91-6.2,1.35-9.32,2-6.25,1.2-9.39,1.74a223.53,223.53,0,0,1-38.16,3.57,150.67,150.67,0,0,1-19.19-1.25c-3.15-.4-6.31-.72-9.46-1.18l-9.44-1.42a222.73,222.73,0,0,1-37.12-9.23A157.38,157.38,0,0,1,321,173.39a198.17,198.17,0,0,1-29.63-24.1A374.34,374.34,0,0,1,265.9,121a1.37,1.37,0,0,1,2.1-1.77l0,0a371.32,371.32,0,0,0,25.71,27.57A200.18,200.18,0,0,0,323.11,170a153.14,153.14,0,0,0,33.65,16,218.1,218.1,0,0,0,36.44,8.56l9.32,1.27c3.11.41,6.24.69,9.36,1a151.83,151.83,0,0,0,18.61,1,218,218,0,0,0,37.17-3.85c3.08-.56,6.16-1.16,9.22-1.8s6.13-1.36,9.2-2,6.21-1.43,9.35-2,6.32-1.13,9.53-1.53a138.46,138.46,0,0,1,19.32-1.19,127.42,127.42,0,0,1,19.33,1.82,112.16,112.16,0,0,1,36.33,13.39,143.64,143.64,0,0,1,16,10.88,182.59,182.59,0,0,1,14.4,12.78c9,8.94,17.7,18,27.26,26a122.52,122.52,0,0,0,15,10.92,62.57,62.57,0,0,0,16.59,7.37,37.57,37.57,0,0,0,17.63.51,26.44,26.44,0,0,0,4.17-1.26,30.08,30.08,0,0,0,4-1.94c2.61-1.49,5.15-3.31,7.85-5.06a40.71,40.71,0,0,1,8.87-4.59,21.81,21.81,0,0,1,10.36-.9,24.48,24.48,0,0,1,9.59,3.67,28.48,28.48,0,0,1,7.36,7,39.23,39.23,0,0,1,7.49,18.25,32.91,32.91,0,0,1,.27,5c-.06.84-.05,1.68-.19,2.52l-.16,1.26a7.31,7.31,0,0,1-.38,1.5,4.36,4.36,0,0,1-.45.89,3,3,0,0,1-1,1,2.75,2.75,0,0,1-1.57.33,3.52,3.52,0,0,1-1.15-.33,8,8,0,0,1-2.36-1.91,39.27,39.27,0,0,1-3-3.94,79.64,79.64,0,0,0-5.59-7.37c-2-2.16-4.4-3.87-7-4a8.76,8.76,0,0,0-4,.74,17.35,17.35,0,0,0-3.76,2.21c-2.39,1.82-4.69,3.91-5.49,6.45h0a1.37,1.37,0,0,1-2.61-.81Z"/><path class="cls-9" d="M427.89,131.71a8.69,8.69,0,0,0-14.59-.53,8.31,8.31,0,0,0-1.42,5.25,8.27,8.27,0,0,0,2,5,11.2,11.2,0,0,0,4.69,3.17,15,15,0,0,0,11.46-.64,11.09,11.09,0,0,0,4.22-3.53A16.34,16.34,0,0,0,436.4,135c.27-1.07.52-2.21.85-3.39a27.2,27.2,0,0,1,5.25-10,33.79,33.79,0,0,1,12-8.66c4.34-2,8.72-3.45,12.75-5.16a35.54,35.54,0,0,0,5.59-2.87,15.23,15.23,0,0,0,4.18-3.8,9.77,9.77,0,0,0,1.84-4.77A5.82,5.82,0,0,0,477.58,92a8.81,8.81,0,0,0-6.8-3,9,9,0,0,0-1.26.11,8,8,0,0,0-1.18.34,7.63,7.63,0,0,0-2.22,1.28,9.23,9.23,0,0,0-1.85,1.95,12.15,12.15,0,0,0-2.11,5.18,13.1,13.1,0,0,0-.14,2.84,13.24,13.24,0,0,0,.53,2.8,15.52,15.52,0,0,0,2.86,5.16,20.53,20.53,0,0,0,10.25,6.51,16.14,16.14,0,0,0,6,.47,10.24,10.24,0,0,0,5.28-2.18c2.89-2.36,4.12-7.26,1.81-10.18a1.37,1.37,0,0,1,2.1-1.76,9.36,9.36,0,0,1,2,7.59,12,12,0,0,1-3.59,6.9,13.47,13.47,0,0,1-7,3.33,20,20,0,0,1-7.54-.26,24.38,24.38,0,0,1-12.77-7.46A20.19,20.19,0,0,1,458,105a17,17,0,0,1-.81-7.86A17.25,17.25,0,0,1,460,89.73a14.43,14.43,0,0,1,2.75-3.08,13,13,0,0,1,3.62-2.2,13.34,13.34,0,0,1,2.08-.66,14.44,14.44,0,0,1,2.13-.27A14.44,14.44,0,0,1,482,88.29a11.5,11.5,0,0,1,2.24,3.93,11.86,11.86,0,0,1,.58,4.45,15.26,15.26,0,0,1-2.85,7.89,21.22,21.22,0,0,1-5.79,5.44,40.94,40.94,0,0,1-6.58,3.33c-4.38,1.82-8.71,3.17-12.68,4.9a28.2,28.2,0,0,0-10.19,6.93,21.77,21.77,0,0,0-4.36,7.92c-.31,1-.58,2.09-.89,3.22a21.14,21.14,0,0,1-3,7.1,15.62,15.62,0,0,1-6.27,5,19.64,19.64,0,0,1-15.16.35,15.54,15.54,0,0,1-6.34-4.65,12.92,12.92,0,0,1-2-3.54,12.78,12.78,0,0,1-.75-4,12,12,0,0,1,2.43-7.6,12.45,12.45,0,0,1,6.52-4.37,11.81,11.81,0,0,1,4-.38,12.17,12.17,0,0,1,3.81,1,12,12,0,0,1,5.66,5.17,1.37,1.37,0,0,1-2.37,1.36Z"/><path class="cls-9" d="M485.51,123a51,51,0,0,1,8.88,6.95,23.86,23.86,0,0,1,6.32,10.37A13.84,13.84,0,0,1,497.84,153a10.15,10.15,0,0,1-1.32,1.2,9.37,9.37,0,0,1-1.56,1,9,9,0,0,1-3.42.86,7.44,7.44,0,0,1-6.28-2.55,1.38,1.38,0,0,1,1.83-2l.12.08a4.61,4.61,0,0,0,3.8.49,5.75,5.75,0,0,0,1.73-.84,4.6,4.6,0,0,0,.66-.6,5.28,5.28,0,0,0,.58-.76,8.11,8.11,0,0,0,1.17-3.81,11.47,11.47,0,0,0-.05-2.11l-.12-1.09-.19-1.09a21.83,21.83,0,0,0-4.11-8.55,105.39,105.39,0,0,0-6.92-8.06h0a1.38,1.38,0,0,1,1.76-2.09Z"/><path class="cls-9" d="M445.93,163.15a36.82,36.82,0,0,0,3.57,3.9,34.39,34.39,0,0,0,4.14,3.21,33.06,33.06,0,0,0,4.56,2.49,31.77,31.77,0,0,0,4.88,1.67,28.75,28.75,0,0,0,10.08.74,28.2,28.2,0,0,0,9.57-2.85c.76-.37,1.5-.79,2.23-1.21l.55-.32.28-.16.07,0h0s-.07.08-.09.16,0,.21,0,.23.29.11.25.06l-11,.65c-7.42.44-14.85.81-22.28,1a1.37,1.37,0,0,1-.26-2.73h0c7.33-1.22,14.66-2.27,22-3.26l5.5-.75,2.75-.36,1.38-.18.69-.09.34,0,.18,0,.34,0a5.68,5.68,0,0,1,3.78,10.21l-.28.21-.14.1-.08.05-.32.2-.64.39c-.87.49-1.77,1-2.68,1.38a31.54,31.54,0,0,1-11.76,3,32.39,32.39,0,0,1-11.91-1.62,36.42,36.42,0,0,1-5.46-2.38,37.17,37.17,0,0,1-4.94-3.25,32.12,32.12,0,0,1-7.64-8.82,1.37,1.37,0,0,1,2.26-1.53Z"/><path class="cls-9" d="M453.7,139.15a3.85,3.85,0,0,1,.41-1.89,4.84,4.84,0,0,1,1.22-1.5,6.6,6.6,0,0,1,3.22-1.39,7.93,7.93,0,0,1,3.44.31,17.88,17.88,0,0,1,2.58,1,12.16,12.16,0,0,1,1.79,1.13,5.19,5.19,0,0,0,1.24.76,4.49,4.49,0,0,0,1.34.29,1.64,1.64,0,0,0,1.13-.24l.51-.35a1.33,1.33,0,0,1,2.08,1.27,4,4,0,0,1-.71,1.76,4.9,4.9,0,0,1-1.39,1.28,7,7,0,0,1-3.31,1,8.33,8.33,0,0,1-1.73-.1,12.93,12.93,0,0,1-1.58-.39,9.9,9.9,0,0,1-2.39-1.12c-.64-.42-1.16-.84-1.65-1.12a4.24,4.24,0,0,0-1.18-.6,3.73,3.73,0,0,0-1.3-.12,1.45,1.45,0,0,0-1,.38l-.53.49a1.29,1.29,0,0,1-2.18-.88Z"/><path class="cls-9" d="M506.47,174.87A37.4,37.4,0,0,1,498.08,203a42.69,42.69,0,0,1-11.66,9.43A61.4,61.4,0,0,1,472.64,218a111.54,111.54,0,0,1-29.19,3.55,108.57,108.57,0,0,1-14.72-.87,85.46,85.46,0,0,1-14.48-3.2,69.47,69.47,0,0,1-25.84-14.57c-.9-.87-1.85-1.69-2.7-2.6s-1.7-1.79-2.55-2.75c-1.61-1.93-3.15-3.82-4.6-5.85a93,93,0,0,1-7.72-12.67,86.05,86.05,0,0,1-8.67-28.33,80.44,80.44,0,0,1-.45-14.91A95.36,95.36,0,0,1,364,121.11,101.26,101.26,0,0,1,368.54,107a108.91,108.91,0,0,1,6.54-13.31,122.87,122.87,0,0,1,17.81-23.57A131.87,131.87,0,0,1,403.73,60a121.32,121.32,0,0,1,12-8.67,109.83,109.83,0,0,1,13.13-7,108.26,108.26,0,0,1,14-5.06,116.31,116.31,0,0,1,14.53-3.11,131.51,131.51,0,0,1,14.77-1.27,162,162,0,0,1,29.43,2,238.63,238.63,0,0,1,28.66,6.41c4.69,1.38,9.37,2.77,14,4.37,2.32.76,4.61,1.6,6.91,2.4s4.61,1.77,6.91,2.66l-1.15-.23h0l1.14.22,9.08,4.11.8.57,0,0-.8-.57a152.22,152.22,0,0,1,48.21,37.6,177.63,177.63,0,0,1,31,52.62,212.69,212.69,0,0,1,13.23,59.49,220.78,220.78,0,0,1-3.71,60.76,197.68,197.68,0,0,1-21,57.1,172.3,172.3,0,0,1-17.18,25.22,179.78,179.78,0,0,1-21.37,21.75,185,185,0,0,1-24.65,17.89c-4.32,2.68-8.81,5.07-13.34,7.37-2.3,1.09-4.57,2.23-6.91,3.22-1.17.5-2.32,1-3.5,1.51l-3.56,1.41a115,115,0,0,1-29.71,7,89.7,89.7,0,0,1-30.45-2.17,1.37,1.37,0,0,1,.67-2.66,86.78,86.78,0,0,0,29.48,1.75,111.67,111.67,0,0,0,28.78-7.13l3.44-1.41c1.14-.48,2.27-1,3.41-1.52,2.28-1,4.49-2.14,6.73-3.22,4.42-2.29,8.79-4.67,13-7.33a181.12,181.12,0,0,0,24-17.72A175.64,175.64,0,0,0,614.43,347,168,168,0,0,0,631,322.31a193,193,0,0,0,20-55.9,217.77,217.77,0,0,0,3.17-59.35A207.08,207.08,0,0,0,641,149.24a176.51,176.51,0,0,0-30.11-50.79,146.19,146.19,0,0,0-46.31-36.14l-.8-.57,0,0,.79.57-8.7-3.93,1.14.22h0l-1.15-.23c-2.21-.85-4.4-1.73-6.63-2.55s-4.52-1.62-6.8-2.37c-4.54-1.56-9.11-3-13.7-4.35a232.8,232.8,0,0,0-27.91-6.42,156.34,156.34,0,0,0-28.39-2.14,126.07,126.07,0,0,0-14.14,1.12,111,111,0,0,0-13.85,2.87A102.85,102.85,0,0,0,431,49.22a104.57,104.57,0,0,0-12.52,6.55A116.34,116.34,0,0,0,407,64a126.85,126.85,0,0,0-10.46,9.61A117.93,117.93,0,0,0,379.27,96.1a104.09,104.09,0,0,0-6.33,12.68,96.57,96.57,0,0,0-4.42,13.43,90.76,90.76,0,0,0-2.22,13.93,75.88,75.88,0,0,0,.34,14.06,81.65,81.65,0,0,0,8.07,26.94A88.74,88.74,0,0,0,382,189.27c1.35,1.92,2.86,3.79,4.33,5.58.75.85,1.58,1.73,2.36,2.59s1.67,1.63,2.51,2.45a65.43,65.43,0,0,0,24.26,13.85,82.76,82.76,0,0,0,13.79,3.2,104.88,104.88,0,0,0,14.21,1,108.14,108.14,0,0,0,28.29-3.12,58.16,58.16,0,0,0,13.12-5.12,39.61,39.61,0,0,0,10.88-8.6,34.53,34.53,0,0,0,8-25.88,1.37,1.37,0,0,1,2.71-.32Z"/><path class="cls-9" d="M593,183.66a80.21,80.21,0,0,0-12.66,2.82,56.77,56.77,0,0,0-11.79,5.09,40.11,40.11,0,0,0-16.93,18.16,38.67,38.67,0,0,0-2.05,5.92,49.37,49.37,0,0,0-1.31,6.24c-.36,2.11-.47,4.24-.65,6.37-.09,1.06,0,2.13-.08,3.19l0,1.6.08,1.59a59.39,59.39,0,0,0,1.84,12.58c.47,2.07,1.18,4.08,1.84,6.09s1.51,4,2.46,5.88a72.65,72.65,0,0,0,6.38,11.06,89.7,89.7,0,0,0,8,10,122.68,122.68,0,0,0,19.51,16.9A182.79,182.79,0,0,0,634,320.3l.06,0a3,3,0,0,1,1.16.73h0l-1.2-.74a147.6,147.6,0,0,0,40.26,7.48,111.19,111.19,0,0,0,40.35-5.56A91.32,91.32,0,0,0,733,313.46,87.35,87.35,0,0,0,749,300.64a37.49,37.49,0,0,0,6.07-7.89,20.54,20.54,0,0,0,2.77-9.16,19.76,19.76,0,0,0-2-9.38,36.31,36.31,0,0,0-5.65-8.28l0,0a1.37,1.37,0,0,1,2-1.84,39.16,39.16,0,0,1,6.37,8.8,23,23,0,0,1,2.64,10.82,23.57,23.57,0,0,1-2.92,10.8,41.18,41.18,0,0,1-6.49,8.82,91.42,91.42,0,0,1-16.39,13.76,95.85,95.85,0,0,1-19.15,9.62,114.18,114.18,0,0,1-42.11,6.63,143.4,143.4,0,0,1-21.26-2.1,148.19,148.19,0,0,1-20.72-5.14,3,3,0,0,1-1.18-.72l0,0h0l1.22.74a178.84,178.84,0,0,1-24.85-10.28,165.7,165.7,0,0,1-23-13.92,128.26,128.26,0,0,1-20.17-17.94,95,95,0,0,1-8.37-10.7,77.83,77.83,0,0,1-6.66-11.9c-1-2.06-1.75-4.21-2.55-6.35s-1.38-4.36-1.85-6.6A64.12,64.12,0,0,1,543,234.8l-.05-1.71.06-1.71c.06-1.14,0-2.28.16-3.41.24-2.26.41-4.54.83-6.77a53.54,53.54,0,0,1,1.53-6.66,42.88,42.88,0,0,1,2.4-6.51,39.47,39.47,0,0,1,8-11.3,47.86,47.86,0,0,1,11-8.16,60.06,60.06,0,0,1,12.58-5,83.16,83.16,0,0,1,13.21-2.57,1.37,1.37,0,0,1,.35,2.71Z"/></svg>