<svg id="Layer_1" data-name="Layer 1" xmlns="http://www.w3.org/2000/svg" viewBox="0 0 960 560"><defs><style>.cls-1{fill:#99c1ff;}.cls-2{fill:#ffbda5;}.cls-3{fill:#ffa685;}.cls-4{fill:#b3d1ff;}.cls-5{fill:#233940;}</style></defs><title>pregnancy, woman, baby, people</title><path class="cls-1" d="M744.82,218.88c-.31,6.08-.5,11.07-.86,15.42-2.6,31.47-32.65,52.1-51.43,74.72C665,342.13,649.29,383.13,636,423.54c-11.57,35.08-32.11,64-69.16,74.87-42.53,12.5-89.49,9.53-132.45,9.53-32.86,0-62.55-6.4-88.68-18C265.07,454,218.26,368.47,216.56,267.7,225.38,171,293.31,66.83,395.44,27.51A255.63,255.63,0,0,1,473.83,15.1c27.61,0,61,6.33,94.85,18a382.18,382.18,0,0,1,78.75,37.6c32.58,20.61,60.81,46.28,78.4,75.9,11.56,19.47,18.52,40.64,19.1,63.2Q745,214.3,744.82,218.88Z"/><path class="cls-2" d="M654,367.77c-.16,2.08-.33,4.18-.54,6.3q-4.28,10.58-7.53,21.41c-11.17,37.14-20.54,68.75-48.33,88.47a101.94,101.94,0,0,1-30.77,14.46c-42.53,12.5-89.49,9.53-132.45,9.53a231.27,231.27,0,0,1-46.89-4.66,203.7,203.7,0,0,1-41.79-13.37l-5-38.54-9.33-71.42s-23.6-64.49-4.6-136.86a205.31,205.31,0,0,1,17.71-45.19c47.43-88.29,240.89-70.5,268.66,37.11C613.08,235,660.1,285.93,654,367.77Z"/><path class="cls-3" d="M441.65,251c-21,21.47-43.53,22.55-60.39,18.59-25.18-5.91-49.27,13.44-48,39.28q0,.32,0,.65c.86,15.81,1.27,35.44,6.89,50.37,18.21,48.34,50.11,98.72,102.88,109.38,1.34.27,2.69.5,4,.71a87.28,87.28,0,0,1,27-6,107.52,107.52,0,0,1,16.91.6l.44-.18c5.31.61,11,1.18,16.24.39,5.65-.86,10.64-4.43,16.43-4.51,6-.08,10.58,3.62,12.32,9.23,1,3.22-2.25,13,2.1,14.29a6.42,6.42,0,0,0,2.47.05c8.77-.95,16.91-4.4,25.59-5.63a52.69,52.69,0,0,1,25.67,2.59,17.67,17.67,0,0,1,5.37,3.1,101.94,101.94,0,0,1-30.77,14.46c-42.53,12.5-89.49,9.53-132.45,9.53a231.27,231.27,0,0,1-46.89-4.66,184.13,184.13,0,0,1-46.82-51.91c-1-1.61-1.93-3.23-2.86-4.88-13.48-23.92-22.29-50.26-28.41-76.95q-2.37-10.3-4.22-20.71c-1.09-6.21-2-12.78-.17-18.95a17.66,17.66,0,0,1,10.3-11.27c-.78-12.72.7-25.83,2.55-37.78a253.58,253.58,0,0,1,8.88-37.74,260.21,260.21,0,0,1,24.57-54.63,1.48,1.48,0,0,1,2.35-.25,122.07,122.07,0,0,1,16.23-17.91,79.54,79.54,0,0,0-6.06,21.34c-.79,4.95-.8,10.19-2.74,14.89-2.1,5.08-6.32,8.85-9.24,13.42l0,.06a9.86,9.86,0,0,0,5.1,14.63l.16.05c8.74,2.77,20.22-2.19,28.76-4.4,18.46-4.76,40.51-5.11,98.73-35.88,9.29-4.91,46.16-17.8,73.42-1.86C557.94,192.55,494.62,196.77,441.65,251Z"/><path class="cls-2" d="M744,234.31a48.76,48.76,0,0,1-4.22,12.27c-21.43,42.06-93.09,35.4-116-1.74C610.91,224,586.25,198.45,539.93,187c-27.47-6.76-67.81,13.35-67.81,13.35s-43.74,27.32-86.73,30.77l-2.07-7.42s-12.54,6.35-20.45,9.8c-12.64,5.52-19.72-14.76,7.49-53.26s118.17-83.51,187.59-67.44c42.93,9.94,54.79,13.06,57.58,14,0-.2,0-.49,0-.86.13-6.06,2.37-34.31,31.89-55.27q4.05,2.57,8,5.23c29.18,19.66,54.27,43.5,70.4,70.67a164.42,164.42,0,0,1,7.61,17.17c4.88,13,10,29.69,11.49,46A82.19,82.19,0,0,1,744,234.31Z"/><path class="cls-3" d="M609.37,253.73a60.63,60.63,0,0,0-15-16.43,53.23,53.23,0,0,0-24.26-10.37c-16.19-2.35-33.75,4.2-43.22,17.53-5.46,7.67-8.1,17-13.16,25-4,6.3-9.64,11.91-11.23,19.21-1.44,6.65.9,13.8,5.34,19s10.79,8.43,17.41,10c2.4.58,5.12,1.13,6.09,3.66a5.06,5.06,0,0,1-.55,4.41c-1.59,2.58-4.45,3.66-7.22,4.51A81,81,0,0,1,505,333.57c-4.32.27-9,.07-12.38-2.69-4.2-3.47-4.71-9.74-3.87-15.13,1.08-7,3.85-13.89.55-20.9a8.87,8.87,0,0,0-8.28-5.28c-6.63.31-9,7.9-10,14.06l-5.53,33.84a59.48,59.48,0,0,0-33.19,4.87c-3.81,1.77-7.75,4-11.92,3.5-7.65-.92-11.17-9.89-15.69-15.87a4,4,0,0,0-2.78-1.65c-2.26-.17-3.23,2-3.88,3.8l-4.26,12c.23-.66-7,.45-7.79,1-3.46,2.46-2.86,4.31-2.27,8.4a64.79,64.79,0,0,0,7.37,22,7.63,7.63,0,0,0,2.21,2.79c2.61,1.76,6.07,0,8.74-1.66,10.9-6.82,23.43-12.81,36.19-10.45a6.48,6.48,0,0,1,3.78,2.06c1.8,2.1.84,4.08,0,5.9-3.74,7.7-6.59,16-7,24.53s1.94,17.43,7.54,23.91c6.62,7.65,16.82,8.9,26.32,7.49,8.77-1.3,18.24-3.73,25.43-9.15,3.26-2.46,6-5.71,7-9.75,1.32-5.44-.42-17.92-8.44-16.64-2,.32-3.92,1.64-5.48-.52a3.24,3.24,0,0,1,1-4.82L489,389a25.91,25.91,0,0,1,21.84-.39c12.95,5.85,22,22.56,37.67,15.91a24.15,24.15,0,0,0,8.2-5.89c12.67-13.65,26.16-28,31.8-46,3.52-11.21,3.82-23.38,8.64-34.1,5.32-11.84,15.86-21.24,18.81-33.89C618.4,274.09,615.05,262.92,609.37,253.73Z"/><path class="cls-3" d="M680.82,171.91c-.29,1.38-2.06,1.31-2.75.36a95.71,95.71,0,0,0-39.49-31.78c-8.7-3.76-18-7.18-23-14.5.13-6.06,2.37-34.31,31.89-55.27q4.05,2.57,8,5.23c-7.22,6.47-14.2,13.55-17.74,22.65-4.64,11.94-1.84,23.56,7.93,31.82C659,141.71,685.44,149.36,680.82,171.91Z"/><path class="cls-2" d="M421.73,55.79c35.32,11.63,74.56,15.28,111.49,11.67,16.87-1.65,33.49-4.4,49-11.6a196.84,196.84,0,0,0,18.49-10.08c-10.59-4.73-21.31-9-32-12.65-33.81-11.69-67.24-18-94.85-18a256,256,0,0,0-83,14q-7.42,2.54-14.66,5.52A223,223,0,0,0,421.73,55.79Z"/><path class="cls-2" d="M590,490.35a6.9,6.9,0,0,1-4.62,6.53l-1.49.53s-23.54,6.2-34.46,11.2S499,541.08,499,541.08s-157.73,44.46-254-139.61C146.51,212.94,335.15,55.76,335.15,55.76c37.3,2.11,41.43,118.58,27.43,124.58S303.25,272,319.31,337.95c29.46,121,115.13,144.75,115.13,144.75l19.12-9.16s13.22-1.13,28.61-2.9c13.75-1.58,25.43-.28,38.51-6a3,3,0,0,1,.56-.13,7.75,7.75,0,0,1,8.71,10.72,12.09,12.09,0,0,1-4.9,5.17c-5.42,3.26-11.92,3.78-17.71,6.11-11.91,4.8-23.65,9.44-24.79,9.89l-.09,0s15.39,3.14,35.1-1.86c19.1-4.84,47.92-10.59,49.7-10.94l.09,0c6-1.55,12.47-.94,17-.12a6.94,6.94,0,0,1,5.66,6.82Z"/><path class="cls-4" d="M647.43,70.72A89.23,89.23,0,0,0,627,92c-6.31,9.28-11.6,21.24-11.48,35.2,0,0-132.65-57-234.66,41.79,0,0-18.65,17.64-25.13,34a6.21,6.21,0,0,1-12-2.25,6.14,6.14,0,0,1,.67-2.81c7.25-14.32,23.67-54.23,7.28-96.55-.4-1-.81-2.05-1.25-3.08,0,0-6.68-14.1-11.22-26.85-2.18-6.11-3.86-11.91-4.08-15.7,0-.28,0-.54,0-.8,0,0,34-19.59,55.6-25.9l.06,0c1.7,1.23,39.14,27.84,87.4,27.16,45.46-.65,70.71-12.59,90.5-23.1,7,2.42,14,5.08,21,8A374.32,374.32,0,0,1,647.43,70.72Z"/><path class="cls-5" d="M416.28,205.52a35.71,35.71,0,0,1-6.08,5.73,73.47,73.47,0,0,1-6.8,4.58,137.13,137.13,0,0,1-14.47,7.4c-1.23.55-2.48,1.09-3.72,1.61a16.21,16.21,0,0,0-1.58.7,2,2,0,0,0-.72.79,2.14,2.14,0,0,0,.08,2.08,2.09,2.09,0,0,0,1.79,1l.26,0,.43-.08,1-.19c.63-.12,1.28-.27,1.92-.42,1.29-.29,2.57-.61,3.86-.93q3.86-1,7.71-2.06c10.27-2.84,20.44-6.12,30.47-9.71a314.9,314.9,0,0,0,29.5-12.14c2.37-1.18,4.79-2.28,7.1-3.56l7.12-3.74a133.27,133.27,0,0,1,15-6.7,114.21,114.21,0,0,1,15.8-4.56c2.67-.65,5.41-1,8.13-1.41,1.37-.17,2.74-.27,4.11-.41l2.06-.19,2.07-.07a95.18,95.18,0,0,1,32.68,4.23A107.47,107.47,0,0,1,583.4,202a133.51,133.51,0,0,1,12.88,10.22,160.31,160.31,0,0,1,11.52,11.67,172.9,172.9,0,0,1,19.14,26.45,212.11,212.11,0,0,1,24,60.26c4.83,21.11,6.72,43,4.41,64.59-.24,2.7-.68,5.38-1,8.07l-.71,4-.36,2-.43,2a131.48,131.48,0,0,1-4.32,15.69,128.59,128.59,0,0,1-6.27,15,120.78,120.78,0,0,1-8.32,14,1.37,1.37,0,0,1-2.28-1.53l0,0a118,118,0,0,0,7.8-13.79,125.37,125.37,0,0,0,5.78-14.75,139.16,139.16,0,0,0,3.93-15.36l.39-1.94.32-2,.63-3.92c.31-2.63.71-5.24.9-7.89,1.93-21.1-.25-42.48-5.28-63a218.13,218.13,0,0,0-9.88-30.15l-1.53-3.66-1.62-3.62c-1.05-2.43-2.27-4.77-3.41-7.16-2.42-4.7-4.91-9.36-7.69-13.84a176.59,176.59,0,0,0-18.71-25.4A138.84,138.84,0,0,0,579.94,207a104.7,104.7,0,0,0-27.8-14,89.46,89.46,0,0,0-30.7-4.27l-1.95.05-1.94.17c-1.3.12-2.59.2-3.89.35-2.57.4-5.17.67-7.71,1.27a108.92,108.92,0,0,0-15.09,4.2,128.13,128.13,0,0,0-14.42,6.3l-7.15,3.67c-2.4,1.28-4.88,2.37-7.32,3.54a319.49,319.49,0,0,1-30.1,11.9c-10.2,3.48-20.49,6.64-30.91,9.36-2.6.7-5.22,1.33-7.85,1.95-1.31.31-2.63.61-4,.88-.67.14-1.32.28-2,.4l-1,.18c-.19,0-.29.06-.56.09a5.46,5.46,0,0,1-.74,0,5.68,5.68,0,0,1-5-8.4,5.48,5.48,0,0,1,2-2.09,16.14,16.14,0,0,1,2.1-.92c1.23-.49,2.46-1,3.68-1.51a134.11,134.11,0,0,0,14.27-6.95,70.66,70.66,0,0,0,6.6-4.26,33,33,0,0,0,5.71-5.15h0a1.37,1.37,0,0,1,2.11,1.74Z"/><path class="cls-3" d="M324.39,252.81c-6.57,28-19.38,48-55.3,48S250.53,327,273.85,309s40.71,2.89,43.08,15.94,11.58-14.41,11.58-14.41S327.7,238.73,324.39,252.81Z"/><path class="cls-1" d="M595.72,87.59c-21.11-7.21-42.59-5.1-63.87.08-11.21,2.73-22.37,5.81-33.88,7-37.77,4-74.64-25.75-111.34-7.92-13.61,6.61-20.57,13.37-29,37.3,4.77,33.26-7.29,62.09-13.21,73.8a6.22,6.22,0,0,0,2.87,8.42,6.22,6.22,0,0,0,8.46-3.36c6.48-16.36,25.13-34,25.13-34,102-98.76,234.66-41.79,234.66-41.79a57.65,57.65,0,0,1,5.71-25.11A78.44,78.44,0,0,0,595.72,87.59Z"/><path class="cls-5" d="M677.67,170.87A201.66,201.66,0,0,0,600.45,124c-28.74-9.68-59.5-12.83-89.63-10.29q-11.31,1-22.5,2.95c-7.44,1.35-14.83,3-22.12,5a209.32,209.32,0,0,0-42.08,16.79A161.12,161.12,0,0,0,387.46,165a119,119,0,0,0-26.1,36.74h0a1.37,1.37,0,0,1-2.52-1.07,114.35,114.35,0,0,1,11-20.52,126.83,126.83,0,0,1,14.82-18,165.59,165.59,0,0,1,37.09-28,207.26,207.26,0,0,1,42.87-18,220.91,220.91,0,0,1,45.73-8.48,228.46,228.46,0,0,1,46.48,1.09A215.37,215.37,0,0,1,602,119.36a207.46,207.46,0,0,1,41.73,20.28,204.84,204.84,0,0,1,35.83,29.3,1.37,1.37,0,0,1-1.93,1.94Z"/><path class="cls-5" d="M395.93,28.78C367.59,40,341.54,56.5,318.7,76.52A302.76,302.76,0,0,0,260.21,146a288.79,288.79,0,0,0-34.75,83.67A251.78,251.78,0,0,0,219,274.49a235,235,0,0,0,2,45.2l1.94,11.15c.78,3.69,1.69,7.35,2.53,11,.38,1.84,1,3.65,1.47,5.48l1.54,5.47c1.11,3.62,2.29,7.22,3.44,10.83a314.07,314.07,0,0,0,17.72,41.82,279.47,279.47,0,0,0,53.62,72.93A234,234,0,0,0,379,527.73a221.36,221.36,0,0,0,43.73,12.35,231,231,0,0,0,45.42,3.27,1.37,1.37,0,0,1,.09,2.74,234.11,234.11,0,0,1-46.07-2.62,220.31,220.31,0,0,1-44.62-12A238.5,238.5,0,0,1,299.84,482a281.5,281.5,0,0,1-55.32-73.86,297.41,297.41,0,0,1-18.28-42.55c-1.18-3.68-2.37-7.35-3.51-11L221.16,349c-.5-1.87-1.1-3.7-1.5-5.6-.86-3.78-1.8-7.55-2.6-11.34l-2-11.46c-4.5-30.73-2.3-62.21,5-92.22a292.26,292.26,0,0,1,36-85,307.21,307.21,0,0,1,60.06-69.87c23.41-20,50-36.36,78.85-47.27a1.37,1.37,0,0,1,1,2.55Z"/><path class="cls-5" d="M473,497.54a20.57,20.57,0,0,0,8.72-2.57l.19-.08.09,0-.2.08c1.54-.81,3.06-1.72,4.58-2.67s3.14-2,4.82-2.83a52.43,52.43,0,0,1,10.57-4c1.81-.48,3.65-.86,5.38-1.24s3.48-.8,5.18-1.26a47.15,47.15,0,0,0,9.6-3.6c2.88-1.54,5.25-3.66,5.8-6.1a5.84,5.84,0,0,0,.16-1.87,3.49,3.49,0,0,0-.41-1.5,4.8,4.8,0,0,0-2.57-2.13,5.66,5.66,0,0,0-3.45-.29l-5.12,1.6a93.28,93.28,0,0,1-10.85,2.78,98.69,98.69,0,0,1-11.12,1.3q-5.54.3-11,.28c-3.7,0-7.24-.12-10.78,0a103,103,0,0,0-10.57.83,74.25,74.25,0,0,0-10.32,2.09,53.45,53.45,0,0,0-9.76,3.69,37.42,37.42,0,0,0-8.51,5.82,26.34,26.34,0,0,0-3.41,3.81,21.22,21.22,0,0,0-1.38,2.13,14,14,0,0,0-1,2.18l0,.12a1.37,1.37,0,0,1-2.62-.8,15.94,15.94,0,0,1,1.08-2.83,24.32,24.32,0,0,1,1.42-2.53,29.53,29.53,0,0,1,3.56-4.5,39.08,39.08,0,0,1,9-6.9,65.8,65.8,0,0,1,21.22-7.12,108.13,108.13,0,0,1,11.05-1.3c3.7-.26,7.41-.25,11-.37s7.15-.3,10.68-.61a99.1,99.1,0,0,0,10.45-1.33,87.18,87.18,0,0,0,10.22-2.51c1.73-.5,3.47-1,5.3-1.5a11.32,11.32,0,0,1,7.19.67,10.39,10.39,0,0,1,5.37,4.94,9,9,0,0,1,.91,3.73,11.25,11.25,0,0,1-.41,3.51,12.5,12.5,0,0,1-3.58,5.76,21.16,21.16,0,0,1-5.09,3.49,47.73,47.73,0,0,1-10.83,3.67c-1.82.42-3.63.77-5.43,1.1s-3.55.61-5.26,1a49.84,49.84,0,0,0-9.9,3.24c-1.59.71-3.07,1.53-4.69,2.44s-3.24,1.76-4.95,2.54l-.2.08-.09,0,.19-.08a28.35,28.35,0,0,1-4.9,1.74,19.77,19.77,0,0,1-5.26.58,1.37,1.37,0,0,1,0-2.73Z"/><path class="cls-5" d="M556.41,488.48a19.28,19.28,0,0,1,4.72-4,23.84,23.84,0,0,1,5.68-2.47l.16,0c-.23,0,0,0,.09,0l.31-.08.62-.16,1.19-.27q1.19-.24,2.39-.4a36.66,36.66,0,0,1,4.8-.31c1.6,0,3.19.08,4.77.22.79.07,1.58.16,2.36.27l1.18.17a9.13,9.13,0,0,1,1.47.37,9.31,9.31,0,0,1-1.73,18,83.34,83.34,0,0,0-17.21,4.13,164,164,0,0,0-16.47,7h0a3,3,0,0,1-1.3.29h0l1.37-.33q-7.61,3.84-14.93,8.48c-4.87,3.09-9.66,6.36-14.47,9.67s-9.65,6.65-14.75,9.68c-1.26.78-2.58,1.48-3.87,2.21s-2.65,1.38-4,2a49.85,49.85,0,0,1-8.47,3.13,1.37,1.37,0,0,1-.78-2.63h0a46.84,46.84,0,0,0,7.71-3.51c1.26-.68,2.46-1.46,3.69-2.17s2.42-1.52,3.6-2.35c4.75-3.24,9.36-6.77,14-10.28s9.34-7.07,14.23-10.41A137.11,137.11,0,0,1,548,505.39a3,3,0,0,1,1.33-.33h.05l-1.33.3a123.53,123.53,0,0,1,17.29-7,88.94,88.94,0,0,1,18.43-3.81,3.73,3.73,0,0,0,2.43-1.18,4.58,4.58,0,0,0,1.25-2.58,4.51,4.51,0,0,0-.58-2.88,4.72,4.72,0,0,0-2.28-2,4.6,4.6,0,0,0-.74-.23l-1.08-.21c-.72-.14-1.44-.25-2.16-.36-1.45-.21-2.9-.35-4.35-.41a40.67,40.67,0,0,0-4.34,0q-1.08.08-2.14.22l-1.05.17-1.21.24.16,0a18.53,18.53,0,0,0-9.26,4.95h0a1.37,1.37,0,0,1-2-1.84Z"/><path class="cls-5" d="M518,394.53a32.35,32.35,0,0,0-8-4.38,22.5,22.5,0,0,0-4.17-1,21.75,21.75,0,0,0-4.2-.09,32.53,32.53,0,0,0-8.52,1.53,40.55,40.55,0,0,0-8.27,4l-.09.06a1.38,1.38,0,0,1-1.79-2.05,25.73,25.73,0,0,1,3.76-3.63,29.22,29.22,0,0,1,4.36-2.9,27.45,27.45,0,0,1,4.92-2.13,17.83,17.83,0,0,1,5.42-.92,23,23,0,0,1,5.52.69,23.76,23.76,0,0,1,5.1,2A25.35,25.35,0,0,1,520,392.6a1.38,1.38,0,0,1-1.92,1.95Z"/><path class="cls-5" d="M268.3,310.82a60.75,60.75,0,0,1,11-6.41,42.54,42.54,0,0,1,12.38-3.66,27.35,27.35,0,0,1,6.7.08,20,20,0,0,1,12,6.41l1.12,1.3c.37.44.66.92,1,1.38a24.25,24.25,0,0,1,1.75,2.89,36.47,36.47,0,0,1,2.53,6.11c.67,2,1.21,4,1.79,6,1.13,4,2.2,8,3.26,12q3.16,12,6.62,23.74c.6,2,1.19,3.91,1.82,5.86s1.24,3.89,1.87,5.83c1.33,3.85,2.63,7.72,4.11,11.51A183.17,183.17,0,0,0,346.39,406a148,148,0,0,0,13.43,20.3A140.28,140.28,0,0,0,376.62,444h0a1.37,1.37,0,0,1-1.75,2.11,131.53,131.53,0,0,1-18.15-17.26A141.37,141.37,0,0,1,342,408.49,176.84,176.84,0,0,1,330.84,386a211.43,211.43,0,0,1-8.25-23.63c-2.34-8-4.24-16.07-6.19-24.09-1-4-1.93-8-2.95-12-.51-2-1-4-1.59-5.89a35.92,35.92,0,0,0-2-5.38,18.28,18.28,0,0,0-7.1-8.17,15.78,15.78,0,0,0-5.09-1.88,23.25,23.25,0,0,0-5.63-.27,39.56,39.56,0,0,0-11.42,2.81A63.12,63.12,0,0,0,269.9,313l-.05,0a1.37,1.37,0,0,1-1.55-2.25Z"/><path class="cls-5" d="M672,280.07a96.24,96.24,0,0,0,12.12-1.62,106.33,106.33,0,0,0,11.89-3,83.44,83.44,0,0,0,21.94-10.33l1.26-.83c.42-.28.8-.61,1.2-.91l2.39-1.83,2.25-2,1.12-1c.36-.35.69-.72,1-1.08l2.07-2.17c.64-.76,1.25-1.55,1.87-2.33l.93-1.16c.32-.38.56-.82.84-1.23l1.64-2.49a53.76,53.76,0,0,0,7.31-22.5,85.64,85.64,0,0,0-1.23-24l-1.32-5.94-.33-1.48-.43-1.47-.85-2.93c-1-3.92-2.51-7.78-3.83-11.65-.63-2-1.46-3.83-2.19-5.74s-1.46-3.83-2.3-5.7c-1.68-3.74-3.25-7.52-5.14-11.15a204.06,204.06,0,0,0-12.07-21.34,192.69,192.69,0,0,0-31.39-37.42l-2.26-2.07-2.32-2c-.78-.66-1.54-1.34-2.33-2l-2.39-1.91a34,34,0,0,0-4.72-3.34,27.57,27.57,0,0,0-5.17-2.26,30.12,30.12,0,0,0-22.26,1.89,33.72,33.72,0,0,0-15.78,16.47c-.41.88-.76,1.8-1.11,2.72s-.64,1.84-.91,2.84c-.59,2-1.11,3.93-1.6,5.91q-1.46,5.94-2.38,12c-.62,4.05-1.09,8.13-1.47,12.23s-.65,8.22-.86,12.34c-.45,8.25-.66,16.53-.77,24.81a1.37,1.37,0,0,1-2.74,0c-.11-8.31-.14-16.62.08-25a234.88,234.88,0,0,1,1.83-25c.55-4.16,1.28-8.31,2.21-12.43.47-2.05,1-4.1,1.54-6.13.25-1,.61-2.06.93-3.1s.74-2.06,1.18-3.06A38.45,38.45,0,0,1,637.1,80.68,35.06,35.06,0,0,1,663.2,78a33,33,0,0,1,6.25,2.62,39.44,39.44,0,0,1,5.49,3.74l2.5,1.94c.83.65,1.63,1.34,2.44,2l2.43,2,2.36,2.1a178.54,178.54,0,0,1,17.64,18.09c1.33,1.63,2.74,3.2,4,4.89l3.86,5,3.64,5.17c1.23,1.71,2.31,3.52,3.47,5.28l1.71,2.65,1.61,2.72c1.05,1.82,2.17,3.61,3.17,5.46l3,5.57c.51.92,1,1.86,1.42,2.82l1.36,2.84c1.89,3.76,3.46,7.66,5.13,11.51.83,1.93,1.52,3.92,2.28,5.87s1.55,3.9,2.17,5.91c1.3,4,2.74,7.92,3.79,12l.85,3.05.42,1.53.33,1.56,1.3,6.23a88.52,88.52,0,0,1,.94,25.52,58.45,58.45,0,0,1-8.41,24.28l-1.83,2.67c-.32.44-.59.91-.94,1.32l-1,1.25c-.69.83-1.37,1.67-2.08,2.48l-2.27,2.3c-.38.38-.75.77-1.14,1.14l-1.22,1.05-2.45,2.09-2.58,1.91c-.43.31-.85.65-1.3.94l-1.35.86a86.25,86.25,0,0,1-23.18,10.23,109.49,109.49,0,0,1-12.31,2.77,98.65,98.65,0,0,1-12.58,1.35,1.37,1.37,0,0,1-.14-2.73Z"/><path class="cls-5" d="M474.76,304c-1.1,3-2.12,6.11-3,9.21a85.64,85.64,0,0,0-2.13,9.38c-1.06,6.24-1.39,12.66.1,18.29.1.35.17.71.28,1l.38,1c.12.33.22.68.35,1l.46.94c.15.31.29.63.46.94s.38.57.56.86.35.59.55.88l.66.78a17.89,17.89,0,0,0,6.88,4.88l2.12.74a21.7,21.7,0,0,0,2.22.56,40.94,40.94,0,0,0,4.6.77c1.56.19,3.16.18,4.76.31l4.84,0H499a1.37,1.37,0,0,1,.23,2.73c-1.65.27-3.32.52-5,.76l-2.54.17c-.85,0-1.7.16-2.56.1a36.07,36.07,0,0,1-5.19-.31,26,26,0,0,1-2.61-.41l-2.61-.66a22.47,22.47,0,0,1-9.51-5.69,20.93,20.93,0,0,1-5.28-9.86,35,35,0,0,1-.73-10.65,57.08,57.08,0,0,1,1.71-10.16,90.23,90.23,0,0,1,3.15-9.62,82.4,82.4,0,0,1,4.29-9.12,1.37,1.37,0,0,1,2.48,1.14Z"/><path class="cls-5" d="M517.18,259A60.38,60.38,0,0,1,522,247.73a58.3,58.3,0,0,1,6.92-10.15,46.68,46.68,0,0,1,9.26-8.33A38.66,38.66,0,0,1,549.65,224a41,41,0,0,1,12.6-1.32,57.77,57.77,0,0,1,12.35,2.19,78,78,0,0,1,11.5,4.6l2.76,1.37c.9.49,1.79,1,2.68,1.52,1.8,1,3.5,2.17,5.23,3.31.88.54,1.68,1.22,2.51,1.83s1.69,1.21,2.45,1.93l2.34,2.08c.77.7,1.48,1.49,2.22,2.23a46.62,46.62,0,0,1,7.49,10.2,42.1,42.1,0,0,1,4.24,12,42.82,42.82,0,0,1,.44,12.63,57.72,57.72,0,0,1-8.2,23.23,72.27,72.27,0,0,1-15.82,18.47,1.37,1.37,0,0,1-1.81-2.06l0,0a72.63,72.63,0,0,0,14.11-18.4,55,55,0,0,0,6.72-21.7,37.07,37.07,0,0,0-4.76-21.38c-3.74-6.4-9.25-11.7-15.45-16.11a83.76,83.76,0,0,0-20.35-10.46,52.46,52.46,0,0,0-11-2.26,37.8,37.8,0,0,0-11.06.83c-7.25,1.63-13.79,5.9-19,11.51a56,56,0,0,0-7,9.2c-1,1.65-2,3.35-2.81,5.09a53.36,53.36,0,0,0-2.33,5.28l0,.06a1.37,1.37,0,0,1-2.59-.87Z"/><path class="cls-5" d="M556.58,340.86a14.36,14.36,0,0,0-.65-2.31,16.6,16.6,0,0,0-1-2.24,13.35,13.35,0,0,0-3-3.7,14.8,14.8,0,0,0-8.64-3.46c-6.49-.52-13.44,1.42-20.38,3.15-1.74.46-3.5.88-5.28,1.28s-3.58.77-5.39,1.11a58.74,58.74,0,0,1-11.31,1.14,20.56,20.56,0,0,1-6.07-1,10.4,10.4,0,0,1-5.36-4,12.1,12.1,0,0,1-1.9-6,24.5,24.5,0,0,1,.38-5.78,1.37,1.37,0,0,1,2.73.21v.1a24,24,0,0,0,.32,5.05,8.79,8.79,0,0,0,1.73,4.06c1.7,2,4.83,2.52,8.12,2.34A60.24,60.24,0,0,0,511,329l5.19-1.32,2.62-.67,2.65-.61c3.55-.83,7.17-1.53,10.89-2.05a41.88,41.88,0,0,1,5.71-.44,30,30,0,0,1,5.89.38,19.24,19.24,0,0,1,10.74,5.47,16.63,16.63,0,0,1,3.27,5.09,16.88,16.88,0,0,1,1.32,5.84,1.36,1.36,0,0,1-2.71.28Z"/><path class="cls-5" d="M446.51,368.53a69.26,69.26,0,0,0-9.21,25.64,41.86,41.86,0,0,0-.39,6.71c0,1.12.12,2.22.19,3.33s.27,2.2.53,3.27a30.67,30.67,0,0,0,5.22,11.91c.63.88,1.35,1.71,2,2.55l1.13,1.19a9.57,9.57,0,0,0,1.16,1.12,25.58,25.58,0,0,0,5.21,3.67,37.63,37.63,0,0,0,12.47,3.86c8.86,1.14,18,.12,26.91-1.84l3.33-.8c1.11-.26,2.2-.62,3.3-.92,2.22-.57,4.38-1.34,6.57-2,4.32-1.54,8.63-3.15,12.81-5.08a145,145,0,0,0,24-13.66,135.91,135.91,0,0,0,21-18,114.63,114.63,0,0,0,16.42-22.27h0a1.37,1.37,0,0,1,2.43,1.27,111.52,111.52,0,0,1-15.87,23.72,133,133,0,0,1-21,19.39c-3.81,2.89-7.8,5.53-11.87,8s-8.29,4.78-12.63,6.82a120.66,120.66,0,0,1-27.15,9.51,81.12,81.12,0,0,1-29,1.41,43,43,0,0,1-14.19-4.76,30.75,30.75,0,0,1-6.17-4.56,12.49,12.49,0,0,1-1.34-1.35l-1.26-1.4c-.77-1-1.56-2-2.26-3a35.37,35.37,0,0,1-5.56-13.89c-.26-1.22-.33-2.47-.48-3.7s-.15-2.47-.1-3.71a46,46,0,0,1,.66-7.32,63.5,63.5,0,0,1,4.1-13.89,72.13,72.13,0,0,1,6.79-12.7,1.37,1.37,0,0,1,2.31,1.45Z"/><path class="cls-5" d="M458.68,341.17c-4.25-2-9.4-1.66-14.26-.74a57.39,57.39,0,0,0-14.13,4.95c-.55.27-1.18.56-1.66.84s-1,.55-1.53.88c-1,.62-2.06,1.35-3.09,2.07-2.08,1.47-4.17,3.06-6.45,4.54a31.91,31.91,0,0,1-7.62,3.87,14.82,14.82,0,0,1-2.31.55,12.74,12.74,0,0,1-2.51.18,13.82,13.82,0,0,1-4.82-1.09,14.37,14.37,0,0,1-7.16-6.46,12.52,12.52,0,0,1-1-2.34,9.09,9.09,0,0,1-.31-1.24l-.15-.85a1.53,1.53,0,0,0-.83-1.08,3.77,3.77,0,0,0-2.11-.44,3.65,3.65,0,0,0-2,.78,4,4,0,0,0-1.19,1.93,8,8,0,0,0-.19,2.93,17.44,17.44,0,0,0,.72,3.31c.18.56.39,1.1.6,1.69l.71,1.87a68.49,68.49,0,0,1,2.4,7.65,72.49,72.49,0,0,1,1.47,7.81,13.46,13.46,0,0,0,.85,3.36A11.27,11.27,0,0,0,394,379l0,0a1.37,1.37,0,0,1-2,1.9,13.5,13.5,0,0,1-2.74-3.38,16.48,16.48,0,0,1-1.45-4.06c-.61-2.59-1.15-5-2-7.38s-1.74-4.73-2.75-7.06l-.77-1.74c-.26-.62-.56-1.28-.81-1.94a22.3,22.3,0,0,1-1.17-4.24,13.13,13.13,0,0,1,.07-4.81,8.84,8.84,0,0,1,7.63-7,9.44,9.44,0,0,1,5.45.88A8.15,8.15,0,0,1,396,342a7.19,7.19,0,0,1,1.51,2.9l.24,1.06a4.26,4.26,0,0,0,.17.64,6.53,6.53,0,0,0,.54,1.25,9.24,9.24,0,0,0,4.22,3.77,7.8,7.8,0,0,0,2.73.67,9.05,9.05,0,0,0,2.85-.36,26.57,26.57,0,0,0,6.32-3c2.12-1.29,4.26-2.73,6.48-4.17,1.12-.72,2.26-1.44,3.48-2.11.6-.34,1.23-.67,1.9-1s1.24-.54,1.87-.81a61.75,61.75,0,0,1,15.51-4.41,38.73,38.73,0,0,1,8.18-.19,18.63,18.63,0,0,1,8,2.48,1.37,1.37,0,0,1-1.3,2.4Z"/><path class="cls-5" d="M435,351.78a69.22,69.22,0,0,1-14.57-2.93,44.46,44.46,0,0,1-7.09-2.92,21.1,21.1,0,0,1-6.58-5.12l-.68-.95-.6-1.05c-.18-.37-.33-.77-.49-1.15s-.24-.68-.33-1c-.36-1.22-.61-2.32-.93-3.33a10,10,0,0,0-1-2.4l-.1-.14a.39.39,0,0,1-.07-.09l-.42-.32c-.14-.1-.22-.11-.34-.2s-.05,0-.08,0l0,0a.08.08,0,0,0,0,0s0,0,0,0,0,0,0,0,0,0-.09,0a2.35,2.35,0,0,0-.63.72,13.37,13.37,0,0,0-1.18,2.83c-.17.56-.3,1-.48,1.72a13.1,13.1,0,0,1-.69,1.94,18.76,18.76,0,0,1-2,3.39,1.38,1.38,0,0,1-2.38-1.36v0a19.09,19.09,0,0,0,1.09-3.15,14.5,14.5,0,0,0,.27-1.55c0-.51.13-1.21.22-1.83a15.28,15.28,0,0,1,1.06-4,7.23,7.23,0,0,1,1.48-2.2A3.81,3.81,0,0,1,399,326a3.44,3.44,0,0,1,.75-.44,8.63,8.63,0,0,1,.86-.33c.3-.06.6-.1.9-.13a3.32,3.32,0,0,1,.86,0,7.89,7.89,0,0,1,.81.12,10.44,10.44,0,0,1,1.34.48c.38.2.74.37,1.13.62.22.15.44.32.64.48l.53.51a13.4,13.4,0,0,1,2.39,3.94c.53,1.25.94,2.47,1.3,3.55.09.26.18.55.26.71s.14.34.23.51l.29.52.37.52a17,17,0,0,0,4.56,4,46.28,46.28,0,0,0,6,3.18,114.69,114.69,0,0,0,13.29,4.83h0a1.37,1.37,0,0,1-.52,2.68Z"/><path class="cls-5" d="M510.65,277.05c-1.8,2.17-3.69,4.29-5.51,6.4a5.62,5.62,0,0,0-1.29,4.27c.06.67.12,1.33.21,2a36.7,36.7,0,0,0,4.77,14.73,26.82,26.82,0,0,0,4.6,5.78,22.39,22.39,0,0,0,6.26,4,30.34,30.34,0,0,0,7.54,2,56.18,56.18,0,0,0,8.12.47h0a1.38,1.38,0,0,1,.26,2.73,43.56,43.56,0,0,1-8.72.82A30.66,30.66,0,0,1,518,319a26.1,26.1,0,0,1-8.3-4.3,22.94,22.94,0,0,1-3.42-3.29,23.6,23.6,0,0,1-2.7-3.85,38.26,38.26,0,0,1-4.4-17.44c0-.74,0-1.48,0-2.22a10.21,10.21,0,0,1,.36-2.67,9.87,9.87,0,0,1,2.78-4.53c2.15-1.87,4.24-3.72,6.42-5.53a1.37,1.37,0,0,1,1.93,1.93Z"/><path class="cls-5" d="M345.66,190.69a162.09,162.09,0,0,0,8.1-25.92,104.94,104.94,0,0,0,2.4-26.81,121.61,121.61,0,0,0-4.15-26.6c-.51-2.19-1.24-4.34-1.88-6.5s-1.41-4.29-2.14-6.43-1.5-4.23-2.36-6.31-1.77-4.17-2.68-6.26c-1.83-4.19-3.69-8.41-5.36-12.75a99.53,99.53,0,0,1-4.26-13.43,43.87,43.87,0,0,1-1.12-14.52,27.66,27.66,0,0,1,1.88-7.38,26,26,0,0,1,4.11-6.54,33.39,33.39,0,0,1,12.32-8.33,45.6,45.6,0,0,1,28.75-2.08,47.22,47.22,0,0,1,13.39,5.81,185.5,185.5,0,0,0,49.27,21.61,165.24,165.24,0,0,0,26.52,4.86l6.73.51,6.75.23c2.25.06,4.5,0,6.75,0s4.5-.19,6.75-.33a170.88,170.88,0,0,0,26.73-4.08A181.9,181.9,0,0,0,548,41.22a197.45,197.45,0,0,0,24.43-11.88Q578.33,26,584,22.17a130.94,130.94,0,0,0,10.86-8.09l0,0a1.37,1.37,0,0,1,1.78,2.08,162.63,162.63,0,0,1-22.5,16.2A190.8,190.8,0,0,1,549.51,44.9a186.14,186.14,0,0,1-26.29,8.88,175.62,175.62,0,0,1-27.41,4.69c-2.31.18-4.63.33-7,.46s-4.65.17-7,.15-4.65-.05-7-.12l-7-.44a170.82,170.82,0,0,1-27.49-4.67,171.54,171.54,0,0,1-26.37-9.05c-4.29-1.81-8.45-3.89-12.59-6s-8.13-4.52-12.07-7a40.61,40.61,0,0,0-24.32-6.39,39.84,39.84,0,0,0-12.43,2.8,27.83,27.83,0,0,0-10.34,6.74,20.48,20.48,0,0,0-3.22,5,22.25,22.25,0,0,0-1.55,5.86,38.67,38.67,0,0,0,.88,12.73c1.89,8.6,5.51,17,9,25.39.88,2.12,1.76,4.24,2.62,6.4s1.65,4.39,2.34,6.58,1.49,4.38,2.08,6.63,1.32,4.44,1.82,6.72a125.84,125.84,0,0,1,3.83,27.6,107.58,107.58,0,0,1-3.1,27.66,165.18,165.18,0,0,1-8.86,26.22,1.37,1.37,0,0,1-2.53-1Z"/></svg>