<svg id="Layer_1" data-name="Layer 1" xmlns="http://www.w3.org/2000/svg" viewBox="0 0 960 560"><defs><style>.cls-1{fill:#60698c;}.cls-2{fill:#4a588c;}.cls-3{fill:#00c6a6;}.cls-4{fill:#00b394;}.cls-5{fill:#87b5ff;}.cls-6{fill:#5e9cff;}.cls-7{fill:#fff;}.cls-8{fill:#d5daed;}.cls-9{fill:#ffedef;}.cls-10{fill:#ffdee2;}.cls-11{fill:#ff4d62;}.cls-12{fill:#e04456;}.cls-13{fill:#233940;}</style></defs><title>rockets, people, person, avatar</title><path class="cls-1" d="M313.72,292A197,197,0,0,0,495.58,451.76l5.94.35c36.78,2.21,73.71,5.31,110.61,5.86q5.8-6.6,11.25-13.56c1-1.33,2.08-2.68,3.1-4,.86-1.13,1.71-2.27,2.54-3.42a258.21,258.21,0,0,0,20-32.06,224.79,224.79,0,0,0,18.5-47.28c25.78-98.43-54.82-200-148.41-222.17-43.57-10.32-84.83-2.36-127,10.1a275.77,275.77,0,0,0-35.53,13.16,234.13,234.13,0,0,0-39.7,22.67c-.73.52-1.47,1.05-2.19,1.59l-1.08.79c-.54.39-1.07.79-1.6,1.2-.7.51-1.39,1-2.08,1.6-.88.67-1.76,1.36-2.62,2.06q-1.71,1.36-3.39,2.78c-.8.66-1.59,1.34-2.38,2s-1.48,1.28-2.21,1.94c-.41.35-.81.71-1.21,1.09-1,.86-1.92,1.75-2.87,2.64q-1.79,1.68-3.53,3.41c3.37,13,8,25.79,11.31,38.76C307.29,258,310.79,275,313.72,292Z"/><path class="cls-2" d="M649,404.9A258.21,258.21,0,0,1,629,437c-.83,1.15-1.68,2.29-2.54,3.42-1,1.35-2.06,2.7-3.1,4a300.15,300.15,0,0,1-23.48,26.66q-5.19,5.23-10.63,10.17c-1.46,1.31-2.92,2.61-4.4,3.89s-3,2.54-4.47,3.79-3,2.47-4.55,3.68-3.07,2.4-4.62,3.58-3.13,2.33-4.71,3.46c-29.24,21-62.84,35.54-100.33,40.56-74.67,10-153.61-25.66-195.46-88.3-36.55-54.68-43.3-127.52-19.28-188.52a176.86,176.86,0,0,1,43.81-64.28c.95-.89,1.9-1.78,2.87-2.64.4-.38.8-.74,1.21-1.09.73-.66,1.47-1.31,2.21-1.94s1.58-1.37,2.38-2q1.68-1.41,3.39-2.78c.86-.7,1.74-1.39,2.62-2.06.69-.56,1.38-1.09,2.08-1.6.53-.41,1.06-.81,1.6-1.2l1.08-.79c.72-.54,1.46-1.07,2.19-1.59a44.79,44.79,0,0,0,13,14.06c11.72,8.08,26.31,9.78,40,6.82,18.79-4.06,37.33-9.55,56.51-4.33,8.81,2.4,18.31,6.12,25,12.46,5.34,5,9.1,11.52,13.54,17.3,11.06,14.39,26.35,22.25,42.78,29.2,14.9,6.3,29.47,13.71,42.62,23.17,13.32,9.59,26,21.78,31.72,37.5,5.06,13.81,6.23,29,12.79,42.29a46.13,46.13,0,0,0,13.65,16.62c7.18,5.4,15.7,7.66,23.38,12.09A52.91,52.91,0,0,1,649,404.9Z"/><path class="cls-3" d="M623.38,444.41c-1,1.27-2,2.54-3,3.8s-2,2.48-3.05,3.71c-.7.84-1.4,1.68-2.12,2.51-.85,1-1.72,2-2.6,3-.7.8-1.4,1.59-2.11,2.38-.21.25-.43.5-.66.74-.86,1-1.74,1.93-2.62,2.88-.41.45-.83.9-1.26,1.34-.62.68-1.25,1.35-1.9,2s-1.19,1.25-1.8,1.87-1.12,1.16-1.71,1.74c-.43.45-.88.91-1.35,1.36-.79.81-1.6,1.6-2.41,2.38s-1.82,1.79-2.74,2.65-2,1.86-3,2.78q-1.74,1.62-3.52,3.19T584,485.9c-.89.77-1.79,1.54-2.7,2.29-.3.26-.6.51-.91.75l-.37.31q-1.31,1.08-2.61,2.13-2.23,1.8-4.52,3.54c-1.21.94-2.44,1.86-3.67,2.77s-2.54,1.86-3.82,2.77l-.75.52a233.4,233.4,0,0,1-33.53,19.75,215,215,0,0,1-64.9,19.47A197.55,197.55,0,0,1,397.33,537a212.08,212.08,0,0,1-85.81-41q-2.84-2.27-5.59-4.62c-4.76-4.08-9.34-8.38-13.69-12.89A190.65,190.65,0,0,1,270.77,452l0-.06c-1.56-2.34-3.07-4.7-4.52-7.1a193.84,193.84,0,0,1-15.47-31.85l0-.05a210,210,0,0,1-13-86.42q.5-8.71,1.73-17.35.53-3.75,1.2-7.47a201.69,201.69,0,0,1,10.81-38.28c.57-1.44,1.16-2.88,1.77-4.29.28-.68.57-1.35.86-2q2.34-5.33,5-10.4a171.91,171.91,0,0,1,8.74-14.93,181.36,181.36,0,0,1,27.45-32.64,517.26,517.26,0,0,1,58.44,20l1.7.7q2.47,1,4.92,2.06l3.1,1.33q12.38,5.36,24.16,11.18l.27.13q12.84,6.33,25,13.13,4.42,2.48,8.77,5,12.44,7.25,24.1,14.87l2.72,1.79q5.61,3.7,11,7.47a626.21,626.21,0,0,1,91.93,78.05q1.88,1.92,3.7,3.83C600.52,406.07,623.38,444.41,623.38,444.41Z"/><path class="cls-4" d="M379.92,493.46a35.28,35.28,0,0,1,8.71-.35,100.49,100.49,0,0,0-3.17-15.81,74.37,74.37,0,0,0-10.11-21l-10.68.43c-3.86.15-8.12.46-11.75-1.11-4.27-1.86-5-6.52-6-10.58a44.46,44.46,0,0,0-8.12-17.2,39.2,39.2,0,0,0-3.34-3.74,41,41,0,0,0-44.59-8.87,41.35,41.35,0,0,0-24.72,29.54c1.45,2.4,3,4.76,4.52,7.1l0,.06a190.65,190.65,0,0,0,21.47,26.57c4.35,4.51,8.93,8.81,13.69,12.89-.36-.31-.2-3.21-.26-3.78q-.24-2.28-.68-4.53a57.21,57.21,0,0,0-2.41-8.6c-2-5.37-4.8-10.27-7.28-15.39-1.9-3.91-3.45-8.1-3.51-12.45A16.62,16.62,0,0,1,292,444a13.21,13.21,0,0,1,4.92-8.78,7.15,7.15,0,0,1,3.9-1.51,5.43,5.43,0,0,1,5.18,3.53,10.63,10.63,0,0,1,.32,4.07c-.32,6.07-1.73,12.2-1.22,18.29a32,32,0,0,0,6.39,15.94,67.42,67.42,0,0,0,26.27,21.15q.9.4,1.8.75c10.43,4.11,22.07,3.26,32.27-1.4A32.84,32.84,0,0,1,379.92,493.46Z"/><path class="cls-5" d="M531.09,520.73a215,215,0,0,1-64.9,19.47A197.55,197.55,0,0,1,397.33,537c-4.21-.93-5.67-19-6.21-22.31A209.34,209.34,0,0,1,388.49,486c-.08-3.84,1.92-7,6.28-6.23,13.75,2.52,28.25,4,41.69,7.84,9,2.57,14,8.95,17.6,16.6l1.06-.13c6.69,6.35,15.65,10.37,24.82,10.3,15.37-.11,31-11.26,45.39-.53A17.85,17.85,0,0,1,531.09,520.73Z"/><path class="cls-4" d="M580.36,488.94l-.37.31q-1.31,1.08-2.61,2.13-2.23,1.8-4.52,3.54c-1.21.94-2.44,1.86-3.67,2.77s-2.54,1.86-3.82,2.77l-.75.52a45.74,45.74,0,0,1-21.19-30.39,41.91,41.91,0,0,1-.59-11.88c.51-5,2.53-10.29,2-15.33-.48-4.31-3.56-8.4-7.87-5-3.76,3-4.48,8.57-5.69,12.91C527.13,466,519.39,480,506.49,488.78c-14.27,9.68-33.06,12.65-49.78,15l-1.59.22a36.8,36.8,0,0,1-9-13.3c-4.82-12.43-.34-25.24,2.39-38,14.55-1.26,28.78-4.12,41.17-12.72,15.72-10.92,25-28,39.46-40.14,13.23-11.07,33.6-12.5,42.22,4.81,3.58,7.19,4.57,15.2,5.37,23.08q1.7,16.65,2.62,33.37Q580.1,475.05,580.36,488.94Z"/><path class="cls-6" d="M388.64,493.11a45.16,45.16,0,0,1,12.21,2.75,53.9,53.9,0,0,1,5.52,2.43,64.88,64.88,0,0,0,33,7.24c5.25-.3,10.51-.79,15.79-1.5a36.8,36.8,0,0,1-9-13.3c-4.82-12.43-.34-25.24,2.39-38-5.51.48-11.07.73-16.59,1-18.84.84-37.68,1.78-56.52,2.57a74.37,74.37,0,0,1,10.11,21A100.49,100.49,0,0,1,388.64,493.11Z"/><path class="cls-5" d="M450.22,439.68a68.19,68.19,0,0,1-1.75,13.1c-5.51.48-11.07.73-16.59,1-18.84.84-37.68,1.78-56.52,2.57A79.65,79.65,0,0,0,360,439.69a73.73,73.73,0,0,0-21.13-11.82,118.79,118.79,0,0,0-25.56-6c-9.45-1.26-19.36-1.95-29.26-3-11.34-1.15-22.67-2.71-33.32-6a210,210,0,0,1-13-86.42q.5-8.71,1.73-17.35.53-3.75,1.2-7.47a201.69,201.69,0,0,1,10.81-38.28c.57-1.44,1.16-2.88,1.77-4.29.28-.68.57-1.35.86-2q2.34-5.33,5-10.4a171.91,171.91,0,0,1,8.74-14.93l10.49,2.92c16,4.46,34.51,7.43,48.73,16.55,12.73,8.17,17.58,20.77,19.38,34.86.19,1.52.34,3.06.47,4.62.67,8.17.81,16.35,2.57,24.38a86.58,86.58,0,0,0,8.21,22.29,88.25,88.25,0,0,0,22.52,27.21,81.45,81.45,0,0,0,9.4,6.51c14.6,8.68,31.54,13.71,43.68,26.13A60.17,60.17,0,0,1,450.22,439.68Z"/><path class="cls-7" d="M558.55,362.27c1.57-2.74,4.87-4,7.81-1.6,3.38,2.71,4.85,7.72,7,11.31,5.56,9.1,14.91,12.9,23.55,18.36,14.66,9.27,22.05,27,19.85,43.87A583.2,583.2,0,0,0,558.55,362.27Z"/><path class="cls-4" d="M425.54,302.41a300.87,300.87,0,0,1,24.67-31.93l-1.8-1.2-2.72-1.79q-11.67-7.61-24.1-14.87-4.33-2.53-8.77-5a53.05,53.05,0,0,0-12.12,8.27c-6.13,5.54-10.73,12.3-15.51,19-2.23,3.12-4.7,6.41-7.91,8.6-3.68,2.51-7.33,2.09-11.46,1.1a49.41,49.41,0,0,0-7.73-1.46c-1.91-14.55-6.24-29.12-3.31-43.61,1.29-6.38,4-12.1,8.64-16.32l-3.1-1.33q-2.45-1-4.92-2.06l-1.7-.7a35.77,35.77,0,0,0-7,12c-3.21,9.07-3.2,18.75-2.09,28.2.75,6.38,2,12.7,2.9,19.06.47,3.16.88,6.34,1.13,9.53.12,1.49.23,3,.25,4.48a20.94,20.94,0,0,0,.14,4.51,3.46,3.46,0,0,1-1.43,3.73l0,0a100.67,100.67,0,0,0,1.87,14.44,86.58,86.58,0,0,0,8.21,22.29,88.25,88.25,0,0,0,22.52,27.21c4.89-2.86,9.55-5.5,12.7-8.2,10.35-8.87,14.49-21.2,20.43-33A207.81,207.81,0,0,1,425.54,302.41Z"/><path class="cls-6" d="M409.16,422.13c-2-6.7-8.29-11.53-14.05-14.9-6.24-3.65-13.21-5.82-19.63-9.1a39.68,39.68,0,0,1-9.35-6.26,14.28,14.28,0,0,1-1.25-1.38,12.05,12.05,0,0,1,1.48-16.69l.1-.09c1.27-1.09,12.63-10,13.72-9.15a88.25,88.25,0,0,1-22.52-27.21,86.58,86.58,0,0,1-8.21-22.29,100.17,100.17,0,0,1-1.85-14.13c-5.29,5.17-6.32,11.53-7.73,18.85-.83,4.31-2.5,9.21-7.34,10.22-3.11.65-8.54-.43-9.11-4.21-.64-4.26,4.37-7.16,6.1-10.47,4.56-8.73-4.34-18.2-11.69-21.58-5.73-2.63-12-3.81-17.87-6.07a54.44,54.44,0,0,1-15.86-9.92c-5.29-4.51-10-7-16.93-8-5.15-.71-11.45-1.75-16.5-4.39a201.91,201.91,0,0,0-10,36.26q-.68,3.72-1.2,7.47-1.23,8.63-1.73,17.35c8.87,1,16.4,8.47,22.07,15.39,7.18,8.78,13.66,18.59,23.85,24.19a41.5,41.5,0,0,0,15.51,4.52c6,.71,12.6.51,18.14,3.33,7.23,3.69,10.34,11,11.83,18.84-.9,5.15.19,11,1.66,15.9a4.78,4.78,0,0,0,.66,1.34c.7,12.5,11.08,21.85,23.19,25.37,8.08,2.35,16.72,2.65,25.05,3.32,7,.56,15.58,2.6,22.36-.27C408.42,435.7,411.08,428.67,409.16,422.13Zm-25.24,11c-10.88-1.17-19-6.47-28.11-12.66s-22.76-15.69-16.16-27.38c2.56-4.53,7.52.29,9.69,3.42a5.24,5.24,0,0,0,2.64,2,93.89,93.89,0,0,1,16.14,6.67,116.17,116.17,0,0,0,12,5.67,87.8,87.8,0,0,1,8.66,4.22c3.64,2,11.36,6.21,11.09,11.34C399.47,433.07,392,434,383.93,433.14Z"/><path class="cls-7" d="M599.44,380.19c-5.46-3.19-11.83-5.88-15.87-11-3.77-4.75-5.32-10.9-9.72-15.25a15.63,15.63,0,0,0-22.46.82,14.17,14.17,0,0,0-3.32,7.21,4.84,4.84,0,0,0-.07.64,39.5,39.5,0,0,0-10,10.05c-1.18-3-5.24-4.94-8.29-2.08-15.43,14.46-31.14,28.85-49,40.32-14.92,9.6-31.47,21.1-50,21-5.51,0-11.14-1.48-15.44-4.92-4.08-3.27-6.58-8-10.56-11.4-4.68-4-10.76-5.76-16.29-8.17-9.27-4-20-6.77-27.46-14-11-10.67.11-23.43,10.93-28.81,12.59-6.27,16.83-17.27,23.61-29.62,9.33-17,12.05-38.74,27.5-50.42a164.89,164.89,0,0,1,18.29-11.81c5-2.8,10.29-5.07,12.46-10.78,2.57-6.78.32-14.13-4.06-19.61-5-6.29-12.53-9.51-19.93-12.17C420.85,227,411.91,224,403,220.86,389.15,216,370.53,207,357.3,218a22.9,22.9,0,0,0-1.9,1.77c-9.26,9.68-7.93,25.28-7,37.65q1,12.78,2.36,25.53c.85,8.09,2.45,16-.89,23.76-2.11,4.91-5.52,9-8.18,13.6-2.36,4-5,8.38-9.33,10.58a12.7,12.7,0,0,1-15.67-3.54c-3.77-4.89-2.68-11.25-4.12-16.93-1.26-5-6.42-9.86-11-7.55-1.8.92-3,2.78-5.12,3.19a2.6,2.6,0,0,1-2.32-.63c-.9-.89-.6-1.93-.3-2.87,1.56-4.86,3.76-10.41,9.45-10.92a10.3,10.3,0,0,1,7.41,2.53,24.21,24.21,0,0,1,8.37,14.7c.48,3,.39,6.12,1.14,9.07,0,0,0,.06,0,.09a5.09,5.09,0,0,0,9.47.87,26,26,0,0,0-25.26-37.82c-7.76.61-15.89,4.6-22.94,1.3-4.57-2.15-7.31-6.83-9.75-11.25s-5.17-9.11-9.73-11.27a14.43,14.43,0,0,0-8.87-.78c-.61,1.41-1.2,2.85-1.77,4.29a201.69,201.69,0,0,0-10.81,38.28q-.68,3.72-1.2,7.47c12.13,2.83,23,6.37,25.33,10.3,5.16,8.69,8.57,18.4,14.45,26.62,9,12.67,23.51,20.86,38.83,23.93a5.82,5.82,0,0,1,4.69,5.19A40.83,40.83,0,0,1,320.85,391l-.12.37a15.24,15.24,0,0,1-15.37,10.46c-16.65-.83-33.44,4.2-49.21,9.28-1.78.57-3.59,1.18-5.41,1.82a192.67,192.67,0,0,0,20,38.95l0,.06a190.65,190.65,0,0,0,21.47,26.57c8.27-8.27-9.54-24.57-1.83-36.74a11.86,11.86,0,0,1,.79-1.11,14.42,14.42,0,0,1,3.43-3.23l0,0a14.15,14.15,0,0,1,11.47-2l.42.1a15.88,15.88,0,0,1,4.48,2.09l.1.06c3.54,2.38.9,4.87-.3,8.38-.1.28-.19.57-.28.86-1.82,5.61-2.89,12.13-.13,18,3.22,6.88,10.53,14.41,17.24,16.87,7.33,2.68,15.36-1.43,22.82-2.71,8.66-3.31,17.7-5.79,27-5.47,10.63.35,20.41,4.92,30.05,9,20.84,8.8,40.69,9.56,62.22,3.44,11.67-3.31,24.42-6.44,33.57-14.88,11-10.16,13.11-24.64,17.5-38.22,4.53-14,14.95-26.58,27.26-34.47,2.8-1.8,6-3.43,9.3-2.94,17.35,2.61,12,30,7.73,40.46-5.71,13.84-15,27.59-13.4,43.1a27.1,27.1,0,0,0,13.62,21.37c1.28-.91,2.56-1.83,3.82-2.77s2.46-1.83,3.67-2.77q2.28-1.74,4.52-3.54,1.31-1,2.61-2.13c.43-.35.86-.7,1.28-1.06.91-.75,1.81-1.52,2.7-2.29q1.8-1.55,3.57-3.12t3.52-3.19c1-.92,2-1.84,3-2.78,1.23-1.15,2.45-2.34,3.67-3.59.49-.45,1-.93,1.44-1.4s.95-.94,1.39-1.4,1.16-1.16,1.71-1.74,1.21-1.24,1.8-1.87,1.28-1.34,1.9-2c.43-.44.85-.89,1.26-1.34.88-1,1.76-1.91,2.62-2.88.23-.24.45-.49.66-.74.71-.79,1.41-1.58,2.11-2.38.88-1,1.75-2,2.6-3,.72-.83,1.42-1.67,2.12-2.51,1-1.23,2-2.46,3.05-3.71a4.81,4.81,0,0,0,4.32-3.45C632.67,420.18,621.51,393.07,599.44,380.19Zm-210.31,59.7a84.82,84.82,0,0,1-21.36-6.66c-9.33-4.33-16.53-5.89-23.13-13.35l-.39-.44a47.83,47.83,0,0,1-12-36.57q.28-3.11.34-6.21a5.74,5.74,0,0,1,5.26-5.58,6,6,0,0,1,6.43,5.65,38.28,38.28,0,0,0,20.72,32c11,5.69,23.72,7.25,32.15,17.07l.11.13C402.37,432,397,441.24,389.13,439.89Z"/><path class="cls-7" d="M620.85,261.1c4.66-36.48-23-57.37-51.34-57.37s-55.72,36.3-55.72,64.65S532.66,316,561,316C596.28,316,617.26,289.23,620.85,261.1Z"/><path class="cls-8" d="M423.69,320.68c-15.68-.43-22.36-9.3-22.36-9.3-8,7.75-17.85,3-17.85,3-5.89,7.29-19.83,13.08-19.83,13.08-.22-13.12,11.71-27,11.71-27-3.05-3.4-6.05-8.81-9-15.48-14.7-33.84-26.57-100.08-26.57-100.08l29-24.32s41-40.5,53.17,18.5c8.28,40.2-.42,80.51-6.8,102.12-3,10.11-5.47,16.13-5.47,16.13C425.68,307.11,423.69,320.68,423.69,320.68Z"/><path class="cls-9" d="M715.25,153.79c-21.78,95-164.72,238.17-211.72,254.6l-.08,0-.06,0a89.6,89.6,0,0,1-16.72,4.23c-9.67,1.38-17,.19-22.49-2.66a25.88,25.88,0,0,1-10.73-10.53c-3-5.18-4.55-11.27-5.41-17.23-.29-2.06-.5-4.11-.65-6.09,0-.33-.05-.66-.07-1a119.59,119.59,0,0,1,1.23-22.66,280.72,280.72,0,0,1,6.2-31.17c2.49-16.18,5.66-31.67,9.33-46.41A535.92,535.92,0,0,1,523.69,130.2c5.11-8.51,9.66-15.46,13.28-20.75,1.42-2.09,2.7-3.92,3.82-5.48,1.8-2.52,3.17-4.35,4-5.44l.21-.28,0,0,.7-.9,4.11,1.37c.19.06.38.11.56.18L574.81,107l121,40.34Z"/><path class="cls-6" d="M364.48,121.46c-9.11,7.93-24.64,26.83-24.64,63.47,0,0,18.28,35.68,82.2-5.82,0,0-7.1-63.57-40-64.31A26,26,0,0,0,364.48,121.46Z"/><path class="cls-2" d="M416.23,235c0-13.11-8.4-23.92-24.64-22.08-11.23,1.27-20.47,10.63-20.47,23.73s8,23.93,22.56,23.19C405.72,259.26,416.23,245.84,416.23,235Z"/><path class="cls-1" d="M411.77,235c0-13.11-8.4-23.92-24.64-22.08-11.23,1.27-20.47,10.63-20.47,23.73s13.3,20.42,24.61,20.42C403.34,257.11,411.77,245.84,411.77,235Z"/><path class="cls-8" d="M407.31,230.08c-.93-6.92-5.53-12.14-15.59-11-6.78.77-15.55,11.86-15.17,22,.24,6.27,3.43,11.65,9.61,13.49C401.43,259.17,409,243,407.31,230.08Z"/><path class="cls-10" d="M619.52,260.32c4.91-36.21-25-56.59-54.9-56.59s-50.83,30.84-50.83,59,17.47,47.79,47.36,47.79C598.32,310.49,615.74,288.23,619.52,260.32Z"/><path class="cls-1" d="M611.93,259.87c4.25-33.28-21.44-56.15-47.3-56.15s-50.83,33.11-50.83,59S535.55,306,561.42,306C593.58,306,608.65,285.53,611.93,259.87Z"/><path class="cls-6" d="M423.69,320.68c-15.68-.43-22.36-9.3-22.36-9.3-8,7.75-17.85,3-17.85,3-5.89,7.29-19.83,13.08-19.83,13.08-.22-13.12,11.71-27,11.71-27-3.05-3.4-6.05-8.81-9-15.48,2.89,2.08,31.22,8.62,51.83-15.4-3,10.11-8.47,27.75-8.47,27.75C425.68,307.11,423.69,320.68,423.69,320.68Z"/><path class="cls-11" d="M545.36,379.47l0,0-.43.34-.29.23-.22.17c-4.29,3.36-22,17.13-33.7,24.33l-.25.15a51.24,51.24,0,0,1-6.72,3.58l-.24.1h-.05s-.07,0,0,.06a113.66,113.66,0,0,1,3.14,16.21c0,.09,0,.26,0,.35,1.13,10,1,22.1-4.42,29.1,0,0,0-.06,0-.06a.87.87,0,0,0,0-.41,2.14,2.14,0,0,0-.12-.36,1.63,1.63,0,0,1-.08-.2,3.68,3.68,0,0,0-.19-.4l-.21-.41-.21-.38-.26-.47a.46.46,0,0,1-.06-.12.4.4,0,0,1,0-.09c-.6-1.36-1.32-3.06-2.08-4.86-2.72-6.46-6-14.4-6-14.4l-7.7-17.43.35-.44a43.75,43.75,0,0,1-16.83-.85,29,29,0,0,1-5.61-2,29.46,29.46,0,0,1-10.78-8.8l-34.86,8.38c7.07-15.9,17.84-23.89,28.27-27.73l.35-.13s-22.6-13-21.84-15.59c12.87-16.46,24.3-14.81,24.3-14.81.14-1,.28-2,.43-3,1.69-12.06,3.83-23.9,6.05-35.89,2.39-13,5.86-25.87,9-38.67L470.93,250l.09-.32,0-.08,3.58-8.51c-.21.72-11.7,44.95-7.21,66a81.87,81.87,0,0,0,5.47,16.7C482.29,344.59,502.74,366.34,545.36,379.47Z"/><path class="cls-10" d="M713.25,158.54c-9.49,16-20.54,26.56-35.57,32.1-26.69,9.85-58,7.51-84.12-2.91l-.48-.19c-36.72-14.75-78.44,4.84-89.68,42.78a105.5,105.5,0,0,0-4.6,35.09c.87,17.13,19.89,41.85,2.19,50.89-7.7,3.93-14.56,1.32-23.35,4.76a18.19,18.19,0,0,0-4.75,2.76,81.87,81.87,0,0,1-5.47-16.7c-4.49-21,7-65.27,7.21-66L471,249.63A534.3,534.3,0,0,1,523.69,130.2c5.11-8.51,9.66-15.46,13.28-20.75,1.42-2.09,2.7-3.92,3.82-5.48l.68-.14a37.64,37.64,0,0,1,3.33-5.3l.21-.28,0,0a9.29,9.29,0,0,1,4.81.47c.19.06.38.11.56.18L551,99,574.81,107l114.68,38.29c1.61.53,3.33,1.15,4.25,2.57.08.12.15.25.22.37C694.79,149.85,714.21,156.94,713.25,158.54Z"/><path class="cls-11" d="M726.18,116a289.41,289.41,0,0,1-10.93,37.74,52.05,52.05,0,0,1-42.55,34c-11.93,1.46-27.38.75-47.17-4.28-48-12.18-72.05-47.27-81.52-65.2a19.5,19.5,0,0,1,1.74-21C557.41,82.07,578.72,62,603.17,46c5.35-3.5,10.85-6.81,16.43-9.82,30.12-16.31,62.61-24.28,86.71-9.34,15.45,9.59,22,25.91,23.62,44.18C731.2,85.65,729.29,101.46,726.18,116Z"/><path class="cls-12" d="M726.26,116.06a207.84,207.84,0,0,1-8.45,30.75c-3.76,10.47-8.59,20.95-16.83,28.43-11.95,10.85-29.21,13.7-45.34,13.1-42.77-1.59-84.11-25.35-107-61.51-4.91-7.76-9.58-18.49-4.65-27.39s14.68-17,21.93-23.95a251.72,251.72,0,0,1,31.83-25.8c10.6-7.24,24.29,3.47,19.57,15.41l-.11.28c-3.68,9.21-8.76,18-10.86,27.65-3.83,17.66,3.33,37,17,48.74s33.23,16,50.87,12.07,33.19-15.56,43-30.76S731.14,89.36,730,71.33A208.35,208.35,0,0,1,726.26,116.06Z"/><path class="cls-12" d="M467.72,307.06a71.3,71.3,0,0,0,4.92,16.83,26.91,26.91,0,0,0-8.33,15.17,47.14,47.14,0,0,0,.28,17.52,55.51,55.51,0,0,1,1.4,9.86c0,3.33-.93,6.81-3.32,9.12-1.2,1.16-2.86,2.82-1.82,4.12L448.53,382a9,9,0,0,1-3,.22,8.84,8.84,0,0,1-3.12-1.36Q434,375.76,426.12,370a3.3,3.3,0,0,1-1.48-1.77c-.25-1.15.79-2.21,1.9-2.61,3.93-1.44,8.33,2.32,12.29,1,3.39-1.16,5-5.63,8.46-6.39q5-29.09,10.85-58c2.12-10.56,4.32-21.12,7-31.56,1.35-5.26,2.81-10.5,4.44-15.68q1.22-3.89,2.58-7.73c.43-1.23.86-2.46,1.34-3.68.56-1.42,1-1.81.78-.05-.41,3.22-1.62,6.52-2.36,9.69s-1.48,6.48-2.14,9.74a168,168,0,0,0-2.89,19.69A100,100,0,0,0,467.72,307.06Z"/><path class="cls-13" d="M611.59,241.57a71.84,71.84,0,0,1,.49,24.51,30.87,30.87,0,0,1-.63,3l-.35,1.51a11.14,11.14,0,0,1-.41,1.5l-1,3a10.5,10.5,0,0,1-.55,1.45l-.62,1.43a48,48,0,0,1-2.83,5.55c-.53.9-1.16,1.73-1.74,2.59l-.89,1.29c-.31.42-.66.8-1,1.2l-2,2.39-2.23,2.18c-.38.36-.74.74-1.12,1.08l-1.21,1c-.81.65-1.61,1.32-2.43,1.94l-2.59,1.73-1.3.86-1.36.75L585.12,302c-.93.45-1.88.84-2.82,1.27A52.73,52.73,0,0,1,570.47,307a57.47,57.47,0,0,1-12.38,1,55.71,55.71,0,0,1-12.3-1.87,50.67,50.67,0,0,1-11.53-4.76A43.92,43.92,0,0,1,517,283.47a44.42,44.42,0,0,1-4.16-11.85,49.3,49.3,0,0,1-.82-12.49,61.87,61.87,0,0,1,6.54-23.88,68,68,0,0,1,14.76-19.86,52.45,52.45,0,0,1,21.62-12.34,40.94,40.94,0,0,1,12.59-1.39c1.06.09,2.13.16,3.17.27l3.07.47c1,.13,2,.4,3.05.6s2,.43,3,.73a62.27,62.27,0,0,1,22.32,10.91A55.9,55.9,0,0,1,617.85,234a53.07,53.07,0,0,1,5.43,24.36,56.48,56.48,0,0,1-5.92,24.23,65,65,0,0,1-15.17,19.75,68.58,68.58,0,0,1-21.38,12.73,29,29,0,0,1-3,1l-3,.91-3.06.69a29,29,0,0,1-3.08.59,54.66,54.66,0,0,1-6.24.68c-1,0-2.09.14-3.14.15l-3.15-.09-1.57,0-1.57-.18-3.13-.37c-1-.13-2.06-.41-3.1-.61s-2.07-.38-3.07-.71l-3-.92c-.5-.16-1-.29-1.5-.48l-1.46-.59-2.92-1.18c-1-.44-1.88-.93-2.82-1.39a67.88,67.88,0,0,1-10.59-6.7,72.31,72.31,0,0,1-9.09-8.59,69.31,69.31,0,0,1-13-21.24,65.8,65.8,0,0,1-4.53-24.55,84.43,84.43,0,0,1,.93-12.4,122.28,122.28,0,0,1,2.37-12.1c1.95-8,4.48-15.68,7-23.33l3.81-11.47c1.3-3.84,2.66-7.65,4.08-11.45q4.24-11.4,9.21-22.51a353.41,353.41,0,0,1,22.82-43c4.29-6.9,8.92-13.59,13.8-20.1a244.07,244.07,0,0,1,15.58-18.81,204.83,204.83,0,0,1,37-31.94,200.69,200.69,0,0,1,21.21-12.27,157.59,157.59,0,0,1,22.76-9.32,96.43,96.43,0,0,1,24.43-4.62,63.49,63.49,0,0,1,12.66.72,45.17,45.17,0,0,1,12.28,3.82A42.42,42.42,0,0,1,715.48,30a39.5,39.5,0,0,1,7.88,10.33c4.1,7.63,5.88,16.06,6.5,24.37A190.19,190.19,0,0,1,727,113.52a141.86,141.86,0,0,1-6.63,23.72,110.56,110.56,0,0,1-5.2,11.27A100.19,100.19,0,0,1,708.55,159a77.37,77.37,0,0,1-17.65,17.61A66,66,0,0,1,668.11,187l-3.07.64c-.51.1-1,.22-1.53.31l-1.55.23-3.09.44-3.11.27-1.55.13-1.56,0-3.11.09-3.11-.07c-1,0-2.07-.05-3.1-.15a105.41,105.41,0,0,1-24.27-4.57,120.72,120.72,0,0,1-42.92-23.63c-1.54-1.37-3.1-2.71-4.55-4.17-.73-.72-1.49-1.42-2.2-2.17l-2.11-2.26c-.72-.74-1.39-1.53-2-2.32l-2-2.37L561.33,145l-.94-1.23-.88-1.28-1.74-2.57c-.55-.88-1.07-1.77-1.61-2.66-1.11-1.75-2-3.64-3-5.47a16.18,16.18,0,0,0-7.16-7.5c-6.18-3.38-14.67-2-19.2,3.44-.28.34-.6.65-.86,1l-.72,1.12c-.48.68-1,1.62-1.46,2.49l-2.93,5.28L515,148.16a460.51,460.51,0,0,0-21.14,43.15c-3.15,7.36-5.95,14.86-8.65,22.4-1.26,3.8-2.61,7.57-3.79,11.4s-2.43,7.63-3.48,11.5-2.23,7.7-3.18,11.59-2,7.75-2.91,11.67l-1.36,5.86-.68,2.93-.59,2.9a101.25,101.25,0,0,0-1.52,11.73,90,90,0,0,0,9,45.92,79.28,79.28,0,0,0,32,33.88c3.44,1.9,7.06,3.65,10.7,5.28s7.34,3.15,11.08,4.57c7.48,2.83,15.12,5.25,22.85,7.33a1.37,1.37,0,0,1-.7,2.65c-15.65-4.12-31-9.49-45.43-17.14a82.09,82.09,0,0,1-19.42-15,83.19,83.19,0,0,1-14.17-20A93,93,0,0,1,464,283.07a105,105,0,0,1,1.52-12.2l.6-3,.67-3,1.34-5.91C469,255,470,251.15,471,247.23s2.09-7.81,3.15-11.7,2.3-7.75,3.45-11.63,2.52-7.69,3.77-11.53c2.69-7.63,5.48-15.23,8.63-22.69A464.81,464.81,0,0,1,511.11,146l5.78-10.62,2.9-5.29c.49-.89.92-1.74,1.58-2.72l.92-1.42c.33-.46.73-.87,1.09-1.3a15.41,15.41,0,0,1,1.15-1.25l1.29-1.12.65-.55.71-.47,1.44-.92c.49-.3,1-.5,1.53-.75a11.81,11.81,0,0,1,1.57-.66,19.77,19.77,0,0,1,3.29-.86c.56-.09,1.12-.19,1.68-.26l1.7-.06.85,0c.28,0,.56,0,.85.07l1.69.16c.56.07,1.11.23,1.66.34a11.61,11.61,0,0,1,1.64.44,19.52,19.52,0,0,1,3.13,1.32,21,21,0,0,1,9.28,9.59c.94,1.71,1.76,3.48,2.82,5.12l1.53,2.5,1.66,2.42.83,1.21.9,1.16,1.79,2.33,1.91,2.23c.63.75,1.27,1.49,2,2.19l2,2.14c.68.71,1.41,1.37,2.11,2.06,1.39,1.39,2.89,2.66,4.36,4a115.67,115.67,0,0,0,41.21,22.41,100.31,100.31,0,0,0,23.09,4.23c1,.09,2,.12,2.93.13l2.93.06,2.92-.1,1.46,0,1.45-.13,2.9-.26,2.88-.42,1.44-.21c.48-.09.95-.2,1.42-.3l2.84-.6a60.46,60.46,0,0,0,20.88-9.57A71.82,71.82,0,0,0,704,155.75a94.67,94.67,0,0,0,6.19-9.91,105,105,0,0,0,4.87-10.66,136.35,136.35,0,0,0,6.26-22.75,184.39,184.39,0,0,0,2.58-47.32,65.49,65.49,0,0,0-1.82-11.38,46.24,46.24,0,0,0-4-10.57,33.47,33.47,0,0,0-6.68-8.78,36.39,36.39,0,0,0-9.2-6.22c-6.71-3.26-14.44-4.26-22.1-4a90.54,90.54,0,0,0-22.88,4.35,151.64,151.64,0,0,0-21.88,9,194.68,194.68,0,0,0-20.57,11.9,198.89,198.89,0,0,0-35.92,31,265.12,265.12,0,0,0-28.87,38,347.68,347.68,0,0,0-22.6,42.18q-4.92,10.93-9.16,22.15c-1.41,3.74-2.77,7.5-4.07,11.28l-3.85,11.43c-2.57,7.62-5.08,15.2-7,22.87A117,117,0,0,0,501,239.84a79.09,79.09,0,0,0-.92,11.65,63,63,0,0,0,16.1,42.39,67.3,67.3,0,0,0,8.4,8,62.89,62.89,0,0,0,9.76,6.22,52.82,52.82,0,0,0,22.1,6c15.43.79,31-5.15,42.66-15.31a60.35,60.35,0,0,0,14.13-18.24,51.9,51.9,0,0,0,5.54-22.26,48.57,48.57,0,0,0-4.89-22.35,51.49,51.49,0,0,0-14.39-17.87,58,58,0,0,0-20.73-10.22c-.93-.28-1.88-.49-2.84-.69s-1.9-.45-2.87-.58l-2.89-.46c-1-.11-1.89-.17-2.84-.26A36.74,36.74,0,0,0,556,207.08,48.35,48.35,0,0,0,536,218.39,64,64,0,0,0,522.1,237a58.54,58.54,0,0,0-6.27,22.34,42.48,42.48,0,0,0,4.41,22.41A40.29,40.29,0,0,0,536,298.24a47.19,47.19,0,0,0,10.7,4.5,52.32,52.32,0,0,0,11.51,1.82A51.22,51.22,0,0,0,581,300.29c.9-.4,1.8-.77,2.69-1.18l2.58-1.39,1.29-.69,1.23-.8,2.45-1.61c.78-.58,1.53-1.21,2.29-1.81l1.14-.91c.37-.32.7-.67,1.06-1l2.1-2,1.89-2.22c.31-.37.64-.73.94-1.12l.83-1.2c.54-.81,1.14-1.57,1.64-2.41a45.07,45.07,0,0,0,2.68-5.18l.59-1.34a9.4,9.4,0,0,0,.53-1.36l.93-2.78a10,10,0,0,0,.4-1.41l.34-1.43a28.56,28.56,0,0,0,.61-2.87,69.05,69.05,0,0,0-.33-23.52h0a1.37,1.37,0,0,1,2.69-.48Z"/><path class="cls-13" d="M458.64,302.82c-2.13,13-4.5,25.93-6.43,38.91a335.34,335.34,0,0,0-3.85,39l-.07,2.43c0,.77,0,1.53.05,2.29a28.47,28.47,0,0,0,4.1,12.93,27.33,27.33,0,0,0,13.67,11.4,35.26,35.26,0,0,0,8.94,2,41.86,41.86,0,0,0,9.27-.15A58.47,58.47,0,0,0,502.24,406l-.75.53a2.7,2.7,0,0,1,.75-.53l-.11.05a2.69,2.69,0,0,0-1.12,1.16l1.57-1.36.08,0-.21.08,3.7-2c1.29-.72,2.6-1.35,3.87-2.15,2.55-1.53,5-3.14,7.44-4.82,4.87-3.36,9.62-7,14.39-10.63l7.07-5.55,3.53-2.78,3.45-2.78q7-5.67,13.71-11.56t13.34-12c4.39-4.05,8.7-8.2,13-12.37,8.53-8.36,16.78-17,24.86-25.89s16-17.84,23.68-27,15.25-18.5,22.5-28,14.36-19.2,21-29.16,13.1-20.06,18.78-30.58h0a1.37,1.37,0,0,1,2.43,1.28c-11,21.51-24.5,41.63-38.81,61-7.13,9.72-14.55,19.23-22.14,28.6S622.9,308,614.87,317s-16.22,17.87-24.74,26.45-17.37,16.81-26.52,24.72q-6.86,5.92-13.91,11.62c-1.17.93-2.28,1.85-3.58,2.85l-3.58,2.75-7.17,5.51c-4.81,3.6-9.67,7.22-14.73,10.63-2.52,1.7-5.13,3.37-7.74,4.9-1.28.79-2.69,1.46-4,2.19l-2,1.07-1,.53-.51.27-.25.13-.45.22,0,0-.17.06-.08,0,1.57-1.36a2.77,2.77,0,0,1-1.16,1.19l-.13.06a2.62,2.62,0,0,0,.73-.52l-.75.53a63.74,63.74,0,0,1-19.64,5.89,47.06,47.06,0,0,1-10.42,0,40.09,40.09,0,0,1-10.24-2.4,32.2,32.2,0,0,1-15.87-13.67,33.05,33.05,0,0,1-4.51-15.09c0-.88,0-1.76,0-2.64l.11-2.5a315.81,315.81,0,0,1,4.63-39.41c2.24-13,4.91-25.89,7.32-38.8a1.37,1.37,0,0,1,2.69.47Z"/><path class="cls-13" d="M373.78,251.69a19.38,19.38,0,0,1-5.24-6.11,19.16,19.16,0,0,1-1.57-3.73,20.52,20.52,0,0,1-.82-3.95,25.42,25.42,0,0,1,3.29-15.44,24.83,24.83,0,0,1,5.06-6.25,24.44,24.44,0,0,1,3.26-2.42c.58-.33,1.18-.7,1.78-1l1.82-.82a30.25,30.25,0,0,1,7.69-2.2c.66-.11,1.34-.11,2-.17a17.33,17.33,0,0,1,2-.08,25.18,25.18,0,0,1,4,.4c.67.13,1.34.24,2,.39l1.95.62,1,.32.93.43,1.85.87,1.74,1.08.87.55c.28.2.53.43.8.64l1.58,1.31c.49.47.95,1,1.42,1.48a25.5,25.5,0,0,1,6.53,14.73,29.35,29.35,0,0,1-2.67,15.84,29.7,29.7,0,0,1-10.45,12.31,25.84,25.84,0,0,1-7.49,3.46A29.73,29.73,0,0,1,389,265a32.21,32.21,0,0,1-15.61-4.23,31.14,31.14,0,0,1-11.52-11.41,63.67,63.67,0,0,1-6-14.49c-6-19.21-9.93-39.72-8.35-60.28a92.74,92.74,0,0,1,7.11-30.1,83.07,83.07,0,0,1,7.43-13.69,49.34,49.34,0,0,1,10.77-11.74,26.26,26.26,0,0,1,7.37-4,20.13,20.13,0,0,1,8.58-1.05,19,19,0,0,1,8.24,2.77,27.59,27.59,0,0,1,6.33,5.4c.45.51.88,1,1.3,1.57l1.18,1.55q1.15,1.56,2.24,3.16,2.17,3.21,4,6.62a75.78,75.78,0,0,1,6.11,14.28,44.33,44.33,0,0,1,2,15.69,32.57,32.57,0,0,1-4.66,15.32,37.13,37.13,0,0,1-11.35,11.07A57.09,57.09,0,0,1,390.16,198a61.78,61.78,0,0,1-30.64,2,40.74,40.74,0,0,1-7.47-2.38,36.88,36.88,0,0,1-3.54-1.75l-1.67-1.08c-.27-.19-.56-.35-.83-.55l-.78-.62a24.08,24.08,0,0,1-5.4-5.85l-1-1.7c-.3-.59-.57-1.21-.85-1.81l-.42-.91-.31-.95-.61-1.89a1.37,1.37,0,1,1,2.61-.84v0l0,.1a21.6,21.6,0,0,0,7.88,11.38l.7.54c.24.17.5.31.75.47l1.51.93a33.64,33.64,0,0,0,3.23,1.51,37.39,37.39,0,0,0,6.89,2,55.31,55.31,0,0,0,14.48.61,64.52,64.52,0,0,0,14.25-3,53,53,0,0,0,13-6.27,32.84,32.84,0,0,0,9.87-9.89,28,28,0,0,0,3.76-13.23,39.53,39.53,0,0,0-2-14,70.72,70.72,0,0,0-5.92-13.22q-1.81-3.16-3.89-6.15-1-1.49-2.14-2.94l-1.12-1.43c-.36-.45-.74-.89-1.12-1.31-3.06-3.4-6.89-5.93-11-6.19s-8.39,1.28-12,4.08a43.66,43.66,0,0,0-9.31,10.46,81.27,81.27,0,0,0-6.81,12.75,80.15,80.15,0,0,0-4.43,13.78,96.48,96.48,0,0,0-2.2,14.4,136.81,136.81,0,0,0,1.07,29.33q1,7.31,2.72,14.52.84,3.6,1.84,7.17l2,7.22a58.45,58.45,0,0,0,5.28,13.32,27.19,27.19,0,0,0,4.11,5.45,24.75,24.75,0,0,0,5.37,4.16A27.06,27.06,0,0,0,389.1,260,22.78,22.78,0,0,0,402,256.41a25.68,25.68,0,0,0,11.38-23.59,21.16,21.16,0,0,0-5.24-12.36c-.39-.41-.76-.85-1.16-1.25l-1.3-1.1c-.22-.18-.43-.38-.65-.55l-.72-.46-1.43-.93-1.54-.74-.77-.38-.81-.27-1.62-.55c-.56-.13-1.12-.23-1.68-.35a22.32,22.32,0,0,0-3.42-.4,14,14,0,0,0-1.73,0c-.58,0-1.16,0-1.73.1a26.5,26.5,0,0,0-6.75,1.79,20.42,20.42,0,0,0-10.44,8.77,22.23,22.23,0,0,0-3.16,13.42,17,17,0,0,0,6.27,11.94h0a1.37,1.37,0,0,1-1.68,2.16Z"/><path class="cls-9" d="M535.45,247.76a36.55,36.55,0,0,0-.77,7.14c-.13,11.55,2,25.9,10.17,34.91,4.71,5.2,11.55,7.29,18.46,6.75a45.21,45.21,0,0,0,15.62-4.67c16.31-7.71,29.65-29.27,27.27-47.5-2.88-22.06-24.54-21.28-41.46-18.93-8,1.11-17,3.49-22.82,9.46A26,26,0,0,0,535.45,247.76Z"/><path class="cls-13" d="M425.25,184.77c2.41,17.62,2.12,35.42.73,53.09a238.33,238.33,0,0,1-3.69,26.41,222.26,222.26,0,0,1-6.74,25.84,111.08,111.08,0,0,1-4.77,12.66,32.33,32.33,0,0,1-8.49,11.59,22.37,22.37,0,0,1-6.54,3.74,15,15,0,0,1-8,.61,16.2,16.2,0,0,1-7-3.48,26.87,26.87,0,0,1-4.87-5.36,47.93,47.93,0,0,1-3.57-6c-.52-1-1-2.06-1.47-3.09l-1.33-3.06c-1.75-4.08-3.35-8.22-4.88-12.36-3.08-8.29-5.78-16.69-8.5-25.05a1.37,1.37,0,0,1,2.59-.92c3.16,8.21,6.31,16.41,9.67,24.49,1.68,4,3.46,8,5.29,12l1.4,2.95c.47,1,.95,1.9,1.46,2.82A43,43,0,0,0,380,306.9c2.43,3.26,5.57,5.92,8.87,6.49a9.48,9.48,0,0,0,5-.55,16.67,16.67,0,0,0,4.77-2.91c2.88-2.46,5-6,6.71-9.71.87-1.88,1.62-3.86,2.35-5.88s1.46-4.1,2.16-6.15a252.14,252.14,0,0,0,7.06-25.07,248.35,248.35,0,0,0,4.24-25.74c1-8.67,1.7-17.39,1.94-26.12.17-4.37.19-8.73.14-13.1s-.3-8.72-.65-13.07v0a1.37,1.37,0,0,1,2.72-.29Z"/><path class="cls-13" d="M577.33,233.09a40.21,40.21,0,0,1,9.24,13.59,20.26,20.26,0,0,1,1.11,8.66,12.56,12.56,0,0,1-3.71,8.21,1.39,1.39,0,0,1-2.2-1.61l0-.08a11.46,11.46,0,0,0,.86-6.5,21.24,21.24,0,0,0-.76-3.33c-.35-1.11-.75-2.22-1.09-3.36a63.21,63.21,0,0,0-2.5-7c-1-2.31-2.07-4.67-3.15-7l0-.06a1.38,1.38,0,0,1,2.2-1.6Z"/><path class="cls-13" d="M563.65,234.89a17.6,17.6,0,0,0-3.79-1.08,6.27,6.27,0,0,0-3.09.28,14.33,14.33,0,0,0-3,1c-.56.27-1.09.69-1.7,1s-1.13.88-1.77,1.31l-.17.12a1.41,1.41,0,0,1-2.13-1.61,25.22,25.22,0,0,1,1-2.41,16.36,16.36,0,0,1,1.55-2.25l1-1a8.61,8.61,0,0,1,1.19-.93l.64-.43a6.48,6.48,0,0,1,.72-.32,6.25,6.25,0,0,1,1.53-.45,9.67,9.67,0,0,1,6,1.08c.41.25.83.48,1.21.75a12.94,12.94,0,0,1,1.06.88,10,10,0,0,1,1.75,2.12,1.39,1.39,0,0,1-1.67,2Z"/><path class="cls-13" d="M554,269.54a34.64,34.64,0,0,0,3.49,2.21,38.62,38.62,0,0,0,3.67,1.83,27.74,27.74,0,0,0,7.59,2.07,17.57,17.57,0,0,0,1.9.25c.63,0,1.27.18,1.91.23a25.24,25.24,0,0,0,3.91-.06,27.42,27.42,0,0,0,4-.65,14.9,14.9,0,0,0,2-.57c.67-.2,1.34-.42,2-.6l.18,0a1.38,1.38,0,0,1,1.17,2.43c-.62.46-1.27.89-1.91,1.33a13.23,13.23,0,0,1-2,1.22,22.13,22.13,0,0,1-4.45,1.79,24.09,24.09,0,0,1-4.81,1,17.73,17.73,0,0,1-4.93-.28A26.62,26.62,0,0,1,552,271.37a1.37,1.37,0,0,1,1.88-1.93Z"/><path class="cls-13" d="M587.58,235.35a8.32,8.32,0,0,1,3.78.29,8.2,8.2,0,0,1,3.57,2.18,5.94,5.94,0,0,1,1.28,4.39,6.51,6.51,0,0,1-1.49,3.75,1.45,1.45,0,0,1-2.53-.5l-.09-.31a7.67,7.67,0,0,0-.87-2.33c-.33-.58-.81-.76-1.06-1.2a7.07,7.07,0,0,0-1.17-1.67c-.54-.6-1.28-1.25-1.95-1.91l-.25-.25a1.43,1.43,0,0,1,.79-2.43Z"/><path class="cls-13" d="M571.53,367c2.65,3,5.32,6,7.92,9s5.17,6.11,7.65,9.25q7.47,9.39,14.54,19.1c4.7,6.48,9.21,13.09,13.62,19.77s8.72,13.42,12.81,20.3,8,13.86,11.73,20.94c1.83,3.56,3.7,7.09,5.49,10.67s3.55,7.17,5.28,10.77c6.91,14.42,13.25,29.12,18.85,44.09a1.37,1.37,0,0,1-2.54,1Q657.15,510.13,646.1,489l-5.61-10.5c-1.89-3.49-3.85-6.94-5.77-10.41l-5.91-10.33-6-10.29c-4-6.83-8-13.67-12.26-20.39s-8.54-13.37-13-20-9-13.08-13.68-19.48c-2.33-3.22-4.75-6.35-7.13-9.54l-7.35-9.37,0,0a1.37,1.37,0,0,1,2.1-1.75Z"/><path class="cls-13" d="M427.63,372.65l-4.43-4.29a1.44,1.44,0,0,1-.2-1.83v0a39.94,39.94,0,0,1,3.66-4.69,41.74,41.74,0,0,1,4.24-4.12,30.51,30.51,0,0,1,10.41-6l1.47-.46c.5-.12,1-.2,1.52-.31s1-.21,1.53-.27l1.55-.1a20.45,20.45,0,0,1,6.2.51,17.64,17.64,0,0,1,5.92,2.54,16.42,16.42,0,0,1,4.54,4.65,17.4,17.4,0,0,1,2.54,12.54,19.8,19.8,0,0,1-.86,3.15l-1,2.67-2,5.35-8,21.36A2.62,2.62,0,0,1,453,405l-.06,0-34.79,8.67a3,3,0,0,1-3.42-4.09v0a68.06,68.06,0,0,1,4.4-8.36,58.64,58.64,0,0,1,5.72-7.62,48.81,48.81,0,0,1,15.3-11.43,54.67,54.67,0,0,1,18.31-4.94,63.38,63.38,0,0,1,9.43-.18c1.57.08,3.13.22,4.7.43a46.52,46.52,0,0,1,4.76.85h0l.17.05c1,.36,1.71.7,2.53,1.08s1.57.78,2.33,1.2a51.49,51.49,0,0,1,12.28,9.48,48.73,48.73,0,0,1,10.72,17.52l-.49-.76a2.2,2.2,0,0,1,.58,1.06,2.23,2.23,0,0,1,0,.29v.16h0v0l-.13-.73a53.85,53.85,0,0,1,2.65,11.72,59.76,59.76,0,0,1,.39,6c0,1.94,0,4-.15,5.92a95.25,95.25,0,0,1-4.85,23l0,0a1.34,1.34,0,0,1-1.29.92h0a1.37,1.37,0,0,1,0-2.74h0l-1.31,1a93.05,93.05,0,0,0,3.85-22.38c.08-1.89.07-3.74,0-5.66s-.25-3.7-.51-5.56a49.75,49.75,0,0,0-2.74-10.76l-.13-.73v0h0v.16a2.08,2.08,0,0,0,.6,1.32l-.49-.76a44.22,44.22,0,0,0-10.15-15.65,46.86,46.86,0,0,0-7.27-5.89,46.16,46.16,0,0,0-4-2.36c-.69-.36-1.38-.69-2.08-1s-1.46-.62-2-.81l.2.06c-1.24-.27-2.73-.49-4.13-.64s-2.86-.26-4.3-.31a57.83,57.83,0,0,0-8.59.33,52.38,52.38,0,0,0-8.38,1.66,49.66,49.66,0,0,0-7.91,3.06,44.06,44.06,0,0,0-13.38,10.1,52.57,52.57,0,0,0-5.14,6.76,68.8,68.8,0,0,0-4.07,7.56l-3.42-4.1,34.93-8.09-1.87,1.64,8.34-21.21,2.1-5.3,1.05-2.65A14.93,14.93,0,0,0,462,370a12.88,12.88,0,0,0-1.65-9.31,12.13,12.13,0,0,0-3.28-3.54,13.4,13.4,0,0,0-4.45-2,16.54,16.54,0,0,0-5.1-.54l-1.29,0c-.43,0-.85.12-1.28.18s-.86.12-1.28.21l-1.26.35a27,27,0,0,0-9.39,5,40.06,40.06,0,0,0-7.55,7.84l-.19-1.84,4.27,4.43a1.37,1.37,0,0,1-1.93,1.93Z"/><path class="cls-13" d="M500.84,453.62a.89.89,0,0,0,0,.35V454l0-.16s0,0,0,0-.14-.35-.15-.34l-.22-.42-.29-.52-.16-.28-.08-.14s-.07-.12-.1-.21a2.51,2.51,0,0,1-.11-.29l0,.1,0-.09,0,.12c-1.36-3.05-2.69-6.11-4-9.18l-3.91-9.19c-1.33-3-2.73-6.06-4.09-9.1l-4.11-9.09a1.72,1.72,0,0,1,.21-1.77l0,0,9.33-12,4.67-6,1.16-1.5a10.49,10.49,0,0,0,.83-1.32,8.05,8.05,0,0,0,.92-2.92,8.63,8.63,0,0,0-1.41-5.86,8.1,8.1,0,0,0-2.12-2.19,9.21,9.21,0,0,0-2.8-1.35,8.82,8.82,0,0,0-6,.17,8.43,8.43,0,0,0-2.55,1.6,4.87,4.87,0,0,0-.53.53,5.2,5.2,0,0,0-.48.58,11.83,11.83,0,0,0-.88,1.37l.08-.14a120.15,120.15,0,0,1-21.75,31.25,88.13,88.13,0,0,1-31.84,21.24,81.18,81.18,0,0,1-18.77,4.64,89,89,0,0,1-19.31.2,106.54,106.54,0,0,1-18.88-3.64c-1.54-.43-3.07-.91-4.59-1.4l-2.25-.76q-1-.34-2.06-.62a51.26,51.26,0,0,0-8.72-1.47l2.62-4.73a39.24,39.24,0,0,1,5.82,10.05,38.78,38.78,0,0,1,2.48,11.37A36.19,36.19,0,0,1,361.08,473a29.17,29.17,0,0,1-19.67,12.66,33.17,33.17,0,0,1-22.79-4.68,29.64,29.64,0,0,1-8.6-8.23,28.35,28.35,0,0,1-4.56-11,24.4,24.4,0,0,1-.31-6.08,24,24,0,0,1,1.28-6,26.21,26.21,0,0,1,2.73-5.41,30,30,0,0,1,3.79-4.59,35.34,35.34,0,0,1,9.57-6.66,44.28,44.28,0,0,1,10.94-3.41c7.45-1.35,14.85-1.22,22-1.09l-2.1,3.85A60.37,60.37,0,0,0,328,410.15a69.71,69.71,0,0,0-33.57-5.88,105.54,105.54,0,0,0-33.83,7.61c-10.72,4.39-20.77,10.75-28.53,19.37h0a1.37,1.37,0,0,1-2.06-1.81c7.93-9.17,18.24-16,29.25-20.74a107.37,107.37,0,0,1,34.93-8.41,73.94,73.94,0,0,1,35.66,5.78,64.21,64.21,0,0,1,15.51,9.76,66.83,66.83,0,0,1,12.18,13.71,2.47,2.47,0,0,1-2.07,3.85h0c-7.18,0-14.27,0-21,1.29a40,40,0,0,0-9.58,3.1,29.92,29.92,0,0,0-8,5.69,24.46,24.46,0,0,0-3,3.75,20.65,20.65,0,0,0-2.08,4.23,18,18,0,0,0-.63,9.21,22.59,22.59,0,0,0,3.73,8.73,23.74,23.74,0,0,0,7,6.52,27.57,27.57,0,0,0,18.64,3.72A23.25,23.25,0,0,0,356,469.55a30.15,30.15,0,0,0,4.71-18.65,32.94,32.94,0,0,0-2.07-9.65,33.39,33.39,0,0,0-4.91-8.6l0,0a2.94,2.94,0,0,1,2.64-4.69,57,57,0,0,1,9.72,1.73c.81.22,1.61.47,2.41.75l2.18.75c1.45.48,2.9.95,4.36,1.37a100.93,100.93,0,0,0,17.85,3.61,83.54,83.54,0,0,0,18.1,0,75.83,75.83,0,0,0,17.57-4.18,78.75,78.75,0,0,0,16.14-8.21,92,92,0,0,0,14.07-11.56,115.51,115.51,0,0,0,21.27-29.76l0,0,.06-.11a16.3,16.3,0,0,1,1.21-1.8,9,9,0,0,1,.75-.87,8.66,8.66,0,0,1,.82-.8,12.78,12.78,0,0,1,3.89-2.37,13.12,13.12,0,0,1,8.87-.18,12.92,12.92,0,0,1,7.09,5.3,12.7,12.7,0,0,1,2,8.65,12.07,12.07,0,0,1-1.41,4.28,14.11,14.11,0,0,1-1.23,1.88l-1.19,1.49-4.77,5.93-9.55,11.87.23-1.8,4,9.18c1.31,3.06,2.66,6.11,3.94,9.19l3.74,9.26q1.85,4.64,3.8,9.21l0,.12,0,.09,0,.1a.6.6,0,0,0,0-.14s-.06-.12,0-.06l.08.14.15.28.32.6.16.31.19.41c.09.2,0,.07.1.25s.13.38.19.57l0-.16a2.4,2.4,0,0,1,.1.41,1.81,1.81,0,0,1,0,.71,1.37,1.37,0,0,1-2.65-.66Z"/><path class="cls-13" d="M387.22,302.11c2.73,0,.76,0,1.37,0h0v1.21c0,.41,0,.82-.06,1.23,0,.83-.18,1.64-.29,2.46a25.83,25.83,0,0,1-1.41,4.77,24,24,0,0,1-5.65,8.22,25,25,0,0,1-4,3.06c-1.52.88-2.83,1.52-4.22,2.25l-8.25,4.27a2.32,2.32,0,0,1-3.39-2v-.06c0-1.19.07-2.17.16-3.24s.24-2.08.41-3.12a43.18,43.18,0,0,1,1.48-6.12,38.79,38.79,0,0,1,5.73-11.36,32,32,0,0,1,46.31-5.84,29.07,29.07,0,0,1,8,10.22A28.6,28.6,0,0,1,426,320.68v.11a2.27,2.27,0,0,1-2.3,2.24h0a38.09,38.09,0,0,1-4.65-.38,39.13,39.13,0,0,1-4.5-.88,30.43,30.43,0,0,1-8.59-3.54,21.29,21.29,0,0,1-3.75-3,17,17,0,0,1-2.85-3.9,18.3,18.3,0,0,1-2-9.17,1.37,1.37,0,0,1,2.74,0v0a14.26,14.26,0,0,0,7.82,12.72,26.43,26.43,0,0,0,7.6,2.65c1.34.27,2.7.46,4.07.59a34.12,34.12,0,0,0,4,.16l-2.3,2.35a23.7,23.7,0,0,0-9.47-18.45,27.25,27.25,0,0,0-9.59-4.67,27.93,27.93,0,0,0-10.59-.81A27.4,27.4,0,0,0,373.44,307a33.46,33.46,0,0,0-5.21,9.65,42.79,42.79,0,0,0-1.49,5.39c-.19.92-.36,1.84-.48,2.76s-.23,1.89-.26,2.69l-3.39-2.11,8.43-3.91c1.38-.65,2.88-1.31,4.07-1.94a23.31,23.31,0,0,0,3.48-2.39,22.41,22.41,0,0,0,2.94-3.07,22.93,22.93,0,0,0,2.25-3.63,23.28,23.28,0,0,0,1.46-4c.15-.7.33-1.41.41-2.13a10.67,10.67,0,0,0,.13-1.08l0-.54,0-.27v-.26h0C386.46,302.11,384.49,302.11,387.22,302.11Z"/><path class="cls-13" d="M395,327.34l.17,2.21.08,1.11c0,.37,0,.74,0,1.11l-.06,2.22c-.07.74-.18,1.47-.27,2.21l-.14,1.1c-.07.36-.16.72-.24,1.09l-.5,2.17-.69,2.11-.35,1.06-.44,1-.88,2-1,2a18.06,18.06,0,0,1-1.13,1.91c-.4.62-.79,1.25-1.21,1.86-.91,1.16-1.73,2.4-2.74,3.48-.49.55-1,1.12-1.47,1.66l-1.58,1.55a21.61,21.61,0,0,1-1.64,1.49c-.56.48-1.12,1-1.69,1.43-1.2.86-2.34,1.81-3.61,2.58a49.54,49.54,0,0,1-7.83,4.19,69,69,0,0,1-16.92,4.65,71.09,71.09,0,0,1-17.57.33c-1.46-.2-2.92-.34-4.38-.6l-4.34-.88-4.27-1.19c-1.41-.43-2.79-1-4.19-1.48a60,60,0,0,1-15.43-8.83,38.12,38.12,0,0,1-3.4-2.92l-1.61-1.57a19.26,19.26,0,0,1-1.56-1.62l-1.48-1.69c-.48-.57-.92-1.18-1.38-1.76-.94-1.16-1.75-2.42-2.59-3.65a59.25,59.25,0,0,1-9.48-33.93c.06-1.49.12-3,.31-4.46s.4-3,.64-4.42a40.94,40.94,0,0,1,2.61-8.7,38,38,0,0,1,2-4.11,33.38,33.38,0,0,1,2.67-3.79,25.33,25.33,0,0,1,7.06-6.13,23.79,23.79,0,0,1,8.92-3,27.38,27.38,0,0,1,9.25.63,18.83,18.83,0,0,1,2.19.64c.72.25,1.45.43,2.16.74a25.4,25.4,0,0,1,4.12,2.12,29.21,29.21,0,0,1,3.66,2.79,30.86,30.86,0,0,1,3.13,3.32,31.23,31.23,0,0,1,6.77,16.49,26.27,26.27,0,0,1-.69,9,24,24,0,0,1-1.59,4.26A23,23,0,0,1,330,323a1.37,1.37,0,0,1-2.18-1.67v0a20.4,20.4,0,0,0,3.48-15,28.15,28.15,0,0,0-6.41-14.33,26.84,26.84,0,0,0-2.77-2.78,25.07,25.07,0,0,0-3.16-2.27,21.12,21.12,0,0,0-3.48-1.66c-.59-.24-1.25-.38-1.87-.58a15.18,15.18,0,0,0-1.9-.5,22.81,22.81,0,0,0-7.63-.32,18.93,18.93,0,0,0-7,2.6,20.27,20.27,0,0,0-5.54,5.12,28.63,28.63,0,0,0-2.14,3.21,32.62,32.62,0,0,0-1.66,3.53,35.38,35.38,0,0,0-2.1,7.59c-.19,1.33-.42,2.65-.49,4s-.17,2.68-.2,4a57.22,57.22,0,0,0,2.2,15.91,56.3,56.3,0,0,0,2.8,7.54,53.64,53.64,0,0,0,3.8,7.08,52.33,52.33,0,0,0,24.41,20.17c1.27.47,2.51,1,3.8,1.42l3.9,1.16,4,.88c1.33.26,2.69.41,4,.62a69,69,0,0,0,16.33,0,64.29,64.29,0,0,0,15.88-3.9,45.19,45.19,0,0,0,7.24-3.63c1.18-.66,2.25-1.51,3.37-2.27.54-.41,1.06-.85,1.59-1.27a18.83,18.83,0,0,0,1.54-1.32l1.49-1.38c.48-.48.93-1,1.4-1.47,1-1,1.75-2.06,2.63-3.09.4-.54.77-1.11,1.16-1.66a15.71,15.71,0,0,0,1.1-1.71l1-1.75.87-1.83.44-.92.35-.95.7-1.9.52-2c.08-.33.18-.65.26-1l.16-1c.11-.67.23-1.33.32-2l.13-2c0-.34.05-.68.06-1l0-1-.07-2v-.14a1.36,1.36,0,0,1,2.72-.15Z"/><path class="cls-13" d="M399.83,241.26a11.48,11.48,0,0,1-3.15,3.41,18.36,18.36,0,0,1-4,2.13,25.7,25.7,0,0,1-4.21,1.23c-.71.15-1.43.26-2.15.36a18.19,18.19,0,0,1-2.26.19l2.28-5.13.47.41c.19.17.4.32.6.5.41.33.83.67,1.27,1a12.54,12.54,0,0,0,2.86,1.53,13,13,0,0,0,3.23.8,18.31,18.31,0,0,0,3.55,0h.14a1.38,1.38,0,0,1,.68,2.63,14.34,14.34,0,0,1-4.2,1.38,13.8,13.8,0,0,1-4.59,0,16.32,16.32,0,0,1-4.47-1.33,14.66,14.66,0,0,1-2.06-1.15c-.33-.22-.64-.46-1-.72a11.42,11.42,0,0,1-1-.93l0,0a3,3,0,0,1,2.33-5.08c.47,0,1.14,0,1.73,0s1.21,0,1.82-.05a29,29,0,0,0,3.59-.39,19.44,19.44,0,0,0,3.39-.88,12,12,0,0,0,3-1.63l.12-.09a1.38,1.38,0,0,1,2,1.79Z"/><path class="cls-13" d="M379.63,229.81a6.93,6.93,0,0,1,1.6-1.92,6.37,6.37,0,0,1,2.45-1.27,6,6,0,0,1,3.2.06,4.31,4.31,0,0,1,.8.3l.4.19.32.16c.29.15.57.32.84.49a15.26,15.26,0,0,1,2.81,2.75,24.82,24.82,0,0,1,2.44,3.22,1.47,1.47,0,0,1-.47,2,1.49,1.49,0,0,1-1.16.17,24.66,24.66,0,0,1-3.74-1.35,14.5,14.5,0,0,1-3.37-1.83c-.24-.21-.48-.43-.7-.66l-.09-.09,0,0a.19.19,0,0,0-.07-.11,1.11,1.11,0,0,0-.57-.41,2.81,2.81,0,0,0-1.18-.08,13.45,13.45,0,0,0-1.52.31l-.5.1a1.36,1.36,0,0,1-1.44-2Z"/><path class="cls-13" d="M393.58,226.6a3.73,3.73,0,0,1,2.14-3.18,3,3,0,0,1,2.3.36,2.89,2.89,0,0,1,1.48,1.72,1.5,1.5,0,0,1-.54,1.63l-.92.69a1.47,1.47,0,0,0-.68.93c-.06.25.06.62,0,.54a1.38,1.38,0,0,0-.58-.37c-.29-.14-.74-.21-1.21-.44l-1.24-.59A1.3,1.3,0,0,1,393.58,226.6Z"/></svg>