<svg id="Layer_1" data-name="Layer 1" xmlns="http://www.w3.org/2000/svg" viewBox="0 0 960 560"><defs><style>.cls-1{fill:#5e9cff;}.cls-2{fill:#87b5ff;}.cls-3{fill:#fff5e6;}.cls-4{fill:#00c6a6;}.cls-5{fill:#ff4d62;}.cls-6{fill:#e04456;}.cls-7{fill:#ffbda5;}.cls-8{fill:#ffa685;}.cls-9{fill:#fff;}.cls-10{fill:#233940;}.cls-11{fill:#ffb067;}.cls-12{fill:#fff1e0;}.cls-13{fill:#ff8f4d;}</style></defs><title>sport, soccer, football, activity, sports</title><path class="cls-1" d="M740.52,274.1q-1.13,5.66-2.5,11.12-2.3,9.07-5.27,18C712.2,364.86,668,420.71,615.38,461.56a369.42,369.42,0,0,1-66.15,41.11c-84.86,40.72-189.63,54.46-262.09-12.13a185,185,0,0,1-15.68-16.27c-34.3-40.18-36.69-99.62-22.35-150.47q1.24-4.38,2.61-8.7c14.26-44.74,40-85.4,72.75-119.26A344.51,344.51,0,0,1,363.8,161a416.52,416.52,0,0,1,77.89-46.51C506.88,84.59,581,70.79,649.82,84.17a111.56,111.56,0,0,1,28.43,9.48c1.28.63,2.53,1.29,3.76,2,23.61,12.9,39.77,33.78,49.82,58.33a171.89,171.89,0,0,1,9.8,34C746.86,216.31,746,246.72,740.52,274.1Z"/><path class="cls-2" d="M732.74,303.22c-18.54,55.65-56.34,106.58-102.27,146q-7.41,6.37-15.09,12.32a369.42,369.42,0,0,1-66.15,41.11c-84.86,40.72-189.63,54.46-262.09-12.13q-5.34-4.9-10.45-10.4c-1.76-1.9-3.51-3.86-5.23-5.87-34.3-40.18-36.69-99.62-22.35-150.47q1.24-4.38,2.61-8.7l.57-.24A648.21,648.21,0,0,1,732.74,303.22Z"/><path class="cls-3" d="M438.1,444.06l-24.83,10.52c-.36-95.4-17.76-181.15-35.55-244.13-9.6-34-19.3-61.29-26.53-79.93-6.95-17.94-11.58-27.83-11.58-27.83s-6.19-55.91,26.28,19.53c.08.18.15.35.22.53,8,18.84,16.51,48.06,24.71,81.37C415.71,305.25,438.1,444.06,438.1,444.06Z"/><path class="cls-2" d="M417.92,139.1c-.35,4.74-3.49,11.75-8.34,18.39-8.77,12-23.14,22.8-36.83,16.93a69.89,69.89,0,0,0-16-5.06c-12.28-2-20.41,2.23-35.51,8.34-15.54,6.3-28.29,33.66-33.7,46.94a7.59,7.59,0,1,1-13.44-6.93c37.29-58.41,29.57-163.57,29.57-163.57s-6.73-35.28,17.56-27C358,39.57,418.89,125.78,417.92,139.1Z"/><path class="cls-1" d="M630.47,449.24q-7.41,6.37-15.09,12.32a369.42,369.42,0,0,1-66.15,41.11c-84.86,40.72-189.63,54.46-262.09-12.13q-5.34-4.9-10.45-10.4l1.08-.49,14.83-6.74,170.26-77.28L625,447.52Z"/><path class="cls-4" d="M615.79,461.44v.12c-5,3.88-10.3,7.62-15.45,11.23-5.55,3.88-11.27,7.59-16.94,11.12a352.52,352.52,0,0,1-34.13,18.76A378,378,0,0,1,492,524.74,299.83,299.83,0,0,1,433.18,536c-52.73,4.45-104.65-7.38-146-45.42l26.38-12,11.78-5.35,135.14-61.34,128.73,41.19,12.32,3.87Z"/><path class="cls-1" d="M409.58,157.49c-8.77,12-23.14,22.8-36.83,16.93a69.89,69.89,0,0,0-16-5.06c2.65-50.77-25.43-126.43-25.84-127.55,26.92,25.5,72.34,79.65,78.56,114.79C409.5,156.89,409.54,157.19,409.58,157.49Z"/><path class="cls-3" d="M601.3,456.93c-44.65,42.27-106.84,66-168.38,62.8a232,232,0,0,1-119.39-41.17l11.78-5.35a222.57,222.57,0,0,0,32.49,17.56,215.91,215.91,0,0,0,176.7-1.91,222.3,222.3,0,0,0,54.69-35.81Z"/><path class="cls-5" d="M500.6,495.43a55.26,55.26,0,0,1-15,8.6c-.84.32-1.68.63-2.53.92a72.31,72.31,0,0,1-25.13,3.55c-.5,0-1,0-1.49-.06s-.71-.06-1.06-.06h0a25,25,0,0,1-2.72-.22c-1-.1-2-.21-3-.35-.53-.06-1-.13-1.57-.22l-.77-.12c-1.18-.19-2.36-.41-3.53-.65-2-.42-4-.92-5.94-1.48s-3.59-1.11-5.33-1.78c-.84-.31-1.68-.63-2.49-1s-1.74-.74-2.6-1.14c-17.4-8.07-29.87-27-34.41-45.21-.25-1-.49-2.05-.68-3.09-5.22-25.82,3.93-55.07,25.25-71.17.63-.47,1.26-.94,1.91-1.38a59.68,59.68,0,0,1,6.88-4.15c1.53-.78,3.09-1.5,4.69-2.15a74.74,74.74,0,0,1,28.39-5.49,79,79,0,0,1,7.93.4c1.15.11,2.28.25,3.41.42l1.68.26c1.11.19,2.22.4,3.32.64,1.64.35,3.28.77,4.91,1.24a57.9,57.9,0,0,1,18.55,9.16l.4.3c10,6.88,17.13,16.35,22.55,26.91.61,1.15,1.17,2.31,1.72,3.49.25.54.51,1.08.75,1.63s.57,1.27.85,1.91C538,444.41,524.11,476.36,500.6,495.43Z"/><path class="cls-4" d="M640.78,116.55s-7.69,43.78,22.83,71.4,60.49,20.77,53.13-12.62S663.73,117.69,640.78,116.55Z"/><path class="cls-6" d="M430.75,382.48a43.35,43.35,0,0,0-1.84-7.29c-.89.4-1.77.82-2.64,1.26a59.68,59.68,0,0,0-6.88,4.15c0,.23,0,.45-.06.69-.17,2.17,1.14,4,1.11,6.23a53.12,53.12,0,0,1-8.6,28.51,50.69,50.69,0,0,1-9,10.31c-1.24,1.08-11.7,7-11.73,7.63a79.08,79.08,0,0,0,.23,11.88c0,.17,14.78-8,16.12-9.09a62.85,62.85,0,0,0,13.17-14C428.6,411.12,433,396.44,430.75,382.48Z"/><path class="cls-6" d="M525.42,415.15c-.28-.64-.56-1.28-.85-1.91s-.5-1.09-.75-1.63c-.55-1.17-1.13-2.34-1.72-3.49a81.59,81.59,0,0,0-13.3-19c-8.62-9-19-12-30.13-9.64a8.83,8.83,0,0,1-9.74-5l0-.08c-2.61-5.56-3.79-5.37-9.72-5.49a109.83,109.83,0,0,1-11.26,63.57A102.16,102.16,0,0,1,427,460a12.49,12.49,0,0,1-17.08,0l-.08-.08c-4.23-4-9.48-8.84-15.86-7.34a10.93,10.93,0,0,0-1.7.54c.2,1,.43,2.06.68,3.09,4.53,18.2,17,37.13,34.41,45.21.86.4,1.72.78,2.6,1.14s1.65.67,2.49,1c1.74.66,3.52,1.25,5.33,1.78s3.93,1.06,5.94,1.48c1.17.24,2.35.46,3.53.65l.77.12c.52.09,1,.17,1.57.22,1,.14,2,.38,3,.48s1.81.35,2.72.35h0c.35,0,.71-.08,1.06-.07s1,0,1.49,0A72.33,72.33,0,0,0,483,505c.85-.29,1.7-.6,2.53-.93a55.28,55.28,0,0,0,15-8.61C524.11,476.37,538,444.41,525.42,415.15Zm-27.67,34.52a52.3,52.3,0,0,1-7,11.9q-.8,1-1.63,2A47.7,47.7,0,0,1,430.7,475l-.31-.16c-.62-.33-1.24-.67-1.84-1a113.84,113.84,0,0,0,18.29-14.09A94.19,94.19,0,0,0,465.63,435a17.37,17.37,0,0,1,17-9.22l.34,0A17.23,17.23,0,0,1,497.76,449.67Zm3.78-39.55c-1.35,1.65-3.45,2.48-5.49,3.11A27.45,27.45,0,0,1,486,414.59a13.69,13.69,0,0,1-7.36-2.64c-10.39-7.93-1.11-24.59,10.92-22.27,5.47,1,10,5.36,12.22,10.45C503.19,403.34,503.75,407.4,501.54,410.12Z"/><path class="cls-7" d="M731.83,153.94c-5.17,3.1-12,7.32-20.11,12.54-33.19,21.4-87.7,59.59-137.32,105.94L572.72,274,516.1,257.31S580.46,133.49,682,95.61C705.62,108.51,721.78,129.39,731.83,153.94Z"/><path class="cls-8" d="M645.8,118.66c4.46,0,9.95,21.7,10.63,25.22a67.22,67.22,0,0,1-.79,29.11c-5.24,20.87-20.39,35.18-37.36,47.33-14.66,10.5-36.16,5.74-47.6-7.47a6.37,6.37,0,0,0-10.36,1.07l-.07.12a6.4,6.4,0,0,0,.53,7,42.82,42.82,0,0,0,21.95,15.23,13.58,13.58,0,0,1,2.86,1.11c7.36,4.08,3.78,11.09-.68,14.79-9.94,8.22-25.57,8.56-35.85.78l25.22,19.5c10-9.21,134.95-110.09,137.43-106C698.66,145,676.52,119,645.8,118.66Z"/><path class="cls-9" d="M584,266.14l-.19.13a67.64,67.64,0,0,0-10,8.59C558.74,289.94,539.15,316,539.15,316c.76,12.44-2.89,18.06-7,22.24q-.56.56-1.13,1.09c-16.68,15.7-43.79,4.67-33.14-38.09s31.78-68.68,31.78-68.68c.18-.21.35-.41.54-.61C533.28,237.36,550.35,264.07,584,266.14Z"/><path class="cls-10" d="M283.47,224.4a146.12,146.12,0,0,1,22.83-36.56A93.79,93.79,0,0,1,314,180a72,72,0,0,1,8.82-6.72c.76-.54,1.61-1,2.41-1.44a27.73,27.73,0,0,1,2.48-1.33l2.56-1.22,2.67-1a36.56,36.56,0,0,1,11.28-2.18,19,19,0,0,1,2.9,0l1.45.07a8.73,8.73,0,0,1,1.44.15l2.86.5a9.26,9.26,0,0,1,1.4.34l1.39.4c1.94.55,3.47,1,5.1,1.6.81.28,1.63.46,2.45.7s1.64.46,2.47.61a44.62,44.62,0,0,0,19.92.25A37.59,37.59,0,0,0,403,161.2a45.51,45.51,0,0,0,6.52-7.86,44.14,44.14,0,0,0,2.58-4.44,26.38,26.38,0,0,0,1.86-4.66l0-.06a1.37,1.37,0,0,1,2.66.64,28.92,28.92,0,0,1-1.73,5.36,47.49,47.49,0,0,1-2.45,5,46.68,46.68,0,0,1-6.59,8.9,41.06,41.06,0,0,1-19,11.58,48.94,48.94,0,0,1-22.33.57c-.92-.14-1.82-.36-2.73-.58s-1.82-.4-2.7-.67c-1.76-.51-3.61-1.12-5.1-1.5a31.8,31.8,0,0,0-9.59-1.24A38.48,38.48,0,0,0,325.72,178a66.54,66.54,0,0,0-8.29,6c-2.61,2.24-5.1,4.63-7.5,7.14a132.45,132.45,0,0,0-13.08,16.36,169.7,169.7,0,0,0-10.88,18l0,.05a1.37,1.37,0,0,1-2.46-1.18Z"/><path class="cls-3" d="M539.15,316c.76,12.44-2.89,18.06-7,22.24-.76.31-1,.28-.65-.21,3.06-3.92,1.79-10.57-.31-16.23s-.21-12,11.75-25.81a27.74,27.74,0,0,0,6.64-17.32,7.64,7.64,0,0,1,10.61-6.6,35.14,35.14,0,0,0,13.68,2.82C558.74,289.94,539.15,316,539.15,316Z"/><path class="cls-11" d="M538,352.36c-9.09,5.68-13.23,3.2-19.64,8.13a41.76,41.76,0,0,0-7.69,8.31c-7.17,9.62-7.06,15-7.06,15.07-.22-9.1-28.17-10.48-32-14-11.76-10.79,3.91-48.08,11.1-62.28,7.61-15,27.61-23.12,31.42-.69,0,0,.19.54.43,1.51a37.16,37.16,0,0,1,.33,16.82.08.08,0,0,0,0,.06,28.57,28.57,0,0,1-2.35,6.53c-3.14,6.18-.74,9.87,3.07,11.36,3.55,1.38,8.33.84,11-1.41,5.54-4.68,13.14-7.37,13.14-23.12,0-10,3.28-7.67,3.28-7.67s4.9,2.67,4.89,9.84S550.15,344.74,538,352.36Z"/><path class="cls-2" d="M741.62,187.92l-29.44,12.52c-7.82-60.91-71.39-83.89-71.39-83.89l37.46-22.9c1.28.63,2.53,1.29,3.76,2,23.61,12.9,39.77,33.78,49.82,58.33A171.89,171.89,0,0,1,741.62,187.92Z"/><path class="cls-10" d="M215.68,521.17l96.41-44,48.26-21.87,24.13-10.94c2-.92,4.06-1.8,6-2.75l2.85-1.43c1-.45,1.83-1.08,2.75-1.61a58.56,58.56,0,0,0,5.25-3.59c.85-.63,1.62-1.37,2.44-2l1.21-1c.4-.35.76-.74,1.14-1.11l2.25-2.25,2.06-2.42c.34-.41.7-.79,1-1.22l.93-1.29c.61-.87,1.28-1.69,1.83-2.59a58.11,58.11,0,0,0,3.16-5.51,60.35,60.35,0,0,0,2.59-5.8,57.67,57.67,0,0,0,3.46-24.94c-.1-1.06-.14-2.08-.3-3.19l-.43-3.28-.86-6.55c-.55-4.37-1.2-8.73-1.82-13.09-1.19-8.73-2.64-17.43-4-26.14l-2.22-13L412.69,313l-1.21-6.5-2.42-13-2.61-13c-.9-4.31-1.7-8.65-2.69-12.94l-2.85-12.9-1.41-6.46L398,241.84,394.9,229a1050.52,1050.52,0,0,0-30.08-101.23L355.56,103,345.45,78.66c-3.69-8-7.29-16-11-24l-6-11.75-3-5.88L324,34.12l-.75-1.46a10.78,10.78,0,0,0-.71-1.12,8.68,8.68,0,0,0-9.2-3.28,9.4,9.4,0,0,0-4.52,2.54,8.53,8.53,0,0,0-2.3,4.57l-.1.66,0,.67c0,.45,0,1.08,0,1.61l-.06,3.32-.16,6.64c-.12,4.42-.27,8.84-.44,13.27-.7,17.68-1.76,35.35-3.32,53s-3.58,35.24-6.77,52.7a237.84,237.84,0,0,1-6.11,26,100.26,100.26,0,0,1-4.65,12.6,38.65,38.65,0,0,1-7.38,11.53,1.37,1.37,0,0,1-2-1.91l0,0a36.06,36.06,0,0,0,6.66-10.78,97.4,97.4,0,0,0,4.35-12.29,234.74,234.74,0,0,0,5.68-25.67c2.91-17.34,4.8-34.87,6.19-52.43s2.28-35.18,2.82-52.8c.13-4.41.24-8.81.31-13.22l.1-6.61,0-3.3c0-.57,0-1.05,0-1.7l.05-1,.13-1a13.31,13.31,0,0,1,3.5-7.11,14.2,14.2,0,0,1,6.82-3.94,14,14,0,0,1,7.9.31,13.26,13.26,0,0,1,6.43,4.72,15.8,15.8,0,0,1,1.08,1.66l.78,1.48,1.54,2.95L333,40.6l6.14,11.8c3.85,8,7.54,16,11.31,24.07L360.76,101l9.5,24.83a969.8,969.8,0,0,1,30.47,101.76c4.18,17.2,8.08,34.48,11.43,51.86l2.53,13L417,305.51,418.2,312l1.07,6.55,2.14,13.1c1.29,8.75,2.67,17.49,3.81,26.27.59,4.38,1.21,8.76,1.73,13.16l.81,6.59.41,3.29c.15,1.08.2,2.28.3,3.41a62.66,62.66,0,0,1-4,27.08,65.08,65.08,0,0,1-2.85,6.27,63,63,0,0,1-3.47,5.95c-.61,1-1.34,1.86-2,2.8l-1,1.39c-.35.46-.74.88-1.11,1.32l-2.25,2.6-2.45,2.42c-.41.4-.8.82-1.24,1.19l-1.31,1.11c-.89.73-1.73,1.51-2.65,2.19a63,63,0,0,1-5.7,3.84c-1,.57-1.94,1.23-3,1.71l-3.08,1.52c-2,1-4,1.82-6.07,2.74l-24.2,10.77-48.41,21.53L216.8,523.67a1.37,1.37,0,0,1-1.12-2.49Z"/><path class="cls-10" d="M705.19,80.34a260.7,260.7,0,0,0-31,15.87q-15.06,8.83-29.26,19a417.2,417.2,0,0,0-53.12,45.09l-3.09,3.07c-1,1-2,2.1-3,3.14-2,2.09-4.05,4.17-6,6.28-3.89,4.32-7.92,8.51-11.68,12.94-7.71,8.71-14.89,17.87-21.9,27.16a472.54,472.54,0,0,0-37.15,59.16h0a1.37,1.37,0,0,1-2.45-1.24A432.62,432.62,0,0,1,542,210c.82-1.22,1.68-2.42,2.55-3.6l2.61-3.56c1.76-2.36,3.43-4.79,5.28-7.08l5.46-6.95c.9-1.17,1.83-2.31,2.79-3.43l2.83-3.39c3.72-4.57,7.7-8.93,11.64-13.31s8.06-8.61,12.33-12.68c2.12-2,4.17-4.16,6.36-6.14l6.51-6,6.67-5.81c2.2-2,4.52-3.78,6.78-5.67,9.12-7.46,18.52-14.58,28.26-21.2,19.54-13.16,40-25,62.13-33.43a1.37,1.37,0,0,1,1,2.54Z"/><path class="cls-12" d="M515.56,343.2c-3.81-1.49-6.21-5.18-3.07-11.36a28.57,28.57,0,0,0,2.35-6.53.08.08,0,0,1,0-.06,29.93,29.93,0,0,0-.33-16.82c-.24-1-.43-1.51-.43-1.51-.63-3.71-3-10.06-7.48-13.08a30.18,30.18,0,0,1,13.54,11.11C525.2,312.61,522.25,332.14,515.56,343.2Z"/><path class="cls-13" d="M515.56,343.2a18.07,18.07,0,0,1-10.16,8.35c-2.43.85-6.12-.62-4.33-3.74a82.76,82.76,0,0,1,9.14-13.12,24.58,24.58,0,0,0,4.63-9.39,28.57,28.57,0,0,1-2.35,6.53C509.35,338,511.76,341.71,515.56,343.2Z"/><path class="cls-12" d="M502.68,292.53a22.92,22.92,0,0,1,3.94,1.3c4.46,3,6.85,9.38,7.48,13.08,0,0,.19.54.43,1.51C512.76,302.93,509.12,297.38,502.68,292.53Z"/><path class="cls-10" d="M601,270q-3.25,0-6.52-.13c-1.09-.05-2.19,0-3.27-.14l-3.26-.35a102.49,102.49,0,0,1-13-2.27,84,84,0,0,1-24.31-10.44,55.42,55.42,0,0,1-5.44-3.83l-1.33-1c-.42-.36-.84-.73-1.25-1.1l-2.47-2.22c-.84-.72-1.62-1.51-2.38-2.31l-2.31-2.37c-.79-.77-1.47-1.64-2.2-2.47l-2.15-2.51a120.8,120.8,0,0,1-14-22,1.37,1.37,0,0,1,2.37-1.38h0a154.86,154.86,0,0,0,15.4,20.13c1.48,1.48,2.9,3,4.42,4.44l2.31,2.11a30.72,30.72,0,0,0,2.36,2q4.81,4,10,7.4a89.47,89.47,0,0,0,22.36,10.81,98,98,0,0,0,12.2,3c4.11,1,8.34,1.21,12.55,1.83l.12,0A1.36,1.36,0,0,1,601,270Z"/><path class="cls-13" d="M518.32,360.49a41.76,41.76,0,0,0-7.69,8.31c-7.21,9.67-7.06,15.07-7.06,15.07s-10.89-11.65-36.27-14.58c0,0,.1-1.73.38-4.68A152.44,152.44,0,0,1,518.32,360.49Z"/><path class="cls-10" d="M617.88,107.6a138.24,138.24,0,0,1,33,11.94A143.27,143.27,0,0,1,666,128.45a120.16,120.16,0,0,1,14,10.86A106.57,106.57,0,0,1,701.85,167c.76,1.27,1.4,2.59,2.05,3.92s1.34,2.63,1.92,4c1.14,2.72,2.34,5.41,3.23,8.22a108.9,108.9,0,0,1,4.46,17,1.37,1.37,0,0,1-2.67.63v0a117,117,0,0,0-13.3-31.17L695.27,166l-2.45-3.44c-.79-1.17-1.68-2.26-2.56-3.36s-1.71-2.23-2.67-3.27a149.93,149.93,0,0,0-11.71-12.14A133.28,133.28,0,0,0,662.81,133a159.15,159.15,0,0,0-29.56-16.82,136.68,136.68,0,0,0-16-6l-.07,0a1.37,1.37,0,0,1,.68-2.64Z"/><path class="cls-10" d="M400.91,483.64A126.23,126.23,0,0,0,432,465.21,89.28,89.28,0,0,0,455.11,438c.75-1.29,1.35-2.65,2-4,.31-.67.64-1.34.94-2l.81-2.07a64,64,0,0,0,2.78-8.45,94.41,94.41,0,0,0,2.76-17.67,164.22,164.22,0,0,0,.09-18.12c-.23-6.17-.31-12.36-.15-18.58.28-12.41,1.67-25,5.27-37.11a117.6,117.6,0,0,1,6.55-17.67A66.26,66.26,0,0,1,480.9,304a46.12,46.12,0,0,1,6.29-7.43,25.75,25.75,0,0,1,8.45-5.57A15,15,0,0,1,501,290c.47,0,.94.1,1.41.16l.7.1.71.18a11.47,11.47,0,0,1,2.64,1.17,14.89,14.89,0,0,1,4,3.64,22.3,22.3,0,0,1,2.61,4.31,35.86,35.86,0,0,1,3,9.25,39.86,39.86,0,0,1-11.15,35.29,1.37,1.37,0,0,1-2-1.93,37.11,37.11,0,0,0,9.2-32.58,31.77,31.77,0,0,0-2.9-8.13,14.2,14.2,0,0,0-5.07-6,7.93,7.93,0,0,0-6.91-.14,21.11,21.11,0,0,0-6.67,4.72,41.08,41.08,0,0,0-5.4,6.75,66.52,66.52,0,0,0-4.19,7.76,112.16,112.16,0,0,0-5.9,17,129.17,129.17,0,0,0-3.43,17.62c-.36,3-.67,6-.86,9s-.38,6-.48,9.06c-.18,6.06-.16,12.15-.05,18.26a169.77,169.77,0,0,1-.4,18.69,99.8,99.8,0,0,1-3.23,18.62,69.19,69.19,0,0,1-3.12,9l-.91,2.2c-.33.72-.69,1.43-1,2.14-.7,1.42-1.39,2.85-2.22,4.2a93.71,93.71,0,0,1-24.89,28,121.73,121.73,0,0,1-15.7,10.12,132.52,132.52,0,0,1-17,7.74,1.37,1.37,0,0,1-1-2.54Z"/><path class="cls-10" d="M494.1,368a112.61,112.61,0,0,1,11,21.66,109.85,109.85,0,0,1,6.24,23.47,90,90,0,0,1,.36,24.38l-.43,3c-.15,1-.38,2-.57,3-.35,2-.93,4-1.42,6A80.13,80.13,0,0,1,505,461a60.53,60.53,0,0,1-6.17,10.72l-1.89,2.47c-.61.84-1.36,1.56-2,2.35a61.74,61.74,0,0,1-4.37,4.41,60.82,60.82,0,0,1-21.34,12.38,62.1,62.1,0,0,1-24.52,3,67.29,67.29,0,0,1-12.22-2.26,63.56,63.56,0,0,1-11.53-4.66,60.69,60.69,0,0,1-19.12-15.78,57.28,57.28,0,0,1-6.72-10.52l-.71-1.39-.61-1.44c-.4-1-.82-1.92-1.2-2.89-.73-1.94-1.36-3.92-1.91-5.92a68.11,68.11,0,0,1-2.14-24.7c.23-2.06.59-4.1.88-6.16s.92-4,1.38-6.07c.63-2,1.25-4,2-5.93l1.22-2.88a27.35,27.35,0,0,1,1.3-2.84,64.68,64.68,0,0,1,15.23-19.72,70.7,70.7,0,0,1,21.45-12.59c1-.41,2-.7,2.95-1l3-.94,3-.74c1-.23,2-.52,3-.67,2-.34,4.08-.77,6.16-.93l3.1-.33,3.11-.13a82.32,82.32,0,0,1,12.43.55c1,.14,2.05.32,3.08.49s2.06.29,3.07.55l3,.71c.5.12,1,.23,1.52.37l1.49.46a74.28,74.28,0,0,1,22.37,10.89,71.34,71.34,0,0,1,17.21,18l.88,1.3.79,1.35,1.57,2.71,1.39,2.8.69,1.4.6,1.44,1.2,2.89,1,3,.5,1.48.41,1.5.82,3,.64,3.05.32,1.53.23,1.54L532,430l.27,3.1.13,1.55c0,.52,0,1,.05,1.56l.08,3.11c0,1-.06,2.07-.09,3.11s-.07,2.07-.19,3.11l-.29,3.1c-.13,1-.31,2.05-.47,3.08-.27,2.06-.81,4.07-1.24,6.11-.26,1-.57,2-.85,3s-.57,2-1,3l-1.06,2.94c-.39,1-.83,1.9-1.24,2.85s-.82,1.9-1.28,2.83l-1.47,2.75a61,61,0,0,1-3.21,5.35,28.54,28.54,0,0,1-1.8,2.55l-1.88,2.5-2.06,2.35a30.87,30.87,0,0,1-2.13,2.29,72.78,72.78,0,0,1-20.21,14.29,124.69,124.69,0,0,1-23,8.26,145.35,145.35,0,0,1-24,4.21,177.76,177.76,0,0,1-24.28.39,206.2,206.2,0,0,1-47.64-8.22,210,210,0,0,1-44.46-18.82,203.18,203.18,0,0,1-38.81-28.6,1.37,1.37,0,0,1,1.86-2h0a205.67,205.67,0,0,0,82.51,45.61A202,202,0,0,0,421,512.84a173.18,173.18,0,0,0,23.63-.62,140.35,140.35,0,0,0,23.15-4.31,119.67,119.67,0,0,0,22-8.13c.89-.4,1.72-.88,2.57-1.36L494.9,497l2.44-1.56a28.4,28.4,0,0,0,2.39-1.62l2.32-1.71c.77-.57,1.47-1.23,2.21-1.84a54.46,54.46,0,0,0,4.19-3.92,27.07,27.07,0,0,0,1.93-2.12l1.87-2.17,1.7-2.31a25,25,0,0,0,1.64-2.36,55.52,55.52,0,0,0,2.92-4.95l1.34-2.55c.41-.87.77-1.76,1.16-2.64a65.42,65.42,0,0,0,3.71-10.87c.37-1.88.88-3.74,1.1-5.65.14-1,.3-1.9.41-2.85l.25-2.87c.11-1,.13-1.92.15-2.88s.06-1.92.07-2.88l-.1-2.88c0-.48,0-1-.06-1.44l-.13-1.43-.27-2.87-.44-2.85-.22-1.42-.3-1.41-.61-2.81-.78-2.77-.39-1.38-.47-1.36-.94-2.72-1.1-2.65-.55-1.32-.64-1.28-1.27-2.57L517,403.64l-.72-1.24-.8-1.18a65.33,65.33,0,0,0-15.72-16.47,68.28,68.28,0,0,0-20.54-10l-1.37-.42c-.46-.13-.93-.22-1.4-.34l-2.8-.65c-.93-.25-1.89-.33-2.83-.51s-1.89-.32-2.84-.45a76.32,76.32,0,0,0-11.5-.51,71.11,71.11,0,0,0-22.53,4.22,65,65,0,0,0-19.77,11.4,59.13,59.13,0,0,0-14,17.89,23.9,23.9,0,0,0-1.21,2.59l-1.14,2.63c-.66,1.79-1.24,3.62-1.84,5.44-.43,1.87-.94,3.72-1.32,5.6s-.63,3.8-.86,5.71a62.92,62.92,0,0,0,1.81,22.83c.5,1.85,1.07,3.7,1.73,5.5.34.9.72,1.77,1.08,2.65l.55,1.32.64,1.28a52.4,52.4,0,0,0,6.08,9.69,55.89,55.89,0,0,0,17.49,14.66,58.9,58.9,0,0,0,10.63,4.39,62.74,62.74,0,0,0,11.3,2.18,57.65,57.65,0,0,0,22.77-2.62,56.56,56.56,0,0,0,19.93-11.36,57.67,57.67,0,0,0,4.09-4.07c.63-.73,1.33-1.39,1.91-2.17l1.77-2.28a56.43,56.43,0,0,0,5.84-10,80.2,80.2,0,0,0,4.18-10.91c.49-1.89,1.08-3.75,1.43-5.67.19-1,.43-1.9.58-2.87L508,437a86.48,86.48,0,0,0,0-23.43,106.62,106.62,0,0,0-5.76-22.86,110.08,110.08,0,0,0-10.38-21.17l0-.06A1.37,1.37,0,0,1,494.1,368Z"/><path class="cls-10" d="M552.68,440.57c5.88,1.55,11.73,3.18,17.59,4.78l17.54,4.94c11.68,3.34,23.35,6.71,35,10.21q4.37,1.3,8.7,2.69c2.9.9,5.78,1.87,8.66,2.82l17.29,5.75c11.52,3.85,23,7.77,34.47,11.84a1.37,1.37,0,0,1-.81,2.62c-11.75-3.1-23.45-6.36-35.14-9.68l-17.52-5c-2.92-.84-5.84-1.67-8.74-2.56s-5.81-1.76-8.7-2.69c-11.57-3.68-23.11-7.48-34.63-11.32l-17.27-5.82c-5.74-2-11.49-3.94-17.22-6a1.37,1.37,0,0,1,.81-2.61Z"/><path class="cls-10" d="M517.39,342.35a19.54,19.54,0,0,0,3.87-.75,23.08,23.08,0,0,0,3.73-1.41,20.08,20.08,0,0,0,6.21-4.72c3.55-3.83,5.21-9.07,5.73-14.38.12-1.37.23-2.58.33-4.21a16.24,16.24,0,0,1,1.11-5,6.5,6.5,0,0,1,2.13-2.8,6.91,6.91,0,0,1,1-.55,6.08,6.08,0,0,1,1.09-.32,5.85,5.85,0,0,1,2,0A6.1,6.1,0,0,1,548,310a7.68,7.68,0,0,1,1.71,2.88,22.56,22.56,0,0,1,.89,4.82c.16,1.39.35,2.88.47,4.34a68.37,68.37,0,0,1,.3,8.92A40.09,40.09,0,0,1,550,340a25.54,25.54,0,0,1-4,8.67,23.62,23.62,0,0,1-7.19,6.47l-2.12,1.13q-1.09.5-2.21.89c-.74.26-1.5.49-2.25.69l-2.11.52A32.86,32.86,0,0,0,516,365.77a37.7,37.7,0,0,0-9.5,13.19h0a1.37,1.37,0,0,1-2.56-1,38.79,38.79,0,0,1,9.3-15.15,36.12,36.12,0,0,1,15.52-9.25l2-.61q.93-.3,1.82-.66c.59-.24,1.17-.51,1.73-.8l1.63-1a18,18,0,0,0,5.25-5.13c2.74-4.12,3.69-9.39,4-14.75a80.16,80.16,0,0,0-.1-8.21c-.07-1.4-.2-2.75-.32-4.2a18.61,18.61,0,0,0-.49-3.62,2.45,2.45,0,0,0-.39-.82.53.53,0,0,0-.36-.21c-.28,0,0-.06,0-.11s-.23.18-.41.59a11.38,11.38,0,0,0-.84,3.33c-.12,1.22-.33,2.84-.55,4.32a20.67,20.67,0,0,1-.38,2.24l-.58,2.22a28.93,28.93,0,0,1-1.53,4.35,14.68,14.68,0,0,1-1,2.08,20.76,20.76,0,0,1-1.19,2l-1.4,1.88a19.19,19.19,0,0,1-1.59,1.72,23.43,23.43,0,0,1-7.72,5.07,26.35,26.35,0,0,1-4.38,1.32,21.75,21.75,0,0,1-4.6.47,1.36,1.36,0,0,1-.13-2.72Z"/></svg>