<svg id="Layer_1" data-name="Layer 1" xmlns="http://www.w3.org/2000/svg" viewBox="0 0 960 560"><defs><style>.cls-1{fill:#ffa180;}.cls-2{fill:#ffb195;}.cls-3{fill:#fff;}.cls-4{fill:#707aba;}.cls-5{fill:#3745a3;}.cls-6{fill:#5663ba;}.cls-7{fill:#1e2966;}.cls-8{fill:#4c9dba;}.cls-9{fill:#ff9f7d;}.cls-10{fill:#2f89a8;}.cls-11{fill:#1a6d8a;}.cls-12{fill:#233940;}</style></defs><title>suitcase, luggage, baggage, travel</title><path class="cls-1" d="M795.87,488.62c-132,141.36-252-42.36-399.21,36-65.26,34.73-165,41.56-227.28-3.39-16.75-12.08-28.14-27.35-34.58-44-16.37-42.22-.87-93.16,39.71-122.82,33-24.11,76.87-25.73,110-49.51,42.87-30.78,36.18-86.33,35.44-133.11-.65-41.25,8-80.8,36.32-112.14a147.35,147.35,0,0,1,24.07-21.34A170,170,0,0,1,454.77,9.11c67.41-9.42,135.93,17,189.93,56q13.71,9.91,26.73,20.93c60.88,51.52,109.53,120.12,137.93,194C834.38,345.2,848.22,432.56,795.87,488.62Z"/><path class="cls-2" d="M338.28,546.05a432.07,432.07,0,0,0,57.44-20.93A239.83,239.83,0,0,1,338.28,546.05Z"/><path class="cls-2" d="M795.87,488.62c-128,137.13-244.79-31.65-386,29.66,40.08-20.77,90.7-60.7,90.7-119.2,0-17.74-.8-33.48-2.19-47.43A215.2,215.2,0,0,1,588,154.38h0c56.18-39.7,134.16-25.47,172.41,31.7a478.2,478.2,0,0,1,48.93,94C834.38,345.2,848.22,432.56,795.87,488.62Z"/><path class="cls-3" d="M687.44,443.27a13,13,0,0,0-6.91-2.63c-18.27-2.06-31.49-20.41-29.84-38.34A46.59,46.59,0,0,0,625,397.07c-10.6,1-15.6,6.82-17.45,16.9-.24,1.31,8.29,11.28,9.16,13.87,1.91,5.7,1.55,11.36,2.31,17.2.49,3.74,4.87,12.48,3.29,15.86-1.11,2.38-.62,5.37,2.22,6.31a5.86,5.86,0,0,0,5.89.93,97.28,97.28,0,0,0,33.23-1.71c8.8-2,21.55-4.47,25.4-14C690.76,448.31,689.8,445.25,687.44,443.27Z"/><path class="cls-1" d="M735.6,462.38c-2.12,5.87-9.93,7.79-15.11,9.75a245.74,245.74,0,0,1-27.57,8.59A251.66,251.66,0,0,1,639,488a1.31,1.31,0,0,1-1-.4,1.16,1.16,0,0,1-1.46-.4c-11.58-14.72,11.55-25.61,21.54-30.69,15.53-7.89,32.33-14.93,50.11-13.91C717.42,443.08,740.75,448.09,735.6,462.38Z"/><path class="cls-2" d="M725.28,432.38a9.67,9.67,0,0,0-2.83-3.66c-6.62-5.34-12.75.45-18.19,4.13-6.85,4.63-15.2,5.08-22.8,2.21a5,5,0,0,0-1.43-.32,31.79,31.79,0,0,0-18.17-12c-6.26-1.48-8.93,8.16-2.66,9.65a21.92,21.92,0,0,1,13.93,10c-1.23,3.74-3.92,6.75-8.11,7.42-4.86.77-8.6-2.1-11.83-5.35-6.23-6.25-13.5-14.11-23.34-11.84-21.49,5-11.13,37.3-5.81,50.44a5.42,5.42,0,0,0,6.57,3.12c9.94.66,19.56-2,28.84-5.39l.29-.11c2.27-.83,4.59-3.22,6.72-4.48a49.71,49.71,0,0,1,7.65-3.73c5.34-2,11.3-2.19,16.79-3.75,13.83-3.93,22.46-14.11,32.22-24a2.09,2.09,0,0,1,1-.56c.3-.72.58-1.46.82-2.23a14,14,0,0,0,1.19-5.7c0-.2.06-.4.08-.61A4.29,4.29,0,0,0,725.28,432.38Z"/><path class="cls-4" d="M613.69,162.9c-4.9-15.8-9.77-29.31-14.43-39.12.12.27,9.14-2.94,9.67-3.12,10-3.39,19.91-7.4,28.9-13a13.24,13.24,0,0,1,5.27-2.27h0a1.31,1.31,0,0,0-.43-.94,184.8,184.8,0,0,1-47.65-63.59q-.7-3.14-1.34-6.29l-2-1a1.68,1.68,0,0,0-.62-.29,277.29,277.29,0,0,0-67.4-22.26q-10.74-2-21.61-3a206,206,0,0,0-47.32,1A169.8,169.8,0,0,0,380.33,38.3C375.86,59.44,364.78,88,339.52,123c0,0,17.84,5.61,29,8.61a8,8,0,0,1,2.43.88h0c1.16.37,2.21.82,3.09,1.11a1.29,1.29,0,0,1,.53.35c3.46,3.63-3.48,30.69-11.26,56.77C355.58,216.63,347,241.58,347,241.58l165-8s39.82,58,84.41,192.49c0,0,28.13,12.19,71.13-23.81C667.56,402.26,640.25,248.65,613.69,162.9Z"/><path class="cls-5" d="M351.52,470.58,337,510.08l-16.88-12.19-1.12-.81s-11.5,1.5-20-4-84-42-84-42l-1-14a8.45,8.45,0,0,0-4.81-4.38c-3-1.22-7.62-1.65-14.81.64C178,438.58,188,419.58,194,416.08Z"/><path class="cls-6" d="M479,92.06q-.06,5.88.36,11.79c.14,1.93-2.86,1.91-3,0A153.32,153.32,0,0,1,502.09,8.06q10.86,1,21.61,3a317.67,317.67,0,0,0-44.37,80.48A1.8,1.8,0,0,1,479,92.06Z"/><path class="cls-6" d="M576.61,190.1c-16.71,10.7-34.43,20.3-52.89,27.45a47.51,47.51,0,0,1,20.42,63.93,1.47,1.47,0,0,1-2.69-.32,1.37,1.37,0,0,1-2-.53l-31.88-57.57c-22.91,6.82-46.83,9.41-71.31,5.28a134.39,134.39,0,0,1-73-37.64c7.36-24.69,14-50.4,11.72-56.16a2.19,2.19,0,0,0-.46-.78v-.18h0c11.44,2,22.9,3.9,34.34,5.78,9.24-4,15-12.57,19-21.47a114,114,0,0,0,9-33.36c.22-1.85,3.07-1.88,3-.12,6.06,6.37,6.05,15.61,6.19,23.92a269.17,269.17,0,0,1-2,37c52.71,2.49,104.24-6,154.33-21.54a29.2,29.2,0,0,0,2.91,4.43,350.56,350.56,0,0,1,12.41,34.67A364.5,364.5,0,0,1,576.61,190.1Z"/><path class="cls-5" d="M514.37,233.39c-4.51,2.36-8.71,3.73-13.1.4a41.74,41.74,0,0,1-7.26-7.23,151.21,151.21,0,0,1-57.71,1.78,134.39,134.39,0,0,1-73-37.64c7.36-24.69,14-50.4,11.72-56.16,34.18,8.24,69,10.8,69,10.8,13.41,7.27,46.75,52.62,62.91,75.32a1.31,1.31,0,0,1,.7.66c.11.2.26.53.44.94l.39.55-.13,0c1.23,2.79,3.52,7.93,5.26,7.75C515.11,230.44,515.63,232.73,514.37,233.39Z"/><path class="cls-5" d="M347.77,519.44a33.66,33.66,0,0,0,3.35-15,2.13,2.13,0,0,1,3.49-1.68,16.87,16.87,0,0,0-2.06-6.75,18.65,18.65,0,0,0-21.19-8.7,19.44,19.44,0,0,0-10.18,7.24,23.29,23.29,0,0,0-8.49,20.52c.8,7.71,6.19,15.54,14.59,15.72a18.15,18.15,0,0,0,7.92-1.86,18.26,18.26,0,0,0,8.72-4.51,20.52,20.52,0,0,0,3.85-5Z"/><path class="cls-7" d="M341.15,489.17a1.38,1.38,0,0,0-.23-.91,22.81,22.81,0,0,0-12-9.55,1.32,1.32,0,0,0-1,0,1.48,1.48,0,0,0-.28-.16,43.3,43.3,0,0,0-17.81-3.83c-6,0-10.79,1.87-16.48,3.86-2.79,1-10.5,1.42-11-2.33-1-7.77-5.13-10.61-10.43-13-7.68-3.44-15.76-7.6-23.56-11A248.2,248.2,0,0,1,226,441.11c-3.1-1.73-6.06-4-9.59-4.88-2.77-.65-5.21.3-7.53,1.77-12.15,7.67-17.12,31.75-.64,37.88a17,17,0,0,0,10.44.2,25.27,25.27,0,0,0,10.26-5.68,20.6,20.6,0,0,0,4-5.16l1.22-1.35a24,24,0,0,0,2-2.57c23,11.23,57.37,28.16,62.94,31.76,8.5,5.5,20,4,20,4l1.12.81c.2-.14.4-.26.6-.39,5.58-3.49,12.05-7.24,18.85-5.86A1.57,1.57,0,0,0,341.15,489.17Z"/><path class="cls-7" d="M345.14,515.61c3.33-6.87,1.49-16-4.91-19.06s-14.92,1-18.25,7.82-.85,15,5.55,18.05S341.81,522.48,345.14,515.61Z"/><path class="cls-3" d="M529.87,154.61,481.7,220.48c-3.8,5.2,4.87,10.2,8.63,5l48.17-65.88C542.31,154.45,533.63,149.46,529.87,154.61Z"/><path class="cls-8" d="M549.84,114.83c-3.92-3.84-9.06-6-14-8.22-5.2-2.37-10.54-4.42-15.87-6.48-9.05-3.49-18-7.63-27.75-8.69a5.36,5.36,0,0,0-2.11-.7c-7.2-.85-13.84,2.08-19.56,6.24a154.32,154.32,0,0,0-17.72,14.79c-.14.14-.27.28-.39.42a4.28,4.28,0,0,0-.67.92,5.08,5.08,0,0,0,1.79,6.84c.64.34,1.26.7,1.87,1.09.34.22.66.45,1,.68l.21.14.11.11a27.53,27.53,0,0,1,3.22,3.23,4.79,4.79,0,0,0,4.77,1.3c1.94-.48,2.69-1.84,3.63-3.46,4-6.91,12.69-11.6,20.21-13.42a46.45,46.45,0,0,1,24.71,1.25,120,120,0,0,1,17.55,7,19.4,19.4,0,0,1,7.26,5.56c6.49,8.86-4.05,16.54-10.63,20.86-3.89,1.3-4.77,8.09.26,9.68a30.43,30.43,0,0,1,5.08,2.08c.58.31,2.88,1.59,2.88,1.61a4.82,4.82,0,0,0,1.59,2.49c1.71,2.08,4.87,3,7.29.5,11.25-11.59,18.42-32.28,5.63-45.46Z"/><path class="cls-3" d="M456,118.82,394.6,191c-4.15,4.87,2.89,12,7.07,7.07l61.4-72.14C467.22,121,460.18,113.91,456,118.82Z"/><path class="cls-2" d="M554.59,68.88c-.38.5-.77,1-1.17,1.48-.69.85-1.39,1.69-2,2.53a22.89,22.89,0,0,0-3.6,6.41,104.56,104.56,0,0,0-11.15,26.85c-.15.54-.29,1.09-.42,1.64-2.23-1.29-4.5-2.56-6.83-3.68h0a42.56,42.56,0,0,0-7.18-2.74c-6.11-4.46-14.08-6.69-21.62-8.74a1.81,1.81,0,0,0-2-.39,19.89,19.89,0,0,0-2.85,1.4c-6,3.55-8.34,9.51-7.33,16.67a4.63,4.63,0,0,1-.5.39c-2.53,3.36-9.21,2.42-9-2.86,0-.65.08-1.3.14-1.94-4.28-15.5,9.63-27.35,13.58-41.42A5.38,5.38,0,0,1,499.09,61q4.37,1.4,8.81,2.41a102,102,0,0,0,39.63,1.27c.31,0,.61-.1.92-.15a5.45,5.45,0,0,1,1.55-.06,5.34,5.34,0,0,1,4.42,3.77A4.46,4.46,0,0,1,554.59,68.88Z"/><path class="cls-9" d="M553.61,70v0a3.54,3.54,0,0,1-.46.73c-.6.74-1.2,1.46-1.77,2.19a23.25,23.25,0,0,0-3.5,6.14,3.16,3.16,0,0,1-.24.52,104.55,104.55,0,0,0-11,26.6,1.23,1.23,0,0,1-1.17.11l-6.08-2.15h0l-13.25-4.69c-5.57-2-11-4.07-17-4.31-.26.16-.5.34-.77.49a2.41,2.41,0,0,1-2.73-2,1.47,1.47,0,0,1,1.44-1.54h0a3.82,3.82,0,0,0,2.26-.83,17.2,17.2,0,0,0,6-10.52c.33-1.9,3.22-1.09,2.9.8-.06.37-.14.73-.22,1.09a9.78,9.78,0,0,0,4.71,10.94c2.08,1.11,4.32,2,6.5,2.89l.59.24a3.59,3.59,0,0,0,4.82-2.38,40.67,40.67,0,0,1,6.17-13,3.58,3.58,0,0,0-2.62-5.68,46.54,46.54,0,0,1-25.76-10.08l-.15,0a1.2,1.2,0,0,1-1.08-1.17,1.57,1.57,0,0,1,2.46-1.62c1.35.23,2.7.45,4,.64l.22,0a102,102,0,0,0,39.39,1.27l.26,0,1.88-.16a3.13,3.13,0,0,1,.91,0,5,5,0,0,1,2.47,1.31A3.55,3.55,0,0,1,553.61,70Z"/><path class="cls-2" d="M499.83,105.88c-6.39-.69-6.34,9.31,0,10h.08A32.72,32.72,0,0,0,523,122.07c1.82,1.34,2.63,2.91,1.66,4.76-3,5.69,5.62,10.75,8.63,5C543.73,112.21,512.47,107.25,499.83,105.88Z"/><path class="cls-8" d="M528.75,292.81c-22.57,30.07-38.32,53.32-60.89,83.39l-1.51,2-.11.15L389,480C382.56,488.44,376,497,368,503.9a0,0,0,0,0,0,0,65.47,65.47,0,0,1-5.23,4.13,9,9,0,0,1-3,1.44,5.14,5.14,0,0,1-4.86-1,10.79,10.79,0,0,1-3-4c-7.58-18.16-31.34-25.41-51.28-34h0c-1.73-.74-3.47-1.5-5.2-2.28l-.43-.19c-2.39-1.08-4.78-2.19-7.17-3.31-10.94-5.16-21.9-10.74-32.88-16.43-19.57-10.13-39.17-20.6-58.65-29.54l-2.19-1c-15.54-7-16.54-24-20.48-40.64-4.54-19.09,4.84-38.91,14.18-55,10.23-17.67,21.51-35.7,35.68-50.5,5-5.18,17.38-19.65,26-17.21,5.35,1.52,9.34,3.38,13.11,2.56a9.4,9.4,0,0,0,4.19-2.17c4.28-3.66,7.4-8.59,10.75-13.18.3-.42.6-.83.91-1.24,9.67-10.48,23.65-22,38.42-31.92a.21.21,0,0,1,.1-.07c20.28-13.6,42-24.09,56-24.47,7-.19,15.78,1,25.34,3,23.07,5,50.91,15.14,71.16,23.62,11,4.61,20,8.3,28.94,12.7.15.44.28.9.4,1.35l2,1.06q12.24,6.42,24.13,13.91C541.54,250,539.47,277.49,528.75,292.81Z"/><path class="cls-10" d="M525,239.6q-11.91-7.52-24.13-13.91l-1.84-.32-.68-.12c3.16,8.81-2.52,18.06-3.15,19l-.06.11L338,462.81l-.36.57c-7.15,8.08-16.9,9.2-25.28,9.2h-.07a71.83,71.83,0,0,1-16.89-4.18c1.74.78,3.48,1.42,5.22,2.16,13.45,5.78,26.87,10.78,37.7,19.11a2,2,0,0,1,1.38,0,16.69,16.69,0,0,1,9.68,7,12.26,12.26,0,0,1,1.86,6.93c.22.34-.47,4.28-.26,4.62.87,1.4,2.7-.68,3.94.35a5.14,5.14,0,0,0,4.86,1,9,9,0,0,0,3-1.44c1.82-1.3,3.56-2.68,5.24-4.14C376,497,382.56,488.44,389,480l77.26-101.63,1.62-2.16c22.57-30.07,38.32-53.32,60.89-83.39C539.47,277.49,541.54,250,525,239.6Z"/><path class="cls-10" d="M411.74,327.43c-1-11.91-18.76-21.6-28.72-25.52,3.7,1.48,12.28,15.71,12.44,19.16.69,14.81-17,28-25.63,38.06-15.36,17.94-30.28,36.89-42.27,57.76-3.66,6.37-28.41,47.33-6.62,44.14,4.44-.65,7.6-4.42,10.2-7.74,4.41-5.66,8.67-11.45,13-17.22q26.1-35.13,50.46-71.51C401.62,354,412.94,341.07,411.74,327.43Z"/><path class="cls-11" d="M482.71,332.79c-2.69,4.38-5.5,8.68-8.39,12.92q-9,13.23-19.29,25.59A343.62,343.62,0,0,1,410.31,416c1.36-.71,3,1.16,1.75,2.38-5.54,5.31-14,1.82-16.12-5.07-3.24-10.58,6.5-20.18,12.32-27.72,13.26-17.19,26.08-35,41.45-50.42,7.1-7.11,14.89-14,23.5-19.25,5.73-3.49,13.28-3.17,14,5C487.53,325.32,484.88,329.28,482.71,332.79Z"/><path class="cls-6" d="M481.22,333.29a21.59,21.59,0,0,1-1.19,3.82,118.07,118.07,0,0,1-6.52,17,116.6,116.6,0,0,1-20,29.4c-9,9.7-28.09,29.48-42.06,17.32a4.58,4.58,0,0,1-1.71-2,2.86,2.86,0,0,1,.47-2.37A10.37,10.37,0,0,1,412.8,394c35.55-23.77,50-37.66,55.53-66.29.31-1.64,2.49-5.11,2.76-3.78,3.35-3.8,4.55-2.31,7-.38.83.67,2.74,8,3.1,9A1.67,1.67,0,0,1,481.22,333.29Z"/><path class="cls-4" d="M487.52,327.15c2.6-7.22-3.81-14.79-11.28-13a9.63,9.63,0,0,0-6.78,6c-1.89,4.51,1,4.91,4.62,6.7,3,1.5,4.72,4.39,5.82,7.35l0,0a2.35,2.35,0,0,0,4.28.25A61.45,61.45,0,0,0,487.52,327.15Z"/><path class="cls-4" d="M425,408.22c-4.34,6-15.8,17.42-24,11.23-10.3-7.77,3.26-19.58,9.63-23.86a1.43,1.43,0,0,1,2.2,1.29l11.1,8.56a1.51,1.51,0,0,1,.56.83A1.27,1.27,0,0,1,425,408.22Z"/><path class="cls-12" d="M388.59,173.26l53.8,18.16,26.9,9.08,13.53,4.57a29.45,29.45,0,0,1,12.25,8.54,26.85,26.85,0,0,1,6.15,13.69,25.12,25.12,0,0,1-2.55,14.87,28.27,28.27,0,0,1-2,3.24l-2.05,2.9-4.11,5.79-8.22,11.58L449.4,312l-65.87,92.57-32.94,46.29-4.12,5.79c-.7,1-1.33,1.9-2.14,3a33.43,33.43,0,0,1-2.52,2.88c-.9.91-1.78,1.75-2.75,2.56-.47.42-1,.82-1.47,1.2s-1,.77-1.53,1.13a38.93,38.93,0,0,1-6.6,3.71,42.23,42.23,0,0,1-14.61,3.48,43.17,43.17,0,0,1-14.94-1.65l.84.11a2.59,2.59,0,0,0,1.51-.56,2.56,2.56,0,0,0,.47-.49,2.38,2.38,0,0,0,.2-.33,2.42,2.42,0,0,0,.1-.23,2.45,2.45,0,0,0,.11-.33l0-.14,0,.17,0,.15a2.35,2.35,0,0,1-.13.34l-.07.13a2.15,2.15,0,0,1-.12.2,2.57,2.57,0,0,1-2.28,1.15,2.56,2.56,0,0,1-1.63-.7l1,.59a42.39,42.39,0,0,1-5.93-2.26l-5.4-2.68-10.68-5.3-21.38-10.62-42.79-21.25L203,425.52c-1.79-.9-3.56-1.75-5.36-2.68l-2.79-1.63-2.62-1.84a38.15,38.15,0,0,1-14.06-21,35,35,0,0,1-.77-12.9,24.84,24.84,0,0,1,.56-3.2,24.11,24.11,0,0,1,.86-3.13c.17-.51.31-1,.51-1.54l.63-1.5.64-1.49.66-1.35q5.23-10.8,10.9-21.37a487.24,487.24,0,0,1,53.27-79.77A377.48,377.48,0,0,1,315.12,206l-.64.63a3.44,3.44,0,0,1,1.55-1.11l-.81.42c3.38-2.34,6.67-4.76,10.13-7s7-4.41,10.64-6.4a99.38,99.38,0,0,1,23.2-9.41,73.22,73.22,0,0,1,12.5-2.1c2.12-.11,4.24-.24,6.37-.18s4.24.21,6.34.45a127.21,127.21,0,0,1,24.21,5.79c7.81,2.53,15.39,5.35,23.09,7.66s15.57,5,23.25,7.79a380.58,380.58,0,0,1,44.92,19.7c7.24,3.78,14.39,7.79,21.37,12.07,1.75,1.07,3.47,2.14,5.22,3.25a25.85,25.85,0,0,1,5.13,4.35,29.14,29.14,0,0,1,6.33,11.55c2.44,8.41,1.94,17.21-.24,25.38a51,51,0,0,1-4.8,11.81,43.59,43.59,0,0,1-3.54,5.28l-3.67,4.89c-19.43,26-38,52.69-57.68,78.62l.13-.19-24.17,32.06-24.14,31.83Q407.68,459,395.41,474.8l-12.32,15.73c-4.08,5.26-8.51,10.56-14.15,14.6l-.84.28a1.46,1.46,0,0,0,.48-.09,1.5,1.5,0,0,0,.51-.32,1.52,1.52,0,0,0,.38-.57,1.5,1.5,0,0,0,.09-.51l-.64,1.22a26.76,26.76,0,0,1-8.66,4.18,20.71,20.71,0,0,1-9.72.11,35.15,35.15,0,0,1-8.84-3.43c-2.75-1.47-5.35-3.12-7.91-4.8a1.37,1.37,0,0,1,1.5-2.3c2.54,1.64,5.1,3.23,7.73,4.6a32.37,32.37,0,0,0,8.14,3.1,17.77,17.77,0,0,0,8.36-.15,23.79,23.79,0,0,0,7.65-3.78l-.64,1.22a1.51,1.51,0,0,1,.09-.51,1.53,1.53,0,0,1,.38-.58,1.52,1.52,0,0,1,.52-.32,1.49,1.49,0,0,1,.49-.1l-.83.28a48.6,48.6,0,0,0,7.15-6.5c2.22-2.4,4.22-4.95,6.26-7.61l12.18-15.81Q404.9,456.92,416.88,441l24-31.95,23.76-31.84.13-.19c19.48-25.93,37.87-52.72,57.21-78.9l3.62-4.88a39,39,0,0,0,3.22-4.84,46.37,46.37,0,0,0,4.29-10.74c2-7.47,2.31-15.52.15-22.75a24.21,24.21,0,0,0-5.31-9.61,20.88,20.88,0,0,0-4.15-3.49c-1.68-1.07-3.42-2.13-5.14-3.17-6.91-4.17-14-8.08-21.13-11.78a381.51,381.51,0,0,0-44.39-19.21c-7.59-2.75-15.26-5.26-23-7.6s-15.54-5.15-23.2-7.6A121.83,121.83,0,0,0,383.75,187a62.13,62.13,0,0,0-23.12,1.78,93.58,93.58,0,0,0-21.81,9c-3.48,1.92-6.88,4-10.21,6.2s-6.58,4.6-9.87,6.9l-.81.42a2.63,2.63,0,0,0,1.35-1l-.64.63a372.58,372.58,0,0,0-68.54,65c-20.18,24.34-37.55,51-52.68,78.76q-5.65,10.44-10.88,21.11l-.66,1.33-.54,1.25-.54,1.25c-.17.42-.28.86-.43,1.29a19,19,0,0,0-.73,2.61,19.67,19.67,0,0,0-.48,2.67,29.29,29.29,0,0,0,.6,10.79,32.46,32.46,0,0,0,11.91,17.93l2.25,1.6,2.35,1.39c1.73.9,3.54,1.79,5.31,2.68l10.66,5.35,42.65,21.4L280.22,458l10.68,5.36,5.28,2.65a37.23,37.23,0,0,0,5.2,2l1,.59a2.57,2.57,0,0,0-1.16-.63,2.63,2.63,0,0,0-.47-.07,2.56,2.56,0,0,0-.6,0,2.6,2.6,0,0,0-1,.44,2.57,2.57,0,0,0-.64.66l-.12.19-.06.13a2.39,2.39,0,0,0-.13.33l0,.14,0,.14,0-.17a2.67,2.67,0,0,1,.11-.34l.1-.23a2.34,2.34,0,0,1,.21-.33,2.56,2.56,0,0,1,.47-.5,2.6,2.6,0,0,1,1.52-.56h.09a2.59,2.59,0,0,1,.75.11,38.13,38.13,0,0,0,13.14,1.49,37.2,37.2,0,0,0,12.88-3A34.39,34.39,0,0,0,338.28,459a28.49,28.49,0,0,0,2.16-2.45c.63-.81,1.34-1.84,2-2.79l4.14-5.77,33.12-46.14L446,309.58l33.12-46.14,8.3-11.52,4.15-5.76,2.07-2.88a24.37,24.37,0,0,0,1.73-2.82,21.4,21.4,0,0,0,2.27-12.67,23.24,23.24,0,0,0-5.26-11.89,26,26,0,0,0-10.74-7.59l-13.35-4.61-26.85-9.28-53.7-18.56a1.37,1.37,0,0,1,.88-2.59Z"/><path class="cls-12" d="M380.21,213.77c4.11-5.3,8.3-10.54,12.46-15.8l12.58-15.69,12.68-15.6c4.25-5.18,8.43-10.42,12.74-15.55q3.19-3.88,6.47-7.69c2.16-2.56,4.37-5.08,6.57-7.61L457,120.69l3.32-3.79c1.1-1.3,2.26-2.58,3.48-3.83a41.44,41.44,0,0,1,8.21-6.65,24,24,0,0,1,10.18-3.53,26.11,26.11,0,0,1,10.55,1.24,1.37,1.37,0,0,1-.75,2.64,23,23,0,0,0-9.34-.47,20.89,20.89,0,0,0-8.47,3.52,39.71,39.71,0,0,0-7,6.37C466,117.4,465,118.64,464,120l-3.14,3.91-12.64,15.65c-2.11,2.6-4.21,5.22-6.36,7.79s-4.28,5.16-6.47,7.7c-4.32,5.13-8.76,10.16-13.14,15.24L409,185.43l-13.29,15.11c-4.47,5-8.91,10-13.42,15a1.37,1.37,0,0,1-2.09-1.76Z"/><path class="cls-12" d="M526.19,153.28a8,8,0,0,1,1.5-.62,9.86,9.86,0,0,1,1.48-.34,10.8,10.8,0,0,1,3,0,11.33,11.33,0,0,1,2.9.81l1.18.5a8.81,8.81,0,0,0,1,.34c2.8.74,5.64-.36,7.95-2.44a26,26,0,0,0,5.72-7.71,30.71,30.71,0,0,0,3.13-9.15,18.25,18.25,0,0,0-.63-9.06,15.85,15.85,0,0,0-2-4,20.32,20.32,0,0,0-3.09-3.36,30.31,30.31,0,0,0-8.15-4.87c-3.26-1.33-6.52-2.86-9.64-4.4s-6.24-3.07-9.32-4.5-6.31-2.76-9.47-4.09-6.37-2.57-9.59-3.67a52.21,52.21,0,0,0-9.56-2.52c-6.3-.76-12.93,1-18.82,4a43.81,43.81,0,0,0-8.27,5.61A31.63,31.63,0,0,0,459,111.3a1.37,1.37,0,0,1-2.39-1.34,34.65,34.65,0,0,1,6.64-8.64,45,45,0,0,1,8.64-6.6c6.25-3.68,13.61-6,21.26-5.46a21.29,21.29,0,0,1,2.84.36c1,.15,1.82.36,2.7.56,1.75.41,3.48.89,5.18,1.41,3.42,1,6.76,2.21,10.07,3.45s6.53,2.47,9.83,3.95,6.41,3,9.51,4.58,6.15,3,9.29,4.46a35.94,35.94,0,0,1,9.53,6.11,25.79,25.79,0,0,1,3.83,4.44,21.2,21.2,0,0,1,2.58,5.37,23.46,23.46,0,0,1,.72,2.89l.17,1.47a9.91,9.91,0,0,1,.1,1.47v1.47c0,.49-.07,1-.1,1.45s-.07,1-.16,1.44l-.26,1.41a28.17,28.17,0,0,1-1.64,5.41,41.22,41.22,0,0,1-2.41,5,30.06,30.06,0,0,1-7.09,8.66,14.64,14.64,0,0,1-5.29,2.75,10.86,10.86,0,0,1-6.15-.13,12.25,12.25,0,0,1-1.41-.56l-1.19-.59a8.16,8.16,0,0,0-2.08-.72,7.91,7.91,0,0,0-2.18-.14,7,7,0,0,0-1.08.16,6.11,6.11,0,0,0-.94.29l-.15.06a1.36,1.36,0,0,1-1.16-2.46Z"/><path class="cls-12" d="M251.25,252.3,289,265.74l37.66,13.6,37.62,13.73L383,299.94l2.35.86c.86.39,1.75.8,2.61,1.24s1.64,1,2.41,1.53l1.13.88a8.46,8.46,0,0,1,1.08.94,22.44,22.44,0,0,1,6.14,9.67,21.17,21.17,0,0,1,.17,11.58c-.3.93-.62,1.86-1,2.76l-.66,1.31a8.43,8.43,0,0,1-.73,1.26,51.46,51.46,0,0,1-3.16,4.28c-4.14,5.35-8.54,10.41-12.91,15.47-8.76,10.09-17.52,20.08-25.81,30.44a330.4,330.4,0,0,0-23.05,32.36,252.28,252.28,0,0,0-18.26,35.26h0a1.37,1.37,0,0,1-2.55-1,233.43,233.43,0,0,1,17.4-36.3,334.86,334.86,0,0,1,22.55-33.36c8.1-10.7,16.78-20.92,25.32-31.13,4.27-5.11,8.51-10.23,12.52-15.43,1-1.28,2.11-2.67,2.77-3.77a4.87,4.87,0,0,0,.51-.9l.46-.93c.26-.64.48-1.29.69-1.94a15.13,15.13,0,0,0-.08-8.16,16.4,16.4,0,0,0-4.43-7,5.64,5.64,0,0,0-.8-.7l-.83-.67c-.57-.43-1.2-.77-1.79-1.18l-1.89-.94-2.33-.89-18.68-7.15-37.36-14.32-37.31-14.45-37.26-14.61a1.37,1.37,0,0,1,1-2.56Z"/><path class="cls-12" d="M528.63,121.56a14.27,14.27,0,0,1-7.65,2.34,34,34,0,0,1-7.59-.55,39.49,39.49,0,0,1-7.32-2c-.6-.24-1.2-.48-1.81-.8a7.68,7.68,0,0,1-.93-.5,5.91,5.91,0,0,1-1-.69l-.53-.48-.19-.16c-.07-.1-.28-.18-.41-.29a10.66,10.66,0,0,0-1.35-.58,22.32,22.32,0,0,1-3.67-1.49,6.75,6.75,0,0,1-2-1.68,6.32,6.32,0,0,1-1.2-3.84,6.28,6.28,0,0,1,.1-1.25,5,5,0,0,1,.41-1.38c.11-.23.21-.46.34-.67s.3-.41.46-.6a5.71,5.71,0,0,1,1.06-1,8.89,8.89,0,0,1,1.16-.66,9.71,9.71,0,0,1,2.27-.66,21.44,21.44,0,0,1,8.12.48c2.41.58,4.79,1.26,7.14,2a111.22,111.22,0,0,1,13.83,5.35,64.81,64.81,0,0,1,12.95,7.8,31.14,31.14,0,0,1,5.58,5.67,17.66,17.66,0,0,1,3.4,7.87,15.41,15.41,0,0,1-1.32,8.7,34.15,34.15,0,0,1-4.4,6.62q-4.43,5.74-8.95,11.41c-3,3.8-6,7.56-9.05,11.33l-18.2,22.59q-18.21,22.58-36.66,45a1.37,1.37,0,0,1-2.16-1.69q17.3-23.3,34.9-46.37l17.58-23.08c2.94-3.84,5.86-7.7,8.84-11.51s5.93-7.64,8.94-11.42A28.73,28.73,0,0,0,543,140a9.53,9.53,0,0,0,1-5.4c-.42-3.64-3.28-7.2-6.7-10a59.64,59.64,0,0,0-11.7-7.37,117.19,117.19,0,0,0-13.08-5.42c-2.24-.78-4.5-1.49-6.76-2.12a17.26,17.26,0,0,0-6.25-.62,3.15,3.15,0,0,0-1.9.74l-.11.11s0,.1-.06.14-.08.22-.12.35a3.49,3.49,0,0,0,0,1.08c.08.62.28.92,1,1.4a19.94,19.94,0,0,0,3,1.3,13,13,0,0,1,1.94.93,6.6,6.6,0,0,1,1,.8l.46.47.15.12c0,.08.32.24.49.36a4.74,4.74,0,0,0,.65.39,16.28,16.28,0,0,0,1.48.72,36,36,0,0,0,6.57,2.1,30.78,30.78,0,0,0,6.82.79,11.62,11.62,0,0,0,6.14-1.45l.07,0a1.37,1.37,0,0,1,1.54,2.26Z"/><path class="cls-12" d="M507.08,81.15a17.53,17.53,0,0,1-1.85,6.63,16.57,16.57,0,0,1-4.51,5.29,29.76,29.76,0,0,1-5.79,3.41c-.94.45-2,.91-2.62,1.29l-.09.08,0,0-.08.09a3.61,3.61,0,0,0-.32.4,7.8,7.8,0,0,0-.62,1.08,20.43,20.43,0,0,0-1.58,5.47c-.16,1-.26,2-.34,2.95,0,.5-.06,1-.07,1.49s0,.9-.08,1.77a5.56,5.56,0,0,1-1,2.55,4.36,4.36,0,0,1-2.83,1.73,5.5,5.5,0,0,1-2.75-.31,7.73,7.73,0,0,1-2-1.08,13.51,13.51,0,0,1-4.42-6.25,25.25,25.25,0,0,1-.56-13.9,61.15,61.15,0,0,1,4-12.58,83.79,83.79,0,0,1,6.17-11.53c1.19-1.82,2.4-3.63,3.7-5.37s2.62-3.42,4.16-5.15a3,3,0,0,1,3.14-.86l.1,0A103.42,103.42,0,0,0,516,62.86a133.86,133.86,0,0,0,19.86.93,183.77,183.77,0,0,0,20-1.76,172.23,172.23,0,0,0,19.68-4h.05a1.37,1.37,0,0,1,.8,2.62,154.38,154.38,0,0,1-19.87,5.23,162.75,162.75,0,0,1-20.4,2.71,131,131,0,0,1-20.71-.23l-5.18-.63a25,25,0,0,1-2.58-.43l-2.57-.5a87.9,87.9,0,0,1-10.17-2.67l3.25-.83c-1.25,1.43-2.54,3.1-3.76,4.71s-2.39,3.31-3.52,5a89.51,89.51,0,0,0-6,10.62,55.63,55.63,0,0,0-4,11.35,20.16,20.16,0,0,0,.05,11.06,9.12,9.12,0,0,0,2.56,4.09,3.07,3.07,0,0,0,.75.47c.21.1.37.11.35.12s-.2.12-.19.15a1,1,0,0,0,.13-.38c0-.18.07-.85.11-1.39s.1-1.11.15-1.66c.13-1.11.29-2.21.52-3.32a24.4,24.4,0,0,1,2.21-6.56,11.72,11.72,0,0,1,1-1.61,6.11,6.11,0,0,1,1.73-1.58A32.14,32.14,0,0,1,493.39,93a26.27,26.27,0,0,0,5.25-2.72,13.25,13.25,0,0,0,3.86-4.06,14.84,14.84,0,0,0,1.86-5.36v-.07a1.37,1.37,0,0,1,2.71.34Z"/><path class="cls-12" d="M582.16,36.11c-3.46,3.88-6.87,7.78-10.1,11.82s-6.39,8.12-9.31,12.36A159.4,159.4,0,0,0,547.59,87q-1.53,3.5-2.94,7c-.91,2.38-1.8,4.76-2.6,7.17a115.36,115.36,0,0,0-3.81,14.78q-.35,1.87-.62,3.76c-.09.62-.17,1.28-.24,1.86s-.08,1.15-.1,1.77c0,1.27,0,2.63-.18,4a16.89,16.89,0,0,1-.89,4.38A8.08,8.08,0,0,1,535,134a6.51,6.51,0,0,1-1.06,1,5.19,5.19,0,0,1-1.26.69,5.6,5.6,0,0,1-2.83.41,5.75,5.75,0,0,1-2.62-1.09,7.82,7.82,0,0,1-2.64-4.12,8.55,8.55,0,0,1,0-4.68,1.37,1.37,0,0,1,2.66.64v.07a5.91,5.91,0,0,0,.28,3,4.57,4.57,0,0,0,1.68,2.24,1.85,1.85,0,0,0,2,0,2,2,0,0,0,.76-.65,4.34,4.34,0,0,0,.51-1.18,13.09,13.09,0,0,0,.39-3.31c0-1.21,0-2.46-.07-3.8,0-.68,0-1.35,0-2.14s.09-1.35.14-2q.17-2,.42-4a105.82,105.82,0,0,1,8.76-30.73A142.27,142.27,0,0,1,558.8,57.38c3.26-4.17,6.69-8.19,10.25-12.07s7.3-7.58,11.17-11.13a1.37,1.37,0,0,1,1.94,1.92Z"/><path class="cls-12" d="M416.72,140.54l7.15.69c2.38.23,4.75.51,7.14.64,4.77.32,9.54.71,14.31.85,2.39.1,4.77.23,7.16.29l7.16.11,3.58,0,3.58,0L474,143c9.54-.35,19.08-.75,28.57-1.73,2.38-.19,4.75-.47,7.11-.75s4.74-.51,7.1-.85c4.72-.66,9.45-1.3,14.15-2.07,9.4-1.56,18.79-3.21,28.11-5.25s18.58-4.36,27.75-7S605,119.76,614,116.5a285.56,285.56,0,0,0,26.37-11.05l0,0a1.37,1.37,0,0,1,1.27,2.43,253.13,253.13,0,0,1-26.23,12.41c-8.93,3.68-18,6.94-27.24,9.9a365,365,0,0,1-56.38,13.44c-9.56,1.53-19.2,2.46-28.83,3.21l-7.24.49-7.25.31-3.62.15-3.62.06-7.25.09-7.25-.13-3.62-.07-3.62-.16-7.24-.34c-2.41-.14-4.82-.35-7.22-.53-9.63-.73-19.2-2-28.73-3.45a1.37,1.37,0,0,1,.33-2.71Z"/><path class="cls-12" d="M616.62,462.54a99.1,99.1,0,0,1,.31-12.31,37,37,0,0,1,1.16-6.23,20.19,20.19,0,0,1,2.72-6,14.55,14.55,0,0,1,2.32-2.58,12.89,12.89,0,0,1,3-1.86,14.53,14.53,0,0,1,6.76-1,18.67,18.67,0,0,1,6.52,1.49,26.05,26.05,0,0,1,5.63,3.34c3.38,2.61,6.2,5.56,9.21,8a27.16,27.16,0,0,0,4.68,3.16,18.06,18.06,0,0,0,2.49,1.11,6.14,6.14,0,0,0,2.27.48,5.13,5.13,0,0,0,2.12-.38,10,10,0,0,0,5.41-4.83,14.52,14.52,0,0,0,.84-10.14,15.46,15.46,0,0,0-5.67-8.52c-.35-.25-.71-.48-1.07-.71s-.74-.42-1.13-.6-.77-.38-1.18-.5a6,6,0,0,0-1.09-.33,2.14,2.14,0,0,0-1.44.09,2.3,2.3,0,0,0-1.12.95,3.38,3.38,0,0,0-.53,1.52,2.39,2.39,0,0,0,.34,1.34,2.82,2.82,0,0,0,1.16,1,24.82,24.82,0,0,0,2.51,1,86.84,86.84,0,0,0,11.37,2.94,93.83,93.83,0,0,0,11.68,1.54,48.5,48.5,0,0,0,11.39-.46,17.85,17.85,0,0,0,4.95-1.59,8.89,8.89,0,0,0,1.89-1.28l.44-.39.65-.61c.42-.42.92-.77,1.39-1.16a16.45,16.45,0,0,1,14.1-2.81,13.44,13.44,0,0,1,6.61,4.07,10.38,10.38,0,0,1,2.07,3.73,9.81,9.81,0,0,1,.3,4.36,11.61,11.61,0,0,1-1.38,3.83,25.76,25.76,0,0,1-1.9,2.89,56.13,56.13,0,0,1-4.19,4.88,106.22,106.22,0,0,1-19.38,15.71,69,69,0,0,1-11.23,5.85,34.59,34.59,0,0,1-6.34,1.87,20.86,20.86,0,0,1-3.48.35l-1.4.07c-.44,0-.89,0-1.33.08a32.35,32.35,0,0,0-10.53,3.61c-3.49,1.78-7,3.89-10.74,5.73a56.49,56.49,0,0,1-11.85,4.44,45.2,45.2,0,0,1-12.71,1.3,21.09,21.09,0,0,1-6.64-1.32,10.71,10.71,0,0,1-3.24-2,6.44,6.44,0,0,1-2.12-3.9,5,5,0,0,1,1.87-4.6,5,5,0,0,1,2.37-1,13,13,0,0,1,1.86,0c2,.07,4,.13,6,.13a72.55,72.55,0,0,0,11.79-.84,36.54,36.54,0,0,0,11-3.41,8,8,0,0,0,1.22-.7l1.18-.76c.39-.26.71-.59,1.07-.87s.67-.55,1.1-.93a10.89,10.89,0,0,1,2.9-2,6.1,6.1,0,0,1,2-.55,4.84,4.84,0,0,1,2.18.3,6.48,6.48,0,0,1,3,2.52,14.2,14.2,0,0,1,1.52,3,29,29,0,0,1,1.52,6.22,1.37,1.37,0,0,1-2.71.42v-.06a26.36,26.36,0,0,0-1.52-5.51,11.33,11.33,0,0,0-1.26-2.36,3.5,3.5,0,0,0-1.58-1.34c-.93-.41-2.45.45-3.71,1.75-.73.66-1.6,1.48-2.43,2.15l-1.35.93a10.1,10.1,0,0,1-1.38.85,38.52,38.52,0,0,1-12,4.08,76.34,76.34,0,0,1-12.39,1.14c-2.06,0-4.13,0-6.13,0-.44,0-1.12,0-1.18,0a.8.8,0,0,0-.39.18.84.84,0,0,0-.25.79,2.28,2.28,0,0,0,.81,1.27,6.52,6.52,0,0,0,1.95,1.1,16.88,16.88,0,0,0,5.25.9,40.77,40.77,0,0,0,11.35-1.41,51.69,51.69,0,0,0,10.76-4.3c3.49-1.81,6.89-3.94,10.57-5.92a36.65,36.65,0,0,1,12.27-4.37c.56-.09,1.13-.09,1.69-.14l1.63-.1a15.48,15.48,0,0,0,2.55-.3,29.17,29.17,0,0,0,5.27-1.65,63.46,63.46,0,0,0,10.2-5.52,106.65,106.65,0,0,0,18.11-15,50.49,50.49,0,0,0,3.7-4.34,20,20,0,0,0,1.43-2.19,5.55,5.55,0,0,0,.68-1.85,3.86,3.86,0,0,0-1-3.19,7.41,7.41,0,0,0-3.6-2.18,10.4,10.4,0,0,0-8.91,1.79c-.31.27-.65.49-.95.78l-1.16,1a14.86,14.86,0,0,1-3.15,2.08,23.66,23.66,0,0,1-6.59,2.06,54,54,0,0,1-12.83.38,99.39,99.39,0,0,1-12.37-1.79A92,92,0,0,1,661,435.08a29.48,29.48,0,0,1-3.1-1.3,8.18,8.18,0,0,1-3.31-3,7.72,7.72,0,0,1-1.07-4.46,8.61,8.61,0,0,1,1.47-4.14,7.52,7.52,0,0,1,3.52-2.82,7.34,7.34,0,0,1,4.51-.3,11,11,0,0,1,1.8.57c.55.18,1.07.47,1.6.7s1,.56,1.54.84,1,.64,1.45,1a20,20,0,0,1,4.71,5.1,21.2,21.2,0,0,1,2.67,6.31,19.26,19.26,0,0,1-1.46,13.52,14.58,14.58,0,0,1-8,6.88,9.63,9.63,0,0,1-3.83.6,10.52,10.52,0,0,1-3.63-.81,22.35,22.35,0,0,1-3-1.42,31.4,31.4,0,0,1-5.31-3.72c-3.23-2.73-6-5.7-9-8.1s-6.28-4.1-9.93-4.3a11,11,0,0,0-5.16.6,9.45,9.45,0,0,0-2.17,1.26,11.17,11.17,0,0,0-1.78,1.88c-2.09,2.9-3.06,6.78-3.58,10.63a96.5,96.5,0,0,0-.6,11.95,1.37,1.37,0,0,1-2.73,0Z"/><path class="cls-12" d="M463.06,163.7a289.22,289.22,0,0,1,24.72,27.92c1.9,2.45,3.87,4.86,5.72,7.34l5.48,7.52,2.74,3.76c.92,1.25,1.76,2.56,2.64,3.83l5.23,7.7a619.91,619.91,0,0,1,37.21,64.44L554.9,303l2,4.19,1.85,4.27,3.7,8.54,3.7,8.54,1.83,4.28c.58,1.44,1.11,2.9,1.67,4.34l6.61,17.4,1.64,4.35c.55,1.45,1.1,2.9,1.57,4.38l2.93,8.83,5.87,17.65c1,2.92,1.78,5.94,2.66,8.91l2.56,8.94,5.12,17.87L597.38,424a17.86,17.86,0,0,0,1.87.66c.66.23,1.38.36,2.08.55a36,36,0,0,0,4.31.7,49.82,49.82,0,0,0,8.84.15,65.38,65.38,0,0,0,17.45-3.91c1.4-.54,2.83-1,4.22-1.62l4.11-1.92c.68-.33,1.38-.61,2-1l2-1.1,4-2.21c2.58-1.6,5.11-3.3,7.65-5l7.3-5.52.07-.05A1.37,1.37,0,0,1,665,406l-7.28,5.86c-2.55,1.79-5.09,3.61-7.7,5.34a95.25,95.25,0,0,1-16.75,8.55,69.32,69.32,0,0,1-18.43,4.53,54.09,54.09,0,0,1-9.62,0,40.22,40.22,0,0,1-4.82-.68c-.8-.19-1.6-.33-2.41-.58a20.71,20.71,0,0,1-2.5-.84,2.09,2.09,0,0,1-1.2-1.31l0-.16L588.76,409,586,400.19c-.93-2.93-1.75-5.91-2.83-8.8L577.11,374l-3-8.72c-.49-1.46-1.06-2.89-1.63-4.32l-1.69-4.3L564,339.41c-.56-1.43-1.1-2.87-1.68-4.3l-1.82-4.24-3.62-8.49-3.62-8.49-1.81-4.25-2-4.18-7.81-16.73a663.25,663.25,0,0,0-35.92-64.47l-5-7.74c-.85-1.28-1.66-2.6-2.54-3.85l-2.64-3.78-5.29-7.56c-1.79-2.5-3.66-4.94-5.48-7.42a286.84,286.84,0,0,0-23.62-28.23l-.05-.06a1.37,1.37,0,0,1,1.93-1.93Z"/><path class="cls-12" d="M438.15,84a91.47,91.47,0,0,1-1.66,17.4,88.76,88.76,0,0,1-4.83,16.85,49.43,49.43,0,0,1-9.21,15.24,28.66,28.66,0,0,1-7.23,5.72,23.4,23.4,0,0,1-9,2.76,15.56,15.56,0,0,1-2.35.12,18.63,18.63,0,0,1-2.34-.1c-.76-.09-1.58-.16-2.29-.27l-2.14-.35c-2.85-.47-5.7-1-8.54-1.54q-8.51-1.67-16.92-3.82a329.41,329.41,0,0,1-33.09-10.39,2.66,2.66,0,0,1-1.09-4.22l.06-.07c1.79-2.05,3.58-4.37,5.28-6.63s3.36-4.64,5-7q4.82-7.13,9-14.66a241.48,241.48,0,0,0,14.73-31.14l1.57-4a7.83,7.83,0,0,1,2-3,7.06,7.06,0,0,1,3.28-1.72,7.77,7.77,0,0,1,6.77,1.68,7.42,7.42,0,0,1,2.08,3.11,8.58,8.58,0,0,1,.37,1.79l0,.88V61l0,.27q-.67,8.71-1.43,17.43-1.59,17.43-3.89,34.81c-1.5,11.59-3.47,23.11-5.69,34.59l-1.75,8.59c-.59,2.86-1.29,5.7-1.92,8.55-1.24,5.71-2.79,11.35-4.22,17-3.13,11.26-6.42,22.48-10.4,33.47-3.82,11-8.37,21.82-13,32.51a1.37,1.37,0,0,1-2.53-1.06l0,0,3.23-8.07c1.07-2.69,2.19-5.37,3.14-8.11l3-8.17c.5-1.36,1-2.73,1.42-4.11l1.36-4.13c3.74-11,6.79-22.16,9.68-33.37,1.3-5.64,2.74-11.25,3.86-16.94.58-2.84,1.22-5.66,1.75-8.51l1.58-8.54c.56-2.84,1-5.71,1.44-8.57s.94-5.71,1.32-8.59l1.23-8.6,1.08-8.62c1.38-11.51,2.47-23,3.39-34.62q.71-8.67,1.34-17.37l0-.27v-.11a1.22,1.22,0,0,1,0-.22c0-.13,0-.23-.07-.33a1.45,1.45,0,0,0-.32-.48,1.7,1.7,0,0,0-1.39-.34,1,1,0,0,0-.53.27,1.72,1.72,0,0,0-.41.61l-1.62,4.1a231.29,231.29,0,0,1-15.38,31.77q-4.41,7.65-9.45,14.93a153.49,153.49,0,0,1-10.87,14.11l-1-4.29q16,6.14,32.46,10.66,8.24,2.25,16.6,4.05c2.79.59,5.58,1.15,8.38,1.67l2.1.38c.7.12,1.31.17,2,.27a14.72,14.72,0,0,0,2,.12,11.91,11.91,0,0,0,1.94-.06,19.18,19.18,0,0,0,7.4-2.14,24.63,24.63,0,0,0,6.29-4.81,46.19,46.19,0,0,0,8.8-13.89,85.37,85.37,0,0,0,5-16.09,88.57,88.57,0,0,0,2-16.78v0a1.37,1.37,0,0,1,2.73,0Z"/><path class="cls-12" d="M214.75,394.15c-4.56,5.59-9.18,11.12-13.78,16.67l-7,8.28-3.48,4.14-.87,1-.43.52-.27.36a3.87,3.87,0,0,0-.61,1.53,4,4,0,0,0,.79,3.07,3.72,3.72,0,0,0,2.76,1.39,3.8,3.8,0,0,0,1.56-.28,24.21,24.21,0,0,1,2.89-.92,23.84,23.84,0,0,1,12.09.11,26.38,26.38,0,0,1,2.89,1c.92.37,1.9.86,2.67,1.22q4.89,2.29,9.74,4.66t9.69,4.76c3.23,1.59,6.43,3.24,9.63,4.88l19.21,9.86,9.6,5,4.79,2.49c.82.39,1.53.88,2.46,1.41a10.26,10.26,0,0,1,2.61,2.16,6,6,0,0,1,1,1.74,6.19,6.19,0,0,1,.35,2c0,1.21-.19,2.09-.19,2.77,0,.34,0,.65.06,1a4.57,4.57,0,0,0,.27.88,3.82,3.82,0,0,0,1.1,1.49c2,1.74,5.88,1.85,8.28.25l.05,0a1.37,1.37,0,0,1,1.58,2.24,10.28,10.28,0,0,1-5.88,2,9.81,9.81,0,0,1-6.13-1.74,7.59,7.59,0,0,1-3.07-6.05c0-1.12.11-2,.06-2.62a1.8,1.8,0,0,0-.55-1.24,6.53,6.53,0,0,0-1.62-1.15c-.66-.32-1.46-.82-2.29-1.16l-4.91-2.27L260,460.87l-19.6-9.17c-3.26-1.53-6.53-3.06-9.77-4.64s-6.49-3.14-9.71-4.76-6.46-3.21-9.66-4.85c-.85-.43-1.48-.76-2.22-1.09a20.69,20.69,0,0,0-2.2-.82,18,18,0,0,0-4.6-.77,18.26,18.26,0,0,0-4.67.43,18.86,18.86,0,0,0-2.27.65,9.09,9.09,0,0,1-3.74.53,8.89,8.89,0,0,1-6.49-3.53,8.76,8.76,0,0,1,0-10.51l.58-.7.46-.5.91-1,3.65-4,7.29-8c4.9-5.28,9.77-10.59,14.72-15.83a1.37,1.37,0,0,1,2.05,1.8Z"/><path class="cls-12" d="M478.12,313.06c-1.44,2.39-3,4.73-4.46,7.08a32.21,32.21,0,0,0-3.46,7,31.68,31.68,0,0,0-1,3.69c-.13.62-.25,1.25-.34,1.88,0,.31-.09.63-.12.94l-.14,1a35.34,35.34,0,0,1-2.39,8.72,56.8,56.8,0,0,1-9.46,14.55,98.13,98.13,0,0,1-12.07,11.94,1.38,1.38,0,0,1-1.94-1.94h0c3.54-4.26,7-8.56,10-13A87.54,87.54,0,0,0,460.58,341a33.42,33.42,0,0,0,2.46-7.21l.2-1c.07-.37.15-.74.24-1.11.17-.74.37-1.47.58-2.19a31.77,31.77,0,0,1,1.6-4.22,33,33,0,0,1,4.79-7.48c1.82-2.11,3.6-4.25,5.47-6.34a1.37,1.37,0,0,1,2.2,1.63Z"/><path class="cls-12" d="M480.7,341.33a76.21,76.21,0,0,1-11.89,28.46c-1.45,2.14-2.92,4.27-4.54,6.28s-3.25,4-4.94,6a126,126,0,0,1-11,10.89q-2.89,2.57-6,4.89c-2,1.58-4.17,3-6.33,4.46-1.1.69-2.16,1.42-3.29,2.07l-1.68,1c-.25.16-.69.37-1,.55s-.75.32-1.13.47a12.13,12.13,0,0,1-9.36-.58,13.13,13.13,0,0,1-2-1.21c-.3-.24-.62-.47-.9-.73l-.75-.69a7,7,0,0,0-2.39-1.52,7.86,7.86,0,0,0-5.78.1,8,8,0,0,0-2.52,1.67c-.34.32-.77.83-1.19,1.3l-1.25,1.42-5,5.66a1.37,1.37,0,0,1-2.13-1.73l4.49-6.11,1.13-1.52c.38-.5.73-1,1.25-1.59A12,12,0,0,1,415,397.3a11.64,11.64,0,0,1,4.1,2.27l.68.56c.18.16.4.28.59.43a8.18,8.18,0,0,0,1.28.67,7,7,0,0,0,5.37.06c.2-.1.41-.19.6-.29s.34-.18.62-.38l1.53-1c1-.65,2-1.41,3-2.1,2-1.45,3.95-3,5.89-4.48,1-.75,1.93-1.54,2.88-2.33s1.93-1.54,2.86-2.36c3.78-3.18,7.38-6.57,10.82-10.11,1.67-1.81,3.4-3.58,5-5.48.78-.95,1.64-1.85,2.36-2.84l2.26-2.92c.79-1,1.42-2,2.14-3s1.44-2,2.05-3.07c1.23-2.12,2.59-4.19,3.62-6.43A72.88,72.88,0,0,0,478,340.75l0-.07a1.37,1.37,0,0,1,2.65.65Z"/><path class="cls-12" d="M320,499.6a22.82,22.82,0,0,0-4.62,12.87c-.15,4.49,1.57,8.89,4.88,11.38a12.08,12.08,0,0,0,5.63,2.32,15.45,15.45,0,0,0,6.27-.48,21.69,21.69,0,0,0,10.67-7.26,25.64,25.64,0,0,0,3.39-5.62,21,21,0,0,0,1.62-6.25,13.37,13.37,0,0,0-4-11.3c-3.07-2.75-7.68-3.64-12.08-2.67A22.52,22.52,0,0,0,320,499.6Zm-2.11-1.74a25.62,25.62,0,0,1,12.89-9.09,19.92,19.92,0,0,1,8.28-.68,16.6,16.6,0,0,1,7.95,3.32,16.8,16.8,0,0,1,5.21,7,20.69,20.69,0,0,1,1.4,8.47,24,24,0,0,1-1.8,8.24,27,27,0,0,1-18.26,16,20.35,20.35,0,0,1-8.55.25,16.27,16.27,0,0,1-12.63-10.89,19.92,19.92,0,0,1-1-8.25A25.33,25.33,0,0,1,317.89,497.86Z"/><path class="cls-12" d="M231,468a24.4,24.4,0,0,1-12.77,9.56,19.92,19.92,0,0,1-8.49.75,16.92,16.92,0,0,1-8.21-3.44,15.7,15.7,0,0,1-5-7.37,19.9,19.9,0,0,1-.83-8.52,24.39,24.39,0,0,1,7-14.35,1.38,1.38,0,0,1,2.13,1.72l0,0a23.84,23.84,0,0,0-4.11,12.9,15.64,15.64,0,0,0,1.27,6.17,13.61,13.61,0,0,0,3.48,4.72c2.92,2.6,7.3,3.5,11.61,2.63a23.83,23.83,0,0,0,11.87-6.53l0,0A1.37,1.37,0,0,1,231,468Z"/><path class="cls-12" d="M324.82,518.49a9.27,9.27,0,0,0,3.64,3.1,7.37,7.37,0,0,0,4.5.43c3.09-.64,5.85-2.92,7.89-5.59a16.35,16.35,0,0,0,3.45-9.13,10,10,0,0,0-3.19-8.17,9.44,9.44,0,0,0-8.33-1.82c-.38.07-.75.19-1.13.29l-1.24.42c-.92.32-1.85.62-2.79.9a54.13,54.13,0,0,1-5.72,1.38,35.49,35.49,0,0,1-12.13.38,14.62,14.62,0,0,1-1.57-.31,20,20,0,0,1-3.12-1c-.5-.22-1-.44-1.42-.63l-5.06-2.39q-5.07-2.37-10.1-4.84c-3.37-1.62-6.7-3.3-10-5l-20-10q-20-10-39.92-20.37a1.37,1.37,0,0,1,1.18-2.47q20.54,9,40.92,18.35L281,481.35c3.4,1.56,6.8,3.11,10.17,4.72s6.76,3.19,10.11,4.84l5,2.45,1.12.53a7.55,7.55,0,0,0,1.07.43,7.78,7.78,0,0,0,1.12.34,9.7,9.7,0,0,0,1.17.27,29.94,29.94,0,0,0,10.16-.09,48.62,48.62,0,0,0,5.2-1.11c.86-.23,1.72-.48,2.57-.75l1.43-.44c.53-.14,1.05-.28,1.59-.37a15.8,15.8,0,0,1,6.64.12,12.93,12.93,0,0,1,6,3.2,13.56,13.56,0,0,1,3.62,5.66,16.13,16.13,0,0,1,.73,6.43A20.55,20.55,0,0,1,344,518.92,21.37,21.37,0,0,1,339.4,523a14.67,14.67,0,0,1-5.87,2.34,10.64,10.64,0,0,1-6.43-1,12.16,12.16,0,0,1-4.55-4.37,1.37,1.37,0,0,1,2.26-1.54Z"/><path class="cls-12" d="M589.68,98c5.15,11.69,9.88,23.51,14.47,35.4,2.23,6,4.45,11.94,6.62,17.93s4.28,12,6.32,18q12.28,36.2,22.08,73.2l2.44,9.25c.83,3.08,1.48,6.2,2.23,9.3l4.27,18.64,3.79,18.75c.62,3.13,1.28,6.24,1.85,9.38l1.61,9.43c1.06,6.29,2.18,12.56,3.18,18.85l2.67,18.93c.43,3.16.92,6.3,1.3,9.47l1,9.51,2,19a1.37,1.37,0,0,1-2.72.33v0l-2.64-18.86-1.29-9.43c-.47-3.14-1-6.26-1.54-9.39l-3.14-18.77c-1.16-6.24-2.44-12.45-3.65-18.68l-1.84-9.33c-.65-3.1-1.38-6.19-2-9.29l-4.12-18.57c-3.09-12.3-5.91-24.67-9.17-36.93-3.09-12.3-6.47-24.53-9.86-36.75l-5.37-18.26-5.64-18.18c-1.88-6.06-3.91-12.07-5.86-18.11s-4.08-12-6.16-18c-4.2-12-8.52-23.93-13.24-35.68v0A1.37,1.37,0,0,1,589.68,98Z"/></svg>