<svg id="Layer_1" data-name="Layer 1" xmlns="http://www.w3.org/2000/svg" viewBox="0 0 960 560"><defs><style>.cls-1{fill:#ffce8f;}.cls-2{fill:#ffa682;}.cls-3{fill:#f78a5e;}.cls-4{fill:#f79a74;}.cls-5{fill:#ff5b82;}.cls-6{fill:#f74570;}.cls-7{fill:#a1ebf7;}.cls-8{fill:#90e2f0;}.cls-9{fill:#ffc170;}.cls-10{fill:#233940;}</style></defs><title>surfer, surfing, man, people, person</title><path class="cls-1" d="M615,338.87c-9.95,36.27-26.62,71.37-52.9,98.27a183.55,183.55,0,0,1-66.09,43c-26.5,10-54.43,10.89-82.55,11h-6a186.16,186.16,0,0,1-19-.94c-17.8-1.83-36.24-6.6-45.4-16.82a50.84,50.84,0,0,1-10-16.31c-8.54-23.17-4.11-49.06-12.39-72.46-9.17-25.94-16.53-52.67-28.48-77.54-10.7-22.28-27.62-41-37.76-63.52s-12.78-47.13-5-70.74c11-33.56,38.61-56.06,73.22-60.69,36.76-4.92,74.61,4.74,109.54,15.37,16.5,5,32.7,6.41,50,6.36,19.62-.06,39.86-1.3,59,1s37.14,8,52.24,22c25.21,23.36,23.44,46.15,29,80.06S624.09,305.73,615,338.87Z"/><path class="cls-2" d="M480.29,212.87c-6.91,1-11.47,1.42-11.47,1.42L419.5,196l-44.42,15c2.31-.78-.68-10.43-1.11-11.8-2.1-6.77-4.2-13.55-2.08-20.59,3-9.91,12.17-19.34,20.15-25.63a63.78,63.78,0,0,1,29.56-13c3.66-.56,9.7-.78,13.76-2.88a8.87,8.87,0,0,0,2.42-1.76,6.43,6.43,0,0,0,1.81-4.15c.31-4.23-4.18-8.42-7.28-10.73,6.52-3.46,27.87,13.07,35.21,13,3,0,6.06-.07,9.08-.06a55.33,55.33,0,0,1,42.23,19.74c5.3,6.3,10.78,12.89,15.73,19,3,3.69,5.82,7.21,8.29,10.37l1,1.28a9.72,9.72,0,0,1,1.72,3.23C549.71,201.53,502.69,209.79,480.29,212.87Z"/><path class="cls-2" d="M403.56,290l.11.15C403.5,290.12,403.45,290.07,403.56,290Z"/><path class="cls-2" d="M562.16,274.19q-1,3.86-2.42,7.66l0,.06q-.27.74-.55,1.48c-7.66,20-22.35,38.08-42.07,47.31-17,8-43.69,10-69.08,8.12-17.79-1.28-34.94-4.43-47.67-8.72,0,0,9.14-16.81,7.08-30.69a19.75,19.75,0,0,0-3.76-9.27c1.5.05,12.34-2.8,16.55-3.44a198.63,198.63,0,0,1,4.59-20,265.65,265.65,0,0,1,10-29.14s37.49-10.63,45.44-24.67c2.06-3.63,2.14-7.48-.91-11.44-14.83-19.27-2-56.56,23.67-48.14,5.89,1.93,11.79,6.41,16.85,9.83A143.65,143.65,0,0,1,534.08,174a116.55,116.55,0,0,1,8.77,8.51A100.06,100.06,0,0,1,550,191.1l.64.88q1.19,1.65,2.28,3.36C567.43,218.14,569,248.85,562.16,274.19Z"/><path class="cls-3" d="M470,332.23l-1.3.2c-3,.45-6,.85-9,1.21-5.62.65-11.28,1.11-17,1.24A36.94,36.94,0,0,1,431,317.29c-1.5-5.22-1.81-11.17-5.55-15.12-3-3.19-7.74-4.31-12.12-4a28.46,28.46,0,0,0-5.89,1.17,19.79,19.79,0,0,0-3.75-9.27c1.5.05,12.34-2.8,16.55-3.44a195.68,195.68,0,0,1,4.59-20A100,100,0,0,1,436,263.62a49.09,49.09,0,0,0-3.75,14.84l2.58-.44c-1.34,6-.78,15.61,7.5,29.75l0-.44q1.09,1.77,2.16,3.54c.66,1.1,1.32,2.15,2,3.17a38.67,38.67,0,0,0,8.73,9.69c.61.47,1.24.94,1.87,1.39a0,0,0,0,0,0,0A65.65,65.65,0,0,0,469.34,332Z"/><path class="cls-4" d="M442.11,305.29c-.39,0-.76,0-1.13,0,.45.69.89,1.39,1.33,2.09l0,.44c-8.28-14.14-8.84-23.79-7.5-29.75l.21,0,4.36-.76c4-.68,9-.78,12.76-2.22,3.16-1.22,1.49-3.51.75-5.9a14.93,14.93,0,0,1-.67-4.2,15.19,15.19,0,0,1,2.58-8.56c.8-1.24,2.79-.08,2,1.16a13.07,13.07,0,0,0-2.27,7.4,11.93,11.93,0,0,0,1.09,4.42,1.15,1.15,0,0,1,.7,1c.55,5.63,6,9.07,7.46,14.37,1.33,4.72-.88,9.52-4.25,12.81C455.24,301.68,447.9,305.3,442.11,305.29Z"/><path class="cls-4" d="M471,332.07a53.87,53.87,0,0,0,6.44,2.36,41.51,41.51,0,0,1-7.53-2.2Z"/><path class="cls-4" d="M508.63,334.24c-.9.17-1.8.31-2.7.44A10.63,10.63,0,0,1,508.63,334.24Z"/><path class="cls-2" d="M657.65,362.35c-3.06.57-5.16,2.66-6.65,3.25a5.3,5.3,0,0,0-1.73.94c-3.72,3.47-5.46,9.44-6.69,14.07-2.89,10.9-5.72,21.62-10.33,31.9-1.79,4-3.67,7.92-5.71,11.79a109,109,0,0,1-17.2,24.88c-14.34,15.06-37,23.2-58.85,23.09a75.92,75.92,0,0,1-27.89-5.21,119.39,119.39,0,0,1-47.13-34.87,49.31,49.31,0,0,1-6.28,3.58,8,8,0,0,1-2.37.7c-.46-.65-.68-1-.68-1l6.42-7,14-15.31,39.19-33.4a7.63,7.63,0,0,1,1.31,3.28c1.89,10.66,5.92,18.88,14.84,25.66a32.73,32.73,0,0,0,20.17,6.94c11.85-.25,22.59-8.16,28.76-18.29s8.35-22.18,9.1-34a34.14,34.14,0,0,0-.67-11.24c-1.83-6.61-5.21-12.86.26-18.76,4.51-4.87,11.88-4.24,17.72-2.7a38.28,38.28,0,0,0,25.08-1.54c3.77-1.64,6.6-3.94,9.73-6.57,2.42-2,5.45-4.15,8.74-4.2a5.64,5.64,0,0,1,3,.71,6.06,6.06,0,0,1,2.62,3.82c.74,2.91,7.78,4.73,6.06,7.32,0,0,1.5.81,2.45,9.28A21.09,21.09,0,0,1,657.65,362.35Z"/><path class="cls-4" d="M667.58,355.65c-3.26,3-8.13-1.86-4.87-4.86,1.15-1.06,2.45-2.28,2.77-3.88.16-.78.07-2.61-1.16-2.32a3.27,3.27,0,0,1-3.08-.77,10.58,10.58,0,0,1-6-6.25,11,11,0,0,1-1.92-.15A8.92,8.92,0,0,1,645.6,329c-.07-1.28,2.06-1.58,2.25-.31a7.66,7.66,0,0,0,2.34,4.55,7.84,7.84,0,0,0,7.2,1.55c2.89-.73,4.55-2.86,6.71-4.73.92-.8,2.61.28,1.8,1.39-2,2.68,1.24,5.68,3.08,7.76a8,8,0,0,1,3.21,4.79C673.25,348.51,670.81,352.68,667.58,355.65Z"/><path class="cls-2" d="M441.37,430.35c-.6.88-1.26,1.7-1.89,2.56l-.74,1a98.1,98.1,0,0,0-13.16,24.27c-.11.3-.22.6-.32.91l0,.06c-.24.69-.45,1.36-.64,2a85.39,85.39,0,0,1-5.41,14.36,29.92,29.92,0,0,1-6.73,8.87,24.07,24.07,0,0,1-3,2.27,28.62,28.62,0,0,1-12.38,4.18,39.37,39.37,0,0,1-6.22.2,95.88,95.88,0,0,1-36.47-9.49c-1.25-.6-11.56-7.09-11.33-8.23,4.18-22,9.24-42.92,15.26-64.52-1.54,5.5.33,9.62,3.82,12.76a22.72,22.72,0,0,0,3.49,2.53c.69.41,1.41.8,2.15,1.17,6.05,3,13.55,4.66,18.48,5.79a120.69,120.69,0,0,0,16,2.54,105.14,105.14,0,0,0,13.35.34,90.15,90.15,0,0,0,14.67-1.74c.65-.14,5.4-.81,8.46-1.32l.76-.13A8.89,8.89,0,0,0,441.37,430.35Z"/><path class="cls-2" d="M451.49,178.73c-3.24,1.47-6.61-1.53-9.81-1.79-3.91-.31-7.71,1.52-10.91,3.61l-.33.22a61.45,61.45,0,0,0-8.46,6.78L419.5,196l-11.34,39a171.42,171.42,0,0,1-35.94,67.65,51.6,51.6,0,0,1-8.93,8.44A20.42,20.42,0,0,1,352,315.23c-6.35.16-14.09-4.72-18-9.74s-5.28-9.31-6.69-15.51q-.88-3.9-1.41-7.86a95.64,95.64,0,0,1-.85-12.22c-.17-29.27,12.53-59,31.58-80.71a143.68,143.68,0,0,1,15.23-14.95c15.17-12.8,32.87-22.13,52.19-26.42.84-.19,1.69-.37,2.54-.53q2.24-.45,4.51-.8,1.44-.22,2.9-.41l-3.14,10.78-.79,2.71a42.46,42.46,0,0,1,14,5.85,30,30,0,0,1,7.81,6.67,7.85,7.85,0,0,1,.77,1.28C453.67,175.3,453.82,177.67,451.49,178.73Z"/><path class="cls-4" d="M439.41,432.88c-.52,1.4-1.92,2.65-2.72,3.82a72.75,72.75,0,0,0-4.56,7.76,201.3,201.3,0,0,0-10.35,24.27c-1.45,4-2.56,8.19-4.26,12.07-.46,1.06-3.66,10.29-4.07,10.3h-6c-5.9,0-13.09.41-19.67-.26,1.75-6.23,5.11-13.71,5.55-16.83a30.57,30.57,0,0,0-8.74-25.65c-4.1-4-9.23-6.75-13.9-10.06s-8.84-7.26-10.56-12.52v0c0-.15-.09-.3-.14-.46l.24.08c-.35-.11,1.12-2.53,2-3.79.25-.39.45-.67.5-.73-2,2.42,16.41,7.47,17.55,7.79a165.7,165.7,0,0,0,22.53,4.78,94,94,0,0,0,18.33.68,73,73,0,0,0,9.63-1.26c2.81-.57,5.84-2.48,8.73-2A2.81,2.81,0,0,1,439.41,432.88Z"/><path class="cls-3" d="M386.3,284a169.85,169.85,0,0,1-14.08,18.71,51.6,51.6,0,0,1-8.93,8.44,6.34,6.34,0,0,1-1-1.25c-1.87-3-1.14-7-2.89-10-2.43-4.22-8.19-4.63-13-5.55a35.93,35.93,0,0,1-20.45-12.14,95.64,95.64,0,0,1-.85-12.22,35.56,35.56,0,0,1,12.17-6.06c9.56-2.66,19.81-1.7,29.44.68,5.62,1.39,11.4,3.43,15.18,7.81A19.55,19.55,0,0,1,386.3,284Z"/><path class="cls-5" d="M534,353.88q-.54,3-1.16,5.93c-.25,1.24-.52,2.48-.78,3.72-1.78,8.42-2.84,17.39-7.61,24.74-5.35,8.25-13.8,15.24-20.88,22-4.43,4.25-9,8.39-13.7,12.31h0c-2.8,2.32-5.66,4.58-8.6,6.73l-2.13,1.54c-5.7,4-16.8,9.88-21,.85-2-4.28-6.39-6.21-10.55-4-3.07,1.66-4.48,5.25-6.15,6.82a4,4,0,0,1-.73.53,10.43,10.43,0,0,1-3.22,1c-2.07.34-4.36.42-5.83.65-6.17,1-12.5,1.81-18.88,2.29-5.78.44-11.61.25-17.37.25h0a68.07,68.07,0,0,1-17.3-2.66c-7-1.86-14.24-5.19-18-11.45a23.57,23.57,0,0,1-2.86-12.84c0-.54.05-1.08.08-1.61,1.11-17.7,10.47-33.29,20-47.74,7.51-11.42,17.55-25.46,22.14-31.81,2.58-3.58,8.14-.57,11.32.29a111.9,111.9,0,0,0,31.87,3.42c2-.05,4.07-.14,6.1-.26,3.63-.22,7.26-.56,10.86-1,1.77-.2,3.55-.43,5.32-.68q3-.41,6.08-.89c1.41.62,2.86,1.19,4.33,1.69l.53.17a51.85,51.85,0,0,0,7,1.8c.82.16,1.64.29,2.47.4a53.61,53.61,0,0,0,7.64.49l1.7,0a54.44,54.44,0,0,0,14-2.48c3.14-1,6.43-3.67,8.95-.55C519.56,335.88,529.94,347.31,534,353.88Z"/><path class="cls-4" d="M651,365.6c-2.41-.16-10.75,10.89-12.44,32.82-1,13.46-10.69,26.92-18.19,38.13-22.11,33-62.18,57-99.32,42-18.28-7.38-39.48-27.62-51.86-42.77,4.57-3,15.47-10.52,20-14.87a62.18,62.18,0,0,0,28.21,31.2c20.36,10.66,46.09,9.33,66.14-1.93s34.31-31.68,39.71-54c2.16-8.93,3.39-18.9,10.14-25.14C637.59,367.12,645.27,365.22,651,365.6Z"/><path class="cls-4" d="M457.39,164.71c-22.14-28.82-61-10-83.35,7.81-1.57,1.26-3.24,3.43-2,5a4,4,0,0,0,2.06,1.18l12.35,4.09c-5.11-9.35,2.41-18.05,10.33-22.29,16.88-9,39.6-6,53.18,7.64a9.3,9.3,0,0,1,2.69,4,3.68,3.68,0,0,1-1.6,4.23c-1.87.9-4-.49-6-1.09-3.51-1.05-7.22.46-10.56,1.94-1.24.55-2.64,1.29-2.86,2.63-.25,1.53,1.2,2.77,2.55,3.55a31.24,31.24,0,0,0,19.09,3.91,12.38,12.38,0,0,0,6.86-2.58c3-2.65,3.45-7.34,2.15-11.13A31.73,31.73,0,0,0,457.39,164.71Z"/><path class="cls-6" d="M536.37,336.42A160.12,160.12,0,0,1,534,353.88q-.54,3-1.16,5.92a11.7,11.7,0,0,1-.9,3.11c-.48.91-4.08-5.14-4.49-5.79a20.13,20.13,0,0,0-17.56-9.44c-8.45.29-13,6.1-16.3,13.32A104.43,104.43,0,0,0,485,395.58a53.79,53.79,0,0,0,1.59,17.57,91.34,91.34,0,0,0,3.3,9.46c-3.47,2.88-7,5.66-10.73,8.27-5.7,4-16.8,9.88-21,.85-2-4.28-6.39-6.21-10.55-4-3.07,1.66-4.48,5.25-6.15,6.82a4,4,0,0,1-.73.53c0-1.11,0-2.22.05-3.32q2.43-3.08,5-6c12-13.78,27.35-25.28,35.34-42.1,2.4-5.06,2.48-10.12,2.31-15.76-.31-9.9-3.22-15.4-12.62-17.07-10.55-1.87-19.36-9.33-28-15.64l6-.61L465,333l1.39-.14a21.94,21.94,0,0,1,4.86-.13,23.7,23.7,0,0,1,4.16,1.07l.53.17c13.14,4.13,37.25,1.5,58.77-14.7C536.17,322,536.43,332,536.37,336.42Z"/><path class="cls-7" d="M514.65,264.76a33.26,33.26,0,0,1-4.14,13.16c-.16.27-.32.54-.49.81l0,0a30,30,0,0,1-6.09,6.68l0,0a18.25,18.25,0,0,1-9.42,4c-6.34.7-12.17-2.21-15.88-5a16.35,16.35,0,0,1-4-4l-.27-.46c-2.49-4-11.55-14.45-16.18-15.59a5.07,5.07,0,0,0-.88-.13,13.06,13.06,0,0,0-1.41.15c-3,.24-5.42,3.89,1.42,13.56,3.61,5.09,4.22,9-2.54,10.12-16.58,2.69-34.09,2.86-50.86,2.86-16.94,0-36.21-1.08-53.66-4.69-19-3.94-60.3-10.88-69.68-22.67-11.14-14-15.39-31.69-6.8-46.82,15.83-27.9,55.5-42.83,86.64-43.13,6.21-.06,12.87.61,18.5,3.45,4.75,2.39,7,5.75,9.06,9.62,0,0,0,0,0,0,.91,1.66,1.79,3.41,2.85,5.23l.48.82s0,0,0,.08c.5,2.74,3,4.64,5.76,5.76a17.68,17.68,0,0,0,3.52,1,16.23,16.23,0,0,0,9.89-1.84,43.22,43.22,0,0,0,9.1-6.48l.61-.53a60.63,60.63,0,0,0,5.91-6.46c.77-.89,1.55-1.76,2.38-2.58,4.62-4.56,9.23-6.18,13.8-6.25a21.29,21.29,0,0,1,3.2.18c.45.06.91.13,1.36.21s.91.17,1.36.27.76.17,1.13.27c.53.13,1.05.28,1.57.43h0s0,0,.05,0c.84.24,1.67.51,2.5.8l.13,0h.08l.92.33c1.93.69,3.84,1.43,5.73,2.11a76.27,76.27,0,0,1,10.56,4.76,62.45,62.45,0,0,1,18,14.58q1.95,2.34,3.78,4.78c.73.95,1.44,1.92,2.13,2.89a127.57,127.57,0,0,1,14.47,26.46c0,.09.07.18.1.26q1.66,4.53,2.92,9.17C514.15,250.14,515.41,257.49,514.65,264.76Z"/><path class="cls-7" d="M667,263.89c-8.66,8.46-21.85,15.09-36,19.72-4.11,1.34-8.31,2.51-12.5,3.51-2.82.67-5.63,1.26-8.42,1.78-5.23,1-11.52,1.71-18,2.3-15.2,1.37-31.4,1.82-37.1,1.94a83.55,83.55,0,0,0,4.79-11.23l0-.06q1.38-3.8,2.42-7.66c6.81-25.34,5.26-56-9.27-78.85q-.58-1-1.16-2A13.74,13.74,0,0,0,550,191.1a100.06,100.06,0,0,0-7.12-8.58c-2.47-3.16-5.28-6.68-8.28-10.37l.12-.19c.84-.89,3.33-1,6.39-.79,4.91.34,11.29,1.49,14.78,1.54q1.09,0,2.28.11c15.88,1.27,47.79,9,74.57,21.81l.08,0A132.88,132.88,0,0,1,659,210.76h0c6.44,5.25,11.56,11,14.7,17.15C680.91,242.12,676.93,254.2,667,263.89Z"/><path class="cls-8" d="M671.34,256.37a4.33,4.33,0,0,1-1.3,2.11c-14.05,15-33.56,24.12-53.59,28.83s-40.78,5.34-61.36,5.68c14.58-29.37,14-69.06-2.19-97.66q-.58-1-1.16-2A13.74,13.74,0,0,0,550,191.1a100.06,100.06,0,0,0-7.12-8.58c-2.47-3.16-5.28-6.68-8.28-10.37l.12-.19c.84-.89,3.33-1,6.39-.79,11,.75,22,19.33,26.07,27.76,7,14.47,11.44,30.54,13.9,46.39,1.75,11.32,18.59,16.64,26.85,9.17,4.49-4.06,4.21-9.72,5.81-15.08a2.87,2.87,0,0,1,1-1.76c.88-.52,2,0,2.85.55,8.27,5.07,16.68,10.39,26.18,12.35,7.51,1.55,15.3.9,22.88,2C668.91,252.89,671.71,254.16,671.34,256.37Z"/><path class="cls-2" d="M511.61,146S498,131.75,499.5,102.7,489.42,57.79,460,58.56s-22.89,28.66-31.65,43.72c-1.92,3.29-6,11.35,4,12.77,0,0-2.54,23.67,17.08,28.21s27.27-9.83,27.27-9.83Z"/><path class="cls-4" d="M485.41,149.21c-5.34,1.91-10.08,2.71-14.41,6-1.8,1.38-3.44,2.46-5.79,2.32-4.88-.3-7.49-5.51-10.41-8.69-2.29-2.5-6.23-2.82-9.2-4.24a31.3,31.3,0,0,1-10.2-7.49,8.88,8.88,0,0,0,2.38-1.74c8.85,9.08,22.46,10,33.28,2.69,2.95-2,6.52-4,9.74-1.37a23.08,23.08,0,0,1,7.35,9.77C488.56,147.58,486.73,148.74,485.41,149.21Z"/><path class="cls-1" d="M515.19,84.86l-21.62,27.9s-6-7.38-1.36-18.53c2-4.81-11-10.13-13.66,1.11-2.92,12.27-11.77,3.25-6.72-8.13a6.33,6.33,0,0,0,.37-4.5c-2.35-7.88-20.68-11.9-30.09-8.64a14.16,14.16,0,0,1-5.55.79c-7.65-.5-13.92-3.84-17.32-11.5a14.07,14.07,0,0,1-1.49-5.49h0c-1-4-.14-7.58,2-11.47C434.09,20.91,489,28,489,28S550.54,48.68,515.19,84.86Z"/><path class="cls-4" d="M461.56,92.28a15.53,15.53,0,0,0-11.22.73c-1.76.79-.24,3.37,1.51,2.59a12.36,12.36,0,0,1,8.91-.43C462.61,95.76,463.4,92.86,461.56,92.28Z"/><path class="cls-4" d="M436,114a6.25,6.25,0,0,1-7.33-5.44c-.24-1.91-3.15-1.17-2.91.73a9.24,9.24,0,0,0,11,7.62C438.57,116.5,437.85,113.59,436,114Z"/><path class="cls-4" d="M456.19,122.6a35.64,35.64,0,0,1-18.28,4.15c-1.93-.07-1.93,2.93,0,3a38.59,38.59,0,0,0,15-2.4,16.69,16.69,0,0,1-11.48,5.7c-1.91.14-1.93,3.14,0,3a19.91,19.91,0,0,0,16.83-11.39A1.51,1.51,0,0,0,456.19,122.6Z"/><path class="cls-8" d="M450.86,176.85h0l-.21-.16Z"/><path class="cls-8" d="M453.53,177.5a9.78,9.78,0,0,1-2.63-.74c.84.24,1.67.34,2.5.63.07,0,.13-.11.19-.11h0S453.54,177.51,453.53,177.5Z"/><path class="cls-8" d="M514.65,264.76a33.26,33.26,0,0,1-4.14,13.16c-.16.27-.32.54-.49.81l0,0a25.39,25.39,0,0,1-4.49,5.38c-.51.46-1.05.89-1.6,1.3l0,0a21.74,21.74,0,0,1-9.42,4,17.89,17.89,0,0,1-9.34-.87,21.39,21.39,0,0,1-6.54-4.14,43.83,43.83,0,0,1-4.28-4.43c-5.26-6.15-9.81-13.36-17.06-15.72a16.35,16.35,0,0,0-1.73-.45c5.15-2.26,11.21.29,15.53,3.89s7.75,8.27,12.47,11.34c12.52,8.12,22-3.82,23.1-15.6,1-10.94-1.92-23.24-7.16-32.86C493,218.8,483.52,209,473.56,200.15c-4.74-4.22-9.48-8.63-14.94-11.93-4-2.4-13.39-7.1-18.08-4A38,38,0,0,0,434,190c-8.94,9.57-21.44,26.91-36.54,19a17.87,17.87,0,0,1-8.12-9c-1.77-4.32-.73-8.78-1.44-13.23,0,0,0,0,0,0,0-.29-.11-.59-.17-.88,1,2.06,1.92,4.18,3,6.12l.48.82s0,0,0,.08c.5,2.74,3,4.64,5.76,5.76a17.68,17.68,0,0,0,3.52,1,16.23,16.23,0,0,0,9.89-1.84,43.22,43.22,0,0,0,9.1-6.48l.61-.53a60.63,60.63,0,0,0,5.91-6.46c.77-.89,1.55-1.76,2.38-2.58,4.62-4.56,9.23-6.18,13.8-6.25a21.29,21.29,0,0,1,3.2.18c.45.06.91.13,1.36.21s.91.17,1.36.27.76.17,1.13.27c.53.13,1.05.28,1.57.43h0l3.27,2.47c.33-.54.63-1.18.41-1.26l-.92-.33a22.81,22.81,0,0,1,2.25.54,100.22,100.22,0,0,1,11.76,4.92c1.08.54,2.15,1.12,3.2,1.74a79.2,79.2,0,0,1,16.79,13.67q2.63,2.75,5,5.69a103.74,103.74,0,0,1,16.6,29.35c0,.09.07.18.1.26q1.66,4.53,2.92,9.17C514.15,250.14,515.41,257.49,514.65,264.76Z"/><path class="cls-7" d="M711.16,249.35s-34.27-6.43-38.09-16.75-57-3.2-53.39,7S674.57,257.41,711.16,249.35Z"/><path class="cls-4" d="M629.66,380.38c-2.54,5.26-7.32,10.22-13.69,7.93-9.35-3.35-8.26-17.14-7.44-26.07a71,71,0,0,1-8.67-9,5.43,5.43,0,0,1,.12.7c1.33,15.53-4.17,46.19-19.63,55.18a59.61,59.61,0,0,1-10.08,4.78c-5.8,2-10.45,2.26-14.33,1.55-6.94-1.28-11.45-5.61-15.7-8.2-3.61-2.2-5.52-5.93-8.34-8.84.42,4.72-1.16,9.73-6,11.68-2.34.95-4.93,1-7.44,1.24s-5.15.94-6.85,2.81a8,8,0,0,0-1.26,7.8c1.42,4.3,5.5,7.3,9.83,8.63,5.34,1.64,11.63,1.41,17.14,2.15q11.09,1.49,22,3.89A30.36,30.36,0,0,1,569,440c5.59,3.46-1.75,10.78-5,13-9.8,6.54-21.12,6.44-32.3,4.53-13.28-2.27-.17,5.42,18.82,14.8,21.82.11,44.51-8,58.85-23.09a109,109,0,0,0,17.2-24.88l10.71-46.41a49.49,49.49,0,0,1-5.71-1.84C630.9,377.47,630.35,379,629.66,380.38Z"/><path class="cls-7" d="M711.16,249.35c2.74-.34,2.62-6.06-2.07-6.4-10.64-.76-33.7-8.09-36-14.35-3.82-10.32-57-3.2-53.39,7C622.87,244.68,676.35,253.64,711.16,249.35Z"/><path class="cls-9" d="M472.88,77.43a22.9,22.9,0,0,1-.68,5.28c-2.35-7.88-20.68-11.9-30.09-8.64-1.79.62-4.22,1.58-6.11,1.46-7.65-.5-13.58-4.51-17-12.17a23,23,0,0,1-1.72-5.49c.87,2.08,4.79,6.39,22.42,6.39C463,64.26,472.88,66.58,472.88,77.43Z"/><path class="cls-6" d="M485.75,368.91v0c-1,8.77-5.23,17-10.93,23.84-6.07,7.28-12.42,14.32-18.57,21.49-6,6.95-11.82,14-17.16,21.49a14.29,14.29,0,0,1-1.56.34c-2.07.34-4.37.42-5.84.65-6.17,1-12.5,1.81-18.88,2.28l-17.37.25h0a46.79,46.79,0,0,1,23.13-23C435.86,408.28,476.75,401.25,485.75,368.91Z"/><path class="cls-10" d="M437.7,126a45.28,45.28,0,0,0,5.57-1,44,44,0,0,0,5.33-1.64,41.61,41.61,0,0,0,9.64-5.17,3,3,0,0,1,4.71,2.7l0,.19a16.51,16.51,0,0,1-2.29,6.86,20.72,20.72,0,0,1-4.58,5.37,20,20,0,0,1-6,3.5,17.13,17.13,0,0,1-6.71,1.11,1.38,1.38,0,0,1-.23-2.73h0a17.4,17.4,0,0,0,5.2-2.05,18.5,18.5,0,0,0,4.21-3.47,17.6,17.6,0,0,0,2.88-4.45,20.4,20.4,0,0,0,1.45-4.88l4.69,2.89A38.43,38.43,0,0,1,450,128a37.34,37.34,0,0,1-6.16.9,35,35,0,0,1-6.16-.19,1.38,1.38,0,0,1,0-2.73Z"/><path class="cls-10" d="M436.66,113.59a4.93,4.93,0,0,1-1.62,2.64,6.51,6.51,0,0,1-2.71,1.36,7.33,7.33,0,0,1-3.05.07,7.24,7.24,0,0,1-1.55-.51c-.25-.12-.5-.27-.75-.41s-.43-.3-.65-.45a9.26,9.26,0,0,1-3.14-5.08,12,12,0,0,1,0-5.65,14.55,14.55,0,0,1,2.11-4.62c.88-1.34,1.79-2.49,2.67-3.65,1.78-2.32,3.61-4.61,5.58-6.82a1.39,1.39,0,0,1,2.33,1.45c-1.11,2.74-2.35,5.39-3.64,8-.65,1.32-1.32,2.61-1.85,3.82a33.13,33.13,0,0,0-1.3,3.39,6,6,0,0,0,.51,5.49l.2.23.18.17a2.45,2.45,0,0,0,.48.3,3.1,3.1,0,0,0,1.28.31,2.69,2.69,0,0,0,2.34-1l.15-.2a1.37,1.37,0,0,1,2.43,1.11Z"/><path class="cls-10" d="M450,93.6a7.66,7.66,0,0,1,2.7-2.3,10.22,10.22,0,0,1,3.32-1.1,6.84,6.84,0,0,1,3.52.83,6.34,6.34,0,0,1,2.89,2.58,1.43,1.43,0,0,1-1.26,2.1h-.51a12.24,12.24,0,0,0-2.24.22,10.18,10.18,0,0,1-2.14.36c-.72-.08-1.5-.2-2.3-.24s-1.63-.09-2.55-.11h-.25A1.48,1.48,0,0,1,450,93.6Z"/><path class="cls-10" d="M443.82,75.52a17.1,17.1,0,0,1-4.65,2.13,20.17,20.17,0,0,1-5.11.67,22.37,22.37,0,0,1-5.12-.71,23,23,0,0,1-4.83-2,21.18,21.18,0,0,1-4.23-3.21,21.4,21.4,0,0,1-3.24-4.27,24.36,24.36,0,0,1-2-4.91,24.7,24.7,0,0,1-.87-5.21,23.5,23.5,0,0,1,1.87-10.29,25.76,25.76,0,0,1,2.58-4.56,28.13,28.13,0,0,1,3.41-3.86,28.84,28.84,0,0,1,18-7.61A1.38,1.38,0,0,1,440,34.4h0a28,28,0,0,0-14.83,8.4,24.87,24.87,0,0,0-2.45,3.35,22,22,0,0,0-1.7,3.68,26.59,26.59,0,0,0-.95,3.92,27.29,27.29,0,0,0-.24,4c.06,5.37,2.38,10.67,6.88,13.67s10.61,4.12,15.76,1.71h0a1.37,1.37,0,0,1,1.33,2.38Z"/><path class="cls-10" d="M484.57,106.27a5.26,5.26,0,0,1-3.79-1.48,8.3,8.3,0,0,1-2-3.16,16.11,16.11,0,0,1-.79-3.32l-.11-1.76a15.69,15.69,0,0,1,.19-1.83,8.4,8.4,0,0,1,1.59-3.54,8.72,8.72,0,0,1,3.12-2.37,10.51,10.51,0,0,1,3.68-.83,8.61,8.61,0,0,1,3.9.68,5.75,5.75,0,0,1,1.05.64,4.82,4.82,0,0,1,.91.92,6.36,6.36,0,0,1,1,2,13.11,13.11,0,0,1,.5,3.63c0,2.25-.21,4.32-.38,6.35a48,48,0,0,0-.28,5.82,10.43,10.43,0,0,0,.34,2.46,3,3,0,0,0,.76,1.4l-3.71.32,19.48-25.87L515,79.9a69.86,69.86,0,0,0,4.44-6.3,18.41,18.41,0,0,0,2.52-6.44,13.72,13.72,0,0,0,.19-3.37,17,17,0,0,0-.53-3.45,32.62,32.62,0,0,0-7.24-12.89,52.11,52.11,0,0,0-11.68-10.05A56,56,0,0,0,488.47,31,54.24,54.24,0,0,0,473,29h0a1.37,1.37,0,0,1-.12-2.74,55.71,55.71,0,0,1,16.58,1.21A58.67,58.67,0,0,1,505,33.54,56.94,56.94,0,0,1,518.18,44c.94,1.06,1.9,2.1,2.78,3.24s1.71,2.31,2.47,3.55a32,32,0,0,1,3.65,8.05,22.73,22.73,0,0,1,.85,4.51,19.61,19.61,0,0,1-.11,4.7,23.62,23.62,0,0,1-3.17,8.61,59.5,59.5,0,0,1-4.89,6.93l-5,6.36-20.18,25.33,0,.06a2.49,2.49,0,0,1-3.5.4l-.16-.14a7.78,7.78,0,0,1-2.15-3.9,15.24,15.24,0,0,1-.37-3.62,52,52,0,0,1,.56-6.4c.26-2,.55-4,.6-5.86a9.21,9.21,0,0,0-.2-2.44,2.37,2.37,0,0,0-.29-.73c-.09-.16-.19-.21-.4-.35a4.72,4.72,0,0,0-2.07-.42,6.71,6.71,0,0,0-2.29.37,5,5,0,0,0-1.79,1.19,4.86,4.86,0,0,0-1,2c-.11.38-.12.8-.2,1.21V98a13,13,0,0,0,.48,2.66,5.61,5.61,0,0,0,1.08,2.09,2.38,2.38,0,0,0,1.71.82h.06a1.37,1.37,0,0,1-.06,2.73Z"/><path class="cls-10" d="M464.09,306.91a9.68,9.68,0,0,0,2-4.89,12.73,12.73,0,0,0-.68-5.35,34.16,34.16,0,0,0-5.87-10c-1.21-1.53-2.59-3.08-3.89-4.75a52.92,52.92,0,0,1-3.68-5.24,18.48,18.48,0,0,1-2.64-6.49,7.52,7.52,0,0,1,0-2.21,5.7,5.7,0,0,1,.94-2.41,5.92,5.92,0,0,1,1.9-1.72,7.73,7.73,0,0,1,2.11-.83,8.77,8.77,0,0,1,4.24.14,13.47,13.47,0,0,1,3.44,1.55,19.91,19.91,0,0,1,2.77,2.09c.86.71,1.62,1.48,2.39,2.23,3,3.07,5.58,6.34,8.22,9.3a49,49,0,0,0,4.07,4.15,22.9,22.9,0,0,0,4.43,3.21,17.75,17.75,0,0,0,2.38,1.11,14.39,14.39,0,0,0,2.42.63,13.39,13.39,0,0,0,2.46.22,14.11,14.11,0,0,0,2.47-.32,15.93,15.93,0,0,0,2.43-.73,19.35,19.35,0,0,0,2.32-1.18,19.83,19.83,0,0,0,4.22-3.27,25.65,25.65,0,0,0,5.9-9.11c2.59-7,2.48-15.09,1.47-22.94a85.86,85.86,0,0,0-19-43.32h0a1.37,1.37,0,0,1,2.06-1.82,85.79,85.79,0,0,1,21.93,44.4A71,71,0,0,1,515.92,262a42.37,42.37,0,0,1-2,12.92,29.91,29.91,0,0,1-7.07,11.48,25.89,25.89,0,0,1-5.41,4.27,24.61,24.61,0,0,1-3.16,1.57,22,22,0,0,1-3.45,1,19,19,0,0,1-13.87-2.48,28.68,28.68,0,0,1-5.39-4.09,54.66,54.66,0,0,1-4.41-4.71c-2.72-3.21-5.13-6.46-7.79-9.29-.67-.68-1.33-1.39-2-2a15,15,0,0,0-2.08-1.66,5.78,5.78,0,0,0-3.93-1.2,3,3,0,0,0-.75.25,1.25,1.25,0,0,0-.38.28,1.74,1.74,0,0,0-.2,1.26,14.43,14.43,0,0,0,1.85,4.85,48.75,48.75,0,0,0,3.19,4.92c1.15,1.61,2.44,3.16,3.7,4.88a37.12,37.12,0,0,1,5.95,11.4,15.94,15.94,0,0,1,.49,6.76,12.6,12.6,0,0,1-2.94,6.18,1.37,1.37,0,0,1-2.13-1.71Z"/><path class="cls-10" d="M500.33,118.18a80,80,0,0,0,8.84,21.13c1.92,3.25,3.74,6.58,6,9.7a86.74,86.74,0,0,0,7.36,8.93h0a1.38,1.38,0,0,1-1.75,2.11,50.12,50.12,0,0,1-9.47-7.86,46.29,46.29,0,0,1-7.45-9.92,54.34,54.34,0,0,1-6.23-23.73,1.38,1.38,0,0,1,2.71-.38Z"/><path class="cls-10" d="M478.37,341.18a23.48,23.48,0,0,1,5.17,5.76,26.16,26.16,0,0,1,3.08,7.12,34.44,34.44,0,0,1,1.13,7.6c0,1.27,0,2.55,0,3.81l-.05.95c0,.13,0,.42-.06.61s-.07.4-.1.57a6.21,6.21,0,0,0-.23,1.35.45.45,0,0,1,0,.09v.14a44.3,44.3,0,0,1-2.9,11.8,51.94,51.94,0,0,1-5.8,10.64c-.59.82-1.19,1.63-1.82,2.42s-1.23,1.5-1.86,2.25l-3.73,4.44-7.46,8.89c-5,5.95-10,11.8-14.65,17.84A226.94,226.94,0,0,0,435.81,446a160,160,0,0,0-18.69,41.38,179.61,179.61,0,0,0-7,45.19,1.37,1.37,0,0,1-2.74,0,168.29,168.29,0,0,1,5.11-46.45,157.51,157.51,0,0,1,18.15-43.33,181.18,181.18,0,0,1,13.72-19.09c4.92-6.06,10.1-11.86,15.17-17.65l7.64-8.7L471,393c.63-.72,1.3-1.45,1.9-2.16s1.17-1.42,1.73-2.15a47.3,47.3,0,0,0,5.6-9.48,40,40,0,0,0,3-10.55v.23a9.29,9.29,0,0,1,.39-2.23l.07-.32a2.4,2.4,0,0,0,0-.3l.08-.87c.11-1.16.15-2.32.17-3.48a30.84,30.84,0,0,0-.7-6.84,21.65,21.65,0,0,0-6.66-11.63,1.37,1.37,0,0,1,1.77-2.08Z"/><path class="cls-10" d="M450.69,177.59a22.3,22.3,0,0,0-16.05,2.15,28.49,28.49,0,0,0-6.7,5c-1,1-2,2-3,3.14l-3,3.26a71,71,0,0,1-6.45,6.35,25.83,25.83,0,0,1-8.29,4.51,16.59,16.59,0,0,1-9.8.3,15,15,0,0,1-2.37-1,14.24,14.24,0,0,1-2.16-1.4,17.23,17.23,0,0,1-3.39-3.62c-1-1.35-1.64-2.6-2.43-3.86l-2.29-3.74a41.33,41.33,0,0,0-5-6.73,17.11,17.11,0,0,0-6.48-4.35,25.87,25.87,0,0,0-8-1.47,80.12,80.12,0,0,0-17.07,1.32,131.53,131.53,0,0,0-16.82,4.14A137.89,137.89,0,0,0,300,195.94a91.6,91.6,0,0,0-13.62,10.37,56.67,56.67,0,0,0-10.59,13,35.53,35.53,0,0,0-4.86,15.47,34.77,34.77,0,0,0,2.91,15.9c.25.64.55,1.26.85,1.89s.59,1.25.94,1.86l.49.92.25.45.24.36c.17.24.3.49.49.73l.57.71a27.51,27.51,0,0,0,6.07,5.07A86.5,86.5,0,0,0,299,270.12c5.37,2.09,10.91,3.88,16.49,5.56s11.22,3.23,16.9,4.77l4.28,1.18c1.38.39,2.75.74,4.14,1.07q4.16,1,8.42,1.58c5.78.83,11.58,1.59,17.36,2.12s11.54.83,17.36.79l4.37,0c1.48,0,2.82-.08,4.38-.13a30.38,30.38,0,0,1,4.84.16,15.1,15.1,0,0,1,5.11,1.54,13,13,0,0,1,4.23,3.56,16.19,16.19,0,0,1,2.49,4.64,20.12,20.12,0,0,1,1,5,24.1,24.1,0,0,1-.14,4.88,60.89,60.89,0,0,1-4.73,17.73c-4.84,11.22-12.09,20.86-19.25,30.2s-14.58,18.45-20,28.63a83.7,83.7,0,0,0-6.45,16,71.18,71.18,0,0,0-1.85,8.4,36.36,36.36,0,0,0-.46,8.38,19.53,19.53,0,0,0,2.14,7.79,20.57,20.57,0,0,0,5.26,6.19,37.25,37.25,0,0,0,15.42,6.72h0a1.37,1.37,0,0,1-.54,2.69,40.09,40.09,0,0,1-16.79-7,23.75,23.75,0,0,1-6.22-7.06,22.89,22.89,0,0,1-2.7-9.05,39.18,39.18,0,0,1,.32-9.21,74.83,74.83,0,0,1,1.83-8.86,87.54,87.54,0,0,1,6.51-16.8c5.5-10.76,12.93-20.11,19.93-29.51S396.6,333.12,401,322.58a55.8,55.8,0,0,0,4.12-16.31,18.94,18.94,0,0,0,.08-3.93,15,15,0,0,0-.79-3.65,9,9,0,0,0-4.17-5.15c-1.95-1-4.45-1.15-7.28-1-1.39.06-3,.15-4.44.18l-4.46.09c-6,.1-12-.14-17.9-.64s-11.82-1.19-17.7-2c-3-.41-6-.94-8.94-1.62-1.48-.34-3-.72-4.41-1.12l-4.23-1.15c-11.37-3-22.85-6.16-34-10.54a92.14,92.14,0,0,1-16.36-8.07,32.82,32.82,0,0,1-7.35-6.3l-.8-1c-.26-.35-.49-.74-.73-1.11l-.35-.56-.28-.52-.54-1c-.37-.68-.71-1.38-1-2.09s-.66-1.41-.94-2.14a40.56,40.56,0,0,1-3.19-18.54A41.17,41.17,0,0,1,271,216.53a62.09,62.09,0,0,1,11.73-14.18,96.89,96.89,0,0,1,14.51-10.86A140.19,140.19,0,0,1,330,176.92a136.29,136.29,0,0,1,17.49-4.07,84.46,84.46,0,0,1,18.08-1.15,30.18,30.18,0,0,1,9.29,1.87,21.44,21.44,0,0,1,8,5.49,45.26,45.26,0,0,1,5.42,7.48l2.27,3.82c.76,1.25,1.48,2.58,2.22,3.64a11.07,11.07,0,0,0,5.79,4.59,12.85,12.85,0,0,0,7.58-.15,22.26,22.26,0,0,0,7.19-3.76,68.86,68.86,0,0,0,6.22-5.93l3-3.2c1-1.06,2-2.14,3.16-3.18a31.65,31.65,0,0,1,7.52-5.37A25.18,25.18,0,0,1,451.42,175a1.37,1.37,0,0,1-.73,2.63Z"/><path class="cls-10" d="M619.2,369.73a32.83,32.83,0,0,1-23-18.56,23.13,23.13,0,0,1-1.93-7.62,16.67,16.67,0,0,1,1.23-8,12,12,0,0,1,2.39-3.56,12.46,12.46,0,0,1,3.53-2.49,16.88,16.88,0,0,1,8.07-1.28,57.05,57.05,0,0,1,7.49,1.09,57.56,57.56,0,0,0,7,1,33.49,33.49,0,0,0,13.53-1.46,22.39,22.39,0,0,0,5.85-3.07c1.79-1.32,3.51-3,5.52-4.63a19.78,19.78,0,0,1,7.22-4,11.21,11.21,0,0,1,4.61-.3,9.3,9.3,0,0,1,1.2.27l.59.19.48.21,1.89.85a22.9,22.9,0,0,1,6.4,5.14,26.61,26.61,0,0,1,4.12,7,30.3,30.3,0,0,1,1.76,15.7,26.67,26.67,0,0,1-2.39,7.73,21,21,0,0,1-5.1,6.58,18.11,18.11,0,0,1-3.59,2.37,23.65,23.65,0,0,1-3.86,1.46c-2.53.73-4.89,1.16-6.88,1.88a12.57,12.57,0,0,0-2.68,1.3,13.43,13.43,0,0,0-2.27,2,21.4,21.4,0,0,0-3.57,5.32A50.42,50.42,0,0,0,643,388.11a123.91,123.91,0,0,1-3,14.64c-.78,2.53-1.71,4.79-2.62,7.1s-1.91,4.57-2.93,6.83a150.49,150.49,0,0,1-14.81,25.8,120.39,120.39,0,0,1-20.12,22.07,106.21,106.21,0,0,1-12.16,8.83,90.76,90.76,0,0,1-13.5,6.72,74,74,0,0,1-29.62,5.13c-.63,0-1.26,0-1.89-.07l-1.89-.2c-1.25-.14-2.52-.24-3.76-.43a75.05,75.05,0,0,1-21.45-6.93l-3.33-1.74c-1.1-.6-2.15-1.27-3.22-1.91l-1.6-1-1.55-1-3.08-2.12a122,122,0,0,1-11.4-9.55,147.22,147.22,0,0,1-10.14-10.79q-4.76-5.66-9-11.71a171.87,171.87,0,0,1-14.79-25.5,1.37,1.37,0,0,1,2.47-1.19l0,.06a169.11,169.11,0,0,0,15.09,24.63q4.29,5.82,9,11.28a143.42,143.42,0,0,0,10,10.33,117.92,117.92,0,0,0,11.13,9l3,2,1.49,1,1.54.89c1,.58,2,1.22,3.09,1.76l3.18,1.59a70.35,70.35,0,0,0,20.18,6.16c1.16.16,2.33.22,3.5.33l1.75.16c.58.06,1.17,0,1.76,0a69.78,69.78,0,0,0,27.46-5.21,85.21,85.21,0,0,0,12.55-6.44,100.55,100.55,0,0,0,11.35-8.47c14.3-12.48,25.15-28.67,33.17-46q1.49-3.26,2.86-6.58c.89-2.22,1.81-4.47,2.47-6.59a121.89,121.89,0,0,0,3-13.93,55.81,55.81,0,0,1,4.4-14.71,27,27,0,0,1,4.63-6.7,18.82,18.82,0,0,1,3.28-2.75,18.11,18.11,0,0,1,3.88-1.86c2.61-.9,5.07-1.3,7.22-1.91a13.8,13.8,0,0,0,5.48-2.7,15.6,15.6,0,0,0,3.83-4.85,21.43,21.43,0,0,0,2-6.15,25.17,25.17,0,0,0-1.31-13,21.61,21.61,0,0,0-3.23-5.6,18,18,0,0,0-4.85-4l-1.43-.67-.35-.17-.28-.09a4.45,4.45,0,0,0-.58-.14,6.41,6.41,0,0,0-2.62.15,12,12,0,0,0-2.81,1.14,20.25,20.25,0,0,0-2.71,1.84c-1.8,1.4-3.6,3.11-5.75,4.66a26.93,26.93,0,0,1-7.1,3.59,37.77,37.77,0,0,1-15.33,1.45,61.65,61.65,0,0,1-7.43-1.23,53.59,53.59,0,0,0-6.93-1.13,13.32,13.32,0,0,0-6.24.8,8.16,8.16,0,0,0-4.15,4.08,13.11,13.11,0,0,0-1.06,6.26,19.69,19.69,0,0,0,1.5,6.51,29.79,29.79,0,0,0,20.49,17.22,1.37,1.37,0,0,1-.58,2.67Z"/><path class="cls-10" d="M558.58,279.29a109.74,109.74,0,0,0-3.41-70.36,113,113,0,0,0-7.86-16l-2.38-3.77a46.2,46.2,0,0,1-2.49-4.11,12.06,12.06,0,0,1-1.47-5.32,7.35,7.35,0,0,1,.69-3.16,7,7,0,0,1,2.06-2.54,10.68,10.68,0,0,1,5.34-2A31.34,31.34,0,0,1,554,172a68.94,68.94,0,0,1,9.33,1.19c6,1.17,11.93,2.4,17.9,3.7a299,299,0,0,1,35.39,9.69,181,181,0,0,1,17.1,7,134.31,134.31,0,0,1,16.16,9.16,85.3,85.3,0,0,1,14.57,11.83,49.17,49.17,0,0,1,10.65,16,37.64,37.64,0,0,1,2.4,9.53,33.06,33.06,0,0,1-.26,9.94,28.43,28.43,0,0,1-3.49,9.49,34.32,34.32,0,0,1-6.32,7.67A85.42,85.42,0,0,1,651.92,278,122.58,122.58,0,0,1,635,285.8a160,160,0,0,1-36.05,8.39c-6.11.73-12.22,1.22-18.34,1.54s-12.24.17-17.75,1.26a21.13,21.13,0,0,0-7.49,2.86,16.61,16.61,0,0,0-1.55,1.14c-.47.46-.94.85-1.42,1.39-1,1-1.87,2.13-2.76,3.29-1.78,2.32-3.49,4.85-5.45,7.34a43.12,43.12,0,0,1-3.18,3.63c-1.11,1.11-2.22,2.18-3.37,3.23a85.48,85.48,0,0,1-15,11.15,67.84,67.84,0,0,1-17.4,7.09,55,55,0,0,1-36.92-3.68,62,62,0,0,1-27.05-25.18A64.62,64.62,0,0,1,434.33,292a38.06,38.06,0,0,1-1.3-9.35,15.92,15.92,0,0,1,2.77-9.42,1.37,1.37,0,0,1,2.23,1.6h0a13.13,13.13,0,0,0-2.07,7.81,35.21,35.21,0,0,0,1.38,8.6,61.37,61.37,0,0,0,6.89,16.27A58.81,58.81,0,0,0,470,330.83a50.77,50.77,0,0,0,34.15,3A63.26,63.26,0,0,0,520.24,327a80.66,80.66,0,0,0,14-10.71c1.08-1,2.14-2.06,3.16-3.11a38,38,0,0,0,2.77-3.25c1.77-2.3,3.43-4.83,5.31-7.35.94-1.26,1.94-2.51,3-3.72.52-.6,1.19-1.21,1.81-1.81a21.3,21.3,0,0,1,2.09-1.59,26.43,26.43,0,0,1,9.35-3.74,63.19,63.19,0,0,1,9.45-1.08c3.1-.15,6.05-.26,9.07-.46,6-.37,12-.91,17.92-1.68a160.38,160.38,0,0,0,34.66-8.33,116.49,116.49,0,0,0,16-7.5,80.33,80.33,0,0,0,14.39-9.89,28.31,28.31,0,0,0,5.25-6.3,22.4,22.4,0,0,0,2.78-7.5,27.43,27.43,0,0,0,.27-8.19,31.76,31.76,0,0,0-2-8.09,43.45,43.45,0,0,0-9.3-14.17,79.77,79.77,0,0,0-13.55-11.17,128.91,128.91,0,0,0-15.41-8.91,175.91,175.91,0,0,0-16.51-6.94,306.5,306.5,0,0,0-34.71-9.85c-5.87-1.36-11.84-2.68-17.71-3.89a64.55,64.55,0,0,0-8.7-1.22,27.33,27.33,0,0,0-4.16,0,6.41,6.41,0,0,0-3.14,1,2.64,2.64,0,0,0-1.08,2.19,7.91,7.91,0,0,0,1,3.37,42,42,0,0,0,2.19,3.7l2.43,4a117.12,117.12,0,0,1,8,16.74,112.94,112.94,0,0,1,2.3,72.58,1.37,1.37,0,0,1-2.62-.79Z"/><path class="cls-10" d="M571.8,415.69a37.84,37.84,0,0,1-20,1.83,39.73,39.73,0,0,1-9.73-3c-.78-.36-1.56-.72-2.3-1.15l-1.13-.62-1.09-.69a27.55,27.55,0,0,1-4.19-3.16,25.51,25.51,0,0,1-6.25-8.61,27.49,27.49,0,0,1-2.34-10.4,55.33,55.33,0,0,1,.71-10.17c.5-3.31,1.22-6.53,2-9.68,2.76-12.46,5.92-25,6.57-37.56a70.56,70.56,0,0,0-1.21-18.67c-1.3-6.05-3.63-12-7.69-16.62h0a1.37,1.37,0,0,1,2-1.88c4.85,4.79,7.88,11.11,9.62,17.55A70.7,70.7,0,0,1,539,332.61a130.23,130.23,0,0,1-1.79,19.65c-.5,3.23-1.13,6.42-1.74,9.62s-1.35,6.44-2.13,9.54c-1.49,6.24-3,12.33-3,18.35a21.37,21.37,0,0,0,6.41,15.55,22.78,22.78,0,0,0,3.4,2.83l.93.65,1,.59c.64.41,1.31.75,2,1.11a36.78,36.78,0,0,0,26.84,2.62h0a1.37,1.37,0,0,1,.89,2.58Z"/><path class="cls-10" d="M391.21,276.6c-4.58,4.92-7.87,11-11.27,17-1.71,3-3.46,6.08-5.48,9a42.64,42.64,0,0,1-7.13,8.16,33.14,33.14,0,0,1-9.3,5.92,25.07,25.07,0,0,1-5.46,1.58,22.67,22.67,0,0,1-2.89.24h-1.46l-1.46-.15a20.79,20.79,0,0,1-10.53-4.6,31.22,31.22,0,0,1-7.27-8.52,44.13,44.13,0,0,1-5.74-21.06,79.54,79.54,0,0,1,2.58-21.3c.83-3.44,1.8-6.81,2.78-10.16s2.05-6.69,3.17-10q3.35-10,7.56-19.63a172,172,0,0,1,21.17-36.47A113.89,113.89,0,0,1,391.72,158a92.35,92.35,0,0,1,19.39-8.79c1.68-.58,3.4-1,5.12-1.48.85-.24,1.71-.46,2.62-.63s1.8-.34,2.7-.47a38.72,38.72,0,0,1,10.92,0,38.08,38.08,0,0,1,10.49,3,35.68,35.68,0,0,1,9.11,6,29.8,29.8,0,0,1,6.74,8.61A22.92,22.92,0,0,1,461.29,175a1.37,1.37,0,0,1-2.74,0,20,20,0,0,0-2.47-9.27,26.57,26.57,0,0,0-6.27-7.46,33.87,33.87,0,0,0-8.34-5.16,34.22,34.22,0,0,0-9.48-2.48,34.66,34.66,0,0,0-9.8.24c-.81.13-1.61.27-2.41.48s-1.6.4-2.41.64c-1.62.47-3.25.92-4.83,1.52a87.63,87.63,0,0,0-18.2,8.77,111.15,111.15,0,0,0-29.21,27.86A170.22,170.22,0,0,0,354,207.21l-2.46,4.48c-.77,1.52-1.57,3-2.33,4.56-1.52,3.06-3,6.14-4.38,9.27a270,270,0,0,0-13.68,38.7A74.27,74.27,0,0,0,328.48,284a39.81,39.81,0,0,0,4.74,18.74,26.47,26.47,0,0,0,6,7.36,16.21,16.21,0,0,0,8.18,3.82l1.13.15,1.14,0a18.3,18.3,0,0,0,2.29-.13,20.81,20.81,0,0,0,4.53-1.21,29.09,29.09,0,0,0,8.26-5c5.11-4.17,8.72-9.94,12.3-15.85s7.15-12.08,12.21-17.2a1.37,1.37,0,0,1,2,1.89Z"/><path class="cls-10" d="M617.52,237.26a61,61,0,0,0,10.64,6,73.23,73.23,0,0,0,11.53,4.06A118.34,118.34,0,0,0,663.94,251c1,.06,2.05.11,3.08.14s2.05.11,3.08.14c2.06.06,4.12.13,6.18.16,4.13.05,8.26-.06,12.4-.26a240.67,240.67,0,0,0,24.8-2.7,1.37,1.37,0,0,1,.6,2.68,162,162,0,0,1-25,5c-4.23.53-8.48.87-12.75,1.06-2.13.09-4.27.17-6.42.12s-4.28-.1-6.42-.28a104.73,104.73,0,0,1-25.28-5,77.63,77.63,0,0,1-11.88-5.18,56.82,56.82,0,0,1-10.57-7.47,1.37,1.37,0,0,1,1.71-2.13Z"/></svg>