<svg id="Layer_1" data-name="Layer 1" xmlns="http://www.w3.org/2000/svg" viewBox="0 0 960 560"><defs><style>.cls-1{fill:#77edff;}.cls-2{fill:#ffb282;}.cls-3{fill:#ff9f63;}.cls-4{fill:#eb9b6a;}.cls-5{fill:#5a5c7a;}.cls-6{fill:#68b5ff;}.cls-7{fill:#4d9deb;}.cls-8{fill:#bdabde;}.cls-9{fill:#5c67ff;}.cls-10{fill:#4c4f7a;}.cls-11{fill:#404266;}.cls-12{fill:#353647;}.cls-13{fill:#233940;}</style></defs><title>virtual, reality, man, people, person</title><path class="cls-1" d="M173.28,380c3.87,18.18,12.31,36.07,21.16,49.85,34,52.94,90.3,93.36,151,109.16,76,19.81,160.76,0,221.75-49.55s97.5-127.19,99.3-205.76c1-45.71-9.52-92.48-35.2-130.31C608.41,119.76,575,94.78,540.75,72.7c-54.89-35.41-118.08-66-182.92-58.1C330.4,18,303.44,28.54,283,47.13s-33.81,45.57-33.31,73.2c.71,38.79,27.48,76.53,16.88,113.85-5.94,20.91-22.63,36.85-39.64,50.42-19.23,15.34-46.23,32.6-53.4,57.45C170.09,353.94,170.52,367.07,173.28,380Z"/><path class="cls-2" d="M425.06,317.18,304.5,261.86c45.18-35.53,41.26-65.37,41.26-65.37s8.15-5.38,6.93-2.25S359,206.72,359,206.72c17.7,2.66,17.6-15.32,17.6-15.32,11.3-6,14-5.68,14-5.68v-33L463,144.18s1.35,7.24,3.14,16.27c2.41,12.08,5.64,27.33,7.55,32.66,3.33,9.31,25.16,5.61,25.16,5.61s5,34.25,7.88,49.69c.76,4,1.38,6.67,1.75,7.27C510.28,258.64,425.06,317.18,425.06,317.18Z"/><path class="cls-3" d="M472.94,201.85q.67-3.21,1.27-6.42l-.05-.09.56-.35c1.64,2.08,4.48,3.25,7.66,3.86A90.63,90.63,0,0,1,472.94,201.85Z"/><path class="cls-4" d="M506.71,248.41a61.11,61.11,0,0,1-9.05,14.87c-9.52,11.41-23.23,18.49-37.08,23.87-17.83,6.92-37.16,11.56-56.06,8.6S367.28,281,360.63,263.07c-1.48-4-2.37-8.31-1.53-12.47s3.65-8.09,7.7-9.36c4.78-1.5,10,1,13.64,4.41s6.29,7.81,9.8,11.39c10,10.25,26.5,12.55,40,7.7s24.13-15.87,31-28.47a90.15,90.15,0,0,0,4.07-8.54,7.69,7.69,0,0,0-8.63-10.52l-.81.16c-17.88,3.41-45,5.14-58.39-9.91-3.1-3.48-5.25-7.75-8.56-11S380.45,191,376.27,193c2.28-4.54,8.48-5.75,13.35-4.3s8.88,4.83,13.18,7.54c16.75,10.57,38,10.93,57.57,7.61,9.17-1.56,18.25-3.91,27.54-4.64,9.5-.75,10.88-.4,12.21,8.32C502.21,221.2,504.14,234.86,506.71,248.41Z"/><path class="cls-5" d="M510.39,171.43a0,0,0,0,1,0,0c-2.41,2.59-1.78,6.12-3,9.14-3.5,8.57-13.16,14.28-21.32,17.73-29.1,12.29-70.37,13.49-94.4-10l0,0s0,0,0,0a18.81,18.81,0,0,0-11.1,1,19.85,19.85,0,0,0-3.27,1.66c-.43.27-.65.44-.65.44a14.6,14.6,0,0,1,.43,1.8,10,10,0,0,1-2.24,8.8c-3,3.4-8.09,5.09-12.38,5.7a6.52,6.52,0,0,1-6.14-2.71c-2.68-3.27-3.63-8.27-3.63-8.27h-7l-4-20.68.12-.06q4.7-2.25,9.49-4.29a19.7,19.7,0,0,1-3.2-9.27c-.12-3.63,1.94-7.52,5-9.06a1.72,1.72,0,0,1,.2-.09,12,12,0,0,1,1.38-.49s.05-.06.08-.06h0c.51,0,1.05-.1,1.6-.06A6,6,0,0,1,358,153a7.07,7.07,0,0,1,1.86.94,4.89,4.89,0,0,1,.68.52c2.28,1.92,3.86,5.05,5.07,7.9l.69,1.62c.24.54.46,1.08.69,1.62q10-3.47,20.3-6c.23-.82.49-1.63.79-2.43a8.86,8.86,0,0,1,1.19-2.65s0,0,0,0c4.63-7.2,19.27-14.23,19.27-14.23h0c1.39-.23,46-7.78,75.49-10.29h.15a44.74,44.74,0,0,1,5.59-.15h.31C513.81,130.79,512.46,152.29,510.39,171.43Z"/><path class="cls-6" d="M607.69,449.08c-24.23,31.3-74.57,81.28-155.8,94.27q-9,1.46-18.6,2.26c-26.31,2.22-55.55.57-87.86-6.55,0,0,.3-10.52-.31-27.39a605.25,605.25,0,0,0-8.47-81.74,410.16,410.16,0,0,0-10.82-46.2c-6.35,6.56-16.36,16.44-24.21,27.32a6.77,6.77,0,0,1-11.73-1.28C279.3,385.08,257.63,327,273.34,296.33c20.3-39.61,54.44-48.48,89.64-34.37s58.95,35.79,104.81-2.73c0,0,8.36-13.9,13.89-38.76s35.48-28.83,49-24.94,32.64,12.06,48.71,34.22c0,0,9.15,14.66,21.85,17.29a14,14,0,0,0-1,1.76,104.06,104.06,0,0,0-11.72,31.65c-1.28,7.08-1.62,14.49.13,21.53,2.15,8.69,7.9,27.56,15.39,32.28,1.84,1.16,4,2.56,3.53,5-2.41,12.55-41-12.49-45.85-14.85a14.1,14.1,0,0,0-5.66-1.72c-16.4-.52,4.9,22.91,7.45,26.73a325,325,0,0,1,18.68,31.8A314.92,314.92,0,0,1,607.69,449.08Z"/><path class="cls-2" d="M713.77,119.68l0,0c-.59-.48-2.87-3.26-3.59-3.49-7.44-2.31-13.29-1.61-20.15,2.07-10.33,5.54-22.89,16.52-28.21,26.82-5.63,10.9-3.19,27.61-4.26,39.65-2.89,32.51-13.62,73.14-56.26,62.33,0,0-22.64,46.51-8.89,77.09s66.73,2,66.73,2,61.17-46.1,63.15-111.69c.22-7.3-.06-14.66-.12-22a3.82,3.82,0,0,1,.22-1.6,4.06,4.06,0,0,1,1.7-1.58c5.29-3.36,12.11-5.69,14.91-11.3,3.12-6.24,9-11.52,11.21-18.14,3.58-10.81,6-28.15,2.37-39-1.26-3.78-8-5.54-11.63-7.08-5.2-2.18-10.67.72-10.43,6.43,0,0,5.73,10.53-1.67,17.29s-25.88,19.07-32.32,3c-2.8-9.05,13.28-10.11,17.12-14.31C715.27,124.44,715.66,121.23,713.77,119.68Z"/><path class="cls-7" d="M511,497.92q-2.45,3.35-5.23,6.46c-24.52,27.43-65.13,33.68-99.9,27.5a107.3,107.3,0,0,1-32.07-11.51c-4.58-2.47-29-14.85-29.17-20.06-.76-20.42-2.33-38.78-7.95-70.38a37,37,0,0,1,12.06.6c14,3.09,25.07,13.78,38.48,18.83,26.33,9.93,56.84-4.31,74.42-26.27S486.73,373,493.85,345.8c3.94,25.1,21.49,45.84,29.77,69.86C533.08,443.1,528,474.6,511,497.92Z"/><path class="cls-8" d="M432.74,135.22s13.24,19.08,30.24,9,31.37-34,11.18-56.08S358.8,105.64,344.05,144.18c0,0-6.27,11.29-2.28,31.8l9.49-4.29s-7.91-15.46,3.4-18.88c0,0,6.83-.18,12.35,12.81l20.3-6S390.84,138.39,432.74,135.22Z"/><path class="cls-9" d="M717.38,204.38c-2-.6-3.1-1-3.1-1l.59,0C715.7,203.72,716.54,204.07,717.38,204.38Z"/><path class="cls-10" d="M788.67,171.68a42.36,42.36,0,0,1-19.9,31.23c-13.43,8.26-29.36,6.61-44.1,3.37l-.07,0c-2.94-.65-5.37-1.32-7.13-1.85l-.09,0c-.84-.31-1.68-.66-2.51-1-1.09-.49-2.17-1-3.23-1.63-35-19.67-14.43-65-14.43-65h31s-20.57,45.32,14.43,65c.53.3,1.06.59,1.58.86l.31-.18c7.89-4.83,13.14-12.7,15.84-21.44,2.36-7.65,2.94-15.74,3.19-23.74a41,41,0,0,0-.64-10.63,15,15,0,0,0-5.46-8.91,6.69,6.69,0,0,1-2.29-2.06,5.15,5.15,0,0,1-.42-2.14l-.43-8.59c8.32-.6,16.59,3.26,22.39,9.26S786,148,787.77,156.19A49.15,49.15,0,0,1,788.67,171.68Z"/><path class="cls-9" d="M724.6,206.26a35.45,35.45,0,0,1-7.13-1.85C719.23,204.94,721.66,205.61,724.6,206.26Z"/><path class="cls-10" d="M702.86,147.67s-13.88-8.59-1.33-15.37,11.08-4.84,13.72-10.09,12.34-6.85,15.24-1.92,5.34,13.92-5.26,21.55A33.11,33.11,0,0,1,702.86,147.67Z"/><path class="cls-2" d="M515.78,273.23s-3.39-10.15-29.26-1.13-60.85,30.26-69.78,61-6.86,27.35-6.86,27.35-58.94-36-110.09,52.09c0,0,68.62,115.42,145.23,93.28s49.69-122.68,49.69-122.68-5.88-52.92,23.52-61.94,34-13.27,43-33.89S523.93,266.25,515.78,273.23Z"/><path class="cls-10" d="M569.74,254.4c-4.53-8.68-11.58-15.53-21.53-16.65a41,41,0,0,0-23.78,4.66,31.24,31.24,0,0,0-14.28,15.76,25.64,25.64,0,0,0-1.67,10.62,8,8,0,0,1,5.35,2.9,6.77,6.77,0,0,1,1.29,6.15,7.94,7.94,0,0,1-3.16,4.24A64.71,64.71,0,0,0,518,292.46s.35.57.41.56-14.41,2.89-2.67,18.11,28.87,32.59,47.21,23.59c13.81-6.78,16.75-26.78,16.86-40.4S576,266.42,569.74,254.4Z"/><path class="cls-11" d="M538.64,261.72s13.58-35.27,31.11-7.32c15.23,24.28,8.71,56.66,5.55,59.31,0,0-12.88,17.57-40.44-33.71Z"/><path class="cls-7" d="M449.31,291.1a79.77,79.77,0,0,0-16,16.29c-11.42,15-22.6,33.1-24.38,52.22a63.27,63.27,0,0,0-36.75-6.17c-3.75-10.78-5.81-22.24-5.06-33.62s4.41-22.7,11.27-31.81a8.52,8.52,0,0,1,3.63-3.17c1.53-.55,3.57,0,4.16,1.49a4.89,4.89,0,0,1-.41,3.41c-3.92,10.37-1.14,22,5.77,30.5,8.13,10,16.42,3.47,23.39-3.94a238.14,238.14,0,0,0,16.16-19.63C444.7,278.66,451.69,289.35,449.31,291.1Z"/><path class="cls-4" d="M420.22,418c-8.92,4.75-22.84-9.75-43.46-53.22a111.87,111.87,0,0,1-4.6-11.15c-.05-.14-.1-.28-.14-.42,5.26-.45,24.3-1.42,36.89,6.61,0,.16,0,.31,0,.46C406.27,389.5,420.22,418,420.22,418Z"/><path class="cls-10" d="M525.7,250.16c-12.13.58-53.42,18.78-58.06,29.56,1.78-.17,34.63-10.27,36.43-10.22a19,19,0,0,1,7.65,1.45,5.72,5.72,0,0,1,1.81,1.18c2.85,2.52,2.16,6.37-.22,9-.26.28-.55.54-.82.81a25.85,25.85,0,0,1-3.85,3.42,71.24,71.24,0,0,1-9.9,5.67,12.14,12.14,0,0,0,5.54,4.33c6.32,2.51,14-.11,19.07-4.15,7.65-6.08,16.79-14.65,17.07-25.15C540.65,257.35,534.87,249.72,525.7,250.16Z"/><path class="cls-2" d="M541,262.23c-.1-4.5,5.2-9.11,15.42-9.31s11,17.18,7.21,28.3S552,304.87,552,304.87l-17.2-22.5S541.14,268.37,541,262.23Z"/><path class="cls-12" d="M391.64,188.34s0,0,0,0a18.81,18.81,0,0,0-11.1,1,19.85,19.85,0,0,0-3.27,1.66l-.87-1c-.93-6.76-9.37-24.33-9.37-24.33q10-3.47,20.3-6C381.3,168.61,391.16,187.43,391.64,188.34Z"/><path class="cls-13" d="M420.76,422A105,105,0,0,1,409,350.33a90.36,90.36,0,0,1,5.25-17.88l.86-2.17.43-1.09.5-1.05,2-4.22c.63-1.43,1.49-2.74,2.23-4.11l1.16-2a22.09,22.09,0,0,1,1.22-2c1.73-2.59,3.4-5.24,5.37-7.66l1.43-1.86.71-.93.77-.88L434,301a103.07,103.07,0,0,1,13.86-12.53c2.43-2,5.07-3.61,7.65-5.37,1.31-.84,2.68-1.58,4-2.38s2.68-1.59,4.08-2.26l4.16-2.11c1.4-.68,2.84-1.27,4.26-1.9,2.82-1.31,5.77-2.28,8.67-3.39,1.46-.52,3-.94,4.42-1.42s2.95-1,4.46-1.31l4.49-1.16c.71-.2,1.6-.38,2.39-.52s1.61-.25,2.42-.33a36.48,36.48,0,0,1,9.79.15,17.72,17.72,0,0,1,5.08,1.57,11.06,11.06,0,0,1,2.46,1.71,8.52,8.52,0,0,1,1.87,2.67,8.81,8.81,0,0,1,.67,3.12,11.83,11.83,0,0,1-.33,2.93,11.17,11.17,0,0,1-2.88,4.94,14.06,14.06,0,0,1-2.06,1.75,23.91,23.91,0,0,1-2.14,1.34c-1.44.8-2.9,1.45-4.31,2.06s-2.78,1.18-4.08,1.8-2.6,1.37-3.93,2.08c-2.66,1.44-5.3,2.89-7.9,4.4-10.34,6.05-20.25,13-28.3,21.83a1.37,1.37,0,0,1-2.07-1.8A98.16,98.16,0,0,1,474,303.95a144.21,144.21,0,0,1,15.08-10.57c2.61-1.61,5.25-3.15,7.88-4.67,1.33-.75,2.58-1.52,4.05-2.29s2.84-1.36,4.19-2,2.66-1.26,3.85-2a19.33,19.33,0,0,0,1.69-1.12,9.33,9.33,0,0,0,1.37-1.23,6.41,6.41,0,0,0,1.6-2.86,7.3,7.3,0,0,0,.13-1.58,3.88,3.88,0,0,0-.31-1.3,3.55,3.55,0,0,0-.76-1,6.15,6.15,0,0,0-1.29-.83,12.75,12.75,0,0,0-3.62-1,32.89,32.89,0,0,0-8.36.09c-.7.09-1.4.2-2.08.33a20.32,20.32,0,0,0-2,.49l-4.29,1.2c-1.44.37-2.84.87-4.25,1.34s-2.82.92-4.21,1.44a124.71,124.71,0,0,0-31.12,16.81A106.81,106.81,0,0,0,438.32,305l-3,3.27-.74.82-.69.86-1.37,1.73c-1.91,2.25-3.51,4.72-5.19,7.15a20.06,20.06,0,0,0-1.18,1.87l-1.12,1.9c-.72,1.28-1.56,2.5-2.18,3.85l-2,4-.5,1-.42,1-.85,2c-.54,1.37-1.18,2.71-1.64,4.11L416,342.73l-1.2,4.27c-.42,1.42-.68,2.88-1,4.32a105.11,105.11,0,0,0-2.26,17.62,107.66,107.66,0,0,0,.89,17.79c.24,1.47.37,3,.67,4.41l.85,4.39,1.08,4.34c.34,1.45.84,2.86,1.26,4.29a102.34,102.34,0,0,0,6.86,16.53h0a1.37,1.37,0,0,1-2.4,1.31Z"/><path class="cls-4" d="M434.83,226.83c-4.2-2.56-10-2.43-14.74-3l-21-2.39c-4.23-.48-4.2,6.15,0,6.63l24.2,2.75c3,.34,9.48.19,9.69,4.61s-4.71,6.75-8.37,7.81c-10.15,2.93-21.5,2.31-29-5.87-3.78-4.14-6.32-9.21-9.06-14.05a9.36,9.36,0,0,0-1.83-2.52,3.17,3.17,0,0,0-2.89-.81,3.06,3.06,0,0,0-2,2.53,6.88,6.88,0,0,0,.5,3.31,37.15,37.15,0,0,0,5,8.63c1.43,2,2.74,4.12,4.28,6.07,2.48,3.13,5.21,6.14,8.74,8.09a18.91,18.91,0,0,0,3.57,1.52c6.13,1.89,12.8,1.57,19.06.61l.36-.06c4.3-.68,8.8-2,12.31-4.71C439.69,241.42,442.43,231.46,434.83,226.83Z"/><path class="cls-13" d="M542.09,259a31.59,31.59,0,0,1,.08,9,32.14,32.14,0,0,1-2.53,8.72,32.52,32.52,0,0,1-4.88,7.7,37.5,37.5,0,0,1-6.69,6.17,29.73,29.73,0,0,1-4,2.41,21.17,21.17,0,0,1-2.18,1l-2.09.73a15.63,15.63,0,0,0-3.45,1.53,5.08,5.08,0,0,0-1.11,1,3.8,3.8,0,0,0-.67,1.28l-.15.36c0,.12,0,.26-.08.39s-.11.51-.15.77a8.66,8.66,0,0,0,.06,1.67,13,13,0,0,0,1,3.52,36,36,0,0,0,4.18,6.9c1.66,2.22,3.51,4.41,5.32,6.69s3.61,4.44,5.45,6.66c3.68,4.42,7.43,8.83,11.07,13.37s7.16,9.24,10.39,14.18,6.09,9.94,8.94,15,5.53,10.24,8.07,15.47,4.94,10.53,7.21,15.88c4.51,10.71,8.61,21.59,12.12,32.66s6.56,22.29,9,33.64a287.68,287.68,0,0,1,5.28,34.38,1.37,1.37,0,0,1-2.72.32v0a341,341,0,0,0-16.23-66.75q-5.7-16.22-12.71-31.93c-2.34-5.23-4.82-10.38-7.34-15.52s-5.21-10.19-7.95-15.21q-2.06-3.77-4.21-7.48c-1.42-2.49-2.87-5-4.35-7.34-3-4.78-6.33-9.38-9.82-13.91s-7.14-9-10.77-13.48c-1.81-2.26-3.62-4.52-5.39-6.83s-3.57-4.52-5.29-7a40.5,40.5,0,0,1-4.53-8,17.46,17.46,0,0,1-1.21-4.81,13.1,13.1,0,0,1,0-2.65c.06-.45.18-.9.28-1.35.06-.22.09-.45.17-.67l.27-.64a11.88,11.88,0,0,1,.59-1.27,7.84,7.84,0,0,1,.85-1.2,9.48,9.48,0,0,1,2.14-1.83,19.51,19.51,0,0,1,4.47-1.89l2-.65a16.9,16.9,0,0,0,1.8-.73,25.71,25.71,0,0,0,3.48-2,31.65,31.65,0,0,0,10.8-12,28.14,28.14,0,0,0,2.79-15.95v0a1.37,1.37,0,0,1,2.71-.36Z"/><path class="cls-13" d="M535.89,281.52c4.76,5.58,8.95,11.54,13.51,17s9.47,10.66,15.19,14.42a9.37,9.37,0,0,0,3.88,1.62,4.62,4.62,0,0,0,3.26-1.06,7.45,7.45,0,0,0,1.4-1.41l.63-.92c.18-.33.39-.65.56-1a18.93,18.93,0,0,0,1.56-4.46,41.24,41.24,0,0,0,.75-10.1c-.12-3.5-.41-7-.86-10.5a116.37,116.37,0,0,0-4.67-20.55,51.14,51.14,0,0,0-9.88-17.94,27,27,0,0,0-7.85-6.06,22.55,22.55,0,0,0-9.56-2.28c-6.71-.08-13.43,2.7-19.2,6.7h0a1.37,1.37,0,0,1-1.63-2.21,44.41,44.41,0,0,1,9.59-5.87,30.62,30.62,0,0,1,5.43-1.85,27.24,27.24,0,0,1,5.76-.81,26.11,26.11,0,0,1,11.53,2.18,31.74,31.74,0,0,1,9.56,6.75c5.43,5.58,9.07,12.42,11.71,19.46a90.17,90.17,0,0,1,3.25,10.71c.44,1.81.81,3.64,1.16,5.47s.59,3.68.82,5.53a92,92,0,0,1,.7,11.18,46.72,46.72,0,0,1-1.21,11.5,24.35,24.35,0,0,1-2.2,5.71c-.25.46-.54.9-.82,1.35s-.62.86-1,1.3a12.71,12.71,0,0,1-2.49,2.35,10.86,10.86,0,0,1-3.21,1.57,9.24,9.24,0,0,1-3.73.3,13.6,13.6,0,0,1-6-2.6,73.22,73.22,0,0,1-15.6-16c-4.37-5.92-8.25-12-12.51-17.8a1.37,1.37,0,0,1,2.14-1.7Z"/><path class="cls-13" d="M310.95,391.81a101.09,101.09,0,0,1,26.15-27.07c10.36-7.28,22.41-12.64,35.3-14.3a62.71,62.71,0,0,1,37.49,7.27,75.33,75.33,0,0,1,15.53,11.07,105,105,0,0,1,12.6,14,1.37,1.37,0,0,1-2.11,1.75l0,0a118.77,118.77,0,0,0-13.1-12.7,76.19,76.19,0,0,0-15.16-9.67,62.43,62.43,0,0,0-16.9-5.32,68.48,68.48,0,0,0-8.79-.78c-1.47-.05-2.94.05-4.41.07s-2.94.22-4.41.33c-11.75,1.33-23.14,5.85-33.28,12.35a98.51,98.51,0,0,0-14.32,11.12,110.55,110.55,0,0,0-12.33,13.46h0a1.37,1.37,0,0,1-2.22-1.59Z"/><path class="cls-13" d="M549.25,252.51a21.57,21.57,0,0,1,6-1.29,9.9,9.9,0,0,1,6.34,1.78,9.14,9.14,0,0,1,2.32,2.48,12.61,12.61,0,0,1,1.35,3,29.89,29.89,0,0,1,1.06,6,54.52,54.52,0,0,1-3,23.39,61.54,61.54,0,0,1-5,10.74,51.89,51.89,0,0,1-7.06,9.58,43.78,43.78,0,0,1-9.33,7.51,41.16,41.16,0,0,1-11.12,4.56c-3.91,1-7.76,1.29-11.19,2.39a17.78,17.78,0,0,0-4.75,2.26,35.12,35.12,0,0,0-4.23,3.48,43.84,43.84,0,0,0-11.16,18.94,80.7,80.7,0,0,0-3.25,22.3,189.36,189.36,0,0,0,1.31,22.84c.8,7.64,1.78,15.31,2.37,23.07a126.84,126.84,0,0,1-.11,23.48,86.24,86.24,0,0,1-5.83,22.9,84.29,84.29,0,0,1-11.82,20.49,74.41,74.41,0,0,1-38.74,26.34c-.95.31-1.92.52-2.89.74s-1.93.46-2.91.66l-2.94.5-1.47.25-1.48.16-3,.31-3,.14c-2,.14-4,0-6,0a69.61,69.61,0,0,1-23.27-5.14L393.82,505c-.45-.21-.92-.41-1.36-.63l-1.29-.69L386,501c-1.7-1-3.37-2-5-3-.84-.51-1.69-1-2.51-1.51l-2.45-1.6A201.64,201.64,0,0,1,357.12,481c-6.07-4.89-11.76-10.22-17.34-15.64s-10.81-11.18-15.95-17-10-11.93-14.65-18.12-9.19-12.51-13.44-19a225.68,225.68,0,0,1-21.54-41.48,152.37,152.37,0,0,1-6.76-22.55A103.77,103.77,0,0,1,265,323.61a86.41,86.41,0,0,1,1-11.92,75.31,75.31,0,0,1,2.9-11.67A71.41,71.41,0,0,1,273.7,289c.5-.87,1-1.73,1.53-2.6s1-1.75,1.6-2.56c1.17-1.63,2.24-3.35,3.55-4.87a75,75,0,0,1,17.71-16.18l1.26-.84,1.33-.74,2.66-1.47c.87-.52,1.83-.86,2.75-1.29s1.84-.84,2.79-1.22A61.48,61.48,0,0,1,320.58,254a71.74,71.74,0,0,1,24,.08,117.91,117.91,0,0,1,22.85,6.34c7.32,2.81,14.35,6,21.42,8.92a119.83,119.83,0,0,0,21.43,6.93,63.89,63.89,0,0,0,10.93,1.18c.91,0,1.82,0,2.73-.06a27.07,27.07,0,0,0,2.72-.17c1.82-.16,3.62-.47,5.42-.79a63.21,63.21,0,0,0,20.41-8.06,51.14,51.14,0,0,0,15.81-14.83,39.18,39.18,0,0,0,4.65-9.66A109.26,109.26,0,0,0,475.79,233c.83-3.75,1.64-7.59,2.77-11.44a45.3,45.3,0,0,1,4.86-11.34,36.76,36.76,0,0,1,8.4-9.24,45.69,45.69,0,0,1,22.52-9.41,51.88,51.88,0,0,1,12.21,0,64.76,64.76,0,0,1,22.9,7.36c1.77.94,3.49,2,5.18,3s3.35,2.27,4.91,3.53a85.16,85.16,0,0,1,8.78,8.1c5.45,5.71,10.2,11.81,15.39,17.28a78.62,78.62,0,0,0,8.16,7.63l2.17,1.65c.75.51,1.53,1,2.29,1.47.39.24.76.5,1.16.71l1.2.62,1.2.62.6.31.63.25,2.5,1,2.57.78a21.27,21.27,0,0,0,2.61.59l1.31.26c.44.06.89.08,1.33.13l1.33.12.67.06h.67l2.67,0,2.64-.31c.88-.09,1.73-.37,2.6-.54a31.82,31.82,0,0,0,9.73-4.26,39.16,39.16,0,0,0,8-7.22A55.78,55.78,0,0,0,650,215.18a70.81,70.81,0,0,0,2.5-10.9A112.69,112.69,0,0,0,653.59,193c.37-7.61.29-15.33.75-23.14s1.42-15.78,4.39-23.34a45.44,45.44,0,0,1,5.76-10.66,56.4,56.4,0,0,1,8.1-8.89,62.3,62.3,0,0,1,20.49-12.22,36.11,36.11,0,0,1,5.92-1.55,25.61,25.61,0,0,1,6.28-.37,19.32,19.32,0,0,1,3.21.52,12.57,12.57,0,0,1,3.18,1.17,10.34,10.34,0,0,1,5,5.13,7.33,7.33,0,0,1,.44,4,8.36,8.36,0,0,1-1.48,3.52,11.36,11.36,0,0,1-2.48,2.51,14.51,14.51,0,0,1-2.92,1.66c-2,.86-3.89,1.36-5.6,2a12.41,12.41,0,0,0-4.33,2.33,4.73,4.73,0,0,0-1.67,3.61,6.52,6.52,0,0,0,1.44,4.05,8.4,8.4,0,0,0,3.83,2.53,12.4,12.4,0,0,0,4.92.58,31.49,31.49,0,0,0,10.32-3.12,23.68,23.68,0,0,0,8.54-6.27,13.77,13.77,0,0,0,2.43-4.43,10.41,10.41,0,0,0,.5-4.77c-.25-1.53-1.13-3.24-1.67-5.43a10.86,10.86,0,0,1-.26-1.72,6.88,6.88,0,0,1,0-.94,4.52,4.52,0,0,1,.1-1,8.17,8.17,0,0,1,1.46-3.42,10.46,10.46,0,0,1,5.77-3.83,10.15,10.15,0,0,1,3.53-.27l.9.14.75.18c.5.13,1,.23,1.49.4a20.59,20.59,0,0,1,10.51,6.73,18.34,18.34,0,0,1,3.75,11.95c-.11,4-.43,7.82-.92,11.72a77.24,77.24,0,0,1-6.16,22.73,49.07,49.07,0,0,1-6.24,10.16l-1.93,2.3-2.13,2.12a27.17,27.17,0,0,1-2.27,2l-1.16,1c-.4.3-.82.57-1.23.85-.84.54-1.63,1.17-2.51,1.64l-2.62,1.46a48.09,48.09,0,0,1-5.52,2.3,47,47,0,0,1-11.63,2.48,55.25,55.25,0,0,1-11.85-.25,61.58,61.58,0,0,1-11.51-2.74,1.37,1.37,0,0,1,.88-2.6h0a58.84,58.84,0,0,0,11,2.52,52.39,52.39,0,0,0,11.22.15A44.07,44.07,0,0,0,723.18,186a45.12,45.12,0,0,0,5.13-2.18l2.42-1.37c.82-.44,1.54-1,2.32-1.54a41.66,41.66,0,0,0,13.78-17.17,73.94,73.94,0,0,0,5.71-21.79c.44-3.75.73-7.61.81-11.34a14.82,14.82,0,0,0-3-9.66,17,17,0,0,0-8.72-5.45c-.42-.15-.87-.22-1.31-.34l-.65-.16-.53-.08a6.47,6.47,0,0,0-2.2.19,6.78,6.78,0,0,0-3.68,2.44,4.42,4.42,0,0,0-.78,1.85,1.65,1.65,0,0,0,0,.48,3.17,3.17,0,0,0,0,.51,7.13,7.13,0,0,0,.18,1.13c.36,1.56,1.3,3.33,1.74,5.61a14,14,0,0,1-.6,6.63,17.63,17.63,0,0,1-3.06,5.67,27.5,27.5,0,0,1-9.87,7.4,49.93,49.93,0,0,1-5.59,2.25,25.9,25.9,0,0,1-6.11,1.29,16.41,16.41,0,0,1-6.49-.75,12.4,12.4,0,0,1-5.68-3.78,10.55,10.55,0,0,1-2.37-6.63,8.66,8.66,0,0,1,.79-3.64,9.23,9.23,0,0,1,2.18-3,16.36,16.36,0,0,1,5.73-3.21c1.92-.68,3.74-1.18,5.3-1.88a10.28,10.28,0,0,0,2.09-1.2,7.2,7.2,0,0,0,1.56-1.59,3.53,3.53,0,0,0,.54-3.48,6.22,6.22,0,0,0-3-2.93,8.36,8.36,0,0,0-2.24-.8,15,15,0,0,0-2.49-.39,21.35,21.35,0,0,0-5.23.35,31.87,31.87,0,0,0-5.24,1.4,58,58,0,0,0-18.93,11.44A45.23,45.23,0,0,0,663,148.19c-2.67,6.85-3.53,14.4-4,22s-.29,15.3-.63,23.1A117.42,117.42,0,0,1,657.37,205c-.23,2-.69,3.92-1.07,5.88s-1,3.85-1.53,5.76a60.77,60.77,0,0,1-11.07,21.26,44.26,44.26,0,0,1-9.07,8.26,37,37,0,0,1-11.32,5c-1,.21-2,.52-3.05.65l-3.1.38c-1,0-2.08,0-3.12.06h-.78l-.77-.07-1.55-.13c-.52,0-1-.08-1.55-.15l-1.52-.29a26,26,0,0,1-3-.67c-1-.29-2-.57-3-.88L599,249l-.72-.29-.69-.35-1.37-.7-1.37-.7c-.45-.24-.87-.53-1.31-.8-.86-.55-1.74-1.07-2.58-1.65l-2.44-1.84a83.89,83.89,0,0,1-8.76-8.11c-5.44-5.71-10.21-11.78-15.44-17.2a79.6,79.6,0,0,0-8.23-7.54c-1.44-1.15-3-2.18-4.49-3.2s-3.16-1.93-4.8-2.79a59.15,59.15,0,0,0-20.9-6.65A42.12,42.12,0,0,0,504.69,200a38.44,38.44,0,0,0-9.23,5.47,30.92,30.92,0,0,0-7.06,7.81,39.63,39.63,0,0,0-4.16,9.88c-1,3.55-1.81,7.27-2.63,11a114.76,114.76,0,0,1-3,11.5,45,45,0,0,1-5.35,11.1,57.11,57.11,0,0,1-17.65,16.6,69.48,69.48,0,0,1-22.39,8.84c-2,.36-4,.7-6,.88-1,.14-2,.16-3,.2s-2,.12-3.05.07a69.83,69.83,0,0,1-12-1.3,125.53,125.53,0,0,1-22.53-7.26c-7.22-2.95-14.21-6.15-21.29-8.87a111.93,111.93,0,0,0-21.65-6,65.74,65.74,0,0,0-22-.1A57,57,0,0,0,311,262.77c-.85.33-1.67.73-2.51,1.09s-1.7.69-2.49,1.15l-2.41,1.32-1.2.66-1.15.76a69.14,69.14,0,0,0-16.34,14.81c-1.23,1.39-2.19,3-3.28,4.46-.56.74-1,1.56-1.47,2.34l-1.42,2.37a65.69,65.69,0,0,0-4.42,10.12,69.62,69.62,0,0,0-2.72,10.74,80.81,80.81,0,0,0-1,11.1A98.22,98.22,0,0,0,272.88,346a146.89,146.89,0,0,0,6.43,21.74c10.88,28.43,28.64,54,48.38,77.27,5,5.76,10.18,11.42,15.61,16.8s11,10.59,16.94,15.4a196.82,196.82,0,0,0,18.37,13.59l2.38,1.57c.8.52,1.63,1,2.44,1.48,1.64,1,3.25,2,4.9,2.92l5,2.7,1.25.68c.42.21.84.39,1.26.59l2.52,1.17A64.94,64.94,0,0,0,420,506.82c1.86,0,3.73.16,5.59,0l2.8-.12,2.79-.29,1.39-.14,1.38-.23,2.76-.46c.91-.19,1.82-.41,2.73-.62s1.83-.4,2.71-.69a69.94,69.94,0,0,0,36.54-24.66A80,80,0,0,0,490,460.25a82,82,0,0,0,5.64-21.76,122.8,122.8,0,0,0,.19-22.71c-.54-7.62-1.49-15.26-2.27-23a187.08,187.08,0,0,1-1.19-23.33,84.46,84.46,0,0,1,3.57-23.3,47.42,47.42,0,0,1,12.23-20.4,38.5,38.5,0,0,1,4.72-3.83,21.26,21.26,0,0,1,5.67-2.66c3.95-1.22,7.85-1.5,11.43-2.38a38.53,38.53,0,0,0,18.91-11,48.73,48.73,0,0,0,6.69-9,58.48,58.48,0,0,0,4.81-10.17,51.55,51.55,0,0,0,3-22.1,27.34,27.34,0,0,0-.9-5.4,7.5,7.5,0,0,0-2.61-4,7.11,7.11,0,0,0-4.58-1.27,18.94,18.94,0,0,0-5.25,1.11,1.37,1.37,0,0,1-.87-2.59Z"/><path class="cls-13" d="M611.38,235.41a61,61,0,0,0-7,9.51,76.7,76.7,0,0,0-5.16,10.67,114.27,114.27,0,0,0-6.23,23c-.63,3.93-1.2,7.87-1.51,11.84s-.58,8-.53,11.9l0,2.95.21,2.92.11,1.46c.05.48.14,1,.2,1.44.15,1,.27,1.92.43,2.87a35.38,35.38,0,0,0,3.76,10.61,21.66,21.66,0,0,0,7.39,7.78,24.86,24.86,0,0,0,10.34,3.43c7.48.84,15.3-.59,22.76-2.86a108.72,108.72,0,0,0,21.58-9.42,78.8,78.8,0,0,0,18-14.68c10.77-11.51,19.73-24.85,27.46-38.77,1.94-3.48,3.74-7,5.47-10.62.88-1.79,1.66-3.61,2.5-5.42s1.48-3.63,2.18-5.46a111.05,111.05,0,0,0,5.47-23c2.11-15.74,1.5-31.85.52-47.91l-.77-12.08c-.26-4-.65-8-.87-12.09a86.38,86.38,0,0,1,0-12.33,43.42,43.42,0,0,1,2.69-12.19,1.37,1.37,0,0,1,2.57.95v0c-2.62,7.35-2.56,15.38-1.85,23.31l1.16,12,1,12.08c1.3,16.1,2.28,32.44.43,48.81a112.93,112.93,0,0,1-5.29,24.16c-.71,2-1.48,3.88-2.22,5.82s-1.61,3.77-2.49,5.62c-1.72,3.71-3.52,7.39-5.45,11a209.57,209.57,0,0,1-12.7,21A153.31,153.31,0,0,1,680.23,313a107.67,107.67,0,0,1-9.11,8.51c-.79.68-1.67,1.27-2.5,1.91s-1.66,1.28-2.55,1.86l-2.68,1.7-1.34.85-1.36.76a114.33,114.33,0,0,1-22.86,9.63,79.59,79.59,0,0,1-12.25,2.62,50.35,50.35,0,0,1-12.76.12,30,30,0,0,1-12.39-4.32,26.21,26.21,0,0,1-9-9.7,40.12,40.12,0,0,1-4.09-12.18c-.16-1-.28-2.09-.42-3.13-.06-.52-.14-1-.19-1.56l-.09-1.56-.17-3.12,0-3.11c0-4.14.35-8.2.78-12.28s1.06-8.12,1.78-12.15c.43-2,.79-4,1.31-6l.74-3,.85-3c.54-2,1.25-3.91,1.88-5.86s1.4-3.86,2.26-5.73a79.89,79.89,0,0,1,5.66-11,63.8,63.8,0,0,1,7.59-9.8,1.37,1.37,0,0,1,2,1.84Z"/><path class="cls-13" d="M385.63,214.48a41.56,41.56,0,0,0,3.14,14.39,27.4,27.4,0,0,0,3.63,6.15,22.54,22.54,0,0,0,5.14,4.72,23.1,23.1,0,0,0,13.08,3.84,26.8,26.8,0,0,0,13.22-3.68,27.2,27.2,0,0,0,2.88-1.93,16,16,0,0,0,1.36-1.07,12.31,12.31,0,0,0,1.1-1,2.8,2.8,0,0,0,.74-1.69,3.27,3.27,0,0,0-.43-1.93A3.16,3.16,0,0,0,428,231a2.74,2.74,0,0,0-.5-.16,2.24,2.24,0,0,0-.39-.08l-.47-.09-1.9-.34-7.59-1.4c-10.13-1.86-20.24-3.79-30.33-5.88a1.37,1.37,0,0,1,.42-2.71c10.25,1.09,20.47,2.34,30.68,3.65l7.66,1,1.91.25.48.06c.15,0,.31,0,.56.09a8.32,8.32,0,0,1,1.35.34,8.87,8.87,0,0,1,4.46,3.4,9.14,9.14,0,0,1,1.54,5.4,8.54,8.54,0,0,1-2.1,5.33,16.15,16.15,0,0,1-1.71,1.65,21.26,21.26,0,0,1-1.64,1.35,19.07,19.07,0,0,1-1.74,1.22,20.36,20.36,0,0,1-1.82,1.1,31.41,31.41,0,0,1-16.3,4,27.8,27.8,0,0,1-15.85-5.46,27.23,27.23,0,0,1-5.84-6,31.59,31.59,0,0,1-3.78-7.34,36,36,0,0,1-1.84-7.89,47.13,47.13,0,0,1-.32-8,1.37,1.37,0,0,1,2.73-.06Z"/><path class="cls-13" d="M299,264a152.27,152.27,0,0,0,18.72-15.24,110.91,110.91,0,0,0,15.52-18.25,74,74,0,0,0,5.83-10.32,53.57,53.57,0,0,0,3.68-11.1,39.09,39.09,0,0,0,.72-11.47,88.38,88.38,0,0,0-2-11.69c-.9-3.93-1.89-7.89-2.69-12a65.79,65.79,0,0,1-1.43-12.59,39.09,39.09,0,0,1,2-12.85A48.49,48.49,0,0,1,345.07,137c4.76-7.1,10.78-13,17-18.48a122.62,122.62,0,0,1,20.23-14.62c1.83-1,3.67-2,5.57-2.93l5.46-2.65c3.61-1.78,7.21-3.65,10.85-5.5a148.13,148.13,0,0,1,22.82-9.85,65.59,65.59,0,0,1,25.16-3.05,44.16,44.16,0,0,1,12.59,2.94,34.68,34.68,0,0,1,15.42,11.86,35.12,35.12,0,0,1,3.31,5.67,30.14,30.14,0,0,1,2.84,12.79,30.94,30.94,0,0,1-.81,6.54,38.08,38.08,0,0,1-2.11,6.14,44.24,44.24,0,0,1-3.11,5.63,48.84,48.84,0,0,1-3.9,5.06,49.45,49.45,0,0,1-4.57,4.44c-.83.67-1.65,1.35-2.52,2a22.57,22.57,0,0,1-2.78,1.77,28.18,28.18,0,0,1-12.53,3.15,27,27,0,0,1-12.61-2.57,17.29,17.29,0,0,1-5.31-4,14.17,14.17,0,0,1-3.17-5.92,1.37,1.37,0,0,1,2.65-.73v0a12.5,12.5,0,0,0,7.17,7.81,23.84,23.84,0,0,0,11.14,1.92,25.39,25.39,0,0,0,10.87-3,30.54,30.54,0,0,0,4.59-3.38,45.63,45.63,0,0,0,4.09-4.14,44.88,44.88,0,0,0,3.45-4.67,40.19,40.19,0,0,0,2.69-5.1,33.84,33.84,0,0,0,1.74-5.42,26.54,26.54,0,0,0,.58-5.56,27.5,27.5,0,0,0-9.38-19.71,30.59,30.59,0,0,0-9.62-5.76,40.1,40.1,0,0,0-11.14-2.39,60.06,60.06,0,0,0-22.94,3.15c-7.47,2.46-14.63,6.05-21.83,9.73-3.6,1.85-7.21,3.75-10.89,5.6l-5.53,2.66c-1.78.84-3.51,1.77-5.24,2.72a124.2,124.2,0,0,0-19.37,13.77c-6,5.22-11.79,10.77-16.19,17.16a43,43,0,0,0-5.23,10.17,33.71,33.71,0,0,0-1.85,11.13c-.08,7.69,2,15.49,3.67,23.51a92.83,92.83,0,0,1,1.9,12.37,43.67,43.67,0,0,1-1,12.77,65.31,65.31,0,0,1-10.56,22.73A113,113,0,0,1,320,251.23a155.28,155.28,0,0,1-19.49,15A1.37,1.37,0,0,1,299,264Z"/><path class="cls-13" d="M350.08,172.39a26.88,26.88,0,0,1-2.61-4.89,16.15,16.15,0,0,1-1.2-5.73,12.54,12.54,0,0,1,1.55-5.94,11.76,11.76,0,0,1,1.88-2.54,9.91,9.91,0,0,1,1.24-1.08,7.53,7.53,0,0,1,.72-.48,5.33,5.33,0,0,1,1-.51l-.33.13a7.72,7.72,0,0,1,1.9-.67l-.57.19a3.22,3.22,0,0,1,.56-.2l.23-.05.29-.05.57-.07a8.52,8.52,0,0,1,1.13,0,8.3,8.3,0,0,1,2.23.4l.47.15.53.21a9.06,9.06,0,0,1,1,.52l.43.27.44.31a9.78,9.78,0,0,1,.84.65,20.21,20.21,0,0,1,4.51,6.11c1.1,2.18,1.91,4.18,2.86,6.23l2.75,6.13,2.73,6.14c.91,2,1.86,4.16,2.64,6.41a33.69,33.69,0,0,1,1.74,7.14,22.14,22.14,0,0,1-.45,7.73,16.69,16.69,0,0,1-3.78,7.14,14,14,0,0,1-7.19,4.07,16.07,16.07,0,0,1-7.95-.25,13.88,13.88,0,0,1-6.79-4.3,13.42,13.42,0,0,1-3.06-7.33,12.66,12.66,0,0,1,1.62-7.71,11.38,11.38,0,0,1,6.11-4.87,10.41,10.41,0,0,1,7.68.24,1.37,1.37,0,0,1-1,2.55h0a7.58,7.58,0,0,0-5.45.33,8.09,8.09,0,0,0-3.94,3.63A9.26,9.26,0,0,0,357,202.43c2.35,2.54,6.52,3.36,9.92,2.41a8.45,8.45,0,0,0,4.23-2.62,10.91,10.91,0,0,0,2.2-4.74,16.29,16.29,0,0,0,.22-5.62,29.46,29.46,0,0,0-1.37-5.91c-1.35-3.95-3.19-8.16-4.84-12.3l-2.51-6.23c-.85-2.05-1.64-4.24-2.49-6.1a16.23,16.23,0,0,0-3.13-4.85,4.78,4.78,0,0,0-.47-.41l-.24-.19-.27-.19a4.43,4.43,0,0,0-.47-.28l-.24-.11-.32-.12a3.73,3.73,0,0,0-1.06-.26,4.2,4.2,0,0,0-.55,0l-.26,0h-.1a1.34,1.34,0,0,0,.36-.14l-.57.19a3.34,3.34,0,0,0-.86.25l-.33.13c.21-.06,0,0-.13.09a3.46,3.46,0,0,0-.39.23,5.71,5.71,0,0,0-.78.6,7.72,7.72,0,0,0-1.33,1.6,8.87,8.87,0,0,0-1.39,4,12.84,12.84,0,0,0,.63,4.56,26.38,26.38,0,0,0,2,4.55h0a1.37,1.37,0,0,1-2.35,1.39Z"/><path class="cls-13" d="M442.89,251.72a49.59,49.59,0,0,1-14.83,11.9,40.06,40.06,0,0,1-18.95,4.73,33.11,33.11,0,0,1-18.55-6.57,33.79,33.79,0,0,1-11.85-15.16,1.38,1.38,0,0,1,2.47-1.18h0a33.93,33.93,0,0,0,28.12,16.81A38.09,38.09,0,0,0,426,259.17a56.42,56.42,0,0,0,15-9.37h0a1.37,1.37,0,0,1,1.94,1.93Z"/><path class="cls-13" d="M334,178.31l5.78-2.95c1.91-1,3.92-1.85,5.87-2.78s3.93-1.84,5.91-2.71,4-1.7,6-2.51A241.29,241.29,0,0,1,382.21,159c4.17-1.2,8.4-2.12,12.63-3.13,1.06-.24,2.1-.5,3.18-.73a8.37,8.37,0,0,1,4.18,0,6.79,6.79,0,0,1,3.57,2.76,12,12,0,0,1,1.58,3.56c.3,1.14.52,2.08.82,3.1s.59,2,.93,3a32.32,32.32,0,0,0,2.48,5.52,24.12,24.12,0,0,0,3.58,4.74,38.87,38.87,0,0,0,4.51,4.12,40.38,40.38,0,0,0,10.61,6,58.42,58.42,0,0,0,12,3c8.24,1.18,16.71.93,25.19.22,4.25-.37,8.53-.76,12.67-1.37a56.29,56.29,0,0,0,11.94-2.93,26.79,26.79,0,0,0,9.77-6.3,27.4,27.4,0,0,0,5.9-10l.66-1a2.76,2.76,0,0,0-.47.63,2.79,2.79,0,0,0,0,2.66,2.74,2.74,0,0,0,.47.63l-.66-2.92A44.57,44.57,0,0,0,510,157.81a36.63,36.63,0,0,0-.26-6.39,29,29,0,0,0-1.39-6.11,22.67,22.67,0,0,0-2.69-5.4,16.24,16.24,0,0,0-4.12-4,12.89,12.89,0,0,0-1.22-.75L499,134.5a25.52,25.52,0,0,0-2.79-.92,29.29,29.29,0,0,0-6.18-.75h-.7l-.74,0-1.48,0-1.48,0-.74,0h-.46l.22,0-.45.06-4.68.34-4.74.37-9.47.8c-6.31.55-12.61,1.18-18.89,1.92S433.92,138,427.69,139a119.14,119.14,0,0,0-18.18,3.94l-.89.15a2.79,2.79,0,0,0,2-.81l-1.1.68a41.49,41.49,0,0,0-10.38,4.86,22.41,22.41,0,0,0-7.4,7.94l-.48.65a2.41,2.41,0,0,0,.38-.47l.07-.13v0h0l0,.06-.05.11-.1.22-.2.45-.41.89a13.14,13.14,0,0,0-.7,1.87l-.32,1-.25,1c-.19.65-.29,1.31-.43,2a31.13,31.13,0,0,0-.37,8.12,38.21,38.21,0,0,0,4.91,15.67l-.39-.5,0,.05.29.36.1.15a38,38,0,0,0,4.38,6.17c.42.47.84.94,1.28,1.39l1.38,1.32c.89.91,1.92,1.68,2.89,2.52a53,53,0,0,0,13.4,7.58,69.78,69.78,0,0,0,15.1,4,79.1,79.1,0,0,0,15.65.86c5.14-.32,10.32-1.33,14.51-3.93a16.3,16.3,0,0,0,7.7-11.78c.7-4.88-.66-10-2.86-14.68a82.27,82.27,0,0,0-8.64-13.25,1.37,1.37,0,0,1,2.18-1.67A84.85,84.85,0,0,1,470,179.2c2.47,5,4.18,10.61,3.49,16.48a19.63,19.63,0,0,1-9.11,14.48,27.74,27.74,0,0,1-7.91,3.39,45.23,45.23,0,0,1-8.31,1.34,83,83,0,0,1-16.51-.66,74.09,74.09,0,0,1-16.09-4,57.57,57.57,0,0,1-14.68-8c-1.08-.91-2.22-1.74-3.23-2.73L396.05,198c-.51-.5-1-1-1.47-1.55a42.8,42.8,0,0,1-5-6.89l.39.5,0,0a1.7,1.7,0,0,1-.33-.4l-.06-.1a43.23,43.23,0,0,1-5.81-17.68,36.34,36.34,0,0,1,.29-9.47c.15-.78.27-1.57.47-2.34l.29-1.16.36-1.14a17.42,17.42,0,0,1,.82-2.27l.49-1.12.25-.56.13-.28.06-.14,0-.07v0l.1-.18a3,3,0,0,1,.41-.53l-.48.65a27.88,27.88,0,0,1,9-10,47,47,0,0,1,11.72-5.68l-1.1.68a3,3,0,0,1,2-.83l-.89.15a124.35,124.35,0,0,1,19-4.36c6.32-1.07,12.66-2,19-2.77s12.71-1.44,19.07-2c3.18-.3,6.36-.55,9.54-.8l4.77-.36,4.84-.33-.45.06.41-.05.28,0h.58l.77,0,1.55,0,1.55,0,.77,0h.39l.65,0h-.22a35.27,35.27,0,0,1,7.45.95,31,31,0,0,1,3.74,1.25l1.79.89a17.46,17.46,0,0,1,1.7,1.06,22.22,22.22,0,0,1,5.62,5.59,28.52,28.52,0,0,1,3.39,6.9,34.8,34.8,0,0,1,1.6,7.3,42.39,42.39,0,0,1,.24,7.35A50.19,50.19,0,0,1,513,172.36l-.66-2.92a2.83,2.83,0,0,1,0,4l.66-1a32.94,32.94,0,0,1-7.23,12A32.22,32.22,0,0,1,494,191.87,61.51,61.51,0,0,1,480.88,195c-4.39.6-8.69.95-13,1.29-8.66.65-17.52.84-26.33-.55a63.19,63.19,0,0,1-12.94-3.49,45,45,0,0,1-11.71-6.81,43.35,43.35,0,0,1-5-4.65,28.61,28.61,0,0,1-4.1-5.6,47.94,47.94,0,0,1-4.47-12.64,8,8,0,0,0-1-2.33A2.75,2.75,0,0,0,401,159a4.59,4.59,0,0,0-2.21.06l-3.12.67c-4.16.92-8.37,1.74-12.49,2.84a237.78,237.78,0,0,0-24.42,7.77q-3,1.14-6,2.36c-2,.82-3.91,1.71-5.87,2.56s-3.93,1.67-5.85,2.64l-5.78,2.81,0,0a1.37,1.37,0,0,1-1.22-2.45Z"/></svg>