<svg id="Layer_1" data-name="Layer 1" xmlns="http://www.w3.org/2000/svg" viewBox="0 0 960 560"><defs><style>.cls-1{fill:#ffadfe;}.cls-2{fill:#ffab91;}.cls-3{fill:#ff9a7a;}.cls-4{fill:#233940;}.cls-5{fill:#baff95;}.cls-6{fill:#fcff84;}.cls-7{fill:#93e06a;}.cls-8{fill:#ffda6b;}.cls-9{fill:#43f1ff;}.cls-10{fill:#ffa00a;}.cls-11{fill:#f28500;}.cls-12{fill:#878cff;}.cls-13{fill:#b5ceff;}.cls-14{fill:#fff;}.cls-15{fill:#cbf8ff;}.cls-16{fill:#a0ffb5;}.cls-17{fill:#ffdee8;}.cls-18{fill:#e0e0e0;}.cls-19{fill:#a0a4ff;}.cls-20{fill:#ff085e;}.cls-21{fill:#00c2ba;}.cls-22{fill:#00e0d7;}.cls-23{fill:#00918b;}.cls-24{fill:#00bfb7;}.cls-25{fill:#9cbdff;}</style></defs><title>woman, people, person, drink, dance</title><path class="cls-1" d="M192,60.66,213,70c2.78,1.24,6.8,2.37,9,4.59,1.87,1.87,2.4,4.64,3.16,7.07l13.8,44c1.63,5.2,9.84,3,8.2-2.26L236,87.55c-1.34-4.27-2.48-8.68-4.08-12.86-2.87-7.53-9.47-9.78-16.18-12.76l-19.37-8.61c-5-2.2-9.29,5.12-4.29,7.34Z"/><path class="cls-2" d="M762.21,145.36a21.58,21.58,0,0,0-10.27,12c-1.75,4.7-2,9.8-4,14.44-1.76,4.17-4.89,7-8.17,9.66,0,0,0,0,0,0-3,3.92-3.92,8.94-7,12.73a17.25,17.25,0,0,1-9.42,6.17c-.58,1.15-1.12,2.33-1.61,3.54a44.73,44.73,0,0,0-3.3,15.7c-6.49,11.71-11.8,24.14-13.81,37.4,5.9,2,5.11,12.33-2.3,12.55-8.66.26-18.37-.16-25.3-6.06-7.63-6.5-2.89-16.28-1.08-25.54,2.17-11.2,5.9-21.78,7-33.23.07-.78.13-1.54.17-2.3a42.06,42.06,0,0,0,.85-12.45c-.6-7-1.9-13.8-2-20.88,2.45-14.1,6.79-23.81-1.9-41.6a5.47,5.47,0,0,1,.6-5.37,4.52,4.52,0,0,1,.51-.57,4.71,4.71,0,0,1,.47-.4l.33-.21.18-.11.27-.15a6.74,6.74,0,0,1,2.83-.57h.13a5.65,5.65,0,0,1,2.89,1.07,8.43,8.43,0,0,1,.88.59l.35.25c.1.07.21.17.31.25a13.66,13.66,0,0,1,2.8,2.85c4.68,6.62,4.83,6.57,7.72,16.12,0,0,1.65-4,3-6.8,5.86-11.86,14.29-21.12,23.66-30.89,7-7.3,13.72-.59,10.94,4.5-1.37,2.51-2.63,2.63-6,8-3.13,5-2.33,9,2.07,12.46a32,32,0,0,1,9.77,12.2,28.14,28.14,0,0,1,1.39,3.79s0-.07.08-.13c.39-.6.73-1.13,1-1.6l.37-.53c.18-.26.36-.49.53-.71h0c1.73-2.22,3.11-2.75,7.94-5.3C763.3,131.93,770.35,141.05,762.21,145.36Z"/><path class="cls-3" d="M747.88,144.72a1.36,1.36,0,0,0-.16-.48c-.16-.91-.32-1.79-.48-2.7-.58.72-1.17,1.64-1.95,2.84-.53.88,0,2.89.08,3.81q.34,2.93.45,5.87A54.63,54.63,0,0,1,743,172c-2,6.41-5.06,5.77-9.25,4.88a34.49,34.49,0,0,1-4.61-2.15,26.46,26.46,0,0,1-4.27-3.18,26,26,0,0,1-5.92-8.22,27.84,27.84,0,0,1-2.34-12.44c.25-7.19,2-14.61,6.58-20.39.68-.85,1.39-2.05.93-2.91a.83.83,0,0,0-.2-.3,2,2,0,0,0-2.61-.21,5.17,5.17,0,0,1-5.5-3.38c-.67-2-3.81-1.12-3.13.87a8.39,8.39,0,0,0,1.57,2.77,7.23,7.23,0,0,1,.84,8.08,0,0,0,0,1,0,0,37.83,37.83,0,0,0-4.22,14.45,1.9,1.9,0,0,1-3.36,1l0,0a23.5,23.5,0,0,0-3.85-3.81,21.58,21.58,0,0,0-10.88-4.3c-2.06-.22-2,3,0,3.25,11.75,1.29,18.48,14,19.46,24.79.39,4.3,0,9.24-4.3,13-4.62,4.13-13.63,6.27-18.1,6.11a98,98,0,0,1,16.36,5.57,75.24,75.24,0,0,1,15.6,8.36c.49-1.21.35-3.27,1.61-3.54a17.32,17.32,0,0,0,9.42-6.17c3.09-3.79,4-8.81,7-12.73,2.68-3.5,6-6.72,7.29-11C749.59,162.21,749.35,153.1,747.88,144.72Zm-24.18,51.54a7.85,7.85,0,0,1-8.68-3.78c-2.28-4.25.42-10.46,3.75-13.43,4.6-4.11,11.3-.56,12.88,4.86S729,195.14,723.69,196.26Z"/><path class="cls-4" d="M740.62,179.58a13.41,13.41,0,0,1-3.48-.12,24.23,24.23,0,0,1-3.33-.7l-.82-.21-.8-.28-1.6-.58c-1.06-.4-2.06-1-3.08-1.49a28,28,0,0,1-9.82-9.61,30.68,30.68,0,0,1-4.14-13.21,33.93,33.93,0,0,1,1.8-13.6l-.14.91a3.62,3.62,0,0,1,.17-1l0-.09.07-.18.14-.35.29-.71.57-1.42.57-1.42.29-.71.15-.35.07-.18a4.43,4.43,0,0,1,.44-.78l-.34.59a66.37,66.37,0,0,1,3.83-7,76,76,0,0,1,4.52-6.52c3.27-4.16,6.86-7.85,10.33-11.59a1.37,1.37,0,0,1,2.14,1.72c-2.95,4.25-6.14,8.27-8.82,12.47a71.23,71.23,0,0,0-3.74,6.44,68.33,68.33,0,0,0-3,6.73l-.34.59a1.77,1.77,0,0,0,.28-.45l-.05.17-.11.34-.22.67L722,139l-.45,1.33-.22.67-.11.33-.06.17,0,.08a2.51,2.51,0,0,0,.13-.84l-.14.91-.73,2.87-.18.72-.12.71-.27,1.41c-.16.94-.21,1.9-.32,2.86s-.1,1.91,0,2.87a26.64,26.64,0,0,0,2.78,11,24.16,24.16,0,0,0,7.51,8.62c.84.5,1.65,1,2.52,1.51l1.33.65.67.33.7.26a21.16,21.16,0,0,0,2.8.93,11.47,11.47,0,0,0,2.83.48h0a1.37,1.37,0,0,1,0,2.73Z"/><path class="cls-5" d="M283.7,101.56a10.71,10.71,0,0,1-1.59-.16q.09-1.16.12-2.32V99q0-1.16,0-2.32a1.24,1.24,0,0,0,0-.19c0-1.06-.09-2.11-.2-3.16,0-.17,0-.33-.06-.5-.11-1-.26-2-.46-3-.09-.46-.18-.92-.29-1.37a2,2,0,0,0-.52-1,1.56,1.56,0,0,0-1.14-.93,2.21,2.21,0,0,0-2.69,2.13c0,2,0,4,0,6l-.76,3.44-.42,1.9a21.38,21.38,0,0,1-8.15-5.87,23.37,23.37,0,0,1-4.88-9.32,23.62,23.62,0,0,1-.78-5.07C261.33,68,272.28,58,283.7,58c12.24,0,21.3,10,21.83,21.79S295.12,101.56,283.7,101.56Z"/><path class="cls-6" d="M282.89,99.56c-.23,0-.45,0-.67,0,0-.94,0-1.88,0-2.83a1.24,1.24,0,0,0,0-.19c0-1-.09-2.11-.2-3.16,0-.17,0-.33-.06-.5-.11-1-.26-2-.46-3-.09-.46-.18-.92-.29-1.37a2,2,0,0,0-.52-1,1.56,1.56,0,0,0-1.14-.93,2.21,2.21,0,0,0-2.69,2.13c0,2,0,4,0,6l-.76,3.44a18.24,18.24,0,0,1-6.47-4.71,21.43,21.43,0,0,1-4.72-9.1,23.54,23.54,0,0,1-.65-4.55c-.37-8.72,5.81-16.38,13.41-18.88a16.66,16.66,0,0,1,5.23-.86c10.45,0,18.19,9,18.64,19.74S292.64,99.56,282.89,99.56Z"/><path class="cls-7" d="M276.09,98.18l-.42,1.9a21.38,21.38,0,0,1-8.15-5.87,23.37,23.37,0,0,1-4.88-9.32,10.8,10.8,0,0,0,2.26-.52,21.43,21.43,0,0,0,4.72,9.1A18.24,18.24,0,0,0,276.09,98.18Z"/><path class="cls-8" d="M281.55,77.55a16,16,0,0,1-1.12,5.94,17.71,17.71,0,0,0-.88,3.1,2.21,2.21,0,0,0-2.69,2.13c0,2,0,4,0,6l-.76,3.44a18.24,18.24,0,0,1-6.47-4.71,21.43,21.43,0,0,1-4.72-9.1C270,82.65,273.15,77.58,275,72.6a3.11,3.11,0,0,1,5.91.3A17.9,17.9,0,0,1,281.55,77.55Z"/><path class="cls-9" d="M651.06,458.17c-48.28,32.08-130.67,37.29-189.18,24.22a277.29,277.29,0,0,1-31-8.79c-77.66-27-125.23-85.11-147.47-169.71-30-114,72.42-220.5,171-220.5s150.74,74.92,226.5,261C702.82,398.28,685.73,435.15,651.06,458.17Z"/><circle class="cls-8" cx="282.89" cy="80.31" r="2.78"/><path class="cls-8" d="M282.89,80.14l9.84,11.08a3.76,3.76,0,0,1-.87,5.72l-.11.07a3.76,3.76,0,0,1-5.61-2.4Z"/><path class="cls-8" d="M282.89,80.31,294.79,89a3.44,3.44,0,0,0,5.2-1.43l0-.11a3.45,3.45,0,0,0-2.6-4.74Z"/><path class="cls-8" d="M282.89,80.31l12.64-8.38a3.88,3.88,0,0,0,.94-5.61l-.08-.1a3.88,3.88,0,0,0-6.46.66Z"/><path class="cls-8" d="M282.89,80.14l13.76-6.24a3.21,3.21,0,0,1,4.46,2.21l0,.1A3.22,3.22,0,0,1,298,80.14Z"/><path class="cls-8" d="M282.89,80.14l-2.2-15.71a3.65,3.65,0,0,1,4-4.14h.12a3.66,3.66,0,0,1,3.12,4.79Z"/><path class="cls-10" d="M515.47,93.21c-5.65,2-11.3,4-15.9,7.79-4.1,3.36-7.06,7.86-10.31,12-11,14.07-26.79,27.27-26.38,45.1.27,11.6,7.59,21.64,13.87,31.41a218.24,218.24,0,0,1,33.53,135.6c-2.46,28.41-11.15,57.3-30.49,78.26s-55.39,36.58-82.07,26.5c-7.79-2.94-16.58-8.35-24.83-9.46-21.93-3-33.15,15.28-54.7,20.33a41.47,41.47,0,0,1-47.84-56.1c3.08-7.52,8.69-13.58,11.41-21.33,2.24-6.39,2.55-13.78-.76-19.7-4.37-7.83-13.68-11.22-20.59-16.94-13.86-11.49-17-31.71-14.89-49.6,1.6-13.49,5.76-26.94,13.91-37.81,13.79-18.39,33.31-20.13,54.55-21.85,21.44-1.74,39.69-11.24,55-26.16a239.34,239.34,0,0,0,43.28-57.37C427,106.49,438.39,74,465.72,59.06c11.73-6.43,25.31-8.83,38.69-9.14,8.13-.19,16.6.44,23.67,4.45s12.33,12.18,10.69,20.15-9.36,13.28-17,16.35C519.73,91.7,517.6,92.46,515.47,93.21Z"/><path class="cls-11" d="M469,308.6a4.67,4.67,0,0,0-6-2.85q-3.63-14-7.26-28c-2.75-10.63-5.31-21.17-4.33-32.24.94-10.69,4.5-21,7.19-31.36a199.65,199.65,0,0,0,5.56-32,186.8,186.8,0,0,0,.21-31.81c-.53-6.78-.29-17.54-6.47-22.13.41.32-.14,1.68-1.22,3.57a5,5,0,0,0-1.22-1.9c-3.6-3.6-6.19-8.85-3.69-13.85,2.31-4.61,11-5.57,9,1.27-1.82,6.19,7.83,8.83,9.64,2.66,3.84-13.08-10.73-22.54-21.7-15.2-11.55,7.72-7.05,23.48,1.65,32.19l0,0a3,3,0,0,1,.25,3.81c-2.74,3.82-5.35,7.22-6,8.05-5.33,6.74-11.79,11.9-18.85,16.47a6.79,6.79,0,0,0-1,.11,89.91,89.91,0,0,0-59.53,41.61c-3.6,5.93,4.61,11.88,9.46,7.11-6.1,12.81-10.68,26.35-17.07,39-9.33,18.53-20.7,37.15-26.85,57.06l0,.14a29.52,29.52,0,0,1-24.42,20.88,42.32,42.32,0,0,1-24-3.82c-17.26-8.32-26.59-26.32-24.83-45.19.71-7.63-11.2-7.58-11.91,0-2.13,22.71,10.08,45.44,30.72,55.47a55.55,55.55,0,0,0,26.9,5.59c21.83-.92,41.14,20.85,50.64,38.31,2,3.75,3.85,7.78,4,12,.23,5.94-2.8,11.64-7,15.9-9.27,9.52-23.39,15.34-36.06,18.49-7.14,1.78-16.7,1.81-21.58-4.76-3.08-4.14-11.76-3.56-11.09,3,1.39,13.81,18.32,16.73,28.76,13.85,26.82-7.39,51.42-16.76,59.4-33.63l.07-.16c5.52-15.43,27.37-17,40.78-13.32a25.08,25.08,0,0,1,8.47,3.88A12.6,12.6,0,0,1,418,418.3c.47.28,4.73,2.49,5,2.2-3.21,4.32,2.08,10,6.72,8.75,21.73-6.09,38-23.73,45.53-44.64C484.14,359.71,479.2,332.26,469,308.6Z"/><path class="cls-12" d="M594.31,323.42c-15,21.84-40,36-65.87,40.66-33.74,6.15-67.9-1.18-100.34-10.46a5.52,5.52,0,0,1-4.19-5.55,6.31,6.31,0,0,1-1.6-2.33c-5.84-14.62-1-31.08,8.5-43,10.1-12.56,25.6-19.4,40.74-23.73,32.71-9.36,67.82-12.56,101.73-10.88,13.56.67,29.53,2.31,32.19,18.59C607.56,299.49,601.38,313.16,594.31,323.42Z"/><path class="cls-2" d="M595.29,352.1c-50,35.36-95.35,43.72-119.48,45.43a114.78,114.78,0,0,1-18.25.11c10.25-34.58,5-54.36,2.18-61.46a21.22,21.22,0,0,0-1.43-3s-79.1-148.67-39.16-153.57,43.4-45.1,34-56.62,3.62-18,8.1-17.21c8.8,1.48,11.92,19.56,18,5.21,3.13-7.41,10.19-11.35,17.66-13.67,6.81-2.12,13.95-2.89,18.74-3.72,5.49-1,7.49-2.44,8.18-3.59a2,2,0,0,0,.3-1.49c.07.21.22.62.42,1.18.68,1.85,2.05,5.39,3.94,9.29,2.15,4.42,5,9.32,8.21,12.75,7.44,7.89,1.73,16.23,1.73,16.23s-.13,15.92-1.73,24.43-11.21,20.81-11.21,20.81c.91,10,13.06,10.63,13.06,10.63l14.42,36.43s5.62,44.91,6,71.58c.21,13.07,8.94,27.81,17.78,39.44,2.58,3.38,5.16,6.5,7.54,9.23C590.44,347.55,595.29,352.1,595.29,352.1Z"/><path class="cls-13" d="M602.07,362.56a166.65,166.65,0,0,1-43.6,30.83c-16.15,7.84-33,12.26-50.56,15.66-30.51,5.91-53.68,12.29-65.35,43.43-6.69,17.83-4.29,41.07-2.35,58.66-13.66,0-12.33-20-22.33-22.24a28.27,28.27,0,0,0-11.32.14,72.7,72.7,0,0,0-7.07,1.73c-2,.57-4,1.21-6,1.83-2.37.74-4.73,1.46-7,2.07-8.24,2.16-15.88,2.8-21.57-2.89-2.66-2.66,10.34-24,12.1-26.84a192.65,192.65,0,0,1,36.87-43.28c20.45-17.7,44.29-23.42,70.51-26.54a259.74,259.74,0,0,0,45.58-9.4c22.68-7,44.21-20.33,64.14-32.75C600.47,349,607.62,357.13,602.07,362.56Z"/><path class="cls-3" d="M547.63,197.95c-5.58-6.16-9-5-8.55-.16,1.33,16.14-9.81,34.25-28.88,36-20.21,1.82-51.1-7-61.68-25.8-6.43-11.43-10.47-23.47-23.6-28.73-7.11-2.85-10.2,8.66-3.17,11.48a14.7,14.7,0,0,1,4.43,2.84,5.06,5.06,0,0,0-1.68,5.93A72.14,72.14,0,0,0,450,234.74c13.41,10,29.37,13.84,45.91,14s35.35-.69,48.34-12.33C555.33,226.52,558,209.36,547.63,197.95Z"/><path class="cls-2" d="M320.87,262.44a14.42,14.42,0,0,0,2.09-.28C325.09,268.74,320.87,262.44,320.87,262.44Z"/><path class="cls-2" d="M371,216.72c-.4.72-.79,1.43-1.2,2.13-20.06,35.41-40.42,42.07-46.86,43.31-1.4-4.29-5.5-14.06-15.22-34.62-7.87-16.63-18.06-27.51-28.28-34.62-21.81-15.15-43.8-13.12-43.8-13.12s-17.78,1.34-17.49-5.63,11.21-7,11.21-7c1.74-5.22-1-11.05-4.24-15.61-5-7-2.22-17.19,5.81-20.33a10.13,10.13,0,0,1,7.82,0C249.65,135.7,253,147,253,147l8.77-.08c-7.18-1.36-1.87-13,3.11-17.6a3.8,3.8,0,0,1,2.43-.79,7.87,7.87,0,0,1,5.67,2.17c2.52,2.35,7.38,6.47,11.36,7.27,4.67.94,14.11,2.23,21.19,4.44C346.28,155.12,371,216.72,371,216.72Z"/><path class="cls-3" d="M584.68,339.7l-.41.78c-7.38,13.64-21.77,19.83-36.3,23.08a9.53,9.53,0,0,1-10.26-4.25l0-.06c-3.87-6.61-10.23-2.51-6.35,4.12v0a1.87,1.87,0,0,1-1.41,2.75c-2.44.33-5.23.69-7.2,1-10.86,1.67-22.29,4.27-30.37,12.25-5.77,5.7-10.07,13.15-16.54,18.14a114.78,114.78,0,0,1-18.25.11c10.25-34.58,5-54.36,2.18-61.46a75.39,75.39,0,0,1,28.69-9.35c13.63-1.64,27.35-.39,41,.67l43,3.33a6.06,6.06,0,0,1,3.25,1.19,4.62,4.62,0,0,1,1.09-.77C581,329,587.57,334.08,584.68,339.7Z"/><path class="cls-3" d="M366.53,220.43a69.41,69.41,0,0,1-26.7,15.36c-3.78,1.14-9.14,2.7-12.65.08s-4.09-8.42-5.48-12.35a46.13,46.13,0,0,0-22.91-25.78,11.46,11.46,0,0,1-6.17-8.75c-.32-2.53,1.22-4.69,2-7.08.43-1.38,1.55-5.69.17-6.95a1.84,1.84,0,0,0-2.49.53c-.91,1.34-1.14,2.94-2.19,4.22-1.72,2.09-4.12,2.73-6.66,3.22a27.9,27.9,0,0,1-11.38-.46c-4.49-1-15.15-3.88-13.08-10.54a1.48,1.48,0,0,0,.06-.67c.93-3.08,2.06-6.12,3-9.11a7.85,7.85,0,0,1,5.37-5.26c6-1.57,10.61,3,14.21,7.16,9.71,11.1,28.54,9.16,35.62-4.46a1.5,1.5,0,0,0-2.59-1.51c-3.4,5.89-10,8.54-16.52,8.86-6.22.3-10.93-4.82-15.71-9.8a6.15,6.15,0,0,1-.83-7.38,12.26,12.26,0,0,0,1.64-6.77c-.09-1.92-3.09-1.93-3,0v.11a6.08,6.08,0,0,1-8.26,5.8l-.51-.18c-3.9-1.31-15.85-1.33-16.68-6.35a4.41,4.41,0,0,0-2.53,2.16c2.55,3.76,4.29,7.86,3.27,12.54a10.87,10.87,0,0,1-7.31,8.39,58.57,58.57,0,0,0-2.07,8.27c-1,5.69,5.39,8.91,9.09,6.83L265.74,184a1.21,1.21,0,0,0,.34,1,19.76,19.76,0,0,0,4.63,3.08c2.25,1.26,4.66,2,6.86,3.38a67.92,67.92,0,0,1,9.61,7.63,80.92,80.92,0,0,1,8.13,8.57,96.1,96.1,0,0,1,12.43,19.88c9.72,20.56,11.73,30.61,13.13,34.9,6.44-1.24,28.89-8.18,48.95-43.59A5.87,5.87,0,0,0,366.53,220.43Z"/><path class="cls-14" d="M450.8,336.63c0,2.07,16.55,6.54,18.08,7a186.32,186.32,0,0,0,50.85,7.68c18.09.32,37.28-1.16,54.8-5.9,11.22-3,15.77-12.41,9.84-22.62-9.49-16.34-11.15-21.34-9.19-31.71s10.21-41.7-16.23-63.55l-6-7.31s1.78,28.05-41.67,27.14c-42.53-.89-62.24-26.49-62.67-24Z"/><path class="cls-15" d="M279.48,111.91a5.09,5.09,0,0,0-3.72.06c-10.47,3.86-22.13,6.13-33.29,4.48a26,26,0,0,1-3-.61A29.63,29.63,0,0,1,236,114.7c-5.36,1.58-10.75,3.11-16,5-.24.09-.46.19-.7.29a82.09,82.09,0,0,0,4.84,7c.47.63,1,1.25,1.44,1.87.61.78,4.37,3.67,5,4.48a9.17,9.17,0,0,1,8.12-2.21c10,1.78,13,8.43,15.33,17.86.17.7.32,1.37.44,2,2.07,11-3,15.2-10.71,16.6.86-.16,1.45,11.77,1.43,12.87-.1,5.15-1.12,10.65-4.38,14.79-3.59,4.57-8.52,6.18-14.07,6.82a5.17,5.17,0,0,0-4.15,7.44,5.43,5.43,0,0,0,3.54,2.65c8.46,2.25,12.31,5.16,21.06,4.94,4.57-.12,14.06-2.45,18.56-3.24,3.08-.54,8.07-.68,9.48-4.07,2.14-5.15-4-7.5-7.93-7.8-1.27-.1-2.56-.14-3.83-.21-5.2-.29-10-1-10.64-7.68-1.69-16.55,3.16-32.53,11.11-47.08-.65,0-1.32,0-2,0-7.89.3-8.83-10-1.46-11.91,1-.26,2-.48,3-.66a7.52,7.52,0,0,1-.19-2.59c.89-5.59,7.52-2.52,10.47-.24A81.35,81.35,0,0,0,278,118.66C278.51,116.42,279,114.17,279.48,111.91Z"/><path class="cls-3" d="M517.69,178.65c-2.51,4.9,2.5,10.55-2.67,14.78-3.37,2.76-8.11,2.5-11.81.62-6.37-3.25-11.26-9.65-17-13.88a106.73,106.73,0,0,0-19.5-11.29c-1.57-.71-.44-3.24,1.15-2.74,15.19,4.79,26.47,15.59,46.89,12.62.09-.23.56-.07.67-.29C516.31,176.76,518.56,176.94,517.69,178.65Z"/><path class="cls-6" d="M278.73,112.33c-.84.47-2.2,1.24-3,1.75-9.39,5.77-14.44,3.91-20.94,3.54a21.7,21.7,0,0,1-6.49-1.5c8.39-1.73,15.44-8.29,24.11-8.75a8.37,8.37,0,0,1,3.27.38C277.73,108.49,278.56,110.22,278.73,112.33Z"/><path class="cls-16" d="M278.24,115.46c-.95,5.52-3.76,16.83-4.43,16.55a1.56,1.56,0,0,0-.37-.1,1.27,1.27,0,0,0-.21-.26c-2.53-2.63-7.63-5.48-9.63-.59a9.42,9.42,0,0,0,.28,7.47,13.38,13.38,0,0,0,3.87,4.06,27.09,27.09,0,0,1-4.52,4.5H264a20.73,20.73,0,0,1-9.48,4c-.12-.65-.27-1.32-.44-2-2.32-9.43-5.37-16.08-15.33-17.86a9.17,9.17,0,0,0-8.12,2.21c-.67-.81-4.43-3.7-5-4.48-.49-.62-1-1.24-1.44-1.87-.7-.92-1.39-1.85-2-2.8-.25-.34-.48-.68-.71-1l-.23-.33c-.27-.4-.54-.8-.8-1.21s-.59-.92-.88-1.38l-.84-1.41-.08-.13c-.24-.43-.48-.86-.71-1.29l-.19-.36a.08.08,0,0,1,0,0,3.22,3.22,0,0,0-.45-.87.12.12,0,0,0-.09,0c-.41-1-.8-1.71-1.15-2.55.63.84,5.05.47,5.69,0,4.62-3.4,9.79-3.91,15.21-2.23,3.9,1.21,7.54,3.32,11.39,4.78h0s0,0,0,0c.68.25,1.36.48,2.06.67l.31.1-.3-.1.3.09a18.8,18.8,0,0,0,4.12.71c6.5.37,11.55,2.23,20.94-3.54a11.67,11.67,0,0,1,2.84-1.43A12.49,12.49,0,0,1,278.24,115.46Z"/><path class="cls-14" d="M278.73,90.35c.23,14.28-.48,27.17-6.16,39.85a6.6,6.6,0,0,0-2.55-1.91c4.13-17,2.13-26.75,0-36.68Z"/><path class="cls-16" d="M248.29,116.14c.67.26,1.34.48,2,.68-.7-.19-1.38-.42-2.06-.67h0Z"/><path class="cls-16" d="M250.63,116.92l-.31-.1h0Z"/><path class="cls-16" d="M217.66,117.05q-.24-.43-.45-.87A3.22,3.22,0,0,1,217.66,117.05Z"/><path class="cls-16" d="M248.29,116.14a6.57,6.57,0,0,1,2,.68c-.7-.19-1.38-.42-2.06-.67h0Z"/><path class="cls-16" d="M250.63,116.92l-.31-.1h0Z"/><path class="cls-17" d="M575,292.06a61.09,61.09,0,0,0,2.35-9.32,5.52,5.52,0,0,0-.61-7.34c1.33,1.41-16.17,10.57-17.63,11.3-10.34,5.21-21.66,8.14-33.27,5.39a6.87,6.87,0,0,0-3.38-.27c-3.15.87-1.59,5,.62,5.91,10.22,4.33,20.73,2.16,30.2-2.88l0,0a1.18,1.18,0,0,1,1.26,2l-.29.24c-7.85,6.21-14.43,7.54-26.82,8-14.35.57-30.26-4.44-44.23-8.46-3.18-.92-6.39-2-9.2.11-2.31,1.73-3.81,5.27-2.19,7.89a10.77,10.77,0,0,0,2.79,2.74c30.19,22.92,70.44,21.93,103.15,5.79-3.31-4.86-4.3-10.65-3.33-19.35C574.78,293.62,574.92,292.4,575,292.06Z"/><path class="cls-18" d="M577.81,313.15h0C579.21,315.21,580.1,312,577.81,313.15Z"/><path class="cls-16" d="M218.58,118.75c-.24-.43-.48-.79-.71-1.22a3.42,3.42,0,0,1-.19-.43l.19.36C218.1,117.89,218.34,118.32,218.58,118.75Z"/><path class="cls-16" d="M278.59,115.5a13.74,13.74,0,0,0,.14-3.17l.75-.42C279.29,112.79,279,114.1,278.59,115.5Z"/><path class="cls-17" d="M497.1,339.08c-3.07,3.8-8.77,3.55-12.84,1.88-4.7-1.92-8.34-5.07-13.68-5.11-4.61,0-9.06,1.75-13.69,1.71-5.7,0-10.41-2.55-12.47-8.06-2.63-7.07-1.7-16-.56-23.22A71.14,71.14,0,0,1,446.95,294c-11.17-3-12-17.28-12.14-27.66-.08-7.58.41-15.79,2.52-23.13.2-.7.44-1.4.71-2.08-.11.28.32.54,1.09.76a8.43,8.43,0,0,0,10.53-9.56,14.55,14.55,0,0,1-.2-2.17c0-1-.95-2.18.12-3.16.36-.33,2.59-1.51,2.59-.06s2.49,4.3,3.18,5.52c1.15,2,2.3,4.1,3.63,6,1.92,2.81,4.83,4.77,7.13,7.23a6.65,6.65,0,0,1,1.89,3.44c.47,3.14-2.38,5.51-3.36,8.25a33.15,33.15,0,0,0-1.76,11.13A66.5,66.5,0,0,0,464,281.08c.67,3.6,2.57,6.85,4.14,10.12,3.07,6.39-2.74,11-1.24,17.17A16,16,0,0,0,474,318c6.15,3.9,13.68,5.28,19.66,9.45C497.4,330.05,500.49,334.89,497.1,339.08Z"/><path class="cls-19" d="M457.56,296.47c-2.56,32.88-11,53.06-21.11,65.37-20.26,24.62-47.24,17.63-47.24,17.63a99.17,99.17,0,0,1-62.63-38.37c-14.75-19.45-21.31-41.76-22.15-56.77-.66-11.84,5-19.58,16.44-21.89,21.85-4.44,35.33-25,54.47-53,26-38.08,43.81-29.83,43.81-29.83S464.64,205.76,457.56,296.47Z"/><path class="cls-19" d="M677.95,321.14h0a52.34,52.34,0,0,1-8,2.06,93.38,93.38,0,0,1-21.35,2.27c-29.49-.28-53.53-11.08-73.41-34.33,0,0,12.09-33.26-10.17-55.68a115.82,115.82,0,0,1-16.34-20.83c-9.11-14.83-12-26.88-12-26.88a20.64,20.64,0,0,1,2.79-6.85c3.68-5.83,26.78,3.61,31.21,5.56,12.57,5.54,23.22,14.48,31.7,25.22,8.34,10.57,15.46,26.53,29.7,30,10.51,2.53,26.78-2,33.2-10,7.38-9.17,8.38-21.79,7.4-33.35a.17.17,0,0,0,0-.07c-.48-5.68,3.47-8.92,9.14-8.37A76.08,76.08,0,0,1,716,202c11.15,7.49,19.9,18.71,21.84,33.53C742.54,271.66,708.67,310.14,677.95,321.14Z"/><path class="cls-12" d="M410.17,264.12a210.71,210.71,0,0,1,3-28.58c1.34-7.58,3.29-15.2,3.37-22.94.13-13-6.95-25-19.2-28.41-11,7.55-19.71,21.59-26.71,32.54l-.2.32a71,71,0,0,1,4.47,7.73c9.8,19.29,18.42,40.29,23.61,61.72,2.58,10.66,1.51,25.08,5.41,35,2.63,6.67,13,6,11.19-2.38A218.74,218.74,0,0,1,410.17,264.12Z"/><path class="cls-12" d="M677.94,321.14c-10.51-1-20.25-4.63-26.89-13.51-6.44-8.61-6.92-20.85.32-29.2,9.4-10.84,21.74-4.54,33.55-3.66,13.67,1,22-15.5,26.37-26.21A83.16,83.16,0,0,0,717.35,217a24.13,24.13,0,0,0-1.1-8.23c-4.58-12.63,8.24-.22,11.45,3.67a45.5,45.5,0,0,1,10.11,23C742.54,271.67,708.67,310.14,677.94,321.14Z"/><path class="cls-20" d="M429.88,163.19c-7,0-7,11.91,0,11.91C437.88,175.1,437.88,163.19,429.88,163.19Z"/><path class="cls-20" d="M429.88,161.69c-9.15.36-8.71,15.41.51,14.89a7.45,7.45,0,0,0-.51-14.89c-1.93-.06-1.93,2.94,0,3,5.5.18,6.1,8.39.51,8.89-5.38.48-5.76-8.69-.51-8.89C431.8,164.62,431.81,161.62,429.88,161.69Z"/><path class="cls-20" d="M448.88,175.19c-7.66,0-7.67,11.91,0,11.91S456.55,175.19,448.88,175.19Z"/><path class="cls-20" d="M448.88,173.69c-9.41.33-9.47,14.91,0,14.91s9.42-14.58,0-14.91c-1.93-.07-1.93,2.93,0,3,5.56.19,5.6,8.91,0,8.91s-5.56-8.71,0-8.91C450.8,176.62,450.81,173.62,448.88,173.69Z"/><path class="cls-20" d="M461.88,195.19c-7,0-7,11.91,0,11.91C469.88,207.1,469.88,195.19,461.88,195.19Z"/><path class="cls-20" d="M461.88,193.69c-9.15.36-8.71,15.41.51,14.89a7.45,7.45,0,0,0-.51-14.89c-1.93-.06-1.93,2.94,0,3,5.5.18,6.1,8.39.51,8.89-5.38.48-5.76-8.69-.51-8.89C463.8,196.62,463.81,193.62,461.88,193.69Z"/><path class="cls-20" d="M472.88,217.19c-7,0-7,11.91,0,11.91C480.88,229.1,480.88,217.19,472.88,217.19Z"/><path class="cls-20" d="M472.88,215.69c-9.15.36-8.71,15.41.51,14.89a7.45,7.45,0,0,0-.51-14.89c-1.93-.06-1.93,2.94,0,3,5.5.18,6.1,8.39.51,8.89-5.38.48-5.76-8.69-.51-8.89C474.8,218.62,474.81,215.62,472.88,215.69Z"/><path class="cls-20" d="M485.88,242.69c-7,0-7,11.91,0,11.91C493.88,254.6,493.88,242.69,485.88,242.69Z"/><path class="cls-20" d="M485.88,241.19c-9.15.36-8.71,15.41.51,14.89a7.45,7.45,0,0,0-.51-14.89c-1.93-.06-1.93,2.94,0,3,5.5.18,6.1,8.39.51,8.89-5.38.48-5.76-8.69-.51-8.89C487.8,244.12,487.81,241.12,485.88,241.19Z"/><path class="cls-20" d="M501.88,262.69c-7,0-7,11.91,0,11.91C509.88,274.6,509.88,262.69,501.88,262.69Z"/><path class="cls-20" d="M501.88,261.19c-9.15.36-8.71,15.41.51,14.89a7.45,7.45,0,0,0-.51-14.89c-1.93-.06-1.93,2.94,0,3,5.5.18,6.1,8.39.51,8.89-5.38.48-5.76-8.69-.51-8.89C503.8,264.12,503.81,261.12,501.88,261.19Z"/><path class="cls-20" d="M525.88,264.69c-7,0-7,11.91,0,11.91C533.88,276.6,533.88,264.69,525.88,264.69Z"/><path class="cls-20" d="M525.88,263.19c-9.15.36-8.71,15.41.51,14.89a7.45,7.45,0,0,0-.51-14.89c-1.93-.06-1.93,2.94,0,3,5.5.18,6.1,8.39.51,8.89-5.38.48-5.76-8.69-.51-8.89C527.8,266.12,527.81,263.12,525.88,263.19Z"/><path class="cls-20" d="M541.88,247.19c-7.66,0-7.67,11.91,0,11.91S549.55,247.19,541.88,247.19Z"/><path class="cls-20" d="M541.88,245.69c-9.41.33-9.47,14.91,0,14.91s9.42-14.58,0-14.91c-1.93-.07-1.93,2.93,0,3,5.56.19,5.6,8.91,0,8.91s-5.56-8.71,0-8.91C543.8,248.62,543.81,245.62,541.88,245.69Z"/><path class="cls-20" d="M540.88,221.19c-7.66,0-7.67,11.91,0,11.91S548.55,221.19,540.88,221.19Z"/><path class="cls-20" d="M540.88,219.69c-9.41.33-9.47,14.91,0,14.91s9.42-14.58,0-14.91c-1.93-.07-1.93,2.93,0,3,5.56.19,5.6,8.91,0,8.91s-5.56-8.71,0-8.91C542.8,222.62,542.81,219.62,540.88,219.69Z"/><path class="cls-20" d="M534.88,198.69c-7,0-7,11.91,0,11.91C542.88,210.6,542.88,198.69,534.88,198.69Z"/><path class="cls-20" d="M534.88,197.19c-9.15.36-8.71,15.41.51,14.89a7.45,7.45,0,0,0-.51-14.89c-1.93-.06-1.93,2.94,0,3,5.5.18,6.1,8.39.51,8.89-5.38.48-5.76-8.69-.51-8.89C536.8,200.12,536.81,197.12,534.88,197.19Z"/><path class="cls-20" d="M536.88,175.69c-7.66,0-7.67,11.91,0,11.91S544.55,175.69,536.88,175.69Z"/><path class="cls-20" d="M536.88,174.19c-9.41.33-9.47,14.91,0,14.91s9.42-14.58,0-14.91c-1.93-.07-1.93,2.93,0,3,5.56.19,5.6,8.91,0,8.91s-5.56-8.71,0-8.91C538.8,177.12,538.81,174.12,536.88,174.19Z"/><path class="cls-12" d="M436.61,361.08c0,.26-.11.51-.16.76-20.26,24.62-47.24,17.63-47.24,17.63a99.17,99.17,0,0,1-62.63-38.37,24.12,24.12,0,0,0,9.68-1.25c6.43-2.17,12.12-6.07,18.62-8.07,10.75-3.31,18.69.72,26.28,8.14,7.37,7.21,14.16,14.76,25.26,10.09,7.14-3,15.1-9.57,23.22-5.76C435.85,347.17,437.82,354.8,436.61,361.08Z"/><path class="cls-21" d="M651.06,458.17a144.07,144.07,0,0,1-22.32,12c-17,7.4-36.38,12.49-56.5,15.5a318.24,318.24,0,0,1-56.06,3.23,302.35,302.35,0,0,1-39-3.6q-7.89-1.25-15.33-2.91-3.87-.87-7.65-1.81-8.25-2.07-16.1-4.57c1.37-19.24,7.44-38.65,22.42-51.66h0C478,414,486,411.2,512.25,405.17l.13,0c2.32-.53,4.66-1.4,7.19-1.8a151.81,151.81,0,0,0,23.3-5.58c.26-.08.53-.17.79-.27q5.68-1.87,11.17-4.24l.14-.06a131,131,0,0,0,33.31-20.58c4.69-4,10-7.2,14.64-11.24l.37-.31C625.73,341.44,657.57,423.64,651.06,458.17Z"/><path class="cls-12" d="M648.59,325.37c-29.49-.28-53.53-11-73.41-34.28,0,0,12.09-33.23-10.17-55.65a115.76,115.76,0,0,1-16.34-20.82,5,5,0,0,1,4.61.76c22.27,15,29.27,40.73,41.39,63.16S627,313.6,648.59,325.37Z"/><path class="cls-22" d="M572.24,485.67c9.27-36.22,13.85-71.32,13.16-108.83,6.25-4.05,12-10.7,17.53-15.47a311.48,311.48,0,0,1,25.82,108.8C611.72,477.57,592.36,482.66,572.24,485.67Z"/><path class="cls-22" d="M547.5,395.37a279.47,279.47,0,0,1-10.9,47.42c-5,15.69-10.87,32.48-20.42,46.11a291.16,291.16,0,0,1-54.3-6.51q-3.87-.87-7.65-1.81a49,49,0,0,0,13-10.55c7.74-8.45,14.43-18,21.46-27l30.84-39.68C528.32,401,537.7,399.33,547.5,395.37Z"/><path class="cls-3" d="M465.21,127.61a7,7,0,0,1-4.64,1.62,2,2,0,0,1-1.69-2.27,2.07,2.07,0,0,1,2.27-1.69c1.1,0,2.26-1.22,2.69-2.27h0a6,6,0,0,1-4.5-5.67,2,2,0,0,1,4-.49,3.36,3.36,0,0,0,2.31,2.62,5.34,5.34,0,0,0,1,.13h0c2.22-1.18,3.58-4.69,1.93-6.92a8.86,8.86,0,0,0-8.21-3.44,6.34,6.34,0,0,0-5.25,4.2,15.36,15.36,0,0,0-.66,7.56c.55,3.8,1.94,9.27,5.18,11.67a2,2,0,0,1,.66.83c.15,0,.29.11.44.15,4.14,1.16,7.1-1.36,7.65-4.32A1.94,1.94,0,0,0,465.21,127.61Z"/><path class="cls-23" d="M539.8,396.9a86.82,86.82,0,0,0-11.12,4.91c-26.22,14-20,32.81-18.13,43,4.5,25.11-11.16,43.16-33.34,40.49q-7.89-1.25-15.33-2.91-3.87-.87-7.65-1.81-8.25-2.07-16.1-4.57c1.37-19.24,7.44-38.66,22.43-51.67C478,414,486,411.2,512.25,405.17l.13,0q3.48-.8,7.19-1.8C525.94,401.63,532.77,399.48,539.8,396.9Z"/><path class="cls-3" d="M238.16,167.43c-1.12-1.55-3.72-.06-2.59,1.51a7.57,7.57,0,0,1,0,9.21c-1.19,1.5.92,3.63,2.12,2.12A10.57,10.57,0,0,0,238.16,167.43Z"/><path class="cls-3" d="M523.54,90.32a5,5,0,0,1-1.17,1l-.62-.17a4.71,4.71,0,0,0-5.42,2.25l-.72.13c-4.79.83-11.93,1.6-18.74,3.72A68.3,68.3,0,0,0,511,101c5.51.73,10.74,0,15.68,3.15,3.77,2.37,6.1,6.13,9.54,8.79C531.4,105.73,526.54,98.51,523.54,90.32Z"/><path class="cls-24" d="M510.55,444.81c4.5,25.11-11.16,43.16-33.34,40.49l-3.58-.59-.81-.14-2.53-.46-1.56-.3-3.11-.62-3.74-.8q-3.87-.87-7.65-1.81a49,49,0,0,0,13-10.55c7.74-8.45,14.43-18,21.46-27l30.84-39.68c3.87-1,7.87-2,12-3C502,414.53,508.66,434.27,510.55,444.81Z"/><path class="cls-4" d="M402.52,326.31a300.67,300.67,0,0,0-10.42-49.61q-3.62-12.15-8.24-24t-10-23.24c-1.79-3.82-3.76-7.58-5.63-11.37l-5.95-11.2q-3.07-5.58-6.21-11.08c-1-1.84-2.12-3.64-3.18-5.46s-2.17-3.6-3.32-5.35c-2.24-3.55-4.61-7-7.06-10.34-1.29-1.63-2.5-3.33-3.86-4.89l-2-2.39-2.08-2.3a92.57,92.57,0,0,0-18.95-15.83l.24.13a100.57,100.57,0,0,0-21.2-7.53c-.91-.2-1.82-.37-2.72-.53s-1.79-.27-2.78-.38a55.66,55.66,0,0,1-6-1,20.59,20.59,0,0,1-6-2.39,19.14,19.14,0,0,1-4.84-4.35c-.33-.4-.58-.74-.87-1.12l-.42-.55c-.12-.15-.26-.29-.38-.42a3.8,3.8,0,0,0-1.56-1,2.76,2.76,0,0,0-1.67,0,4.71,4.71,0,0,0-1.71.92,3.22,3.22,0,0,0-.86,1.53,6.15,6.15,0,0,0-.07,2.2,16.19,16.19,0,0,0,1.61,4.9,34.38,34.38,0,0,0,6.45,8.88,28.25,28.25,0,0,0,4.21,3.5,13.11,13.11,0,0,0,4.72,2.09h.07a1.37,1.37,0,0,1-.47,2.7,15.8,15.8,0,0,1-5.92-2.3,31.24,31.24,0,0,1-4.83-3.71,37.37,37.37,0,0,1-7.46-9.53,19.76,19.76,0,0,1-2.12-6,9.91,9.91,0,0,1,.06-3.56,7.13,7.13,0,0,1,1.86-3.48,8.55,8.55,0,0,1,3.27-1.94,6.82,6.82,0,0,1,4-.12,7.91,7.91,0,0,1,3.31,2c.21.21.41.41.61.63l.48.58c.31.38.65.8.94,1.15a14.82,14.82,0,0,0,3.82,3.27,16.15,16.15,0,0,0,4.77,1.73,51.55,51.55,0,0,0,5.48.75c.93.08,2,.2,3,.33s2,.31,3,.49a94.8,94.8,0,0,1,11.51,3,99.52,99.52,0,0,1,11.08,4.34l.21.11,0,0a98.29,98.29,0,0,1,20.44,16.41,113.86,113.86,0,0,1,8.46,10c2.58,3.5,5.1,7,7.35,10.72,4.62,7.31,8.69,14.85,12.68,22.39l5.84,11.45c1.83,3.87,3.75,7.68,5.51,11.6,3.58,7.8,6.87,15.73,9.8,23.79s5.52,16.24,7.76,24.51a283.92,283.92,0,0,1,9,50.52,1.37,1.37,0,0,1-2.72.28Z"/><path class="cls-4" d="M227,211.11a24.22,24.22,0,0,0,7.45,3,49.37,49.37,0,0,0,8.21,1.18,63.23,63.23,0,0,0,16.58-1.15,52.29,52.29,0,0,0,7.94-2.21,28.94,28.94,0,0,0,3.65-1.63,12.67,12.67,0,0,0,3-2.08,2.84,2.84,0,0,0,.69-.94s0-.05,0-.07,0,0,0,0,0,.13,0,.1a2.59,2.59,0,0,0-.79-.49,9.13,9.13,0,0,0-1.61-.48,32.1,32.1,0,0,0-7.92-.38c-.61,0-1.56,0-2.4,0a14,14,0,0,1-2.63-.44,12.4,12.4,0,0,1-4.72-2.53,20,20,0,0,1-5.28-8.23,47.4,47.4,0,0,1-2.23-8.8c-.48-2.94-.78-5.86-1-8.78-.41-5.83-.44-11.62-.48-17.33,0-.35,0-.74,0-1l-.06-.93-.06-.93-.16-.91a11.34,11.34,0,0,0-.39-1.81,13.76,13.76,0,0,0-.56-1.78,25.7,25.7,0,0,0-3.74-6.67c-3.2-4.2-7.4-7.76-11.78-11.46a48.09,48.09,0,0,1-11.48-14,49.12,49.12,0,0,1-5.53-17.23,38.72,38.72,0,0,1-.34-4.62,15.55,15.55,0,0,1,.78-5.08A12.56,12.56,0,0,1,215,88.83a14.65,14.65,0,0,1,9.23-4.22,12.72,12.72,0,0,1,2.62.07c.84.11,1.49.26,2.25.38,2.9.56,5.71,1.26,8.48,1.92a111.31,111.31,0,0,0,16.58,2.93,94.4,94.4,0,0,0,16.79-.14A137.4,137.4,0,0,0,287.65,87h0a1.37,1.37,0,0,1,.65,2.66,140.43,140.43,0,0,1-17,3.55,92,92,0,0,1-17.47.69,115.49,115.49,0,0,1-17.27-2.53c-2.81-.59-5.58-1.19-8.31-1.64-.66-.09-1.41-.23-2-.28a7.93,7.93,0,0,0-1.66,0,9.41,9.41,0,0,0-3.27.95,8.13,8.13,0,0,0-4.3,4.67c-.63,2-.41,4.61,0,7.31a43.51,43.51,0,0,0,5.22,15.16,44.46,44.46,0,0,0,10.32,12.21c4.38,3.62,9,7.48,12.73,12.45a31.7,31.7,0,0,1,4.54,8.28,17.63,17.63,0,0,1,.7,2.32,16.45,16.45,0,0,1,.47,2.39l.18,1.21.06,1.22.05,1.22c0,.4,0,.73,0,1.1-.06,5.73-.12,11.38.17,17,.15,2.79.39,5.57.79,8.29A42.34,42.34,0,0,0,254.1,193a15.08,15.08,0,0,0,3.7,6.19,7.33,7.33,0,0,0,2.75,1.54,9.1,9.1,0,0,0,1.59.32c.58,0,1.06,0,1.88,0a36.36,36.36,0,0,1,9.16.73,13.54,13.54,0,0,1,2.47.84,6.49,6.49,0,0,1,2.6,2.06,4.31,4.31,0,0,1,.77,2.07,5.39,5.39,0,0,1,0,1.11,8.06,8.06,0,0,1-.27,1,7.08,7.08,0,0,1-1.79,2.52,16.85,16.85,0,0,1-4.08,2.75,33.21,33.21,0,0,1-4.23,1.75A56.31,56.31,0,0,1,260,218a65.88,65.88,0,0,1-17.59.59,52.53,52.53,0,0,1-8.7-1.59,26.84,26.84,0,0,1-8.28-3.68,1.37,1.37,0,0,1,1.53-2.27Z"/><path class="cls-4" d="M265.59,98.6c7.74,1.5,15.76,2.21,23.21.56a31.06,31.06,0,0,0,5.33-1.71,10,10,0,0,0,2.18-1.32,7.45,7.45,0,0,0,1-.82,8.71,8.71,0,0,0,.89-.91,17.25,17.25,0,0,0,3.87-9.71,25.35,25.35,0,0,0-1.2-10.76A21.66,21.66,0,0,0,295.07,65a18,18,0,0,0-9.25-4.49c-3.43-.59-7-.17-9,1.62a7.07,7.07,0,0,0-.72.71s0,0-.08.23a6.7,6.7,0,0,0-.13,2,30.3,30.3,0,0,0,.85,5.38c.89,3.73,2.06,7.53,3.21,11.41.29,1,.57,2,.84,3a32,32,0,0,1,.72,3.26c0,.29.09.7.11,1l0,.77.09,1.54c0,1,.09,2.06.11,3.09a94.75,94.75,0,0,1-.52,12.37A82,82,0,0,1,279,119a115.4,115.4,0,0,1-3.77,11.68,91.85,91.85,0,0,1-5.07,11.2A43,43,0,0,1,262.91,152a1.37,1.37,0,0,1-2-1.9l0,0a40.17,40.17,0,0,0,6.16-9.76,96.71,96.71,0,0,0,4.33-11c1.24-3.75,2.27-7.57,3.15-11.41a77.21,77.21,0,0,0,1.79-11.55,95.39,95.39,0,0,0,.08-11.72c0-1-.12-2-.19-2.93l-.13-1.47-.07-.73c0-.24,0-.33-.08-.54-.14-.77-.4-1.69-.67-2.61s-.58-1.86-.88-2.8c-1.23-3.79-2.59-7.63-3.58-11.72a35.87,35.87,0,0,1-1.07-6.51,12.08,12.08,0,0,1,.41-4,6.69,6.69,0,0,1,1.29-2.42,13.09,13.09,0,0,1,1.43-1.39,13.72,13.72,0,0,1,7-3,20.91,20.91,0,0,1,7,.26,23.64,23.64,0,0,1,12,6.2,27,27,0,0,1,7,11.28,29.49,29.49,0,0,1,1.08,13,21.85,21.85,0,0,1-5.47,12.1,12.83,12.83,0,0,1-1.26,1.19,11.32,11.32,0,0,1-1.38,1.06,14.21,14.21,0,0,1-3,1.67,34.94,34.94,0,0,1-6.21,1.74,47.41,47.41,0,0,1-12.51.38,72.68,72.68,0,0,1-12.1-2.19,1.37,1.37,0,0,1,.6-2.67Z"/><path class="cls-4" d="M223.88,178.28l10.61-.08,5.31,0c1.76,0,3.59.05,5.38.08a69.66,69.66,0,0,1,21.22,4.25,64,64,0,0,1,9.83,4.7,72,72,0,0,1,8.9,6.29,83.78,83.78,0,0,1,7.81,7.57,93.61,93.61,0,0,1,6.73,8.49c8.28,11.85,14.11,25.09,18.89,38.5s8.5,27.18,12.16,40.85c1.83,6.84,3.63,13.66,5.58,20.42A177.78,177.78,0,0,0,343,329.08c5.32,12.76,12.75,24.77,23.08,33.67a58.47,58.47,0,0,0,17.3,10.33,57.76,57.76,0,0,0,9.69,2.69,48.22,48.22,0,0,0,9.95.7,40.43,40.43,0,0,0,18.82-5.4,51.09,51.09,0,0,0,14.87-13.23,67.53,67.53,0,0,0,9.69-17.78,109.06,109.06,0,0,0,5.19-20c1.16-6.84,1.9-13.81,2.4-20.77s.73-14,.53-20.93a204.59,204.59,0,0,0-5.11-41.49,195.56,195.56,0,0,0-5.83-20.08c-.56-1.65-1.22-3.26-1.83-4.9l-.93-2.44-1-2.41a95.29,95.29,0,0,0-4.38-9.38,47.13,47.13,0,0,0-5.64-8.34,30.47,30.47,0,0,0-3.48-3.45,22.56,22.56,0,0,0-4-2.62,7.79,7.79,0,0,0-1.07-.5c-.36-.15-.72-.31-1.09-.45-.76-.21-1.47-.51-2.28-.66a22.38,22.38,0,0,0-4.76-.59,22.76,22.76,0,0,0-9.37,2,35.56,35.56,0,0,0-8.41,5.33,63.81,63.81,0,0,0-7.29,7.21A154,154,0,0,0,375.7,212.5C368,224.37,360.12,236.34,350,246.66a86.67,86.67,0,0,1-8.09,7.2c-.71.56-1.47,1.07-2.2,1.6l-1.11.79-1.15.73c-.77.48-1.54,1-2.32,1.43l-2.41,1.29a46.2,46.2,0,0,1-10.24,3.81,40.41,40.41,0,0,1-10.86,1.23,1.37,1.37,0,0,1,0-2.74,37.54,37.54,0,0,0,10.15-1.31,43.19,43.19,0,0,0,9.54-3.73l2.25-1.25c.73-.45,1.45-.93,2.17-1.39l1.08-.71,1-.77c.69-.52,1.4-1,2.06-1.56a83.32,83.32,0,0,0,7.64-7c9.56-10.12,17.28-22,24.79-33.93a157.9,157.9,0,0,1,12.53-17.46,68,68,0,0,1,7.7-7.78A39.91,39.91,0,0,1,402,179a27.31,27.31,0,0,1,11.2-2.5,27,27,0,0,1,5.76.64c.94.17,1.89.52,2.83.78.46.17.91.36,1.37.55a11,11,0,0,1,1.34.61,27.29,27.29,0,0,1,4.9,3.13,35.27,35.27,0,0,1,4.1,4,52,52,0,0,1,6.34,9.13,99.94,99.94,0,0,1,4.71,9.78l1.08,2.47,1,2.5c.64,1.67,1.34,3.33,1.94,5a192.19,192.19,0,0,1,6.2,20.6,210.18,210.18,0,0,1,5.62,42.58c.27,7.16.08,14.34-.36,21.49-.13,1.79-.22,3.58-.39,5.36l-.55,5.35q-.59,5.34-1.49,10.67a115,115,0,0,1-5.49,21.05,73.55,73.55,0,0,1-10.56,19.34,57.06,57.06,0,0,1-16.65,14.78,46.21,46.21,0,0,1-21.6,6,54,54,0,0,1-11.18-.87,63.45,63.45,0,0,1-10.71-3.06,64.1,64.1,0,0,1-18.88-11.46,81.61,81.61,0,0,1-14.29-16.6,112.17,112.17,0,0,1-10-19.26,183,183,0,0,1-6.81-20.4c-1.93-6.85-3.68-13.72-5.43-20.58-3.5-13.7-7-27.35-11.61-40.62s-10.12-26.22-18-37.69a94.56,94.56,0,0,0-6.33-8.22,80.06,80.06,0,0,0-7.31-7.3,68.42,68.42,0,0,0-8.33-6.07,60.57,60.57,0,0,0-9.23-4.58,59.81,59.81,0,0,0-9.89-2.95A71.79,71.79,0,0,0,245,181.28c-1.74,0-3.45-.15-5.22-.15l-5.31,0L223.88,181a1.37,1.37,0,0,1,0-2.73Z"/><path class="cls-4" d="M221.16,137.39a31.33,31.33,0,0,1,4.8-4.22,25.81,25.81,0,0,1,5.71-3.17,16,16,0,0,1,6.86-1.09,12.81,12.81,0,0,1,3.59.81,14,14,0,0,1,3.22,1.78c.48.36.94.76,1.38,1.15s.86.86,1.21,1.26c.72.82,1.39,1.65,2,2.5a50.69,50.69,0,0,1,3.56,5.31,45.06,45.06,0,0,1,2.88,5.81,27.12,27.12,0,0,1,1.82,6.51,19.24,19.24,0,0,1,.17,3.62,14.3,14.3,0,0,1-.79,3.79,11.56,11.56,0,0,1-5.07,6c-.28.16-.55.33-.83.48l-.84.39a14.58,14.58,0,0,1-1.7.64l-.43.14-.52.13a9.22,9.22,0,0,1-1,.18c-.62.09-1.2.13-1.76.15-2.23.1-4.27,0-6.31-.13a83.23,83.23,0,0,0-11.79-.06,14.89,14.89,0,0,0-5.16,1.32,4.72,4.72,0,0,0-2.69,3.56l0,.08a1.37,1.37,0,0,1-2.72-.32,7.72,7.72,0,0,1,1-3.58,8.17,8.17,0,0,1,2.6-2.69,17.52,17.52,0,0,1,6.34-2.36,73.31,73.31,0,0,1,12.47-1c2,0,4-.09,5.84-.27a12.5,12.5,0,0,0,1.26-.18,4,4,0,0,0,.5-.13l.21-.06.29-.12a9.11,9.11,0,0,0,1.12-.5l.52-.27.47-.32a6.22,6.22,0,0,0,2.46-3.19,11,11,0,0,0,.31-4.59,32,32,0,0,0-3.58-10.39,51.8,51.8,0,0,0-2.94-4.95c-.54-.79-1.09-1.57-1.67-2.31a14.69,14.69,0,0,0-1.72-1.85,8.43,8.43,0,0,0-4.26-2,11.75,11.75,0,0,0-5.09.45,28.52,28.52,0,0,0-9.86,5.55l-.07.06a1.37,1.37,0,0,1-1.87-2Z"/><path class="cls-4" d="M271.23,117.84c-4.33.79-8.72,1.61-13.27,2a49.59,49.59,0,0,1-6.92.08,21.22,21.22,0,0,1-7.22-1.62,19.29,19.29,0,0,1-6.21-4.32,25.88,25.88,0,0,1-4.27-6,71,71,0,0,1-5.22-12.75c-.69-2.16-1.28-4.33-1.82-6.49-.27-1.08-.55-2.16-.79-3.24s-.48-2-.77-3c-1.14-3.93-2.91-7.46-5.91-9.57a12.63,12.63,0,0,0-2.42-1.36c-.44-.18-.88-.33-1.35-.5s-1.1-.35-1.64-.54c-2.17-.74-4.26-1.62-6.31-2.54-4.11-1.83-8-3.87-12-5.75a1.37,1.37,0,0,1,1-2.54c4.24,1.43,8.35,3.1,12.46,4.54,2.05.73,4.12,1.36,6.17,1.94.51.15,1,.26,1.54.4s1.2.33,1.8.53a17.54,17.54,0,0,1,3.47,1.65,17.8,17.8,0,0,1,5.48,5.37,29.69,29.69,0,0,1,3.18,6.59c.38,1.11.74,2.27,1,3.33s.58,2.13.88,3.18l1.77,6.28a76.25,76.25,0,0,0,4.4,11.93,17.13,17.13,0,0,0,7.57,8.43,16.49,16.49,0,0,0,5.57,1.64,45.37,45.37,0,0,0,6.33.36c4.29,0,8.67-.45,13.11-.73a1.37,1.37,0,0,1,.33,2.71Z"/><path class="cls-4" d="M430,202.35a103.07,103.07,0,0,0,8.84,10,129.87,129.87,0,0,0,10,9,114.6,114.6,0,0,0,22.52,14.38,92,92,0,0,0,12.36,5,85.84,85.84,0,0,0,12.9,3.13A83.45,83.45,0,0,0,509.77,245a68.81,68.81,0,0,0,13.09-1A43.27,43.27,0,0,0,535,240a33.18,33.18,0,0,0,5.26-3.42,31,31,0,0,0,4.36-4.42,30.61,30.61,0,0,0,3.25-5.28,32.41,32.41,0,0,0,2.08-5.9,40.17,40.17,0,0,0,1-12.65,46.91,46.91,0,0,0-.89-6.38c-.2-1.06-.48-2.1-.74-3.14l-.44-1.55a8.17,8.17,0,0,0-.45-1.16,5.05,5.05,0,0,0-3.23-2.76,6.42,6.42,0,0,0-4.52.5,5.22,5.22,0,0,0-2.79,3.22,5.82,5.82,0,0,0-.17,2.21l.09.6.16.81.33,1.66c.88,4.42,1.84,8.84,2.77,13.3,1.84,8.91,3.73,17.92,4.1,27.39a55.3,55.3,0,0,1-.18,7.18,34.06,34.06,0,0,1-1.38,7.26,26.38,26.38,0,0,1-3.24,6.93,24,24,0,0,1-5.36,5.59,27.94,27.94,0,0,1-6.63,3.62,35,35,0,0,1-3.5,1.14c-.59.16-1.17.33-1.77.47l-1.85.36a25.71,25.71,0,0,1-7.61.07,25.28,25.28,0,0,1-7.27-2.22,37.88,37.88,0,0,1-11.45-9,81.9,81.9,0,0,1-8.34-11.29,255.13,255.13,0,0,1-12.9-24.25c-4-8.19-7.77-16.39-12-24.35s-8.8-15.71-14.6-22.37a54.86,54.86,0,0,0-4.65-4.65,36.15,36.15,0,0,0-5.27-3.79,24.94,24.94,0,0,0-12.23-3.5h0a1.37,1.37,0,0,1,0-2.74A27.88,27.88,0,0,1,438.69,171a39.31,39.31,0,0,1,5.86,4,58.13,58.13,0,0,1,5.1,4.83,85.31,85.31,0,0,1,8.48,11c2.55,3.84,4.86,7.8,7.08,11.8,4.42,8,8.4,16.19,12.49,24.27a251,251,0,0,0,13.07,23.55,77,77,0,0,0,8,10.44,33.39,33.39,0,0,0,9.92,7.6A19.51,19.51,0,0,0,520.33,270l1.48-.31c.5-.12,1-.28,1.51-.42a29.37,29.37,0,0,0,3-1,22.23,22.23,0,0,0,5.24-2.94,18.17,18.17,0,0,0,4-4.23,20.5,20.5,0,0,0,2.41-5.39,30.18,30.18,0,0,0,1.09-6.09,49.22,49.22,0,0,0,.13-6.42,105.5,105.5,0,0,0-1.48-13.13c-.72-4.4-1.59-8.82-2.5-13.25s-1.85-8.88-2.72-13.36l-.32-1.68-.16-.86-.15-1.08a11.78,11.78,0,0,1,.43-4.52,10.85,10.85,0,0,1,2.27-4,11.76,11.76,0,0,1,3.61-2.71,12.21,12.21,0,0,1,8.72-.8,10.79,10.79,0,0,1,4,2.21,11.12,11.12,0,0,1,2.73,3.63,14,14,0,0,1,.76,2l.47,1.72c.28,1.16.57,2.31.78,3.49a52.51,52.51,0,0,1,.91,7.1,45.63,45.63,0,0,1-1.27,14.35,37.8,37.8,0,0,1-2.52,6.88,32.78,32.78,0,0,1-9.17,11.43,38.29,38.29,0,0,1-6.17,3.92,46.84,46.84,0,0,1-13.64,4.3c-18.66,2.79-37.65-1.12-54.14-9.44A117,117,0,0,1,446.65,224a120.23,120.23,0,0,1-18.89-20.05A1.37,1.37,0,0,1,430,202.3Z"/><path class="cls-4" d="M560.09,270.28a142.73,142.73,0,0,0,28.54,30.47c10.87,8.67,23,16,36.29,19.45a87,87,0,0,0,40.75.92,85.89,85.89,0,0,0,36.49-17.82,67.53,67.53,0,0,0,7.41-7,83.82,83.82,0,0,0,6.49-7.91,104,104,0,0,0,10.35-17.76,88.48,88.48,0,0,0,3.75-9.58,79.94,79.94,0,0,0,2.61-9.91,61.06,61.06,0,0,0,.79-20.22,41.05,41.05,0,0,0-22.42-31.53c-6-3.2-12.75-5.06-19.56-6.48s-13.83-2.16-20.85-2.92h0a1.37,1.37,0,0,1,.25-2.73c7.05.53,14.15,1.07,21.23,2.27A74.62,74.62,0,0,1,713,195.87a49,49,0,0,1,9.33,5.9,43.12,43.12,0,0,1,4.08,3.78c.63.68,1.3,1.33,1.89,2l1.71,2.2a44,44,0,0,1,5.53,9.68,50,50,0,0,1,3,10.72,64.86,64.86,0,0,1-.37,22,85.36,85.36,0,0,1-2.6,10.62A94.34,94.34,0,0,1,731.7,273,102.21,102.21,0,0,1,721,292a89.9,89.9,0,0,1-6.9,8.52A72.86,72.86,0,0,1,706,308a89.38,89.38,0,0,1-18.48,11.69c-1.67.73-3.32,1.52-5,2.2l-5.13,1.89-5.25,1.55c-1.76.48-3.55.82-5.32,1.24a91.43,91.43,0,0,1-43.22-1.63l-5.18-1.7c-1.72-.57-3.39-1.34-5.08-2s-3.29-1.53-4.92-2.33-3.2-1.69-4.76-2.6a126.83,126.83,0,0,1-17.57-12.46,149.12,149.12,0,0,1-15.34-15,136,136,0,0,1-13-17.07,1.37,1.37,0,0,1,2.28-1.51Z"/><path class="cls-4" d="M532.65,360.82a20.91,20.91,0,0,1,1.85,3.42,29.31,29.31,0,0,1,1.3,3.57,13,13,0,0,1,.1,3.84,15.71,15.71,0,0,1-.75,4,1.44,1.44,0,0,1-2.65.18l-.09-.18c-.53-1.05-1-2.18-1.47-3.31a14.75,14.75,0,0,1-1.13-3.46c-.11-1.21-.12-2.44-.12-3.69a24.58,24.58,0,0,1,.3-3.81v0a1.47,1.47,0,0,1,2.66-.58Z"/><path class="cls-4" d="M453.86,396.3a245.28,245.28,0,0,0,40.26-3.75,235.92,235.92,0,0,0,39-10.34,223.63,223.63,0,0,0,36.42-17.13c5.81-3.35,11.39-7.1,16.84-11l2.15-1.51c.75-.52,1.55-1,2.36-1.47a17.92,17.92,0,0,1,5.61-2.12,9.5,9.5,0,0,1,3.5,0,7.85,7.85,0,0,1,3.47,1.53,8,8,0,0,1,2.43,3,9.69,9.69,0,0,1,.9,3.47,10.92,10.92,0,0,1-.28,3.39,12.17,12.17,0,0,1-1.22,3.08,19.59,19.59,0,0,1-3.75,4.61c-1.35,1.28-2.68,2.34-4,3.46s-2.69,2.18-4.08,3.22a157.27,157.27,0,0,1-17.29,11.46,180,180,0,0,1-18.55,9.24l-1.2.51-.3.13-.19.07-.61.23-2.43.92L548,399.07c-1.62.6-3.23,1.26-5,1.8s-3.23,1.08-4.93,1.57c-3.35,1-6.73,1.82-10.07,2.49l-10.06,2c-6.72,1.38-13.4,2.46-20,3.9a127.28,127.28,0,0,0-19.16,5.49,57.64,57.64,0,0,0-16.81,9.82l.12-.11h0l0,0-.1.1a56.55,56.55,0,0,0-13.63,17.56,79.06,79.06,0,0,0-7.07,21.47,121.18,121.18,0,0,0-1.86,22.8,149,149,0,0,0,2,22.92,1.37,1.37,0,0,1-2.7.49,152,152,0,0,1-2.69-23.33,118,118,0,0,1,1.42-23.55,83.13,83.13,0,0,1,7-22.72A61.06,61.06,0,0,1,459,422.56l-.12.11h0l.08-.07,0,0a62.6,62.6,0,0,1,18-11,126.05,126.05,0,0,1,19.87-6.07c6.69-1.57,13.42-2.75,20-4.2l9.91-2.09c3.3-.71,6.5-1.57,9.67-2.52,1.57-.46,3.16-1,4.77-1.55s3-1.12,4.62-1.7l4.66-1.78,2.33-.89.58-.22.15-.06.26-.11.29-.12,1.14-.49a180.55,180.55,0,0,0,17.94-8.86A164.54,164.54,0,0,0,589.93,370c5-4,11.75-8.26,11.26-12.7a3,3,0,0,0-1.1-2.39,2.31,2.31,0,0,0-1.13-.52,4,4,0,0,0-1.57,0,12.65,12.65,0,0,0-3.88,1.46c-.66.37-1.32.76-2,1.2l-2,1.39c-5.64,3.93-11.4,7.7-17.4,11.07a220,220,0,0,1-37.5,16.92A239.56,239.56,0,0,1,453.85,399a1.37,1.37,0,0,1,0-2.73Z"/><path class="cls-4" d="M343,211.11c10.75-9.48,21.26-19.21,31.1-29.54a237.15,237.15,0,0,0,26.75-33.14l2.83-4.49c.95-1.49,1.81-3,2.71-4.56,1.8-3,3.38-6.16,4.92-9.34,3-6.39,5.71-13,8.52-19.64a182.53,182.53,0,0,1,9.46-19.71c.95-1.59,1.85-3.19,2.9-4.73.52-.77,1-1.56,1.54-2.32l1.65-2.25.84-1.12.9-1.08,1.8-2.15c1.24-1.39,2.51-2.75,3.83-4.05A89.42,89.42,0,0,1,460.29,59.4a86,86,0,0,1,20.35-8.89,71.87,71.87,0,0,1,22.1-3A57.62,57.62,0,0,1,524.6,52.3l1.29.56,1.26.63c.83.43,1.69.82,2.49,1.31s1.62.9,2.44,1.45a29.28,29.28,0,0,1,2.43,1.83,19.76,19.76,0,0,1,6.19,10.26,18.54,18.54,0,0,1,.49,3c.11,1,0,2,0,3s-.21,2-.44,3l-.39,1.46c-.07.24-.12.49-.21.72l-.29.7a19.44,19.44,0,0,1-7.43,9.21,8.3,8.3,0,0,1-1.28.76l-1.32.69c-.88.43-1.71.75-2.58,1.1-1.72.69-3.47,1.26-5.23,1.81a82.59,82.59,0,0,1-10.72,2.43A126.33,126.33,0,0,1,489.6,97.6a1.37,1.37,0,0,1,0-2.74h0a123.27,123.27,0,0,0,21.13-2.06,89.08,89.08,0,0,0,10.2-2.6c1.65-.56,3.3-1.14,4.9-1.82.79-.33,1.63-.68,2.35-1.06l1.05-.58a5.83,5.83,0,0,0,1-.63,15.33,15.33,0,0,0,5.69-7.39l.22-.55c.06-.19.09-.38.14-.57l.28-1.15c.17-.77.19-1.57.3-2.35s0-1.58-.09-2.36a14.15,14.15,0,0,0-.43-2.31,15.15,15.15,0,0,0-4.91-7.76c-.58-.52-1.28-.9-1.9-1.36S528,59.46,527.32,59s-1.53-.77-2.3-1.14l-1.16-.55-1.19-.48a51.34,51.34,0,0,0-9.81-2.93,58.64,58.64,0,0,0-10.21-1A66.29,66.29,0,0,0,482.29,56,88.69,88.69,0,0,0,447,77.3a79,79,0,0,0-12.67,16.35,177.14,177.14,0,0,0-9.42,19c-2.88,6.53-5.68,13.19-8.9,19.73-1.63,3.25-3.34,6.51-5.24,9.63-1,1.55-1.86,3.13-2.86,4.65l-3,4.55a241.52,241.52,0,0,1-28,33.19c-10.25,10.18-21.13,19.64-32.17,28.83a1.37,1.37,0,0,1-1.78-2.08Z"/><path class="cls-4" d="M529,138.93q3.42-6.12,7.11-12.06l.23-.37.16-.3a5,5,0,0,0,.31-.61,7.64,7.64,0,0,0,.48-1.27,9.49,9.49,0,0,0,.37-2.64,9,9,0,0,0-1.49-4.94c-1.23-1.89-2.43-3.94-3.55-6l-3.35-6.13c-2.23-4.09-4.4-8.22-6.43-12.44a1.38,1.38,0,0,1,2.33-1.45c2.89,3.68,5.65,7.44,8.35,11.24l4,5.71c1.34,1.92,2.61,3.81,3.83,5.88a14.32,14.32,0,0,1,1.88,8.39,13.94,13.94,0,0,1-1,4.17,12.76,12.76,0,0,1-1,1.91,9.22,9.22,0,0,1-.58.89l-.31.43-.27.34q-4.31,5.5-8.9,10.81a1.37,1.37,0,0,1-2.24-1.57Z"/><path class="cls-4" d="M514.74,164.64c-1.31.07-2.63.14-4,.14l-2-.16a11.15,11.15,0,0,1-2-.26l-2-.44a17.08,17.08,0,0,1-2-.65,11.88,11.88,0,0,1-1.94-.82c-.62-.33-1.28-.62-1.88-1a20.65,20.65,0,0,1-6.18-6,22.28,22.28,0,0,1-2.07-3.81,20.17,20.17,0,0,1-.72-2.06c-.11-.35-.19-.72-.28-1.08,0-.18-.09-.37-.12-.57s-.07-.38-.1-.67a3,3,0,0,1,4.88-2.77l.06,0c.05,0,.27.2.44.31l.55.37c.37.25.79.49,1.18.73a27.42,27.42,0,0,0,2.55,1.31,31.79,31.79,0,0,0,5.54,1.91c.48.12,1,.2,1.46.3a13.22,13.22,0,0,0,1.47.25l1.49.22,1.51.12c1,.12,2,.06,3,.12s2-.08,3.08-.08h.13a1.37,1.37,0,0,1,.34,2.7c-1.07.27-2.14.55-3.24.76a32.19,32.19,0,0,1-3.32.45,32.67,32.67,0,0,1-6.78-.05,33.52,33.52,0,0,1-6.75-1.45,27.83,27.83,0,0,1-3.27-1.29c-.54-.26-1.07-.51-1.6-.83-.26-.15-.53-.3-.79-.48s-.49-.33-.86-.61l4.94-2.72.05.26c0,.11,0,.23.07.35s.1.49.18.75c.13.51.29,1,.46,1.52a17.88,17.88,0,0,0,1.32,2.92,16.61,16.61,0,0,0,4.18,4.86c.43.34.9.62,1.35.94a8.37,8.37,0,0,0,1.45.83c.51.23,1,.55,1.52.74l1.62.6a11.79,11.79,0,0,0,1.68.5l1.72.45,3.57.56.14,0a1.37,1.37,0,0,1-.14,2.71Z"/><path class="cls-4" d="M510.56,107.06c-1.21.86-2.49,1.66-3.69,2.44s-2.36,1.57-3.41,2.36-2.28,1.19-3.22,1.87a6.33,6.33,0,0,0-2.25,2.42l-.12.26a1.4,1.4,0,0,1-2.62-.26,6.17,6.17,0,0,1,0-3,9.08,9.08,0,0,1,1.21-2.71,11.36,11.36,0,0,1,3.83-3.77A21.11,21.11,0,0,1,505,105a19.33,19.33,0,0,1,4.87-.55,1.42,1.42,0,0,1,.8,2.58Z"/><path class="cls-4" d="M469.47,114.29a22.38,22.38,0,0,0-4.84-4.78,8.46,8.46,0,0,0-2.68-1.33,4.41,4.41,0,0,0-2.38,0,7.72,7.72,0,0,0-4.18,3.35,9,9,0,0,0-1.17,2.53,10.66,10.66,0,0,0-.3,2.8,25.43,25.43,0,0,0,3.75,12.34,21.94,21.94,0,0,0,4.26,5.11,11.06,11.06,0,0,0,5.69,2.75h0a1.38,1.38,0,0,1,0,2.74,13.17,13.17,0,0,1-8-2.21,23.37,23.37,0,0,1-6-5.51,29.27,29.27,0,0,1-4.1-7,20.38,20.38,0,0,1-1.66-8.28,14.76,14.76,0,0,1,.8-4.51l.45-1.12c.17-.34.33-.69.52-1a14.62,14.62,0,0,1,1.25-1.9,12.56,12.56,0,0,1,7.75-4.88,9.18,9.18,0,0,1,4.91.65,12.63,12.63,0,0,1,3.66,2.46,19.81,19.81,0,0,1,2.65,3.08,22.58,22.58,0,0,1,2,3.42,1.37,1.37,0,0,1-2.31,1.44Z"/><path class="cls-4" d="M496.82,174.47a32.52,32.52,0,0,0,7.58,2.31,24.66,24.66,0,0,0,7.67.22,18.06,18.06,0,0,0,6.89-2.39,17.87,17.87,0,0,0,2.93-2.16c.47-.39.88-.86,1.32-1.28s.84-1,1.26-1.45a49.68,49.68,0,0,0,8.31-13.31,68.34,68.34,0,0,0,4.35-15.63v-.08a1.37,1.37,0,0,1,2.73.15,48.69,48.69,0,0,1-.51,8.71,56.87,56.87,0,0,1-1.89,8.54c-1.76,5.57-4.31,11.17-8.46,15.66-.53.55-1,1.11-1.58,1.66s-1.16,1.07-1.8,1.54a23.58,23.58,0,0,1-4,2.57,22.33,22.33,0,0,1-9.14,2.35,26.86,26.86,0,0,1-9-1.24A32.87,32.87,0,0,1,499.3,179a26.11,26.11,0,0,1-3.89-2.21,1.37,1.37,0,0,1,1.33-2.38Z"/><path class="cls-4" d="M617.86,359.2a137.73,137.73,0,0,1,22.86,32.27,126.78,126.78,0,0,1,7.69,18.37,114,114,0,0,1,4.69,19.47c.34,3.32.72,6.69.85,10,0,1.65.13,3.3.12,5l0,4.95c-.1,6.58-.51,13.1-.41,19.43a49.15,49.15,0,0,0,3.59,18.24,83.74,83.74,0,0,0,9.74,16.4h0a1.37,1.37,0,0,1-2.15,1.7,80,80,0,0,1-11.27-16.46,51.62,51.62,0,0,1-4.9-19.66c-.43-6.69-.23-13.21-.38-19.66-.07-3.22-.2-6.44-.35-9.64,0-1.62-.27-3.16-.4-4.74l-.41-4.72a125.15,125.15,0,0,0-10.77-36.49l-2.07-4.34c-.72-1.43-1.5-2.84-2.24-4.26s-1.56-2.81-2.37-4.19-1.62-2.78-2.5-4.12a135.91,135.91,0,0,0-11.25-15.63l-.05-.06a1.37,1.37,0,0,1,2-1.83Z"/><path class="cls-4" d="M435.43,330.39a181,181,0,0,0,76.31,19.9,186.33,186.33,0,0,0,39.51-2.6,183,183,0,0,0,19.29-4.46c1.6-.39,3.16-1,4.73-1.47L580,340.2c.38-.13.81-.26,1.15-.39s.53-.21.76-.35a4.67,4.67,0,0,0,1.25-1.06A7.15,7.15,0,0,0,584.6,335a12,12,0,0,0-1.5-7.92c-.28-.51-.84-1.29-1.3-2s-1-1.41-1.43-2.12q-1.41-2.15-2.72-4.4a53.37,53.37,0,0,1-4.39-9.58,32.93,32.93,0,0,1-1.82-10.68,28.52,28.52,0,0,1,.55-5.5l.28-1.37.31-1.21.61-2.39c.74-3.17,1.35-6.37,1.77-9.57a59,59,0,0,0-.42-19.06,39.7,39.7,0,0,0-2.87-8.91l-.47-1.07-.56-1c-.38-.68-.72-1.38-1.14-2a39.2,39.2,0,0,0-2.7-3.8c-.51-.62-.92-1.19-1.5-1.85l-1.66-1.92q-1.64-1.93-3.25-3.9-3.22-3.93-6.26-8A154.53,154.53,0,0,1,534,191.25l.11.26a10.93,10.93,0,0,1-.89-6,16.21,16.21,0,0,1,.51-2.65c.06-.22.13-.43.19-.65s.19-.51.3-.75A7.72,7.72,0,0,1,535,180a9.84,9.84,0,0,1,1.08-1.33,10.43,10.43,0,0,1,1.31-1,8.57,8.57,0,0,1,1.39-.77,9.27,9.27,0,0,1,1.41-.52,17,17,0,0,1,5.28-.62,41.79,41.79,0,0,1,9.34,1.49,90,90,0,0,1,8.63,2.79q2.1.79,4.17,1.65l2,.87,2.07,1,2.07,1,2,1.1,2,1.11,1.93,1.22a82.68,82.68,0,0,1,14.05,11.45c8.49,8.53,15.31,18.15,22.69,27.05l1.38,1.67,1.36,1.48c.23.24.44.5.69.73l.75.66a19.86,19.86,0,0,0,1.52,1.3,27.25,27.25,0,0,0,6.93,3.9A28.24,28.24,0,0,0,637,237.9a31.76,31.76,0,0,0,8.12-.31c10.86-1.7,20.67-8.49,27.39-17.38a48.43,48.43,0,0,0,7.62-14.84,40.19,40.19,0,0,0,1.68-16.47c-.32-2.78-.9-5.6-1.39-8.55a38.24,38.24,0,0,1-.63-9.18c0-.79.17-1.58.29-2.37l.42-2.18.89-4.32c.6-2.86,1.2-5.68,1.6-8.49a39.13,39.13,0,0,0-.92-16.67c-.43-1.34-.79-2.71-1.33-4-.26-.66-.49-1.33-.77-2l-.87-2-.44-1a7,7,0,0,1-.47-1.36,6.68,6.68,0,0,1,3.3-7.3l-.16.09.49-.27-.1,0a4.85,4.85,0,0,1,2-.53,10.41,10.41,0,0,1,1.68.06h-.12a1.48,1.48,0,0,1,.53.1l.24.12.15.11a1.51,1.51,0,0,1,.41.54,1.7,1.7,0,0,1,.07.19l0,.13s0,0,0,0l0-.12a1.34,1.34,0,0,0-.13-.22,1.4,1.4,0,0,0-.25-.27,1.51,1.51,0,0,0-.37-.22,1.43,1.43,0,0,0-.52-.11h.32a7.13,7.13,0,0,1,.71.07,6.74,6.74,0,0,1,1.4.37c.22.09.44.18.65.29s.47.26.54.3l.48.23a3.49,3.49,0,0,1,.41.25l.09.07-.07,0h0a3.24,3.24,0,0,1,.47.29l.28.2.47.41q.46.41.88.84c.57.58,1.1,1.18,1.6,1.79A1.37,1.37,0,0,1,691.5,126c-.47-.55-1-1.08-1.46-1.57q-.38-.37-.78-.72l-.39-.33-.19-.12c-.13-.08.05,0,0,0l-.22-.12-.19-.12,0,0-.08,0c-.07,0-.27-.11-.55-.26l-.46-.25-.39-.17a3.86,3.86,0,0,0-.8-.2l-.42,0h-.25a1.48,1.48,0,0,1-.53-.11,1.54,1.54,0,0,1-.38-.23,1.52,1.52,0,0,1-.26-.29,1.58,1.58,0,0,1-.14-.25,1.92,1.92,0,0,1-.07-.19l0-.13s0,0,0,0a1,1,0,0,0,0,.13,1.29,1.29,0,0,0,.13.22,1.38,1.38,0,0,0,.25.27l.14.1.24.12a1.43,1.43,0,0,0,.52.1h-.12a7.63,7.63,0,0,0-1.21,0,1.91,1.91,0,0,0-.79.21l-.1,0,0,0h0l-.15.09a3.9,3.9,0,0,0-1.05,1,3.64,3.64,0,0,0-.57,2.94,3.92,3.92,0,0,0,.26.7l.47,1,.95,2c.31.68.57,1.39.85,2.08.6,1.38,1,2.84,1.5,4.27a42.48,42.48,0,0,1,1.33,18.05c-.38,3-1,5.89-1.53,8.76l-.83,4.28-.38,2.13c-.09.66-.18,1.31-.21,2-.36,5.38,1.46,11,2.23,17a44.34,44.34,0,0,1-1.6,18.18,53.38,53.38,0,0,1-21.25,28.94,43.74,43.74,0,0,1-8.13,4.36,40.22,40.22,0,0,1-8.92,2.58,36.75,36.75,0,0,1-9.34.47,33.35,33.35,0,0,1-9.23-2,32.49,32.49,0,0,1-8.34-4.55c-.66-.45-1.22-1-1.83-1.52l-.9-.78c-.29-.27-.55-.57-.83-.85l-1.62-1.73-1.42-1.69c-7.6-9-14.47-18.47-22.58-26.45a76.88,76.88,0,0,0-13.17-10.53l-1.78-1.11-1.84-1-1.85-1-1.9-.87-1.91-.87-2-.82c-1.33-.54-2.65-1.06-4-1.56a84.08,84.08,0,0,0-8.05-2.58,36.07,36.07,0,0,0-7.93-1.27,11.11,11.11,0,0,0-3.39.37,3.12,3.12,0,0,0-1.86,1.22,1.88,1.88,0,0,0-.23.45l-.11.26-.12.4a10.22,10.22,0,0,0-.31,1.65,5.15,5.15,0,0,0,.26,2.6,2.16,2.16,0,0,1,.1.22l0,0a150.28,150.28,0,0,0,19.19,34.2q2.93,4,6,7.84,1.55,1.93,3.15,3.83l1.6,1.89c.53.6,1.1,1.38,1.65,2.06a45,45,0,0,1,3.07,4.4c.47.76.86,1.57,1.29,2.35l.63,1.18.54,1.23a45.37,45.37,0,0,1,3.19,10.16,64.55,64.55,0,0,1,.32,20.88c-.48,3.42-1.15,6.8-2,10.13l-.65,2.46-.32,1.22-.22,1.09a23.22,23.22,0,0,0-.48,4.46c-.09,6.05,2.24,12.08,5.38,17.67q1.2,2.1,2.52,4.16c.45.68.88,1.36,1.36,2.05s.91,1.28,1.45,2.23a16.85,16.85,0,0,1,2,11.41,12.06,12.06,0,0,1-2.63,5.66,9.59,9.59,0,0,1-2.59,2.12,13.58,13.58,0,0,1-1.52.68c-.45.16-.82.26-1.23.4l-4.83,1.54c-1.62.5-3.21,1.06-4.86,1.45A187.6,187.6,0,0,1,552,352.14a190.6,190.6,0,0,1-40.45,2.17,183.58,183.58,0,0,1-77.41-21.51,1.37,1.37,0,0,1,1.28-2.41Z"/><path class="cls-4" d="M439,407.46a133.5,133.5,0,0,0-20.27,12.7,82.35,82.35,0,0,0-8.85,7.84c-.35.35-.65.68-1.13,1.11a9.9,9.9,0,0,1-1.38,1.17,8.77,8.77,0,0,1-1.58,1c-.28.14-.56.28-.85.41l-.9.29a13.8,13.8,0,0,1-7.11.09,37.06,37.06,0,0,1-6.14-2c-1.93-.8-3.78-1.65-5.62-2.47a71.09,71.09,0,0,0-11-4.11,29.7,29.7,0,0,0-5.52-1,24,24,0,0,0-5.47.16l-1.35.21-1.33.32c-.89.17-1.74.55-2.61.81s-1.7.69-2.53,1.11-1.61.82-2.5,1.36c-7,4-13.94,8.32-21.51,11.79a76.41,76.41,0,0,1-11.8,4.42,48.23,48.23,0,0,1-12.78,1.8,36.12,36.12,0,0,1-12.9-2.44,39.74,39.74,0,0,1-11.1-6.78c-6.51-5.66-11.24-12.72-15.19-20l0-.07-.07-.16a16.82,16.82,0,0,1-.58-1.9c-.17-.6-.26-1.19-.39-1.79a35.45,35.45,0,0,1-.47-3.55,46.55,46.55,0,0,1-.06-7.05,62,62,0,0,1,2.61-13.62c.35-1.1.68-2.2,1.05-3.28l1.25-3.2.63-1.6.73-1.55,1.46-3.1c1-2,2.17-4,3.25-6l3.62-5.76A1.37,1.37,0,0,1,283,364l0,.07-3.27,5.77c-1,2-2,3.95-2.88,5.95l-1.27,3-.63,1.52-.54,1.55-1.08,3.1c-.31,1-.59,2.1-.88,3.15a57.91,57.91,0,0,0-2,12.79,44.63,44.63,0,0,0,.25,6.37,30.64,30.64,0,0,0,.5,3.09c.13.49.22,1,.37,1.48a13.59,13.59,0,0,0,.43,1.3l-.11-.23c3.95,6.83,8.63,13.25,14.5,18.11a34.17,34.17,0,0,0,9.65,5.61,30.24,30.24,0,0,0,10.86,1.78c7.46-.06,14.94-2.52,22.09-5.72s14.13-7.23,21.24-11.19c.85-.49,1.9-1,2.86-1.48s2-.86,3.05-1.27,2.1-.72,3.2-.92l1.63-.36,1.65-.23a29.31,29.31,0,0,1,6.63-.06,34.92,34.92,0,0,1,6.4,1.23,69.72,69.72,0,0,1,11.65,4.67c3.66,1.74,7.23,3.63,10.73,4.53a9.45,9.45,0,0,0,4.88.15l.55-.15.52-.24a4.84,4.84,0,0,0,1-.58,6,6,0,0,0,1-.76c.29-.23.69-.63,1.06-1a78.54,78.54,0,0,1,9.57-7.93A129.06,129.06,0,0,1,437.86,405a1.37,1.37,0,0,1,1.19,2.46Z"/><path class="cls-25" d="M441.5,429.51a116,116,0,0,0-42,61.26c-2,.57-4,1.21-6,1.83-2.37.74-4.73,1.46-7,2.07a128.82,128.82,0,0,1,49.06-75.44C441.65,414.66,447.59,425,441.5,429.51Z"/><path class="cls-18" d="M714.38,327.14a1.5,1.5,0,0,0,0-3,1.5,1.5,0,0,0,0,3Z"/></svg>