<svg id="Layer_1" data-name="Layer 1" xmlns="http://www.w3.org/2000/svg" viewBox="0 0 960 560"><defs><style>.cls-1{fill:#7abcff;}.cls-2{fill:#e199ff;}.cls-3{fill:#e8b0ff;}.cls-4{fill:#ffa792;}.cls-5{fill:#ff8e73;}.cls-6{fill:#ff7757;}.cls-7{fill:#ffa08a;}.cls-8{fill:#ffc9bd;}.cls-9{fill:#ff957d;}.cls-10{fill:#e5a6ff;}.cls-11{fill:#233940;}</style></defs><title>woman, people, person, avatar</title><path class="cls-1" d="M587.08,467.58c-34.2,24.24-73.71,40.68-109,40.68a165.8,165.8,0,0,1-91-26.72C330,444.62,295,374.08,295,299.44c0-108.76,88.16-196.93,196.93-196.93s59.74,130.82,152.67,190.57C706.4,332.82,658.32,417.1,587.08,467.58Z"/><path class="cls-2" d="M587.08,467.58c-34.2,24.24-73.71,40.68-109,40.68a165.8,165.8,0,0,1-91-26.72l-6.95-63.45,180.33-29.87S576.6,426.41,587.08,467.58Z"/><path class="cls-3" d="M457.9,439.94s66.29,77.54,130,13.83-43.7-154.06-43.7-154.06Z"/><circle class="cls-4" cx="610.57" cy="362.5" r="8.02"/><path class="cls-5" d="M457.43,114.66c-6.45.24-12.48-1.62-12.81-4.13,0,0-39.58-11.78-55.68,14l0,0c-5,8.14-12.8,18.35-27.55,18.87-4,.14-6.57,1.27-8,3-2.7-7.24-9.07-27.64-4.41-49.22,0,0-36.93-3.13-36.21-40.28s42-38.08,45.34-36.33c2.61,1.38,20.5,1.67,27.44,21.61a31.24,31.24,0,0,0,27,21c21,1.67,49.36,8.31,59.07,31.18C477.8,109.2,467.14,114.3,457.43,114.66Z"/><path class="cls-6" d="M388.92,124.57a37.38,37.38,0,0,0-2.38,4.49c-14.11,31.62-32.08,20.19-32.08,20.19s-.44-1-1.12-2.78c1.46-1.76,4-2.89,8-3C376.12,142.93,383.88,132.71,388.92,124.57Z"/><path class="cls-4" d="M468.41,295.29,382.67,316l-24.34-80.76s26.46-2.68,24.34-24.06L365,178.85s-18.71-23.79-11.63-32.37c1.46-1.76,4-2.89,8-3,14.75-.52,22.51-10.73,27.55-18.87l0,0a32.43,32.43,0,0,1,12-11.38c18.37-10.15,43.66-2.62,43.66-2.62.33,2.51,6.36,4.37,12.81,4.13,7.12,31.22,5,87.09-5.34,111.21-.4.93-.76,1.86-1.08,2.79C439.78,260.48,468.41,295.29,468.41,295.29Z"/><path class="cls-7" d="M452.09,225.87c-.4.93-.76,1.86-1.08,2.79l-23.81,5.51S420.75,227.53,430,217s.28-18.53.28-18.53-1-9.55,7.74-19.08a21,21,0,0,0,4.43-20.74s-4.67-7.31-13.55-28.21c-7.61-17.9-23.5-17.71-27.89-17.29,18.37-10.15,43.66-2.62,43.66-2.62.33,2.51,6.36,4.37,12.81,4.13C464.56,145.88,462.48,201.75,452.09,225.87Z"/><path class="cls-8" d="M429.13,66c2,.19-3,.27-7.8,1.18a124.08,124.08,0,0,0-33,11.14l-.24.12a90.2,90.2,0,0,0-9.18,5.45,167.21,167.21,0,0,0-15.37,11,38.37,38.37,0,0,1-13.78,2.2c0,.24-.08.5-.11.76l-.69-.6s0-.07,0-.2a52.12,52.12,0,0,1,2.4-7.29,59.91,59.91,0,0,1,14.81-21.65,51.2,51.2,0,0,1,15.13-9.6c5-2.08,4.76-16.57,4.67-16.85C386,41.66,389.4,62.22,429.13,66Z"/><path class="cls-9" d="M451.54,292.52l-11.89,4.15s-8.3-21.3-8.3-38.17c0-7.46-5.9-13.84-12.48-18.64a3,3,0,0,1,1.74-5.31A44.56,44.56,0,0,0,440.12,230c.86,20.16,6.13,41.45,12.52,62.24Z"/><path class="cls-3" d="M583.09,361.12l-32.18,81.33s2.46,119.06-151.09,96.7l-3-.46c-18.11-2.82-33.25-8.64-45.86-16.67-18.31-11.65-31.32-28-40.44-46.53C284.82,423.2,290,353,294.88,317.9a1.61,1.61,0,0,1,0-.24c1.86-13.36,3.67-21.54,3.67-21.54a143.29,143.29,0,0,1,6.17-17.3c4.44-10.44,11.33-23.45,20.87-32.66h0c6.23-6,13.6-10.42,22.13-11.4a32.24,32.24,0,0,1,10,.41l.59.11.29.2s0,0,0,0c1.69,1.21,10,7.58,19.35,22.81a156,156,0,0,1,10.73,21.4c5.68,13.69,17.11,18.3,28.7,19.3h0c16.89,1,34.09-6.32,34.09-6.32l2-.48L511,280.39s23.37,2,46.47,32.89,32.08,31.53,32.08,31.53Z"/><path class="cls-2" d="M440.43,386.83A92,92,0,0,1,440.2,373l5.13,32,3.16,19.68,0,.21c-30.78,4.67-64.3-13.57-54.91-76.37,2.08,14.13,9.35,43.67,23.34,47.7,16.32,4.7.87-39.24,27.66-62.78,9.13-8-5.6-37-5.26-37.06,3.18-.19,9.71-3,13-4.43,2-.89,9.53,21.84,18.35,42.18A46.44,46.44,0,0,0,440.43,386.83Z"/><path class="cls-10" d="M607.35,376.63a1,1,0,0,1,0,.18A69,69,0,0,1,602,395a70,70,0,0,1-4.24,8l-58.52,25-1.78.76c-17.67-16.19-38.51-26.77-67.7-11A65.24,65.24,0,0,1,451,424.48c-.83.17-1.66.31-2.5.43l0-.21L445.33,405l1.14-.17c1.56-.27,3.12-.56,4.67-.89a179.22,179.22,0,0,0,68.68-30.6c10.18-7.41,18.67-16.33,28-24.7,6.18-5.56,13.7-13,21.86-17.27l.08,0a30.49,30.49,0,0,1,8.39-3.08Z"/><path class="cls-10" d="M365,528.45q-7.12-3.52-14.05-6.44c-18.31-11.65-31.32-28-40.44-46.53C284.82,423.2,290,353,294.88,317.9a1.61,1.61,0,0,1,0-.24s12.44-20.16,23.59-.24-32.17,131.1,57,151.84S418.71,555.09,365,528.45Z"/><path class="cls-10" d="M550.26,442.88s2.25,118.62-151.75,96.26v-1c37,4,87.7-11.74,104.83-45.41,6-11.69,8.85-24.75,10.85-37.71,2.39-15.55,4.08-30.87,8.27-46s10.9-32,22.63-47h38Z"/><path class="cls-4" d="M468.68,335.12s-47-98.46-20.47-148.25c0,0,14.38-17.15,27.66,29.87L482,197.93s10-10,8.85,23.79,13.35,49.81,13.35,49.81,28.69,32.61-22.75,58.61Z"/><path class="cls-4" d="M499.36,409.27l.66.08C499.74,409.33,499.52,409.3,499.36,409.27Z"/><path class="cls-4" d="M632,355.41H632c-8,.93-15.83,1.53-23.87,1.76-1,3.67-.63,8.05-.51,12.37a42.64,42.64,0,0,1-.24,7.08,1,1,0,0,1,0,.18A69,69,0,0,1,602,395a63.57,63.57,0,0,1-4.24,8c-9.14,14.4-12,5-17.35,8.92a8.23,8.23,0,0,0-.81.66c-9,8.44-23.69,11.62-28.69,29.88-4.41-5.41-8.84-9.35-12.25-13.56C532,420.66,522.52,422.32,521,417c-1.31-4.49,1.94-11.37,3.7-15.4q3.83-8.78,8.09-17.35,6.31-12.66,13.54-24.81c4.49-7.57,8.83-15.32,15.1-21.61,2.48-2.47,5.89-4,8.28-6.43l.08,0q.48-.28,1-.53a25.62,25.62,0,0,1,7.42-2.54,16.7,16.7,0,0,1,7.28.21c5.86,1.67,34.85,6.52,48.6,8.77l7.27,1.18.12,0C653.24,341.79,648,351.39,632,355.41Z"/><path class="cls-7" d="M607.35,376.63a1,1,0,0,1,0,.18A69,69,0,0,1,602,395a63.57,63.57,0,0,1-4.24,8c-8,12.54-11.13,7.05-15.37,8a2.62,2.62,0,0,1-3-1.66h0a2.68,2.68,0,0,1,1.9-3.56c3.86-.94,5.87-5.4,11-12.83,16.4-23.7-20.68-34.06-10.79-39.55,1.06-.59,20.39,2.12,20.19,3.32-.45,2.78-.42,10.08,4.39,12.29l1.52,2.46A35.12,35.12,0,0,1,607.35,376.63Z"/><path class="cls-2" d="M401.39,230.37c.35.13,1.17.46,2.33,1C403,231,402.17,230.72,401.39,230.37Z"/><path class="cls-7" d="M417.16,148.28A23.44,23.44,0,0,0,397,151.47c-1.75,1.2-.09,4.08,1.68,2.87a20.19,20.19,0,0,1,17.59-2.85C418.33,152.09,419.21,148.89,417.16,148.28Z"/><path class="cls-7" d="M451.46,144.71a13.11,13.11,0,0,0-14.63-1.37c-1.88,1-.21,3.88,1.68,2.87a9.64,9.64,0,0,1,10.61.86C450.77,148.37,453.13,146,451.46,144.71Z"/><path class="cls-7" d="M425.19,203.56a25.42,25.42,0,0,1-23.64-12.38c-1.1-1.83-4-.16-2.87,1.68a28.71,28.71,0,0,0,26.51,14C427.32,206.75,427.33,203.43,425.19,203.56Z"/><path class="cls-11" d="M569,330.43a12.74,12.74,0,0,1,2.86-2.18,13,13,0,0,1,3.39-1.28,17.46,17.46,0,0,1,3.48-.45c.57,0,1.15-.06,1.72,0l1.69.06a100.89,100.89,0,0,1,13,2c8.44,1.67,16.76,3.31,25.16,4.39,4.2.55,8.38,1,12.65,1.27l3.2.25c1.14.1,2.3.25,3.46.46a20,20,0,0,1,7.09,2.53,9.27,9.27,0,0,1,3.28,3.4,7,7,0,0,1,.81,2.64,7.35,7.35,0,0,1-.25,2.67,10.15,10.15,0,0,1-2.22,3.89,17,17,0,0,1-2.88,2.57,29.32,29.32,0,0,1-6.27,3.32,44,44,0,0,1-6.53,2l.52-.19a2.82,2.82,0,0,1-1.2.28l.62-.08a67.51,67.51,0,0,1-19.33,1.3,89.52,89.52,0,0,1-18.8-3.39,1.37,1.37,0,0,1,.65-2.67,99,99,0,0,0,18.3,1.95,66.8,66.8,0,0,0,17.93-2.16l.62-.08a2.34,2.34,0,0,0-1.09.26l.52-.19A32,32,0,0,0,642.06,348a11.25,11.25,0,0,0,1.84-1.78,4.34,4.34,0,0,0,.91-1.67,1.18,1.18,0,0,0-.12-.91,3.4,3.4,0,0,0-1.21-1.11,16.51,16.51,0,0,0-5-1.71c-.95-.19-1.92-.33-2.91-.43l-1.58-.15-1.63-.17c-4.27-.42-8.61-1-12.89-1.7s-8.54-1.56-12.76-2.51-8.39-2-12.54-3.07a117.23,117.23,0,0,0-12.33-2.6l-1.52-.16c-.5,0-1,0-1.5-.06a14.28,14.28,0,0,0-2.91.16,9.89,9.89,0,0,0-5.05,2.3,1.37,1.37,0,0,1-1.85-2Z"/><path class="cls-11" d="M546.39,361.66a124.39,124.39,0,0,0-12.64,21.08,153.8,153.8,0,0,0-8.61,23.06c-4.67,15.77-6.19,32.28-8.61,48.75a177.2,177.2,0,0,1-5.09,24.65A91.47,91.47,0,0,1,507,491.13c-.45,1-.91,1.93-1.4,2.88l-1.54,2.84-1.71,2.74c-.57.91-1.23,1.76-1.84,2.64a77.18,77.18,0,0,1-18.43,17.64,111.58,111.58,0,0,1-22.4,11.91,137.32,137.32,0,0,1-24.3,7.08,131.54,131.54,0,0,1-25.22,2.48,105.05,105.05,0,0,1-25.26-3.13,115,115,0,0,1-12.18-3.71c-4-1.41-7.83-3.28-11.69-5a124.84,124.84,0,0,1-21.51-13.61,118.1,118.1,0,0,1-18-18c-10.79-13.2-18.31-28.71-23.68-44.69a222.21,222.21,0,0,1-9.76-49.42c-.41-4.18-.62-8.37-.86-12.55s-.29-8.38-.26-12.57c0-8.37.27-16.75.89-25.09a376.23,376.23,0,0,1,6.84-49.69,176.93,176.93,0,0,1,7-24.27,105.27,105.27,0,0,1,11.46-22.72,61.5,61.5,0,0,1,18.35-18,49.45,49.45,0,0,1,11.89-5.29,41.14,41.14,0,0,1,6.49-1.41,21.06,21.06,0,0,1,6.94.48,20.29,20.29,0,0,1,6.34,2.76,28.16,28.16,0,0,1,5.17,4.29A54.41,54.41,0,0,1,376,250.1c4.27,7.35,7.43,15.12,11.06,22.45.91,1.82,1.87,3.61,2.91,5.28a48.66,48.66,0,0,0,3.5,4.82,41.14,41.14,0,0,0,8.78,8,43.11,43.11,0,0,0,22.49,7.11,54,54,0,0,0,23.49-4.69A62,62,0,0,0,468,279.14a1.37,1.37,0,0,1,2,1.88,64.88,64.88,0,0,1-20.49,14.85,57.3,57.3,0,0,1-24.86,5.31,46.21,46.21,0,0,1-24.45-7.45,48.54,48.54,0,0,1-16.67-19.4c-3.81-7.51-7-15.13-11.15-22.1a50.26,50.26,0,0,0-7.09-9.56,23.78,23.78,0,0,0-4.42-3.6,15.86,15.86,0,0,0-5-2.14,16.55,16.55,0,0,0-5.42-.31,37.3,37.3,0,0,0-5.64,1.3A44.79,44.79,0,0,0,334,242.82a56.68,56.68,0,0,0-16.73,16.79,100.25,100.25,0,0,0-10.68,21.74A176.93,176.93,0,0,0,300,305a371,371,0,0,0-6.37,48.94c-.56,8.22-.76,16.45-.7,24.67,0,4.11.18,8.22.3,12.32s.44,8.2.84,12.29a216.25,216.25,0,0,0,9.48,48.07A159.74,159.74,0,0,0,313,473.75c1,1.78,1.87,3.6,2.89,5.36l3.14,5.21c2.25,3.37,4.51,6.74,7.07,9.87a112.36,112.36,0,0,0,17,17.28,119.31,119.31,0,0,0,20.39,13.11c3.68,1.7,7.31,3.53,11.13,4.89a109.71,109.71,0,0,0,11.59,3.63,99.87,99.87,0,0,0,24,3.16A126.57,126.57,0,0,0,434.48,534,132.54,132.54,0,0,0,458,527.39a107,107,0,0,0,21.55-11.25A72.76,72.76,0,0,0,497,499.65c4.84-6.37,8-13.9,10.43-21.66a173.33,173.33,0,0,0,5.14-24c2.56-16.3,4.34-33,9.31-49.11A157,157,0,0,1,531,381.41,127.29,127.29,0,0,1,544.2,360h0a1.37,1.37,0,0,1,2.18,1.65Z"/><path class="cls-11" d="M460.71,188a11.06,11.06,0,0,0-4.93-2.74,5.82,5.82,0,0,0-4.83,1.2,14.54,14.54,0,0,0-3.68,4.39,30.72,30.72,0,0,0-2.46,5.56,35.47,35.47,0,0,0-1.43,5.95c-.26,2-.46,4.2-.61,6.3-.3,4.25-.41,8.51-.36,12.78.16,17.07,2.82,34.09,6.77,50.73q1.52,6.24,3.2,12.44c1.13,4.13,2.36,8.24,3.61,12.33,2.57,8.18,5.49,16.25,8.7,24.21a274.5,274.5,0,0,0,23.56,45.75h0a1.37,1.37,0,0,1-2.26,1.56,245.07,245.07,0,0,1-25.91-45.36,272.3,272.3,0,0,1-16.82-49.57,238.32,238.32,0,0,1-4.42-25.88,195.2,195.2,0,0,1-1.36-26.25c.1-4.39.37-8.78.84-13.15.24-2.21.5-4.31.88-6.59a39.55,39.55,0,0,1,1.84-6.6,33.1,33.1,0,0,1,3.06-6.16,17.94,17.94,0,0,1,4.89-5.24,9.84,9.84,0,0,1,3.55-1.53,8.78,8.78,0,0,1,3.92.1,10.75,10.75,0,0,1,3.39,1.54,18.21,18.21,0,0,1,2.73,2.23,1.37,1.37,0,0,1-1.83,2Z"/><path class="cls-11" d="M395.31,346.56c-1.63,11.46-2.15,23.13-.51,34.43a62.48,62.48,0,0,0,4.48,16.31A43,43,0,0,0,408.49,411a40.47,40.47,0,0,0,13.74,8.84,48.82,48.82,0,0,0,16.23,2.94A60.41,60.41,0,0,0,455,420.55c1.35-.35,2.66-.84,4-1.25s2.62-1,3.89-1.54,2.56-1.1,3.79-1.77l3.91-2,2-1a21.18,21.18,0,0,1,2.07-1l4.25-1.71a63,63,0,0,1,8.91-2.38,47.79,47.79,0,0,1,18.52.08,54.63,54.63,0,0,1,17.08,6.78,88.31,88.31,0,0,1,14.34,10.91c4.42,4,8.48,8.31,12.44,12.65l1.48,1.63c.49.54,1,1.08,1.48,1.7,1,1.18,1.9,2.4,2.8,3.62,1.72,2.45,3.3,4.91,4.92,7.31a83,83,0,0,0,5.1,6.85,40.05,40.05,0,0,0,6,5.72,27,27,0,0,0,15.49,5.13,1.37,1.37,0,0,1,0,2.74A30.16,30.16,0,0,1,570,468a40.29,40.29,0,0,1-6.87-6.07,86.64,86.64,0,0,1-5.57-7c-1.72-2.4-3.37-4.81-5.07-7.1-.87-1.11-1.72-2.24-2.65-3.24-.44-.51-.94-1-1.44-1.57l-1.51-1.57c-4-4.18-8.12-8.27-12.47-12a87,87,0,0,0-13.77-9.93,49,49,0,0,0-15.45-5.79c-10.8-2-22,.6-32,5.72l-1.89.93-2,1c-1.35.72-2.77,1.3-4.17,1.91s-2.86,1.07-4.29,1.61-2.91.93-4.39,1.29a66.09,66.09,0,0,1-18.15,2.16,54.2,54.2,0,0,1-18-3.6A44.54,44.54,0,0,1,405,414.47,47.67,47.67,0,0,1,395.18,399a66.69,66.69,0,0,1-4.33-17.51c-1.31-11.91-.3-23.82,1.77-35.4a1.37,1.37,0,0,1,2.7.43Z"/><path class="cls-11" d="M440.1,391.33a47.17,47.17,0,0,1-2-17.9A48.14,48.14,0,0,1,454,341.34a45.62,45.62,0,0,1,15.94-9.26,2.4,2.4,0,0,1,.72-.12h.07l-.82.13a82.43,82.43,0,0,0,19.61-9.9,53,53,0,0,0,15-15.27,29,29,0,0,0,4-9.44l.24-1.23c.06-.41.08-.82.13-1.24a21.58,21.58,0,0,0,.1-2.48,24.39,24.39,0,0,0-.67-5,39.9,39.9,0,0,0-4-9.76c-.86-1.6-1.8-3.17-2.78-4.76s-2-3.35-2.94-5.07a86.75,86.75,0,0,1-8.38-21.85,79.18,79.18,0,0,1-1.84-11.63,72.77,72.77,0,0,1,.72-11.75c.43-3.77.86-7.48.93-11.14s-.24-7.28-1.61-10.29a10.86,10.86,0,0,0-1.26-2.07,6.37,6.37,0,0,0-1.52-1.5c-.49-.24-.52-.26-.92-.06a4.59,4.59,0,0,0-1.32,1.55,22.73,22.73,0,0,0-2,4.91c-.52,1.77-.91,3.55-1.29,5.43a1.37,1.37,0,0,1-2.7-.48v0c.29-1.86.63-3.8,1.09-5.69a25.59,25.59,0,0,1,2-5.72,7.71,7.71,0,0,1,2.29-2.78,4.32,4.32,0,0,1,2.24-.76,4.67,4.67,0,0,1,2.21.55,7.66,7.66,0,0,1,.84.52c.25.19.47.38.7.58A14,14,0,0,1,490,197a14.51,14.51,0,0,1,1.78,2.72c1.9,3.88,2.27,8,2.34,11.92s-.29,7.78-.59,11.56a69.47,69.47,0,0,0-.35,11l.06.63.1.68.2,1.36c.14.91.31,1.81.47,2.72.36,1.8.75,3.6,1.23,5.37a84.58,84.58,0,0,0,8.39,20.31c.9,1.6,1.88,3.16,2.88,4.71s2.1,3.28,3.07,5a43.69,43.69,0,0,1,4.67,11.22,29,29,0,0,1,.87,6.27,27.77,27.77,0,0,1-.14,3.2c-.06.53-.1,1.06-.19,1.59l-.31,1.56a34.18,34.18,0,0,1-4.9,11.36,58.66,58.66,0,0,1-17,16.65,87.7,87.7,0,0,1-21.09,10.15h0a2.45,2.45,0,0,1-.78.12h0l.78-.12A41.66,41.66,0,0,0,457,344.82a43.8,43.8,0,0,0-10.45,13,45.84,45.84,0,0,0-5.05,16,44.06,44.06,0,0,0,1.24,16.9,1.36,1.36,0,0,1-2.62.78Z"/><path class="cls-11" d="M432.34,183.17c1.19-1.82,2.46-3.58,3.69-5.37l1.89-2.64,1-1.31.48-.65.24-.32.16-.28a10.78,10.78,0,0,0,.82-9.82,13,13,0,0,0-1.13-2.22c-.25-.33-.46-.7-.74-1l-.4-.5-.55-.6q-2.18-2.42-4.31-4.88c-2.87-3.26-5.69-6.57-8.39-10a1.38,1.38,0,0,1,1.94-1.94c3.42,2.71,6.73,5.53,10,8.39q2.46,2.14,4.88,4.31l.6.55.7.7a13.62,13.62,0,0,1,3.13,5.07,15.54,15.54,0,0,1-2.6,14.88l-.31.39-.28.3-.57.59L441.4,178l-2.29,2.34c-1.56,1.53-3.08,3.09-4.68,4.58a1.38,1.38,0,0,1-2.09-1.76Z"/><path class="cls-11" d="M347.5,108.54a69.88,69.88,0,0,1,1.63-16.35,47.43,47.43,0,0,1,6.36-15.34A40.36,40.36,0,0,1,367.37,65c1.18-.77,2.4-1.47,3.64-2.12q.94-.48,1.89-.92l.94-.43.82-.39a16.53,16.53,0,0,0,5.54-4.52,16.79,16.79,0,0,0,3.41-13.47,16.32,16.32,0,0,0-2.77-6.47c-.38-.46-.72-.92-1.14-1.39L378.41,34,377,32.64c-.47-.43-1-.83-1.44-1.24a37.3,37.3,0,0,0-13.32-7,36.73,36.73,0,0,0-15-1,35.66,35.66,0,0,0-14.11,4.93,38,38,0,0,0-11,10.16,35.65,35.65,0,0,0-6,13.63l-.38,1.83-.2,1.87a22.65,22.65,0,0,0-.21,3.74,34.07,34.07,0,0,0,18.31,30.26A35.55,35.55,0,0,0,362.48,92l-.93.53a169.89,169.89,0,0,1,16.06-11.4l8.45-5,.53-.31.61-.32,1.06-.56c.7-.38,1.45-.75,2.18-1.12,1.47-.74,3-1.45,4.46-2.14a87.1,87.1,0,0,1,18.91-6.34,50.23,50.23,0,0,1,10.15-1,70.55,70.55,0,0,1,10,.82,59.61,59.61,0,0,1,19.11,6.24,49.1,49.1,0,0,1,8.41,5.7,48.56,48.56,0,0,1,3.74,3.48c.58.62,1.12,1.28,1.68,1.93l.83,1c.27.33.5.69.76,1L470,86.58c.45.72.87,1.46,1.31,2.2l.65,1.1c.2.37.37.77.56,1.15l1.09,2.31a12.41,12.41,0,0,1,.48,1.18l.45,1.34a8.59,8.59,0,0,1,.33,1.37c.08.46.2.92.24,1.38a17,17,0,0,1-.34,5.59,16.71,16.71,0,0,1-5.91,9.2,16.54,16.54,0,0,1-10.3,3.54,2,2,0,0,1-.6-.09h0a140.63,140.63,0,0,0-18.17-4.26A105.56,105.56,0,0,0,421.18,111a51.07,51.07,0,0,0-18,3.06,26.14,26.14,0,0,0-7.64,4.61,22.66,22.66,0,0,0-5.36,7v0a1.37,1.37,0,0,1-2.48-1.18,25.53,25.53,0,0,1,5.86-8.1,29.21,29.21,0,0,1,8.4-5.35,54.13,54.13,0,0,1,19.14-3.73,109.26,109.26,0,0,1,19.25,1.28,144.28,144.28,0,0,1,18.84,4.11l-.64-.1a12.27,12.27,0,0,0,11.8-9.54,12.42,12.42,0,0,0,.18-4c0-.33-.13-.66-.19-1a5.15,5.15,0,0,0-.25-1l-.33-.95a10.24,10.24,0,0,0-.45-1.05l-1-2c-.17-.34-.32-.69-.51-1l-.59-1L466,89.24l-1.36-1.82c-.23-.3-.44-.61-.68-.9l-.76-.85c-.51-.56-1-1.14-1.52-1.69a44.59,44.59,0,0,0-11-8,55.46,55.46,0,0,0-17.51-5.43,65.08,65.08,0,0,0-9.23-.65,44.71,44.71,0,0,0-9,1A81.44,81.44,0,0,0,397.36,77c-1.42.67-2.83,1.37-4.22,2.09-.7.37-1.39.72-2.1,1.11l-1.06.58-.27.15-.19.1-.51.31-8.16,4.87a167.57,167.57,0,0,0-15.39,11l0,0a3.24,3.24,0,0,1-.91.51A41.54,41.54,0,0,1,330.88,95a39.81,39.81,0,0,1-21-35.57,27.4,27.4,0,0,1,.28-4.3L310.4,53l.45-2.11a41.07,41.07,0,0,1,7-15.59,43.21,43.21,0,0,1,12.64-11.47,40.65,40.65,0,0,1,16.15-5.46,41.25,41.25,0,0,1,31.82,9.57c.53.47,1.07.93,1.59,1.42l1.51,1.5L383,32.42c.47.55.93,1.17,1.39,1.75a20.67,20.67,0,0,1,3.4,8.28,21,21,0,0,1-4.49,16.77,20.23,20.23,0,0,1-6.94,5.47c-.33.16-.67.31-1,.45l-.9.38q-.88.39-1.75.81c-1.15.57-2.28,1.19-3.36,1.86a36.77,36.77,0,0,0-11,10.54,44.2,44.2,0,0,0-6.21,14.17,67,67,0,0,0-1.88,15.63,1.37,1.37,0,0,1-2.73,0Z"/><path class="cls-11" d="M366.14,149c-2.27-1.8-4.75-3.37-7.13-3.47a4,4,0,0,0-3,.86,5,5,0,0,0-1.35,2.86,17.92,17.92,0,0,0,.76,7.92,16.57,16.57,0,0,0,.7,1.86c.24.54.6,1.18.95,1.78.71,1.22,1.51,2.41,2.36,3.61,1.69,2.38,3.59,4.82,5.24,7.5a89.55,89.55,0,0,1,4.59,8.1c2.75,5.51,5.15,11.1,7.56,16.55,1.22,2.72,2.46,5.4,3.76,8s2.72,5.15,4.23,7.61a47.94,47.94,0,0,0,11.37,12.65,40.34,40.34,0,0,0,7.3,4.35,45.26,45.26,0,0,0,8.14,2.69,50.72,50.72,0,0,0,8.62,1.06,66.31,66.31,0,0,0,8.8-.33h0a1.37,1.37,0,0,1,.37,2.72,62.88,62.88,0,0,1-9.21,1.07,50.9,50.9,0,0,1-9.36-.55,45.71,45.71,0,0,1-9.16-2.46A44.75,44.75,0,0,1,386,222.71L384.38,221l-1.51-1.83c-.52-.6-1-1.23-1.45-1.87L380,215.35a76,76,0,0,1-4.8-8c-.73-1.37-1.39-2.76-2.06-4.15s-1.27-2.8-1.86-4.2c-2.43-5.59-4.55-11.19-7-16.54-1.27-2.65-2.54-5.3-4-7.79s-3.16-4.9-4.82-7.53c-.83-1.31-1.65-2.66-2.38-4.09-.37-.72-.72-1.42-1.06-2.27a21,21,0,0,1-.77-2.42,25.64,25.64,0,0,1-.76-4.88,18,18,0,0,1,.38-5.09,8.55,8.55,0,0,1,2.93-4.9,6.83,6.83,0,0,1,2.77-1.26,8.81,8.81,0,0,1,2.8-.11,11.82,11.82,0,0,1,4.87,1.8,25.29,25.29,0,0,1,3.75,3,1.37,1.37,0,0,1-1.78,2.07Z"/><path class="cls-11" d="M401.07,193c.66.77,1.43,1.64,2.21,2.39a31.22,31.22,0,0,0,2.46,2.14,26.89,26.89,0,0,0,5.38,3.31,51,51,0,0,0,5.73,2.72c1,.45,2.08.66,3.15,1s2.2.51,3.33.84l.18.05a1.38,1.38,0,0,1-.18,2.69,32.53,32.53,0,0,1-3.76.43c-.64,0-1.28,0-1.92,0-.32,0-.65,0-1,0l-1-.12-1.94-.28c-.64-.16-1.28-.3-1.92-.48A10.81,10.81,0,0,1,410,207a12.11,12.11,0,0,1-1.79-.88,22.91,22.91,0,0,1-5.94-5.2,19.09,19.09,0,0,1-3.68-6.9,1.37,1.37,0,0,1,2.36-1.26Z"/><path class="cls-11" d="M396.36,149.67a15.18,15.18,0,0,1,3.77-4.06,17.09,17.09,0,0,1,5-2.62,11.77,11.77,0,0,1,5.77,0,13.32,13.32,0,0,1,5.15,2.23,1.41,1.41,0,0,1-.78,2.56h-.19a26.56,26.56,0,0,0-4.46.22,15.64,15.64,0,0,0-2,.42,17.43,17.43,0,0,1-2,.5,24.6,24.6,0,0,0-4.13,1c-1.38.46-2.85,1.09-4.21,1.69l-.2.09a1.39,1.39,0,0,1-1.74-2Z"/><path class="cls-11" d="M435.82,143.54a9.2,9.2,0,0,1,1.53-2,10.82,10.82,0,0,1,2-1.55,11.51,11.51,0,0,1,4.9-1.63,7,7,0,0,1,2.56.33c.41.13.82.25,1.2.42l1.12.53a14.1,14.1,0,0,1,2,1.31,17.59,17.59,0,0,1,1.67,1.64,1.42,1.42,0,0,1-1.21,2.37l-.22,0c-.7-.08-1.34-.21-2-.32s-1.23-.18-1.82-.19c-1.18-.14-2.25.14-3.24,0a12.19,12.19,0,0,0-3.14.07,14.21,14.21,0,0,0-1.68.36c-.56.14-1.18.4-1.69.54l-.45.13a1.36,1.36,0,0,1-1.57-2Z"/></svg>