<svg id="Layer_1" data-name="Layer 1" xmlns="http://www.w3.org/2000/svg" viewBox="0 0 960 560"><defs><style>.cls-1{fill:#b3d1ff;}.cls-2{fill:#ff8f73;}.cls-3{fill:#eb7457;}.cls-4{fill:#6373c2;}.cls-5{fill:#ffeede;}.cls-6{fill:#ffdebf;}.cls-7{fill:#4052ad;}.cls-8{fill:#233940;}</style></defs><title>yoga, meditation, relaxation, exercise</title><path class="cls-1" d="M415.11,465.49c31.13-1.13,62.23-3.79,92.87-9.48,44.83-8.33,88.84-23.33,127.1-48.12,15.42-10,31.76-22.77,38.9-40.32,7.71-19,6.1-41.22,6.48-61.22a331.11,331.11,0,0,0-3.71-56.16A317.72,317.72,0,0,0,656,175.57a267.79,267.79,0,0,0-43-70.76c-22.26-26-51.12-46.91-83.13-59.11a186.18,186.18,0,0,0-19.59-6.26L508.53,39A170.34,170.34,0,0,0,457,34.12c-33.08,2-67.28,19.94-80.65,51.45-13.07,30.79.85,55.12,7.67,84.8,4.72,20.53,6.3,41.63,6.63,62.65.61,38.82-4.77,78.1-20,114a194.32,194.32,0,0,1-29.56,48.88c-5.56,6.64-11.24,14.43-18.36,19.51-9,6.44-22.53,19.22-11.82,29.43,22.57,21.52,55,21.64,83.37,21.16Q404.69,465.86,415.11,465.49Z"/><path class="cls-2" d="M681.29,316.3c-.14,4.71-.38,9.43-.77,14.09a187.93,187.93,0,0,1-9.28,46.23,9.59,9.59,0,0,1-1.75,3.19c-3.79,4.21-11,2.37-16.67,2.37h-.88c-.58,0-1.17-.17-1.77-.19-.28,0-.58-.07-.88-.09-42.17-2.51-84.09-6.72-125.71-14.07-7.11-1.26-8.52-4.5-4.19-10.28a74.24,74.24,0,0,0,14.49-34.3c3.82-25.21,5.55-50.67,6.47-76.14.46-12.74.7-25.5.9-38.26.12-7.36,5-26.83-5.73-29-2.58-.52-5.24,0-7.84.41a96.69,96.69,0,0,1-76.12-21.16,30.11,30.11,0,0,1-4.51-4.64c-4.48-30.69,6.1-63.1,26.75-86.12a109.41,109.41,0,0,1,39.5-27.88c5.35,1.51,10.65,3.26,15.86,5.24,32,12.21,60.87,33.06,83.13,59.11,31.46,36.82,51.49,82.42,61.13,129.67C678.59,259.73,682.07,288.34,681.29,316.3Z"/><path class="cls-3" d="M676.74,331.08l3.78-.69a187.39,187.39,0,0,1-9.29,46.23,8.86,8.86,0,0,1-1.74,3,43.8,43.8,0,0,1-5.84.4,905.12,905.12,0,0,1-124.82-11c-4.78-.74-19.75-2-22.07-6.77-.62-1.25-.35-2.74,1.18-4.54q.63-.74,1.21-1.48a.32.32,0,0,1,.09-.12C533,339,533.52,311.85,535.09,290.82c.42-5.63.26-11.75,1.57-17.18a2.79,2.79,0,0,1,1.74.69c.4.32.79.74,1.28,1.16a214,214,0,0,0,90.53,48.91A210.29,210.29,0,0,0,674.47,331C675.23,331,676,331.06,676.74,331.08Z"/><path class="cls-3" d="M543.3,215.78a540.73,540.73,0,0,1-4.92,71.92l-.21,1.42A509.77,509.77,0,0,1,526,349.61q-1.71,6.49-3.61,12.93l-.53,1.81c-2-.4-3.9-.83-5.87-1.27-.23,0-.44-.09-.67-.14.18-.6.35-1.2.51-1.81,6-22.72,11.4-45.44,14.84-68.71a536,536,0,0,0,5.77-71.36c0-1.23,0-2.44,0-3.68,0-4.38,0-8.76-.12-13.12s-.26-8.78-.49-13.17c-.19-3.85-.42-7.72-.69-11.57-.42-6.38-.95-12.77-1.53-19.13q-.79-8.89-1.62-17.74a5.12,5.12,0,0,1,.05-1.79,2.87,2.87,0,0,1,3-1.93,3.78,3.78,0,0,1,3,2.13,8.9,8.9,0,0,1,.7,2.88A551.37,551.37,0,0,1,543.3,215.78Z"/><path class="cls-4" d="M537.43,369c.79,2.74-.91,5.54-2.6,7.84-10.16,13.79-21.17,21.21-22.9,39.44-1,10.92,2.34,23.39,2.85,34.91a40.42,40.42,0,0,1-1.35,13.93c-3.48,11.47-13.33,16.62-24.48,19.06-5.15,1.13-10.34,2-15.58,2.62l-.39,0a223,223,0,0,1-27,1.44c-4.26,0-8.53-.14-12.77-.32a302.36,302.36,0,0,1-35.12-3.43c-.77-.12-1.55-.26-2.34-.4-6.38-1.07-12.71-2.43-18.94-4.08-.95-.25-1.92-.51-2.87-.77s-1.9-.53-2.83-.81q-2-.58-3.93-1.21A160.43,160.43,0,0,1,334.67,463a122,122,0,0,1-16.78-11.8,1.87,1.87,0,0,1-.21-.18c-15.93-13.42-28.47-30.92-35.15-50.68a97.69,97.69,0,0,1-4.8-41.17c.93-9,4.1-32.08,13-37.11a13,13,0,0,1,5.73-1.2c27.64,0,55.27-2.5,82.78-4.68,8.58-.69,17.64-.28,25.11,4,10.2,5.79,17.29,13.86,28.44,18.46a197.56,197.56,0,0,0,19,6.63c29.39,8.69,64.29,13.38,91.48,20.19,2.08.51-7.47.6-6.4,2.37A4.85,4.85,0,0,1,537.43,369Z"/><path class="cls-5" d="M668.27,380.19a1,1,0,0,1,.46,1.1,193.54,193.54,0,0,1-35.56,67.58c-5.2,6.39-9.3,4.61-16.43,4.25-6.81-.35-13.63-.44-20.45-.6-17.62-.41-35.26-.59-52.88.23-6.12.28-12.42.74-17.93,3.42-2.17,1.06-6.27,3.81-8.83,2.41-1.72-.94-5.13-5.66-1.8-5.85-6.07.34-3.51-29.71-3.09-33.57,1.49-13.86,6.61-29.83,12.78-42.33,4.45-9,10.62-13.24,20.75-11C570.61,371.3,595,376.13,621,376.7c10,1.08,20.06,1.91,30.07,2.33C653.43,379.12,665.63,378.29,668.27,380.19Z"/><path class="cls-6" d="M612.31,376.3a111.28,111.28,0,0,1-42.94,47.78c-12,7.36-29,15.73-43.49,14.76a9.47,9.47,0,0,1-4.51-1.24c-2.3-1.47-3.3-4.35-3.61-7.07-.26-2.28.65-5.65-.8-7.66a3.12,3.12,0,0,0-5.22.12,6.7,6.7,0,0,0-.68,2.78,112.88,112.88,0,0,0-.27,16.85,9.86,9.86,0,0,0,1,4.39,4.4,4.4,0,0,0,6,1.46,20.34,20.34,0,0,1,5.93-1.62,224.25,224.25,0,0,0,113.63-56.3c4.56-4.23,8.9-7,13.09-11.6C638.06,378.58,624.81,377.12,612.31,376.3Z"/><path class="cls-7" d="M516.33,458.73a24,24,0,0,1-9.88,18.57c-9,6.59-21.38,8.53-33.08,9.51l-.39,0c-3.92.33-7.79.55-11.4.81q-7.78.55-15.6.63a268,268,0,0,1-47.89-3.75c-.77-.12-1.55-.26-2.34-.4-3.39-.6-6.81-1.27-10.18-2-3-.63-5.87-1.34-8.76-2.07-.95-.25-1.92-.51-2.87-.77s-1.9-.53-2.83-.81a145.9,145.9,0,0,1-29.95-12.35,193.59,193.59,0,0,1-21.88-13.86c-.47-.35-.95-.7-1.41-1.07a1.87,1.87,0,0,1-.21-.18c-15.93-13.42-28.47-30.92-35.15-50.68a97.69,97.69,0,0,1-4.8-41.17c.93-9,4.1-32.08,13-37.11a13,13,0,0,1,5.73-1.2c27.64,0,55.27-2.5,82.78-4.68,8.58-.69,17.64-.28,25.11,4,10.2,5.79,17.29,13.86,28.44,18.46a197.56,197.56,0,0,0,19,6.63c-7.58,12.33-26,15.7-39.07,16.76-21.23,1.71-94.61-12.22-96.31,24.8-1,21.4,30.56,29.4,46.1,33.75,26.23,7.35,54,11,81,6.44,18.82-3.16,50.73-19.51,67.53-4.58l.33.28A100.23,100.23,0,0,0,511.6,437c.25,3.13,1.15,6.28,1.7,9.39.11.62.87,1.23.87,1.85v.14a2.39,2.39,0,0,0,.31,1.25c.09.18-.08.3,0,.44s-.09,0-.09.05a8.74,8.74,0,0,1,.45,1c.07.14.11.3.18.44.25.56.41,1.13.61,1.71A18.06,18.06,0,0,1,516.33,458.73Z"/><path class="cls-6" d="M536.37,204.27c-2.18,27.66-10.13,54.64-22.05,79.72-7,14.67-16.14,28.24-27.77,39.2-1,1-2.08,1.92-3.15,2.85s-2.15,1.83-3.25,2.71a7.21,7.21,0,0,1-.84.65A93.61,93.61,0,0,1,457.91,342a102,102,0,0,1-10.62,3.82c-28.31,8.62-59.49,5.79-88.72-.39-9.32-2-29.88-7.18-27.77-20.45.23-1.57.93-3.11.67-4.66a7.67,7.67,0,0,0-1.69-3.27q-6.62-9-13.26-18.08a12.34,12.34,0,0,0-3.59-3.68c-1.81-1-4-1.09-6-1.85-5.47-2.13-6.08-13.28-5.84-18,0-.54.07-1.09.14-1.64a18.5,18.5,0,0,1-5.22-.23l-.65-.16a3.85,3.85,0,0,1-.58-.21,6.26,6.26,0,0,1-1,.93.79.79,0,0,1-.12.07c-1,.72-2,1.41-3,2-12.17,7.49-29.54,9.57-40-2-5.86-6.49-7.65-16.62-3.64-24.39a9.68,9.68,0,0,1,3.68-4,4.2,4.2,0,0,1,3.71-.37c2.27.9,3.13,3.76,3,6.23s-1.11,4.82-1.14,7.26c-.19,16.88,23.14,12.31,31.25,5.73a3.57,3.57,0,0,0,1.37-1.74c.28-1-.35-2-.95-2.94q-.26-.4-.47-.79a6.06,6.06,0,0,1,.46-6.4c3.11-4.17,9.25-2.41,12.45.53,1.58,1.46,2.83,3.27,4.47,4.66,3.08,2.58,9.44.33,11.38,4,2.41,4.55-4.71,8-2.43,12.69a7.23,7.23,0,0,0,2.3,2.49,25.71,25.71,0,0,0,14.14,5.08c3.2.15,7.12-.88,7.91-4,.17-.66-7.26-5.2-6.84-5.73.69-.89,9.49,2.89,10.59,3.1,10.06,2,20.15,4.5,30.44,4.5h.11c26.77,0,53.62-17.33,70.57-37.19a93.57,93.57,0,0,0,20.12-39c.51-2.25,4.75-31,3.89-34.88a89.75,89.75,0,0,0,19.29,8.66,88.23,88.23,0,0,0,23.93,3.7c4,.09,8.05-.36,12-.66,2.32-.18,9.18-1.47,13-1.33C535.76,187.77,536.18,196,536.37,204.27Z"/><path class="cls-5" d="M670.67,379.26a209.18,209.18,0,0,1-17.62,40c-27.31,47.78-72.94,83.43-129.36,97.57-36.09,9-88.91,17.2-122.66-2.83a81,81,0,0,1-34.54-42.36,66.15,66.15,0,0,1-2.62-10.15,1,1,0,0,1,0-.46c-6.88-5.59-12-12.8-10.36-22.16,1-5.5,5-10.78,10.46-12.36,6.72-1.92,12.71,2.39,17.8,6.23a126.9,126.9,0,0,0,52.84,23.48c1.18.21,2.34.42,3.52.6,1.76.28,3.55.53,5.33.72a3.24,3.24,0,0,0,1.37-.14c1.49-.51,2.9-2.06,5.59-4,3-2.16,7.58-4.8,15.65-7,8.48-2.27,18.9-4.41,27.71-3.2,20.1,2.76,34.36,5.8,54.87-.26a228.16,228.16,0,0,0,102.42-64C657.64,379.29,664.17,379.38,670.67,379.26Z"/><path class="cls-6" d="M390.36,465.61a58.5,58.5,0,0,1-24.66-14.51c-3.09-3-7.29,2.2-4.23,5.17a65.28,65.28,0,0,0,27.85,15.93C393.45,473.4,394.45,466.79,390.36,465.61Z"/><path class="cls-6" d="M655,415.54c-.63,1.27-1.3,2.51-2,3.75-27.31,47.78-72.94,83.43-129.36,97.57-36.09,9-88.91,17.2-122.66-2.83a81,81,0,0,1-34.54-42.36,3.89,3.89,0,0,1,2.53-3.82c2.25-.6,4.19,1.6,5.61,3.45,7.25,9.41,17.37,16.35,28.33,20.94,12.78,5.36,26.48,7.42,40.17,9,1.46.18,2.92.33,4.36.55,15,2.2,28.61,9.92,43.84,10.8,21.58,1.25,39.16-9,57-19.77,8.55-5.12,17.11-10.3,25.38-15.84,8.49-5.68,16.51-12,25-17.74,3.32-2.23,6.74-4.36,10.16-6.47,4.92-3,9.88-6.07,14.61-9.41,8.16-5.8,15.55-12.63,22.74-19.57C649.06,421,652,418.28,655,415.54Z"/><path class="cls-5" d="M536.49,204.26c-.06-4.37-.3-8.71-.74-13-4.81,1.64-7.74,6.53-9.39,11.34-4.38,12.77-3.71,27-6.58,40.21a145.63,145.63,0,0,1-14.33,39.3,106.78,106.78,0,0,1-27.93,33.14c-13,10-28.18,14.75-44.21,17.63-15.52,2.78-31.08,4.66-46.85,3.22-17.74-1.62-34.8-6.95-49.54-17.37l-1.53-1.09a5.92,5.92,0,0,0-.9-1,94.25,94.25,0,0,1-13.58-14.88c-3.81-5.28-7.9-11.41-10-17.64a3.15,3.15,0,0,1,.71-3.52,3.69,3.69,0,0,1,2.87-.33c4.76.9,7.49,3.58,10.94,6.7a13.85,13.85,0,0,0,5.79,3.45,6.4,6.4,0,0,0,6.27-1.62c2.92-3.3,1.69-9.79,0-13.35A47.07,47.07,0,0,0,322.25,258a52.1,52.1,0,0,0-54.3-3.52,5.32,5.32,0,0,0,1.13,9.8c2.94.83,6-.3,8.79-1.53a38.23,38.23,0,0,1,29.47,0c1,.4,2,.86,2.92,1.34a9.69,9.69,0,0,0-1.58,2.94c0,.11-.07.23-.11.35a9.21,9.21,0,0,0-.28,1.67c-1.65.49-3.76,2.8-5.26,2.94-1.81.18-3.45-2.29-5.89-1.92-2.13.32-4,1.48-6,2.39A32,32,0,0,1,269,274.19,26.82,26.82,0,0,1,254,263.68a22.35,22.35,0,0,1-3.46-8.36,22,22,0,0,1-.37-4.69c0-1.58.66-3.33.46-4.89a3.8,3.8,0,0,0-.32-1.13c-.41-.87,1-1.71,0-2a16.76,16.76,0,0,0-4.29.16c-3.38.82-3.91,4.74-4.61,7.74a34,34,0,0,0-.86,9.58,43.93,43.93,0,0,0,5.82,18.6c27.35,49.78,90.62,73.79,145,74.4,19.34.23,37,.56,55.38-7,3.9-1.6,7.7-3.46,11.52-5.31,8.44-4.12,16.83-7.56,23.92-13.7S495.4,314.55,502,308a128.29,128.29,0,0,0,13.21-19.4A173.11,173.11,0,0,0,536.49,204.26Z"/><path class="cls-6" d="M335.19,273.23c-11.54-11-32.35-17.87-47.85-13.17-7,2.11-.86,15.5,6.19,13.36,11.39-3.45,33.17-1.91,44.92,11.78C343.19,290.73,340.52,278.33,335.19,273.23Z"/><path class="cls-6" d="M297.84,268.44a21,21,0,0,0-11.69,16c-1.11,8.63,3.68,16.21,8.42,23,2.45,3.5,8.24.16,5.77-3.37-3.48-5-7.71-10.62-7.71-17,0-5.75,3.69-12.08,8.7-14.53C305.2,270.69,301.7,266.56,297.84,268.44Z"/><path class="cls-6" d="M278.69,299.93c-6-3.62-8.31-11.09-9.81-17.82-.22-1-.42-2-.62-2.92s-.31-1.64-.43-2.47a20.8,20.8,0,0,1-18.63-17.58c-.18-1.16.34-6.81-.1-9.1a3.31,3.31,0,0,1-2.45-2.19l-.4-1.11a3,3,0,0,1,2-3.85,3.84,3.84,0,0,1,2.14-.26c3.1.52,6.42,3.35,6.76,6.45.26,2.34-1.48,4.2-1.51,6.55a14.34,14.34,0,0,0,11.86,14.26,25,25,0,0,1,.53-4c.07-.32.13-.64.22-1s.17-.62.27-.94a21.88,21.88,0,0,1,4.28-7.85c2.78-3.28,7.48,1.46,4.72,4.72a12.92,12.92,0,0,0-1.71,2.57,9.45,9.45,0,0,0-.53,1.14,1.16,1.16,0,0,0-.07.16,15,15,0,0,0-.61,1.93,17.81,17.81,0,0,0-.5,3.5,26.49,26.49,0,0,0,.3,5.2c.18,1.28.44,2.55.73,3.78.17.71.34,1.46.52,2.25,1.06,4.63,2.49,10.34,6.44,12.72C285.75,296.38,282.39,302.16,278.69,299.93Z"/><path class="cls-6" d="M280.49,257.19c-.91-2.82-4-5-7-4l-3.82,1.27a6.06,6.06,0,0,0-3.42,2.63,5.85,5.85,0,0,0-.58,4.41c.91,2.82,4,5,7,4l3.82-1.27a6.06,6.06,0,0,0,3.42-2.63A5.85,5.85,0,0,0,280.49,257.19Z"/><path class="cls-6" d="M372.74,432.26a9.09,9.09,0,0,0-7.37,16.53c3.66,2.28,7-3.5,3.37-5.77-2.71-1.69-.64-5.22,2.22-4.32C375.08,440,376.84,433.55,372.74,432.26Z"/><path class="cls-6" d="M434.66,456.23c1.18.21,2.34.42,3.52.6l-3-.37C434.82,456.41,434.66,456.34,434.66,456.23Z"/><path class="cls-6" d="M485.27,454.24c-9.55,3.66-27.08,4-40.39,3.17,1.49-.51,2.9-2.06,5.59-4a68.75,68.75,0,0,0,33.39-4.26C487,447.95,488.4,453,485.27,454.24Z"/><path class="cls-8" d="M403.26,323.16a294.13,294.13,0,0,0,37.09,16.15,371.47,371.47,0,0,0,38.76,11.62q19.66,4.85,39.67,8.32c13.32,2.36,26.71,4.31,40.14,6.24Q569,366.91,579,368.42l20.12,2.76L619.29,374q10.07,1.25,20.15,2.08,5,.41,10.09.7c3.36.14,6.73.19,10.1.29s6.73.23,10.11.22,6.73-.12,10.09-.28a212.54,212.54,0,0,0,40-5.52,1.37,1.37,0,0,1,.7,2.65A200.39,200.39,0,0,1,680.08,381q-5.12.36-10.25.53c-3.4.1-6.83,0-10.24,0s-6.84,0-10.26-.05-6.82-.27-10.23-.46c-6.81-.41-13.62-.91-20.39-1.65l-20.26-2.43c-6.75-.82-13.52-1.58-20.25-2.5s-13.45-1.91-20.17-2.92c-26.87-4-53.76-8.77-80.14-15.81A375.83,375.83,0,0,1,439,343.05a293.74,293.74,0,0,1-37-17.49,1.37,1.37,0,0,1,1.3-2.4Z"/><path class="cls-8" d="M377.73,513.29a370.3,370.3,0,0,0,66.82,8,282.39,282.39,0,0,0,66.75-5.84,241.12,241.12,0,0,0,32.17-9.21,222.68,222.68,0,0,0,30.42-13.82,198.31,198.31,0,0,0,52.19-41A214.52,214.52,0,0,0,678,330.71a309,309,0,0,0-2.08-67,515.18,515.18,0,0,0-13.73-66,1.37,1.37,0,0,1,2.64-.75,485.46,485.46,0,0,1,15,66.2,313.46,313.46,0,0,1,3.08,68,218.56,218.56,0,0,1-31.8,96.83,190.7,190.7,0,0,1-20.56,27.5,200.31,200.31,0,0,1-54.05,41.84,228.08,228.08,0,0,1-31.28,13.88,237.34,237.34,0,0,1-33,9.07,286.85,286.85,0,0,1-67.88,5A371.54,371.54,0,0,1,377.14,516a1.37,1.37,0,0,1,.59-2.67Z"/><path class="cls-8" d="M503.66,370.85a62.31,62.31,0,0,0,12.28-20.72,129.11,129.11,0,0,0,6-23.71c2.67-16.25,4.7-32.75,6.47-49.18s3.57-32.9,4.76-49.42c.64-8.25,1.08-16.52,1.52-24.79s.71-16.55.93-24.84a1.37,1.37,0,0,1,2.74,0q.84,24.95-.2,49.93-.47,12.48-1.39,24.95c-.57,8.31-1.33,16.61-2.34,24.88s-2.19,16.52-3.43,24.75c-.65,4.11-1.3,8.23-2,12.33s-1.39,8.22-2.25,12.33a133.41,133.41,0,0,1-7.11,24.27,63.49,63.49,0,0,1-14,21.17,1.37,1.37,0,0,1-2-1.9Z"/><path class="cls-8" d="M536.52,150.91c2.16,10.29,2.17,20.77,1.89,31.08l-.52,15.41c-.18,5.12-.28,10.25-.56,15.46a265.73,265.73,0,0,1-3.12,30.92,145.73,145.73,0,0,1-8.29,30.16,151.5,151.5,0,0,1-14.41,27.81,119.65,119.65,0,0,1-20.59,23.8,112.19,112.19,0,0,1-26.41,17.23,132.89,132.89,0,0,1-29.85,10c-20.59,4.36-41.81,4.12-62.39,1.29a279.38,279.38,0,0,1-30.58-6,203.47,203.47,0,0,1-29.6-9.91A155.58,155.58,0,0,1,298,331.36c-2.31-1.21-4.54-2.59-6.79-3.91s-4.42-2.78-6.54-4.32-4.23-3.08-6.31-4.66c-1-.82-2-1.67-3-2.5s-2-1.7-3-2.59a110.53,110.53,0,0,1-10.88-11.3,103.49,103.49,0,0,1-16.37-26.67,95.14,95.14,0,0,1-4.73-15,89.54,89.54,0,0,1-1.9-15.57,1.37,1.37,0,0,1,2.74-.13v0a86.66,86.66,0,0,0,2.17,15,91.89,91.89,0,0,0,4.88,14.31c.48,1.17,1.08,2.28,1.61,3.42l.82,1.7.9,1.66c.61,1.1,1.2,2.22,1.83,3.31l2,3.22a103.44,103.44,0,0,0,9.07,12.12C277.73,314.86,295.27,326,314,333.59a205.06,205.06,0,0,0,29,9.23,273.84,273.84,0,0,0,30,5.48A220,220,0,0,0,403.36,350a166.16,166.16,0,0,0,30.05-3.22A131.19,131.19,0,0,0,448,343a127.12,127.12,0,0,0,14-5.47,106.49,106.49,0,0,0,25.25-16.12,114.25,114.25,0,0,0,19.88-22.53,150.69,150.69,0,0,0,14.22-26.72,141,141,0,0,0,8.46-29.1,261.61,261.61,0,0,0,3.52-30.38c.34-5.05.58-10.21.85-15.36l.84-15.41c.49-10.21.68-20.47-1.2-30.4h0a1.37,1.37,0,0,1,2.68-.53Z"/><path class="cls-8" d="M507.47,450.68l7.25-1.53c1.21-.25,2.42-.49,3.62-.76l3.59-.9c2.39-.61,4.79-1.17,7.17-1.82l7.09-2.08c2.38-.64,4.71-1.45,7-2.23s4.69-1.52,7-2.38c4.6-1.76,9.23-3.42,13.72-5.43l3.39-1.45c1.14-.47,2.27-1,3.37-1.49l6.68-3.13c1.12-.51,2.22-1.06,3.3-1.64l3.27-1.7c2.17-1.15,4.39-2.22,6.5-3.47l6.4-3.65c2.13-1.22,4.18-2.58,6.27-3.87s4.17-2.58,6.18-4l6.11-4.11c16-11.34,31.21-23.94,44.59-38.33a120.25,120.25,0,0,0,17.39-23.39c4.64-8.47,7.81-17.85,8-27.55h0a1.37,1.37,0,0,1,2.74,0,56.61,56.61,0,0,1-1.8,15.16A71.29,71.29,0,0,1,681,345.18,119.42,119.42,0,0,1,663.72,370c-3.3,3.81-6.83,7.35-10.29,11-1.78,1.77-3.61,3.48-5.41,5.22l-2.72,2.6c-.92.85-1.88,1.66-2.81,2.5l-5.65,5L631,401.06c-1,.78-2,1.58-2.95,2.34l-3,2.23c-2,1.46-4.06,3-6.12,4.39a268.5,268.5,0,0,1-53.08,28.07c-4.63,1.91-9.4,3.45-14.13,5.1-2.37.81-4.79,1.46-7.18,2.2s-4.78,1.46-7.22,2L530,449.27c-2.44.55-4.89,1-7.34,1.55l-3.67.76c-1.23.23-2.46.41-3.7.62l-7.39,1.18a1.37,1.37,0,0,1-.5-2.69Z"/><path class="cls-8" d="M378.11,469.31c-3.48-1.49-7-3-10.4-4.89a42.88,42.88,0,0,1-9.6-6.91,28.07,28.07,0,0,1-6.71-10.17,21.54,21.54,0,0,1-1.29-6.22,19.61,19.61,0,0,1,.82-6.4,17.5,17.5,0,0,1,3-5.82,15.42,15.42,0,0,1,5.16-4.36,15.81,15.81,0,0,1,6.55-1.7,20.23,20.23,0,0,1,6.49.8,32.48,32.48,0,0,1,10.85,5.93c.78.61,1.55,1.23,2.29,1.85l2.15,1.8c1.42,1.2,2.85,2.45,4.26,3.61a61.87,61.87,0,0,0,9,5.83,89.06,89.06,0,0,0,10,4.43c3.45,1.28,7,2.42,10.59,3.45s7.19,2,10.83,2.78a127.23,127.23,0,0,0,22.07,3,104.17,104.17,0,0,0,11.13-.2,88.94,88.94,0,0,0,11-1.58h0a1.37,1.37,0,0,1,.64,2.67,92,92,0,0,1-11.32,2.34,97.08,97.08,0,0,1-11.55.81,121.94,121.94,0,0,1-23-2.09c-3.79-.67-7.54-1.51-11.27-2.45s-7.42-2-11.11-3.23a77.58,77.58,0,0,1-10.86-4.5c-1.76-.9-3.5-1.88-5.18-3s-3.29-2.25-4.84-3.49-2.9-2.52-4.36-3.77l-2.15-1.9c-.69-.61-1.38-1.2-2.07-1.78A27,27,0,0,0,370.5,429a12.45,12.45,0,0,0-9.1.27,12,12,0,0,0-5.81,7,14.83,14.83,0,0,0-.82,4.78,17,17,0,0,0,.82,4.9,23.87,23.87,0,0,0,5.37,8.84,40,40,0,0,0,8.45,6.75c3.13,1.94,6.48,3.63,9.85,5.35a1.37,1.37,0,0,1-1.16,2.48Z"/><path class="cls-8" d="M362.68,458l1.8,4.71c.69,1.53,1.34,3.07,2.05,4.59s1.46,3,2.25,4.48,1.62,2.92,2.49,4.35a125.55,125.55,0,0,0,11.68,16.23A163.86,163.86,0,0,0,396.54,507a113.83,113.83,0,0,0,15.85,12.37h0a1.37,1.37,0,0,1-1.31,2.41,86.44,86.44,0,0,1-17.8-11,91.72,91.72,0,0,1-15-14.64A101.48,101.48,0,0,1,367,478.47c-.77-1.57-1.46-3.19-2.2-4.78s-1.29-3.26-1.93-4.88-1.05-3.34-1.58-5-.83-3.4-1.22-5.1a1.37,1.37,0,0,1,2.61-.79Z"/><path class="cls-8" d="M295.21,428.41a95.09,95.09,0,0,1-8.41-11.25,93.64,93.64,0,0,1-6.61-12.51,85.41,85.41,0,0,1-6.72-27.57l-.19-3.55V370c0-1.18.06-2.37.13-3.55l.29-3.54a101.57,101.57,0,0,1,2.33-14,97.28,97.28,0,0,1,10.3-26.13,1.37,1.37,0,0,1,2.45,1.24,112.6,112.6,0,0,0-7.85,25.9,109,109,0,0,0-1.46,13.38l-.09,3.36c0,1.12,0,2.24,0,3.35q.05,3.35.19,6.7a90.43,90.43,0,0,0,10.72,38.44,110.66,110.66,0,0,0,7.12,11.58,1.37,1.37,0,0,1-2.15,1.69Z"/><path class="cls-8" d="M280.14,261.9a16.71,16.71,0,0,1,4.53-1.71,9.39,9.39,0,0,1,5.45.37,6.9,6.9,0,0,1,2.61,1.86,8,8,0,0,1,1.57,2.71,6.79,6.79,0,0,1,.29,3.4,5.8,5.8,0,0,1-1.94,3.4l.63-.74c-.55,1.17-1.14,2.59-1.62,3.93s-.89,2.76-1.26,4.14a52.75,52.75,0,0,0-1.59,8.35,22.62,22.62,0,0,0,.74,8.27,21.65,21.65,0,0,0,3.89,7.53l0,0a1.38,1.38,0,0,1-2,1.91,21.91,21.91,0,0,1-6.1-7.92,26.53,26.53,0,0,1-2.18-9.94,30,30,0,0,1,1.34-9.92,41.15,41.15,0,0,1,1.77-4.62,37.2,37.2,0,0,1,2.33-4.45l.24-.38a1,1,0,0,1,.4-.36.48.48,0,0,0,.29-.31,2,2,0,0,0,0-1,3.16,3.16,0,0,0-1.3-2,6,6,0,0,0-3.21-.71,16.8,16.8,0,0,0-4,.69h0a1.37,1.37,0,0,1-1-2.54Z"/><path class="cls-8" d="M337.24,278.64a52.51,52.51,0,0,0-9.91-12.14,53.43,53.43,0,0,0-6.12-4.83,51.8,51.8,0,0,0-6.76-3.8,53.43,53.43,0,0,0-30.09-4.34,64,64,0,0,0-7.49,1.57,14.55,14.55,0,0,0-6,2.87,10.81,10.81,0,0,0-3,5.62,28.89,28.89,0,0,0-.47,3.6l-.06,1.88c0,.63,0,1.26.06,1.89a40.17,40.17,0,0,0,1.18,7.55,49.52,49.52,0,0,0,11,20.46l0,0a1.37,1.37,0,0,1-2,1.92,50.31,50.31,0,0,1-13.45-21.13,45,45,0,0,1-1.78-8.4c-.06-.72-.15-1.44-.18-2.17l-.05-2.18a30.41,30.41,0,0,1,.37-4.48,16.37,16.37,0,0,1,4.22-8.68,18.8,18.8,0,0,1,8.3-4.57c1.39-.4,2.76-.77,4.16-1.07s2.81-.52,4.23-.7a54.73,54.73,0,0,1,40.25,10.53,57.62,57.62,0,0,1,6.32,5.59,52.77,52.77,0,0,1,9.55,13.72,1.37,1.37,0,0,1-2.4,1.3Z"/><path class="cls-8" d="M321.84,272.46a100.24,100.24,0,0,0,27.34,6.31,107.63,107.63,0,0,0,54.51-9.5,99.63,99.63,0,0,0,23.23-15.08l5.05-4.74,4.74-5.06c1.46-1.8,2.9-3.61,4.38-5.39l4-5.66a106.46,106.46,0,0,0,12.13-25,104.19,104.19,0,0,0,3-55.41,1.37,1.37,0,0,1,2.66-.68c5.27,18.67,4.69,38.91-.91,57.59a108.74,108.74,0,0,1-12,26.67l-4.12,6.1c-1.5,1.94-3,3.85-4.57,5.78l-5,5.43-5.42,5A100.09,100.09,0,0,1,406,274.32a108.7,108.7,0,0,1-57.23,8.41,99.44,99.44,0,0,1-28-7.75,1.37,1.37,0,0,1,1.05-2.52Z"/><path class="cls-8" d="M530.91,36.27a110.61,110.61,0,0,0-19.83,7.32,110.59,110.59,0,0,0-33.6,24.85c-.58.65-1.17,1.29-1.74,2l-1.66,2-1.66,2c-.53.69-1,1.4-1.56,2.1-1,1.4-2.08,2.79-3,4.27s-2,2.87-2.83,4.39c-1.82,3-3.47,6-5.07,9.14L457.71,99l-2,4.82A110.18,110.18,0,0,0,449.91,124a105,105,0,0,0-1.71,20.92c0,3.51.39,7,.74,10.52a91.84,91.84,0,0,0,1.91,10.4,1.37,1.37,0,0,1-2.64.74A94.94,94.94,0,0,1,445.54,156a101.44,101.44,0,0,1-.56-32.78A105.7,105.7,0,0,1,459.86,82a107.43,107.43,0,0,1,30.36-31.56,113.47,113.47,0,0,1,19.22-10.49,105.26,105.26,0,0,1,20.86-6.35,1.37,1.37,0,0,1,.6,2.67Z"/><path class="cls-8" d="M511.06,446.56c-.4-2.21-.88-4.42-1.14-6.66-.14-1.12-.33-2.24-.44-3.36l-.32-3.38a113.82,113.82,0,0,1-.18-13.6A99.41,99.41,0,0,1,510.54,406a93.52,93.52,0,0,1,3.36-13.28,91.06,91.06,0,0,1,12.59-24.27,58.24,58.24,0,0,1,9.29-10.24,36.78,36.78,0,0,1,12-7,1.37,1.37,0,0,1,1,2.54h0a37,37,0,0,0-10.28,7.4,60.18,60.18,0,0,0-7.89,10.09c-1.15,1.82-2.24,3.69-3.24,5.61-.5,1-1,1.89-1.51,2.87l-1.4,2.93c-1.76,3.95-3.42,7.93-4.82,12l-.55,1.52-.48,1.55c-.32,1-.68,2.05-1,3.09-.56,2.09-1.17,4.16-1.61,6.28s-.88,4.24-1.28,6.37c-.18,1.07-.31,2.15-.47,3.22s-.3,2.15-.41,3.23a128.08,128.08,0,0,0-.11,26.2v0a1.37,1.37,0,0,1-2.71.37Z"/><path class="cls-8" d="M514.65,450.06a22.48,22.48,0,0,0-8-3.83,40.4,40.4,0,0,0-9-1.34,81.56,81.56,0,0,0-18.41,1.27c-3,.58-6.05,1.16-9.06,1.89a92.31,92.31,0,0,0-8.92,2.66,99.11,99.11,0,0,0-17,8h0a1.37,1.37,0,0,1-1.56-2.25,75.78,75.78,0,0,1,16.68-10.35,66.11,66.11,0,0,1,28.81-6.68c1.66-.07,3.32.07,5,.11l2.48.21q1.24.09,2.48.28a44.73,44.73,0,0,1,9.79,2.44,23.85,23.85,0,0,1,8.57,5.6,1.37,1.37,0,0,1-1.83,2Z"/><path class="cls-8" d="M537.43,180l-.41.1.17,0-2,.57c-.66.19-1.32.32-2,.47l-4,.87.32-.07a2.28,2.28,0,0,1-.64.1l.25,0a124.09,124.09,0,0,1-12.43,1.66,87.23,87.23,0,0,1-12.66.31,84.39,84.39,0,0,1-12.64-1.6c-2.09-.43-4.17-.9-6.21-1.51q-1.54-.45-3.06-.95l-1.51-.52c-.52-.18-1.07-.4-1.57-.62a67.37,67.37,0,0,1-11.17-6.37c-3.49-2.36-6.83-4.88-10.07-7.53s-6.38-5.41-9.36-8.36a61.31,61.31,0,0,1-8.21-9.66,1.37,1.37,0,0,1,2.21-1.63l0,0a70.31,70.31,0,0,0,8.64,8.35q4.68,3.87,9.65,7.41c3.3,2.35,6.7,4.58,10.14,6.67,1.72,1,3.47,2,5.23,2.95s3.51,1.82,5.26,2.51l1.31.51,1.4.51c.94.32,1.88.64,2.83.93,1.9.58,3.81,1.14,5.74,1.61a90,90,0,0,0,11.78,2,128.39,128.39,0,0,0,24.19-.25l.25,0a1.33,1.33,0,0,0-.48.08l.32-.07,4-.49c.65-.09,1.33-.15,2-.26l1.92-.32.17,0h0l1.14,1.24a.85.85,0,0,1,0,1.2A.86.86,0,0,1,537.43,180Z"/><path class="cls-8" d="M327.07,311.26a90,90,0,0,1-11-11.47,59.37,59.37,0,0,1-4.66-6.64,32.65,32.65,0,0,1-1.94-3.79,15.59,15.59,0,0,1-1.28-4.54,9.43,9.43,0,0,1,.12-2.85,6.9,6.9,0,0,1,1.43-3,7.39,7.39,0,0,1,2.59-1.95,9.08,9.08,0,0,1,1.35-.48l1.32-.27a11,11,0,0,1,5.07.51,16.71,16.71,0,0,1,4.09,2,35.13,35.13,0,0,1,6.19,5.51c1.82,2,3.44,4,5.07,6l0,0a1.38,1.38,0,0,1-1.91,2c-2.1-1.67-4-3.42-6-5a37.9,37.9,0,0,0-6-4.15c-2-1-4.09-1.53-5.61-1.12l-.57.17a3,3,0,0,0-.46.22,1.76,1.76,0,0,0-.47.4.63.63,0,0,1-.1.18c0,.11-.07.15-.07.3a3.51,3.51,0,0,0,0,1,11.49,11.49,0,0,0,.68,3,26.93,26.93,0,0,0,1.39,3.24,65.75,65.75,0,0,0,3.73,6.45c2.76,4.22,5.78,8.43,8.94,12.42l0,0a1.37,1.37,0,0,1-2,1.88Z"/></svg>