<?xml version="1.0" encoding="UTF-8" standalone="no"?><!-- Generator: Gravit.io --><svg xmlns="http://www.w3.org/2000/svg" xmlns:xlink="http://www.w3.org/1999/xlink" style="isolation:isolate" viewBox="0 0 797.606 254.143" width="797.606pt" height="254.143pt"><defs><clipPath id="_clipPath_rioDD6sZgfOcVLK3ebojSTHspjChRUWy"><rect width="797.606" height="254.143"/></clipPath></defs><g clip-path="url(#_clipPath_rioDD6sZgfOcVLK3ebojSTHspjChRUWy)"><g><g><g><path d=" M 177.531 231.103 C 153.792 205.619 145.968 201.457 122.881 186.767 C 159.537 169.661 189.209 132.656 189.209 85.179 C 189.209 35.608 154.999 0 104.031 0 C 41.892 0 0 43.288 0 107.871 C 0 148.715 19.899 169.661 25.484 174.897 C 35.607 182.577 45.033 159.537 45.033 153.253 C 45.033 149.763 43.636 147.319 39.797 148.367 C 39.099 147.319 26.531 136.497 26.531 105.776 C 26.531 64.932 50.619 26.183 104.38 26.183 C 145.224 26.183 162.329 59.347 162.329 85.877 C 162.329 144.875 117.296 168.963 90.764 173.851 L 90.764 59.695 C 90.764 51.317 82.736 44.335 71.215 44.335 C 66.328 44.335 62.139 46.78 62.139 50.269 C 62.139 52.713 63.535 54.808 63.535 61.44 L 63.535 244.019 C 63.535 249.256 72.96 254.143 80.989 254.143 C 86.227 254.143 90.764 252.047 90.764 246.112 L 90.764 197.589 C 120.947 206.855 121.675 213.299 155.887 252.048 C 157.283 253.445 158.68 254.143 160.425 254.143 C 166.011 254.143 184.164 242.621 184.164 235.989 C 184.164 233.197 179.276 233.197 177.531 231.103 Z " fill="rgb(78,79,182)"/></g><g><path d=" M 494.862 73.054 C 507.315 73.054 516.564 63.091 516.564 51.351 C 516.564 38.899 507.315 29.649 494.862 29.649 C 483.122 29.649 473.515 38.899 473.515 51.351 C 473.515 63.091 483.122 73.054 494.862 73.054 Z " fill="rgb(78,79,182)"/></g><g><path d=" M 202.062 182.632 C 201.35 167.689 206.687 128.553 224.119 128.553 C 228.745 128.553 231.591 133.179 231.591 141.005 C 231.591 162.352 220.206 180.853 202.418 189.036 C 202.418 186.901 202.062 184.767 202.062 182.632 Z  M 604.793 104.716 C 598.033 104.716 590.205 115.747 590.205 122.151 C 590.205 124.284 593.407 123.929 595.186 125.352 C 599.811 128.909 609.773 136.381 609.773 165.199 C 609.773 206.468 589.85 230.66 572.417 230.66 C 566.013 230.66 564.59 226.392 564.59 219.632 L 564.59 123.929 C 564.59 115.389 557.118 108.275 545.378 108.275 C 540.397 108.275 536.129 110.765 536.129 114.324 C 536.129 116.813 537.55 118.948 537.55 125.708 L 537.55 187.476 C 536.985 188.804 536.499 190.368 536.133 192.237 C 532.929 207.891 526.526 230.66 512.295 230.66 C 503.045 230.66 503.045 217.497 503.045 214.296 L 503.045 123.929 C 503.045 115.389 495.574 108.275 483.833 108.275 C 478.851 108.275 474.583 110.765 474.583 114.324 C 474.583 116.813 476.006 118.948 476.006 125.708 L 476.006 187.445 C 475.421 188.791 474.935 190.381 474.582 192.237 C 471.381 207.891 464.977 230.66 450.746 230.66 C 443.274 230.66 438.649 225.68 438.649 214.296 L 438.649 101.515 C 457.506 101.515 478.497 101.515 506.958 100.804 C 516.207 100.448 519.41 66.293 509.449 76.967 C 485.255 78.035 460.351 78.389 438.649 78.389 L 438.649 16.129 C 438.649 7.591 431.178 0.476 419.438 0.476 C 414.457 0.476 408.053 1.899 408.053 4.388 C 408.053 6.88 411.61 7.591 411.61 17.908 L 411.61 78.035 C 392.398 77.679 379.59 76.967 379.59 76.967 C 369.274 76.967 375.677 100.804 387.062 100.804 C 387.062 100.804 395.957 101.515 411.61 101.515 L 411.61 197.144 C 408.109 212.24 401.643 230.66 388.842 230.66 C 379.591 230.66 379.591 217.497 379.591 214.296 L 379.591 140.651 C 379.591 124.284 373.899 104.716 350.063 104.716 C 332.63 104.716 319.822 120.015 310.217 139.939 L 310.217 123.929 C 310.217 115.389 302.745 108.275 291.005 108.275 C 286.023 108.275 281.755 110.765 281.755 114.324 C 281.755 116.813 283.177 118.948 283.177 125.708 L 283.177 185.84 C 278.906 207.54 267.522 230.66 239.774 230.66 C 221.274 230.66 211.667 220.7 206.687 208.604 C 241.197 198.285 259.341 166.977 259.341 140.651 C 259.341 119.304 247.245 104.716 227.322 104.716 C 199.927 104.716 172.889 138.516 172.889 183.699 C 172.889 228.171 203.485 254.143 235.861 254.143 C 257.57 254.143 272.703 246.715 283.177 236.485 L 283.177 238.488 C 283.177 251.652 293.139 254.143 300.255 254.143 C 310.573 254.143 310.217 245.604 310.217 238.844 L 310.217 186.901 C 312.706 158.795 334.765 128.199 345.082 128.199 C 351.842 128.199 352.554 137.448 352.554 148.477 L 352.554 220.7 C 352.554 238.844 363.582 254.143 382.438 254.143 C 396.874 254.143 407.663 247.012 415.673 237.016 C 421.058 248.969 431.405 254.143 444.342 254.143 C 459.489 254.143 470.621 246.289 478.739 235.516 C 483.099 246.453 492.526 254.143 505.891 254.143 C 520.911 254.143 531.894 246.419 539.949 235.784 C 543.669 246.701 552.094 254.143 567.791 254.143 C 609.773 254.143 636.457 214.296 636.457 166.267 C 636.457 135.669 619.023 104.716 604.793 104.716" fill="rgb(78,79,182)"/></g><g><path d=" M 722.29 194.016 C 714.107 183.343 708.77 168.4 708.77 152.391 C 708.77 141.363 710.906 135.669 714.818 135.669 C 722.29 135.669 723.358 153.457 723.358 177.651 C 723.358 182.988 723.002 188.323 722.29 194.016 Z  M 776.723 185.479 C 774.59 199.353 766.406 211.093 751.107 211.093 C 748.618 211.093 746.483 211.093 743.993 210.381 C 747.55 198.285 748.974 185.121 748.974 171.959 C 748.974 137.448 735.454 112.188 718.733 112.188 C 699.521 112.188 689.915 131.4 689.915 153.815 C 689.915 179.431 698.81 202.911 715.531 217.141 C 710.906 225.324 704.502 230.66 694.541 230.66 C 680.665 230.66 668.925 215.717 668.925 185.833 C 668.925 150.612 679.597 137.448 685.29 128.909 C 694.541 122.861 687.425 104.005 678.174 104.005 C 670.347 104.005 641.885 135.669 641.885 187.968 C 641.885 223.545 657.895 254.143 693.829 254.143 C 714.107 254.143 727.627 243.824 736.522 228.527 C 741.858 230.305 747.55 231.017 753.954 231.017 C 778.147 231.017 792.734 215.007 797.003 195.795 C 801.629 175.872 778.147 177.295 776.723 185.479 Z " fill="rgb(78,79,182)"/></g></g></g><g style="isolation:isolate"/></g></svg>