<svg xmlns="http://www.w3.org/2000/svg" viewBox="0 0 64 64"><defs><style>.cls-1{fill:#a8d2f0;}.cls-2{fill:#3897d3;}.cls-3{fill:none;stroke:#295183;stroke-linecap:round;stroke-linejoin:round;stroke-width:2px;}</style></defs><title>add, remove, increase, decrease</title><g id="Layer_4" data-name="Layer 4"><path class="cls-1" d="M32.83,40.31a19.37,19.37,0,0,1-5.6-1.88c-3.12-1.53-6.17-3.7-7.46-6.93a12.22,12.22,0,0,1,.71-9.57c1.3-2.66,4.77-4.31,7.24-5.71a2.25,2.25,0,0,1,1.68-.43,1.55,1.55,0,0,1,1,1.53,5.4,5.4,0,0,1-.5,1.86,18.85,18.85,0,0,0-1.13,4.65,1.81,1.81,0,0,1-.21.81c-.41.63-1.34.47-2.09.51A3.14,3.14,0,1,0,28.17,31a2.87,2.87,0,0,1,1.42-.65,1.69,1.69,0,0,1,1,.47,1.94,1.94,0,0,1,.85,1.5,3.64,3.64,0,0,1-.7,1.43,3.21,3.21,0,0,0,1.85,4.46,3.21,3.21,0,0,0,3.89-2.87,1.76,1.76,0,0,1,.18-1c.34-.47,1.06-.32,1.6-.1a5.59,5.59,0,0,1,1.89,1.13,2.39,2.39,0,0,1,.75,2,3,3,0,0,1-1.6,1.93,9.76,9.76,0,0,1-6.08,1.1Z"/><path class="cls-2" d="M21.39,33.75s8.08,9.58,17.33,4.67,2,11.82-3.66,10.7S21.14,45.33,20.14,42,18.22,29,21.39,33.75Z"/><path class="cls-3" d="M20.83,22.36a12.11,12.11,0,0,1,.91-1.48A14.28,14.28,0,0,1,33.4,15.17c7.64,0,13.84,5.58,13.84,12.45a11.27,11.27,0,0,1-1,4.57A13.91,13.91,0,0,1,33.4,40.06a13.91,13.91,0,0,1-12.88-7.87,11.27,11.27,0,0,1-1-4.57"/><path class="cls-3" d="M47.24,36.76c0,6.87-6.2,12.45-13.84,12.45S19.54,43.63,19.54,36.76V27.62a11.27,11.27,0,0,0,1,4.57A13.91,13.91,0,0,0,33.4,40.06a13.91,13.91,0,0,0,12.87-7.87,11.27,11.27,0,0,0,1-4.57"/><line class="cls-3" x1="33.42" y1="20.24" x2="33.42" y2="23.52"/><line class="cls-3" x1="31.78" y1="21.88" x2="35.06" y2="21.88"/><line class="cls-3" x1="31.78" y1="35" x2="35.06" y2="35"/><path class="cls-3" d="M28.49,28.26a1.79,1.79,0,1,1-1.79-1.79"/><path class="cls-3" d="M41.21,28.26a1.79,1.79,0,1,1-1.79-1.79"/></g></svg>