<svg id="Layer_1" data-name="Layer 1" xmlns="http://www.w3.org/2000/svg" viewBox="0 0 64 64"><defs><style>.cls-1{fill:#295183;}.cls-2{fill:none;stroke:#295183;stroke-linecap:round;stroke-linejoin:round;stroke-width:2px;}.cls-3{fill:#a8d2f0;}.cls-4{fill:#3897d3;}</style></defs><title>Agreement</title><circle class="cls-1" cx="23.72" cy="20" r="0.87"/><circle class="cls-1" cx="45.51" cy="25.41" r="0.87"/><path class="cls-2" d="M30.59,42l-7.71-7.71a2.86,2.86,0,0,0-4,0l0,0"/><path class="cls-3" d="M36,47.76a2.72,2.72,0,0,1-.75.21,4.24,4.24,0,0,1-2.16-.29,5.4,5.4,0,0,0-2.36-.83c-.91.07-1.68.9-2.59.82a2,2,0,0,0,.57-.76.55.55,0,0,1-.68.24,1.6,1.6,0,0,1-.62-.47l-8.81-9.32a1.8,1.8,0,0,1-.42-.59,1.25,1.25,0,0,1,0-.76,2.55,2.55,0,0,1,2.23-1.69,4.37,4.37,0,0,1,2.33.48,1.19,1.19,0,0,0-1.19.52,1.77,1.77,0,0,0-.22,1.33,8.76,8.76,0,0,0,1.93,3.17A31.65,31.65,0,0,0,26.14,43c.84.82,3.16,3.81,4.25,2a2.52,2.52,0,0,0,.14-1.86,8.35,8.35,0,0,0-2.41-3.89c-1.1-1.08-2.37-2-3.56-3a2.83,2.83,0,0,1-1.15-1.58,2.39,2.39,0,0,1,1-2.05,4.47,4.47,0,0,1,2.19-1.08,3,3,0,0,1,2.34.55,5.27,5.27,0,0,1,1.51,2.94,32.29,32.29,0,0,0,1.73,5.22,11.36,11.36,0,0,0,3.29,4.34c.7.54,1.59,1.17,1.48,2A1.46,1.46,0,0,1,36,47.76Z"/><path class="cls-4" d="M23.72,29.25c0,.2.55.71.68.88.48.62,1.41,1.06,1.51,1.91s-.93,1.28-1.58,1.5A3.3,3.3,0,0,1,21,32.32c-.38-.49-.57-1.11-1-1.59a8.4,8.4,0,0,0-3.73-2.51,7.17,7.17,0,0,1-1.62-.6c-1.49-.92-.58-2.67.18-3.76,4.25-6.13,8.75,1.14,9.88-.86s4.71-.66,4.71-.66Z"/><path class="cls-3" d="M34,24.54s10,2.79,8,8.21Z"/><path class="cls-2" d="M30.32,22.34,24.86,27.8a2.26,2.26,0,0,0,0,3.18A2.25,2.25,0,0,0,28,31l5.8-5.8,9.42,9.42a5.36,5.36,0,0,1,0,7.55l-4.77,4.77a5.36,5.36,0,0,1-7.55,0l-.65-.65"/><path class="cls-2" d="M19.39,27.71l4.78-4.78a5.36,5.36,0,0,1,5.64-1.23"/><path class="cls-2" d="M43,34.32l-9.14-9.14L28,31a2.25,2.25,0,0,1-3.18,0,2.26,2.26,0,0,1,0-3.18l7.92-7.92a5,5,0,0,1,1.41-1,5.33,5.33,0,0,1,6.14,1l3.44,3.44"/><path class="cls-2" d="M30.3,46.28A2.85,2.85,0,0,1,26.56,46l-7.71-7.71a2.85,2.85,0,0,1,0-4l0,0a2.86,2.86,0,0,1,4,0L30.59,42"/><path class="cls-2" d="M18.39,34.37,13.07,29a3.37,3.37,0,0,1,0-4.76l5.1-5.1a3.37,3.37,0,0,1,3.57-.77"/><path class="cls-2" d="M45.1,32.2l5.83-5.83a3.37,3.37,0,0,0,0-4.76l-5.1-5.1a3.37,3.37,0,0,0-4.76,0h0"/><polygon class="cls-4" points="21.19 32.75 21.19 32.76 21.18 32.75 21.19 32.75"/></svg>