<svg xmlns="http://www.w3.org/2000/svg" viewBox="0 0 64 64"><defs><style>.cls-1{fill:#a8d2f0;}.cls-2{fill:#3897d3;}.cls-3{fill:none;stroke:#295183;stroke-linecap:round;stroke-linejoin:round;stroke-width:2px;}.cls-4{fill:#295183;}</style></defs><title>air, humidifier, scent, smart home</title><g id="Layer_5" data-name="Layer 5"><path class="cls-1" d="M28.73,10.2s-3.4,24.8,5.6,31.92-3.61,4.58-3.61,4.58l-7.59-.52.69-18.12v-15s-1.42-4.6,4.64-2.86"/><path class="cls-2" d="M24.14,28.48S26.95,27,27.38,38.75s4.72,7.28,7.3,8,4.33-.89,4.83,5.42c0,0-14,1.58-16-2.68S24.14,28.48,24.14,28.48Z"/><path class="cls-3" d="M38.38,18.5c-.18-.08-.36-.16-.56-.23l-.22-.08a4.2,4.2,0,0,0-.5-.17,2.29,2.29,0,0,0-.28-.09l-.64-.17-.61-.13-.41-.07c-.29,0-.58-.08-.88-.11s-.44,0-.66-.05-.6,0-.91,0-.61,0-.91,0-.44,0-.66.05-.58.06-.87.11l-.45.08a12.11,12.11,0,0,0-1.55.39l-.46.16-.22.08c-.2.07-.38.15-.56.23l-.43.22a3.9,3.9,0,0,0-.35.19,3.68,3.68,0,0,0-.39.24,5.88,5.88,0,0,0-1,.81,3.86,3.86,0,0,0-.38.44q-.16.23-.3.45a.35.35,0,0,0,0,.08h-.32L24,12.15a2,2,0,0,1,2-1.95H39.34a2,2,0,0,1,2,1.95l.27,11.66"/><path class="cls-2" d="M35.42,17.56s2.53,2.34.22,3.13-4.54.16-4.91,2,1,1.94,1.85,3.09-1.66,3.16-3.28,1S26,23.56,24.14,23.56s-.5-3.84,0-4S35.42,17.56,35.42,17.56Z"/><path class="cls-3" d="M23.1,46.7l.67-22.89h4a5,5,0,0,0,9.91,0"/><line class="cls-3" x1="41.62" y1="23.81" x2="42.29" y2="46.7"/><polyline class="cls-3" points="42.29 46.7 41.29 53.19 24.1 53.19 23.1 46.7 38.29 46.7"/><line class="cls-3" x1="46.27" y1="53.19" x2="21.12" y2="53.19"/><path class="cls-1" d="M34.34,25.18l0,0a.78.78,0,0,0,.21-.42,2.5,2.5,0,0,0,.11-1.13A1,1,0,0,0,34,22.9c-.61-.15-.47.67-.72,1a.71.71,0,0,1-.63.18A5.57,5.57,0,0,0,32,24a.44.44,0,0,0-.28.08.42.42,0,0,0-.05.5,1.26,1.26,0,0,0,.68.56,3,3,0,0,0,1.7.18A.78.78,0,0,0,34.34,25.18Z"/><path class="cls-3" d="M24.14,20.93a.59.59,0,0,0,0-.08q.13-.23.3-.45a2.88,2.88,0,0,1,.28-.33,3.22,3.22,0,0,1,.32-.32c.15-.14.31-.26.48-.39s.32-.23.49-.33a1.06,1.06,0,0,1,.2-.12,3.9,3.9,0,0,1,.35-.19L27,18.5l.56-.23c.23-.09.47-.18.71-.25a4.26,4.26,0,0,1,.54-.15l.26-.08c.23,0,.47-.11.72-.15l.45-.08.43-.06.39,0h.05l.66-.05c.3,0,.6,0,.91,0s.61,0,.91,0l.66.05h0l.39,0c.28,0,.56.08.83.13a11.8,11.8,0,0,1,1.27.3l.24.07c.26.08.51.17.76.27l.56.23"/><path class="cls-3" d="M32.7,21.08A2.25,2.25,0,1,0,35,23.33"/><line class="cls-3" x1="38.7" y1="49.45" x2="38.7" y2="50.45"/><line class="cls-3" x1="35.7" y1="49.45" x2="35.7" y2="50.45"/><line class="cls-3" x1="32.7" y1="49.45" x2="32.7" y2="50.45"/><line class="cls-3" x1="29.7" y1="49.45" x2="29.7" y2="50.45"/><line class="cls-3" x1="26.7" y1="49.45" x2="26.7" y2="50.45"/><circle class="cls-4" cx="18.73" cy="53.19" r="1"/></g></svg>