<svg id="Layer_1" data-name="Layer 1" xmlns="http://www.w3.org/2000/svg" viewBox="0 0 64 64"><defs><style>.cls-1{fill:#295183;}.cls-2{fill:#fff;}.cls-3,.cls-6,.cls-8{fill:none;}.cls-3{stroke:#2a5081;}.cls-3,.cls-6,.cls-7,.cls-8{stroke-linecap:round;stroke-linejoin:round;stroke-width:2px;}.cls-4{fill:#f49292;}.cls-5{fill:#a8d2f0;}.cls-6{stroke:#000;}.cls-7{fill:#389ad6;stroke:#389ad6;}.cls-8{stroke:#295183;}</style></defs><title>Analytics</title><circle class="cls-1" cx="23.42" cy="17.66" r="1"/><circle class="cls-1" cx="48.67" cy="20.66" r="1"/><path class="cls-2" d="M49,23.71c.78,3.94,0,25.56,0,25.56s1.53,4.13-20.69,3.6l-12-1.13"/><path class="cls-3" d="M48.67,24.22V48.28a4.36,4.36,0,0,1-4.52,4.15H17.91"/><path class="cls-4" d="M43.35,31.1V48a1,1,0,0,1-.35.76l0,0a1,1,0,0,1-1.62-.57.78.78,0,0,1,0-.23V31.1a1,1,0,0,1,.31-.74.9.9,0,0,1,.3-.2,1,1,0,0,1,.4-.09A1,1,0,0,1,43.35,31.1Z"/><path class="cls-4" d="M41.35,32.72V48.27a.78.78,0,0,1,0-.23V32.54A.47.47,0,0,1,41.35,32.72Z"/><path class="cls-5" d="M43,30.37v18.7H40.09v-.23h1.26v-.57a.78.78,0,0,1,0-.23V32.54a.62.62,0,0,0-.6-.46.63.63,0,0,0-.63.63V30.37Z"/><path class="cls-5" d="M36.07,32.79V49.07H33.16v-.2h1.26v-.49a.59.59,0,0,1,0-.2V34.68a.61.61,0,0,0-.6-.4.6.6,0,0,0-.63.55v-2Z"/><path class="cls-5" d="M29.09,36.25V49.07H26.18v-.16h1.26v-.39a.38.38,0,0,1,0-.16V37.74a.63.63,0,0,0-.6-.31c-.35,0-.63.19-.63.43V36.25Z"/><path class="cls-5" d="M22.26,40.64v8.11a.82.82,0,0,1-.82.82h0a.82.82,0,0,1-.82-.82V42.07a.49.49,0,0,0,0-.18.63.63,0,0,0-.6-.46h-.12a.64.64,0,0,0-.51.62V40.64c0-.45.36-1.16.81-1.16l1.23-.14C21.84,39.34,22.26,40.19,22.26,40.64Z"/><polyline class="cls-3" points="43.35 48.84 43 48.84 42.97 48.84 41.71 48.84 41.35 48.84 40.09 48.84 36.38 48.84 29.44 48.84 22.61 48.84"/><path class="cls-3" d="M39.35,44.22V32.08a2,2,0,0,1,2-2h0a2,2,0,0,1,2,2V48.84"/><path class="cls-3" d="M32.38,46.58V35a2,2,0,0,1,2-2h0a2,2,0,0,1,2,2V48.84"/><path class="cls-3" d="M25.44,46.58V38a2,2,0,0,1,2-2h0a2,2,0,0,1,2,2V48.84"/><path class="cls-3" d="M18.62,44.76V40.9a2,2,0,0,1,2-2h0a2,2,0,0,1,2,2v7.94"/><path class="cls-6" d="M26.56,23.27c-.79.37-1.6.77-2.38,1.22A22.32,22.32,0,0,1,26.56,23.27Z"/><path class="cls-7" d="M39,18.64a17.27,17.27,0,0,1,4.24.75l-.89.93L40.8,21.94l-.84.89-1.25,1.33-2.35,2.49L36,23.26l-.29,0L37.31,21l1-1.5Z"/><path class="cls-6" d="M24.11,24.53q-.72.42-1.36.88v0C23.19,25.08,23.65,24.8,24.11,24.53Z"/><path class="cls-6" d="M26.56,23.27c-.79.37-1.6.77-2.38,1.22A22.32,22.32,0,0,1,26.56,23.27Z"/><path class="cls-6" d="M26.56,23.27c-.79.37-1.6.77-2.38,1.22A22.32,22.32,0,0,1,26.56,23.27Z"/><path class="cls-8" d="M17.59,34.84v-.06a.65.65,0,0,1,0-.1l0-.16a.61.61,0,0,0,0-.11s0-.08,0-.12a18.31,18.31,0,0,1,.2-7.5c0-.18.09-.35.14-.52a14.55,14.55,0,0,1,3.24-5.92"/><path class="cls-5" d="M41.07,15.64l-.74,1.05-1.27,1.83-.7,1-1,1.5-2,2.81-.83-3.3A44,44,0,0,0,27,23.08l-.44.19c-.79.37-1.6.77-2.38,1.22l-.07,0c-.46.27-.92.55-1.36.84a13.52,13.52,0,0,0-4.3,4.27,7.38,7.38,0,0,0-.54,1.14,3.25,3.25,0,0,0-.13.38,5.94,5.94,0,0,0-.24.95c-.74-4.88,3.83-11,11.14-14.35A22,22,0,0,1,41.07,15.64Z"/><path class="cls-7" d="M34.51,20.53l.71,2.81a44.46,44.46,0,0,0-7,1.34l-.46.13c-.84.25-1.69.53-2.54.85l-.07,0c-.49.19-1,.4-1.47.63a13.58,13.58,0,0,0-4.88,3.59,7.52,7.52,0,0,0-.7,1,2.25,2.25,0,0,0-.18.36,5.13,5.13,0,0,0-.38.89.62.62,0,0,1,0-.11,5.94,5.94,0,0,1,.24-.95,3.25,3.25,0,0,1,.13-.38,7.38,7.38,0,0,1,.54-1.14,13.52,13.52,0,0,1,4.3-4.27c.44-.3.9-.58,1.36-.84l.07,0c.79-.45,1.59-.85,2.38-1.22l.44-.19A44,44,0,0,1,34.51,20.53Z"/><path class="cls-8" d="M33,14.38l-.83-3.3,9,4.52,0,0-.74,1.05-1.27,1.83-.08.12-.62.89-1,1.5-1.58,2.27-.38.54-.12-.49-.56-2.2-.15-.61A44,44,0,0,0,27,23.08l-.44.19c-.79.37-1.6.77-2.38,1.22l-.07,0c-.46.27-.92.55-1.36.84a13.52,13.52,0,0,0-4.3,4.27,7.38,7.38,0,0,0-.54,1.14,3.25,3.25,0,0,0-.13.38,5.94,5.94,0,0,0-.24.95.63.63,0,0,0,0,.11h0a6,6,0,0,0-.09,1c0,.08,0,.15,0,.23a7.38,7.38,0,0,0,.13,1.25.57.57,0,0,0,0,.1v.08"/><circle class="cls-1" cx="18.62" cy="48.94" r="1"/></svg>