<svg id="Layer_1" data-name="Layer 1" xmlns="http://www.w3.org/2000/svg" viewBox="0 0 64 64"><defs><style>.cls-1,.cls-2,.cls-3{fill:none;stroke-linecap:round;stroke-linejoin:round;stroke-width:2px;}.cls-1{stroke:#3897d3;}.cls-2{stroke:#295183;}.cls-3{stroke:#a8d2f0;}.cls-4{fill:#a8d2f0;}.cls-5{fill:#3897d3;}.cls-6{fill:#295183;}</style></defs><title>Anchor</title><path class="cls-1" d="M30,42.55a4,4,0,0,1-4,4"/><path class="cls-2" d="M32,42.31a6,6,0,0,1-12.09,0"/><path class="cls-3" d="M42.09,42.55a4,4,0,0,1-4,4"/><line class="cls-2" x1="32" y1="24.63" x2="32" y2="20.94"/><path class="cls-2" d="M44.09,37.65l2.42,4.66H44.09a6,6,0,1,1-12.09,0V28.67"/><rect class="cls-4" x="25.4" y="24.62" width="10.69" height="3.52" rx="1.6" ry="1.6"/><path class="cls-5" d="M25.28,28.15H28a1.46,1.46,0,0,0,1.46-1.46v0A1.46,1.46,0,0,0,28,25.21H25.21Z"/><polyline class="cls-2" points="19.91 42.31 17.49 42.31 19.91 37.65"/><path class="cls-2" d="M37.55,24.62a2,2,0,1,1,0,4H26.63a2,2,0,1,1,0-4H32"/><path class="cls-2" d="M34.62,18.27A2.63,2.63,0,1,1,32,15.65"/><circle class="cls-6" cx="34.62" cy="24.62" r="1"/></svg>