<svg id="Layer_1" data-name="Layer 1" xmlns="http://www.w3.org/2000/svg" viewBox="0 0 64 64"><defs><style>.cls-1{fill:#fff;}.cls-2{fill:#9dcbf4;}.cls-3{fill:none;stroke:#2a5082;stroke-linecap:round;stroke-linejoin:round;stroke-width:2px;}.cls-4{fill:#389ad6;}.cls-5{fill:#2a5082;}</style></defs><title>Announcement</title><path class="cls-1" d="M14.08,31.88s-.45-4.28,3.66-4.27c0,0-.11-1.42,5.76-1.89s6.91,0,6.91,0l8.18-4.85,1.27.94-.38,3.35-5.57,6.72Z"/><rect class="cls-1" x="39.87" y="19" width="2.51" height="23.12" rx="1.25" ry="1.25"/><path class="cls-2" d="M39.87,21.81V41.27C32.93,37,29.43,36.18,29.43,36.18l-10.5-.37c0-.32-.66-.34-.75-.69a1.16,1.16,0,0,0-1.21-1,2.06,2.06,0,0,1-2.17-1.17l-.13-1.67h14v-.07a11.44,11.44,0,0,0,10.38-9.83C39.37,21.5,39.62,21.65,39.87,21.81Z"/><line class="cls-3" x1="43.05" y1="20.11" x2="43.05" y2="38.53"/><path class="cls-4" d="M39.87,41v.23c-5.92-3.62-9.33-4.77-10.21-5a1.78,1.78,0,0,0-.45-.07l-10.27-.36c0-.32-.66-.34-.75-.69h0A1.85,1.85,0,0,1,20,33.57h3.06c3.23,0,6.19-.25,9.27.88.45.16.9.35,1.34.56l.27.12c6.2,2.52,5.15-13.79,5.15-13.79l.39-.48V40.39Z"/><path class="cls-3" d="M28.75,35.81h0A3.28,3.28,0,0,1,32,39.08v1.31a3.28,3.28,0,0,1-3.27,3.27h0a3.28,3.28,0,0,1-3.27-3.27"/><path class="cls-3" d="M28.74,35.79H20.19a2,2,0,0,1-2-2V28.15a2,2,0,0,1,2-2h6.95a9.59,9.59,0,0,0,4.94-1.37l7.78-4.68V41l-4.21-2.21"/><path class="cls-3" d="M15.42,28.18a1.94,1.94,0,0,0-.93,1.09,1.91,1.91,0,0,0-.1.61v2.54a1.93,1.93,0,0,0,1.92,1.92H18.2"/><line class="cls-3" x1="46.21" y1="30.78" x2="51.93" y2="30.78"/><path class="cls-3" d="M46.91,22.37a1.56,1.56,0,0,1,2.2,0h0a1.56,1.56,0,0,1,0,2.2l-2.95,2.95"/><path class="cls-3" d="M46.16,33.93l2.95,2.95a1.56,1.56,0,0,1,0,2.2h0a1.56,1.56,0,0,1-2.2,0"/><circle class="cls-5" cx="43.05" cy="41.45" r="1"/></svg>