<svg id="Layer_1" data-name="Layer 1" xmlns="http://www.w3.org/2000/svg" viewBox="0 0 64 64"><defs><style>.cls-1{fill:#a8d2f0;}.cls-2{fill:#fff;}.cls-3{fill:none;stroke:#2a5081;stroke-linecap:round;stroke-linejoin:round;stroke-width:2px;}.cls-4{fill:#b1f1a8;}</style></defs><title>Approve communication</title><path class="cls-1" d="M29.48,42.49a1.88,1.88,0,0,1,2.09,1.64c0,.58-.17,1.23.17,1.69a1.35,1.35,0,0,0,1.23.42,9.72,9.72,0,0,1,1.34-.15c1.13.06,1.95,1.09,2.5,2.08a16.83,16.83,0,0,1,1.72,4.51,1.9,1.9,0,0,1,0,1c-.22.7-1.09.93-1.82,1a16.55,16.55,0,0,1-5.48-.4,7.4,7.4,0,0,1-4.62-2.83c-1.43-2.23-.74-5-.22-7.35"/><path class="cls-2" d="M34.68,36.3l-.12.7-.37-.12s-.1-.23-.27-.58Z"/><path class="cls-1" d="M27.34,28.5c-.3,0-6.79,0-7.08-.09a5.19,5.19,0,0,1-4.31-5.11V18.11a5.22,5.22,0,0,1,5.2-5.21H33.66a5.22,5.22,0,0,1,5.21,5.21v3.42H35l-4,.27a4.63,4.63,0,0,0-3,4.36v.38a5,5,0,0,1,4.4-2.6h6.46Z"/><path class="cls-3" d="M19.82,10.44a6,6,0,0,0-3.88,5.63v6.57a5.93,5.93,0,0,0,5.84,6h8.71"/><path class="cls-3" d="M41.9,15.7a5.56,5.56,0,0,0-4.41-5.43,5.67,5.67,0,0,0-1.42-.18H25"/><line class="cls-3" x1="21.27" y1="17.14" x2="36.57" y2="17.14"/><line class="cls-3" x1="21.27" y1="21.51" x2="24.63" y2="21.51"/><path class="cls-4" d="M45.4,29v2.64a4.53,4.53,0,0,1-.06.74A7.77,7.77,0,0,1,38.54,27a5.77,5.77,0,0,1-.28-1.26,6,6,0,0,1-.08-1,6.28,6.28,0,0,1,0-.75h2.14A5.06,5.06,0,0,1,45.4,29Z"/><path class="cls-1" d="M45.79,29.95v1.31a4.52,4.52,0,0,1-.06.74,5,5,0,0,1-2.31,3.53,3.79,3.79,0,0,1-.78.39,1.36,1.36,0,0,1-.28.11l-.39.12a4.91,4.91,0,0,1-1.22.15H36l.21-1.2a2.31,2.31,0,0,0-1.7-2.77l-.09,0A2.31,2.31,0,0,0,31.68,34L32,32.86S32,33,32,33l-.34,1.42a1.33,1.33,0,0,1-2.12.74,5,5,0,0,1-1.84-3.89V28.62a1.23,1.23,0,0,1,0-.27.22.22,0,0,1,0-.08.53.53,0,0,1,0-.13,4.92,4.92,0,0,1,.61-2,5.07,5.07,0,0,1,4.4-2.6h6.67A6.39,6.39,0,0,1,45.79,29.95Z"/><path class="cls-3" d="M39.22,35.88l.76.78,2,2V35.95s.45,0,1.06-.06a7.26,7.26,0,0,0,3-.8,4.65,4.65,0,0,0,1.88-2.71,4.75,4.75,0,0,0,.14-1.14V26.16a4.62,4.62,0,0,0-3.42-4.49,4,4,0,0,0-1.1-.14H35"/><path class="cls-3" d="M28,31.24V26.16a4.63,4.63,0,0,1,3-4.36"/><line class="cls-3" x1="32.08" y1="26.98" x2="43.92" y2="26.98"/><path class="cls-3" d="M31.61,37.38c-.46,3.38-2.6,5-5.62,6.2"/><path class="cls-3" d="M31.7,34.34a2.1,2.1,0,0,1,2.09-2.09h0a2.1,2.1,0,0,1,2.09,2.09l-.76,5.49A1.89,1.89,0,0,0,37,41.94h4.27a4.15,4.15,0,0,1,4.28,4l-1,6c0,2.18-1.93,3-4.28,3H20"/></svg>