<svg id="Layer_1" data-name="Layer 1" xmlns="http://www.w3.org/2000/svg" viewBox="0 0 64 64"><defs><style>.cls-1{fill:#9ac8f1;}.cls-2{fill:#3897d3;}.cls-3{fill:none;stroke:#295183;stroke-linecap:round;stroke-linejoin:round;stroke-width:2px;}</style></defs><title>Battery</title><path class="cls-1" d="M30.87,10.1l.19.11a2.16,2.16,0,0,1,.77,3,3.51,3.51,0,0,0-1.16,2.26,37.68,37.68,0,0,0,.22,5.39q.11,1.79.22,3.58a12.22,12.22,0,0,1,.11,3.25A1.77,1.77,0,0,1,30,29.06a3,3,0,0,1-1.44-.18,2.06,2.06,0,0,0-2.68,2.18q-.11,8.88.14,17.75a1.29,1.29,0,0,0,.15.69,1.26,1.26,0,0,0,.46.36c2.61,1.45,5.57,2.57,8.53,2.19a7.08,7.08,0,0,1,2.73-.13c.89.24,1.65,1.25,1.22,2.07H23c-1.75-4.69-1.65-9.84-1.52-14.84l.39-15.54.1-3.89a27.86,27.86,0,0,1,.1-3.89c.3-1.77,3.5-2.45,5-2.34l.24,0,.37-4A6.7,6.7,0,0,1,30.87,10.1Z"/><path class="cls-2" d="M33,30s2.77,1,.53,3.52c0,0,1.86,2.55.17,3.67a5.82,5.82,0,0,1,1.22,4.5s1.31,3.31-.62,3.56.62,1.63.62,1.63,1.76,3.13-.74,2.94-8.12,1.08-8.17-1a20.66,20.66,0,0,0-.9-4.71s-.44-3.55.47-4.17-1.5-3.81.27-6.88L25.59,30Z"/><path class="cls-3" d="M33.95,9.5H30a2.68,2.68,0,0,0-2.67,2.68V13.5H25.51A3.52,3.52,0,0,0,22,17V51a3.52,3.52,0,0,0,3.51,3.51h13A3.52,3.52,0,0,0,42,51V17a3.52,3.52,0,0,0-3.52-3.51h-7"/><path class="cls-3" d="M38.34,48.29h0a2.09,2.09,0,0,1-2.09,2.09H27.68a2.09,2.09,0,0,1-2.09-2.09h0a2.09,2.09,0,0,1,2.09-2.09h8.58"/><path class="cls-3" d="M27.68,42h8.58a2.09,2.09,0,0,1,2.09,2.09h0a2.09,2.09,0,0,1-2.09,2.09H27.68a2.09,2.09,0,0,1-2.09-2.09h0"/><path class="cls-3" d="M36.26,42H27.68a2.09,2.09,0,0,1-2.09-2.09h0a2.09,2.09,0,0,1,2.09-2.09h8.58"/><line class="cls-3" x1="25.59" y1="35.76" x2="25.59" y2="35.76"/><path class="cls-3" d="M27.68,33.68h8.58a2.09,2.09,0,0,1,2.09,2.09h0a2.09,2.09,0,0,1-2.09,2.09H27.68"/><path class="cls-3" d="M36.26,33.68H27.68a2.09,2.09,0,0,1-2.09-2.09h0a2.09,2.09,0,0,1,2.09-2.09h8.58"/></svg>