<svg id="Layer_1" data-name="Layer 1" xmlns="http://www.w3.org/2000/svg" viewBox="0 0 64 64"><defs><style>.cls-1{fill:#a8d2f0;}.cls-2{fill:none;stroke:#295183;stroke-linecap:round;stroke-linejoin:round;stroke-width:2px;}.cls-3{fill:#295183;}</style></defs><title>Browser coding</title><path class="cls-1" d="M41.5,49.66c-1.5.9-22.5,0-22.5,0s-4.62.78-4.5-5.72c.1-5.34-.13-16.06-.09-20V15.62l3.9-1.68s4.63.5,4.63.48c0,1.13,1.41,3,2,3.91,1.48,2.4,6.23,5.14,6,8.17-.44,5-.09,15.07,8.43,20.66C39.31,47.16,43,48.76,41.5,49.66Z"/><path class="cls-2" d="M20.75,22.46H46.8a3.2,3.2,0,0,0,3.2-3.2v-1a4.33,4.33,0,0,0-4.31-4.31H18.31A4.33,4.33,0,0,0,14,18.25V45.63a4.33,4.33,0,0,0,4.31,4.31H45.69A4.33,4.33,0,0,0,50,45.63V27.19"/><line class="cls-2" x1="32.63" y1="17.94" x2="30" y2="17.94"/><line class="cls-2" x1="39.31" y1="17.94" x2="36.69" y2="17.94"/><line class="cls-2" x1="46" y1="17.94" x2="43.38" y2="17.94"/><circle class="cls-3" cx="18" cy="22.46" r="1"/><line class="cls-2" x1="35.38" y1="28.19" x2="28.88" y2="44.94"/><polyline class="cls-2" points="39.56 32.31 43.69 36.44 39.31 40.81"/><polyline class="cls-2" points="24.88 32.37 20.75 36.49 25.13 40.87"/></svg>