<svg id="Layer_1" data-name="Layer 1" xmlns="http://www.w3.org/2000/svg" viewBox="0 0 64 64"><defs><style>.cls-1{fill:#d9ebf4;}.cls-2{fill:#c6e2f4;}.cls-11,.cls-3{fill:none;stroke-linecap:round;stroke-linejoin:round;}.cls-3{stroke:#041256;stroke-width:2px;}.cls-4{fill:#b7cfe2;}.cls-5{fill:#80f9ea;}.cls-6{fill:#d8e7ef;}.cls-7{fill:#fff;}.cls-8{fill:#1898ad;}.cls-9{fill:#23b7b3;}.cls-10{fill:#3cd3cc;}.cls-11{stroke:#f7f7f9;}.cls-12{fill:#89afc9;}.cls-13{fill:#041256;}.cls-14{fill:#d16f0d;}.cls-15{fill:#ad5c12;}.cls-16{fill:#ffa022;}.cls-17{fill:#91e2e2;}.cls-18{fill:#ffd77d;}.cls-19{fill:#ed8c18;}.cls-20{fill:#e28014;}</style></defs><title>calendar, reminder, date, appointment</title><path class="cls-1" d="M24.52,15.85h2.43a.76.76,0,0,0,0-1.52H25.73a.46.46,0,0,1-.46-.46.46.46,0,0,0-.46-.46H22.39a.76.76,0,1,0,0,1.52h1.21a.46.46,0,0,1,.46.46A.46.46,0,0,0,24.52,15.85Z"/><path class="cls-1" d="M15.55,15H14.14a.26.26,0,0,0-.26.26.26.26,0,0,1-.26.26h-.7a.44.44,0,1,0,0,.88h1.41a.26.26,0,0,0,.26-.26.26.26,0,0,1,.26-.26h.7a.44.44,0,0,0,0-.88Z"/><path class="cls-1" d="M32.26,12.35H30.86a.26.26,0,0,0-.26.26.26.26,0,0,1-.26.26h-.7a.44.44,0,0,0,0,.88H31a.26.26,0,0,0,.26-.26.26.26,0,0,1,.26-.26h.7a.44.44,0,1,0,0-.88Z"/><circle class="cls-1" cx="17.67" cy="21.95" r="0.63"/><circle class="cls-1" cx="17.67" cy="16.9" r="0.61"/><circle class="cls-1" cx="20.71" cy="18.15" r="0.98"/><circle class="cls-1" cx="28.3" cy="12.54" r="0.32"/><circle class="cls-1" cx="11.3" cy="18.15" r="0.39"/><circle class="cls-1" cx="14.23" cy="19.36" r="1.02"/><circle class="cls-1" cx="10.26" cy="15.4" r="0.35"/><path class="cls-1" d="M46.55,10.75h0a.5.5,0,0,1,.5-.5h2.67a.83.83,0,0,1,.83.83h0a.83.83,0,0,1-.83.83H48.38a.5.5,0,0,0-.5.5h0a.5.5,0,0,1-.5.5H44.71a.83.83,0,0,1-.83-.83h0a.83.83,0,0,1,.83-.83H46A.5.5,0,0,0,46.55,10.75Z"/><path class="cls-1" d="M51.38,14.52h0a.29.29,0,0,0-.29-.29H49.54a.48.48,0,0,0-.48.48h0a.48.48,0,0,0,.48.48h.77a.29.29,0,0,1,.29.29h0a.29.29,0,0,0,.29.29h1.55a.48.48,0,0,0,.48-.48h0a.48.48,0,0,0-.48-.48h-.77A.29.29,0,0,1,51.38,14.52Z"/><circle class="cls-1" cx="48.09" cy="22.43" r="0.7"/><circle class="cls-1" cx="47.21" cy="16.27" r="0.67"/><circle class="cls-1" cx="43.88" cy="17.64" r="1.08"/><circle class="cls-1" cx="43.23" cy="9.28" r="0.35"/><circle class="cls-1" cx="54.21" cy="17.64" r="0.43"/><circle class="cls-1" cx="51" cy="18.98" r="1.12"/><circle class="cls-1" cx="55.35" cy="14.62" r="0.39"/><path class="cls-2" d="M3,60.2V17.4c0-.77.4-1.4.89-1.4h.93c.49,0,.89.63.89,1.4V21c0,.77.4,1.4.89,1.4h3c.49,0,.89.63.89,1.4V40c0,.77.4,1.4.89,1.4h1.85c.49,0,.89.63.89,1.4V53.1c0,.77.4,1.4.89,1.4h.9c.49,0,.89-.63.89-1.4V51.31c0-.77.4-1.4.89-1.4h.81c.49,0,.89-.63.89-1.4v-2.4c0-.77.4-1.4.89-1.4H25.1c.49,0,.89-.63.89-1.4V41.88c0-.77.4-1.4.89-1.4h15.4a.77.77,0,0,1,.63.41l4.14,6.49a.78.78,0,0,0,.63.41h1.24c.49,0,.89.63.89,1.4v4.72c0,.77.4,1.4.89,1.4h.51c.49,0,.89-.63.89-1.4V53.1c0-.77.4-1.4.89-1.4h.65c.49,0,.89-.63.89-1.4s.4-1.4.89-1.4h4.63c.49,0,.89.63.89,1.4V60.2Z"/><line class="cls-3" x1="3" y1="60.2" x2="61" y2="60.2"/><rect class="cls-4" x="9.82" y="18.82" width="44.18" height="40.83" rx="6.07" ry="6.07"/><path class="cls-5" d="M49.34,19.89a8.85,8.85,0,0,1,2.52,6.19V49.15A8.88,8.88,0,0,1,43,58H16.57A8.84,8.84,0,0,1,12.34,57a8.85,8.85,0,0,0,6.36,2.69H45.12A8.88,8.88,0,0,0,54,50.77V27.71A8.88,8.88,0,0,0,49.34,19.89Z"/><path class="cls-6" d="M13.75,54.51V31.44a8.88,8.88,0,0,1,8.88-8.88H49.05a8.83,8.83,0,0,1,3.87.9,8.88,8.88,0,0,0-7.8-4.63H18.7a8.88,8.88,0,0,0-8.88,8.88V50.77a8.87,8.87,0,0,0,5,8A8.84,8.84,0,0,1,13.75,54.51Z"/><path class="cls-7" d="M12.13,53V29.93A8.88,8.88,0,0,1,21,21H47.43a8.82,8.82,0,0,1,4.9,1.49,8.86,8.86,0,0,0-7.22-3.71H18.7a8.88,8.88,0,0,0-8.88,8.88V50.77a8.85,8.85,0,0,0,4,7.42A8.79,8.79,0,0,1,12.13,53Z"/><path class="cls-8" d="M45.12,18.82H18.7a8.88,8.88,0,0,0-8.88,8.88v2.78H54V27.71A8.88,8.88,0,0,0,45.12,18.82Z"/><path class="cls-5" d="M53.92,26.59c0-.1,0-.21,0-.31q-.07-.42-.17-.82c0-.09,0-.18-.07-.26a8.79,8.79,0,0,0-.36-1L53.19,24q-.18-.4-.41-.78L52.62,23q-.24-.37-.51-.72L52,22.11a9,9,0,0,0-.71-.77l-.19-.18q-.3-.28-.63-.53l-.23-.17a8.92,8.92,0,0,0-.9-.57h0a8.85,8.85,0,0,1,2.52,6.19v4.4H54V27.71A8.91,8.91,0,0,0,53.92,26.59Z"/><path class="cls-9" d="M22.63,22.56H49.05a8.83,8.83,0,0,1,3.87.9,8.86,8.86,0,0,0-.57-.89l-.17-.22q-.26-.34-.54-.65l-.16-.17a9,9,0,0,0-.78-.71l-.14-.11q-.35-.27-.72-.51L49.59,20a8.83,8.83,0,0,0-.79-.41l-.16-.08a8.82,8.82,0,0,0-1-.36l-.27-.07q-.4-.11-.82-.17l-.31,0a8.93,8.93,0,0,0-1.11-.08H18.7a8.88,8.88,0,0,0-8.88,8.88v2.78h4A8.88,8.88,0,0,1,22.63,22.56Z"/><path class="cls-10" d="M12.13,29.93A8.88,8.88,0,0,1,21,21H47.43a8.82,8.82,0,0,1,4.9,1.49l0,0c-.11-.16-.24-.3-.37-.45s-.19-.23-.29-.34h0c-.13-.15-.28-.28-.43-.42l-.37-.34c-.15-.12-.3-.24-.45-.35l-.45-.31L49.47,20l-.52-.27-.47-.21-.61-.22-.41-.13-.09,0c-.22-.06-.45-.1-.68-.14l-.24,0-.21,0a8.93,8.93,0,0,0-1.11-.08H18.7a8.88,8.88,0,0,0-8.88,8.88v2.78h2.31Z"/><line class="cls-11" x1="9.82" y1="30.49" x2="54" y2="30.49"/><rect class="cls-3" x="9.82" y="18.82" width="44.18" height="40.83" rx="6.07" ry="6.07"/><circle class="cls-8" cx="18.99" cy="36.82" r="1.46"/><circle class="cls-12" cx="25.45" cy="36.82" r="1.46"/><circle class="cls-13" cx="31.9" cy="44.04" r="3.04"/><circle class="cls-12" cx="31.91" cy="36.82" r="1.46"/><circle class="cls-12" cx="38.37" cy="36.82" r="1.46"/><circle class="cls-12" cx="44.83" cy="36.82" r="1.46"/><circle class="cls-8" cx="18.99" cy="43.98" r="1.46"/><circle class="cls-12" cx="25.45" cy="43.98" r="1.46"/><circle class="cls-4" cx="31.91" cy="43.98" r="1.46"/><circle class="cls-12" cx="38.37" cy="43.98" r="1.46"/><circle class="cls-12" cx="44.83" cy="43.98" r="1.46"/><circle class="cls-8" cx="18.99" cy="51.14" r="1.46"/><circle class="cls-12" cx="25.45" cy="51.14" r="1.46"/><circle class="cls-12" cx="31.91" cy="51.14" r="1.46"/><circle class="cls-12" cx="38.37" cy="51.14" r="1.46"/><circle class="cls-12" cx="44.83" cy="51.14" r="1.46"/><line class="cls-3" x1="21.12" y1="16.18" x2="21.12" y2="24.66"/><circle class="cls-3" cx="21.12" cy="25" r="0.84"/><line class="cls-3" x1="42.7" y1="16.18" x2="42.7" y2="24.66"/><circle class="cls-3" cx="42.7" cy="25" r="0.84"/><circle class="cls-13" cx="52.86" cy="15.28" r="1.48"/><circle class="cls-14" cx="52.86" cy="32.79" r="2.55"/><path class="cls-15" d="M50.36,33.25a2.55,2.55,0,1,1,5,0c-.81,0-1.63.08-2.5.08S51.17,33.3,50.36,33.25Z"/><circle class="cls-3" cx="52.86" cy="32.79" r="2.55"/><path class="cls-16" d="M47.52,24.71V21.4a5.49,5.49,0,0,1,5.18-5.56,5.34,5.34,0,0,1,5.5,5.34v3.54a5.78,5.78,0,0,0,2.25,4.75.93.93,0,0,1,.48.71c0,1.15-3.61,2.08-8.07,2.08s-8.07-.93-8.07-2.08a.93.93,0,0,1,.48-.71A5.78,5.78,0,0,0,47.52,24.71Z"/><path class="cls-17" d="M59.46,30.55a.93.93,0,0,0-.48-.71,5.78,5.78,0,0,1-2.25-4.75V21.56a5.34,5.34,0,0,0-5.5-5.34l-.37,0a5.06,5.06,0,0,1,1.85-.42,5.34,5.34,0,0,1,5.5,5.34v3.54a5.78,5.78,0,0,0,2.25,4.75.93.93,0,0,1,.48.71c0,.67-1.23,1.26-3.13,1.64C58.83,31.46,59.46,31,59.46,30.55Z"/><path class="cls-18" d="M45.27,29.46a5.78,5.78,0,0,0,2.25-4.75V21.4a5.49,5.49,0,0,1,5.18-5.56,5.32,5.32,0,0,1,3.57,1.23,5.32,5.32,0,0,0-2.33-.46,5.49,5.49,0,0,0-5.18,5.56v3.31a5.78,5.78,0,0,1-2.25,4.75.93.93,0,0,0-.48.71.67.67,0,0,0,.15.4c-.88-.33-1.4-.74-1.4-1.17A.93.93,0,0,1,45.27,29.46Z"/><path class="cls-19" d="M48.14,31.85a1,1,0,0,1-.05-.24,1.18,1.18,0,0,1,.28-.74,8.44,8.44,0,0,0,1.33-5V22.43c0-3.06,1.33-5.73,3.06-5.82S56,19,56,22.19v3.7a8.44,8.44,0,0,0,1.33,5,1.18,1.18,0,0,1,.28.74,1,1,0,0,1-.05.24,28.37,28.37,0,0,1-9.45,0Z"/><path class="cls-16" d="M52.76,16.6a1.83,1.83,0,0,1,.55.06,5.13,5.13,0,0,0-2.16.88A2.31,2.31,0,0,1,52.76,16.6Z"/><path class="cls-20" d="M51.72,23.16a9.73,9.73,0,0,1,1.46-5.52.94.94,0,0,1,1.47,0A7.45,7.45,0,0,1,56,22.19v3.7a8.44,8.44,0,0,0,1.33,5,1.18,1.18,0,0,1,.28.74,1,1,0,0,1-.05.24,26.34,26.34,0,0,1-4.72.4c-.75,0-1.47,0-2.16-.08a11.51,11.51,0,0,0,1-5.1Z"/><path class="cls-14" d="M55.81,31.28a4,4,0,0,1-.27-.4A8.72,8.72,0,0,1,54.86,26l.41-3.68a7.45,7.45,0,0,0-.84-4.72.89.89,0,0,0-.27-.26.88.88,0,0,1,.5.29A7.45,7.45,0,0,1,56,22.19v3.7a8.44,8.44,0,0,0,1.33,5,1.18,1.18,0,0,1,.28.74,1,1,0,0,1-.05.24c-.46.09-1,.16-1.5.22a.34.34,0,0,0,0,0A1.19,1.19,0,0,0,55.81,31.28Z"/><path class="cls-3" d="M47.52,24.71V21.4a5.49,5.49,0,0,1,5.18-5.56,5.34,5.34,0,0,1,5.5,5.34v3.54a5.78,5.78,0,0,0,2.25,4.75.93.93,0,0,1,.48.71c0,1.15-3.61,2.08-8.07,2.08s-8.07-.93-8.07-2.08a.93.93,0,0,1,.48-.71A5.78,5.78,0,0,0,47.52,24.71Z"/></svg>