<svg id="Layer_1" data-name="Layer 1" xmlns="http://www.w3.org/2000/svg" viewBox="0 0 64 64"><defs><style>.cls-1{fill:#d9e7f4;}.cls-2{fill:#706bd6;}.cls-3{fill:#5858c6;}.cls-4{fill:#7f7fe5;}.cls-5{fill:#4343ba;}.cls-6{fill:#3939b5;}.cls-7{fill:#041256;}.cls-8{fill:#a6c8dd;}.cls-9{fill:#90bdd3;}.cls-10{fill:#7dafd1;}.cls-11{fill:#bbd6ea;}.cls-12{fill:#669dbc;}.cls-13{fill:#4b7faa;}.cls-14{fill:#9ce1ff;}.cls-15{fill:#73d0f9;}.cls-16{fill:#50d190;}.cls-17{fill:#9ffdff;}.cls-18{fill:#31baa6;}.cls-19{fill:#dbfcfc;}.cls-20{fill:#7ce8e8;}.cls-21{fill:#2da7ad;}.cls-22,.cls-26,.cls-34{fill:none;stroke-linecap:round;stroke-linejoin:round;}.cls-22,.cls-34{stroke:#041256;}.cls-22,.cls-26{stroke-width:2px;}.cls-23{fill:#c3d9ea;}.cls-24{fill:#eaf3f9;}.cls-25{fill:#9cc7e2;}.cls-26{stroke:#4b7faa;}.cls-27{fill:#69e29d;}.cls-28{fill:#7df4b3;}.cls-29{fill:#b3ffd3;}.cls-30{fill:#30aa9b;}.cls-31{fill:#47f4a6;}.cls-32{fill:#3aba90;}.cls-33{fill:#fff;}.cls-35{fill:#ebf0f7;}</style></defs><title>calendar, appointment, date, confirm</title><path class="cls-1" d="M58.08,23.12v-10a1.18,1.18,0,0,0-1.18-1.18h-.14a1.18,1.18,0,0,1-1.18-1.18h0a3.57,3.57,0,0,0-1-2.52L52.8,6.47A1.18,1.18,0,0,0,52,6.12H47A1.18,1.18,0,0,0,45.81,7.3V23a1.18,1.18,0,0,1-1.18,1.18H36.11a1.18,1.18,0,0,0-.83.35l-18,18a1.18,1.18,0,0,1-.83.35h-7a1.18,1.18,0,0,1-.83-.35L7,40.89a1.18,1.18,0,0,0-.83-.35h0A1.18,1.18,0,0,1,5,39.37v0a1.18,1.18,0,0,0-1.18-1.18H3.39a1.18,1.18,0,0,0-1.18,1.18v20.6A1.18,1.18,0,0,0,3.4,61.12l57.23-.72a1.18,1.18,0,0,0,1.16-1.18V25.48a1.18,1.18,0,0,0-1.18-1.18H59.26A1.18,1.18,0,0,1,58.08,23.12Z"/><path class="cls-2" d="M17,9.93H48A2.05,2.05,0,0,1,50,12v1.92a0,0,0,0,1,0,0H15a0,0,0,0,1,0,0V12A2.05,2.05,0,0,1,17,9.93Z"/><path class="cls-3" d="M48.9,11.91H15s0,0,0,.07v1.92H48.9Z"/><path class="cls-4" d="M15.89,12.47a1.54,1.54,0,0,1,1.54-1.54H48.88a2,2,0,0,1,1,.27A2.05,2.05,0,0,0,48,9.93H17A2.05,2.05,0,0,0,15,12v1.92h.9Z"/><path class="cls-2" d="M16,11.91H15s0,0,0,.07v1.92h.9V12.47A1.53,1.53,0,0,1,16,11.91Z"/><path class="cls-5" d="M48,9.93h-.73A2.05,2.05,0,0,0,45.2,12v1.92H50V12A2.05,2.05,0,0,0,48,9.93Z"/><path class="cls-6" d="M46.48,12.49A1.56,1.56,0,0,1,48,10.93h1.23a2,2,0,0,1,.52.07A2,2,0,0,0,48,9.93h-.73A2.05,2.05,0,0,0,45.2,12v1.92h1.28Z"/><path class="cls-7" d="M48,9.93A2.05,2.05,0,0,1,50,12v1.92H15V12A2.05,2.05,0,0,1,17,9.93H48m0-2H17A4.06,4.06,0,0,0,13,12v1.92a2,2,0,0,0,2,2H50a2,2,0,0,0,2-2V12A4.06,4.06,0,0,0,48,7.93Z"/><path class="cls-8" d="M16.19,13.89H48.71a6.61,6.61,0,0,1,6.61,6.61v31a2.25,2.25,0,0,1-2.25,2.25H9.57a0,0,0,0,1,0,0V20.51A6.61,6.61,0,0,1,16.19,13.89Z"/><path class="cls-9" d="M48.71,13.89h-.77a6.61,6.61,0,0,0-6.61,6.61V53.77H53.07a2.25,2.25,0,0,0,2.25-2.25v-31A6.61,6.61,0,0,0,48.71,13.89Z"/><path class="cls-10" d="M44.95,46.33v-25A5.07,5.07,0,0,1,50,16.27h2.31a6.61,6.61,0,0,1,1.61.21,6.6,6.6,0,0,0-5.23-2.58h-.77a6.61,6.61,0,0,0-6.61,6.61V53.77H53.07a2.25,2.25,0,0,0,2.25-2.25V50.4H49A4.07,4.07,0,0,1,44.95,46.33Z"/><path class="cls-11" d="M47.31,54.48h-2V29.72a1,1,0,0,1,1-1h0a1,1,0,0,1,1,1Z"/><path class="cls-12" d="M46.81,53.76h-2V29.51a1,1,0,0,1,1-1h0a1,1,0,0,1,1,1Z"/><path class="cls-13" d="M46.81,49.74a4.06,4.06,0,0,1-1.86-3.41V29a1,1,0,0,0-.14.48V53.76h2Z"/><path class="cls-11" d="M51.74,54.48h-2V29.72a1,1,0,0,1,1-1h0a1,1,0,0,1,1,1Z"/><path class="cls-12" d="M51.24,53.76h-2V29.51a1,1,0,0,1,1-1h0a1,1,0,0,1,1,1Z"/><rect class="cls-13" x="49.24" y="50.4" width="2" height="3.35"/><rect class="cls-10" x="41.32" y="24.3" width="14" height="3.02"/><path class="cls-14" d="M48.71,13.89h-.77c-.21,0-.42,0-.63,0a6.61,6.61,0,0,1,6,6.58v31A2.25,2.25,0,0,1,51,53.77h2a2.25,2.25,0,0,0,2.25-2.25v-31A6.61,6.61,0,0,0,48.71,13.89Z"/><path class="cls-15" d="M51.74,16.27h.59a6.61,6.61,0,0,1,1.61.21,6.67,6.67,0,0,0-2.23-1.85l-.13-.06-.5-.22-.2-.07-.48-.15-.23-.06L49.66,14l-.22,0a6.64,6.64,0,0,0-.74,0h-.77c-.21,0-.42,0-.63,0A6.6,6.6,0,0,1,51.74,16.27Z"/><path class="cls-15" d="M53.29,51.52A2.25,2.25,0,0,1,51,53.77h2a2.25,2.25,0,0,0,2.25-2.25V50.4h-2Z"/><rect class="cls-15" x="53.29" y="24.3" width="2.04" height="3.02"/><rect class="cls-12" x="41.32" y="24.3" width="3.62" height="3.02"/><path class="cls-16" d="M48.71,13.89H16.19a6.61,6.61,0,0,0-6.61,6.61v3.13H55.32V20.51A6.61,6.61,0,0,0,48.71,13.89Z"/><path class="cls-17" d="M48.71,13.89h-.77c-.21,0-.42,0-.63,0a6.61,6.61,0,0,1,6,6.58v3.13h2V20.51A6.61,6.61,0,0,0,48.71,13.89Z"/><path class="cls-18" d="M41.32,20.51v3.13h3.62V21.34A5.07,5.07,0,0,1,50,16.27h2.31a6.61,6.61,0,0,1,1.61.21,6.67,6.67,0,0,0-2.23-1.85l-.13-.06-.5-.22-.2-.07-.48-.15-.23-.06L49.66,14l-.22,0a6.64,6.64,0,0,0-.74,0h-.77A6.61,6.61,0,0,0,41.32,20.51Z"/><path class="cls-19" d="M51.74,16.27h.59a6.61,6.61,0,0,1,1.61.21,6.67,6.67,0,0,0-2.23-1.85l-.13-.06-.5-.22-.2-.07-.48-.14h0l-.22-.06-.5-.09-.1,0-.12,0a6.64,6.64,0,0,0-.74,0h-.77c-.21,0-.42,0-.63,0A6.6,6.6,0,0,1,51.74,16.27Z"/><rect class="cls-18" x="41.32" y="23.33" width="14" height="0.97"/><rect class="cls-20" x="53.29" y="23.33" width="2.04" height="0.97"/><rect class="cls-21" x="41.32" y="23.33" width="3.62" height="0.97"/><path class="cls-22" d="M16.19,13.89H48.71a6.61,6.61,0,0,1,6.61,6.61v31a2.25,2.25,0,0,1-2.25,2.25H9.57a0,0,0,0,1,0,0V20.51A6.61,6.61,0,0,1,16.19,13.89Z"/><line class="cls-22" x1="60.96" y1="60.38" x2="2.96" y2="60.38"/><path class="cls-23" d="M16.19,13.89a6.61,6.61,0,0,0-6.61,6.61V53.77A6.61,6.61,0,0,1,3,60.38H34.71a6.61,6.61,0,0,0,6.61-6.61V20.51a6.61,6.61,0,0,1,6.61-6.61Z"/><path class="cls-1" d="M9.49,54.77A6.61,6.61,0,0,1,3,60.38H34.71a6.61,6.61,0,0,0,6.53-5.61Z"/><path class="cls-1" d="M15,56.35V21.58a5.1,5.1,0,0,1,5.1-5.1H42.7a6.6,6.6,0,0,1,5.24-2.58H16.19a6.61,6.61,0,0,0-6.61,6.61V53.77A6.61,6.61,0,0,1,3,60.38H10.8a4.13,4.13,0,0,0,4.19-4Z"/><path class="cls-24" d="M10.34,39.22H9.57v3.71h.77a1.85,1.85,0,0,0,1.85-1.85h0A1.85,1.85,0,0,0,10.34,39.22Z"/><path class="cls-24" d="M9.57,44.13v9.64A6.61,6.61,0,0,1,3,60.38h7.79a6.58,6.58,0,0,0,1.44-4.11V46a1.85,1.85,0,0,0-1.85-1.85Z"/><path class="cls-24" d="M16.19,13.89a6.61,6.61,0,0,0-6.61,6.61V36.8h.77a1.85,1.85,0,0,0,1.85-1.85v-14a4.53,4.53,0,0,1,4.53-4.53h26a6.6,6.6,0,0,1,5.17-2.5Z"/><rect class="cls-25" x="9.65" y="24.19" width="31.68" height="3.13"/><polygon class="cls-11" points="9.65 24.2 9.65 27.32 14.99 27.32 14.99 25.91 14.99 24.2 9.65 24.2"/><line class="cls-26" x1="41.32" y1="53.77" x2="41.32" y2="23.33"/><polygon class="cls-1" points="9.65 24.2 9.65 27.32 12.19 27.32 12.19 25.83 12.19 24.2 9.65 24.2"/><path class="cls-27" d="M41.32,23.33V20.51a6.61,6.61,0,0,1,6.61-6.61H16.19a6.61,6.61,0,0,0-6.61,6.61v3.13H41.32Z"/><path class="cls-28" d="M15,21.58a5.1,5.1,0,0,1,5.1-5.1H42.7a6.63,6.63,0,0,1,2.23-1.85l.13-.06.51-.22.2-.07.48-.15.23-.06L47,14l.22,0a6.67,6.67,0,0,1,.74,0H16.19a6.61,6.61,0,0,0-6.61,6.61v3.13H15Z"/><path class="cls-29" d="M12.19,20.93a4.53,4.53,0,0,1,4.53-4.53h26A6.64,6.64,0,0,1,44.35,15l.11-.07.48-.27.18-.09.45-.19.22-.08.45-.13.24-.06L47,14l.22,0a6.66,6.66,0,0,1,.73,0H16.19a6.61,6.61,0,0,0-6.61,6.61v3.13h2.62Z"/><rect class="cls-16" x="9.57" y="23.33" width="31.75" height="0.97"/><rect class="cls-28" x="9.57" y="23.33" width="2.62" height="0.97"/><path class="cls-22" d="M41.32,24.3V20.51a6.61,6.61,0,0,1,6.61-6.61H16.19a6.61,6.61,0,0,0-6.61,6.61V53.77A6.61,6.61,0,0,1,3,60.38H34.71a6.61,6.61,0,0,0,6.61-6.61V51.63"/><line class="cls-22" x1="41.32" y1="51.63" x2="41.32" y2="49.38"/><path class="cls-3" d="M26.37,34.28a1,1,0,0,0-.53,1.31A1.36,1.36,0,1,1,23.92,35l1.18-.68,1.18-.68a3.36,3.36,0,1,0-4.87-1.85,1,1,0,0,0,1.9-.63,1.36,1.36,0,1,1,2,.75l-1.18.68-1.18.68a3.36,3.36,0,1,0,4.77,1.58A1,1,0,0,0,26.37,34.28Z"/><path class="cls-5" d="M25.83,34.88a1,1,0,0,0,0,.72A1.35,1.35,0,0,1,24,37.34a1.35,1.35,0,0,0,2.49-1.08,1,1,0,0,1,1.25-1.33s0-.08,0-.12a1,1,0,0,0-.75-.57l0,0Z"/><path class="cls-5" d="M22,32.35a3.36,3.36,0,0,1,4.88-3.91,3.33,3.33,0,0,1,.43.3,3.36,3.36,0,0,0-5.92,3A1,1,0,0,0,22,32.35Z"/><path class="cls-5" d="M21.86,36.8a3.37,3.37,0,0,1,1.68-2.91l1.18-.68,1.18-.68a1.36,1.36,0,0,0,0-2.36l-.07,0a1.35,1.35,0,0,1,.12.54,1.36,1.36,0,0,1-.68,1.18l-1.18.68-.4.23a1,1,0,0,1-.4.27h-.08l-.3.17a3.36,3.36,0,0,0-.42,5.52A3.36,3.36,0,0,1,21.86,36.8Z"/><path class="cls-7" d="M24.6,27.32a3.36,3.36,0,0,1,1.68,6.27l-1.18.68L23.92,35a1.36,1.36,0,1,0,1.93.64,1,1,0,0,1,.53-1.31,1,1,0,0,1,.39-.08,1,1,0,0,1,.92.61,3.36,3.36,0,0,1-3.09,4.68h0a3.36,3.36,0,0,1-1.68-6.27l1.18-.68,1.18-.68a1.36,1.36,0,1,0-2-.75,1,1,0,1,1-1.9.63,3.36,3.36,0,0,1,3.19-4.42m0-2a5.36,5.36,0,0,0-5.09,7,3,3,0,0,0,.53,1,5.36,5.36,0,1,0,9.49.69,3,3,0,0,0-.33-.58,5.36,5.36,0,0,0-4.6-8.11Z"/><circle class="cls-16" cx="52.46" cy="51.88" r="8.5"/><path class="cls-30" d="M52.46,43.38a8.48,8.48,0,0,0-8.28,10.39h8.9a2.25,2.25,0,0,0,2.25-2.25V43.89A8.46,8.46,0,0,0,52.46,43.38Z"/><path class="cls-31" d="M54.32,43.59v7.92a1.25,1.25,0,0,1-1.25,1.25H44a8.43,8.43,0,0,0,.47,2h8.6a3.25,3.25,0,0,0,3.25-3.25v-7.2A8.43,8.43,0,0,0,54.32,43.59Z"/><circle class="cls-32" cx="52.46" cy="51.88" r="5.44"/><path class="cls-16" d="M56.32,48.06a5.44,5.44,0,0,0-2-1.28v4.74a1.25,1.25,0,0,1-1.25,1.25h-6a5.4,5.4,0,0,0,.76,2h5.22a3.25,3.25,0,0,0,3.25-3.25Z"/><circle class="cls-22" cx="52.46" cy="51.88" r="8.5"/><path class="cls-33" d="M51.51,54.67h0a1,1,0,0,1-.71-.29L49.13,52.7a1,1,0,0,1,1.41-1.41l1,1,2.86-2.86a1,1,0,0,1,1.41,1.41l-3.57,3.57A1,1,0,0,1,51.51,54.67Z"/><circle class="cls-34" cx="22.83" cy="4.5" r="1.62"/><line class="cls-34" x1="22.83" y1="6.12" x2="22.83" y2="9.09"/><circle class="cls-34" cx="42.19" cy="4.5" r="1.62"/><line class="cls-34" x1="42.19" y1="6.12" x2="42.19" y2="9.09"/><circle class="cls-5" cx="17.35" cy="44.91" r="0.78"/><circle class="cls-9" cx="20.25" cy="44.91" r="0.78"/><circle class="cls-9" cx="23.15" cy="44.91" r="0.78"/><circle class="cls-9" cx="26.05" cy="44.91" r="0.78"/><circle class="cls-9" cx="28.95" cy="44.91" r="0.78"/><circle class="cls-9" cx="31.85" cy="44.91" r="0.78"/><circle class="cls-5" cx="17.35" cy="47.56" r="0.78"/><circle class="cls-9" cx="20.25" cy="47.56" r="0.78"/><circle class="cls-9" cx="23.15" cy="47.56" r="0.78"/><circle class="cls-9" cx="26.05" cy="47.56" r="0.78"/><circle class="cls-9" cx="28.95" cy="47.56" r="0.78"/><circle class="cls-9" cx="31.85" cy="47.56" r="0.78"/><circle class="cls-5" cx="17.35" cy="50.2" r="0.78"/><circle class="cls-9" cx="20.25" cy="50.2" r="0.78"/><circle class="cls-9" cx="23.15" cy="50.2" r="0.78"/><circle class="cls-9" cx="26.05" cy="50.2" r="0.78"/><circle class="cls-9" cx="28.95" cy="50.2" r="0.78"/><circle class="cls-9" cx="31.85" cy="50.2" r="0.78"/><circle class="cls-5" cx="17.35" cy="52.85" r="0.78"/><circle class="cls-9" cx="20.25" cy="52.85" r="0.78"/><circle class="cls-9" cx="23.15" cy="52.85" r="0.78"/><circle class="cls-9" cx="26.05" cy="52.85" r="0.78"/><circle class="cls-9" cx="28.95" cy="52.85" r="0.78"/><circle class="cls-9" cx="31.85" cy="52.85" r="0.78"/><circle class="cls-5" cx="17.35" cy="55.49" r="0.78"/><circle class="cls-9" cx="20.25" cy="55.49" r="0.78"/><circle class="cls-9" cx="23.15" cy="55.49" r="0.78"/><circle class="cls-9" cx="26.05" cy="55.49" r="0.78"/><circle class="cls-9" cx="28.95" cy="55.49" r="0.78"/><circle class="cls-9" cx="31.85" cy="55.49" r="0.78"/><path class="cls-35" d="M6.91,4.31h0a.37.37,0,0,0-.37-.37h-2A.62.62,0,0,0,4,4.56H4a.62.62,0,0,0,.62.62h1a.37.37,0,0,1,.37.37h0a.37.37,0,0,0,.37.37h2a.62.62,0,0,0,.62-.62h0a.62.62,0,0,0-.62-.62h-1A.37.37,0,0,1,6.91,4.31Z"/><path class="cls-35" d="M12.74,5.37h0a.45.45,0,0,1,.45-.45h2.4a.75.75,0,0,1,.75.75h0a.75.75,0,0,1-.75.75h-1.2a.45.45,0,0,0-.45.45h0a.45.45,0,0,1-.45.45H11.1a.75.75,0,0,1-.75-.75h0a.75.75,0,0,1,.75-.75h1.2A.45.45,0,0,0,12.74,5.37Z"/><circle class="cls-35" cx="6.12" cy="10.13" r="1.04"/><circle class="cls-35" cx="6.33" cy="13.4" r="0.5"/><circle class="cls-35" cx="9.15" cy="10.9" r="0.27"/><circle class="cls-35" cx="10.08" cy="12.76" r="0.44"/><circle class="cls-35" cx="32.65" cy="4.94" r="1"/><circle class="cls-35" cx="29.36" cy="6.54" r="0.6"/><circle class="cls-35" cx="38.91" cy="5.71" r="0.2"/><circle class="cls-35" cx="6.04" cy="17.93" r="1.45"/><circle class="cls-35" cx="4.76" cy="23.68" r="0.8"/></svg>