<svg id="Layer_1" data-name="Layer 1" xmlns="http://www.w3.org/2000/svg" viewBox="0 0 64 64"><defs><style>.cls-1{fill:#9ac8f1;}.cls-2{fill:none;stroke:#295183;stroke-linecap:round;stroke-linejoin:round;stroke-width:2px;}</style></defs><title>Carbon dioxide cloud</title><path class="cls-1" d="M45.84,42a4.62,4.62,0,0,1-4.61,4.63A4.57,4.57,0,0,1,37.75,45c-6.92.9-20.31,2.33-23.85.44-4.82-2.59-1.67-7.66-1.67-7.66L17,34.72a8.88,8.88,0,0,1-1.47-5.15,9,9,0,0,1,8.75-8.71,8.92,8.92,0,0,1,7.45,3.72v0s0,0,0,0a18.84,18.84,0,0,0,1,1.68s0,0,0,0a9.08,9.08,0,0,1,1.38,6.09A6.31,6.31,0,0,1,40,37.52,4.62,4.62,0,0,1,45.84,42Z"/><path class="cls-2" d="M17.62,35.13a10.77,10.77,0,0,1-1.94-4.91,11.34,11.34,0,0,1,1.65-7.55,11.57,11.57,0,0,1,2.25-2.58,11.33,11.33,0,0,1,16.52,2"/><path class="cls-2" d="M29.52,41.39a5.09,5.09,0,0,1-7.18,0h0a5.09,5.09,0,0,1,0-7.18h0a5.09,5.09,0,0,1,7.18,0h0"/><rect class="cls-2" x="31.67" y="34.2" width="7.2" height="7.2" rx="3.6" ry="3.6"/><path class="cls-2" d="M45,41.6H42.57a.55.55,0,0,1-.28-1l.71-.46h0a17.09,17.09,0,0,1,1.47-.88l.06,0a1.1,1.1,0,0,0,.21-1.67h0a1.68,1.68,0,0,0-2.59.25,1.71,1.71,0,0,0-.2.38"/><path class="cls-2" d="M25.64,32.73l1-1.71a8.85,8.85,0,0,1,1.93-2.23,9,9,0,0,1,2.93-1.69,8.83,8.83,0,0,1,3.33-.6A9.65,9.65,0,0,1,44,33.18,7.51,7.51,0,0,1,46.55,33a6.93,6.93,0,0,1,6,5.26A6.82,6.82,0,0,1,50.45,45a3.35,3.35,0,0,1-2.31.82H16a4.37,4.37,0,0,1-4.42-4.22v0a6.43,6.43,0,0,1,6.05-6.42"/></svg>