<svg id="Layer_1" data-name="Layer 1" xmlns="http://www.w3.org/2000/svg" viewBox="0 0 64 64"><defs><style>.cls-1{fill:#389ad6;}.cls-2{fill:#9ac8f1;}.cls-3,.cls-4{fill:none;stroke-linecap:round;stroke-linejoin:round;stroke-width:2px;}.cls-3{stroke:#2a5080;}.cls-4{stroke:#295183;}</style></defs><title>Care about nature</title><path class="cls-1" d="M13.84,25.21c.76,2.52.5,5.21.45,7.84-.05,2.95.24,6.43,2.64,8.49a3.62,3.62,0,0,0,3.56.79,4.36,4.36,0,0,0,2.34-3.39c.27-1.41.21-2.87.59-4.26.08-.29.33-.64.59-.5a.52.52,0,0,1,.21.37A18.17,18.17,0,0,1,24,43.08a3.2,3.2,0,0,1-.78,1.58,2.83,2.83,0,0,1-2.11.58c-6.06-.33-9.28-7.53-9.33-12.53a22.18,22.18,0,0,1,.61-3.81C12.6,28,14.11,26.11,13.84,25.21Z"/><path class="cls-2" d="M49.13,36a18.25,18.25,0,0,1-4.74,9.18,5.63,5.63,0,0,0-1.54,2A4.71,4.71,0,0,0,43,49.9a1.23,1.23,0,0,1,0,.66.89.89,0,0,1-1.18.37,2.41,2.41,0,0,1-1-.95,17.67,17.67,0,0,1-1.24-2.09A4.28,4.28,0,0,1,39,45.65l-1.8-2.24.51-7.08v.41c0,2,.18,8.49,3,6.62,2.66-2.12,5.24-4.67,5.85-7.94a21.69,21.69,0,0,0,.3-4.7q0-1.19-.15-2.37a3.29,3.29,0,0,1,0-1.49c.33-.61,1.07.23,1.25.53a10.36,10.36,0,0,1,1.34,3.89A13.26,13.26,0,0,1,49.13,36Z"/><path class="cls-3" d="M43.5,23.24a2,2,0,0,1,0-2.87h0a2,2,0,0,1,2.87,0s9.14,5.89,5.4,18.53"/><path class="cls-3" d="M37.19,43.05a1.62,1.62,0,0,1,0-.31V34.53a1.93,1.93,0,0,1,2-1.82,2.07,2.07,0,0,1,1.43.54,1.7,1.7,0,0,1,.6,1.28v6.86"/><path class="cls-3" d="M43.47,23.21a10.81,10.81,0,0,1,2.72,3,10.48,10.48,0,0,1,1.58,5.55c0,.1,0,.2,0,.3a10.54,10.54,0,0,1-6.53,9.47"/><path class="cls-3" d="M20.5,23.24a2,2,0,0,0,0-2.87h0a2,2,0,0,0-2.87,0s-9.14,5.89-5.4,18.53"/><path class="cls-3" d="M22.77,41.39V34.53a1.7,1.7,0,0,1,.6-1.28,2.07,2.07,0,0,1,1.43-.54,1.93,1.93,0,0,1,2,1.82V47.41"/><path class="cls-3" d="M20.53,23.21a10.81,10.81,0,0,0-2.72,3,10.48,10.48,0,0,0-1.58,5.55c0,.1,0,.2,0,.3a10.54,10.54,0,0,0,6.53,9.47"/><line class="cls-3" x1="37.17" y1="42.74" x2="37.17" y2="47.75"/><path class="cls-2" d="M26,22.06a2.64,2.64,0,0,1,1.59,2.06c.41,1.72,1.67.79,2,.06s1.1-1.52,1.74-1.35-1.41,7.49-1.41,7.49S25.07,25.75,26,22.06Z"/><path class="cls-1" d="M31.3,22.84s-.87-.63-1.39,1.51-.74,5,.13,6.11.64-4.6.64-4.6Z"/><path class="cls-4" d="M31.48,22.77a15.8,15.8,0,0,0-.74,3.49,41.37,41.37,0,0,0,.1,8.08s0,0,0,0c0,.23,0,.47.07.69"/><path class="cls-4" d="M34.9,29.64l-.87.46,1.11-.63c2.78-2.06,8-7.68-1.26-16.48a12.92,12.92,0,0,1-6.1,6.53,4,4,0,0,0-1,.74,4.63,4.63,0,0,0-.63,5c.73,1.9,2.18,3,3.26,4.59a10.32,10.32,0,0,1,1.43,4.48h0c0,.23,0,.46.07.69"/></svg>