<svg id="Layer_1" data-name="Layer 1" xmlns="http://www.w3.org/2000/svg" viewBox="0 0 64 64"><defs><style>.cls-1{fill:#fff;}.cls-2{fill:none;stroke:#295183;stroke-linecap:round;stroke-linejoin:round;stroke-width:2px;}.cls-3{fill:#a8d2f0;}</style></defs><title>Cash Register</title><rect class="cls-1" x="15.58" y="23" width="34.42" height="20.69" rx="7.29" ry="7.29"/><circle class="cls-2" cx="20.36" cy="34.89" r="2.35"/><path class="cls-3" d="M24.08,28.3h16a1.37,1.37,0,0,1,1.37,1.37v2a1.38,1.38,0,0,1-1.38,1.38h-16a1.38,1.38,0,0,1-1.38-1.38v-2a1.37,1.37,0,0,1,1.37-1.37Z"/><circle class="cls-2" cx="25.05" cy="34.89" r="2.35"/><path class="cls-2" d="M29.75,50.48a2.35,2.35,0,0,1,4.7,0"/><circle class="cls-2" cx="29.75" cy="34.89" r="2.35"/><circle class="cls-2" cx="34.44" cy="34.89" r="2.35"/><circle class="cls-2" cx="39.14" cy="34.89" r="2.35"/><circle class="cls-2" cx="43.83" cy="34.89" r="2.35"/><rect class="cls-1" x="32.1" y="16" width="12.52" height="11.08" rx="0.22" ry="0.22"/><path class="cls-2" d="M22.71,30a2.35,2.35,0,0,1,4.7,0"/><path class="cls-2" d="M27.4,30a2.35,2.35,0,0,1,4.7,0"/><path class="cls-2" d="M32.1,30a2.35,2.35,0,0,1,4.7,0"/><path class="cls-2" d="M36.79,30a2.35,2.35,0,0,1,4.7,0"/><path class="cls-2" d="M29,23.35h14.7A6.36,6.36,0,0,1,50,29.68v7.43a6.36,6.36,0,0,1-6.34,6.34H21.21a6.35,6.35,0,0,1-6.33-6.34V29.68a6.35,6.35,0,0,1,5.92-6.32"/><path class="cls-2" d="M20.8,23.36V19.61a4.08,4.08,0,0,1,8.17,0v3.74"/><path class="cls-2" d="M32.1,20.22V17.34a1.81,1.81,0,0,1,1.81-1.81h8.9a1.81,1.81,0,0,1,1.81,1.81v2.87"/><rect class="cls-3" x="14.88" y="43.69" width="34.73" height="6.78" rx="3.36" ry="3.36"/><line class="cls-2" x1="24.88" y1="19.44" x2="24.88" y2="23.36"/><line class="cls-2" x1="35.37" y1="18.9" x2="41.14" y2="18.9"/><path class="cls-2" d="M49.31,45.69v2.54a2.25,2.25,0,0,1-2.24,2.25H34.44a2.35,2.35,0,0,0-4.7,0H17.12a2.25,2.25,0,0,1-2.24-2.25V45.69a2.25,2.25,0,0,1,2.24-2.24h30A2.25,2.25,0,0,1,49.31,45.69Z"/></svg>