<svg id="Layer_1" data-name="Layer 1" xmlns="http://www.w3.org/2000/svg" viewBox="0 0 64 64"><defs><style>.cls-1{fill:#9dcbf4;}.cls-2{fill:#389ad6;}.cls-3,.cls-4{fill:none;stroke-linecap:round;stroke-linejoin:round;stroke-width:2px;}.cls-3{stroke:#2a5082;}.cls-4{stroke:#2a5081;}</style></defs><title>Chart presentation</title><path class="cls-1" d="M41.5,22.09,46,14.82s4.59,4.27,3.76,8.78H42.35A1,1,0,0,1,41.5,22.09Z"/><path class="cls-1" d="M44.33,33.24A11,11,0,0,1,28.16,18.89a.83.83,0,0,1,1.53.46q0,.14,0,.28a12.29,12.29,0,0,0,14,12.16A.83.83,0,0,1,44.33,33.24Z"/><path class="cls-2" d="M37.82,19.09a1.06,1.06,0,0,0,1.86.16c1.33-2,3.4-5.28,3.24-5.42s-6.08-1-6.78-.4C35.67,13.81,36.93,17,37.82,19.09Z"/><path class="cls-3" d="M42.8,20.33l1.43-2.49L45.87,15A10.58,10.58,0,0,1,50,23.46c0,.18,0,.37,0,.55H40.68"/><path class="cls-3" d="M38.35,21.14l-2.56-7.93a10.13,10.13,0,0,1,6.91.42l-.94,1.64-1.33,2.3"/><path class="cls-3" d="M27.36,20.42a10.87,10.87,0,0,1,2.7-3.78,11.25,11.25,0,0,1,.92-.76"/><path class="cls-3" d="M33.48,35A11,11,0,0,0,46.35,31.1a11.21,11.21,0,0,0,1.72-3.78"/><polyline class="cls-3" points="48.07 27.32 36.94 27.32 33.55 17.31"/><path class="cls-1" d="M18.25,35.79s4.24-1.5,4.17,10c0,0-.24,5.5-3.24,5.42Z"/><path class="cls-1" d="M23,17.79c-.61,0,.11,3.26.14,3.56A12.87,12.87,0,0,1,23,24.1c-.25,2.34,0,4.71-.42,7-.34,1.67-1.22,3.6-3.24,3.4-4.4-.43.4-12.76,1-12.56s0-4.17,0-4.17Z"/><line class="cls-4" x1="17.75" y1="25.82" x2="13.96" y2="34.99"/><path class="cls-4" d="M17.75,25.82v8a2.1,2.1,0,0,0,2.09,1.88H25a2.1,2.1,0,0,0,2.09-1.85V26a2.82,2.82,0,0,0-.12-.83v-.05a2.13,2.13,0,0,0-.14-.35,2.06,2.06,0,0,0-.33-.55A2.92,2.92,0,0,0,24.13,23H22.75"/><path class="cls-4" d="M22.58,17a3,3,0,0,0,0,6"/><polyline class="cls-4" points="33.54 30.47 27.45 25.18 27.42 25.14 27.13 24.9"/><line class="cls-4" x1="18.75" y1="50.59" x2="17.75" y2="33.63"/><line class="cls-4" x1="27.08" y1="33.56" x2="26.12" y2="49.99"/><path class="cls-4" d="M22.37,40.66v9.5a.43.43,0,0,0,.43.43h2.86a.43.43,0,0,0,.43-.43"/></svg>