<svg id="Layer_1" data-name="Layer 1" xmlns="http://www.w3.org/2000/svg" viewBox="0 0 64 64"><defs><style>.cls-1{fill:#9ac8f1;}.cls-2{fill:#389ad6;}.cls-3,.cls-4{fill:none;stroke-linecap:round;stroke-linejoin:round;stroke-width:2px;}.cls-3{stroke:#295183;}.cls-4{stroke:#2a5080;}.cls-5{fill:#295183;}</style></defs><title>Chemistry</title><path class="cls-1" d="M30.6,20.31l.1.07c1.12.93,1,2.69.93,4-.13,2.56.2,5.44-.82,7.85-.63,1.48-1.66,2.75-2.39,4.18a8.58,8.58,0,0,0-.66,6.67,7.3,7.3,0,0,0,5.13,4.52,8.16,8.16,0,0,0,6.73-1.49c.53-.4,1.74-1.71,2.46-1.16.54.42.18,1.52-.07,2a10.08,10.08,0,0,1-6.5,4.91,14.88,14.88,0,0,1-8.27-.49,10.71,10.71,0,0,1-5.08-3.2,9.06,9.06,0,0,1-1.84-4.92,10.82,10.82,0,0,1,1.89-7.17,9.27,9.27,0,0,1,6.29-3.82c-.22.13-.39-.24-.39-.5v-6a34.92,34.92,0,0,1,0-6.06C28.88,19.95,29.93,19.85,30.6,20.31Z"/><path class="cls-2" d="M24.65,34.39s1.5,1.12,0,4.93.08,8.27,2.5,9.18,1.9,3.57-.91,2S14.71,43.19,24.65,34.39Z"/><path class="cls-3" d="M36.09,25.06v7.18a10.21,10.21,0,0,1-2.3,20.14H30.39a10.21,10.21,0,0,1-2.3-20.14V19.59h8"/><line class="cls-3" x1="25.93" y1="19.59" x2="38.25" y2="19.59"/><path class="cls-4" d="M32.41,35.23c3,1.74,4.74,5.6,2.82,8.55-1.08,1.65-3.2,3-2.82,5.19"/><path class="cls-4" d="M32.44,40.84a9.93,9.93,0,0,1-.34,2A1.93,1.93,0,0,1,31,44c-1.23.46-1.9-.73-2.16-1.73A5.07,5.07,0,0,1,29,39.55a7.79,7.79,0,0,1,3.41-4.33"/><circle class="cls-5" cx="36.03" cy="22.32" r="0.91"/><path class="cls-3" d="M30.19,16.63a2.06,2.06,0,0,0,0-2.5c-1-1.14.7-2.5.7-2.5"/><path class="cls-3" d="M33.6,16.63a2.06,2.06,0,0,0,0-2.5c-1-1.14.7-2.5.7-2.5"/></svg>