<svg id="Layer_1" data-name="Layer 1" xmlns="http://www.w3.org/2000/svg" viewBox="0 0 64 64"><defs><style>.cls-1{fill:#389ad6;}.cls-2{fill:#a8d2f0;}.cls-3{fill:none;stroke:#295183;stroke-linecap:round;stroke-linejoin:round;stroke-width:2px;}.cls-4{fill:#295183;}</style></defs><title>Click</title><path class="cls-1" d="M30.77,35.85c-.51-1.49-1.94-1.71-2.44-.34A6.14,6.14,0,0,0,28,37.86c.11,3.26,1.56,6.91,3.29,7.35a2.77,2.77,0,0,0,2.57-.35Z"/><path class="cls-2" d="M42.84,46.74c-.31-.17-.44-.5-.67-.78a5.68,5.68,0,0,0-1.34-1.15,3.09,3.09,0,0,0-3.25-.25,3.5,3.5,0,0,1-1.57.72,2.47,2.47,0,0,1-1.88-1.11,17.39,17.39,0,0,1-2.66-5.42,18.61,18.61,0,0,1-1.29-5.53,2.44,2.44,0,0,1,.68-2,2.28,2.28,0,0,1,1.72-.31,6.36,6.36,0,0,1,2,.63,2.28,2.28,0,0,1,.94.76,3.19,3.19,0,0,1,0,2.38,11.55,11.55,0,0,0-.16,4.22,2.47,2.47,0,0,0,.71,1.59,1.93,1.93,0,0,0,1.88.19,8.49,8.49,0,0,0,1.69-1,3.44,3.44,0,0,1,1.82-.7,1,1,0,0,1,.88.4,1.4,1.4,0,0,1,0,.91,6.55,6.55,0,0,0,1.67,5.36c.24.26.52.65.29.92a.62.62,0,0,1-.27.16A1.83,1.83,0,0,1,43,46.8Z"/><path class="cls-3" d="M46.92,43.49l-4.23-4.22,1.73-1.73a2.92,2.92,0,0,0-.83-4.71,2.74,2.74,0,0,0-.48-.18l-2.92-.78-1.83-.49L36.83,31l-3.22-.86A2.93,2.93,0,0,0,30,33.68l.9,3.34.38,1.42.52,1.92.76,2.83a2.91,2.91,0,0,0,4.89,1.31"/><path class="cls-3" d="M28.93,45.3A14.17,14.17,0,1,1,45.19,28.84"/><path class="cls-3" d="M27.83,40.75A10,10,0,1,1,40.71,28.08"/><path class="cls-3" d="M26.46,35.07a6,6,0,0,1-1.3-3.75,6.08,6.08,0,0,1,10.59-4.08"/><circle class="cls-4" cx="39.71" cy="42.34" r="1"/></svg>