<svg id="Layer_1" data-name="Layer 1" xmlns="http://www.w3.org/2000/svg" viewBox="0 0 64 64"><defs><style>.cls-1{fill:#3897d3;}.cls-2{fill:#9ac8f1;}.cls-3{fill:none;stroke:#295183;stroke-linecap:round;stroke-linejoin:round;stroke-width:2px;}</style></defs><title>Clouds</title><path class="cls-1" d="M35.13,29.35a1.49,1.49,0,0,1,.58-.24A3.46,3.46,0,0,1,39,30.8a4.65,4.65,0,0,1,.37,3.55,4.35,4.35,0,0,1-6.26,2.79,14.2,14.2,0,0,1-3-2,7.11,7.11,0,0,1-2.63-3.25A5.55,5.55,0,0,1,27.57,29a4.3,4.3,0,0,1,1.49-2.59,1.91,1.91,0,0,1,2.68.39c.52.93-.55,4,1.19,4.08C33.87,30.93,34.37,29.86,35.13,29.35Z"/><path class="cls-2" d="M35.93,16.4a3.68,3.68,0,0,1,2.62-.11,1.48,1.48,0,0,1,1,2.24c-.4.86-1,1.94-.58,2.91.32.75,1.62,1.74.15,2.25-1.3.45-5.53.91-6.13-.76C32.31,20.9,34.09,17.37,35.93,16.4Z"/><path class="cls-2" d="M19,10.75a3.68,3.68,0,0,1,2.62-.11,1.48,1.48,0,0,1,1,2.24c-.4.86-1,1.94-.58,2.91.32.75,1.62,1.74.15,2.25-1.3.45-5.53.91-6.13-.76C15.38,15.26,17.15,11.72,19,10.75Z"/><path class="cls-2" d="M19.54,20.13a2.91,2.91,0,0,1,1.66-1.24,1.17,1.17,0,0,1,1.68,1c.13.74.22,1.71.92,2.15.55.35,1.14.17,1.1,1.4,0,2-3.2,3.07-4.34,2.24C19.19,24.68,18.77,21.58,19.54,20.13Z"/><path class="cls-2" d="M43.43,27.42a2.32,2.32,0,0,1,.8-2.92c1.67-1.08.42,1.67.83,3.67s.33,3.56,1.67,3.66.92,1.09-.33,1.59-5,7.83-6,6,1.84-6.54,2-6.27S43.43,27.42,43.43,27.42Z"/><path class="cls-1" d="M21.54,31.43a.65.65,0,0,1-.57.5.78.78,0,0,1-.45-.21c-1-.85-1.54-2.21-2.42-3.24a5.52,5.52,0,0,0-4-1.91,3.34,3.34,0,0,1-1.47-.21c-.44-.23-.69-.9-.33-1.24a11.61,11.61,0,0,1-1-1.83A6.84,6.84,0,0,1,11,21a3.3,3.3,0,0,1,2.15-3.44,2,2,0,0,1,1.42-.1,1.08,1.08,0,0,1,.73,1.12c-.09.5-.58.79-.95,1.14s-.6,1-.2,1.31c.89.68,1.93-.16,2.4,1.29a13.05,13.05,0,0,1,.28,1.82,2.09,2.09,0,0,0,.91,1.54,5,5,0,0,0,.73.26A5.28,5.28,0,0,1,21,28.85a4,4,0,0,1,.59,2.38A1.18,1.18,0,0,1,21.54,31.43Z"/><path class="cls-3" d="M39.2,40.52c1.46,1.23,1.91,5.7,2,9.06v.06c.08,2.2,0,3.9,0,3.9q-.08-2.1,0-3.9v-.06c.16-7,1.52-10.92,2.86-13.1a6,6,0,0,1,4.29-2.67,5.81,5.81,0,0,0-.27-11.52,5.65,5.65,0,0,0-1.84.09,7.48,7.48,0,0,0-14.52-2.25,7.31,7.31,0,0,0-.4,1.69c0,.19,0,.37,0,.55a8.17,8.17,0,0,0-4.45,6.18l0,.23A8.19,8.19,0,0,0,40.17,36c2.16-1.77,3.8-5.19,2.49-7.91a4.84,4.84,0,0,0-9,.61"/><path class="cls-3" d="M22.1,30.82c-1.16.69-1.32,3.53-1.46,4.74a47.36,47.36,0,0,0-.21,5.72A33.71,33.71,0,0,0,20,33.38a14.17,14.17,0,0,0-1.15-4.5c-.9-1.64-2.4-2.15-4.17-2.43-5.46-.85-5.3-9.63.22-10.26a4.55,4.55,0,0,1,1.48.08,6,6,0,0,1,12-.45c0,.15,0,.29,0,.43a6.57,6.57,0,0,1,3.33,3.89"/><path class="cls-3" d="M26.52,21.35a3.89,3.89,0,0,0-7.2-.49c-1.05,2.18.27,4.93,2,6.35a6.61,6.61,0,0,0,4.9,1.45,4.5,4.5,0,0,0,.64-.11"/></svg>