<svg id="Layer_1" data-name="Layer 1" xmlns="http://www.w3.org/2000/svg" viewBox="0 0 64 64"><defs><style>.cls-1{fill:#a8d2f0;}.cls-2{fill:#295183;}.cls-3{fill:none;stroke:#295183;stroke-linecap:round;stroke-linejoin:round;stroke-width:2px;}.cls-4{fill:#389ad6;}</style></defs><title>Cloud Distribution</title><path class="cls-1" d="M13.7,33.22a4.89,4.89,0,0,0,5.06,5.23c1.45,0,3.25-.26,4.24-1.17,0,0,0-.06,0-.1H47.4a1.34,1.34,0,0,0,1-.5C49,36,50,35.3,50,34.57a7.86,7.86,0,0,0-7.86-7.86,8.11,8.11,0,0,0-1.76.2,1.36,1.36,0,0,1-1.63-1.35v0a11.19,11.19,0,0,0-8.63-11,11.89,11.89,0,0,0-5.74.13l.18,0s-8.62,6.58-1.89,15.68a.89.89,0,0,1-.13,1.18l0,0a.91.91,0,0,1-1.17.15,7.29,7.29,0,0,0-5.56-2.57h-.27A5.51,5.51,0,0,0,13.7,33.22Z"/><path class="cls-2" d="M17,38.56a.91.91,0,0,0,.9-.9h0a.9.9,0,0,0-1.81,0h0A.91.91,0,0,0,17,38.56Z"/><path class="cls-3" d="M35.14,14.29a10.11,10.11,0,0,0-12.86,15,5.29,5.29,0,0,1,1.51,1.59,9.69,9.69,0,0,1-1.51-1.59,5.23,5.23,0,0,0-3-.91s-5.93-.46-6.61,5.72"/><path class="cls-3" d="M20,37.66H44.8a6.49,6.49,0,1,0-5.25-10.3,9.13,9.13,0,0,1-.78,1.39,6.18,6.18,0,0,1,.78-1.39,10.14,10.14,0,0,0-.72-9.66"/><ellipse class="cls-4" cx="14.45" cy="48.29" rx="2.25" ry="2.51"/><circle class="cls-3" cx="16.07" cy="47.77" r="3.16"/><path class="cls-3" d="M19.23,47.77h1.52A2.77,2.77,0,0,0,23.52,45V41.19"/><ellipse class="cls-4" cx="47.01" cy="48.29" rx="2.25" ry="2.51"/><path class="cls-3" d="M51.51,46.46a3.16,3.16,0,1,1-2.87-1.84"/><path class="cls-3" d="M45.48,47.77H44A2.77,2.77,0,0,1,41.19,45V41.19"/><ellipse class="cls-4" cx="30.73" cy="48.29" rx="2.25" ry="2.51"/><circle class="cls-3" cx="32.35" cy="47.77" r="3.16"/><line class="cls-3" x1="32.35" y1="44.61" x2="32.35" y2="41.19"/></svg>