<svg id="Layer_1" data-name="Layer 1" xmlns="http://www.w3.org/2000/svg" viewBox="0 0 64 64"><defs><style>.cls-1{fill:#a8d2f0;}.cls-2{fill:#295183;}.cls-3{fill:none;stroke:#295183;stroke-linecap:round;stroke-linejoin:round;stroke-width:2px;}</style></defs><title>Cloud ladder</title><path class="cls-1" d="M51,36.91c0,.58-.58,1.13-1.09,1.66a5.58,5.58,0,0,0-.41.45,1.33,1.33,0,0,1-1,.5h-11V31.4a18.45,18.45,0,0,0-8.63.6l-.29,7.52H24s0,.06,0,.1a2.55,2.55,0,0,1-.53.38,7.62,7.62,0,0,1-3.7.79,5.81,5.81,0,0,1-1.2-.12,4.76,4.76,0,0,1-1.49-.57,5,5,0,0,1-2.37-4.54A5.51,5.51,0,0,1,16,32a4.42,4.42,0,0,1,.47-.5h.32a7.29,7.29,0,0,1,5.51,2.56.9.9,0,0,0,1.17-.15l0,0a.89.89,0,0,0,.12-1.17c-.36-.48-.67-1-1-1.42a10.11,10.11,0,0,1,0-11A13,13,0,0,1,25.51,17l-.18,0a7.52,7.52,0,0,1,.94-.21,12,12,0,0,1,4.81.08,11.19,11.19,0,0,1,8.62,11h0a1.39,1.39,0,0,0,1,1.34.29.29,0,0,0,.16,0,1,1,0,0,0,.43,0,8.55,8.55,0,0,1,1.76-.2A7.85,7.85,0,0,1,51,36.91Z"/><path class="cls-2" d="M18,40.9a.91.91,0,0,0,.9-.9h0a.9.9,0,0,0-1.81,0h0A.91.91,0,0,0,18,40.9Z"/><path class="cls-2" d="M28,51.9a.91.91,0,0,0,.9-.9h0a.9.9,0,0,0-1.81,0h0A.91.91,0,0,0,28,51.9Z"/><path class="cls-3" d="M36.14,16.63a10.11,10.11,0,0,0-12.86,15,5.29,5.29,0,0,1,1.51,1.59,9.69,9.69,0,0,1-1.51-1.59,5.23,5.23,0,0,0-3-.91s-5.93-.46-6.61,5.72"/><path class="cls-3" d="M40.55,29.69A10.14,10.14,0,0,0,39.82,20"/><path class="cls-3" d="M37.75,40H45.8a6.49,6.49,0,1,0-5.25-10.3"/><polyline class="cls-3" points="20.96 39.99 25.63 39.99 28 39.99"/><line class="cls-3" x1="28" y1="48.58" x2="28" y2="28.91"/><polyline class="cls-3" points="37.38 28.91 37.38 31.4 37.38 39.52 37.38 41.92 37.38 50.59"/><line class="cls-3" x1="36.75" y1="31.42" x2="31.3" y2="31.42"/><line class="cls-3" x1="36.75" y1="35.74" x2="31.3" y2="35.74"/><line class="cls-3" x1="36.75" y1="39.99" x2="31.3" y2="39.99"/><line class="cls-3" x1="36.75" y1="44.37" x2="31.3" y2="44.37"/><path class="cls-2" d="M37.5,31.42l-.09,8.1,0,2.4V31.4Z"/></svg>