<svg id="Layer_1" data-name="Layer 1" xmlns="http://www.w3.org/2000/svg" viewBox="0 0 64 64"><defs><style>.cls-1{fill:#fff;}.cls-2,.cls-5{fill:none;stroke-linecap:round;stroke-linejoin:round;stroke-width:2px;}.cls-2{stroke:#295183;}.cls-3{fill:#9dcbf4;}.cls-4{fill:#389ad6;}.cls-5{stroke:#2a5082;}.cls-6{fill:#2a5082;}</style></defs><title>Coins</title><ellipse class="cls-1" cx="30.99" cy="15.65" rx="11.72" ry="5.64"/><path class="cls-2" d="M31.27,16.08c1,0,1.83.49,1.83,1.1s-.82,1.1-1.83,1.1"/><path class="cls-2" d="M31.27,16.08c-1,0-1.83-.49-1.83-1.1s.82-1.1,1.83-1.1"/><polyline class="cls-2" points="31.27 19.24 31.27 18.27 29.44 18.27"/><polyline class="cls-2" points="31.27 12.91 31.27 13.88 33.1 13.88"/><ellipse class="cls-1" cx="38.42" cy="25.25" rx="11.72" ry="5.64"/><polygon class="cls-1" points="46.31 24.35 49.76 23.88 49.25 31.24 44.08 34.92 43.73 26.6 46.31 24.35"/><polygon class="cls-1" points="39.95 45.86 43.41 45.4 42.9 52.75 37.73 56.43 37.38 48.12 39.95 45.86"/><polygon class="cls-1" points="40.54 16.11 44 15.64 43.49 23 38.32 26.68 37.97 18.36 40.54 16.11"/><path class="cls-3" d="M39.25,23.65a2.69,2.69,0,0,1-.64,1.75,2.65,2.65,0,0,1-1.63.91,38.27,38.27,0,0,1-11.64.19C22.46,26,20,24.81,19,22.53a2.56,2.56,0,0,1-.18-1v-5.9l.32.94a6.45,6.45,0,0,0,2.18,3.13,10.07,10.07,0,0,0,5.07,2.11A24.57,24.57,0,0,0,35.93,21,2.68,2.68,0,0,1,39.25,23.65Z"/><path class="cls-3" d="M26.09,25.08S28,33.23,42.91,29.53a2.68,2.68,0,0,1,3.32,2.61h0A2.68,2.68,0,0,1,44,34.8c-4.77.72-15.58,1.7-18-3.78a2.45,2.45,0,0,1-.18-1v-5.9Z"/><path class="cls-3" d="M19.53,42s1.94,8.15,16.82,4.46a2.68,2.68,0,0,1,3.32,2.61h0a2.68,2.68,0,0,1-2.27,2.66c-4.77.72-15.58,1.7-18-3.78a2.45,2.45,0,0,1-.18-1v-5.9Z"/><path class="cls-4" d="M27,25.31a2.67,2.67,0,0,1-1.61,1.19C22.46,26,20,24.81,19,22.53a2.56,2.56,0,0,1-.18-1v-3.2a21.27,21.27,0,0,0,2.5,1.37,32.66,32.66,0,0,0,4.2,1.64,2.44,2.44,0,0,1,.87.47A2.67,2.67,0,0,1,27,25.31Z"/><path class="cls-3" d="M21.09,34.32s3,7.86,18.73,2.31a2.88,2.88,0,0,1,3.89,2.18h0a2.77,2.77,0,0,1-2.16,2.92c-5.08,1.32-16.68,3.65-19.92-1.49a2.27,2.27,0,0,1-.31-1l-.68-5.87Z"/><path class="cls-3" d="M19.11,37.59s1.94,8.15,16.82,4.46a2.68,2.68,0,0,1,3.32,2.61h0A2.68,2.68,0,0,1,37,47.32C32.21,48,21.4,49,19,43.54a2.45,2.45,0,0,1-.18-1v-5.9Z"/><path class="cls-3" d="M19.11,46.46s1.94,8.15,16.82,4.46a2.68,2.68,0,0,1,3.32,2.61h0A2.68,2.68,0,0,1,37,56.19c-4.77.72-15.58,1.7-18-3.78a2.45,2.45,0,0,1-.18-1v-5.9Z"/><path class="cls-3" d="M14.35,29s2.13,8.15,18.46,4.46a2.89,2.89,0,0,1,3.64,2.61h0A2.77,2.77,0,0,1,34,38.77c-5.24.72-17.1,1.7-19.75-3.78a2.26,2.26,0,0,1-.2-1V28.1Z"/><path class="cls-4" d="M33.87,34.22a2.67,2.67,0,0,1-1.61,1.19c-2.88-.52-5.35-1.69-6.36-4a2.56,2.56,0,0,1-.18-1v-3.2a21.27,21.27,0,0,0,2.5,1.37,32.66,32.66,0,0,0,4.2,1.64,2.44,2.44,0,0,1,.87.47A2.67,2.67,0,0,1,33.87,34.22Z"/><path class="cls-4" d="M22.15,38a2.67,2.67,0,0,1-1.61,1.19c-2.88-.52-5.35-1.69-6.36-4a2.56,2.56,0,0,1-.18-1V31a21.27,21.27,0,0,0,2.5,1.37,32.66,32.66,0,0,0,4.2,1.64,2.44,2.44,0,0,1,.87.47A2.67,2.67,0,0,1,22.15,38Z"/><path class="cls-4" d="M27,46.7a2.67,2.67,0,0,1-1.61,1.19c-2.88-.52-5.35-1.69-6.36-4a2.56,2.56,0,0,1-.18-1v-3.2a21.27,21.27,0,0,0,2.5,1.37,32.66,32.66,0,0,0,4.2,1.64,2.44,2.44,0,0,1,.87.47A2.67,2.67,0,0,1,27,46.7Z"/><path class="cls-4" d="M27,55.21a2.67,2.67,0,0,1-1.61,1.19c-2.88-.52-5.35-1.69-6.36-4a2.56,2.56,0,0,1-.18-1v-3.2a21.27,21.27,0,0,0,2.5,1.37,32.66,32.66,0,0,0,4.2,1.64,2.44,2.44,0,0,1,.87.47A2.67,2.67,0,0,1,27,55.21Z"/><path class="cls-5" d="M38.46,21.09a21.5,21.5,0,0,1-7.31,1.2,23.68,23.68,0,0,1-4.4-.4C22.1,21,18.8,18.75,18.8,16.11c0-3.41,5.53-6.18,12.35-6.18,4.42,0,8.31,1.17,10.49,2.92a7.21,7.21,0,0,1,.69.65,4.87,4.87,0,0,1,.74,1,3.42,3.42,0,0,1,.42,1.61"/><path class="cls-5" d="M43.49,21.09a3.56,3.56,0,0,1-.68,2,6.34,6.34,0,0,1-1,1.06,12.18,12.18,0,0,1-4.28,2.19,22.2,22.2,0,0,1-6.41.9,22.72,22.72,0,0,1-5.24-.59,11.81,11.81,0,0,1-6-3,4.38,4.38,0,0,1-.9-1.38"/><polyline class="cls-5" points="43.49 15.64 43.49 16.11 43.49 19.33 43.49 21.09"/><path class="cls-5" d="M40.39,41.39l-.64.34a20.16,20.16,0,0,1-8.6,1.75,20,20,0,0,1-8.6-1.75A7.28,7.28,0,0,1,19.27,39h0"/><path class="cls-5" d="M19.43,44.22c1.63,2.45,6.26,4.23,11.72,4.23,4.56,0,8.55-1.24,10.69-3.09a6.34,6.34,0,0,0,1-1.06l.06-.08a3.57,3.57,0,0,0,.62-1.95"/><line class="cls-5" x1="43.49" y1="39.33" x2="43.49" y2="42.6"/><path class="cls-5" d="M18.8,46.16c0,3.42,5.53,6.18,12.35,6.18a19.21,19.21,0,0,0,9.39-2.17"/><path class="cls-5" d="M43.49,51.14a3.54,3.54,0,0,1-.68,2,5.77,5.77,0,0,1-1,1.06c-2.13,1.85-6.12,3.09-10.69,3.09-5.65,0-10.42-1.9-11.88-4.5"/><line class="cls-5" x1="43.49" y1="51.14" x2="43.49" y2="42.27"/><path class="cls-5" d="M18.8,46.16V43a5.24,5.24,0,0,0,.63,1.22"/><path class="cls-5" d="M43.49,19.33a13,13,0,0,1,4.66,2.19,7.15,7.15,0,0,1,.69.64,4.72,4.72,0,0,1,.73,1A3.39,3.39,0,0,1,50,24.78"/><path class="cls-5" d="M25.91,26.68C27.52,29.17,32.17,31,37.65,31l1,0a19,19,0,0,0,8-1.94"/><path class="cls-5" d="M25.93,31.7a9,9,0,0,0,4.53,3.07h0a21.44,21.44,0,0,0,7.18,1.16H38a22.76,22.76,0,0,0,4.84-.58,13,13,0,0,0,5.48-2.51,6,6,0,0,0,1-1.06,3.53,3.53,0,0,0,.68-2"/><polyline class="cls-5" points="50 24.3 50 24.78 50 29.75"/><path class="cls-5" d="M19.93,23.67C16.37,24.76,14,26.72,14,29s2.54,4.33,6.3,5.39a22.67,22.67,0,0,0,6.05.79,23.46,23.46,0,0,0,4.11-.36h0"/><path class="cls-5" d="M14.47,35.61A8.71,8.71,0,0,0,19.27,39h0a21.74,21.74,0,0,0,7.08,1.11C30.91,40.1,34.9,38.86,37,37A6,6,0,0,0,38,36s0,0,0,0h0"/><circle class="cls-6" cx="40.83" cy="19.61" r="1"/></svg>