<svg id="Layer_1" data-name="Layer 1" xmlns="http://www.w3.org/2000/svg" viewBox="0 0 64 64"><defs><style>.cls-1{fill:#5c5cc6;}.cls-2{fill:#65e7ea;}.cls-3{fill:#7676dd;}.cls-23,.cls-4{fill:none;stroke:#041256;stroke-linecap:round;stroke-linejoin:round;}.cls-4{stroke-width:2px;}.cls-5{fill:#55c9ad;}.cls-6{fill:#041256;}.cls-7{fill:#75e0a8;}.cls-8{fill:#d9e7f4;}.cls-9{fill:#8fa6d1;}.cls-10{fill:#eac3a7;}.cls-11{fill:#f9e8d2;}.cls-12{fill:#9cffff;}.cls-13{fill:#4073bc;}.cls-14{fill:#6198d8;}.cls-15{fill:#a1ffff;}.cls-16{fill:#ebf0f7;}.cls-17{fill:#edd8bc;}.cls-18{fill:#d8bc9e;}.cls-19{fill:#c4a182;}.cls-20{fill:#4c8dd3;}.cls-21{fill:#68a7e0;}.cls-22{fill:#6d37b5;}.cls-24{fill:#cedff4;}.cls-25{fill:#fff;}.cls-26{fill:#b5cfea;}.cls-27{fill:#9251d6;}.cls-28{fill:#ad83e5;}</style></defs><title>commerce, ecommerce, shopping, shop, buy, button</title><rect class="cls-1" x="3" y="7.31" width="42.56" height="23.12" rx="6.05" ry="6.05"/><path class="cls-2" d="M42.17,7.94a6,6,0,0,1,1.16,3.55v11a6,6,0,0,1-6,6H6.82a6,6,0,0,1-2.66-.62A6,6,0,0,0,9,30.44H39.51a6,6,0,0,0,6-6v-11A6,6,0,0,0,42.17,7.94Z"/><path class="cls-3" d="M3.14,20.49H3v3.9a6,6,0,0,0,3.48,5.47,6,6,0,0,1-.85-3.08V23A2.48,2.48,0,0,0,3.14,20.49Z"/><path class="cls-3" d="M39.51,7.31H9a6,6,0,0,0-6,6V18.8h.14a2.48,2.48,0,0,0,2.48-2.48V13.74a4,4,0,0,1,4-4H42.14a6,6,0,0,1,2.57.58A6,6,0,0,0,39.51,7.31Z"/><rect class="cls-4" x="3" y="7.31" width="42.56" height="23.12" rx="6.05" ry="6.05"/><path class="cls-5" d="M34.21,17.14,35.69,14a.66.66,0,0,1,.59-.38h1.54a.66.66,0,0,1,.58,1L35.56,19.8a.66.66,0,0,0-.08.31v3.4a.66.66,0,0,1-.66.66H33.3a.66.66,0,0,1-.66-.66V20.2a.66.66,0,0,0-.08-.31l-2.84-5.34a.66.66,0,0,1,.58-1h1.56a.66.66,0,0,1,.6.38l1.46,3.17A.16.16,0,0,0,34.21,17.14Z"/><path class="cls-6" d="M37.82,13.59a.66.66,0,0,1,.58,1L35.56,19.8a.66.66,0,0,0-.08.31v3.4a.66.66,0,0,1-.66.66H33.3a.66.66,0,0,1-.66-.66V20.2a.65.65,0,0,0-.08-.31l-2.84-5.34a.66.66,0,0,1,.58-1h1.56a.66.66,0,0,1,.6.38l1.46,3.17a.16.16,0,0,0,.29,0L35.69,14a.66.66,0,0,1,.59-.38h1.54m0-2H36.28a2.67,2.67,0,0,0-2.21,1.18,2.67,2.67,0,0,0-2.21-1.18H30.3A2.66,2.66,0,0,0,28,15.49l2.68,5v3a2.66,2.66,0,0,0,2.66,2.66h1.53a2.66,2.66,0,0,0,2.66-2.66V20.45l2.67-4.95a2.66,2.66,0,0,0-2.34-3.92Z"/><path class="cls-5" d="M27.49,13.59a.66.66,0,0,1,.66.66v5.62A4.21,4.21,0,0,1,27,23a4.61,4.61,0,0,1-3.34,1.12,4.57,4.57,0,0,1-3.28-1.09,4.13,4.13,0,0,1-1.15-3.14V14.24a.66.66,0,0,1,.66-.66H21.4a.66.66,0,0,1,.66.66v5.47a2.51,2.51,0,0,0,.41,1.61,1.49,1.49,0,0,0,1.22.5,1.5,1.5,0,0,0,1.25-.5,2.66,2.66,0,0,0,.39-1.62V14.24a.66.66,0,0,1,.66-.66Z"/><path class="cls-6" d="M27.49,13.59a.66.66,0,0,1,.66.66v5.62A4.21,4.21,0,0,1,27,23a4.61,4.61,0,0,1-3.34,1.12,4.57,4.57,0,0,1-3.28-1.09,4.13,4.13,0,0,1-1.15-3.14V14.24a.66.66,0,0,1,.66-.66H21.4a.66.66,0,0,1,.66.66v5.47a2.51,2.51,0,0,0,.41,1.61,1.49,1.49,0,0,0,1.22.5,1.5,1.5,0,0,0,1.25-.5,2.66,2.66,0,0,0,.39-1.62V14.24a.66.66,0,0,1,.66-.66h1.51m0-2H26a2.66,2.66,0,0,0-2.29,1.32,2.66,2.66,0,0,0-2.29-1.32H19.87a2.66,2.66,0,0,0-2.66,2.66v5.69A6.06,6.06,0,0,0,19,24.52a6.5,6.5,0,0,0,4.66,1.64,6.54,6.54,0,0,0,4.74-1.69,6.15,6.15,0,0,0,1.77-4.61V14.24a2.66,2.66,0,0,0-2.66-2.66Z"/><path class="cls-5" d="M10.09,14.24a.66.66,0,0,1,.66-.66h3a6.19,6.19,0,0,1,3.16.63,2.14,2.14,0,0,1,1,2,2.49,2.49,0,0,1-.45,1.5,2,2,0,0,1-1.18.8v.07a2.43,2.43,0,0,1,1.41.86A2.59,2.59,0,0,1,18.12,21a2.66,2.66,0,0,1-1.07,2.24,4.67,4.67,0,0,1-2.91.82H10.74a.66.66,0,0,1-.66-.66Zm2.82,3.35h.85a1.53,1.53,0,0,0,.94-.25A.87.87,0,0,0,15,16.6q0-.88-1.33-.88H12.9Zm0,2.06v2.19h1q1.32,0,1.32-1.11a1,1,0,0,0-.35-.8,1.63,1.63,0,0,0-1-.28Z"/><path class="cls-7" d="M34.65,18a.16.16,0,0,0,.29,0l1.47-3.17A.66.66,0,0,1,37,14.4h1.44a.66.66,0,0,0-.64-.81H36.28a.66.66,0,0,0-.59.38l-1.44,3.1Z"/><path class="cls-7" d="M33.38,21a.66.66,0,0,0-.08-.31l-2.84-5.34a.66.66,0,0,1,.58-1h1.62l-.2-.44a.66.66,0,0,0-.6-.38H30.3a.66.66,0,0,0-.58,1l2.84,5.34a.66.66,0,0,1,.08.31v3.31a.66.66,0,0,0,.66.66h.08Z"/><path class="cls-7" d="M20,20.75V15.06a.66.66,0,0,1,.66-.66h1.44v-.16a.66.66,0,0,0-.66-.66H19.87a.66.66,0,0,0-.66.66v5.69a4.13,4.13,0,0,0,1.15,3.14c.06.06.14.1.21.16A4.62,4.62,0,0,1,20,20.75Z"/><path class="cls-7" d="M23.2,22.13a1.78,1.78,0,0,0,2.47,0,2.66,2.66,0,0,0,.39-1.62V15.06a.66.66,0,0,1,.66-.66h1.43v-.16a.66.66,0,0,0-.66-.66H26a.66.66,0,0,0-.66.66V19.7a2.66,2.66,0,0,1-.39,1.62,1.49,1.49,0,0,1-1.25.5,1.84,1.84,0,0,1-.73-.13A1.53,1.53,0,0,0,23.2,22.13Z"/><path class="cls-7" d="M16,21.54a1,1,0,0,0-.35-.8,1.2,1.2,0,0,0-.42-.2,1.12,1.12,0,0,1,0,.19q0,1.11-1.32,1.11h-.26v.81h1Q16,22.66,16,21.54Z"/><path class="cls-7" d="M15,16.59h0a.87.87,0,0,1-.33.74,1.53,1.53,0,0,1-.94.25h-.12v.81h.85a1.53,1.53,0,0,0,.94-.25.87.87,0,0,0,.33-.74A.8.8,0,0,0,15,16.59Z"/><path class="cls-7" d="M10.82,15.06a.66.66,0,0,1,.66-.66h3a6.19,6.19,0,0,1,3.16.63l.06,0a2.05,2.05,0,0,0-.79-.86,6.19,6.19,0,0,0-3.16-.63h-3a.66.66,0,0,0-.66.66v9.12a.66.66,0,0,0,.66.66h.08Z"/><path class="cls-7" d="M17.69,19.41a1.8,1.8,0,0,0-.25-.27,2.08,2.08,0,0,1-.43.16v.07a3.1,3.1,0,0,1,.86.36A2,2,0,0,0,17.69,19.41Z"/><path class="cls-6" d="M13.73,13.59a6.19,6.19,0,0,1,3.16.63,2.14,2.14,0,0,1,1,2,2.49,2.49,0,0,1-.45,1.5,2,2,0,0,1-1.18.8v.07a2.43,2.43,0,0,1,1.41.86A2.59,2.59,0,0,1,18.12,21a2.67,2.67,0,0,1-1.07,2.24,4.67,4.67,0,0,1-2.91.82H10.74a.66.66,0,0,1-.66-.66V14.24a.66.66,0,0,1,.66-.66h3m-.82,4h.85a1.54,1.54,0,0,0,.94-.25A.87.87,0,0,0,15,16.6q0-.88-1.33-.88H12.9v1.87m0,4.25h1q1.32,0,1.32-1.11a1,1,0,0,0-.35-.8,1.63,1.63,0,0,0-1-.28H12.9v2.19m.82-10.26h-3a2.66,2.66,0,0,0-2.66,2.66v9.12A2.66,2.66,0,0,0,10.74,26h3.41a6.62,6.62,0,0,0,4.12-1.23A4.64,4.64,0,0,0,20.12,21a4.59,4.59,0,0,0-.73-2.6,4.56,4.56,0,0,0,.52-2.18,4.14,4.14,0,0,0-2-3.67,8,8,0,0,0-4.2-.93Z"/><path class="cls-8" d="M56.08,46V48A1.08,1.08,0,0,1,55,49.13h0a1.08,1.08,0,0,0-1.08,1.08v.5a1.08,1.08,0,0,1-1.08,1.08H50.58a1.08,1.08,0,0,1-1.08-1.08V48.54a1.08,1.08,0,0,0-1.08-1.08h-2a1.08,1.08,0,0,0-1.08,1.08v6.33A1.08,1.08,0,0,1,44.25,56H40.18a1.08,1.08,0,0,1-.77-.32l-2.87-2.87a1.08,1.08,0,0,0-.77-.32H33.08A1.08,1.08,0,0,1,32,51.37v-3.6a1.08,1.08,0,0,0-1.08-1.08H29.55a1.08,1.08,0,0,1-1.08-1.08V39.9a1.08,1.08,0,0,0-1.08-1.08H23.15a1.08,1.08,0,0,0-1.08,1.08V48A1.08,1.08,0,0,1,21,49.13H19.52a1.08,1.08,0,0,0-.77.32l-1.19,1.19a1.08,1.08,0,0,0-.32.77v1.7a1.08,1.08,0,0,1-1.08,1.08h-.58A1.08,1.08,0,0,1,14.5,53.1V49.46a1.08,1.08,0,0,0-1.08-1.08h-.71a1.08,1.08,0,0,1-1.08-1.08V42.77a1.08,1.08,0,0,0-1.08-1.08H9.21A1.08,1.08,0,0,1,8.13,40.6V34.84A1.08,1.08,0,0,0,7,33.75h-3A1.08,1.08,0,0,0,3,34.84v24a1.08,1.08,0,0,0,1.08,1.08H59.92A1.08,1.08,0,0,0,61,58.79V46a1.08,1.08,0,0,0-1.08-1.08H57.17A1.08,1.08,0,0,0,56.08,46Z"/><path class="cls-9" d="M42.61,56a6.91,6.91,0,0,0-2.32,2.31c-.09.15-.17.3-.25.45a3.43,3.43,0,0,1,1.48-.9,5.92,5.92,0,0,0-1.13,1.24,12.86,12.86,0,0,1,2.56.31H30.33a13.62,13.62,0,0,1,2.73-.32A6.65,6.65,0,0,0,30.54,58a4.93,4.93,0,0,1,3.6.95c-.18-.18-.37-.35-.58-.51A6.91,6.91,0,0,0,30.61,57a5.43,5.43,0,0,1,4.24,1.4c.14.11.26.23.38.34,0-.07-.06-.14-.1-.22A6.91,6.91,0,0,0,33.05,56a4.83,4.83,0,0,1,2.79,2.24c-.14-.32-.28-.65-.44-1A11.72,11.72,0,0,0,31.87,53a7.16,7.16,0,0,1,3.85,2.62c-.08-.34-.18-.67-.29-1a11.72,11.72,0,0,0-2.84-4.76c1.54.52,3.13,2.27,4.19,4.67a11,11,0,0,0-1.44-4.07c1.59,1,2.86,3.7,3.09,6.91,0,.11,0,.22,0,.32a5,5,0,0,1,2.4-3,6.87,6.87,0,0,0-1.51,2.78,3.49,3.49,0,0,1,1.54-.95,6.43,6.43,0,0,0-1.55,1.9A5.17,5.17,0,0,1,42.61,56Z"/><path class="cls-10" d="M36.37,45.2l-2.27-4a3.93,3.93,0,0,1,.47-4.52l1.81-2.07a1.49,1.49,0,0,0,.37-1l.12-12.65A2.09,2.09,0,0,1,39,18.88h0a2.09,2.09,0,0,1,2,1.61l1.9,8.07a1.55,1.55,0,0,0,1.17,1.16l7.46,1.66a3.69,3.69,0,0,1,2.84,4.14L52.52,48l-10.72.31A6,6,0,0,1,36.37,45.2Z"/><path class="cls-2" d="M39.06,19.94,41,28a1.55,1.55,0,0,0,1.17,1.16l1.43.32a1.54,1.54,0,0,1-.67-.93L41,20.49a2.07,2.07,0,0,0-2.51-1.55A2.08,2.08,0,0,1,39.06,19.94Z"/><path class="cls-2" d="M51.52,31.38l-1.13-.25a3.68,3.68,0,0,1,2,3.85L50.58,47.41l-10.72.31a6,6,0,0,1-.79,0,6,6,0,0,0,2.73.58L52.52,48l1.85-12.43A3.69,3.69,0,0,0,51.52,31.38Z"/><path class="cls-11" d="M38.43,46.76l-2.27-4a3.93,3.93,0,0,1,.47-4.52l1.81-2.07a1.49,1.49,0,0,0,.37-1l.12-12.65A2.09,2.09,0,0,1,41,20.44a2.09,2.09,0,0,0-4.11.51L36.75,33.6a1.49,1.49,0,0,1-.37,1l-1.81,2.07a3.93,3.93,0,0,0-.47,4.52l2.27,4a6,6,0,0,0,2.74,2.51A6,6,0,0,1,38.43,46.76Z"/><path class="cls-12" d="M39.06,19.94l.31,1.32A2.09,2.09,0,0,1,41,20.44a2.1,2.1,0,0,0-.74-1.13l0,0L40,19.13l-.08,0-.23-.1-.16,0-.17,0a2,2,0,0,0-.83,0A2.08,2.08,0,0,1,39.06,19.94Z"/><path class="cls-11" d="M45,30.12a1.55,1.55,0,0,0,1.17,1.16l7.46,1.66.25.08a3.67,3.67,0,0,0-2.31-1.64l-6.62-1.48Z"/><path class="cls-4" d="M36.37,45.2l-2.27-4a3.93,3.93,0,0,1,.47-4.52l1.81-2.07a1.49,1.49,0,0,0,.37-1l.12-12.65A2.09,2.09,0,0,1,39,18.88h0a2.09,2.09,0,0,1,2,1.61l1.9,8.07a1.55,1.55,0,0,0,1.17,1.16l7.46,1.66a3.69,3.69,0,0,1,2.84,4.14L52.52,48l-10.72.31A6,6,0,0,1,36.37,45.2Z"/><line class="cls-4" x1="41" y1="20.49" x2="43.52" y2="31.93"/><line class="cls-4" x1="36.75" y1="36.94" x2="36.87" y2="20.95"/><path class="cls-6" d="M45.56,30.88l0-.1h0l0,0,0-.05.09-.1.19-.16a2.22,2.22,0,0,1,.4-.22,1.68,1.68,0,0,1,2,.68,1.65,1.65,0,0,1,.18,1.42,1.63,1.63,0,0,1-1.25,1.11l-.2,0v-.06a2.54,2.54,0,0,0-.41-1.45,2.12,2.12,0,0,0-.48-.57,2.36,2.36,0,0,0-.31-.22l-.17-.1-.09,0,0,0h0Z"/><path class="cls-6" d="M49.1,31.65l0-.1h0l0,0,0-.05.09-.1.19-.16a2.22,2.22,0,0,1,.4-.22,1.68,1.68,0,1,1,.93,3.22l-.2,0v-.06a2.54,2.54,0,0,0-.41-1.45,2.12,2.12,0,0,0-.48-.57,2.35,2.35,0,0,0-.31-.21l-.17-.1-.09,0,0,0h0Z"/><polygon class="cls-13" points="54.73 59.88 40.35 59.88 39.73 48.27 52.46 48.27 54.73 59.88"/><polygon class="cls-2" points="52.46 48.27 50.21 48.27 52.48 59.88 40.35 59.88 40.35 59.88 54.73 59.88 52.46 48.27"/><path class="cls-14" d="M42.55,53.26a2.31,2.31,0,0,1,2.31-2.44H53l-.5-2.55H39.73l.62,11.6h2.55Z"/><rect class="cls-15" x="40.35" y="59.87" width="2.55"/><polygon class="cls-15" points="52.96 50.82 52.46 48.27 50.21 48.27 50.71 50.82 52.96 50.82"/><polygon class="cls-4" points="54.73 59.88 40.35 59.88 39.73 48.27 52.46 48.27 54.73 59.88"/><path class="cls-16" d="M52.33,17.33h0a.47.47,0,0,1,.47-.47h2.49a.78.78,0,0,1,.78.78h0a.78.78,0,0,1-.78.78H54a.47.47,0,0,0-.47.47h0a.47.47,0,0,1-.47.47H50.62a.78.78,0,0,1-.78-.78h0a.78.78,0,0,1,.78-.78h1.25A.47.47,0,0,0,52.33,17.33Z"/><path class="cls-16" d="M54.64,23.52h0a.6.6,0,0,0-.6-.6h-3.2a1,1,0,0,0-1,1h0a1,1,0,0,0,1,1h1.6a.6.6,0,0,1,.6.6h0a.6.6,0,0,0,.6.6h3.2a1,1,0,0,0,1-1h0a1,1,0,0,0-1-1h-1.6A.6.6,0,0,1,54.64,23.52Z"/><circle class="cls-16" cx="51.44" cy="10.89" r="1.52"/><circle class="cls-16" cx="51.09" cy="13.94" r="0.35"/><circle class="cls-16" cx="19.04" cy="36.47" r="1.6"/><circle class="cls-16" cx="12.67" cy="37.27" r="0.8"/><circle class="cls-16" cx="14.4" cy="41.55" r="0.3"/><circle class="cls-16" cx="26.58" cy="35.91" r="1.03"/><circle class="cls-16" cx="56.39" cy="28.98" r="0.51"/><circle class="cls-16" cx="58.36" cy="36.42" r="0.52"/><circle class="cls-16" cx="57.74" cy="12.24" r="1.35"/><circle class="cls-16" cx="47.41" cy="5.16" r="1.03"/><rect class="cls-17" x="5.91" y="44.17" width="24.43" height="15.29"/><path class="cls-18" d="M18.12,59.46H30.34V44.17H18.12V45H5.91v4h8.5a3.71,3.71,0,0,1,3.71,3.71Z"/><path class="cls-17" d="M30.27,56.34H20.75A2.71,2.71,0,0,1,18,53.63h0a2.71,2.71,0,0,1,2.71-2.71h9.52Z"/><rect class="cls-19" x="6.12" y="45.04" width="24.03" height="2.29"/><path class="cls-20" d="M30.34,55.21H20.82a2.71,2.71,0,0,1-2.71-2.71h0a2.71,2.71,0,0,1,2.71-2.71h9.52Z"/><polygon class="cls-21" points="23.25 55.21 21.4 55.21 23.78 49.8 25.63 49.8 23.25 55.21"/><polygon class="cls-21" points="27.04 49.8 24.66 55.21 25.22 55.21 27.6 49.8 27.04 49.8"/><polygon class="cls-21" points="28.29 49.8 25.91 55.21 26.47 55.21 28.85 49.8 28.29 49.8"/><path class="cls-6" d="M15.29,59.88H9.67v-8A2.81,2.81,0,0,1,12.48,49h0a2.81,2.81,0,0,1,2.81,2.81Z"/><circle class="cls-22" cx="12.28" cy="54.28" r="0.28"/><path class="cls-22" d="M10.72,51.85a2.38,2.38,0,0,1,2.38-2.38h.43a2.81,2.81,0,0,1,.53.05,2.81,2.81,0,0,0-2.1-.45A2.89,2.89,0,0,0,9.67,52v7.91h1Z"/><path class="cls-23" d="M15.29,59.88H9.67v-8A2.81,2.81,0,0,1,12.48,49h0a2.81,2.81,0,0,1,2.81,2.81Z"/><rect class="cls-4" x="5.91" y="44.17" width="24.43" height="15.29"/><path class="cls-24" d="M4.9,37.47,3.64,39.08a1.45,1.45,0,0,0-.31.89V43.6A1.45,1.45,0,0,0,4.78,45H31.47a1.45,1.45,0,0,0,1.45-1.45V40a1.45,1.45,0,0,0-.31-.89l-1.26-1.61a1.45,1.45,0,0,0-1.14-.56H6A1.45,1.45,0,0,0,4.9,37.47Z"/><path class="cls-25" d="M4.25,41.5a1.45,1.45,0,0,1,.31-.89L6,38.78a.88.88,0,0,1,.69-.34H31.13a1.45,1.45,0,0,1,1.14.56l.61.78a1.43,1.43,0,0,0-.28-.7l-1.26-1.61a1.45,1.45,0,0,0-1.14-.56H6a1.45,1.45,0,0,0-1.14.56L3.64,39.08a1.45,1.45,0,0,0-.31.89V43.6a1.44,1.44,0,0,0,.92,1.35Z"/><path class="cls-26" d="M3.33,40V43.6A1.45,1.45,0,0,0,4.78,45H31.47a1.45,1.45,0,0,0,1.45-1.45V40a1.44,1.44,0,0,0-.07-.41H3.4A1.44,1.44,0,0,0,3.33,40Z"/><path class="cls-24" d="M3.42,44.07a1.44,1.44,0,0,0,.17.35h0a1.45,1.45,0,0,0,.27.29l0,0a1.46,1.46,0,0,0,.35.2h0V41.5a1.45,1.45,0,0,1,.31-.89l.82-1h-2a1.44,1.44,0,0,0-.07.41V43.6a1.43,1.43,0,0,0,.06.39Z"/><path class="cls-24" d="M32.71,39.56l.17.22a1.78,1.78,0,0,0-.05-.22Z"/><path class="cls-27" d="M8.9,37.47,7.64,39.08a1.45,1.45,0,0,0-.31.89V43.6A1.45,1.45,0,0,0,8.78,45H27.46a1.45,1.45,0,0,0,1.45-1.45V40a1.45,1.45,0,0,0-.31-.89l-1.26-1.61a1.45,1.45,0,0,0-1.14-.56H10A1.45,1.45,0,0,0,8.9,37.47Z"/><path class="cls-22" d="M28.91,43.6V40a1.44,1.44,0,0,0-.07-.41H7.4a1.44,1.44,0,0,0-.07.41V43.6A1.45,1.45,0,0,0,8.78,45H27.46A1.45,1.45,0,0,0,28.91,43.6Z"/><path class="cls-28" d="M8.9,37.47l-.76,1h20l-.76-1a1.45,1.45,0,0,0-1.14-.56H10A1.45,1.45,0,0,0,8.9,37.47Z"/><path class="cls-24" d="M11.9,37.47l-1.26,1.61a1.45,1.45,0,0,0-.31.89V43.6A1.45,1.45,0,0,0,11.78,45H24.46a1.45,1.45,0,0,0,1.45-1.45V40a1.45,1.45,0,0,0-.31-.89l-1.26-1.61a1.45,1.45,0,0,0-1.14-.56H13A1.45,1.45,0,0,0,11.9,37.47Z"/><path class="cls-26" d="M25.91,43.6V40a1.44,1.44,0,0,0-.07-.41H10.4a1.44,1.44,0,0,0-.07.41V43.6A1.45,1.45,0,0,0,11.78,45H24.46A1.45,1.45,0,0,0,25.91,43.6Z"/><path class="cls-25" d="M11.9,37.47l-.76,1h14l-.76-1a1.45,1.45,0,0,0-1.14-.56H13A1.45,1.45,0,0,0,11.9,37.47Z"/><path class="cls-27" d="M14.9,37.47l-1.26,1.61a1.45,1.45,0,0,0-.31.89V43.6A1.45,1.45,0,0,0,14.78,45h6.68a1.45,1.45,0,0,0,1.45-1.45V40a1.45,1.45,0,0,0-.31-.89l-1.26-1.61a1.45,1.45,0,0,0-1.14-.56H16A1.45,1.45,0,0,0,14.9,37.47Z"/><path class="cls-22" d="M22.91,43.6V40a1.44,1.44,0,0,0-.07-.41H13.4a1.44,1.44,0,0,0-.07.41V43.6A1.45,1.45,0,0,0,14.78,45h6.68A1.45,1.45,0,0,0,22.91,43.6Z"/><path class="cls-28" d="M14.9,37.47l-.76,1h8l-.76-1a1.45,1.45,0,0,0-1.14-.56H16A1.45,1.45,0,0,0,14.9,37.47Z"/><path class="cls-27" d="M19,36.91H17.2a1.44,1.44,0,0,1,.92.34A1.44,1.44,0,0,1,19,36.91Z"/><path class="cls-24" d="M19.6,39.08l-1.26-1.61a1.45,1.45,0,0,0-.22-.22,1.44,1.44,0,0,0-.22.22l-1.26,1.61a1.45,1.45,0,0,0-.31.89V43.6A1.45,1.45,0,0,0,17.78,45h.67a1.45,1.45,0,0,0,1.45-1.45V40A1.45,1.45,0,0,0,19.6,39.08Z"/><path class="cls-26" d="M19.91,43.6V40a1.44,1.44,0,0,0-.07-.41H16.41a1.44,1.44,0,0,0-.07.41V43.6A1.45,1.45,0,0,0,17.78,45h.67A1.45,1.45,0,0,0,19.91,43.6Z"/><path class="cls-25" d="M19.1,38.44l-.76-1a1.45,1.45,0,0,0-.22-.22,1.44,1.44,0,0,0-.22.22l-.76,1Z"/><path class="cls-4" d="M4.9,37.47,3.64,39.08a1.45,1.45,0,0,0-.31.89V43.6A1.45,1.45,0,0,0,4.78,45H31.47a1.45,1.45,0,0,0,1.45-1.45V40a1.45,1.45,0,0,0-.31-.89l-1.26-1.61a1.45,1.45,0,0,0-1.14-.56H6A1.45,1.45,0,0,0,4.9,37.47Z"/><path class="cls-23" d="M30.34,55.21H20.82a2.71,2.71,0,0,1-2.71-2.71h0a2.71,2.71,0,0,1,2.71-2.71h9.52Z"/></svg>