<svg id="Layer_1" data-name="Layer 1" xmlns="http://www.w3.org/2000/svg" viewBox="0 0 64 64"><defs><style>.cls-1{fill:#9ac8f1;}.cls-2{fill:#3897d3;}.cls-3{fill:#389ad6;}.cls-4{fill:none;stroke:#295183;stroke-linecap:round;stroke-linejoin:round;stroke-width:2px;}</style></defs><title>Compost container</title><path class="cls-1" d="M37.3,49.9a123.09,123.09,0,0,0-15.3,0L20.8,17.48s-2.07-3.11,7-2.06a3,3,0,0,1,2.62,3.5,55,55,0,0,0-.82,8.1q-.37.09-.78.15a3.91,3.91,0,0,0-1.17.37A4.59,4.59,0,0,0,25.42,32c.06,2,1.08,3.47,1.55,5.36a10.21,10.21,0,0,1-.11,4.66,41.38,41.38,0,0,1,2.53-7.61c.17-.37.36-.73.55-1.07A20,20,0,0,0,31.61,39s0,0,0,0a10.85,10.85,0,0,0,9.9,6.42S45.89,50.4,37.3,49.9Z"/><path class="cls-2" d="M21.35,15.49s4.39.41,4.07,4.41a122.41,122.41,0,0,0-.26,13c.1,3.58-.27,7.52,1.08,10.92.82,2.08,2,2.51,4.18,2.82,1.86.28,5.84-.07,6.68,2.16.9,2.37-3.1,1.49-3.1,1.49H21.35Z"/><path class="cls-1" d="M26.32,29a2.62,2.62,0,0,1,.82,2.45c-.18,1.75,1.31,1.29,1.82.7s1.53-1.07,2.07-.7S27.27,38,27.27,38,24.24,32.12,26.32,29Z"/><path class="cls-3" d="M31,31.42s-.61-.88-1.79,1-2.33,4.46-1.86,5.77S29.47,34,29.47,34Z"/><path class="cls-4" d="M26.7,42.73c.05-.22.11-.44.16-.67a41.38,41.38,0,0,1,2.53-7.61c.17-.37.36-.73.55-1.07a14.07,14.07,0,0,1,1.28-2"/><path class="cls-4" d="M26.7,42.73c.05-.22.11-.44.16-.67A10.21,10.21,0,0,0,27,37.4c-.47-1.89-1.49-3.34-1.55-5.36a4.59,4.59,0,0,1,2.22-4.5,3.91,3.91,0,0,1,1.17-.37q.41-.06.78-.15a12.62,12.62,0,0,0,7.06-4c5.85,11.28-.9,14.83-4.18,15.85,0,0-.51.1-.86.16l-.31.06"/><path class="cls-4" d="M31.22,39.11h.08l.32,0,.57-.09"/><polyline class="cls-4" points="42.47 20.49 42.47 50.27 21.35 50.27 21.35 15.49 42.47 15.49"/><line class="cls-4" x1="19.7" y1="15.49" x2="44.3" y2="15.49"/><line class="cls-4" x1="19.7" y1="50.27" x2="44.3" y2="50.27"/><line class="cls-4" x1="38.73" y1="32.88" x2="44.3" y2="32.88"/><line class="cls-4" x1="19.7" y1="32.88" x2="24.64" y2="32.88"/><line class="cls-4" x1="38.47" y1="15.49" x2="38.47" y2="13.57"/></svg>