<svg id="Layer_1" data-name="Layer 1" xmlns="http://www.w3.org/2000/svg" viewBox="0 0 64 64"><defs><style>.cls-1{fill:#a8d2f0;}.cls-2{fill:#389ad6;}.cls-3{fill:none;stroke:#2a5081;stroke-linecap:round;stroke-linejoin:round;stroke-width:2px;}</style></defs><title>Confirm protection</title><path class="cls-1" d="M37.45,26c-.78,2.68-2.26,5-2.68,7.84a8.17,8.17,0,0,0,.24,4.2,27.07,27.07,0,0,1,1.16,2.51,5.78,5.78,0,0,1,.12.57c.25,1.78-.72,3.54-1.78,4.91a2.31,2.31,0,0,1-1.4,1,1.32,1.32,0,0,1-.78-.14,15.5,15.5,0,0,1-1.52,1.38A35.07,35.07,0,0,1,16.94,20.45V15.64a7.9,7.9,0,0,0,7.88,7.9h0a7.89,7.89,0,0,0,6.8-3.93,8.84,8.84,0,0,1,1,1,3,3,0,0,1,.2-.5c2,.9,5.34,3,4.67,5.59Z"/><path class="cls-2" d="M27.71,23.56l.15.16a2.46,2.46,0,0,1,.19,2.06c-.38,1.72-1,3.4-1.22,5.14a17,17,0,0,0,1,8.22,25.23,25.23,0,0,0,1.72,3.75c.52.93,1.55,2,1.39,3.13a.24.24,0,0,1-.06.15c-.08.07-.21,0-.3,0a20.68,20.68,0,0,1-2.43-1.85,27.94,27.94,0,0,1-9.55-15.94,20.36,20.36,0,0,1-.48-7.55,8.44,8.44,0,0,0,3.31,2,12,12,0,0,0,4,.33A3.15,3.15,0,0,1,27.71,23.56Z"/><path class="cls-3" d="M32.24,16a7.43,7.43,0,0,1-7.4,7.41h0A7.42,7.42,0,0,1,17.43,16v4.49A32.88,32.88,0,0,0,32.24,48"/><line class="cls-3" x1="32.24" y1="47.98" x2="32.24" y2="40.58"/><path class="cls-3" d="M32.24,48A32.88,32.88,0,0,0,47.06,20.51V16a7.42,7.42,0,0,1-7.4,7.41h0A7.43,7.43,0,0,1,32.24,16"/><path class="cls-3" d="M26.09,33.09,28,35a2.5,2.5,0,0,0,3.53,0l6.9-6.9"/><line class="cls-3" x1="32.26" y1="16.5" x2="32.26" y2="27.67"/></svg>