<svg id="Layer_1" data-name="Layer 1" xmlns="http://www.w3.org/2000/svg" viewBox="0 0 64 64"><defs><style>.cls-1{fill:#9dcbf4;}.cls-2{fill:#389ad6;}.cls-3,.cls-5{fill:none;stroke-linecap:round;stroke-linejoin:round;stroke-width:2px;}.cls-3{stroke:#2a5082;}.cls-4{fill:#2a5082;}.cls-5{stroke:#2a5081;}</style></defs><title>Contactbook</title><path class="cls-1" d="M35.35,21.38a.55.55,0,0,1,.05.2,1.21,1.21,0,0,1-.23.64c-.76,1.34-1.78,3.08-1.77,4.62s-1,3-1.13,4.49c-.28,2.53.53,4.89.19,7.42-.25,1.87-2,3.76-2.06,5.64a4.32,4.32,0,0,1-.71,2.67,4.43,4.43,0,0,1-3.21,1.26,25.18,25.18,0,0,1-7.13-.45.41.41,0,0,1-.21-.09.41.41,0,0,1-.09-.29l-.48-13.84C18.51,31.57,18,29,18.5,27a53.09,53.09,0,0,1,2-6.45.33.33,0,0,1,.4-.28c3.76.2,9.52.4,13.28.6C34.61,20.88,35.18,21,35.35,21.38Z"/><path class="cls-1" d="M32.09,15.33a.86.86,0,0,1,0,.28,6.66,6.66,0,0,0-.22,1.49c.07.65.67.87,1.22,1.06s1.81.58,1.89,1.2c.05.42-.36.65-.72.75a7.84,7.84,0,0,1-1.68.16,55.93,55.93,0,0,1-8.5-.07,25.33,25.33,0,0,1-3.27-.46A5.5,5.5,0,0,1,17.53,18c-.45-.56-1.36-1.57-.89-2.35.61-1,2.5-.71,3.47-.7,3.69,0,7.48.2,11.19,0,.29,0,.65,0,.77.27A.41.41,0,0,1,32.09,15.33Z"/><path class="cls-2" d="M21.44,21.25a1,1,0,0,1,.17.26,1.82,1.82,0,0,1,0,1c-.5,3.65-.71,7.34-.91,11-.11,1.93-.21,4-.15,6s.68,4,.69,6.06a3,3,0,0,1-.59,2.2c-1.86,1.73-3.76-1.44-4.27-2.91-.9-2.61-.8-5.43-1-8.15-.27-3.91-.22-7.84-.17-11.76,0-1.68,0-3.36.23-5a2.6,2.6,0,0,1,.31-1.13c.78-1.22,4.06,1.42,5,2A2.58,2.58,0,0,1,21.44,21.25Z"/><path class="cls-3" d="M42.38,17.64a8.77,8.77,0,0,0,6.22,2.91"/><path class="cls-3" d="M37.71,20.55H22.77a8.77,8.77,0,0,1-6.22-2.91,1.79,1.79,0,0,1-.38-2,2.4,2.4,0,0,1,2.17-.86h26a2.4,2.4,0,0,0-2.17.86,1.71,1.71,0,0,0,.21,2"/><path class="cls-3" d="M21.16,42.9V25.52a6.68,6.68,0,0,1-4.74-2.22,1.36,1.36,0,0,1-.29-1.56V33.88"/><path class="cls-3" d="M16,39.88a4.18,4.18,0,0,0,1.26,1.59,7.36,7.36,0,0,0,1.81,1,5.9,5.9,0,0,0,2.1.43"/><path class="cls-3" d="M16,45a2.4,2.4,0,0,0,.57,1.39,8.77,8.77,0,0,0,6.21,2.91h26"/><line class="cls-3" x1="48.77" y1="20.55" x2="48.77" y2="49.26"/><line class="cls-3" x1="15.99" y1="45.09" x2="15.99" y2="39.88"/><circle class="cls-4" cx="40.67" cy="20.55" r="1"/><path class="cls-1" d="M33.68,27.38c-.53,0,.09,2.84.12,3.09a11.19,11.19,0,0,1-.11,2.39c-.22,2,0,4.1-.37,6.11-.3,1.45-1.06,3.13-2.81,3-3.82-.38.35-11.1.89-10.92s0-3.63,0-3.63Z"/><line class="cls-5" x1="29.77" y1="34.47" x2="26.47" y2="42.46"/><path class="cls-5" d="M34.13,32h1.2a2.58,2.58,0,0,1,2.58,2.58v6.63A1.82,1.82,0,0,1,36.08,43H31.59a1.82,1.82,0,0,1-1.82-1.82V34.47"/><path class="cls-5" d="M34,26.78A2.61,2.61,0,0,0,34,32"/><line class="cls-5" x1="37.67" y1="33.52" x2="41.09" y2="42.46"/></svg>