<svg id="Layer_1" data-name="Layer 1" xmlns="http://www.w3.org/2000/svg" viewBox="0 0 64 64"><defs><style>.cls-1{fill:#9ac8f1;}.cls-2{fill:#3897d3;}.cls-3,.cls-5{fill:none;}.cls-3{stroke:#295183;stroke-linecap:round;stroke-linejoin:round;stroke-width:2px;}.cls-4{fill:#295183;}</style></defs><title>Container</title><path class="cls-1" d="M43.55,45.9a10.85,10.85,0,0,1-9.9-6.42s0,0,0,0A17.1,17.1,0,0,1,32.42,36a.19.19,0,0,1,0-.07c-.15-.57-.27-1.16-.37-1.76-.35.57-.74,1.19-1.11,1.77.15-.38.32-.75.49-1.11s.36-.73.55-1.07c0,.14,0,.27.07.41,0,0,.05-.1.08-.14-.09-.74-.17-1.48-.23-2.18-.22-2.44-.27-4.45-.27-4.45a55,55,0,0,1,.82-8.1,3,3,0,0,0-2.26-3.43H24l-.2.07c1.08.21,3.92,1.09,3.67,4.34a122.25,122.25,0,0,0-.27,13c.1,3.58-.26,7.52,1.08,10.92.83,2.08,2,2.51,4.18,2.82,1.87.28,5.84-.07,6.68,2.16a1.18,1.18,0,0,1,0,1.11h.21c3.37.2,4.75-.44,5.17-1.29V47.48A5.58,5.58,0,0,0,43.55,45.9ZM28.08,35.23A22.1,22.1,0,0,1,29,37.68,19.61,19.61,0,0,1,28.08,35.23Z"/><path class="cls-1" d="M29,37.68a19.61,19.61,0,0,1-.88-2.45A22.1,22.1,0,0,1,29,37.68Z"/><path class="cls-1" d="M30.18,15.91H24a15.71,15.71,0,0,1,5.84-.07A2.29,2.29,0,0,1,30.18,15.91Z"/><path class="cls-1" d="M32,34.21c-.35.57-.74,1.19-1.11,1.77.15-.38.32-.75.49-1.11s.36-.73.55-1.07C32,33.94,32,34.07,32,34.21Z"/><path class="cls-1" d="M39.12,49.2a1.18,1.18,0,0,1,0,1.11,123,123,0,0,0-15.09,0L23.4,33.3l0-.79L22.83,17.9a1.17,1.17,0,0,1,.54-1.75,2.67,2.67,0,0,1,.41-.17c1.08.21,3.92,1.09,3.67,4.34a122.25,122.25,0,0,0-.27,13c.1,3.58-.26,7.52,1.08,10.92.83,2.08,2,2.51,4.18,2.82C34.31,47.32,38.28,47,39.12,49.2Z"/><path class="cls-1" d="M44.5,49V47.48A1.94,1.94,0,0,1,44.5,49Z"/><path class="cls-2" d="M39.12,50.31a1.14,1.14,0,0,1-.52.38,5.73,5.73,0,0,1-2.57,0H23.37V15.91a2.66,2.66,0,0,1,.41.07c1.08.21,3.92,1.09,3.67,4.34a122.25,122.25,0,0,0-.27,13c.1,3.58-.26,7.52,1.08,10.92.83,2.08,2,2.51,4.18,2.82,1.87.28,5.84-.07,6.68,2.16A1.18,1.18,0,0,1,39.12,50.31Z"/><path class="cls-1" d="M28.08,35.23A22.1,22.1,0,0,1,29,37.68,19.61,19.61,0,0,1,28.08,35.23Z"/><path class="cls-1" d="M32,33.8c0,.14,0,.27.07.41-.35.57-.74,1.19-1.11,1.77.15-.38.32-.75.49-1.11S31.78,34.14,32,33.8Z"/><polyline class="cls-3" points="44.5 15.91 40.5 15.91 30.18 15.91"/><polyline class="cls-3" points="23.98 15.91 23.37 15.91 23.37 16.15 23.37 32.51 23.37 33.3 23.37 50.69 36.03 50.69 38.6 50.69 44.5 50.69 44.5 49.03"/><polyline class="cls-3" points="44.5 49.03 44.5 33.3 44.5 20.91"/><polyline class="cls-3" points="46.33 15.91 44.5 15.91 40.5 15.91 23.37 15.91"/><polyline class="cls-3" points="23.98 15.91 23.37 15.91 21.73 15.91"/><line class="cls-3" x1="21.73" y1="50.69" x2="46.33" y2="50.69"/><line class="cls-3" x1="40.76" y1="33.3" x2="46.33" y2="33.3"/><line class="cls-3" x1="21.73" y1="33.3" x2="26.67" y2="33.3"/><line class="cls-3" x1="40.5" y1="15.91" x2="40.5" y2="13.99"/><path class="cls-3" d="M30.94,25.31A7.15,7.15,0,0,1,36.45,25"/><path class="cls-3" d="M30.62,36.54a7.15,7.15,0,0,1-3.06-4.59"/><path class="cls-3" d="M40.5,31.2a7.15,7.15,0,0,1-2.45,4.95"/><circle class="cls-4" cx="34.02" cy="31.01" r="2.79"/><path class="cls-5" d="M33.72,40a10.17,10.17,0,0,1-1.3-4"/><path class="cls-5" d="M32.41,36c-.11-.62-.2-1.26-.29-1.9"/></svg>