<svg id="Layer_1" data-name="Layer 1" xmlns="http://www.w3.org/2000/svg" viewBox="0 0 64 64"><defs><style>.cls-1{fill:#fff;}.cls-2{fill:#a8d2f0;}.cls-3{fill:#389ad6;}.cls-4{fill:none;stroke:#295183;stroke-linecap:round;stroke-linejoin:round;stroke-width:2px;}.cls-5{fill:#9dcbf4;}.cls-6{fill:#295183;}.cls-7{fill:#f7bc37;}.cls-8{fill:#cbcaca;}</style></defs><title>Currency shopping</title><path class="cls-1" d="M50,29a4,4,0,0,1-4,4H18a4,4,0,0,1-3.88-3.16,4,4,0,0,1,0-1.6A4,4,0,0,1,18,25.08H28.32l.26.26L32.23,29a2,2,0,0,0,2.83,0l3.44-3.44.48-.48H46A4,4,0,0,1,50,29Z"/><path class="cls-1" d="M38.72,13.39q0,.35.07.69a7.92,7.92,0,0,1-8,8.17H27.1a8.37,8.37,0,1,1,11.62-8.86Z"/><path class="cls-1" d="M14.56,22.25a7.78,7.78,0,1,1,15.56,0"/><rect class="cls-1" x="37.39" y="12.57" width="3" height="19.09" rx="1.5" ry="1.5" transform="translate(27.03 -21.02) rotate(45)"/><path class="cls-2" d="M35.52,28.54a2.49,2.49,0,0,1-.67,1.18,2.59,2.59,0,0,1-1.81.75H18.19a2.56,2.56,0,0,1-1.81-4.37,2.52,2.52,0,0,1,1.81-.76H28.58L32.23,29a2,2,0,0,0,2.83,0Z"/><path class="cls-2" d="M41.59,33H18c0,.14,0,.28,0,.42v4A11.59,11.59,0,0,0,29.55,49H30a11.38,11.38,0,0,0,6.66-2.14A1.87,1.87,0,0,1,36,47a2,2,0,0,1-2-2V39a1.94,1.94,0,0,1,.15-.76,1.92,1.92,0,0,1,.44-.65A2,2,0,0,1,36,37a2.12,2.12,0,0,1,.44,0A2,2,0,0,1,38,39v6a2,2,0,0,1-.34,1.12,11.54,11.54,0,0,0,3.94-8.67v-4C41.6,33.28,41.6,33.14,41.59,33ZM30,45a2,2,0,0,1-4,0V39a2,2,0,0,1,.59-1.41A2,2,0,0,1,28,37a2,2,0,0,1,2,2Z"/><path class="cls-3" d="M40.17,33a11.68,11.68,0,0,1-3.73,4A2.12,2.12,0,0,0,36,37a2,2,0,0,0-1.41.59,1.92,1.92,0,0,0-.44.65A11.44,11.44,0,0,1,30,39h0a2,2,0,0,0-2-2,2,2,0,0,0-1.41.59,1.92,1.92,0,0,0-.51.87A11.6,11.6,0,0,1,19.43,33Z"/><path class="cls-4" d="M46,33V43.76C46,48.84,42.1,53,37.33,53H26.67C21.9,53,18,48.84,18,43.76V39.4"/><path class="cls-4" d="M43.17,25.08h3A3.84,3.84,0,0,1,50,28.92"/><path class="cls-4" d="M33.07,25.33l.25-.25.52-.51.66-.67.78-.77,0,0,.11-.11.59-.59.88-.88,6.67-6.67a2,2,0,0,1,2.83,0,2,2,0,0,1,0,2.83L41.06,23,39,25.08l-.48.48-3,3-.46.46a2,2,0,0,1-2.83,0l-3.65-3.66-.26-.26H17.83a3.87,3.87,0,0,0-3.75,3.16,4,4,0,0,0,0,1.6,4,4,0,0,0,1,2A3.77,3.77,0,0,0,17.83,33H46.17"/><path class="cls-4" d="M36,37h0a2,2,0,0,1,2,2v6.22a2,2,0,0,1-2,2h0a2,2,0,0,1-2-2V41"/><path class="cls-5" d="M25.41,22.25h-9A2.3,2.3,0,0,1,14.14,20a2.12,2.12,0,0,1,.9-1.79l0,0a5.58,5.58,0,0,1,.66-.41,7,7,0,0,1,3.07-.93h.08l.24,0h.11s0,0,0,0a7.26,7.26,0,0,1,2.1.32s0,0,0,0A6,6,0,0,1,25.41,22.25Z"/><path class="cls-5" d="M35.6,14.86V15a7.28,7.28,0,0,1-5,6.89,6.87,6.87,0,0,1-2,.36H28v-.88a6.67,6.67,0,0,0-6.66-6.67H21.1a7.44,7.44,0,0,1,.36-2,7.27,7.27,0,0,1,6.74-5h.15A7.28,7.28,0,0,1,35.6,14.86Z"/><path class="cls-3" d="M31,19.46v.14a7,7,0,0,1-.38,2.29,6.87,6.87,0,0,1-2,.36H28v-.88a6.67,6.67,0,0,0-6.66-6.67H21.1a7.44,7.44,0,0,1,.36-2,7.16,7.16,0,0,1,2.14-.36h.15A7.28,7.28,0,0,1,31,19.46Z"/><path class="cls-4" d="M28,37h0a2,2,0,0,1,2,2v6.22a2,2,0,0,1-2,2h0a2,2,0,0,1-2-2V41"/><circle class="cls-6" cx="25.96" cy="38.58" r="1"/><circle class="cls-6" cx="34" cy="38.58" r="1"/><circle class="cls-6" cx="49" cy="32" r="1"/><path class="cls-4" d="M22,14.7a8.5,8.5,0,0,1,17,0"/><path class="cls-4" d="M30.48,14.7a1.83,1.83,0,1,1,1.83-1.83"/><path class="cls-4" d="M30.48,14.7a1.83,1.83,0,0,1,0,3.67"/><line class="cls-4" x1="30.48" y1="11.04" x2="30.48" y2="9.41"/><path class="cls-4" d="M28,21.37a6.67,6.67,0,0,0-6.66-6.67H21.1a6.61,6.61,0,0,0-5.36,3.05,4.82,4.82,0,0,0-.35.63,6.48,6.48,0,0,0-.71,3"/><path class="cls-4" d="M21.34,21.37a1.44,1.44,0,1,1,1-2.47"/><path class="cls-4" d="M21.34,21.37a1.43,1.43,0,0,1,1.09.5"/><line class="cls-4" x1="21.34" y1="18.49" x2="21.34" y2="17.22"/><path class="cls-7" d="M28.65,22.46h0Z"/><path class="cls-8" d="M49,22.67h0a0,0,0,0,1,0,0Z"/></svg>