<svg id="Layer_1" data-name="Layer 1" xmlns="http://www.w3.org/2000/svg" viewBox="0 0 64 64"><defs><style>.cls-1{fill:#fff;}.cls-2{fill:#a8d2f0;}.cls-3,.cls-4,.cls-6{fill:none;}.cls-3{stroke:#2a5081;}.cls-3,.cls-6{stroke-linecap:round;stroke-linejoin:round;stroke-width:2px;}.cls-5{fill:#9dcbf4;}.cls-6{stroke:#295183;}</style></defs><title>Currency</title><path class="cls-1" d="M29.88,17.47h-.71a5.33,5.33,0,0,0-1,.17,7.75,7.75,0,0,1,8.13,6.84l12.2.17s5.58,9.82-5,9.32-3.61.42-3.61.42,5.86,6.17-.6,11.25-14.67,2.92-14.67,2.92S16.33,26.2,21,20.71s8.27-3.24,8.27-3.24h.61"/><path class="cls-2" d="M30.47,48.53l-.54,0h-.66A15.54,15.54,0,0,1,14,33.38c0-.12,0-.24,0-.36s0-.24,0-.36A15.53,15.53,0,0,1,22.82,19a23.41,23.41,0,0,0,7.65,29.52Z"/><path class="cls-3" d="M30.47,48.06l-.54,0h-.66A15.54,15.54,0,0,1,14,32.91c0-.12,0-.24,0-.36s0-.24,0-.36A15.54,15.54,0,0,1,29.27,17H30a12.1,12.1,0,0,1,2.34.33"/><path class="cls-3" d="M29.58,42.26A23,23,0,0,1,21.89,41c-4.54-1.61-7.65-4.62-7.85-8.09,0-.12,0-.24,0-.36s0-.24,0-.36a7.26,7.26,0,0,1,2-4.46,11.8,11.8,0,0,1,2.21-1.86,15.5,15.5,0,0,1,1.9-1.06,18.26,18.26,0,0,1,1.71-.7,21.34,21.34,0,0,1,3.59-.93"/><path class="cls-3" d="M29.93,48.08h-.66c-3.09-.18-5.79-3-7.38-7.1a23.85,23.85,0,0,1-1.47-8.45,23.85,23.85,0,0,1,1.47-8.45c1.58-4.13,4.28-6.91,7.38-7.1"/><path class="cls-3" d="M41,43.12a15.51,15.51,0,0,1-11.09,5h-.66l-.54,0"/><path class="cls-3" d="M29.56,42.26A23,23,0,0,0,37.25,41"/><path class="cls-3" d="M29.22,48.08h.66c3.09-.18,5.79-3,7.38-7.1"/><line class="cls-3" x1="29.58" y1="16.99" x2="29.58" y2="47.41"/><path class="cls-4" d="M42.72,35H40.6a7.21,7.21,0,0,0,2-.35,7.31,7.31,0,0,0,5-6.79v-.25a7.28,7.28,0,0,0-7.25-7.11h-.15a7.21,7.21,0,0,0-4,1.32v0a8.35,8.35,0,0,1,13.54,1.43,8,8,0,0,1,1,2.94c0,.23,0,.46.07.69A7.92,7.92,0,0,1,42.72,35Z"/><path class="cls-1" d="M47.56,27.63v.25a7.31,7.31,0,0,1-5,6.79,7.21,7.21,0,0,1-2,.35H39.06a8.43,8.43,0,0,1-.85-.43h0a7.8,7.8,0,0,1-1.83-1.45,0,0,0,0,1,0,0A8.34,8.34,0,0,1,36,21.92l.11-.12v0a7.21,7.21,0,0,1,4-1.32h.15A7.28,7.28,0,0,1,47.56,27.63Z"/><path class="cls-5" d="M47,29.63v.25a7.31,7.31,0,0,1-5,6.79A7.21,7.21,0,0,1,40,37h-.64l-1.75-.43h0a7,7,0,0,0-1.83-1.45,0,0,0,0,1,0,0c-1.17-.79-2.42-2-3-5.63,0-.08-.16,0-.24,0a7.44,7.44,0,0,1,.36-2,7.28,7.28,0,0,1,2.6-3.56l.11-.08a7.21,7.21,0,0,1,4-1.32h.15A7.28,7.28,0,0,1,47,29.63Z"/><path class="cls-5" d="M48.2,24.52v.13c0,.2,0,.39,0,.58a7.8,7.8,0,0,0-12.65-1.34,6.85,6.85,0,0,1,.28-1.38,6.43,6.43,0,0,1,5.9-4.63h.13A6.59,6.59,0,0,1,48.2,24.52Z"/><path class="cls-6" d="M33.34,29.48a8.5,8.5,0,0,1,17,0"/><path class="cls-6" d="M50.34,29.48a8.5,8.5,0,0,1-17,0"/><path class="cls-6" d="M35.94,23.15a6.7,6.7,0,1,1,13.29-1.6"/><path class="cls-6" d="M41.84,29.48a1.83,1.83,0,1,1,1.83-1.83"/><path class="cls-6" d="M41.84,33.15A1.83,1.83,0,0,1,40,31.31"/><path class="cls-6" d="M41.84,29.48a1.83,1.83,0,1,1,0,3.67"/><line class="cls-6" x1="41.84" y1="25.81" x2="41.84" y2="24.19"/><line class="cls-6" x1="41.84" y1="34.77" x2="41.84" y2="33.15"/></svg>