<svg id="Layer_1" data-name="Layer 1" xmlns="http://www.w3.org/2000/svg" viewBox="0 0 64 64"><defs><style>.cls-1{fill:#389ad6;}.cls-2,.cls-3{fill:none;stroke-linecap:round;stroke-linejoin:round;stroke-width:2px;}.cls-2{stroke:#9dcbf4;}.cls-3{stroke:#2a5082;}.cls-4{fill:#2a5082;}</style></defs><title>Customer service</title><path class="cls-1" d="M10.6,26.28a.92.92,0,0,1,1.08-.38c.64.16,1,.81,1.3,1.4.3-.33.72-.68,1.14-.52s.47.57.52.94a12.2,12.2,0,0,1,.07,2.58,4.05,4.05,0,0,1-.63,2.09,3.15,3.15,0,0,1-1.8,1.13A1.51,1.51,0,0,1,11,33.37a1.74,1.74,0,0,1-.5-1.26C10.42,31.27,9.74,27.54,10.6,26.28Z"/><path class="cls-2" d="M18.47,23.45A16,16,0,0,1,48,32"/><path class="cls-2" d="M30.6,47.94a16,16,0,0,1-12.74-8.45"/><path class="cls-3" d="M50,32a18,18,0,0,0-35.55-4s-.07.29-.23.29-.22-.18-.22-.18a1.94,1.94,0,0,0-1.94-1.94h-.12A1.94,1.94,0,0,0,10,28.11v7.79a1.94,1.94,0,0,0,1.94,1.94h.12A1.94,1.94,0,0,0,14,35.89s0-.3.17-.3.25.28.25.28A18,18,0,0,0,28,49.55a4.89,4.89,0,0,0,1.32.28c.26,0,.21-.26.25-.44a2.5,2.5,0,1,1,2.26,3.1"/><path class="cls-3" d="M50,34.17V28.11a1.94,1.94,0,0,1,1.94-1.94h.12A1.94,1.94,0,0,1,54,28.11v7.79a1.93,1.93,0,0,1-.53,1.32"/><path class="cls-2" d="M37,45.5a4.22,4.22,0,0,1,1.3,5.79"/><circle class="cls-4" cx="50" cy="37.83" r="1"/></svg>