<svg id="Layer_1" data-name="Layer 1" xmlns="http://www.w3.org/2000/svg" viewBox="0 0 64 64"><defs><style>.cls-1{fill:#9dcbf4;}.cls-2{fill:none;stroke:#2a5082;stroke-linecap:round;stroke-linejoin:round;stroke-width:2px;}.cls-3{fill:#2a5082;}</style></defs><title>Deadline</title><path class="cls-1" d="M31.11,18.39c2.54.29,1.91,2.68,1.18,4.37-1.09,2.51-3.48,4.73-3.77,7.56-.31,3,.85,6,1.71,8.9l2.59,8.67c.41,1.38,1.81,4.51-.9,4.24C26.76,51.63,21.52,50,18,46A15.8,15.8,0,0,1,14.2,34.45a17.1,17.1,0,0,1,5.49-11.1C22.43,20.79,27.18,17.94,31.11,18.39Z"/><circle class="cls-2" cx="32.22" cy="35.52" r="17.63"/><path class="cls-2" d="M32.22,21.52A14,14,0,0,1,35.82,49"/><path class="cls-2" d="M20.46,28a14,14,0,0,0,.76,16"/><circle class="cls-2" cx="32.22" cy="35.52" r="3.38"/><line class="cls-2" x1="32.22" y1="38.9" x2="32.22" y2="49.27"/><polyline class="cls-2" points="32.22 17.89 32.22 13.85 24.72 13.85"/><line class="cls-2" x1="22.22" y1="20.99" x2="20.22" y2="17.89"/><line class="cls-2" x1="42.22" y1="20.99" x2="44.22" y2="17.89"/><circle class="cls-3" cx="36.6" cy="13.85" r="1"/></svg>