<svg id="Layer_1" data-name="Layer 1" xmlns="http://www.w3.org/2000/svg" viewBox="0 0 64 64"><defs><style>.cls-1{fill:#9dcbf4;}.cls-2{fill:#fff;}.cls-3{fill:#389ad6;}.cls-4,.cls-6{fill:none;stroke-linecap:round;stroke-linejoin:round;stroke-width:2px;}.cls-4{stroke:#295183;}.cls-5{fill:#a8d2f0;}.cls-6{stroke:#9dcbf4;}</style></defs><title>Delivery</title><circle class="cls-1" cx="26.72" cy="15.41" r="1"/><circle class="cls-1" cx="17.21" cy="18.69" r="1"/><polygon class="cls-2" points="38.12 26.16 48.21 26.16 52.63 41.41 48.63 44.33 39.29 44.33 38.12 26.16"/><path class="cls-3" d="M25.4,27c-.23,4,.16,10.23,4.09,14.06a1.44,1.44,0,0,1-1.06,2.48l-9.36-.41a1.45,1.45,0,0,1-1.24-.81l-2-4.1a1.45,1.45,0,0,1-.14-.79L17,25.08a1.45,1.45,0,0,1,1.32-1.29l3.46-.3A3.35,3.35,0,0,1,25.4,27Z"/><path class="cls-4" d="M31,28.63l.59,8.12a1.65,1.65,0,0,1-1.69,1.59H23.57a1.65,1.65,0,0,1-1.69-1.59l.59-8.12A1.64,1.64,0,0,1,24.15,27h.91v1.7A1.33,1.33,0,0,0,26.42,30H27a1.33,1.33,0,0,0,1.36-1.29"/><path class="cls-4" d="M46.79,47a2.63,2.63,0,1,1-5.25,0"/><path class="cls-4" d="M26.72,47a2.63,2.63,0,1,1-5.25,0"/><path class="cls-5" d="M43.17,29.12a32.47,32.47,0,0,0,3.69,11.62,2,2,0,0,1-1.71,2.94h-4A3.14,3.14,0,0,1,38,40.52l.07-14.36h1.67A3.42,3.42,0,0,1,43.17,29.12Z"/><path class="cls-4" d="M41.18,26.16l5.12,0a2.81,2.81,0,0,1,2.7,2.1l3.21,12.23a3.16,3.16,0,0,1-3.15,3.15H21.82a5.62,5.62,0,0,1-5.6-5.6V28.34a5.62,5.62,0,0,1,5.6-5.6h10.7a5.62,5.62,0,0,1,5.6,5.6V40.11"/><polyline class="cls-4" points="41.18 30.16 41.18 35.12 46.42 35.12"/><line class="cls-6" x1="35.21" y1="18.69" x2="20.21" y2="18.69"/><line class="cls-6" x1="39.13" y1="15.41" x2="30.54" y2="15.41"/><line class="cls-6" x1="18.21" y1="46.16" x2="11.37" y2="46.16"/></svg>