<svg id="Layer_1" data-name="Layer 1" xmlns="http://www.w3.org/2000/svg" viewBox="0 0 64 64"><defs><style>.cls-1{fill:#389ad6;}.cls-2,.cls-5,.cls-6{fill:none;}.cls-2{stroke:#295183;}.cls-2,.cls-6{stroke-linecap:round;stroke-linejoin:round;stroke-width:2px;}.cls-3{fill:#a8d2f0;}.cls-4{fill:#295183;}.cls-6{stroke:#a8d2f0;}</style></defs><title>Delivery settings</title><path class="cls-1" d="M27.92,44.68l-8.85-.38-.51,0a1.49,1.49,0,0,1-1.24-.81l-.43-.89-1-2.07-.56-1.14a1.49,1.49,0,0,1-.15-.8l.54-5,.79-7.36a1.45,1.45,0,0,1,.32-.76,1.42,1.42,0,0,1,.9-.51l.1,0,2.25-.2h.2l.66-.06.35,0a3.31,3.31,0,0,1,2.29.66,3.48,3.48,0,0,1,1.08,1.35,3.57,3.57,0,0,1,.26,1.54v0c0,.24,0,.5,0,.76,0,.81,0,1.69,0,2.61,0,.17,0,.34,0,.51s0,.13,0,.19a22,22,0,0,0,.44,2.94h-.76s.59.2,1.27,1.85c0,0,0,0,0,0A12.57,12.57,0,0,0,29,42.2,1.44,1.44,0,0,1,27.92,44.68Z"/><path class="cls-2" d="M46.29,48.05a2.63,2.63,0,1,1-5.25,0"/><path class="cls-2" d="M26.21,48.05a2.63,2.63,0,1,1-5.25,0"/><path class="cls-3" d="M42.66,30.21a32.47,32.47,0,0,0,3.69,11.62,2,2,0,0,1-1.71,2.94h-4a3.14,3.14,0,0,1-3.14-3.16l.07-14.36h1.67A3.42,3.42,0,0,1,42.66,30.21Z"/><path class="cls-2" d="M34.72,24.54a5.62,5.62,0,0,1,2.89,4.9V41.2"/><path class="cls-2" d="M40.68,27.25l5.12,0a2.81,2.81,0,0,1,2.7,2.1l3.21,12.23a3.16,3.16,0,0,1-3.15,3.15H21.31a5.62,5.62,0,0,1-5.6-5.6V29.44"/><polyline class="cls-2" points="41.68 31.25 41.68 36.22 45.92 36.22"/><path class="cls-1" d="M17.72,25.31s-.49-6.44,6.76-4.56l-4.93,5.38Z"/><path class="cls-3" d="M24,21.91c1.44.27,1.08,1.28.84,2.36a8.23,8.23,0,0,0,.08,3.85,5.86,5.86,0,0,0,.44,1.37c.21.38.79.74.84,1.19a.69.69,0,0,1-.35.62,2.39,2.39,0,0,1-1.27.29A4,4,0,0,1,23,31.21s-3.47-2-3.61-3.83c-.11-1.49,1.17-3.22,2.14-4.23a3.79,3.79,0,0,1,2-1.27A1.53,1.53,0,0,1,24,21.91Z"/><circle class="cls-2" cx="25.18" cy="26.76" r="5.51"/><circle class="cls-2" cx="25.18" cy="26.76" r="2.21"/><rect class="cls-4" x="23.96" y="18.32" width="2.43" height="3.13" rx="0.65" ry="0.65"/><rect class="cls-4" x="19.1" y="20.33" width="2.43" height="3.13" rx="0.65" ry="0.65" transform="translate(-9.53 20.78) rotate(-45)"/><rect class="cls-4" x="17.08" y="25.19" width="2.43" height="3.13" rx="0.65" ry="0.65" transform="translate(-8.46 45.06) rotate(-90)"/><rect class="cls-4" x="19.1" y="30.05" width="2.43" height="3.13" rx="0.65" ry="0.65" transform="translate(12.32 68.34) rotate(-135)"/><path class="cls-4" d="M26.39,32.72v1.83a.65.65,0,0,1-.65.65H24.61a.65.65,0,0,1-.65-.65V32.72a.64.64,0,0,1,.28-.53.59.59,0,0,1,.37-.12h1.13a.59.59,0,0,1,.37.12A.64.64,0,0,1,26.39,32.72Z"/><rect class="cls-4" x="28.82" y="30.05" width="2.43" height="3.13" rx="0.65" ry="0.65" transform="translate(73.64 32.74) rotate(135)"/><rect class="cls-4" x="30.83" y="25.19" width="2.43" height="3.13" rx="0.65" ry="0.65" transform="translate(58.81 -5.29) rotate(90)"/><rect class="cls-4" x="28.82" y="20.33" width="2.43" height="3.13" rx="0.65" ry="0.65" transform="translate(24.28 -14.83) rotate(45)"/><path class="cls-2" d="M18.63,25.84a4.18,4.18,0,1,1,2.76-7.32"/><rect class="cls-4" x="17.72" y="15.32" width="1.83" height="2.35" rx="0.49" ry="0.49"/><rect class="cls-4" x="14.07" y="16.83" width="1.83" height="2.35" rx="0.49" ry="0.49" transform="translate(-8.34 15.87) rotate(-45)"/><rect class="cls-4" x="12.56" y="20.48" width="1.83" height="2.35" rx="0.49" ry="0.49" transform="translate(-8.19 35.13) rotate(-90)"/><rect class="cls-4" x="14.07" y="24.13" width="1.83" height="2.35" rx="0.49" ry="0.49" transform="translate(7.68 53.79) rotate(-135)"/><path class="cls-5" d="M25.9,37.1s0,0,0,0c-.68-1.65-1.27-1.85-1.27-1.85"/><path class="cls-6" d="M33.14,17.95s-3.55-4.12-8.78-2.82"/></svg>