<svg xmlns="http://www.w3.org/2000/svg" viewBox="0 0 64 64"><defs><style>.cls-1{fill:#a8d2f0;}.cls-2{fill:none;stroke:#295183;stroke-linecap:round;stroke-linejoin:round;stroke-width:2px;}.cls-3{fill:#295183;}.cls-4{fill:#389ad6;}</style></defs><title>device, appliance, electronic, smart home</title><g id="Layer_4" data-name="Layer 4"><path class="cls-1" d="M38,33.57c.1,0,4.3-.65,3.17,5.57,0,0,2.87,4-.5,5.69s1,1.5,1,1.5,1.8,2.39-.28,2.88-7.85,1.16-7.59-6.51S34.18,33.57,38,33.57Z"/><path class="cls-2" d="M22.84,45.33h1.48a2,2,0,0,1,1.94,1.94h0a2,2,0,0,1-1.94,1.94H21.85"/><circle class="cls-3" cx="23.95" cy="52.79" r="0.97"/><path class="cls-1" d="M21.11,17.13h.1a1.88,1.88,0,0,1,1.84,2.81A7.27,7.27,0,0,0,23,27.16c.92,1.64,2,3.77,4.09,4.06a3.78,3.78,0,0,0,2.39-.6c.46-.27,1.3-1.2,1.82-.51a1,1,0,0,1,.08.77c-.48,2.49-1.71,2.77-4.16,3.43-4.41,1.19-10.25-1.07-11.93-5.51-1.38-3.64.65-8.39,3.34-10.59A5.22,5.22,0,0,1,21.11,17.13Z"/><path class="cls-4" d="M17.15,20.51a1,1,0,0,1,.8-.22,1.06,1.06,0,0,1,.75,1,5.45,5.45,0,0,1-.77,2.49,4.85,4.85,0,0,0-.68,3.06c.14.6,1.12,1.83.21,2.25a1.44,1.44,0,0,1-1.57-.38,3,3,0,0,1-.71-1.55,7.9,7.9,0,0,1,.47-4.36,6.41,6.41,0,0,1,1.12-1.91A2.36,2.36,0,0,1,17.15,20.51Z"/><line class="cls-1" x1="21.04" y1="34.78" x2="24.75" y2="34.63"/><line class="cls-2" x1="23.66" y1="10.24" x2="23.66" y2="13.65"/><line class="cls-2" x1="31.43" y1="12.16" x2="29.84" y2="15.18"/><line class="cls-2" x1="16.1" y1="12.07" x2="17.65" y2="15.11"/><path class="cls-1" d="M21.69,41.22,20,32.82s6.82.6,7.19,1.49c0,0-2.79,1.21-2.45,7.13"/><path class="cls-1" d="M21.11,17.13h.1a1.88,1.88,0,0,1,1.84,2.81A7.27,7.27,0,0,0,23,27.16c.92,1.64,2,3.77,4.09,4.06a3.78,3.78,0,0,0,2.39-.6c.46-.27,1.3-1.2,1.82-.51a1,1,0,0,1,.08.77c-.48,2.49-1.71,2.77-4.16,3.43-4.41,1.19-10.25-1.07-11.93-5.51-1.38-3.64.65-8.39,3.34-10.59A5.22,5.22,0,0,1,21.11,17.13Z"/><path class="cls-4" d="M17.15,20.51a1,1,0,0,1,.8-.22,1.06,1.06,0,0,1,.75,1,5.45,5.45,0,0,1-.77,2.49,4.85,4.85,0,0,0-.68,3.06c.14.6,1.12,1.83.21,2.25a1.44,1.44,0,0,1-1.57-.38,3,3,0,0,1-.71-1.55,7.9,7.9,0,0,1,.47-4.36,6.41,6.41,0,0,1,1.12-1.91A2.36,2.36,0,0,1,17.15,20.51Z"/><line class="cls-2" x1="23.66" y1="10.24" x2="23.66" y2="13.65"/><line class="cls-2" x1="31.43" y1="12.16" x2="29.84" y2="15.18"/><line class="cls-2" x1="16.1" y1="12.07" x2="17.65" y2="15.11"/><path class="cls-4" d="M19.92,41.48c.88-.61-1.69-8.94-1.69-8.94l2.15-.4s3.28,1.27,2.51,8.25"/><path class="cls-2" d="M32.47,28.24a9.08,9.08,0,0,0,.36-2.13A9.3,9.3,0,0,0,24,16.46a9.19,9.19,0,0,0-9.58,9.18,8.36,8.36,0,0,0,2.06,5.79l13.93-.07a.25.25,0,0,1,.24.34l-3.5,9.44-.11.08h-6.9l-.07-.05-2.43-6.88,2.17,6.14L21,43.77c.3.85.79,1.57,1.79,1.57h1.48"/><line class="cls-2" x1="21.04" y1="41.22" x2="26.27" y2="41.22"/><path class="cls-2" d="M49.53,36.94v9a3.38,3.38,0,0,1-3.37,3.37h-9A3.38,3.38,0,0,1,33.78,46v-9a3.38,3.38,0,0,1,3.37-3.37h9"/><path class="cls-2" d="M45,42.44a3.34,3.34,0,1,1-1.43-2.74"/><circle class="cls-3" cx="45.33" cy="36.32" r="1"/><circle class="cls-3" cx="41.66" cy="36.32" r="1"/><circle class="cls-3" cx="37.98" cy="36.32" r="1"/></g></svg>