<svg xmlns="http://www.w3.org/2000/svg" viewBox="0 0 64 64"><defs><style>.cls-1{fill:#389ad6;}.cls-2{fill:#a8d2f0;}.cls-3{fill:none;stroke:#295183;stroke-linecap:round;stroke-linejoin:round;stroke-width:2px;}.cls-4{fill:#295183;}</style></defs><title>dial, button, smart, home</title><g id="Layer_4" data-name="Layer 4"><path class="cls-1" d="M26.85,22.69c1.14-1.06-7.14,2.41-9.14,11.16s-1.55,14.39,12,12.65S42.12,31,42.12,31s-.21,9.9-8.41,11.5-12.64-4.9-12-9.49S19.94,29.12,26.85,22.69Z"/><path class="cls-2" d="M34.19,25.64a.53.53,0,0,0-.06-.47A3.39,3.39,0,0,0,33,24c-1.73-1.08-3.81-.35-5.39.65-5.07,3.2-5.39,10.92-1.21,13.74s10.4,1.44,11.67-.65c.47-.77.47-1.68-.53-2a3.56,3.56,0,0,0-1.84,0,18.66,18.66,0,0,1-3.55.37A4.1,4.1,0,0,1,28,33.62c-.67-2,.44-4.35,1.85-5.75A6.84,6.84,0,0,1,33,26.12C33.34,26,34,26,34.19,25.64Z"/><path class="cls-3" d="M46.17,21.32V42.69a3.82,3.82,0,0,1-3.81,3.81H21a3.82,3.82,0,0,1-3.81-3.81V21.32A3.82,3.82,0,0,1,21,17.51H42.36"/><path class="cls-3" d="M36.21,22.54A10.49,10.49,0,1,0,41,27.19"/><line class="cls-3" x1="29.97" y1="39.21" x2="33.39" y2="39.21"/><circle class="cls-4" cx="46.17" cy="18.19" r="1"/><circle class="cls-4" cx="39.09" cy="24.51" r="1"/></g></svg>