<svg xmlns="http://www.w3.org/2000/svg" viewBox="0 0 64 64"><defs><style>.cls-1{fill:#a8d2f0;}.cls-2{fill:#389ad6;}.cls-3,.cls-4,.cls-5{fill:none;stroke:#295181;stroke-linecap:round;stroke-linejoin:round;stroke-width:2px;}.cls-4{stroke-dasharray:0 0 0 2.92;}.cls-5{stroke-dasharray:0 0 0 0 0 2.92;}</style></defs><title>dial, settings, options, preferences</title><g id="Layer_4" data-name="Layer 4"><path class="cls-1" d="M22.51,17.26S30.95,14.18,29,22c0,0-10.94,2.63-6,15.27a12.3,12.3,0,0,0,9,5.16c6.05.48,3.45,8.95-3.78,6.71S13.19,40.5,14.53,31A20.13,20.13,0,0,1,22.51,17.26Z"/><path class="cls-2" d="M30.06,38.13l0,0a2.16,2.16,0,0,1-1.79.74,4.19,4.19,0,0,1-3.09-1.63A7.11,7.11,0,0,1,23.79,34c-1.28-7.51,6.62-13.24,13.13-8.56,2.48,1.78,3.07,4.9,2.64,7.78a6.93,6.93,0,0,1-1,2.88,3.56,3.56,0,0,1-2.5,1.61,2.42,2.42,0,0,1-2.48-1.42c-.91-2.43,2.19-4.11,1.61-6.58a3.28,3.28,0,0,0-5-1.94,4.81,4.81,0,0,0-1.44,5.91c.37.75.92,1.39,1.28,2.14A2.37,2.37,0,0,1,30.06,38.13Z"/><path class="cls-3" d="M44.27,19.37a17.52,17.52,0,1,1-3.69-2.74"/><path class="cls-3" d="M40.09,25.32A10.42,10.42,0,1,1,37.34,23"/><line class="cls-3" x1="27.85" y1="36.43" x2="27.85" y2="36.43"/><path class="cls-4" d="M27.85,36.43l-.32-.32"/><path class="cls-5" d="M26.27,34A6.08,6.08,0,1,1,37,35.47"/><line class="cls-3" x1="36.04" y1="36.56" x2="36.04" y2="36.56"/><polyline class="cls-3" points="30.05 32.74 31.9 30.47 31.9 35.53 33.06 35.53"/></g></svg>