<svg id="Layer_1" data-name="Layer 1" xmlns="http://www.w3.org/2000/svg" viewBox="0 0 64 64"><defs><style>.cls-1{fill:#9dcbf4;}.cls-2{fill:none;stroke:#2a5082;stroke-linecap:round;stroke-linejoin:round;stroke-width:2px;}.cls-3{fill:#389ad6;}.cls-4{fill:#2a5082;}</style></defs><title>Documents</title><path class="cls-1" d="M33.9,47.77l0,.08C34,48.6,33,48.94,32.25,49a118.35,118.35,0,0,1-16.58-.49l0-7.78A4.09,4.09,0,0,0,15.46,39c-.14-.31-.35-.59-.47-.91A3.28,3.28,0,0,1,14.86,37L15,22.77l.07-7.1c0-2-.68-4.14,1.89-4.18l8.87-.13a1.59,1.59,0,0,1,.79.12A1.11,1.11,0,0,1,27,12.83a3.92,3.92,0,0,1-.9,1.22c-4.1,4.44-5.15,11.53-3.8,17.29a25.54,25.54,0,0,0,3.77,8.55c2,3,5,4.8,7.47,7.32A1.37,1.37,0,0,1,33.9,47.77Z"/><polyline class="cls-2" points="15.13 30.51 15.13 11.13 37.02 11.13"/><line class="cls-2" x1="15.13" y1="30.39" x2="15.13" y2="48.54"/><path class="cls-3" d="M39.64,19.7s.51-4.4-.44-4.4-3.3,4.4-1.54,9,11.16,2.06,9.4,0-7,.07-7,.07Z"/><path class="cls-1" d="M37.7,51.57l0,.08c.12.75-.91,1.09-1.67,1.13a118.35,118.35,0,0,1-16.58-.49l0-7.78a4.09,4.09,0,0,0-.23-1.67c-.14-.31-.35-.59-.47-.91a3.28,3.28,0,0,1-.13-1.17l.13-14.2.07-7.1c0-2-.68-4.14,1.89-4.18l8.87-.13a1.59,1.59,0,0,1,.79.12,1.11,1.11,0,0,1,.38,1.35,3.92,3.92,0,0,1-.9,1.22c-4.1,4.44-5.15,11.53-3.8,17.29a25.54,25.54,0,0,0,3.77,8.55c2,3,5,4.8,7.47,7.32A1.37,1.37,0,0,1,37.7,51.57Z"/><polyline class="cls-2" points="18.93 34.31 18.93 14.93 40 14.93 48.81 23.74 40 23.74 40 19.82"/><polyline class="cls-2" points="18.94 34.2 18.94 52.35 48.26 52.35 48.26 38.91 48.26 37.92"/><line class="cls-2" x1="48.26" y1="26.72" x2="48.26" y2="30.07"/><circle class="cls-4" cx="48.26" cy="33.13" r="0.88"/></svg>