<svg id="Layer_1" data-name="Layer 1" xmlns="http://www.w3.org/2000/svg" viewBox="0 0 64 64"><defs><style>.cls-1{fill:#9ac8f1;}.cls-2{fill:#389ad6;}.cls-3{fill:#2a5080;}.cls-4,.cls-5{fill:none;stroke-linecap:round;stroke-linejoin:round;stroke-width:2px;}.cls-4{stroke:#2a5080;}.cls-5{stroke:#295183;}</style></defs><title>Dollar bills</title><path class="cls-1" d="M30.08,42.17H24.44a3,3,0,0,1-3-3V25.78a3,3,0,0,1,3-3H27.8a2.08,2.08,0,0,1,2,2.59,18.48,18.48,0,0,0,2.08,13.73A2.07,2.07,0,0,1,30.08,42.17Z"/><path class="cls-2" d="M21.37,23.65s-8.09-3.29-7.25,6.07-.71,10.93,3.59,11.91,2.48-3.11,2.48-3.11Z"/><circle class="cls-3" cx="28.09" cy="22.74" r="0.91"/><path class="cls-4" d="M31,22.75H46.9a3,3,0,0,1,3,3V39.13a3,3,0,0,1-3,3H23.83a3,3,0,0,1-3-3V25.78a3,3,0,0,1,3-3"/><path class="cls-4" d="M17.46,42.17V25.78a3,3,0,0,1,3-3h4.78"/><path class="cls-4" d="M17.16,42.17a3,3,0,0,1-3-3V25.78a3,3,0,0,1,1.21-2.42"/><path class="cls-5" d="M35.26,32.46a2.18,2.18,0,1,1,2.18-2.18"/><line class="cls-5" x1="35.26" y1="28.1" x2="35.26" y2="26.17"/><line class="cls-5" x1="35.26" y1="36.81" x2="35.26" y2="38.74"/><path class="cls-5" d="M35.26,32.46a2.18,2.18,0,1,1-2.18,2.18"/></svg>