<svg id="Layer_1" data-name="Layer 1" xmlns="http://www.w3.org/2000/svg" viewBox="0 0 64 64"><defs><style>.cls-1{fill:#fff;}.cls-2,.cls-6,.cls-8{fill:none;}.cls-2{stroke:#2a5081;}.cls-2,.cls-6,.cls-7,.cls-8{stroke-linecap:round;stroke-linejoin:round;stroke-width:2px;}.cls-3{fill:#f49292;}.cls-4{fill:#a8d2f0;}.cls-5{fill:#295183;}.cls-6{stroke:#000;}.cls-7{fill:#389ad6;stroke:#389ad6;}.cls-8{stroke:#295183;}</style></defs><title>Down analytics</title><path class="cls-1" d="M48.18,22.57c.78,3.94,0,25.56,0,25.56s1.53,4.13-20.69,3.6l-12-1.13"/><path class="cls-2" d="M47.82,23.08V47.13a4.36,4.36,0,0,1-4.52,4.15H17.05"/><path class="cls-3" d="M42.5,30V46.91a1,1,0,0,1-.35.76l0,0a1,1,0,0,1-1.62-.57.78.78,0,0,1,0-.23V30a1,1,0,0,1,.31-.74.9.9,0,0,1,.3-.2,1,1,0,0,1,.4-.09A1,1,0,0,1,42.5,30Z"/><path class="cls-3" d="M40.5,31.58V47.13a.78.78,0,0,1,0-.23V31.4A.47.47,0,0,1,40.5,31.58Z"/><path class="cls-4" d="M42.14,29.23v18.7H39.23V47.7H40.5v-.57a.78.78,0,0,1,0-.23V31.4a.62.62,0,0,0-.6-.46.63.63,0,0,0-.63.63V29.23Z"/><path class="cls-4" d="M35.22,31.65V47.93H32.31v-.2h1.26v-.49a.59.59,0,0,1,0-.2V33.54a.61.61,0,0,0-.6-.4.6.6,0,0,0-.63.55v-2Z"/><path class="cls-4" d="M28.23,35.11V47.93H25.32v-.16h1.26v-.39a.38.38,0,0,1,0-.16V36.6a.63.63,0,0,0-.6-.31c-.35,0-.63.19-.63.43V35.11Z"/><path class="cls-4" d="M21.41,39.5v8.11a.82.82,0,0,1-.82.82h0a.82.82,0,0,1-.82-.82V40.93a.49.49,0,0,0,0-.18.63.63,0,0,0-.6-.46H19a.64.64,0,0,0-.51.62V39.5c0-.45.36-1.16.81-1.16l1.23-.14C21,38.2,21.41,39,21.41,39.5Z"/><polyline class="cls-2" points="42.5 47.7 42.14 47.7 42.11 47.7 40.85 47.7 40.5 47.7 39.23 47.7 35.53 47.7 28.58 47.7 21.76 47.7"/><path class="cls-2" d="M38.5,43.08V30.94a2,2,0,0,1,2-2h0a2,2,0,0,1,2,2V47.7"/><path class="cls-2" d="M31.52,45.44V33.88a2,2,0,0,1,2-2h0a2,2,0,0,1,2,2V47.7"/><path class="cls-2" d="M24.58,45.44V36.82a2,2,0,0,1,2-2h0a2,2,0,0,1,2,2V47.7"/><path class="cls-2" d="M17.76,43.62V39.76a2,2,0,0,1,2-2h0a2,2,0,0,1,2,2V47.7"/><circle class="cls-5" cx="30.12" cy="13.22" r="1" transform="matrix(0.6, -0.8, 0.8, 0.6, 1.54, 29.51)"/><path class="cls-6" d="M32.76,19.09c.77-.42,1.57-.82,2.4-1.19A22.32,22.32,0,0,0,32.76,19.09Z"/><path class="cls-7" d="M21.63,26.29a17.27,17.27,0,0,0-1.93,3.85L21,30l2.21-.26,1.21-.15,1.82-.21,3.4-.4-2.51-2.29.19-.22-2.77-.08-1.83-.06Z"/><path class="cls-6" d="M35.23,17.87q.76-.33,1.52-.57l0,0C36.22,17.46,35.72,17.66,35.23,17.87Z"/><path class="cls-6" d="M32.76,19.09c.77-.42,1.57-.82,2.4-1.19A22.32,22.32,0,0,0,32.76,19.09Z"/><path class="cls-6" d="M32.76,19.09c.77-.42,1.57-.82,2.4-1.19A22.32,22.32,0,0,0,32.76,19.09Z"/><path class="cls-8" d="M47.39,18.79l0,0,0,0-.07-.08-.11-.13-.08-.08L47,18.37a18.31,18.31,0,0,0-6.14-4.31l-.51-.2a14.55,14.55,0,0,0-6.68-.93"/><path class="cls-4" d="M18,26.18l1.29,0,2.22.07,1.22,0,1.83.06,3.43.1-2.15-2.64a44,44,0,0,1,6.53-4.51l.42-.24c.77-.42,1.57-.82,2.4-1.19l.07,0c.49-.21,1-.41,1.49-.59a13.52,13.52,0,0,1,6-.91,7.38,7.38,0,0,1,1.23.25,3.25,3.25,0,0,1,.39.12,5.94,5.94,0,0,1,.9.37c-3.48-3.5-11.08-3.46-18.16.38A22,22,0,0,0,18,26.18Z"/><path class="cls-7" d="M25.81,23.84l1.83,2.24a44.46,44.46,0,0,1,5.26-4.84l.38-.29c.7-.53,1.44-1,2.2-1.53l.07,0c.45-.28.91-.56,1.38-.8a13.58,13.58,0,0,1,5.79-1.78,7.52,7.52,0,0,1,1.26.07,2.25,2.25,0,0,1,.4.07,5.13,5.13,0,0,1,.94.23l-.09-.05a5.94,5.94,0,0,0-.9-.37,3.25,3.25,0,0,0-.39-.12,7.38,7.38,0,0,0-1.23-.25,13.52,13.52,0,0,0-6,.91c-.5.18-1,.38-1.49.59l-.07,0c-.83.37-1.64.77-2.4,1.19l-.42.24A44,44,0,0,0,25.81,23.84Z"/><path class="cls-8" d="M21.8,18.93l-2.15-2.64-1.72,9.89h0l1.29,0,2.22.07h.14l1.08,0,1.83.06,2.77.08.66,0-.32-.39-1.44-1.76-.4-.49a44,44,0,0,1,6.53-4.51l.42-.24c.77-.42,1.57-.82,2.4-1.19l.07,0c.49-.21,1-.41,1.49-.59a13.52,13.52,0,0,1,6-.91,7.38,7.38,0,0,1,1.23.25,3.25,3.25,0,0,1,.39.12,5.94,5.94,0,0,1,.9.37l.09.05h0a6,6,0,0,1,.83.51l.19.13a7.38,7.38,0,0,1,.93.85l.07.08,0,0,0,0v0"/><circle class="cls-5" cx="17.76" cy="47.8" r="1"/></svg>