<svg xmlns="http://www.w3.org/2000/svg" viewBox="0 0 64 64"><defs><style>.cls-1{fill:#a8d2f0;}.cls-2{fill:#389ad6;}.cls-3{fill:none;stroke:#295183;stroke-linecap:round;stroke-linejoin:round;stroke-width:2px;}.cls-4{fill:#295183;}</style></defs><title>drone, device, electronic, smart home</title><g id="Layer_4" data-name="Layer 4"><path class="cls-1" d="M33.58,23.38s-3.17,7,5.33,7.13,9,1.17,8.67,3.08-34,0-34,0-1.32-5.53,0-6.93,9.57-.58,9.57-.58v3.88L26,29.58s.75-.42,1.37-5.17Z"/><path class="cls-2" d="M14.6,26.72s3.75-1.71,4.59-.65S14.06,30.31,18,33.5s-5-.75-5-.75S12.94,26.5,14.6,26.72Z"/><path class="cls-3" d="M16.27,21.32h2.16v4.75h3a2,2,0,0,1,2,2,2,2,0,0,1-2,2h22a2,2,0,0,1-2-2,2,2,0,0,1,2-2"/><path class="cls-3" d="M15.4,26.07a2,2,0,0,0-2,2v4a2,2,0,0,0,2,2h34a2,2,0,0,0,2-2v-4a2,2,0,0,0-2-2H46.27"/><path class="cls-3" d="M27.4,26.72V25.38a2,2,0,0,1,2-2h6a2,2,0,0,1,2,2v2.69a2,2,0,0,1-2,2h-6"/><path class="cls-3" d="M45.18,34.07v4.81a4.82,4.82,0,0,1-4.81,4.81"/><path class="cls-3" d="M19.62,34.07v4.81a4.82,4.82,0,0,0,4.81,4.81"/><circle class="cls-4" cx="13.6" cy="21.32" r="1"/><polyline class="cls-3" points="46.27 26.07 46.27 21.32 51.07 21.32 44.11 21.32"/><circle class="cls-4" cx="41.43" cy="21.32" r="1"/></g></svg>