<svg id="Layer_1" data-name="Layer 1" xmlns="http://www.w3.org/2000/svg" viewBox="0 0 64 64">
    <defs>
        <style>
            .cls-1{fill:#d9ebf4;}
            .cls-2{fill:#c6e2f4;}
            .cls-3{fill:#5d86d8;}
            .cls-4{fill:#77a3e8;}
            .cls-5{fill:#4a76ce;}
            .cls-6{fill:#3268bf;}
            .cls-7{fill:#77bc94;}
            .cls-8{fill:#8dc9a8;}
            .cls-9{fill:#66af83;}
            .cls-10{fill:#a3e2be;}
            .cls-11,.cls-14,.cls-15{fill:none;}
            .cls-11,
            .cls-15{stroke:#a3e2be;stroke-miterlimit:10;stroke-width:0.5px;}
            .cls-11,.cls-14{stroke-linecap:round;}
            .cls-12{fill:#96b8ea;}
            .cls-13{fill:#b8f4d0;}
            .cls-14{stroke:#041256;stroke-linejoin:round;stroke-width:2px;}
            .cls-16{fill:#57b273;}.cls-17{fill:#b1f2cd;}
            .cls-18{fill:#40a35c;}.cls-19{fill:#369965;}.cls-20{fill:#268e69;}.cls-21{fill:#2ccea7;}.cls-22{fill:#041256;}.cls-23{fill:#3da081;}
        </style>
    </defs>
    <title>ecology, environmental, natural, green, plant</title>
    <path class="cls-1"
          d="M54.11,14.52h0a.65.65,0,0,0-.65-.65H50A1.09,1.09,0,0,0,48.9,15h0A1.09,1.09,0,0,0,50,16h1.74a.65.65,0,0,1,.65.65h0a.65.65,0,0,0,.65.65h3.48a1.09,1.09,0,0,0,1.09-1.09h0a1.09,1.09,0,0,0-1.09-1.09H54.77A.65.65,0,0,1,54.11,14.52Z"/>
    <path class="cls-1"
          d="M47.82,19.43h0a.38.38,0,0,1,.38-.38h2a.63.63,0,0,1,.63.63h0a.63.63,0,0,1-.63.63h-1a.38.38,0,0,0-.38.38h0a.38.38,0,0,1-.38.38h-2a.63.63,0,0,1-.63-.63h0a.63.63,0,0,1,.63-.63h1A.38.38,0,0,0,47.82,19.43Z"/>
    <circle class="cls-1" cx="39.41" cy="21.52" r="0.91"/>
    <circle class="cls-1" cx="53.25" cy="21.72" r="0.88"/>
    <circle class="cls-1" cx="57.59" cy="23.51" r="1.41"/>
    <circle class="cls-1" cx="58.44" cy="12.6" r="0.46"/>
    <circle class="cls-1" cx="44.13" cy="23.51" r="0.56"/>
    <circle class="cls-1" cx="48.32" cy="25.24" r="1.47"/>
    <circle class="cls-1" cx="42.64" cy="19.56" r="0.5"/>
    <path class="cls-1"
          d="M7.94,8.35h0a.5.5,0,0,1,.5-.5h2.67a.83.83,0,0,1,.83.83h0a.83.83,0,0,1-.83.83H9.77a.5.5,0,0,0-.5.5h0a.5.5,0,0,1-.5.5H6.1a.83.83,0,0,1-.83-.83h0a.83.83,0,0,1,.83-.83H7.44A.5.5,0,0,0,7.94,8.35Z"/>
    <path class="cls-1"
          d="M12.77,12.11h0a.29.29,0,0,0-.29-.29H10.93a.48.48,0,0,0-.48.48h0a.48.48,0,0,0,.48.48h.77a.29.29,0,0,1,.29.29h0a.29.29,0,0,0,.29.29h1.55a.48.48,0,0,0,.48-.48h0a.48.48,0,0,0-.48-.48h-.77A.29.29,0,0,1,12.77,12.11Z"/>
    <circle class="cls-1" cx="19.22" cy="13.71" r="0.7"/>
    <circle class="cls-1" cx="8.6" cy="13.87" r="0.67"/>
    <circle class="cls-1" cx="5.27" cy="15.24" r="1.08"/>
    <circle class="cls-1" cx="4.62" cy="6.87" r="0.35"/>
    <circle class="cls-1" cx="15.6" cy="15.24" r="0.43"/>
    <circle class="cls-1" cx="12.38" cy="16.57" r="1.12"/>
    <circle class="cls-1" cx="16.74" cy="12.21" r="0.39"/>
    <path class="cls-2"
          d="M3,60.86V33.58a.89.89,0,0,1,.89-.89h.93a.89.89,0,0,1,.89.89v2.27a.89.89,0,0,0,.89.89h3a.89.89,0,0,1,.89.89V48a.89.89,0,0,0,.89.89h1.85a.89.89,0,0,1,.89.89v6.54a.89.89,0,0,0,.89.89h.9a.89.89,0,0,0,.89-.89V55.19a.89.89,0,0,1,.89-.89h.81a.89.89,0,0,0,.89-.89V51.88a.89.89,0,0,1,.89-.89H25.1a.89.89,0,0,0,.89-.89v-.91a.89.89,0,0,1,.89-.89h15.4a.89.89,0,0,1,.63.26l4.14,4.14a.89.89,0,0,0,.63.26h1.24a.89.89,0,0,1,.89.89v3a.89.89,0,0,0,.89.89h.51a.89.89,0,0,0,.89-.89v-.52a.89.89,0,0,1,.89-.89h.65a.89.89,0,0,0,.89-.89.89.89,0,0,1,.89-.89h4.63a.89.89,0,0,1,.89.89v6.31Z"/>
    <path class="cls-3" d="M32,32.42A28.54,28.54,0,0,0,3.46,61H60.54A28.54,28.54,0,0,0,32,32.42Z"/>
    <path class="cls-3" d="M7.32,61H56.68A24.81,24.81,0,0,0,7.32,61Z"/>
    <path class="cls-4"
          d="M55.51,44.79,53.39,46.4A2.69,2.69,0,0,0,52.8,50l0,0a2.65,2.65,0,0,0,3.84.64l1.5-1.15A28.49,28.49,0,0,0,55.51,44.79Z"/>
    <path class="cls-4"
          d="M56.4,52.55a2.66,2.66,0,0,0-.9,3A24.7,24.7,0,0,1,56.66,61h3.88a28.47,28.47,0,0,0-1.86-10.15Z"/>
    <path class="cls-4"
          d="M29.2,38.87a24.69,24.69,0,0,1,18.28,5.29,2.68,2.68,0,0,0,3.31.06l2.69-2A28.54,28.54,0,0,0,3.55,58.61c-.06.79-.08,1.58-.08,2.35H7.32A24.89,24.89,0,0,1,29.2,38.87Z"/>
    <path class="cls-5" d="M9.28,61H54.72A23.11,23.11,0,0,0,9.28,61Z"/>
    <path class="cls-6"
          d="M47.91,55.59a1.89,1.89,0,0,0-.74-.73l-4.41-2.53a2,2,0,0,0-1.56-.19,11.14,11.14,0,0,1-1.1.27,2,2,0,0,0-1.55,2.3c.22,1.1.48,2.55.71,4.13a2,2,0,0,0,2.39,1.65l.08,0a2,2,0,0,1,1.83.5h5.87A22.1,22.1,0,0,0,47.91,55.59Z"/>
    <path class="cls-6"
          d="M22.49,46.74A23.19,23.19,0,0,0,10.61,61h8.18a4.37,4.37,0,0,1,.12-3,47,47,0,0,1,3.4-6.74,4.43,4.43,0,0,0,.43-3.79Z"/>
    <path class="cls-7"
          d="M52.46,59.15a2,2,0,0,1-3-1.28,22.32,22.32,0,0,0-1.53-5.43,1.89,1.89,0,0,0-.74-.73l-4.41-2.53A2,2,0,0,0,41.19,49a11.17,11.17,0,0,1-1.1.27,2,2,0,0,0-1.55,2.3c.22,1.1.48,2.55.71,4.13a2,2,0,0,0,2.39,1.65l.08,0A2,2,0,0,1,44.14,59c.08.57.16,1.26.23,2H60.54a28.53,28.53,0,0,0-1.27-8.44A29,29,0,0,1,52.46,59.15Z"/>
    <path class="cls-8"
          d="M60.42,58.38c0-.48-.1-1-.16-1.44,0-.25-.08-.5-.12-.75S60,55.42,59.91,55s-.11-.54-.18-.8-.19-.73-.3-1.1c-.06-.2-.11-.41-.17-.61a33.31,33.31,0,0,1-3.48,3.94A24.78,24.78,0,0,1,56.68,61h3.86s0-.07,0-.11q0-1-.07-2C60.45,58.71,60.43,58.54,60.42,58.38Z"/>
    <path class="cls-9"
          d="M54,58c-.49.39-1,.77-1.52,1.11a2,2,0,0,1-3-1.28,22.32,22.32,0,0,0-1.53-5.43,1.89,1.89,0,0,0-.74-.73l-4.41-2.53A2,2,0,0,0,41.19,49a11.17,11.17,0,0,1-1.1.27,2,2,0,0,0-1.55,2.3c.22,1.1.48,2.55.71,4.13a2,2,0,0,0,2.39,1.65l.08,0A2,2,0,0,1,44.14,59c.08.57.16,1.26.23,2H54.72A23.45,23.45,0,0,0,54,58Z"/>
    <path class="cls-9"
          d="M33.29,56l-.07,0a20,20,0,0,1-3.74,1.1,1.69,1.69,0,0,0-1.35,1.45c-.1.75-.18,1.55-.23,2.36h8.18a30.67,30.67,0,0,0-.45-3.7A1.71,1.71,0,0,0,33.29,56Z"/>
    <path class="cls-7"
          d="M19.08,60.71l-.41-.55a4.43,4.43,0,0,1-.59-4.35,47,47,0,0,1,3.4-6.74,4.43,4.43,0,0,0,.43-3.79L18.6,35.76A28.54,28.54,0,0,0,3.46,61H19.24C19.18,60.88,19.14,60.79,19.08,60.71Z"/>
    <path class="cls-9"
          d="M21.66,44.54A23.15,23.15,0,0,0,9.28,61h10c-.06-.08-.09-.18-.15-.26l-.41-.55a4.43,4.43,0,0,1-.59-4.35,47,47,0,0,1,3.4-6.74,4.43,4.43,0,0,0,.43-3.79Z"/>
    <path class="cls-7"
          d="M4.75,55.32A26.92,26.92,0,0,1,19.19,37.45l-.37-1.07A28.71,28.71,0,0,0,8.47,44.82,28.36,28.36,0,0,0,3.83,56.4,15.3,15.3,0,0,0,6,61h1.4A14.1,14.1,0,0,1,4.75,55.32Z"/>
    <path class="cls-7" d="M11.92,61h1.22c1-7,3.69-14.19,7.54-19.23l-.46-1.33C15.94,45.65,12.91,53.32,11.92,61Z"/>
    <path class="cls-8"
          d="M6.28,48.6l-.07.14Q5.7,49.83,5.27,51l0,.09c-.28.74-.52,1.5-.74,2.27-.05.19-.1.39-.15.59q-.21.83-.37,1.67-.08.42-.15.84c-.09.57-.16,1.14-.22,1.71,0,.23-.06.46-.07.69s0,.33,0,.49c0,.45,0,.91,0,1.37,0,.1,0,.19,0,.29H7.32A24.89,24.89,0,0,1,20.6,41.51l-2-5.71A28.92,28.92,0,0,0,6.28,48.6Z"/>
    <path class="cls-4"
          d="M34.83,33.49a42.67,42.67,0,0,0-5.67,0C16.61,34.66,6.33,43.38,3.58,55.19l0,.11,0,.11A14.86,14.86,0,0,0,6,61H7.41a14.1,14.1,0,0,1-2.66-5.64A27.36,27.36,0,0,1,26.78,35C19.12,38.6,13.36,49.82,11.92,61h1.19c1.6-11.76,8.24-23.84,16.53-25.82-3.18,3.94-5.26,15.47-5.8,25.82H25c.7-13.48,3.93-26.11,7-26.11S38.29,47.49,39,61h1.16c-.55-10.35-2.62-21.88-5.8-25.82,8.3,2,14.93,14.06,16.53,25.82h1.19C50.64,49.82,44.89,38.6,37.23,35a27.36,27.36,0,0,1,22,20.36A14.1,14.1,0,0,1,56.59,61H58a14.86,14.86,0,0,0,2.42-5.54l0-.11,0-.11C57.67,43.38,47.39,34.66,34.83,33.49Z"/>
    <path class="cls-10"
          d="M58.68,53.29c.22.67.41,1.34.57,2A14.1,14.1,0,0,1,56.59,61H58a15.3,15.3,0,0,0,2.18-4.57,28.42,28.42,0,0,0-.89-3.86Z"/>
    <path class="cls-10" d="M51.84,59.4a2,2,0,0,1-1.21-.07c.1.54.15,1.09.22,1.63h1.2C52,60.44,51.93,59.92,51.84,59.4Z"/>
    <path class="cls-10"
          d="M39.25,55.69a2,2,0,0,0,.62,1.17c-.21-2.37-.5-4.73-.86-7a2,2,0,0,0-.48,1.69C38.76,52.66,39,54.11,39.25,55.69Z"/>
    <path class="cls-3"
          d="M37.56,42.78c-.42-.1-.84-.21-1.28-.29A92.75,92.75,0,0,1,39,61h1.17A95.72,95.72,0,0,0,37.56,42.78Z"/>
    <path class="cls-3"
          d="M46.81,47.45A45.22,45.22,0,0,1,50.89,61h1.19a46.53,46.53,0,0,0-2.94-11.25A23.23,23.23,0,0,0,46.81,47.45Z"/>
    <path class="cls-3"
          d="M23.84,61H25a92.75,92.75,0,0,1,2.7-18.47c-.43.08-.85.18-1.28.29A95.72,95.72,0,0,0,23.84,61Z"/>
    <path class="cls-3"
          d="M14.86,49.72A46.53,46.53,0,0,0,11.92,61h1.19a45.21,45.21,0,0,1,4.08-13.51A23.24,23.24,0,0,0,14.86,49.72Z"/>
    <path class="cls-8"
          d="M39.25,55.69a2,2,0,0,0,.62,1.17c-.21-2.36-.51-4.71-.86-7a2,2,0,0,0-.47,1.68C38.76,52.66,39,54.11,39.25,55.69Z"/>
    <path class="cls-8" d="M50.63,59.33c.1.55.15,1.09.23,1.64h1.21c-.07-.52-.12-1-.21-1.56A2,2,0,0,1,50.63,59.33Z"/>
    <path class="cls-11"
          d="M60.54,61a28.53,28.53,0,0,0-1.27-8.44,29,29,0,0,1-6.82,6.62,2,2,0,0,1-3-1.28,22.32,22.32,0,0,0-1.53-5.43,1.89,1.89,0,0,0-.74-.73l-4.41-2.53A2,2,0,0,0,41.19,49a11.17,11.17,0,0,1-1.1.27,2,2,0,0,0-1.55,2.3c.22,1.1.48,2.55.71,4.13a2,2,0,0,0,2.39,1.65l.08,0A2,2,0,0,1,44.14,59c.08.57.16,1.26.23,2"/>
    <path class="cls-11"
          d="M36.09,61a30.67,30.67,0,0,0-.45-3.7A1.71,1.71,0,0,0,33.29,56l-.07,0a20,20,0,0,1-3.74,1.1,1.69,1.69,0,0,0-1.35,1.45c-.1.75-.18,1.55-.23,2.36"/>
    <path class="cls-10"
          d="M4.75,55.32A26.92,26.92,0,0,1,19.19,37.45l-.37-1.07A28.71,28.71,0,0,0,8.47,44.82,28.36,28.36,0,0,0,3.83,56.4,15.3,15.3,0,0,0,6,61h1.4A14.1,14.1,0,0,1,4.75,55.32Z"/>
    <path class="cls-10" d="M11.92,61h1.22c1-7,3.69-14.19,7.54-19.23l-.46-1.33C15.94,45.65,12.91,53.32,11.92,61Z"/>
    <path class="cls-8"
          d="M14.86,49.72A46.31,46.31,0,0,0,11.92,61h1.2A45.23,45.23,0,0,1,17.18,47.5,23.28,23.28,0,0,0,14.86,49.72Z"/>
    <path class="cls-12"
          d="M29.16,33.49a29.3,29.3,0,0,0-20.46,11A28.23,28.23,0,0,0,3.83,56.4,15.24,15.24,0,0,0,6,61H7.32v-.1a14.05,14.05,0,0,1-2.58-5.54A27.36,27.36,0,0,1,26.78,35a21.66,21.66,0,0,0-8.31,7.81A24.76,24.76,0,0,1,21,41.26c2.5-3.13,5.43-5.36,8.6-6.12a14.69,14.69,0,0,0-2.07,4c.43-.08.85-.15,1.29-.2,1-2.54,2.07-4.07,3.14-4.07s2.15,1.52,3.13,4.06q.65.08,1.28.2a14.67,14.67,0,0,0-2.06-4c3.18.76,6.12,3,8.62,6.15a24.88,24.88,0,0,1,2.54,1.45A21.64,21.64,0,0,0,37.23,35a28.18,28.18,0,0,1,15.19,8l.92-.7a29.5,29.5,0,0,0-18.51-8.78A42.67,42.67,0,0,0,29.16,33.49Z"/>
    <path class="cls-13"
          d="M8.77,44.45l-.1.13c-.13.18-.24.36-.36.54q-.36.54-.71,1.1L7.16,47c-.2.35-.39.71-.57,1.07s-.43.87-.63,1.31-.33.74-.48,1.12-.27.68-.39,1-.28.82-.4,1.24-.29,1-.42,1.54q-.11.47-.21.95c-.08.38-.16.77-.22,1.16v0A15.25,15.25,0,0,0,6,61H7.32v-.1a14.05,14.05,0,0,1-2.58-5.54A26.92,26.92,0,0,1,19.19,37.45l-.37-1.08A28.82,28.82,0,0,0,8.77,44.45Z"/>
    <path class="cls-10" d="M20.21,40.39q-.91,1.12-1.75,2.37l.34-.21.63-.39c.38-.23.77-.45,1.17-.66Z"/>
    <path class="cls-11"
          d="M19.24,61c-.06-.08-.09-.18-.15-.26l-.41-.55a4.43,4.43,0,0,1-.59-4.35,47,47,0,0,1,3.4-6.74,4.43,4.43,0,0,0,.43-3.79L18.6,35.76A28.54,28.54,0,0,0,3.46,61"/>
    <path class="cls-13"
          d="M58,51.36a26.19,26.19,0,0,1,1.29,4,14.05,14.05,0,0,1-2.59,5.55s0,.06,0,.09H58a15.25,15.25,0,0,0,2.17-4.56,28.47,28.47,0,0,0-1.49-5.59Z"/>
    <path class="cls-14" d="M3.46,61a28.54,28.54,0,1,1,57.09,0"/>
    <circle class="cls-9" cx="27.22" cy="54.72" r="0.98"/>
    <circle class="cls-15" cx="27.22" cy="54.72" r="0.98"/>
    <line class="cls-14" x1="61.01" y1="60.96" x2="2.99" y2="60.96"/>
    <path class="cls-16"
          d="M31.93,23.94A19.07,19.07,0,0,0,12.87,5.29h0A4.32,4.32,0,0,1,9.6,3.84,2.33,2.33,0,0,0,5.51,5.29h0v6.25A14.85,14.85,0,0,0,20.36,26.39h0a10.63,10.63,0,0,1,6.41,2.35,3.2,3.2,0,0,0,1.94.65,3.23,3.23,0,0,0,3.21-3h0V23.94Z"/>
    <path class="cls-8"
          d="M31.94,24.48v-.54h0A19.07,19.07,0,0,0,12.87,5.29,4.32,4.32,0,0,1,9.6,3.84,2.33,2.33,0,0,0,5.51,5.29h0V6a2.31,2.31,0,0,1,3.29.21,4.32,4.32,0,0,0,3.27,1.45A19.07,19.07,0,0,1,31,24.63,6,6,0,0,1,31.94,24.48Z"/>
    <path class="cls-17"
          d="M31.88,24.48l.06-.12v-.42h0a19,19,0,0,0-4.44-11.82H25.2a19,19,0,0,1,5.87,12.5A5.92,5.92,0,0,1,31.88,24.48Z"/>
    <rect class="cls-16" x="29.27" y="25.27" width="3.1" height="10.09"/>
    <line class="cls-14" x1="29.78" y1="35.35" x2="29.78" y2="29.28"/>
    <path class="cls-18"
          d="M24.33,18.71a20.16,20.16,0,0,0-8-5.05A20.78,20.78,0,0,1,9.19,9.32,22,22,0,0,1,5.55,5a2.25,2.25,0,0,0,0,.24h0v6.25a14.71,14.71,0,0,0,1.84,7.13l.13.23c.13.22.26.43.39.64l.27.41.37.52.38.48.21.26h0a14.77,14.77,0,0,0,11.24,5.18,10.63,10.63,0,0,1,6.41,2.35,3.21,3.21,0,0,0,3.14.42A18.5,18.5,0,0,0,24.33,18.71Z"/>
    <path class="cls-19"
          d="M24.33,18.71a20.16,20.16,0,0,0-8-5.05A20.78,20.78,0,0,1,9.19,9.32,22,22,0,0,1,5.55,5a2.25,2.25,0,0,0,0,.24h0v6.25a14.71,14.71,0,0,0,1.84,7.13l.13.23c.13.22.26.43.39.64l.27.41.37.52.38.48.21.26h0c.16.19.34.36.51.54a7.88,7.88,0,0,1,7.88-5.84c4.44,0,8,3.26,8,7.27a6.76,6.76,0,0,1-1.35,4,12.42,12.42,0,0,1,2.57,1.51,3.21,3.21,0,0,0,3.14.42A18.5,18.5,0,0,0,24.33,18.71Z"/>
    <path class="cls-20"
          d="M13.14,13.21a12.54,12.54,0,0,1,3.41.47l-.08,0A20.78,20.78,0,0,1,9.35,9.32,22,22,0,0,1,5.71,5a2.25,2.25,0,0,0,0,.24h0v6.29a2.53,2.53,0,0,0,3.41,2.3A12.37,12.37,0,0,1,13.14,13.21Z"/>
    <path class="cls-21"
          d="M29.67,28.33a3.2,3.2,0,0,1-1.94-.65,10.63,10.63,0,0,0-6.41-2.35,14.77,14.77,0,0,1-11.24-5.18h0l-.21-.26-.38-.48-.37-.52-.27-.41c-.14-.21-.27-.42-.39-.64l-.13-.23a14.71,14.71,0,0,1-1.84-7.13V6.34c-.33-.43-.64-.86-.92-1.29a2.25,2.25,0,0,0,0,.24h0v6.25a14.71,14.71,0,0,0,1.84,7.13l.13.23c.13.22.26.43.39.64l.27.41.37.52.38.48.21.26h0a14.77,14.77,0,0,0,11.24,5.18,10.63,10.63,0,0,1,6.41,2.35,3.21,3.21,0,0,0,3.14.42c0-.28-.09-.56-.15-.84Z"/>
    <path class="cls-22"
          d="M27.37,27.94a2.28,2.28,0,0,0,2.21.41l-.54.9a14.3,14.3,0,0,0-1.36-4.92,20.49,20.49,0,0,0-2.82-4.43,20.4,20.4,0,0,0-8.55-6.25,20.83,20.83,0,0,1,9.2,5.67,21.57,21.57,0,0,1,3.34,4.42,15.81,15.81,0,0,1,1.92,5.32.82.82,0,0,1-.47.87l-.07,0a4.16,4.16,0,0,1-4.07-.43l0,0a1,1,0,1,1,1.18-1.62Z"/>
    <path class="cls-17"
          d="M25.7,10.28a19,19,0,0,0-12.9-5A4.57,4.57,0,0,1,9.52,3.75a2.32,2.32,0,0,0-4,1.43,2.31,2.31,0,0,1,3.19.15A4.6,4.6,0,0,0,12,6.86,19,19,0,0,1,22.67,10.1a1.06,1.06,0,0,0,.59.18Z"/>
    <path class="cls-14"
          d="M31.94,24.36v-.42h0A19.07,19.07,0,0,0,12.87,5.29h0A4.32,4.32,0,0,1,9.6,3.84,2.33,2.33,0,0,0,5.51,5.29h0v6.25A14.85,14.85,0,0,0,20.36,26.39h0a10.63,10.63,0,0,1,6.41,2.35,3.2,3.2,0,0,0,1.94.65"/>
    <path class="cls-16"
          d="M32.07,23.94A19.07,19.07,0,0,1,51.13,5.29h0A4.32,4.32,0,0,0,54.4,3.84a2.33,2.33,0,0,1,4.08,1.45h0v6.25A14.85,14.85,0,0,1,43.64,26.39h0a10.63,10.63,0,0,0-6.41,2.35,3.2,3.2,0,0,1-1.94.65,3.23,3.23,0,0,1-3.21-3h0V23.94Z"/>
    <rect class="cls-16" x="32.06" y="25.27" width="2.67" height="10.09"
          transform="translate(66.79 60.62) rotate(180)"/>
    <path class="cls-16"
          d="M34.22,37.59V34.27H29.78v3.32a2.84,2.84,0,0,1-2,2.68c-1.2.4-2,1-2,1.59C25.84,43.06,28.6,44,32,44s6.16-1,6.16-2.17c0-.63-.75-1.19-2-1.59A2.84,2.84,0,0,1,34.22,37.59Z"/>
    <path class="cls-23"
          d="M37.56,40.93A10.33,10.33,0,0,1,32,42.18a10.33,10.33,0,0,1-5.56-1.25,1.22,1.22,0,0,0-.6.93C25.84,43.06,28.6,44,32,44s6.16-1,6.16-2.17A1.22,1.22,0,0,0,37.56,40.93Z"/>
    <path class="cls-14" d="M38.16,41.86c0-.63-.75-1.19-2-1.59a2.84,2.84,0,0,1-2-2.68V34.27"/>
    <path class="cls-22"
          d="M32,44a15,15,0,0,0,3.32-.86,6.62,6.62,0,0,0,1.4-.75,1.73,1.73,0,0,0,.44-.45c.1-.14,0-.23,0-.12a1,1,0,0,1,2,0,1.91,1.91,0,0,1-.77,1.38,3.46,3.46,0,0,1-1,.53,7.9,7.9,0,0,1-1.86.39A15.52,15.52,0,0,1,32,44Z"/>
    <path class="cls-14" d="M29.78,34.27v3.32a2.84,2.84,0,0,1-2,2.68c-1.2.4-2,1-2,1.59"/>
    <path class="cls-22"
          d="M26.84,41.86c-.05-.1-.1,0,0,.12a1.73,1.73,0,0,0,.44.45,6.62,6.62,0,0,0,1.4.75A15,15,0,0,0,32,44a15.52,15.52,0,0,1-3.55.12,7.9,7.9,0,0,1-1.86-.39,3.46,3.46,0,0,1-1-.53,1.91,1.91,0,0,1-.77-1.38,1,1,0,0,1,2,0Z"/>
    <line class="cls-14" x1="34.22" y1="35.35" x2="34.22" y2="29.28"/>
    <path class="cls-18"
          d="M39.67,18.71a20.16,20.16,0,0,1,8-5.05,20.78,20.78,0,0,0,7.12-4.34A22,22,0,0,0,58.45,5a2.25,2.25,0,0,1,0,.24h0v6.25a14.71,14.71,0,0,1-1.84,7.13l-.13.23c-.13.22-.26.43-.39.64l-.27.41-.37.52-.38.48-.21.26h0a14.77,14.77,0,0,1-11.24,5.18,10.63,10.63,0,0,0-6.41,2.35,3.21,3.21,0,0,1-3.14.42A18.5,18.5,0,0,1,39.67,18.71Z"/>
    <path class="cls-19"
          d="M39.67,18.71a20.16,20.16,0,0,1,8-5.05,20.78,20.78,0,0,0,7.12-4.34A22,22,0,0,0,58.45,5a2.25,2.25,0,0,1,0,.24h0v6.25a14.71,14.71,0,0,1-1.84,7.13l-.13.23c-.13.22-.26.43-.39.64l-.27.41-.37.52-.38.48-.21.26h0c-.16.19-.34.36-.51.54a7.88,7.88,0,0,0-7.88-5.84c-4.44,0-8,3.26-8,7.27a6.76,6.76,0,0,0,1.35,4,12.42,12.42,0,0,0-2.57,1.51,3.21,3.21,0,0,1-3.14.42A18.5,18.5,0,0,1,39.67,18.71Z"/>
    <path class="cls-20"
          d="M51,13.21a12.54,12.54,0,0,0-3.41.47l.08,0a20.77,20.77,0,0,0,7.12-4.34A22,22,0,0,0,58.43,5a2.25,2.25,0,0,1,0,.24h0v6.29a2.53,2.53,0,0,1-3.41,2.3A12.37,12.37,0,0,0,51,13.21Z"/>
    <path class="cls-21"
          d="M34.33,28.33a3.2,3.2,0,0,0,1.94-.65,10.63,10.63,0,0,1,6.41-2.35,14.77,14.77,0,0,0,11.24-5.18h0l.21-.26.38-.48.37-.52.27-.41c.14-.21.27-.42.39-.64l.13-.23a14.71,14.71,0,0,0,1.84-7.13V6.34c.33-.43.64-.86.92-1.29a2.25,2.25,0,0,1,0,.24h0v6.25a14.71,14.71,0,0,1-1.84,7.13l-.13.23c-.13.22-.26.43-.39.64l-.27.41-.37.52-.38.48-.21.26h0a14.77,14.77,0,0,1-11.24,5.18,10.63,10.63,0,0,0-6.41,2.35,3.21,3.21,0,0,1-3.14.42c0-.28.09-.56.15-.84Z"/>
    <path class="cls-22"
          d="M37.85,29.53a4.16,4.16,0,0,1-4.07.43l-.07,0a.82.82,0,0,1-.47-.87,15.81,15.81,0,0,1,1.92-5.32,21.57,21.57,0,0,1,3.34-4.42,20.83,20.83,0,0,1,9.2-5.67,20.4,20.4,0,0,0-8.55,6.25,20.49,20.49,0,0,0-2.82,4.43A14.3,14.3,0,0,0,35,29.26l-.54-.9a2.28,2.28,0,0,0,2.21-.41A1,1,0,1,1,38,29.45l-.07.06Z"/>
    <path class="cls-8"
          d="M58.49,5.29A2.33,2.33,0,0,0,54.4,3.84a4.32,4.32,0,0,1-3.27,1.45A19.07,19.07,0,0,0,32.07,23.94h0v.53c.14,0,.28,0,.43,0s.34,0,.52,0A19.07,19.07,0,0,1,51.94,7.64a4.32,4.32,0,0,0,3.27-1.45A2.31,2.31,0,0,1,58.49,6V5.29Z"/>
    <path class="cls-17"
          d="M38.3,10.28a19,19,0,0,1,12.9-5,4.57,4.57,0,0,0,3.29-1.53,2.32,2.32,0,0,1,4,1.43,2.31,2.31,0,0,0-3.19.15A4.6,4.6,0,0,1,52,6.86,19,19,0,0,0,41.33,10.1a1.06,1.06,0,0,1-.59.18Z"/>
    <path class="cls-17"
          d="M32.48,24.44c.16,0,.31,0,.46,0A19,19,0,0,1,38.8,12.12H36.51a19,19,0,0,0-4.44,11.82h0v.42l.07.1Z"/>
    <path class="cls-14"
          d="M32.06,24.36v-.42h0A19.07,19.07,0,0,1,51.13,5.29h0A4.32,4.32,0,0,0,54.4,3.84a2.33,2.33,0,0,1,4.08,1.45h0v6.25A14.85,14.85,0,0,1,43.64,26.39h0a10.63,10.63,0,0,0-6.41,2.35,3.2,3.2,0,0,1-1.94.65"/>
</svg>