<svg id="Layer_1" data-name="Layer 1" xmlns="http://www.w3.org/2000/svg" viewBox="0 0 64 64"><defs><style>.cls-1{fill:#9ac8f1;}.cls-2{fill:#389ad6;}.cls-3{fill:none;stroke:#295183;stroke-linecap:round;stroke-linejoin:round;stroke-width:2px;}.cls-4{fill:#295183;}</style></defs><title>Ecology_1</title><path class="cls-1" d="M25.52,24.55s1.9,1.34,1.56,4.67,2.49,2.46,3.47,1.33,2.92-2,3.95-1.33-7.17,12.52-7.17,12.52S21.55,30.55,25.52,24.55Z"/><path class="cls-2" d="M24.31,24.88a1,1,0,0,0-1-1.37c-2,.25-5,1.69-4.52,8.11.72,9.63,8.52,10.12,8.52,10.12S21.2,31.43,24.31,24.88Z"/><path class="cls-2" d="M34.49,29.22s-1.17-1.67-3.42,1.83-4.44,8.5-3.55,11,4-7.83,4-7.83Z"/><path class="cls-3" d="M38.91,48.74l-.27-.86c-.08-.26-.16-.52-.25-.78l0-.09a25.12,25.12,0,0,0-1.55-3.43"/><path class="cls-3" d="M27.08,43.36c-5.59-1.23-18.75-6.42-9.48-27.3a19.4,19.4,0,0,0,6.18,4.26"/><path class="cls-3" d="M37.24,43.45c.31,1.21.74,2.41,1.12,3.56l0,.09c.09.27.17.52.25.78l.27.86"/><path class="cls-3" d="M34.86,29.22A29.9,29.9,0,0,0,31.37,35a78.28,78.28,0,0,0-4.83,14.5s0,0,0,0c-.1.43-.21.86-.31,1.27"/><path class="cls-3" d="M36.7,43.61l-1.84.27c.14,0,2.23-.39,2.38-.43,6.25-2,19.14-8.73,8-30.23,0,0-4.77,6.23-14.95,7.89a7.57,7.57,0,0,0-2.23.7c-3.08,1.53-4.38,5-4.25,8.58.13,3.85,2.07,6.63,3,10.22a19.52,19.52,0,0,1-.22,8.89h0c-.09.43-.2.85-.31,1.27"/><circle class="cls-4" cx="31.91" cy="44.55" r="1"/></svg>