<svg id="Layer_1" data-name="Layer 1" xmlns="http://www.w3.org/2000/svg" viewBox="0 0 64 64"><defs><style>.cls-1{fill:#9ac8f1;}.cls-2{fill:#389ad6;}.cls-3,.cls-5{fill:none;stroke-linecap:round;stroke-linejoin:round;stroke-width:2px;}.cls-3{stroke:#295183;}.cls-4{fill:#295183;}.cls-5{stroke:#2a5080;}</style></defs><title>Ecology love</title><path class="cls-1" d="M38,34s1.61.25,0,2a4.6,4.6,0,0,0-.79,4.44c.55,1.71,1.88,2.47,3.26,3.47.89.65,2.49,1.94,1.09,3C40,48,36.36,47.09,32,41.74,32,41.74,28.39,30.5,38,34Z"/><path class="cls-2" d="M32.21,41.39a4.87,4.87,0,0,0,.4.37,4.46,4.46,0,0,1-1.16.75,1.51,1.51,0,0,1-1.34-.07,2,2,0,0,1-.66-.87c-1.21-2.53-2.06-8.15,1.78-8.85A6.45,6.45,0,0,1,34,33a5.16,5.16,0,0,0-1.81,8.43Z"/><path class="cls-1" d="M17,24.55s1.9,1.34,1.56,4.67,2.49,2.46,3.47,1.33,2.92-2,3.95-1.33-7.17,12.52-7.17,12.52S13.08,30.55,17,24.55Z"/><path class="cls-2" d="M26,29.22s-1.17-1.67-3.42,1.83-4.44,8.5-3.55,11,4-7.83,4-7.83Z"/><path class="cls-3" d="M26.39,29.22A29.9,29.9,0,0,0,22.9,35a78.28,78.28,0,0,0-4.83,14.5s0,0,0,0c-.1.43-.21.86-.31,1.27"/><path class="cls-3" d="M17.76,50.78c.11-.42.22-.84.31-1.27h0a19.52,19.52,0,0,0,.22-8.89.74.74,0,0,0,0-.14,42.2,42.2,0,0,0-1.72-4.83.43.43,0,0,0,0-.05,15.65,15.65,0,0,1-1.2-5.2c-.13-3.6,1.17-7,4.25-8.58a7.57,7.57,0,0,1,2.23-.7c10.18-1.66,15-7.89,15-7.89,4.93,9.49,5.17,16.12,3.36,20.72h0"/><path class="cls-3" d="M32.67,41.83c-.64.34-1.27.64-1.88.89s-1.4.53-2,.73c-.14,0-2,.36-2.33.43"/><path class="cls-3" d="M26.39,43.89h0l1.79-.27"/><circle class="cls-4" cx="23.43" cy="44.55" r="1"/><path class="cls-5" d="M40.1,34l-.18.16-.21.22-.22-.22L39.41,34a5.09,5.09,0,0,0-3.55-1.42,3.39,3.39,0,0,0-.45,0,5.14,5.14,0,0,0-1.28.28,5,5,0,0,0-1.91,1.2,2.7,2.7,0,0,0-.28.31,5.16,5.16,0,0,0,.28,7l.45.45"/><path class="cls-5" d="M48.11,35.35a5.16,5.16,0,0,1-.91,6l-2.28,2.28-2.71,2.71-.13.12a.23.23,0,0,1-.07.07,1.92,1.92,0,0,1-.21.16l-.21.15h0a3.55,3.55,0,0,1-4.14-.29l-.23-.21-2.32-2.32,0,0-.69-.69-1.51-1.51"/><path class="cls-5" d="M40.1,33.95h0l.17-.15a5.14,5.14,0,0,1,4-1.12"/></svg>