<svg id="Layer_1" data-name="Layer 1" xmlns="http://www.w3.org/2000/svg" viewBox="0 0 64 64"><defs><style>.cls-1{fill:#9ac8f1;}.cls-2{fill:#389ad6;}.cls-3,.cls-4{fill:none;stroke-linecap:round;stroke-linejoin:round;stroke-width:2px;}.cls-3{stroke:#295183;}.cls-4{stroke:#2a5080;}</style></defs><title>Ecology care</title><path class="cls-1" d="M38.73,22.76a2.61,2.61,0,0,1,.82,2.44c-.18,1.74,1.3,1.28,1.81.7s1.53-1.06,2.06-.7-3.75,6.55-3.75,6.55S36.65,25.9,38.73,22.76Z"/><path class="cls-2" d="M38.1,22.93a.51.51,0,0,0-.52-.72c-1.06.13-2.61.89-2.36,4.24.37,5,4.45,5.3,4.45,5.3S36.47,26.36,38.1,22.93Z"/><path class="cls-2" d="M43.42,25.2s-.61-.87-1.79,1-2.32,4.45-1.86,5.75,2.09-4.1,2.09-4.1Z"/><path class="cls-3" d="M45.73,35.41,45.59,35c0-.14-.08-.27-.13-.41l0,0a13.14,13.14,0,0,0-.81-1.79"/><path class="cls-3" d="M39.54,32.6c-2.92-.64-9.81-3.36-5-14.28a8.83,8.83,0,0,0,1.82,1.47"/><path class="cls-3" d="M44.86,32.65c.16.63.39,1.26.59,1.86l0,0,.13.41.14.45"/><path class="cls-3" d="M43.61,25.2a15.64,15.64,0,0,0-1.83,3,41,41,0,0,0-2.53,7.59s0,0,0,0c-.05.22-.11.45-.16.66"/><path class="cls-3" d="M44.58,32.73l-1,.14,1.25-.23c3.27-1,10-4.57,4.17-15.82A12.79,12.79,0,0,1,41.21,21a4,4,0,0,0-1.17.37,4.58,4.58,0,0,0-2.22,4.49c.07,2,1.08,3.47,1.55,5.35a10.21,10.21,0,0,1-.12,4.65h0c0,.22-.1.44-.16.66"/><path class="cls-1" d="M39.14,42.64c.72.17,0,1.09-.22,1.35a11.18,11.18,0,0,1-3.67,2.24,14.91,14.91,0,0,1-5,.92,20.48,20.48,0,0,1-10.71-2.37,6.35,6.35,0,0,0-2.45-1,5.3,5.3,0,0,0-2.77.81,1.32,1.32,0,0,1-.67.2.9.9,0,0,1-.7-1.06,2.39,2.39,0,0,1,.73-1.2,18.7,18.7,0,0,1,1.84-1.7,4,4,0,0,1,2.59-1.14,4.68,4.68,0,0,1,2.38,1.11c2.88,2.06,6.18,3.95,9.72,3.75a24.44,24.44,0,0,0,4.94-.85c.81-.22,1.61-.46,2.41-.72A3.71,3.71,0,0,1,39.14,42.64Z"/><path class="cls-4" d="M42.26,39.64a2,2,0,0,1,2.87,0h0a2,2,0,0,1,0,2.87"/><path class="cls-4" d="M12.67,41.43l.17-.17,6.56-6.55a4.53,4.53,0,0,1,1.35-.95,4.36,4.36,0,0,1,1.7-.43,1.62,1.62,0,0,1,.31,0H33a1.93,1.93,0,0,1,1.82,2,2.07,2.07,0,0,1-.54,1.43,1.7,1.7,0,0,1-1.28.6H24.11"/><path class="cls-4" d="M42.29,39.61a10.81,10.81,0,0,1-3,2.72,10.48,10.48,0,0,1-5.55,1.58h-.3A10.54,10.54,0,0,1,24,37.37"/></svg>