<svg id="Layer_1" data-name="Layer 1" xmlns="http://www.w3.org/2000/svg" viewBox="0 0 64 64"><defs><style>.cls-1{fill:#9ac8f1;}.cls-2{fill:#389ad6;}.cls-3{fill:none;stroke:#295183;stroke-linecap:round;stroke-linejoin:round;stroke-width:2px;}</style></defs><title>Ecology</title><path class="cls-1" d="M33.58,19.19s.74-1.59-1.39-2.17-2.25-.82-2.12-1.51-.11-1.68-1.12-1-5.79,2.73-2.73,5.37l7.15-.67Z"/><path class="cls-2" d="M33.71,18.7s-.12-1.59-4-.94-4.67.58-4,1.6S33.71,18.7,33.71,18.7Z"/><path class="cls-3" d="M35.18,20c-2.52-.72-4.64-.37-7.26,0-.38.05-1,.08-1.2.46a.88.88,0,0,0,0,.57,6.68,6.68,0,0,0,1.89,3.31,5,5,0,0,0,5,1.53,10.41,10.41,0,0,0,2.29-1.4,12.28,12.28,0,0,1,7.26-2.11c-1.2-3.07-2.62-6.31-5.4-8.1C31,9.88,21.8,16.59,20.61,23.65a9.07,9.07,0,0,0-.13,1.45"/><path class="cls-1" d="M19.2,39.19s-1.75.16-1.18,2.29.42,2.35-.25,2.6-1.4.93-.33,1.48,5.26,3.65,6-.32L19.3,39.37Z"/><path class="cls-2" d="M18.71,39.33s-1.32.9,1.17,3.9S22.72,47,23.27,45.9,18.71,39.33,18.71,39.33Z"/><path class="cls-3" d="M19.07,37.43c.63,2.55,2,4.2,3.63,6.29.24.3.57.82,1,.81a.88.88,0,0,0,.52-.25A6.68,6.68,0,0,0,26.14,41,5,5,0,0,0,25,35.88a10.41,10.41,0,0,0-2.36-1.28,12.28,12.28,0,0,1-5.46-5.23c-2.06,2.58-4.16,5.43-4.32,8.72-.39,8,10,12.61,16.72,10.12a9.07,9.07,0,0,0,1.32-.61"/><path class="cls-1" d="M40.79,43.83s-1.75.08-1.48-2.11.09-2.39-.59-2.54-1.51-.73-.52-1.42,4.72-4.33,6-.49l-3.33,6.36Z"/><path class="cls-2" d="M40.23,43.28s1.44.69,2.8-3S44.86,36,43.65,36,40.23,43.28,40.23,43.28Z"/><path class="cls-3" d="M41,43.38c1.89-1.82,2.64-3.83,3.63-6.29.14-.35.43-.9.2-1.27a.88.88,0,0,0-.48-.32,6.68,6.68,0,0,0-3.81,0A5,5,0,0,0,36.69,39a10.41,10.41,0,0,0,.07,2.69A12.28,12.28,0,0,1,35,49.08c3.26.49,6.78.89,9.71-.62,7.15-3.68,5.92-15,.41-19.54a9.07,9.07,0,0,0-1.19-.84"/></svg>