<svg xmlns="http://www.w3.org/2000/svg" viewBox="0 0 64 64"><defs><style>.cls-1{fill:#a8d2f0;}.cls-2{fill:#389ad6;}.cls-3{fill:none;stroke:#295183;stroke-linecap:round;stroke-linejoin:round;stroke-width:2px;}.cls-4{fill:#295183;}</style></defs><title>electric, electricity, car, vehicle, transportation</title><g id="Layer_4" data-name="Layer 4"><path class="cls-1" d="M46.71,37.87A4,4,0,0,1,44,39.38a65.9,65.9,0,0,1-12.49,1,57.24,57.24,0,0,1-9.1-.32A6.16,6.16,0,0,1,19.31,39a3.29,3.29,0,0,1-1.21-2.6,3,3,0,0,1,1.43-2.47,5.5,5.5,0,0,1,3.58-.41c1,.15,2,.6,3,.75a.72.72,0,0,0,.47,0c.73-.43-.72-2.26-1-2.56a5.29,5.29,0,0,0-2.68-1.45,2.51,2.51,0,0,1-1.34-.45,1.7,1.7,0,0,1-.32-1.48,7.76,7.76,0,0,1,1-2.53,17.42,17.42,0,0,1,6-6.19c1.49-.91,3.28-1.6,4.95-1.08a1.19,1.19,0,0,1,.44.22l.07.08a1,1,0,0,1,.17.51,11.42,11.42,0,0,1,0,2.49.7.7,0,0,0-.44-.51s-5.34,1-1.49,8.81A1.55,1.55,0,0,0,33.67,29a5,5,0,0,0,1.7,2.78,7.07,7.07,0,0,0,4,1.21,21.86,21.86,0,0,1,4.26.35,4.33,4.33,0,0,1,3.19,2.6A2.51,2.51,0,0,1,46.71,37.87Z"/><path class="cls-2" d="M22.9,42.84s2.34-.78,3.87.48,2.41-.48,2.9-.48S26.27,51.76,22.9,42.84Z"/><path class="cls-2" d="M39.76,42.84s2.34-.78,3.87.48,2.41-.48,2.9-.48S43.13,51.76,39.76,42.84Z"/><path class="cls-2" d="M18.1,36.38s2.39-3.56,7.09.27c2.38,1.94,5.76,2.05,8.68,1.69a25.7,25.7,0,0,0,3.62-.72,5.09,5.09,0,0,1,3.19.25c1.06.55.49,1.51-.41,1.88-2.06.84-4.82.63-7,.66-3.41,0-6.83-.05-10.24-.25C23,40.17,18.35,39.42,18.1,36.38Z"/><path class="cls-3" d="M22.26,30.08a5.11,5.11,0,0,0,.36,10.21H47.21a5.13,5.13,0,0,0,5.11-5.11,5.13,5.13,0,0,0-5.11-5.11h-2a2.08,2.08,0,0,0,0-.22A11.47,11.47,0,0,0,22.9,26"/><path class="cls-3" d="M47.21,42.84a3.78,3.78,0,1,1-7.55,0"/><path class="cls-3" d="M30.16,42.84a3.78,3.78,0,1,1-7.55,0"/><path class="cls-3" d="M27.33,24.09c3.31-3.31,6.55-3.17,6.55-3.17l0,9.18h8.41l-20,0s4.92.39,4.92,5.13"/><path class="cls-3" d="M42.26,30.1a9.25,9.25,0,0,0-3.64-7.2"/><path class="cls-3" d="M15,24.65V36.14a1.8,1.8,0,0,0,1.8,1.8h1.56"/><path class="cls-3" d="M11.68,24.65V20.93h6.65v2.21a1.51,1.51,0,0,1-1.51,1.51H15.18"/><polyline class="cls-3" points="33.83 37.45 33.83 32.97 36.49 32.97"/><circle class="cls-4" cx="25.98" cy="26.5" r="0.79"/><line class="cls-3" x1="13.43" y1="20.93" x2="13.43" y2="17.2"/><line class="cls-3" x1="16.38" y1="20.93" x2="16.38" y2="17.2"/></g></svg>