<svg id="Layer_1" data-name="Layer 1" xmlns="http://www.w3.org/2000/svg" viewBox="0 0 64 64"><defs><style>.cls-1{fill:#9ac8f1;}.cls-2{fill:#389ad6;}.cls-3{fill:none;stroke:#2a5081;stroke-linecap:round;stroke-linejoin:round;stroke-width:2px;}.cls-4{fill:#2a5081;}</style></defs><title>Electricity plug</title><path class="cls-1" d="M30.78,18.07a1.92,1.92,0,0,1,1.12.81,2.91,2.91,0,0,1-.1,2.41,34.13,34.13,0,0,0-1.41,4.53,8.63,8.63,0,0,0,.21,4.68A21.39,21.39,0,0,1,32,33.75c.22,1.16-.34,2.62-1.51,2.77a3,3,0,0,1-2.18-1l-2.86-2.39a3.73,3.73,0,0,1-1-1.1,3.72,3.72,0,0,1-.3-1.37c-.3-3.36-.6-6.73-.83-10.1-.19-2.85,4.29-2.89,6.33-2.71A5.48,5.48,0,0,1,30.78,18.07Z"/><path class="cls-2" d="M23.77,19.2a28.9,28.9,0,0,1,3.37-.7c.69,3.11-.38,6.31-.44,9.49A5.52,5.52,0,0,0,27,30.27c.35.84,1.06,1.72.69,2.55a1.53,1.53,0,0,1-2.3.28,4,4,0,0,1-1.12-2.37A39.76,39.76,0,0,1,23.66,23c0-.74-.37-3.15.07-3.72Z"/><path class="cls-3" d="M31.75,52.5A9.34,9.34,0,0,0,33,47.41c-.13-2-.88-3.85-.89-5.84v0a4.34,4.34,0,0,1,1.27-3.1l5.39-5.39a6.67,6.67,0,0,0,2-4.71V20.28a2.06,2.06,0,0,0-2.06-2.06H25.78a2.06,2.06,0,0,0-2.06,2.06v8.07a6.67,6.67,0,0,0,2,4.71l2.3,2.3"/><line class="cls-3" x1="28.31" y1="15.22" x2="28.31" y2="11.5"/><line class="cls-3" x1="36.14" y1="18.22" x2="36.14" y2="11.5"/><circle class="cls-4" cx="29.85" cy="36.92" r="1"/></svg>