<svg id="Layer_1" data-name="Layer 1" xmlns="http://www.w3.org/2000/svg" viewBox="0 0 64 64"><defs><style>.cls-1{fill:#9ac8f1;}.cls-2{fill:#295183;}.cls-3{fill:#389ad6;}.cls-4,.cls-5{fill:none;stroke-linecap:round;stroke-linejoin:round;stroke-width:2px;}.cls-4{stroke:#2a5081;}.cls-5{stroke:#295183;}</style></defs><title>Electricity house</title><path class="cls-1" d="M42,33.6c-1.84,4.71-10.86,1.88-10.86,1.88a5.65,5.65,0,0,0-.62.31,9.76,9.76,0,0,1-3.46-2.54c0-.28,5.27-11.67.33.73h0a8.29,8.29,0,0,0,1.3,3.19c-2,2.1-3.27,6.2,6.62,12.4h0q1.05.66,2.28,1.35H20l-.19-.1s0,0,0,0c-.62-.36-2.51-1.88-3.17-6.77a34.86,34.86,0,0,1,0-8c.16-1.66.43-3.51.81-5.57.07-.37.14-.75.22-1.13H18.7l20.45,0S43.86,28.89,42,33.6Z"/><path class="cls-1" d="M31.69,14c-2.18,2.16-4.23,7.05-1.94,9.78,1.15,1.36,3.79,1.86,4.57,3.52.12.26.4.7-.12.7l-15.58.75s-3-3.65,7-11.16S31.71,14,31.69,14Z"/><circle class="cls-2" cx="46.61" cy="31.98" r="1"/><path class="cls-3" d="M25.33,39.28s-1.61-2.58-2.24-1.54-2.38,2.14.38,6.13a14.19,14.19,0,0,0,4.26,4.2,7.15,7.15,0,0,0,2.68,1.06A10,10,0,0,0,32.26,49a4.06,4.06,0,0,1,1.82.31,3.46,3.46,0,0,1,.94.63c.15.14.67,1,.78,1s1.63.25,1.53,0c0,0-1.29-3.74-9.81-4.82C27.52,46.11,21.93,41.39,25.33,39.28Z"/><path class="cls-1" d="M27.15,38.41a1.1,1.1,0,0,1,.79,0,1.67,1.67,0,0,1,.78,1.15,19.64,19.64,0,0,0,.89,2.58,5,5,0,0,0,1.69,2.1,12.31,12.31,0,0,1,1.74,1,1.3,1.3,0,0,1,.24,1.8,1.75,1.75,0,0,1-1.35.29l-2.14-.14a1.61,1.61,0,0,1-1.45-.7c-1.29-1.46-2.57-2.92-3.83-4.4-1.06-1.26,1-2.8,2-3.41A3.15,3.15,0,0,1,27.15,38.41Z"/><path class="cls-3" d="M24.28,41.32a16.63,16.63,0,0,1,1.33-1.47c1.38,1.2,2,3.06,3,4.55a3.18,3.18,0,0,0,.93.94c.45.27,1.08.43,1.18.95s-.46.95-1,.91a2.29,2.29,0,0,1-1.33-.72,22.88,22.88,0,0,1-2.94-3.38c-.25-.34-1.24-1.34-1.24-1.75Z"/><path class="cls-4" d="M31.74,47.39l-1.85-.28a3.86,3.86,0,0,1-2.51-1.52l-2.75-3.75a1.17,1.17,0,0,1,.26-1.65l2.29-1.69,1.39-1,2.29-1.68a1.19,1.19,0,0,1,1.66.25l2.74,3.74a3.79,3.79,0,0,1,.7,2.86L35.3,47a2.43,2.43,0,0,0,.16,1.31"/><line class="cls-4" x1="24.4" y1="37.07" x2="23.76" y2="36.21"/><line class="cls-4" x1="29.69" y1="36.65" x2="27.4" y2="33.54"/><path class="cls-5" d="M30.88,50.93H20.71a4.1,4.1,0,0,1-4.1-4.1V32.95a4.1,4.1,0,0,1,4.1-4.1H43a2.69,2.69,0,0,0,1.9-4.59l-8.43-8.43-1.56-1.56a4.24,4.24,0,0,0-6,0L18.86,24.35"/><path class="cls-5" d="M35.45,48.27v0c.93,1.44,2.34,2.65,3.89,2.65h3.17a4.11,4.11,0,0,0,4.1-4.1V34.6"/></svg>