<svg xmlns="http://www.w3.org/2000/svg" viewBox="0 0 64 64"><defs><style>.cls-1{fill:#a8d2f0;}.cls-2{fill:#389ad6;}.cls-3,.cls-5{fill:none;stroke-linecap:round;stroke-linejoin:round;stroke-width:2px;}.cls-3{stroke:#295181;}.cls-4{fill:#295183;}.cls-5{stroke:#295183;}</style></defs><title>electricity, plug, socket, smart home</title><g id="Layer_4" data-name="Layer 4"><path class="cls-1" d="M29.81,17.73S23.26,24.23,29.24,29c-.32.16-5.21,10.42,4,13l-2.54,2s-9.15-1.12-9.32-9.23S22.47,18.79,29.81,17.73Z"/><path class="cls-2" d="M26.89,30.75S21.53,36,23.62,42s11.61,4.12,14.81-2.94c-.63.19-1.74,3.22-7.18,3.49S23.31,36.26,26.89,30.75Z"/><path class="cls-3" d="M38,19.18a10.42,10.42,0,0,1,4.66,8.67v8.31A10.44,10.44,0,0,1,32.22,46.56h0A10.44,10.44,0,0,1,21.82,36.16V27.84A10.44,10.44,0,0,1,32.22,17.44h0"/><circle class="cls-4" cx="32.25" cy="23.56" r="1"/><line class="cls-5" x1="34.64" y1="32.73" x2="34.64" y2="34.71"/><line class="cls-5" x1="29.81" y1="32.73" x2="29.81" y2="34.71"/><path class="cls-5" d="M30.71,39.06a1.47,1.47,0,1,1,2.93,0"/><path class="cls-3" d="M35.26,29a7.15,7.15,0,1,0,3,2.6"/></g></svg>