<svg xmlns="http://www.w3.org/2000/svg" viewBox="0 0 64 64"><defs><style>.cls-1{fill:#9ac8f1;}.cls-2{fill:#389ad6;}.cls-3{fill:none;stroke:#2a5081;stroke-linecap:round;stroke-linejoin:round;stroke-width:2px;}.cls-4{fill:#2a5081;}</style></defs><title>electricity, power, energy, light</title><g id="Layer_4" data-name="Layer 4"><path class="cls-1" d="M29.25,13.93S34.89,15.8,32,21.07s-9.1,4.81-6,13.43.32,15-.84,14.24S13.63,41,13.93,34.88,13.13,18.48,29.25,13.93Z"/><path class="cls-2" d="M33.29,18.47S21.92,28,22.5,32s6.14,2.45,3.83,8.31-3.61,7.78-2.3,8.53,5.51,2.94,8.66-5.86-.46.28-.66-.05-2.45.66-2.45.66,2.59-9.24.45-10.08c-5.45-2.14-5.91-3.54-2-6.17C37.07,21.25,33.29,18.47,33.29,18.47Z"/><path class="cls-3" d="M43.82,18.32c3.58,3.58,6.26,8.21,6.26,13.68A18.07,18.07,0,1,1,32,13.93,23.38,23.38,0,0,1,38.15,15"/><circle class="cls-4" cx="40.67" cy="16.64" r="1"/><path class="cls-3" d="M30.06,37.19l-2,9.16,10.21-12.8a1.86,1.86,0,0,0-1.06-3h0L31.73,29.4,34,18.8,25.56,29.43a1.86,1.86,0,0,0,1.07,3l4.26.91"/></g></svg>