<svg xmlns="http://www.w3.org/2000/svg" viewBox="0 0 64 64"><defs><style>.cls-1{fill:none;stroke:#295183;stroke-linecap:round;stroke-linejoin:round;stroke-width:2px;}.cls-2{fill:#a8d2f0;}.cls-3{fill:#389ad6;}.cls-4{fill:#295183;}</style></defs><title>energy, efficient, lightbulb, light</title><g id="Layer_4" data-name="Layer 4"><line class="cls-1" x1="31.87" y1="10.25" x2="31.87" y2="14.28"/><line class="cls-1" x1="41.06" y1="12.52" x2="39.17" y2="16.09"/><line class="cls-1" x1="22.94" y1="12.41" x2="24.78" y2="16"/><path class="cls-2" d="M26.41,21.68,32,24.92s1.71-.36.38,2S30,30.38,31.36,31s1.76,3.6,0,4.23S26.57,38.05,29,42.51,27.74,46,27.62,45.91s-3-10.32-1.77-12.32A1.61,1.61,0,0,0,25,31a3.45,3.45,0,0,1,2-4.4S22.56,23.78,26.41,21.68Z"/><path class="cls-2" d="M32.59,46.21l-3.7.15a1.7,1.7,0,0,1-1.76-1.62h0A1.7,1.7,0,0,1,28.74,43l3.7-.15a1.7,1.7,0,0,1,1.76,1.62h0A1.7,1.7,0,0,1,32.59,46.21Z"/><path class="cls-2" d="M32.48,49.73l-2.24.12c-.56,0-1-.7-1.08-1.63h0c0-.93.4-1.71,1-1.74l2.24-.12c.56,0,1,.7,1.08,1.63h0C33.47,48.91,33,49.7,32.48,49.73Z"/><path class="cls-3" d="M31.71,48.94a.3.3,0,0,1,0,.08.38.38,0,0,1,0,.06l0,0a1.44,1.44,0,0,1-1.15.69A1.45,1.45,0,0,1,29,48.34L29,48a1.55,1.55,0,0,1,1-1.53l-.08-.39a1.35,1.35,0,0,1-.68.2,1.53,1.53,0,0,1-1.6-1.46v-.32a1.53,1.53,0,0,1,1.46-1.59h.06a1.54,1.54,0,0,1,1.54,1.46v.32a1.56,1.56,0,0,1,0,.35h0a2.1,2.1,0,0,0,.57,1.62l0,0a2.19,2.19,0,0,0,.25.24h0A1.51,1.51,0,0,1,31.71,48.94Z"/><path class="cls-1" d="M28.81,46.41h5.42a1.7,1.7,0,0,1,1.69,1.69h0a1.7,1.7,0,0,1-1.69,1.69H28.81"/><circle class="cls-4" cx="31.36" cy="52.9" r="0.85"/><path class="cls-1" d="M31.36,43H28.81a1.7,1.7,0,0,0-1.69,1.69,1.7,1.7,0,0,0,1.69,1.69h5.43"/><line class="cls-1" x1="40.22" y1="21.4" x2="24.01" y2="27.17"/><line class="cls-1" x1="32.13" y1="24.28" x2="24.35" y2="20.59"/><line class="cls-1" x1="36.32" y1="26.27" x2="36.31" y2="26.27"/><line class="cls-1" x1="40.22" y1="24.89" x2="24.01" y2="30.66"/><line class="cls-1" x1="40.22" y1="28.47" x2="24.01" y2="34.25"/><line class="cls-1" x1="40.22" y1="32.06" x2="25.81" y2="37.19"/><path class="cls-1" d="M30.33,43h3.51a4.52,4.52,0,0,0,4.52-4.52h0L36,37.31"/><path class="cls-1" d="M25.8,37.19v1.32a4.5,4.5,0,0,0,.61,2.27"/></g></svg>