<svg xmlns="http://www.w3.org/2000/svg" viewBox="0 0 64 64"><defs><style>.cls-1{fill:#3897d3;}.cls-2{fill:#9ac8f1;}.cls-3{fill:none;stroke:#295183;stroke-linecap:round;stroke-linejoin:round;stroke-width:2px;}</style></defs><title>eye, visible, visibility, smart home</title><g id="Layer_4" data-name="Layer 4"><path class="cls-1" d="M28.94,24.35s4.81-.36,2.19,4.89c0,0-3.75,2.5-3.75,3.63S26.06,37.38,30,39.15s-13.41-1.29-12.47-6.29S28.94,24.35,28.94,24.35Z"/><path class="cls-2" d="M33.56,35.63a2.41,2.41,0,0,1-2.68.53c-1-.46-2.48-3.28-.83-3.79a1.33,1.33,0,0,1,1.17.27,2.77,2.77,0,0,1,.74,1,1.42,1.42,0,0,0,.56.73,2.05,2.05,0,0,0,.8.08c.27,0,.58.14.62.41a.62.62,0,0,1-.1.38A2,2,0,0,1,33.56,35.63Z"/><path class="cls-3" d="M27.85,34a4.36,4.36,0,0,1,0-1.87,4.29,4.29,0,0,1,3.52-3.32c3-.46,5.05,2.3,4.88,5-.26,4.09-4.86,5.57-8.34,5.48S21,37.17,18.5,34.67a3.46,3.46,0,0,1,0-4.86A19,19,0,0,1,32,24.35a19,19,0,0,1,13.49,5.44,3.48,3.48,0,0,1,0,4.88,18.18,18.18,0,0,1-5.77,3.9"/><path class="cls-3" d="M30.45,33.86a2,2,0,0,1,2-2"/></g></svg>