<svg id="Layer_1" data-name="Layer 1" xmlns="http://www.w3.org/2000/svg" viewBox="0 0 64 64"><defs><style>.cls-1{fill:#9ac8f1;}.cls-2{fill:#389ad6;}.cls-3{fill:none;stroke:#295183;stroke-linecap:round;stroke-linejoin:round;stroke-width:2px;}.cls-4{fill:#295183;}</style></defs><title>Factory</title><path class="cls-1" d="M47.69,28.43V47.61a4.39,4.39,0,1,1-8.78,0V27.71a3.32,3.32,0,0,1,4.54-1.51Z"/><path class="cls-1" d="M33.11,27.74V47.61A4.4,4.4,0,0,1,28.73,52h0a4.4,4.4,0,0,1-4.37-4.39V30.23a3.32,3.32,0,0,1,1,1.77V29.14a3.31,3.31,0,0,1,3.21-3.31,3.24,3.24,0,0,1,1.64.38Z"/><rect class="cls-2" x="23.08" y="30.42" width="2.95" height="18.17" rx="1.47" ry="1.47"/><rect class="cls-2" x="35.97" y="29.83" width="2.95" height="13.42" rx="1.47" ry="1.47"/><path class="cls-1" d="M18.71,27.14V48.8a3.53,3.53,0,0,1-6.63,1.7V29.14a3.3,3.3,0,0,1,4.85-2.93Z"/><path class="cls-1" d="M16,19.4s2,1.24,1.55,6.42C17.58,25.82,12.81,26.38,16,19.4Z"/><path class="cls-1" d="M28.9,19.14s2,1.24,1.55,6.42C30.45,25.56,25.68,26.12,28.9,19.14Z"/><path class="cls-1" d="M46.21,20.77a2.91,2.91,0,0,1-5.49,1.37,4,4,0,0,1-2.13.61,4,4,0,0,1-3.22-1.63A7.11,7.11,0,0,0,32.28,19c-.46.81-1.46.15-2.25.65s-1.54,2.18-2.64,2.18A5.64,5.64,0,1,1,32,12.92h0l0,0c.06.12.28.55.6,1.06.75,1.18,2.06,2.76,3.28,1.79A4,4,0,0,1,42.51,18a3,3,0,0,1,.79-.11A2.91,2.91,0,0,1,46.21,20.77Z"/><path class="cls-1" d="M32.59,14c-.32-.51-.54-.94-.6-1.06A5.27,5.27,0,0,1,32.59,14Z"/><path class="cls-3" d="M38.59,54.61h10a3.31,3.31,0,0,0,3.31-3.31V32.66a3.33,3.33,0,0,0-1.77-2.94l-2.46-1.29L43.45,26.2a3.31,3.31,0,0,0-4.86,2.94V40.61"/><path class="cls-3" d="M25.34,47V29.14a3.31,3.31,0,0,1,3.21-3.31,3.24,3.24,0,0,1,1.64.38l2.92,1.53,3.79,2A3.29,3.29,0,0,1,38.59,32s0,0,0,0"/><path class="cls-3" d="M25.34,32a3.32,3.32,0,0,0-1-1.77,3.18,3.18,0,0,0-.7-.5l-4.93-2.59-1.78-.93a3.3,3.3,0,0,0-4.85,2.93V51.3a3.32,3.32,0,0,0,3.31,3.32h7"/><path class="cls-3" d="M15,25.85h0v-4.5a2.54,2.54,0,0,1,2.54-2.48h.49"/><path class="cls-3" d="M28.55,25.85V21.4a2.56,2.56,0,0,1,0-.39,2.53,2.53,0,0,1,2.51-2.15h.49"/><path class="cls-3" d="M20.8,37.86a2.37,2.37,0,0,1-2.36,2.36h0a2.37,2.37,0,0,1-2.36-2.36V35a2.37,2.37,0,0,1,2.36-2.36h0"/><path class="cls-3" d="M48,37.86a2.37,2.37,0,0,1-2.36,2.36h0a2.37,2.37,0,0,1-2.36-2.36V35a2.37,2.37,0,0,1,2.36-2.36h0"/><path class="cls-3" d="M38.67,54.61H31.05a2.34,2.34,0,0,1-2.35-2.34v-3a3.38,3.38,0,0,1,3.37-3.37h0a3.38,3.38,0,0,1,3.37,3.37v1.37"/><circle class="cls-4" cx="25.34" cy="54.62" r="1"/><path class="cls-3" d="M35.33,18.49a4.81,4.81,0,0,1,.7-3.2,4.47,4.47,0,0,1,1-1.11,4.52,4.52,0,0,1,1.46-.84,4.4,4.4,0,0,1,1.66-.3,4.8,4.8,0,0,1,4.59,3.33A3.76,3.76,0,0,1,46,16.26a3.45,3.45,0,0,1,3,2.62,3.41,3.41,0,0,1-1.07,3.38,1.66,1.66,0,0,1-1.15.41h-8"/><path class="cls-3" d="M24.38,21a6.93,6.93,0,0,1-2.57-4.52,7.13,7.13,0,0,1,1-4.76,7.37,7.37,0,0,1,1.42-1.63,7.14,7.14,0,0,1,10.41,1.26"/><line class="cls-3" x1="38.75" y1="22.67" x2="36.14" y2="22.67"/><circle class="cls-4" cx="33.69" cy="22.67" r="1"/></svg>