<svg xmlns="http://www.w3.org/2000/svg" viewBox="0 0 64 64"><defs><style>.cls-1{fill:#389ad6;}.cls-2{fill:#a8d2f0;}.cls-3{fill:none;stroke:#295183;stroke-linecap:round;stroke-linejoin:round;stroke-width:2px;}</style></defs><title>film, surveillance, camera, cam</title><g id="Layer_4" data-name="Layer 4"><path class="cls-1" d="M29.53,25.62s-4.84.11-2.46,3.31S26,36.28,25.71,36.75s-3.09,2.23-.15,1.84,9.32-3.23,6.94-9.66C32.44,28.5,29.53,25.62,29.53,25.62Z"/><path class="cls-2" d="M20.88,19.27s5.3.78,3.74,5.22c-.59.1-11,4.74-2.59,13.4,0,0,11.27,1.2,7.65,6.28s-15.8-5-15.9-6.55S7.69,24.91,20.88,19.27Z"/><path class="cls-1" d="M51.66,30.5s-3.47,4.19-5,0S45.44,21.57,48,23,51.66,26,51.66,30.5Z"/><path class="cls-3" d="M28.25,31.62a2.69,2.69,0,1,1-2.69-2.69"/><line class="cls-3" x1="25.56" y1="28.93" x2="32.1" y2="28.93"/><line class="cls-3" x1="23.22" y1="32.97" x2="19.95" y2="27.3"/><line class="cls-3" x1="27.89" y1="32.97" x2="24.62" y2="38.64"/><path class="cls-3" d="M25.56,24.43a7.19,7.19,0,1,0,3,.66"/><path class="cls-3" d="M33.8,21.3a13.28,13.28,0,1,0,2,2"/><polyline class="cls-3" points="47.81 42.3 50.22 42.3 50.22 38.84 46.28 38.84 46.28 23.3"/><path class="cls-3" d="M51.66,35.72V27.31a4.42,4.42,0,0,0-1-2.89l-.12-.12a3,3,0,0,0-.37-.34,2.94,2.94,0,0,0-1.84-.66H35.81"/><path class="cls-3" d="M45.61,19.9a5.45,5.45,0,0,0-3.34-1.49H25.56"/></g></svg>