<svg xmlns="http://www.w3.org/2000/svg" viewBox="0 0 64 64"><defs><style>.cls-1{fill:#a8d2f0;}.cls-2{fill:#389ad6;}.cls-3{fill:none;stroke:#295183;stroke-linecap:round;stroke-linejoin:round;stroke-width:2px;}.cls-4{fill:#295183;}</style></defs><title>fire, flame, safety, heat</title><g id="Layer_4" data-name="Layer 4"><path class="cls-1" d="M32,20.59s2-2.28,2-.28-6,13.44-2,19.94a4,4,0,0,0,5.6.75c3.38-2.25,3.75,1.81,2.4,3.88s-6,7.4-12.6,3.89S29.36,23.71,32,20.59Z"/><path class="cls-2" d="M24.31,26.88s1.6-2.27.66,6.37S30.35,45.13,32.86,45s4,4.63-1.36,4.5S18.38,43.38,24.31,26.88Z"/><path class="cls-3" d="M22.78,33.24c-.89,3.39-1.34,7.11,0,10.44A10.18,10.18,0,0,0,31,49.88,10,10,0,0,0,42,41a9.79,9.79,0,0,0-.19-3.3,8.58,8.58,0,0,0-.46-1.49"/><path class="cls-3" d="M35.39,14.09c-.32.53-5.61,10.07-7.88,17.21-.71-2.44-1.73-5.5-1.26-8.05A28.6,28.6,0,0,0,24,28.73"/><path class="cls-3" d="M35.4,14.06v0c-.2.76-3.93,14.5,1.77,19.36.21-.4-1.2-6.34,3.36-10.7a30.81,30.81,0,0,0,.84,13.48c.14.5.28,1,.46,1.49"/><circle class="cls-4" cx="23.31" cy="31" r="1"/></g></svg>