<svg xmlns="http://www.w3.org/2000/svg" viewBox="0 0 64 64"><defs><style>.cls-1{fill:#a8d2f0;}.cls-2{fill:#389ad6;}.cls-3{fill:none;stroke:#295183;stroke-linecap:round;stroke-linejoin:round;stroke-width:2px;}.cls-4{fill:#295183;}</style></defs><title>flash, light, lightbulb, smart home</title><g id="Layer_4" data-name="Layer 4"><path class="cls-1" d="M29.45,16.31h.1a1.88,1.88,0,0,1,1.84,2.81,7.27,7.27,0,0,0-.09,7.24c.92,1.64,2,3.77,4.09,4.06a3.78,3.78,0,0,0,2.39-.6c.46-.27,1.3-1.2,1.82-.51a1,1,0,0,1,.08.77c-.48,2.49-1.71,2.77-4.16,3.43C31.14,34.68,25.29,32.42,23.61,28c-1.38-3.64.65-8.39,3.34-10.59A5.22,5.22,0,0,1,29.45,16.31Z"/><path class="cls-2" d="M25.49,19.69a1,1,0,0,1,.8-.22,1.06,1.06,0,0,1,.75,1,5.45,5.45,0,0,1-.77,2.49A4.84,4.84,0,0,0,25.59,26c.14.6,1.12,1.83.21,2.25a1.44,1.44,0,0,1-1.57-.38,3,3,0,0,1-.71-1.55A7.9,7.9,0,0,1,24,22a6.41,6.41,0,0,1,1.12-1.91A2.37,2.37,0,0,1,25.49,19.69Z"/><line class="cls-1" x1="29.38" y1="33.96" x2="33.09" y2="33.8"/><line class="cls-3" x1="32" y1="9.42" x2="32" y2="12.83"/><line class="cls-3" x1="39.78" y1="11.34" x2="38.18" y2="14.36"/><line class="cls-3" x1="24.44" y1="11.25" x2="25.99" y2="14.28"/><path class="cls-1" d="M35.54,33.49s-2.79,1.21-2.45,7.13a7.69,7.69,0,0,0,.48,6.54c1.93,3.19,2.38,2,.49,3.31S33.59,54,32,53.32s-.78-1.8-.55-3.39-2.94-4.55-2.84-5.08,1.11-8,1.11-8L28.35,32S35.17,32.6,35.54,33.49Z"/><path class="cls-1" d="M29.45,16.31h.1a1.88,1.88,0,0,1,1.84,2.81,7.27,7.27,0,0,0-.09,7.24c.92,1.64,2,3.77,4.09,4.06a3.78,3.78,0,0,0,2.39-.6c.46-.27,1.3-1.2,1.82-.51a1,1,0,0,1,.08.77c-.48,2.49-1.71,2.77-4.16,3.43C31.14,34.68,25.29,32.42,23.61,28c-1.38-3.64.65-8.39,3.34-10.59A5.22,5.22,0,0,1,29.45,16.31Z"/><path class="cls-2" d="M25.49,19.69a1,1,0,0,1,.8-.22,1.06,1.06,0,0,1,.75,1,5.45,5.45,0,0,1-.77,2.49A4.84,4.84,0,0,0,25.59,26c.14.6,1.12,1.83.21,2.25a1.44,1.44,0,0,1-1.57-.38,3,3,0,0,1-.71-1.55A7.9,7.9,0,0,1,24,22a6.41,6.41,0,0,1,1.12-1.91A2.37,2.37,0,0,1,25.49,19.69Z"/><line class="cls-3" x1="32" y1="9.42" x2="32" y2="12.83"/><line class="cls-3" x1="39.78" y1="11.34" x2="38.18" y2="14.36"/><line class="cls-3" x1="24.44" y1="11.25" x2="25.99" y2="14.28"/><path class="cls-2" d="M28.72,31.31s3.28,1.27,2.51,8.25c0,0-2.73,4.83-.08,7.6s1.06,4-.58,3.39-2-1.89-1.19-2.95c0,0-3,.07-2.88-1.76s.88-4.58,1.76-5.19-1.69-8.94-1.69-8.94Z"/><path class="cls-3" d="M27.74,35.15l.71,5.16.08.08h6.93l.08-.08.71-4.64a5.84,5.84,0,0,1,1.86-4,9.18,9.18,0,1,0-15.3-6.84,8.33,8.33,0,0,0,2.06,5.79c1.19,1.24,2.76,1.7,4.22.65a3.63,3.63,0,0,0,1.65-3.45,4.7,4.7,0,0,0-1.28-2.08c-.55-.72-1.12-1.74.11-2.09a4.14,4.14,0,0,1,.54-.12c.67-.11,6.15-.41,4.87,1.38a10.83,10.83,0,0,0-1.37,2,3.6,3.6,0,0,0-.12,2.29"/><path class="cls-3" d="M29.83,50.55h3.74a1.7,1.7,0,0,0,1.69-1.69h0a1.7,1.7,0,0,0-1.69-1.69H26.39l.36-4.35a2.65,2.65,0,0,1,2.64-2.43h5.23a2.65,2.65,0,0,1,2.64,2.43l.36,4.35"/><line class="cls-3" x1="32" y1="42.79" x2="32" y2="43.9"/><circle class="cls-4" cx="32.03" cy="53.42" r="1"/></g></svg>