<svg id="Layer_1" data-name="Layer 1" xmlns="http://www.w3.org/2000/svg" viewBox="0 0 64 64"><defs><style>.cls-1{fill:#fff;}.cls-2{fill:none;stroke:#2a5081;stroke-linecap:round;stroke-linejoin:round;stroke-width:2px;}.cls-3{fill:#f49292;}.cls-4{fill:#a8d2f0;}.cls-5{fill:#2a5081;}</style></defs><title>Folder analytics</title><path class="cls-1" d="M17.23,17.32s.77-2.13,1.26-2.13h5.21l5.19.42,1.16,1.9,2.07,1.28,8.93-.38s7.83-.3,8.6,3.64,0,25.56,0,25.56,1.53,4.13-20.69,3.6l-12-1.13s-2.91.69-2.53-7.87,0-20.16,0-20.16l1.91-3.64Z"/><path class="cls-2" d="M47.71,19.43a4.38,4.38,0,0,1,.61.59,3.91,3.91,0,0,1,1,2.55V46.62a4.36,4.36,0,0,1-4.52,4.15H18.52A4.36,4.36,0,0,1,14,46.62V22.56a4.36,4.36,0,0,1,4.52-4.15h6.13"/><path class="cls-3" d="M44,29.44V46.39a1,1,0,0,1-.35.76l0,0A1,1,0,0,1,42,46.62a.78.78,0,0,1,0-.23V29.44a1,1,0,0,1,.31-.74.9.9,0,0,1,.3-.2,1,1,0,0,1,.4-.09A1,1,0,0,1,44,29.44Z"/><path class="cls-3" d="M42,31.06V46.62a.78.78,0,0,1,0-.23V30.88A.47.47,0,0,1,42,31.06Z"/><path class="cls-4" d="M43.61,28.71v18.7H40.7v-.23H42v-.57a.78.78,0,0,1,0-.23V30.88a.62.62,0,0,0-.6-.46.63.63,0,0,0-.63.63V28.71Z"/><path class="cls-4" d="M36.69,31.13V47.41H33.78v-.2H35v-.49a.59.59,0,0,1,0-.2V33a.61.61,0,0,0-.6-.4.6.6,0,0,0-.63.55v-2Z"/><path class="cls-4" d="M29.7,34.59V47.41H26.79v-.16h1.26v-.39a.38.38,0,0,1,0-.16V36.08a.63.63,0,0,0-.6-.31c-.35,0-.63.19-.63.43V34.59Z"/><path class="cls-4" d="M22.88,39v8.11a.82.82,0,0,1-.82.82h0a.82.82,0,0,1-.82-.82V40.41a.49.49,0,0,0,0-.18.63.63,0,0,0-.6-.46h-.12a.64.64,0,0,0-.51.62V39c0-.45.36-1.16.81-1.16L22,37.68C22.46,37.68,22.88,38.53,22.88,39Z"/><polyline class="cls-2" points="43.97 47.18 43.61 47.18 43.59 47.18 42.32 47.18 41.97 47.18 40.7 47.18 37 47.18 30.05 47.18 23.23 47.18"/><path class="cls-2" d="M40,42.56V30.42a2,2,0,0,1,2-2h0a2,2,0,0,1,2,2V47.18"/><path class="cls-2" d="M33,44.92V33.36a2,2,0,0,1,2-2h0a2,2,0,0,1,2,2V47.18"/><path class="cls-2" d="M26.05,44.92V36.3a2,2,0,0,1,2-2h0a2,2,0,0,1,2,2V47.18"/><path class="cls-2" d="M19.23,45.11V39.25a2,2,0,0,1,2-2h0a2,2,0,0,1,2,2v7.94"/><line class="cls-2" x1="43.97" y1="22.83" x2="19.23" y2="22.83"/><path class="cls-2" d="M16.94,17.68h0a3,3,0,0,1,2.94-2.94h7.82a3,3,0,0,1,2.94,2.94h0"/><polyline class="cls-2" points="30.65 17.68 30.65 18.42 40.47 18.42"/><circle class="cls-5" cx="43.97" cy="18.42" r="1"/></svg>