<svg xmlns="http://www.w3.org/2000/svg" viewBox="0 0 64 64"><defs><style>.cls-1{fill:#9ac8f1;}.cls-2{fill:none;stroke:#295183;stroke-linecap:round;stroke-linejoin:round;stroke-width:2px;}</style></defs><title>freezer, ice, cold, fridge</title><g id="Layer_4" data-name="Layer 4"><path class="cls-1" d="M28.55,27s1.66-2.36,5.91.81,4.64,9.94-4.47,9.22S28.55,27,28.55,27Z"/><line class="cls-2" x1="32" y1="32" x2="32" y2="19.83"/><path class="cls-2" d="M36,22l-2,1.75-.89.77a1.74,1.74,0,0,1-2.27,0l-.89-.77-2-1.75"/><path class="cls-2" d="M34.41,17.72l-1.22,1.06-.08.07a1.74,1.74,0,0,1-2.27,0l-.08-.07-1.22-1.06"/><line class="cls-2" x1="32" y1="32" x2="21.46" y2="25.92"/><path class="cls-2" d="M25.35,23.52l.51,2.63.22,1.15a1.74,1.74,0,0,1-1.14,2l-1.11.38-2.53.88"/><path class="cls-2" d="M20.84,22.77l.3,1.58,0,.11a1.74,1.74,0,0,1-1.14,2l-.1,0L18.4,27"/><line class="cls-2" x1="32" y1="32" x2="21.46" y2="38.08"/><path class="cls-2" d="M21.33,33.52l2.53.88,1.11.38a1.74,1.74,0,0,1,1.14,2l-.22,1.15-.51,2.63"/><path class="cls-2" d="M18.43,37.05l1.52.53.1,0a1.74,1.74,0,0,1,1.14,2l0,.11-.3,1.58"/><line class="cls-2" x1="32" y1="35.33" x2="32" y2="44.17"/><path class="cls-2" d="M28,42l2-1.75.89-.77a1.74,1.74,0,0,1,2.27,0l.89.77,2,1.75"/><path class="cls-2" d="M29.59,46.28l1.22-1.06.08-.07a1.74,1.74,0,0,1,2.27,0l.08.07,1.22,1.06"/><line class="cls-2" x1="35.16" y1="33.83" x2="42.54" y2="38.08"/><path class="cls-2" d="M38.65,40.48l-.51-2.63-.22-1.15a1.74,1.74,0,0,1,1.14-2l1.11-.38,2.53-.88"/><path class="cls-2" d="M43.16,41.23l-.3-1.58,0-.11a1.74,1.74,0,0,1,1.14-2l.1,0L45.6,37"/><line class="cls-2" x1="35.75" y1="29.83" x2="42.54" y2="25.92"/><path class="cls-2" d="M42.67,30.48l-2.53-.88L39,29.22a1.74,1.74,0,0,1-1.14-2l.22-1.15.51-2.63"/><path class="cls-2" d="M45.57,26.95,44,26.42l-.1,0a1.74,1.74,0,0,1-1.14-2l0-.11.3-1.58"/></g></svg>