<svg xmlns="http://www.w3.org/2000/svg" viewBox="0 0 64 64"><defs><style>.cls-1{fill:#9ac8f1;}.cls-2{fill:#3897d3;}.cls-3{fill:none;stroke:#2a5081;stroke-linecap:round;stroke-linejoin:round;stroke-width:2px;}.cls-4{fill:#2a5081;}</style></defs><title>garage, house, home, smart home</title><g id="Layer_4" data-name="Layer 4"><path class="cls-1" d="M32,29.32l-.18,0a1.49,1.49,0,0,0-1.18.31c-.56.44-1.08,1.45-1,3.7,0,0-2.31,2.68-.39,4,0,0-1.07,2.11-.13,2.94C28.62,39.85,26.83,39,26,43h0a19.58,19.58,0,0,0-.3,2.35s-4.44,4.05-4.44-6,.35-9.35-2.46-10S30.52,18.91,30.52,18.91s-4.74,6.38,1.42,10.35Z"/><path class="cls-2" d="M27.25,30.49l3.42-.9c-.56.44-1.08,1.45-1,3.7,0,0-2.31,2.68-.39,4,0,0-1.07,2.11-.13,2.94C28.62,39.85,26.83,39,26,43l-.3-3.58Z"/><path class="cls-3" d="M21.29,29.32H18a.27.27,0,0,1-.16-.47l14-11a.27.27,0,0,1,.33,0l14,11a.27.27,0,0,1-.16.47H42"/><line class="cls-3" x1="21.29" y1="41.84" x2="21.29" y2="29.32"/><polyline class="cls-3" points="42 29.32 42 45.84 37.56 45.84"/><path class="cls-3" d="M37.56,45.84V35.24a5.91,5.91,0,0,0-5.92-5.92h0a5.91,5.91,0,0,0-5.91,5.92v10.6"/><line class="cls-3" x1="25.93" y1="33.72" x2="37.36" y2="33.72"/><line class="cls-3" x1="37.56" y1="37.25" x2="25.73" y2="37.25"/><line class="cls-3" x1="33.56" y1="40.3" x2="25.73" y2="40.3"/><circle class="cls-4" cx="21.29" cy="44.92" r="1"/><path class="cls-1" d="M32,29.32l-.18,0,.09,0Z"/></g></svg>