<svg id="Layer_1" data-name="Layer 1" xmlns="http://www.w3.org/2000/svg" viewBox="0 0 64 64"><defs><style>.cls-1{fill:#fff;}.cls-2{fill:#9dcbf4;}.cls-3{fill:#389ad6;}.cls-4,.cls-7{fill:none;stroke-linecap:round;stroke-linejoin:round;stroke-width:2px;}.cls-4{stroke:#2a5082;}.cls-5{fill:#a8d2f0;}.cls-6{fill:#295183;}.cls-7{stroke:#2a5080;}</style></defs><title>Gift train</title><polygon class="cls-1" points="27.88 22.92 20.43 22.92 18.64 16.44 16.36 14.71 18.43 12.29 22.01 17.71 27.72 18.15 27.88 22.92"/><path class="cls-2" d="M21.08,22.68h-.36v4.76a3.34,3.34,0,0,1-3.38,3.26h0A3.33,3.33,0,0,1,14,27.45V22.68H10.52a.8.8,0,0,1-.8-.8V18.39a.8.8,0,0,1,.8-.8H14.6a25,25,0,0,0,3.57-.27.8.8,0,0,1,.87.48,8.48,8.48,0,0,0,1.67,2.64,8.24,8.24,0,0,0,.85.81A.8.8,0,0,1,21.08,22.68Z"/><path class="cls-3" d="M20.72,22.37a2.44,2.44,0,0,1-.38,1.31,3.4,3.4,0,0,1-3,1.77h0a3.39,3.39,0,0,1-3-1.77A3.1,3.1,0,0,1,14,22.19"/><path class="cls-2" d="M16.25,13.59a1.46,1.46,0,0,1,2.39-.79,8.43,8.43,0,0,0-.2,1.82,8.8,8.8,0,0,0,.15,1.63c-.16,0-.31,0-.41-.05a4.42,4.42,0,0,1-1.06-.39A1.82,1.82,0,0,1,16.25,13.59Z"/><path class="cls-4" d="M10.22,22.69v-5.1h4.39a20.63,20.63,0,0,0,4.21-.42c.52-.16.8-.37.61-.66s-.51-.23-.84-.25a3.22,3.22,0,0,1-.41-.05,4.39,4.39,0,0,1-1.06-.39,1.8,1.8,0,0,1-.87-2.22,1.46,1.46,0,0,1,2.39-.8,1.84,1.84,0,0,1,.18.19c.52.61.7,1.46,1.29,2a5.56,5.56,0,0,0,.51.41,2.63,2.63,0,0,1,1.63-2.64c1-.34,2.62,0,2.43,1.36a2.35,2.35,0,0,1-1.53,1.67,2.62,2.62,0,0,1-2.53-.39,2.26,2.26,0,0,0,.16.77,3.18,3.18,0,0,0,3.07,1.67h3.87v4.88H23.83v9.61h-9.9V22.58h6.4"/><path class="cls-5" d="M21.92,36.62S20.61,40,24.16,41s3.79-.17,3.79-.75a25.74,25.74,0,0,1,1.29-3.67s-.37,4.5,2.54,4S31,42.5,31,42.5L20,43s.21-5.25.25-5.25S20.88,36.21,21.92,36.62Z"/><path class="cls-5" d="M42.2,32.6c-.41-.21-1.12,1.33-1.17,1.54a3.3,3.3,0,0,0,.22,2,5.16,5.16,0,0,0,1.3,2.13,3.33,3.33,0,0,0,2.47.48c.58-.07,2.09-.26,1.41-1.18a6.48,6.48,0,0,1-1.21-3.46Z"/><path class="cls-3" d="M11.13,41.9c.55-.74,1.75-.56,2.61-.5a223.68,223.68,0,0,0,23.48.15,19.71,19.71,0,0,1,6.59.49,6.52,6.52,0,0,1,4.59,4.38,1.36,1.36,0,0,1,0,.89c-.25.53-1,.61-1.55.61L23.6,48c-3.28,0-6.66,0-9.67-1.27a5.67,5.67,0,0,1-2.6-1.93,2.85,2.85,0,0,1-.3-2.76Z"/><circle class="cls-6" cx="10.95" cy="32.07" r="1"/><circle class="cls-6" cx="14.1" cy="47.93" r="1"/><circle class="cls-6" cx="10.95" cy="40.91" r="1"/><path class="cls-7" d="M27.11,25.76h2.2l6.31,6.31h2.76a8.89,8.89,0,0,1,7.66,4.38L50.49,44a2.62,2.62,0,0,1-2.25,3.95H36.63V40H41.3"/><path class="cls-7" d="M17.61,47.93H32.79V38.36a2.46,2.46,0,0,0-2.46-2.46h-.25a2.46,2.46,0,0,0-2.46,2.46V41H24.53V38.36a2.46,2.46,0,0,0-2.46-2.46h0a2.46,2.46,0,0,0-2.46,2.46V41h-5.1"/><line class="cls-7" x1="54.28" y1="51.71" x2="12.95" y2="51.71"/></svg>