<svg id="Layer_1" data-name="Layer 1" xmlns="http://www.w3.org/2000/svg" viewBox="0 0 64 64"><defs><style>.cls-1{fill:#fff;}.cls-2{fill:#9dcbf4;}.cls-3{fill:#389ad6;}.cls-4{fill:none;stroke:#2a5082;stroke-linecap:round;stroke-linejoin:round;stroke-width:2px;}</style></defs><title>Gift</title><polygon class="cls-1" points="50.33 36.08 35.42 36.08 31.84 23.12 27.29 19.67 31.42 14.83 38.58 25.67 50 26.54 50.33 36.08"/><path class="cls-2" d="M36.72,35.61H36v9.53a6.67,6.67,0,0,1-6.76,6.52h0a6.67,6.67,0,0,1-6.76-6.52V35.61H15.6A1.6,1.6,0,0,1,14,34V27a1.6,1.6,0,0,1,1.6-1.6h8.17a50.1,50.1,0,0,0,7.14-.55,1.6,1.6,0,0,1,1.75,1A17,17,0,0,0,36,31.13a16.47,16.47,0,0,0,1.71,1.63A1.6,1.6,0,0,1,36.72,35.61Z"/><path class="cls-3" d="M36,35a4.88,4.88,0,0,1-.76,2.62,6.79,6.79,0,0,1-6,3.54h0a6.78,6.78,0,0,1-6-3.54,6.2,6.2,0,0,1-.76-3"/><path class="cls-2" d="M27.06,17.42c.74-2.17,3.08-3.13,4.78-1.59a16.87,16.87,0,0,0-.4,3.65,17.6,17.6,0,0,0,.31,3.27c-.32,0-.62-.06-.82-.11a8.85,8.85,0,0,1-2.12-.78A3.63,3.63,0,0,1,27.06,17.42Z"/><path class="cls-4" d="M35.22,35.4H22.41V54.91H42.22V35.69H50V25.93H42.26c-2.4,0-5.18-.94-6.14-3.34a5,5,0,0,1-.33-1.54,5.27,5.27,0,0,1,3.26-5.28c1.93-.67,5.24.07,4.87,2.72a4.71,4.71,0,0,1-3.06,3.35,5.28,5.28,0,0,1-5.07-.79,8.82,8.82,0,0,1-1-.82c-1.18-1.11-1.55-2.8-2.58-4a4.25,4.25,0,0,0-.36-.37c-1.7-1.54-4-.58-4.78,1.59a3.63,3.63,0,0,0,1.75,4.44,8.84,8.84,0,0,0,2.12.78c.2.05.5.07.82.11.66.05,1.43.14,1.67.5.38.58-.19,1-1.21,1.32-2.59.79-8.08.85-8.44.85H15V35.61"/></svg>