<svg id="Layer_1" data-name="Layer 1" xmlns="http://www.w3.org/2000/svg" viewBox="0 0 64 64"><defs><style>.cls-1{fill:#295183;}.cls-2{fill:#389ad6;}.cls-3,.cls-7{fill:none;stroke-linecap:round;stroke-linejoin:round;stroke-width:2px;}.cls-3{stroke:#295183;}.cls-4{fill:#a8d2f0;}.cls-5{fill:#fff;}.cls-6{fill:#9dcbf4;}.cls-7{stroke:#2a5082;}</style></defs><title>Gift delivery</title><circle class="cls-1" cx="15.5" cy="50.46" r="1"/><path class="cls-2" d="M28.91,44l-8.5-.36a1.34,1.34,0,0,1-1.13-.74l-1.83-3.72a1.35,1.35,0,0,1-.13-.73l.42-3.88h8.7a12.92,12.92,0,0,0,3.43,7.17A1.31,1.31,0,0,1,28.91,44Z"/><path class="cls-3" d="M45.58,47.07a2.39,2.39,0,1,1-4.77,0"/><path class="cls-3" d="M27.35,47.07a2.39,2.39,0,1,1-4.77,0"/><path class="cls-4" d="M42.29,30.87a29.48,29.48,0,0,0,3.35,10.55,1.78,1.78,0,0,1-1.55,2.67h-3.6a2.85,2.85,0,0,1-2.85-2.87l.06-13h1.52A3.1,3.1,0,0,1,42.29,30.87Z"/><path class="cls-3" d="M34.59,25.48a5.11,5.11,0,0,1,3.11,4.69V40.85"/><path class="cls-3" d="M40.49,28.18l4.65,0a2.55,2.55,0,0,1,2.45,1.91l2.91,11.1a2.87,2.87,0,0,1-2.86,2.86H22.9A5.1,5.1,0,0,1,17.82,39V37.78"/><polyline class="cls-3" points="40.49 31.82 40.49 36.33 45.25 36.33"/><line class="cls-3" x1="38" y1="50.46" x2="18.72" y2="50.46"/><line class="cls-3" x1="51" y1="50.46" x2="42" y2="50.46"/><polygon class="cls-5" points="30.92 24.9 23.46 24.9 21.67 18.42 19.4 16.69 21.46 14.27 25.05 19.69 30.75 20.13 30.92 24.9"/><path class="cls-6" d="M24.11,24.66h-.36v4.76a3.34,3.34,0,0,1-3.38,3.26h0A3.33,3.33,0,0,1,17,29.43V24.66H13.55a.8.8,0,0,1-.8-.8V20.37a.8.8,0,0,1,.8-.8h4.08a25,25,0,0,0,3.57-.27.8.8,0,0,1,.87.48,8.48,8.48,0,0,0,1.67,2.64,8.24,8.24,0,0,0,.85.81A.8.8,0,0,1,24.11,24.66Z"/><path class="cls-2" d="M23.75,24.35a2.44,2.44,0,0,1-.38,1.31,3.4,3.4,0,0,1-3,1.77h0a3.39,3.39,0,0,1-3-1.77A3.1,3.1,0,0,1,17,24.17"/><path class="cls-6" d="M19.28,15.57a1.46,1.46,0,0,1,2.39-.79,8.43,8.43,0,0,0-.2,1.82,8.8,8.8,0,0,0,.15,1.63c-.16,0-.31,0-.41-.05a4.42,4.42,0,0,1-1.06-.39A1.82,1.82,0,0,1,19.28,15.57Z"/><path class="cls-7" d="M13.26,24.66v-5.1h4.39a20.63,20.63,0,0,0,4.21-.42c.52-.16.8-.37.61-.66s-.51-.23-.84-.25a3.22,3.22,0,0,1-.41-.05,4.39,4.39,0,0,1-1.06-.39,1.8,1.8,0,0,1-.87-2.22,1.46,1.46,0,0,1,2.39-.8,1.84,1.84,0,0,1,.18.19c.52.61.7,1.46,1.29,2a5.56,5.56,0,0,0,.51.41,2.63,2.63,0,0,1,1.63-2.64c1-.34,2.62,0,2.43,1.36a2.35,2.35,0,0,1-1.53,1.67,2.62,2.62,0,0,1-2.53-.39,2.26,2.26,0,0,0,.16.77,3.18,3.18,0,0,0,3.07,1.67h3.87V24.7H26.87v9.61H17V24.56h6.4"/></svg>