<svg id="Layer_1" data-name="Layer 1" xmlns="http://www.w3.org/2000/svg" viewBox="0 0 64 64"><defs><style>.cls-1{fill:#9ac8f1;}.cls-2,.cls-3{fill:none;stroke-linecap:round;stroke-linejoin:round;stroke-width:2px;}.cls-2{stroke:#2a5080;}.cls-3{stroke:#295183;}</style></defs><title>Global care</title><path class="cls-1" d="M38.47,45.32c.72.17,0,1.09-.22,1.35a11.18,11.18,0,0,1-3.67,2.24,14.91,14.91,0,0,1-5,.92A20.48,20.48,0,0,1,18.9,47.47a6.35,6.35,0,0,0-2.45-1,5.3,5.3,0,0,0-2.77.81,1.32,1.32,0,0,1-.67.2.9.9,0,0,1-.7-1.06A2.39,2.39,0,0,1,13,45.2a18.7,18.7,0,0,1,1.84-1.7,4,4,0,0,1,2.59-1.14,4.68,4.68,0,0,1,2.38,1.11c2.88,2.06,6.18,3.95,9.72,3.75a24.44,24.44,0,0,0,4.94-.85c.81-.22,1.61-.46,2.41-.72A3.71,3.71,0,0,1,38.47,45.32Z"/><path class="cls-2" d="M41.58,42.32a2,2,0,0,1,2.87,0h0a2,2,0,0,1,0,2.87"/><path class="cls-1" d="M32.48,15.93s3,2.26,2.93,9.88S46.82,36,46.82,36,38.63,37.52,37,34.35s-7-2-7-2S25.6,23.27,32.48,15.93Z"/><path class="cls-2" d="M12,44.11l.17-.17,6.56-6.55a4.53,4.53,0,0,1,1.35-1,4.36,4.36,0,0,1,1.7-.43,1.62,1.62,0,0,1,.31,0H32.29a1.93,1.93,0,0,1,1.82,2,2.07,2.07,0,0,1-.54,1.43,1.7,1.7,0,0,1-1.28.6H23.43"/><path class="cls-2" d="M41.62,42.29a10.81,10.81,0,0,1-3,2.72,10.48,10.48,0,0,1-5.55,1.58h-.3A10.54,10.54,0,0,1,23.34,40"/><path class="cls-3" d="M28.69,25.81A11.66,11.66,0,1,1,40.35,37.47c-1.93,0-3.61-2.62-4.41-6.43"/><path class="cls-3" d="M45.29,25.81A25,25,0,0,1,44.76,31c-.66,3.13-1.91,5.46-3.4,6.19h0a2.23,2.23,0,0,1-1,.24c-1.93,0-3.61-2.62-4.41-6.43a24.2,24.2,0,0,1-.51-4.1q0-.56,0-1.13a25,25,0,0,1,.53-5.23c.8-3.81,2.48-6.43,4.41-6.43s3.61,2.62,4.41,6.43A25,25,0,0,1,45.29,25.81Z"/><path class="cls-3" d="M32,29.77c-2.07-1-3.34-2.42-3.34-4,0-2.36,3-4.39,7.25-5.23a23.36,23.36,0,0,1,8.82,0C49,21.42,52,23.45,52,25.81S49,30.2,44.76,31a22.77,22.77,0,0,1-4.41.42"/><line class="cls-3" x1="40.35" y1="14.15" x2="40.35" y2="37.23"/><line class="cls-3" x1="41.36" y1="37.23" x2="39.79" y2="37.23"/><path class="cls-3" d="M28.69,25.81S28.35,29.46,30,31.9"/></svg>