<svg id="Layer_1" data-name="Layer 1" xmlns="http://www.w3.org/2000/svg" viewBox="0 0 64 64"><defs><style>.cls-1{fill:#389ad6;}.cls-2,.cls-3,.cls-5,.cls-6{fill:none;stroke-linecap:round;stroke-linejoin:round;stroke-width:2px;}.cls-2{stroke:#000;}.cls-3,.cls-5{stroke:#295183;}.cls-3{stroke-dasharray:3 4 6 8 0;}.cls-4{fill:#9ac8f1;}.cls-6{stroke:#2a5081;}.cls-7{fill:#295183;}</style></defs><title>Global recycling</title><path class="cls-1" d="M42.16,37.31c0,.17.06.34.08.51l-.51-.21A1.33,1.33,0,0,0,42.16,37.31Z"/><path class="cls-1" d="M35,36.37c-1.29-1.67,1.72-2.27,2.62-3.17s.27-2,0-2.92a17.17,17.17,0,0,1-.63-2.8A33.83,33.83,0,0,0,35.56,21a19.38,19.38,0,0,0-1.4-3q-.41-.71-.89-1.38a12.76,12.76,0,0,1-.94-1.26,16.28,16.28,0,0,1,5.21,6.43,51.28,51.28,0,0,1,2.93,7.91A5.67,5.67,0,0,1,44,31.16a.76.76,0,0,1,.32.55c0,.24-.22.41-.44.54l-.14.08a3.65,3.65,0,0,0-1.7,2.51c-1.54-1-4.42.67-5.71,1.47C36.37,36.32,35.26,36.74,35,36.37Z"/><path class="cls-2" d="M37.8,16.27A20.68,20.68,0,0,0,29.64,14,17.69,17.69,0,0,1,37.8,16.27Z"/><path class="cls-3" d="M34.15,21.19A28.21,28.21,0,0,0,29,20.72V43.28"/><path class="cls-4" d="M30,50l-.62,0L29,50h-.37A18,18,0,0,1,10.94,32.42c0-.14,0-.28,0-.42s0-.28,0-.42A18,18,0,0,1,21.13,15.75,27.16,27.16,0,0,0,30,50Z"/><path class="cls-5" d="M34.45,16.32a8.33,8.33,0,0,0-1.1-.9,3.67,3.67,0,0,0-.38-.25,8.47,8.47,0,0,0-1.17-.57,5.53,5.53,0,0,0-.58-.24l-.12,0-.26-.09-.25-.07a6.19,6.19,0,0,0-1.17-.2h-.82A18,18,0,0,0,10.94,31.58c0,.14,0,.28,0,.42s0,.28,0,.42A18,18,0,0,0,28.61,50H29l.4,0L30,50a17.69,17.69,0,0,0,2.72-.35"/><path class="cls-5" d="M29,20.72V43.28a26.7,26.7,0,0,1-8.93-1.47c-5.27-1.87-8.87-5.36-9.11-9.38,0-.14,0-.28,0-.42s0-.28,0-.42A8.42,8.42,0,0,1,13.3,26.4a13.7,13.7,0,0,1,2.57-2.16A18,18,0,0,1,18.07,23a21.19,21.19,0,0,1,2-.82,24.76,24.76,0,0,1,4.17-1.08A28.4,28.4,0,0,1,29,20.72Z"/><path class="cls-5" d="M29,20.72V43.28a28.21,28.21,0,0,0,5.18-.47"/><path class="cls-6" d="M29.38,50,29,50h-.37c-3.59-.21-6.72-3.44-8.56-8.23A27.67,27.67,0,0,1,18.34,32a27.67,27.67,0,0,1,1.71-9.81c1.83-4.8,5-8,8.56-8.23"/><polyline class="cls-5" points="28.98 13.95 28.98 20.72 28.98 43.28 28.98 50.05"/><path class="cls-5" d="M29,14h.64a20.67,20.67,0,0,1,8.16,2.29l.53.3a16.42,16.42,0,0,1,5.58,5.18"/><path class="cls-5" d="M29,14h.21a8.33,8.33,0,0,1,1.41.2l.25.07a6.76,6.76,0,0,1,1,.36h0l.11,0a6.71,6.71,0,0,1,1,.53,3.67,3.67,0,0,1,.38.25,8.33,8.33,0,0,1,1.1.9,15.27,15.27,0,0,1,3.48,5.89c.2.56.38,1.14.55,1.72l0,.08s1.24,3.79,1.8,6.59"/><circle class="cls-7" cx="45.65" cy="24.82" r="1"/><path class="cls-5" d="M50.18,29.35l-.6,5.36-5.06-1.5,2.17-1.58s-2.47-5-6.37-1"/><path class="cls-5" d="M36.75,35.69l4.94-2.16,1.23,5.13-2.61-1.21s-3,4.77,2.46,6.15"/><path class="cls-5" d="M49,44.15l-4.34-3.2,3.83-3.63.39,2.79s5.49.25,4-5.14"/></svg>