<svg id="Layer_1" data-name="Layer 1" xmlns="http://www.w3.org/2000/svg" viewBox="0 0 64 64"><defs><style>.cls-1{fill:#fff;}.cls-2{fill:#389ad6;}.cls-3{fill:none;stroke:#295183;stroke-linecap:round;stroke-linejoin:round;stroke-width:2px;}.cls-4{fill:#9ac8f1;}</style></defs><title>Green Truck</title><polygon class="cls-1" points="39.92 30.21 48.39 30.21 52.09 43.01 48.74 45.46 40.91 45.46 39.92 30.21"/><path class="cls-2" d="M28.1,30.87c-.25,3.29.18,8.36,4.46,11.5,1,.76.29,2.08-1.16,2l-10.22-.33a1.67,1.67,0,0,1-1.35-.66l-2.2-3.35a.93.93,0,0,1-.15-.65l.61-6.78a1.44,1.44,0,0,1,1.44-1.05L24.14,28C26.37,27.83,28.23,29.2,28.1,30.87Z"/><path class="cls-3" d="M47.2,47.67a2.21,2.21,0,0,1-4.41,0"/><path class="cls-3" d="M30.35,47.67a2.21,2.21,0,0,1-4.41,0"/><path class="cls-4" d="M44.16,32.69a27.25,27.25,0,0,0,3.09,9.75,1.65,1.65,0,0,1-1.43,2.47H42.49a2.64,2.64,0,0,1-2.64-2.65l.06-12.05h1.41A2.87,2.87,0,0,1,44.16,32.69Z"/><path class="cls-3" d="M30.35,27.34h4.86a4.72,4.72,0,0,1,4.7,4.7v9.87"/><path class="cls-3" d="M42.49,30.21l4.3,0A2.36,2.36,0,0,1,49.05,32l2.69,10.26a2.65,2.65,0,0,1-2.65,2.65H26.16c-4,0-8.82-2.46-8.82-6.42V33.72"/><polyline class="cls-3" points="43.33 33.57 43.33 37.73 46.89 37.73"/><line class="cls-3" x1="45.03" y1="49.87" x2="22.37" y2="49.87"/><line class="cls-3" x1="23.21" y1="47" x2="17.47" y2="47"/><path class="cls-4" d="M17.24,19.56A2.39,2.39,0,0,1,18,21.79c-.16,1.6,1.19,1.18,1.66.64s1.4-1,1.89-.64-3.44,6-3.44,6S15.34,22.43,17.24,19.56Z"/><path class="cls-2" d="M16.66,19.71a.47.47,0,0,0-.48-.66c-1,.12-2.39.81-2.16,3.89.34,4.61,4.08,4.85,4.08,4.85S15.17,22.85,16.66,19.71Z"/><path class="cls-2" d="M21.54,21.79s-.56-.8-1.64.88-2.13,4.07-1.7,5.27,1.92-3.75,1.92-3.75Z"/><path class="cls-3" d="M23.65,31.14l-.13-.41-.12-.37v0a12,12,0,0,0-.74-1.64"/><path class="cls-3" d="M18,28.57c-2.68-.59-9-3.08-4.54-13.08a9.29,9.29,0,0,0,3,2"/><path class="cls-3" d="M22.85,28.61c.15.58.35,1.15.54,1.71v0l.12.37.13.41"/><path class="cls-3" d="M21.49,22.25A14.32,14.32,0,0,0,19.82,25,37.49,37.49,0,0,0,17.51,32s0,0,0,0"/><path class="cls-3" d="M22.59,28.69l-.88.13,1.14-.21c3-.93,9.17-4.18,3.82-14.48a11.71,11.71,0,0,1-7.16,3.78,3.63,3.63,0,0,0-1.07.34,4.19,4.19,0,0,0-2,4.11c.06,1.84,1,3.18,1.42,4.9.55,2.18-.5,4.3-.5,6.47"/></svg>