<svg id="Layer_1" data-name="Layer 1" xmlns="http://www.w3.org/2000/svg" viewBox="0 0 64 64"><defs><style>.cls-1{fill:#9ac8f1;}.cls-2{fill:#389ad6;}.cls-3,.cls-4{fill:none;stroke-linecap:round;stroke-linejoin:round;stroke-width:2px;}.cls-3{stroke:#295183;}.cls-4{stroke:#2a5080;}.cls-5{fill:#295183;}</style></defs><title>Green lightbulb</title><path class="cls-1" d="M29,21.44h.08c1.27-.25,2.15,1.71,1.53,3.28a11.49,11.49,0,0,0-.07,8.44c.77,1.91,1.69,4.4,3.41,4.74a2.49,2.49,0,0,0,2-.7c.39-.32,1.09-1.4,1.52-.59a1.55,1.55,0,0,1,.07.9c-.4,2.9-1.43,3.23-3.47,4-3.67,1.39-8.55-1.24-10-6.43a15.18,15.18,0,0,1,2.79-12.35A3.87,3.87,0,0,1,29,21.44Z"/><path class="cls-2" d="M25.7,25.24a.71.71,0,0,1,.66-.25c.36.1.6.61.63,1.1a7.71,7.71,0,0,1-.64,2.8,7,7,0,0,0-.57,3.44c.12.67.94,2.06.17,2.53a1,1,0,0,1-1.31-.43,4,4,0,0,1-.59-1.74,11.76,11.76,0,0,1,.39-4.9,8.06,8.06,0,0,1,.93-2.14A2.36,2.36,0,0,1,25.7,25.24Z"/><rect class="cls-1" x="28.2" y="45.85" width="5.92" height="2.82" rx="1.41" ry="1.41" transform="translate(-1.94 1.34) rotate(-2.39)"/><path class="cls-1" d="M32.68,51.54l-1.87.1c-.47,0-.88-.59-.9-1.36h0c0-.78.33-1.43.8-1.46l1.87-.1c.47,0,.88.59.9,1.36h0C33.51,50.86,33.15,51.52,32.68,51.54Z"/><path class="cls-2" d="M32,50.88a.25.25,0,0,1,0,.06l0,0v0a1.2,1.2,0,0,1-1,.58,1.22,1.22,0,0,1-1.24-1.21v-.27a1.29,1.29,0,0,1,.86-1.28l-.07-.32a1.13,1.13,0,0,1-.56.17,1.27,1.27,0,0,1-1.33-1.22v-.27a1.28,1.28,0,0,1,1.22-1.33h0a1.29,1.29,0,0,1,1.29,1.22v.27a1.3,1.3,0,0,1,0,.29h0A1.76,1.76,0,0,0,31.64,49v0a1.84,1.84,0,0,0,.2.2h0A1.26,1.26,0,0,1,32,50.88Z"/><path class="cls-3" d="M29.61,48.77h4.53a1.42,1.42,0,0,1,1.41,1.41h0a1.42,1.42,0,0,1-1.41,1.41H29.61"/><line class="cls-3" x1="32.03" y1="8.72" x2="32.03" y2="11.57"/><line class="cls-3" x1="38.51" y1="10.33" x2="37.18" y2="12.84"/><line class="cls-3" x1="25.72" y1="10.25" x2="27.02" y2="12.78"/><path class="cls-4" d="M32,15.68c6.86,4.38,10.95,14.11,6.5,21.53-1.55,2.58-3.82,4.65-5.26,7.29a2.9,2.9,0,0,1-1.45,1.28,5.48,5.48,0,0,1-2.17.17,1.37,1.37,0,0,0-1,.41,1.41,1.41,0,0,0,1,2.41h4.54"/><path class="cls-4" d="M32.34,25.36s1.06,9.35-1.05,15.3a1.68,1.68,0,0,1-2.89.45,36.89,36.89,0,0,1-2.88-3.9c-4.45-7.43-.36-17.15,6.48-21.54h0"/><circle class="cls-5" cx="32.03" cy="54.28" r="1"/></svg>