<svg id="Layer_1" data-name="Layer 1" xmlns="http://www.w3.org/2000/svg" viewBox="0 0 64 64"><defs><style>.cls-1{fill:#9dcbf4;}.cls-2,.cls-3{fill:none;stroke-linecap:round;stroke-linejoin:round;stroke-width:2px;}.cls-2{stroke:#2a5081;}.cls-3{stroke:#2a5080;}</style></defs><title>Green Person</title><path class="cls-1" d="M36.75,13.77s4.85,7.54-1.9,20.77,4,2.86,4,2.86-6,5-5.93,8.37-2.73.19-2.18-1.32.22-19.68.22-19.68S26.24,22.1,36.75,13.77Z"/><path class="cls-1" d="M22.36,36.77s4.24-1.5,4.17,10c0,0-.24,5.5-3.24,5.42Z"/><path class="cls-1" d="M27.1,18.77c-.61,0,.11,3.26.14,3.56a12.87,12.87,0,0,1-.13,2.75c-.25,2.34,0,4.71-.42,7-.34,1.67-1.22,3.6-3.24,3.4-4.4-.43.4-12.76,1-12.56s0-4.17,0-4.17Z"/><line class="cls-2" x1="21.86" y1="26.8" x2="18.06" y2="35.97"/><path class="cls-2" d="M21.85,26.8v7.74a2.09,2.09,0,0,0,2.09,2.09h5.15a2.07,2.07,0,0,0,2.06-1.76,1.76,1.76,0,0,0,0-.33V26.93a3,3,0,0,0-2.95-3H26.85"/><path class="cls-2" d="M26.69,18a3,3,0,0,0,0,6"/><line class="cls-2" x1="30.92" y1="25.71" x2="34.84" y2="35.97"/><line class="cls-2" x1="22.86" y1="51.57" x2="21.86" y2="34.61"/><line class="cls-2" x1="31.19" y1="34.54" x2="30.22" y2="50.97"/><path class="cls-2" d="M26.48,41.64v9.5a.43.43,0,0,0,.43.43h2.86a.43.43,0,0,0,.43-.43"/><path class="cls-3" d="M40.48,11.81c5.8,5.7,7.8,16.06,1.91,22.41-3.3,3.56-8.8,6-9.07,11.46"/><path class="cls-3" d="M40.48,11.81h0a18.78,18.78,0,0,0-9.77,8.72"/><path class="cls-3" d="M36.51,32.42a47.23,47.23,0,0,0,2.31-11.06"/></svg>