<svg id="Layer_1" data-name="Layer 1" xmlns="http://www.w3.org/2000/svg" viewBox="0 0 64 64"><defs><style>.cls-1{fill:#9ac8f1;}.cls-2{fill:#389ad6;}.cls-3{fill:none;stroke:#295183;stroke-linecap:round;stroke-linejoin:round;stroke-width:2px;}.cls-4{fill:#295183;}</style></defs><title>Green House</title><path class="cls-1" d="M42.42,33.62c-1.84,4.71-10.86,1.88-10.86,1.88a5.65,5.65,0,0,0-.62.31,9.76,9.76,0,0,1-3.46-2.54,19,19,0,0,0-1.57,4A9.82,9.82,0,0,1,27.81,34a8.29,8.29,0,0,0,1.3,3.19c-2,2.1-3.27,6.2,6.62,12.4h0Q36.8,50.26,38,51H20.37l-.19-.1s0,0,0,0c-.62-.36-2.51-1.88-3.17-6.77a34.86,34.86,0,0,1,0-8c.16-1.66.43-3.51.81-5.57.07-.37.14-.75.22-1.13h1.06l20.45,0S44.25,28.91,42.42,33.62Z"/><path class="cls-2" d="M25.45,36a6.77,6.77,0,0,1-.61.37,4.58,4.58,0,0,0-1.18,1.2c-2,3.05.86,7.53,4.14,8.14,1.52.28-2.26-4.44-2.26-4.44Z"/><path class="cls-1" d="M35.75,49.6h0c-.4-.12-6-2-8.7-5.38l0,0A8,8,0,0,1,26.23,43L26,42.61l0-.07a7.09,7.09,0,0,1-.11-5.31A9.82,9.82,0,0,1,27.81,34a8.29,8.29,0,0,0,1.3,3.19,8.73,8.73,0,0,0,2.45,2.5c2.38,1.62,3.65,5.88,4.07,8.25A4.44,4.44,0,0,1,35.75,49.6Z"/><path class="cls-1" d="M32.08,14c-2.18,2.16-4.23,7.05-1.94,9.78,1.15,1.36,3.79,1.86,4.57,3.52.12.26.4.7-.12.7L19,28.75s-3-3.65,7-11.16S32.1,14,32.08,14Z"/><path class="cls-2" d="M32,40.88s-1.76-.06-.44,2.44c.46.87,1,1.7,1.42,2.57s.57,1.54,1,2.24a2.84,2.84,0,0,0,.94.94c.19.12.77.3.83.54C35.75,49.6,33.5,41.25,32,40.88Z"/><path class="cls-3" d="M31.27,51H21.1a4.1,4.1,0,0,1-4.1-4.1V33a4.1,4.1,0,0,1,4.1-4.1H43.42a2.69,2.69,0,0,0,1.9-4.59L36.9,15.85l-1.56-1.56a4.24,4.24,0,0,0-6,0L19.25,24.37"/><path class="cls-3" d="M47,34.62V46.86A4.1,4.1,0,0,1,42.9,51H39.73c-2.2,0-4.12-2.44-4.77-4.54a18.92,18.92,0,0,0-2.88-6"/><path class="cls-3" d="M36.58,49.27h0a9.63,9.63,0,0,1-.19-3.83A35,35,0,0,0,37,40.9c.06-1.95-.81-3.78-2.88-4.12a12.05,12.05,0,0,1-3.18-1,9.76,9.76,0,0,1-3.46-2.54,19,19,0,0,0-1.57,4A8.22,8.22,0,0,0,26,42.54l0,.07a3.39,3.39,0,0,0,.18.39A5.75,5.75,0,0,0,27,44.18l0,0a8.8,8.8,0,0,0,4.23,2.56"/><circle class="cls-4" cx="47" cy="32" r="1"/></svg>