<svg id="Layer_1" data-name="Layer 1" xmlns="http://www.w3.org/2000/svg" viewBox="0 0 64 64"><defs><style>.cls-1{fill:#9ac8f1;}.cls-2{fill:#3897d3;}.cls-3{fill:none;stroke:#295183;stroke-linecap:round;stroke-linejoin:round;stroke-width:2px;}.cls-4{fill:#389ad6;}</style></defs><title>Green Battery</title><path class="cls-1" d="M25.66,10.1l.19.11a2.16,2.16,0,0,1,.77,3,3.51,3.51,0,0,0-1.16,2.26,37.68,37.68,0,0,0,.22,5.39q.11,1.79.22,3.58A12.22,12.22,0,0,1,26,27.68a1.77,1.77,0,0,1-1.21,1.39,3,3,0,0,1-1.44-.18,2.06,2.06,0,0,0-2.68,2.18q-.11,8.88.14,17.75a1.29,1.29,0,0,0,.15.69,1.26,1.26,0,0,0,.46.36C24,51.32,27,52.45,30,52.06a7.08,7.08,0,0,1,2.73-.13c.89.24,1.65,1.25,1.22,2.07H17.78c-1.75-4.69-1.65-9.84-1.52-14.84l.39-15.54.1-3.89a27.86,27.86,0,0,1,.1-3.89c.3-1.77,3.5-2.45,5-2.34l.24,0,.37-4A6.7,6.7,0,0,1,25.66,10.1Z"/><path class="cls-2" d="M27.8,30s2.77,1,.53,3.52c0,0,1.86,2.55.17,3.67a5.82,5.82,0,0,1,1.22,4.5S31,45,29.1,45.25s.63,1.63.63,1.63S31.49,50,29,49.81s-8.12,1.08-8.17-1a20.66,20.66,0,0,0-.9-4.71s-.44-3.55.47-4.17-1.5-3.81.27-6.88L20.38,30Z"/><line class="cls-3" x1="26.3" y1="13.5" x2="33.27" y2="13.5"/><path class="cls-3" d="M28.74,9.5h-4a2.68,2.68,0,0,0-2.67,2.68V13.5H20.3A3.52,3.52,0,0,0,16.79,17V51A3.52,3.52,0,0,0,20.3,54.5h13A3.44,3.44,0,0,0,36.73,51l.06-15.91a11.71,11.71,0,0,1,.15-2"/><path class="cls-3" d="M33.13,48.29h0A2.09,2.09,0,0,1,31,50.37H22.47a2.09,2.09,0,0,1-2.09-2.09h0a2.09,2.09,0,0,1,2.09-2.09H31"/><path class="cls-3" d="M22.47,42H31a2.09,2.09,0,0,1,2.09,2.09h0A2.09,2.09,0,0,1,31,46.2H22.47a2.09,2.09,0,0,1-2.09-2.09h0"/><path class="cls-3" d="M31,42H22.47a2.09,2.09,0,0,1-2.09-2.09h0a2.09,2.09,0,0,1,2.09-2.09H31"/><line class="cls-3" x1="20.38" y1="35.76" x2="20.38" y2="35.76"/><path class="cls-3" d="M22.47,33.68H31a2.09,2.09,0,0,1,2.09,2.09h0A2.09,2.09,0,0,1,31,37.85H22.47"/><path class="cls-3" d="M31,33.68H22.47a2.09,2.09,0,0,1-2.09-2.09h0a2.09,2.09,0,0,1,2.09-2.09H31"/><path class="cls-1" d="M36.26,20.53A2.39,2.39,0,0,1,37,22.77c-.16,1.6,1.19,1.18,1.66.64s1.4-1,1.89-.64-3.44,6-3.44,6S34.35,23.4,36.26,20.53Z"/><path class="cls-4" d="M40.56,22.77s-.56-.8-1.64.88-2.13,4.08-1.7,5.27,1.92-3.76,1.92-3.76Z"/><path class="cls-3" d="M40.74,22.77a14.34,14.34,0,0,0-1.67,2.77c-1.08,2.25-1.59,5.38-2.12,7.53"/><path class="cls-3" d="M41.62,29.67l-.88.13,1.14-.21c3-.94,9.18-4.19,3.83-14.5a11.72,11.72,0,0,1-7.17,3.78,3.63,3.63,0,0,0-1.07.34,4.2,4.2,0,0,0-2,4.11c.06,1.85,1,3.18,1.42,4.9a23.67,23.67,0,0,1,.09,4.84"/></svg>