<svg id="Layer_1" data-name="Layer 1" xmlns="http://www.w3.org/2000/svg" viewBox="0 0 64 64"><defs><style>.cls-1{fill:#9ac8f1;}.cls-2{fill:#389ad6;}.cls-3,.cls-4{fill:none;stroke-linecap:round;stroke-linejoin:round;stroke-width:2px;}.cls-3{stroke:#2a5081;}.cls-4{stroke:#2a5080;}</style></defs><title>Green Charge</title><path class="cls-1" d="M23.18,15.38c.21-.14-1.41,5.24,0,10S20.62,37,20,36.21,10.68,23.38,23.18,15.38Z"/><path class="cls-1" d="M40.85,26.85a1.29,1.29,0,0,1,.75.54A2,2,0,0,1,41.54,29a23,23,0,0,0-.95,3,5.82,5.82,0,0,0,.14,3.15,14.41,14.41,0,0,1,.91,2.19c.15.78-.23,1.76-1,1.87a2.05,2.05,0,0,1-1.47-.66L37.23,37a1.88,1.88,0,0,1-.88-1.67c-.2-2.27-.41-4.53-.56-6.8-.13-1.92,2.89-1.94,4.26-1.82A3.69,3.69,0,0,1,40.85,26.85Z"/><path class="cls-2" d="M36.12,27.61a19.47,19.47,0,0,1,2.27-.47c.47,2.09-.26,4.25-.3,6.4a3.72,3.72,0,0,0,.22,1.53c.24.57.72,1.16.46,1.71a1,1,0,0,1-1.55.19,2.68,2.68,0,0,1-.75-1.6A26.79,26.79,0,0,1,36,30.14c0-.5-.25-2.12,0-2.5Z"/><path class="cls-3" d="M39,38.5,37.41,37a4.49,4.49,0,0,1-1.32-3.18V28.34A1.39,1.39,0,0,1,37.48,27h8.68a1.39,1.39,0,0,1,1.39,1.39v5.43A4.49,4.49,0,0,1,46.23,37l-3.63,3.63a2.85,2.85,0,0,0-.86,1.92c0,1.41.5,2.73.6,4.11v0A3.3,3.3,0,0,1,39,50h-.22"/><line class="cls-3" x1="39.18" y1="23.93" x2="39.18" y2="22.42"/><line class="cls-3" x1="44.45" y1="26.95" x2="44.45" y2="22.42"/><path class="cls-4" d="M24.09,14c6.27,4,10,12.91,5.95,19.7-1.73,2.9-4.44,5.23-5.66,8.43s0,8,4.12,8H38.77"/><path class="cls-4" d="M24.4,22.82s1,8.55-1,14a1.54,1.54,0,0,1-2.65.41,33.75,33.75,0,0,1-2.63-3.56C14.09,26.86,17.83,18,24.09,14h0"/></svg>