<svg id="Layer_1" data-name="Layer 1" xmlns="http://www.w3.org/2000/svg" viewBox="0 0 64 64"><defs><style>.cls-1{fill:#9ac8f1;}.cls-2{fill:none;stroke:#2a5080;stroke-linecap:round;stroke-linejoin:round;stroke-width:2px;}</style></defs><title>Green electricity</title><path class="cls-1" d="M45.22,22.86,43,30.57s1.33.7,1.1,1-1.45,5.92-1.45,5.92l3.55-5-.49-1.47-5.92-.08S43.77,22.44,45.22,22.86Z"/><path class="cls-1" d="M23.84,15.38c.21-.14-1.41,5.24,0,10S21.28,37,20.64,36.21,11.34,23.38,23.84,15.38Z"/><path class="cls-2" d="M24.75,14c6.27,4,10,12.91,5.95,19.7C29,36.56,26.26,38.89,25,42.09s0,8,4.12,8H39.44"/><path class="cls-2" d="M25.06,22.82s1,8.55-1,14a1.54,1.54,0,0,1-2.65.41,33.75,33.75,0,0,1-2.63-3.56C14.75,26.86,18.49,18,24.75,14h0"/><path class="cls-2" d="M44.84,22.32l-4.51,8.61h6.61l-1.75,3.52L43.93,37l-.5,1a6.26,6.26,0,0,0-.35.73,2.65,2.65,0,0,0-.08.91q0,.59,0,1.19v5.83A3.3,3.3,0,0,1,39.65,50h-.22"/></svg>