<svg id="Layer_1" data-name="Layer 1" xmlns="http://www.w3.org/2000/svg" viewBox="0 0 64 64"><defs><style>.cls-1{fill:#9ac8f1;}.cls-2{fill:#2a5080;}.cls-3,.cls-6{fill:none;stroke-linecap:round;stroke-linejoin:round;stroke-width:2px;}.cls-3{stroke:#2a5080;}.cls-4{fill:#3897d3;}.cls-5{fill:#389ad6;}.cls-6{stroke:#295183;}</style></defs><title>Green Smartphone</title><path class="cls-1" d="M40.15,25.78V38.87A7.47,7.47,0,0,1,33,46.2H28.72a3.59,3.59,0,0,1-3.4-3.73V32l3.21,3.52v-4c1.37-.43,2.88-2.1,3.82-3.85l.58-.18c1-1.22,2.25-2.05,2.25-3.8l-1.44-4.24C36.34,20.43,40.15,22.6,40.15,25.78Z"/><circle class="cls-2" cx="42.79" cy="22.82" r="0.86"/><path class="cls-3" d="M37.94,17.18h2.55a5.67,5.67,0,0,1,5.65,5.65V46.49a5.67,5.67,0,0,1-5.65,5.65h-12a5.67,5.67,0,0,1-5.65-5.65V36.05"/><path class="cls-4" d="M28.81,34.73l0,.15a8.75,8.75,0,0,0,.11,2.31,22.56,22.56,0,0,1,0,5.57,3,3,0,0,1-.94,2.14,3.58,3.58,0,0,0-.64.47c-.32.37-.32,1-.76,1.21a.79.79,0,0,1-1-.4,2.3,2.3,0,0,1-.2-1.11l-.1-6.58c0-1.87-.59-4.64.07-6.41.41-1.11,1.67-1,2.6-1.31a9.14,9.14,0,0,0,2.84-1.71,11.72,11.72,0,0,0,3.65-5.64,2.28,2.28,0,0,1,.81-1.48,37.18,37.18,0,0,1-4.77,9.67A8.61,8.61,0,0,0,28.81,34.73Z"/><polyline class="cls-3" points="42.79 26.01 42.79 46.2 37.27 46.2"/><line class="cls-3" x1="31.69" y1="46.2" x2="26.28" y2="46.2"/><path class="cls-3" d="M31.69,46.2a2.79,2.79,0,1,0,5.58,0"/><path class="cls-1" d="M19,19.14a3.21,3.21,0,0,1,1,3c-.22,2.14,1.6,1.58,2.23.86s1.87-1.31,2.54-.86-4.61,8-4.61,8S16.44,23,19,19.14Z"/><path class="cls-5" d="M24.76,22.15s-.75-1.07-2.2,1.18-2.85,5.46-2.28,7.07,2.57-5,2.57-5Z"/><path class="cls-6" d="M25,22.15a19.22,19.22,0,0,0-2.24,3.72,50.32,50.32,0,0,0-3.11,9.32s0,0,0,0c-.06.28-.14.55-.2.82"/><path class="cls-6" d="M26.18,31.4,25,31.57l1.53-.28c4-1.25,12.31-5.61,5.13-19.43A15.71,15.71,0,0,1,22,16.93a4.87,4.87,0,0,0-1.43.45c-2,1-2.82,3.2-2.73,5.52.08,2.48,1.33,4.26,1.91,6.57a12.55,12.55,0,0,1-.14,5.72h0c-.06.28-.13.55-.2.82"/></svg>