<svg xmlns="http://www.w3.org/2000/svg" viewBox="0 0 64 64"><defs><style>.cls-1{fill:#a8d2f0;}.cls-2{fill:#389ad6;}.cls-3,.cls-4{fill:none;}.cls-4{stroke:#295183;stroke-linecap:round;stroke-linejoin:round;stroke-width:2px;}.cls-5{fill:#295183;}</style></defs><title>home, lighting, light, lightbulb</title><g id="Layer_4" data-name="Layer 4"><path class="cls-1" d="M39.8,27.83a1.65,1.65,0,0,1,0,.31,3.34,3.34,0,0,1-2.7,3c-.43.14-.91.27-1.46.42h0a9.67,9.67,0,0,1-2.42.3h0a10.77,10.77,0,0,1-2.45-.28,11.07,11.07,0,0,1-2-.67,9.55,9.55,0,0,1-2-1.14,8.2,8.2,0,0,1-3-3.73,6.54,6.54,0,0,1-.42-2.1h7.88a4,4,0,0,0,.24.46c.92,1.63,2,3.76,4.09,4.05a3.79,3.79,0,0,0,2.4-.59c.46-.28,1.3-1.21,1.82-.51A.72.72,0,0,1,39.8,27.83Z"/><path class="cls-2" d="M25.86,26.34A1.44,1.44,0,0,1,24.28,26a3,3,0,0,1-.7-1.54c0-.15-.05-.3-.07-.45h2.12a.59.59,0,0,0,0,.13C25.79,24.69,26.77,25.92,25.86,26.34Z"/><line class="cls-3" x1="29.43" y1="32.04" x2="33.14" y2="31.89"/><line class="cls-4" x1="32.06" y1="11.5" x2="32.06" y2="14.91"/><line class="cls-4" x1="39.83" y1="13.43" x2="38.23" y2="16.44"/><line class="cls-4" x1="24.5" y1="13.33" x2="26.05" y2="16.37"/><path class="cls-1" d="M35.6,31.57s-2.79,1.21-2.45,7.13a7.69,7.69,0,0,0,.48,6.54c1.93,3.19,2.38,2,.49,3.31s-.47,3.54-2.05,2.85-.78-1.8-.55-3.39-2.94-4.55-2.84-5.08,1.11-8,1.11-8L28.4,30.08S35.22,30.68,35.6,31.57Z"/><path class="cls-1" d="M39.8,27.83a1.65,1.65,0,0,1,0,.31,3.34,3.34,0,0,1-2.7,3c-.43.14-.91.27-1.46.42h0a9.67,9.67,0,0,1-2.42.3h0a10.77,10.77,0,0,1-2.45-.28,11.07,11.07,0,0,1-2-.67,9.55,9.55,0,0,1-2-1.14,8.2,8.2,0,0,1-3-3.73c-.26-.67-3.52-4.26-3.55-5H30.81c.07.16.47,3.19.56,3.34.92,1.63,2,3.76,4.09,4.05a3.79,3.79,0,0,0,2.4-.59c.46-.28,1.3-1.21,1.82-.51A.72.72,0,0,1,39.8,27.83Z"/><path class="cls-2" d="M25.86,26.34A1.44,1.44,0,0,1,24.28,26a3,3,0,0,1-.7-1.54c0-.15-.05-.3-.07-.45h2.12a.59.59,0,0,0,0,.13C25.79,24.69,26.77,25.92,25.86,26.34Z"/><line class="cls-4" x1="32.06" y1="11.5" x2="32.06" y2="14.91"/><line class="cls-4" x1="39.83" y1="13.43" x2="38.23" y2="16.44"/><line class="cls-4" x1="24.5" y1="13.33" x2="26.05" y2="16.37"/><path class="cls-2" d="M28.77,29.39s3.28,1.27,2.51,8.25c0,0-2.73,4.83-.08,7.6s1.06,4-.58,3.39-2-1.89-1.19-2.95c0,0-3,.07-2.88-1.76s.88-4.58,1.76-5.19-1.69-8.94-1.69-8.94Z"/><path class="cls-4" d="M24.93,28.69a7.93,7.93,0,0,1-2-4.73"/><path class="cls-4" d="M41.18,24a8.83,8.83,0,0,1-1.38,3.87,9,9,0,0,1-1.63,1.91,5.41,5.41,0,0,0-1.11,1.41,6.2,6.2,0,0,0-.75,2.61l-.7,4.64-.08.07H28.59l-.08-.07,0-.13h0L28,35.09l-.25-1.86"/><path class="cls-4" d="M29.88,48.64h3.74a1.7,1.7,0,0,0,1.69-1.69h0a1.7,1.7,0,0,0-1.69-1.69H26.44l.36-4.35a2.65,2.65,0,0,1,2.64-2.43h5.23a2.65,2.65,0,0,1,2.64,2.43l.36,4.35"/><line class="cls-4" x1="32.06" y1="40.88" x2="32.06" y2="41.99"/><circle class="cls-5" cx="32.08" cy="51.5" r="1"/><polyline class="cls-4" points="44.73 23.96 41.17 23.96 31.13 23.96 25.63 23.96 23.5 23.96 23.25 23.96 22.93 23.96 19.27 23.96"/><polyline class="cls-4" points="44.73 21.08 41.17 21.08 31.13 21.08 25.63 21.08 23.5 21.08 23.25 21.08 22.93 21.08 19.27 21.08"/></g></svg>