<svg id="Layer_1" data-name="Layer 1" xmlns="http://www.w3.org/2000/svg" viewBox="0 0 64 64"><defs><style>.cls-1{fill:#a8d2f0;}.cls-2{fill:#389ad6;}.cls-3,.cls-5{fill:none;stroke-linecap:round;stroke-linejoin:round;stroke-width:2px;}.cls-3{stroke:#295183;}.cls-4{fill:#9dcbf4;}.cls-5{stroke:#2a5081;}</style></defs><title>Idea</title><path class="cls-1" d="M29,19.72h.12A2.22,2.22,0,0,1,31.28,23a8.59,8.59,0,0,0-.1,8.55c1.09,1.93,2.4,4.45,4.83,4.8a4.46,4.46,0,0,0,2.83-.71c.55-.32,1.54-1.42,2.15-.6a1.15,1.15,0,0,1,.1.91c-.57,2.94-2,3.27-4.91,4.05-5.2,1.4-12.11-1.26-14.1-6.51-1.63-4.3.77-9.91,3.95-12.51A6.16,6.16,0,0,1,29,19.72Z"/><path class="cls-2" d="M24.31,23.72a1.21,1.21,0,0,1,.94-.26,1.25,1.25,0,0,1,.89,1.16,6.43,6.43,0,0,1-.91,2.94,5.72,5.72,0,0,0-.8,3.62c.17.71,1.32,2.16.25,2.66a1.71,1.71,0,0,1-1.86-.45A3.54,3.54,0,0,1,22,31.56a9.34,9.34,0,0,1,.55-5.15,7.57,7.57,0,0,1,1.32-2.25A2.79,2.79,0,0,1,24.31,23.72Z"/><path class="cls-3" d="M33.77,35a4.26,4.26,0,0,1,.14-2.69,12.84,12.84,0,0,1,1.62-2.4c1.51-2.12-5-1.76-5.75-1.64a5.53,5.53,0,0,0-.64.14c-1.45.42-.79,1.63-.13,2.47a5.56,5.56,0,0,1,1.5,2.46,4.27,4.27,0,0,1-1.95,4.08c-1.73,1.24-3.59.7-5-.77a9.84,9.84,0,0,1-2.43-6.84A10.85,10.85,0,1,1,32,40.62"/><line class="cls-3" x1="32" y1="11.59" x2="32" y2="15.62"/><line class="cls-3" x1="41.19" y1="13.86" x2="39.3" y2="17.42"/><line class="cls-3" x1="23.07" y1="13.75" x2="24.91" y2="17.33"/><path class="cls-4" d="M31.86,41.16c-.45,0,.08,2.4.1,2.62a9.47,9.47,0,0,1-.09,2c-.19,1.72,0,3.47-.31,5.17-.25,1.23-.9,2.65-2.38,2.5-3.24-.32.29-9.39.75-9.24s0-3.07,0-3.07Z"/><line class="cls-5" x1="28.42" y1="47.16" x2="25.63" y2="53.92"/><path class="cls-5" d="M32.11,45.07h1a2.18,2.18,0,0,1,2.18,2.18v5.61a1.54,1.54,0,0,1-1.54,1.54H30a1.54,1.54,0,0,1-1.54-1.54V47.16"/><path class="cls-5" d="M32,40.65a2.21,2.21,0,1,0,0,4.42"/><line class="cls-5" x1="35.11" y1="46.35" x2="38" y2="53.92"/></svg>