<svg id="Layer_1" data-name="Layer 1" xmlns="http://www.w3.org/2000/svg" viewBox="0 0 64 64"><defs><style>.cls-1{fill:#389ad6;}.cls-2{fill:#9dcbf4;}.cls-3{fill:none;stroke:#2a5082;stroke-linecap:round;stroke-linejoin:round;stroke-width:2px;}.cls-4{fill:#2a5082;}</style></defs><title>Image</title><path class="cls-1" d="M38,17.28s.54-4.63-.46-4.63-3.47,4.63-1.62,9.49,11.73,2.16,9.88,0-7.41.08-7.41.08Z"/><path class="cls-1" d="M16.57,33.21c-.39.72-.58,1.49.51,1.26a2.16,2.16,0,0,0,1.06-.77l1.05-1.16a1.1,1.1,0,0,1,.61-.42,1,1,0,0,1,.72.29c1.28,1,2.09,2.64,3.57,3.37a3.71,3.71,0,0,0,3.72-.31c.88-.63,1.69-1.72,2.75-1.5a2.06,2.06,0,0,1,.92.54c.73.66,1.26,1.52,1.95,2.23A3.22,3.22,0,0,0,36,37.9a5.45,5.45,0,0,0,1.67-.69,8.68,8.68,0,0,1,4.24-.93l-2.76-2.44L37,35.74a.51.51,0,0,1-.83,0l-5.9-4.95L26.8,34.33a.65.65,0,0,1-1.09,0q-2.4-2.07-4.78-4.16a.86.86,0,0,0-.44-.25.82.82,0,0,0-.45.12,9.74,9.74,0,0,0-2.81,2.17A5.78,5.78,0,0,0,16.57,33.21Z"/><path class="cls-2" d="M24.5,12.6q.79-.06,1.58-.17a4.77,4.77,0,0,1,1.61,0,1.47,1.47,0,0,1,1.17,1c.19.78-.5,1.47-1.07,2A13.79,13.79,0,0,0,24,22.74,19,19,0,0,0,24.52,31c.14.53.15,1.31-.39,1.38a.82.82,0,0,1-.43-.09c-1.08-.47-1.78-1.51-2.73-2.22a1.13,1.13,0,0,0-.63-.27,1.27,1.27,0,0,0-.72.32l-3.34,2.4L16.19,22l0-5.38c0-1.14-.6-3.33.74-3.9a4,4,0,0,1,1.94-.12A32.06,32.06,0,0,0,24.5,12.6Z"/><path class="cls-2" d="M26.11,40.17a28.11,28.11,0,0,1,1.17,3.36,6.93,6.93,0,0,0,2.49,3.25c1.81,1.24,4.2,1.43,5.88,2.88a1.3,1.3,0,0,1,.48.69,1,1,0,0,1-.57,1,2.88,2.88,0,0,1-1.21.25,137.34,137.34,0,0,1-17.41-.45V42.71a26.18,26.18,0,0,1,0-4.22c.2-1.18,1.68-1.92,2.63-2.67a1,1,0,0,1,.51-.26,1,1,0,0,1,.57.23l3,2a8.14,8.14,0,0,1,2.19,1.9A4.46,4.46,0,0,1,26.11,40.17Z"/><path class="cls-3" d="M23,37.63,19.86,34.5l-3.38,3.38V51.17H47.65V36l-5.51,0-3-3-3,3-5.84-5.84c.13.13-4.34,4.34-4.34,4.34L20.2,28.69l-4,4V12.27H38.39l9.26,9.26H38.39V17.41"/><line class="cls-3" x1="47.07" y1="24.66" x2="47.07" y2="28.19"/><circle class="cls-4" cx="47.07" cy="31.4" r="0.93"/><circle class="cls-4" cx="25.42" cy="40.05" r="0.93"/></svg>