<svg id="Layer_1" data-name="Layer 1" xmlns="http://www.w3.org/2000/svg" viewBox="0 0 64 64"><defs><style>.cls-1{fill:#a8d2f0;}.cls-2,.cls-3{fill:none;}.cls-2{stroke:#295183;}.cls-2,.cls-3,.cls-4{stroke-linecap:round;stroke-linejoin:round;stroke-width:2px;}.cls-3{stroke:#000;}.cls-4{fill:#389ad6;stroke:#389ad6;}.cls-5{fill:#295183;}</style></defs><title>International Transfer</title><path class="cls-1" d="M24.73,25.6s1.63,16.62,10.36,15.27c0,0-6.61,5.23-12.56-.23S21.1,25.85,24.73,25.6Z"/><circle class="cls-2" cx="29.19" cy="33.33" r="9.52"/><ellipse class="cls-2" cx="29.21" cy="33.31" rx="4.99" ry="9.42"/><ellipse class="cls-2" cx="29.19" cy="33.33" rx="9.52" ry="4.61"/><line class="cls-2" x1="29.19" y1="23.81" x2="29.19" y2="42.65"/><path class="cls-3" d="M19.3,18.5c.43-.42.89-.84,1.37-1.24A15.41,15.41,0,0,0,19.3,18.5Z"/><path class="cls-4" d="M13.28,25.39a11.93,11.93,0,0,0-.55,2.92l.82-.35L15,27.38l.78-.33,1.17-.48,2.18-.91-2.1-1,.09-.18-1.85.47L14,25.21Z"/><path class="cls-3" d="M20.71,17.22q.45-.36.9-.67h0C21.29,16.76,21,17,20.71,17.22Z"/><path class="cls-3" d="M19.3,18.5c.43-.42.89-.84,1.37-1.24A15.41,15.41,0,0,0,19.3,18.5Z"/><path class="cls-3" d="M19.3,18.5c.43-.42.89-.84,1.37-1.24A15.41,15.41,0,0,0,19.3,18.5Z"/><path class="cls-2" d="M29,15.53h0l-.06,0-.09-.07-.07,0-.07,0a12.64,12.64,0,0,0-4.9-1.7l-.37,0a10,10,0,0,0-4.61.65"/><path class="cls-1" d="M10.83,26l.86-.22,1.49-.38.82-.21,1.22-.31,2.29-.58L15.59,23a30.36,30.36,0,0,1,3.48-4.24l.23-.24c.43-.42.89-.84,1.37-1.24l0,0c.29-.23.58-.46.88-.67a9.34,9.34,0,0,1,3.8-1.74,5.1,5.1,0,0,1,.87-.07h.28a4.1,4.1,0,0,1,.67.07c-3-1.66-8-.19-12,3.7A15.16,15.16,0,0,0,10.83,26Z"/><path class="cls-4" d="M15.59,23l1.64,1.14a30.7,30.7,0,0,1,2.57-4.21l.2-.27c.36-.48.76-1,1.17-1.43l0,0c.25-.27.5-.54.77-.8a9.38,9.38,0,0,1,3.51-2.28,5.2,5.2,0,0,1,.85-.2,1.55,1.55,0,0,1,.28,0,3.54,3.54,0,0,1,.67,0l-.07,0a4.1,4.1,0,0,0-.67-.07h-.28a5.1,5.1,0,0,0-.87.07,9.34,9.34,0,0,0-3.8,1.74c-.3.21-.59.44-.88.67l0,0c-.48.4-.94.82-1.37,1.24l-.23.24A30.36,30.36,0,0,0,15.59,23Z"/><path class="cls-2" d="M12,20.47l-1.93-1.34L10.8,26h0l.86-.22,1.49-.38.09,0,.72-.19,1.22-.31,1.85-.47.44-.11-.29-.2-1.29-.9L15.59,23a30.36,30.36,0,0,1,3.48-4.24l.23-.24c.43-.42.89-.84,1.37-1.24l0,0c.29-.23.58-.46.88-.67a9.34,9.34,0,0,1,3.8-1.74,5.1,5.1,0,0,1,.87-.07h.28a4.1,4.1,0,0,1,.67.07l.07,0h0a4.14,4.14,0,0,1,.65.18l.15.05a5.1,5.1,0,0,1,.78.39l.06,0h0"/><path class="cls-3" d="M41,43.5c-.6.59-1.25,1.18-1.92,1.74A21.61,21.61,0,0,0,41,43.5Z"/><path class="cls-4" d="M49.43,33.84a16.72,16.72,0,0,0,.77-4.1l-1.15.49-2,.83L46,31.52l-1.63.68-3.06,1.28,2.95,1.46-.12.25,2.6-.66,1.72-.43Z"/><path class="cls-3" d="M39,45.29q-.62.51-1.26.94h0C38.2,45.94,38.61,45.62,39,45.29Z"/><path class="cls-3" d="M41,43.5c-.6.59-1.25,1.18-1.92,1.74A21.61,21.61,0,0,0,41,43.5Z"/><path class="cls-3" d="M41,43.5c-.6.59-1.25,1.18-1.92,1.74A21.61,21.61,0,0,0,41,43.5Z"/><path class="cls-2" d="M27.45,47.68h0l0,0,.09.05.13.09.09.06.1.06a17.73,17.73,0,0,0,6.87,2.38l.52,0a14.08,14.08,0,0,0,6.47-.91"/><path class="cls-1" d="M52.86,33l-1.21.31-2.09.53-1.15.29-1.72.43-3.22.82,2.71,1.88a42.57,42.57,0,0,1-4.88,5.94L41,43.5c-.6.59-1.25,1.18-1.92,1.74l-.06,0c-.4.33-.81.65-1.23.94a13.09,13.09,0,0,1-5.33,2.44,7.14,7.14,0,0,1-1.21.1,3.15,3.15,0,0,1-.39,0,5.75,5.75,0,0,1-.94-.1c4.17,2.33,11.23.27,16.81-5.19A21.25,21.25,0,0,0,52.86,33Z"/><path class="cls-4" d="M46.19,37.23l-2.3-1.6a43,43,0,0,1-3.61,5.9l-.28.37c-.51.68-1.06,1.35-1.64,2l-.05.06c-.34.38-.7.76-1.07,1.11a13.15,13.15,0,0,1-4.92,3.19,7.28,7.28,0,0,1-1.19.27,2.18,2.18,0,0,1-.39,0,5,5,0,0,1-.94,0l.1,0a5.75,5.75,0,0,0,.94.1,3.15,3.15,0,0,0,.39,0,7.14,7.14,0,0,0,1.21-.1,13.09,13.09,0,0,0,5.33-2.44c.42-.3.83-.62,1.23-.94l.06,0c.67-.56,1.32-1.15,1.92-1.74l.32-.33A42.57,42.57,0,0,0,46.19,37.23Z"/><path class="cls-2" d="M51.23,40.74l2.71,1.88-1-9.66h0l-1.21.31-2.09.53-.13,0-1,.26-1.72.43-2.6.66-.62.16.4.28,1.81,1.26.5.35a42.57,42.57,0,0,1-4.88,5.94L41,43.5c-.6.59-1.25,1.18-1.92,1.74l-.06,0c-.4.33-.81.65-1.23.94a13.09,13.09,0,0,1-5.33,2.44,7.15,7.15,0,0,1-1.21.1,3.15,3.15,0,0,1-.39,0,5.75,5.75,0,0,1-.94-.1l-.1,0h0a5.8,5.8,0,0,1-.91-.25l-.21-.07a7.15,7.15,0,0,1-1.09-.55l-.09-.05,0,0h0"/><circle class="cls-5" cx="15.91" cy="15.53" r="1"/><circle class="cls-5" cx="46.19" cy="47.68" r="1.4"/></svg>