<svg id="Layer_1" data-name="Layer 1" xmlns="http://www.w3.org/2000/svg" viewBox="0 0 64 64"><defs><style>.cls-1{fill:#fff;}.cls-2{fill:#9dcbf4;}.cls-3,.cls-5,.cls-6{fill:none;stroke-linecap:round;stroke-linejoin:round;stroke-width:2px;}.cls-3{stroke:#9dcbf4;}.cls-4{fill:#a8d2f0;}.cls-5{stroke:#2a5081;}.cls-6{stroke:#295183;}.cls-7{fill:#389ad6;}.cls-8{fill:#7da9d6;}</style></defs><title>International shopping</title><path class="cls-1" d="M29.88,20.06h-.71a5.33,5.33,0,0,0-1,.17,7.75,7.75,0,0,1,8.13,6.84l12.2.17s5.58,9.82-5,9.32-3.61.42-3.61.42,5.86,6.17-.6,11.25-14.67,2.92-14.67,2.92S16.33,28.79,21,23.3s8.27-3.24,8.27-3.24h.61"/><circle class="cls-2" cx="30.79" cy="14.05" r="0.81"/><circle class="cls-2" cx="23.09" cy="16.7" r="0.81"/><line class="cls-3" x1="37.68" y1="16.7" x2="25.52" y2="16.7"/><line class="cls-3" x1="40.85" y1="14.05" x2="33.89" y2="14.05"/><path class="cls-4" d="M30.47,51.12l-.54,0h-.66A15.54,15.54,0,0,1,14,36c0-.12,0-.24,0-.36s0-.24,0-.36A15.53,15.53,0,0,1,22.82,21.6a23.41,23.41,0,0,0,7.65,29.52Z"/><path class="cls-5" d="M30,19.59h-.71A15.54,15.54,0,0,0,14,34.77c0,.12,0,.24,0,.36s0,.24,0,.36A15.54,15.54,0,0,0,29.27,50.68h.66l.54,0"/><path class="cls-5" d="M29.59,44.85a23,23,0,0,1-7.69-1.27C17.35,42,14.25,39,14,35.5c0-.12,0-.24,0-.36s0-.24,0-.36a7.26,7.26,0,0,1,2-4.46,11.8,11.8,0,0,1,2.21-1.86,15.5,15.5,0,0,1,1.9-1.06,18.26,18.26,0,0,1,1.71-.7,21.34,21.34,0,0,1,3.59-.93"/><path class="cls-5" d="M29.93,50.67h-.66c-3.09-.18-5.79-3-7.38-7.1a23.85,23.85,0,0,1-1.47-8.45,23.85,23.85,0,0,1,1.47-8.45c1.58-4.13,4.28-6.91,7.38-7.1"/><path class="cls-5" d="M41,45.71a15.51,15.51,0,0,1-11.09,5h-.66l-.54,0"/><path class="cls-5" d="M29.56,44.85a23,23,0,0,0,7.69-1.27"/><path class="cls-5" d="M29.22,50.67h.66c3.09-.18,5.79-3,7.38-7.1"/><path class="cls-6" d="M41.55,39.62a1.66,1.66,0,0,1-1.66,1.66,1.63,1.63,0,0,1-.47-.07,1.66,1.66,0,1,1,2.13-1.59Z"/><path class="cls-4" d="M47.6,34a10,10,0,0,1-.2,2l-.33,0H37.63l-.85-4.12-1.05-5.15h8.68A9.84,9.84,0,0,1,47.6,34Z"/><path class="cls-7" d="M40.38,34a10,10,0,0,1-.21,2l-.33,0H37.63l-.85-4.12-1.05-5.15h1.46A9.84,9.84,0,0,1,40.38,34Z"/><path class="cls-6" d="M48.84,39.62a1.66,1.66,0,0,1-1,1.54,1.6,1.6,0,0,1-.62.12,1.66,1.66,0,0,1-.89-3.06,1.62,1.62,0,0,1,.89-.26A1.66,1.66,0,0,1,48.84,39.62Z"/><polyline class="cls-6" points="45.03 26.76 44.41 26.76 35.73 26.76 35.73 26.76"/><path class="cls-6" d="M32.39,21.29a2.3,2.3,0,0,1,.41,0A2.22,2.22,0,0,1,35,23"/><polyline class="cls-6" points="34.97 23.04 35.26 24.46 36.78 31.91 37.63 36.04"/><path class="cls-6" d="M35.77,36h11.3l.33,0a3.44,3.44,0,0,0,.67-.12,2.31,2.31,0,0,0,1.5-1.11,3.68,3.68,0,0,0,.29-2,11.86,11.86,0,0,0-.62-2.76,22.74,22.74,0,0,0-.93-2.33L48,27"/><path class="cls-4" d="M40.48,24H37.9v-.24a2,2,0,0,1,2-2h2.58v.24A2,2,0,0,1,40.48,24Z"/><polyline class="cls-6" points="41.97 21.55 39.13 21.55 37.95 21.55 37.95 23.45"/><path class="cls-8" d="M42.11,20.68h1.43a.44.44,0,0,1,.44.44v.57a0,0,0,0,1,0,0H42.11a0,0,0,0,1,0,0v-1A0,0,0,0,1,42.11,20.68Z"/><polyline class="cls-6" points="46.95 21.85 46.95 18.29 45.17 18.29 41.97 18.29 41.97 19.12"/><polyline class="cls-6" points="43.98 23.45 43.98 22.99 43.98 21.55 42.11 21.55 41.97 21.55"/><line class="cls-5" x1="29.59" y1="25.2" x2="29.59" y2="50"/></svg>