<svg id="Layer_1" data-name="Layer 1" xmlns="http://www.w3.org/2000/svg" viewBox="0 0 64 64"><defs><style>.cls-1{fill:#a8d2f0;}.cls-2,.cls-4{fill:none;stroke-linecap:round;stroke-linejoin:round;stroke-width:2px;}.cls-2{stroke:#295183;}.cls-3{fill:#2a5080;}.cls-4{stroke:#2a5080;}</style></defs><title>International location</title><path class="cls-1" d="M28,16.2a6.59,6.59,0,0,1,.78.08c2.7.43,3.29,2.59,3.11,5a58.68,58.68,0,0,0,1.27,16.58,7,7,0,0,0,1.7,3.78c1,.91,3.8,1.39,1.65,3a12.23,12.23,0,0,0-4.41,6.15c-1-1.19-1.32-2.9-2.46-4a8.69,8.69,0,0,0-2.8-1.41,15.79,15.79,0,0,1-9-9.45c-2-5.84-.11-14.24,5-18A8.27,8.27,0,0,1,28,16.2Z"/><circle class="cls-2" cx="32" cy="30.99" r="9.52"/><ellipse class="cls-2" cx="32.01" cy="30.87" rx="4.99" ry="9.52"/><ellipse class="cls-2" cx="32" cy="30.99" rx="9.52" ry="4.61"/><line class="cls-2" x1="32" y1="21.47" x2="32" y2="40.31"/><line class="cls-2" x1="32.82" y1="40.31" x2="31.54" y2="40.31"/><circle class="cls-3" cx="35.63" cy="45.86" r="1"/><path class="cls-4" d="M31.22,46.29A15.37,15.37,0,1,1,39,44.61l-.78.38"/><polyline class="cls-4" points="28.49 46.31 32 52.38 34.27 48.44"/></svg>