<svg id="Layer_1" data-name="Layer 1" xmlns="http://www.w3.org/2000/svg" viewBox="0 0 64 64"><defs><style>.cls-1{fill:#fff;}.cls-2{fill:#a8d2f0;}.cls-3{fill:none;stroke:#2a5081;stroke-linecap:round;stroke-linejoin:round;stroke-width:2px;}.cls-4{fill:#9dcbf4;}</style></defs><title>International team member</title><path class="cls-1" d="M41.84,48.5c-6.46,5.08-14.67,2.92-14.67,2.92s-8.28-22.36-3.62-27.85,8.27-3.24,8.27-3.24h.61"/><path class="cls-1" d="M32.43,20.33h-.71a5.33,5.33,0,0,0-1,.17"/><path class="cls-2" d="M33,51.4l-.54,0h-.66A15.54,15.54,0,0,1,16.59,36.24c0-.12,0-.24,0-.36s0-.24,0-.36a15.53,15.53,0,0,1,8.78-13.64A23.41,23.41,0,0,0,33,51.4Z"/><path class="cls-3" d="M33,50.92l-.54,0h-.66A15.54,15.54,0,0,1,16.59,35.77c0-.12,0-.24,0-.36s0-.24,0-.36A15.54,15.54,0,0,1,31.82,19.86h.71a12.1,12.1,0,0,1,2.34.33"/><path class="cls-3" d="M32.13,45.13a23,23,0,0,1-7.69-1.27c-4.54-1.61-7.65-4.62-7.85-8.09,0-.12,0-.24,0-.36s0-.24,0-.36a7.26,7.26,0,0,1,2-4.46,11.8,11.8,0,0,1,2.21-1.86,15.5,15.5,0,0,1,1.9-1.06,18.26,18.26,0,0,1,1.71-.7A21.34,21.34,0,0,1,28,26"/><path class="cls-3" d="M32.48,50.95h-.66c-3.09-.18-5.79-3-7.38-7.1A23.85,23.85,0,0,1,23,35.41,23.85,23.85,0,0,1,24.44,27c1.58-4.13,4.28-6.91,7.38-7.1"/><path class="cls-3" d="M43.51,46a15.51,15.51,0,0,1-11.09,5h-.66l-.54,0"/><path class="cls-3" d="M32.11,45.13a23,23,0,0,0,7.69-1.27"/><path class="cls-3" d="M31.77,50.95h.66c3.09-.18,5.79-3,7.38-7.1"/><line class="cls-3" x1="32.13" y1="19.86" x2="32.13" y2="50.28"/><path class="cls-4" d="M39.34,28.54s3.44-1.22,3.38,8.11c0,0-.19,4.46-2.62,4.39Z"/><path class="cls-4" d="M43.19,13.95c-.5,0,.09,2.64.11,2.88a10.44,10.44,0,0,1-.1,2.23c-.21,1.89,0,3.82-.34,5.7-.28,1.35-1,2.92-2.62,2.76-3.57-.35.32-10.35.83-10.18s0-3.38,0-3.38Z"/><line class="cls-3" x1="38.94" y1="20.46" x2="35.86" y2="27.89"/><path class="cls-3" d="M43,18.16H44.1a2.4,2.4,0,0,1,2.4,2.4v6.17a1.7,1.7,0,0,1-1.7,1.7H40.63a1.7,1.7,0,0,1-1.7-1.7V20.46"/><path class="cls-3" d="M42.85,13.3a2.43,2.43,0,1,0,0,4.87"/><line class="cls-3" x1="46.29" y1="19.57" x2="49.47" y2="27.89"/><line class="cls-3" x1="39.75" y1="40.55" x2="38.94" y2="26.79"/><line class="cls-3" x1="46.5" y1="26.73" x2="45.72" y2="40.05"/><path class="cls-3" d="M42.68,32.49V40.2a.35.35,0,0,0,.35.35h2.32a.35.35,0,0,0,.35-.35"/></svg>