<svg id="Layer_1" data-name="Layer 1" xmlns="http://www.w3.org/2000/svg" viewBox="0 0 64 64"><defs><style>.cls-1{fill:#389ad6;}.cls-2{fill:none;stroke:#295183;stroke-linecap:round;stroke-linejoin:round;stroke-width:2px;}</style></defs><title>International network</title><ellipse class="cls-1" cx="45.53" cy="47.09" rx="2.92" ry="3.25"/><ellipse class="cls-1" cx="16.37" cy="17.88" rx="3.25" ry="2.92" transform="translate(-4.25 30.62) rotate(-79.22)"/><path class="cls-2" d="M42.25,17.48a4.1,4.1,0,1,1,1.3,3"/><circle class="cls-2" cx="46.46" cy="46.42" r="4.1"/><path class="cls-2" d="M20.51,43.52a4.1,4.1,0,1,1-2.79-1.1"/><circle class="cls-2" cx="17.55" cy="17.48" r="4.1"/><circle class="cls-2" cx="32" cy="32" r="11.66"/><ellipse class="cls-2" cx="32" cy="32" rx="4.94" ry="11.66"/><ellipse class="cls-2" cx="32" cy="32" rx="11.66" ry="5.65"/><line class="cls-2" x1="32" y1="20.34" x2="32" y2="43.42"/><line class="cls-2" x1="33.01" y1="43.42" x2="31.44" y2="43.42"/><path class="cls-2" d="M50.29,23.9a20,20,0,0,1,.14,15.87"/><path class="cls-2" d="M24.82,13.33a20,20,0,0,1,14.39,0"/><path class="cls-2" d="M13.57,39.77a20,20,0,0,1,.14-15.87"/><path class="cls-2" d="M39.21,50.57A18.27,18.27,0,0,1,32,52a19.81,19.81,0,0,1-7.18-1.33"/></svg>