<svg xmlns="http://www.w3.org/2000/svg" viewBox="0 0 64 64"><defs><style>.cls-1,.cls-2,.cls-3{fill:none;stroke-linecap:round;stroke-linejoin:round;stroke-width:2px;}.cls-1{stroke:#389ad6;}.cls-2{stroke:#a8d2f0;}.cls-3{stroke:#295183;}.cls-4{fill:#a8d2f0;}</style></defs><title>key, safety, security, privacy</title><g id="Layer_4" data-name="Layer 4"><path class="cls-1" d="M39.56,27a2,2,0,0,0-.49-2l-.36-.36"/><path class="cls-1" d="M39.56,27a2,2,0,0,0-.49-2l-.36-.36"/><path class="cls-1" d="M41.32,33.1h0"/><line class="cls-1" x1="28.44" y1="24.48" x2="15.3" y2="27.64"/><polyline class="cls-1" points="26.63 28.14 16.04 30.69 16.77 33.74 27.11 31.25"/><polyline class="cls-2" points="28.77 23.12 19.3 21.06 19.96 17.99 30.61 20.31"/><path class="cls-3" d="M39.56,27a1.85,1.85,0,0,1-.49.84,1.93,1.93,0,0,1-1.25.57h-.17a2,2,0,0,1-1.4-.58l-1.31-1.31a2,2,0,0,1-.43-2.18,2.06,2.06,0,0,1,.43-.64,1.93,1.93,0,0,1,1.4-.57,2,2,0,0,1,1.41.57l1.32,1.32A2,2,0,0,1,39.56,27Z"/><path class="cls-3" d="M39.56,27a1.85,1.85,0,0,1-.49.84,1.93,1.93,0,0,1-1.25.57h-.17a2,2,0,0,1-1.4-.58l-1.31-1.31a2,2,0,0,1-.43-2.18,2.06,2.06,0,0,1,.43-.64,1.93,1.93,0,0,1,1.4-.57,2,2,0,0,1,1.41.57l1.32,1.32A2,2,0,0,1,39.56,27Z"/><path class="cls-3" d="M34,33.23a6.08,6.08,0,0,0,3.57,1.18,6,6,0,0,0,3.72-1.3h0a5.08,5.08,0,0,0,.5-.44,5.72,5.72,0,0,0,1-1.36A6,6,0,0,0,43,25.78a6,6,0,0,0-1.15-1.61L39.7,22.05,38.63,21a5,5,0,0,0-.75-.63,6,6,0,0,0-3.49-1.13,1.62,1.62,0,0,0-.31,0A6,6,0,0,0,30.14,21a5.8,5.8,0,0,0-1.37,2.14,5.4,5.4,0,0,0-.33,1.36,6,6,0,0,0,1.13,4.31l.05.06c.21.25.89.95,1.39,1.46l.55.56"/><path class="cls-3" d="M16.79,41.57,27.11,31.25l2.46-2.46.05.06a4.3,4.3,0,0,0,.52.61"/><polyline class="cls-3" points="19.01 43.79 26.71 36.09 19.01 43.79 21.23 46.01 34.01 33.23"/><circle class="cls-4" cx="37.13" cy="40.02" r="0.92" transform="translate(-8.28 9.72) rotate(-13.43)"/><path class="cls-2" d="M48.7,31.59a13.61,13.61,0,0,1-7.72,7"/></g></svg>