<svg id="Layer_1" data-name="Layer 1" xmlns="http://www.w3.org/2000/svg" viewBox="0 0 64 64"><defs><style>.cls-1{fill:#9dcbf4;}.cls-2,.cls-6{fill:none;stroke-linecap:round;stroke-linejoin:round;stroke-width:2px;}.cls-2{stroke:#9dcbf4;}.cls-3{fill:#fff;}.cls-4{fill:#a8d2f0;}.cls-5{fill:#389ad6;}.cls-6{stroke:#295183;}.cls-7{fill:#295183;}.cls-8{fill:#e0e1e1;}</style></defs><title>Laptop shopping basket</title><circle class="cls-1" cx="26.27" cy="8" r="1"/><path class="cls-2" d="M7.94,36.78a19.19,19.19,0,0,1,2.53-14.84"/><path class="cls-2" d="M44.35,11.8a24.2,24.2,0,0,1,9.52,32.4"/><polygon class="cls-3" points="31.15 15.69 35.28 17.45 36.08 19.5 36.08 22.89 46.27 23 50.58 25.31 50.21 50.46 35.58 49.94 29.14 20.77 31.15 15.69"/><path class="cls-4" d="M36.87,50.15c0,.1.07.21.11.3l-20.45-.07a1.44,1.44,0,0,1-1.44-1.44V25.57a2.64,2.64,0,0,1,1-2.1,1.44,1.44,0,0,1,.88-.29h7.08a3,3,0,0,0,0,.52l.51,5.05v11.5c0,1.78,2,3.24,3.87,3.24l6.44,0c0,.21-.07.4-.11.6l1.06-.5a1.44,1.44,0,0,1,.61-.14h0a1.44,1.44,0,0,1,1.23,2.18A5.35,5.35,0,0,0,36.87,50.15Z"/><path class="cls-5" d="M16.59,23.18h7.49a3,3,0,0,0,0,.52l-.33,4.62a25.06,25.06,0,0,0-8.61,9.52V25.57A2.64,2.64,0,0,1,16.59,23.18Z"/><path class="cls-4" d="M45.26,23.18H43.83c.32-.11.65-.21,1-.28a1.35,1.35,0,0,1,.28-.08.2.2,0,0,1,0,.08A2.48,2.48,0,0,1,45.26,23.18Z"/><rect class="cls-5" x="14.7" y="50.38" width="35.51" height="3.64" rx="1.82" ry="1.82"/><path class="cls-6" d="M44.48,22.89h3.09a2.64,2.64,0,0,1,2.64,2.64V47"/><path class="cls-5" d="M37.09,44s.56,2.22-2,2.14-12.37,1.25-12-5.46,1.17-5,1.17-5l1.71,7Z"/><path class="cls-6" d="M18.36,54H48.44a1.82,1.82,0,0,0,0-3.64H15.09V25.57a2.64,2.64,0,0,1,1.5-2.39,2.58,2.58,0,0,1,1.19-.28h2.16"/><circle class="cls-7" cx="15.1" cy="54.02" r="0.98"/><line class="cls-2" x1="26.27" y1="11.8" x2="26.27" y2="15"/><line class="cls-2" x1="22.08" y1="10" x2="22.08" y2="18.07"/><line class="cls-2" x1="39.27" y1="10.46" x2="39.27" y2="17.62"/><path class="cls-3" d="M43.77,29.64A2.38,2.38,0,0,1,41.39,32H24.53a2.38,2.38,0,0,1-2.33-1.9,2.43,2.43,0,0,1,0-1,2.38,2.38,0,0,1,2.33-1.9h6.22l.16.16,2.19,2.2a1.2,1.2,0,0,0,1.7,0l2.07-2.07.29-.29h4.24A2.38,2.38,0,0,1,43.77,29.64Z"/><path class="cls-3" d="M38,19.24q0,.21,0,.41a4.76,4.76,0,0,1-4.82,4.91H31a5,5,0,1,1,7-5.32Z"/><path class="cls-3" d="M23.48,24.56a4.67,4.67,0,1,1,9.34,0"/><rect class="cls-3" x="36.19" y="19.75" width="1.8" height="11.46" rx="0.9" ry="0.9" transform="translate(28.88 -18.77) rotate(45)"/><path class="cls-8" d="M35.07,29.34a1.49,1.49,0,0,1-.4.71,1.56,1.56,0,0,1-1.09.45H24.66a1.54,1.54,0,0,1-1.09-2.62,1.51,1.51,0,0,1,1.09-.46H30.9l2.19,2.2a1.2,1.2,0,0,0,1.7,0Z"/><path class="cls-4" d="M38.72,32H24.56c0,.08,0,.17,0,.25v2.42a7,7,0,0,0,6.94,6.94h.3a6.83,6.83,0,0,0,4-1.29,1.12,1.12,0,0,1-.43.08,1.2,1.2,0,0,1-1.2-1.2v-3.6a1.17,1.17,0,0,1,.09-.46,1.15,1.15,0,0,1,.26-.39,1.17,1.17,0,0,1,.85-.35,1.27,1.27,0,0,1,.26,0,1.2,1.2,0,0,1,.94,1.17v3.6a1.19,1.19,0,0,1-.2.67,6.93,6.93,0,0,0,2.37-5.21V32.27C38.72,32.19,38.72,32.1,38.72,32Zm-7,7.21a1.2,1.2,0,0,1-2.4,0v-3.6a1.23,1.23,0,0,1,.35-.85,1.17,1.17,0,0,1,.85-.35,1.2,1.2,0,0,1,1.2,1.2Z"/><path class="cls-6" d="M41.37,32v6.46A5.4,5.4,0,0,1,36.16,44H29.75a5.4,5.4,0,0,1-5.2-5.55V35.86"/><path class="cls-6" d="M41.47,27.26a2.31,2.31,0,0,1,2.3,2.3"/><path class="cls-6" d="M41.59,21.12a1.21,1.21,0,0,1,0,1.7L38.4,26l-1.25,1.25-.29.29-1.79,1.79-.28.28a1.2,1.2,0,0,1-1.7,0l-2.19-2.2-.16-.16h-6.3a2.32,2.32,0,0,0-2.25,1.9,2.43,2.43,0,0,0,0,1,2.39,2.39,0,0,0,.62,1.2,2.27,2.27,0,0,0,1.63.7h17"/><path class="cls-6" d="M35.36,35h0a1.2,1.2,0,0,1,1.2,1.2v3.73a1.2,1.2,0,0,1-1.2,1.2h0a1.2,1.2,0,0,1-1.2-1.2V37.36"/><path class="cls-1" d="M30,24.56H24.61a1.38,1.38,0,0,1-1.38-1.36,1.27,1.27,0,0,1,.54-1.08h0a3.35,3.35,0,0,1,.4-.25A4.21,4.21,0,0,1,26,21.31h.28a4.36,4.36,0,0,1,1.26.19h0A3.59,3.59,0,0,1,30,24.56Z"/><path class="cls-1" d="M36.12,20.12v.08a4.37,4.37,0,0,1-3,4.14,4.12,4.12,0,0,1-1.19.22h-.38V24a4,4,0,0,0-4-4h-.14a4.47,4.47,0,0,1,.22-1.2,4.36,4.36,0,0,1,4-3h.09A4.37,4.37,0,0,1,36.12,20.12Z"/><path class="cls-5" d="M33.36,22.89V23a4.18,4.18,0,0,1-.23,1.38,4.12,4.12,0,0,1-1.19.22h-.38V24a4,4,0,0,0-4-4h-.14a4.47,4.47,0,0,1,.22-1.2,4.3,4.3,0,0,1,1.29-.22H29A4.37,4.37,0,0,1,33.36,22.89Z"/><path class="cls-6" d="M30.56,35h0a1.2,1.2,0,0,1,1.2,1.2v3.73a1.2,1.2,0,0,1-1.2,1.2h0a1.2,1.2,0,0,1-1.2-1.2V37.36"/><path class="cls-6" d="M27.94,20a5.1,5.1,0,1,1,10.21,0"/><path class="cls-6" d="M31.56,24a4,4,0,0,0-4-4h-.14a4,4,0,0,0-3.22,1.83,2.9,2.9,0,0,0-.21.38A3.89,3.89,0,0,0,23.56,24"/></svg>