<svg id="Layer_1" data-name="Layer 1" xmlns="http://www.w3.org/2000/svg" viewBox="0 0 64 64"><defs><style>.cls-1{fill:#9dcbf4;}.cls-2,.cls-6{fill:none;stroke-linecap:round;stroke-linejoin:round;stroke-width:2px;}.cls-2{stroke:#9dcbf4;}.cls-3{fill:#fff;}.cls-4{fill:#a8d2f0;}.cls-5{fill:#389ad6;}.cls-6{stroke:#295183;}.cls-7{fill:#295183;}</style></defs><title>Laptop shopping</title><circle class="cls-1" cx="25.99" cy="8" r="1"/><path class="cls-2" d="M7.67,36.78A19.19,19.19,0,0,1,10.2,21.94"/><path class="cls-2" d="M54.9,24.49A24.13,24.13,0,0,1,53.6,44.2"/><polygon class="cls-3" points="30.69 11.8 34.82 13.56 35.81 19.5 35.81 22.89 45.99 23 50.31 25.31 49.94 50.46 35.31 49.94 28.87 20.77 30.69 11.8"/><path class="cls-4" d="M36.6,50.15c0,.1.07.21.11.3l-20.45-.07a1.44,1.44,0,0,1-1.44-1.44V25.57a2.64,2.64,0,0,1,1-2.1,1.44,1.44,0,0,1,.88-.29h7.08a3,3,0,0,0,0,.52l-.33,4.62-.86,11.92A3.35,3.35,0,0,0,26,43.48l8.58,0c0,.21-.07.4-.11.6l1.06-.5a1.44,1.44,0,0,1,.61-.14h0a1.44,1.44,0,0,1,1.23,2.18A5.35,5.35,0,0,0,36.6,50.15Z"/><path class="cls-5" d="M22.57,32c-.51,1.93-1.11,3.82-1.47,5.79a13.6,13.6,0,0,0-.3,4.77,4,4,0,0,0,2.67,3.14,20.23,20.23,0,0,0,7.66.87c1.36-.08,7.67,0,6.47-2.7H28.87Z"/><path class="cls-5" d="M16.32,23.18h7.49a3,3,0,0,0,0,.52l-.33,4.62a25.06,25.06,0,0,0-8.61,9.52V25.57A2.64,2.64,0,0,1,16.32,23.18Z"/><path class="cls-4" d="M45,23.18H43.56c.32-.11.65-.21,1-.28a1.35,1.35,0,0,1,.28-.08.2.2,0,0,1,0,.08A2.48,2.48,0,0,1,45,23.18Z"/><path class="cls-4" d="M34.21,24C34.1,27.34,34,35.3,35,39.87a2.8,2.8,0,0,1-2.68,3.47c-3.11,0-6.92-.18-8.1-1.34-1.86-1.84-1.87-4.81-1.85-5.44,0-.08,0-.15,0-.23l1.65-13.2A2.79,2.79,0,0,1,25.61,21h0A2.79,2.79,0,0,1,27,20.68l4.19.2a2.79,2.79,0,0,1,1.46.5l.37.26A2.79,2.79,0,0,1,34.21,24Z"/><rect class="cls-5" x="14.42" y="50.38" width="35.51" height="3.64" rx="1.82" ry="1.82"/><path class="cls-6" d="M44.21,22.89H47.3a2.64,2.64,0,0,1,2.64,2.64V47"/><path class="cls-6" d="M18.09,54H48.17a1.82,1.82,0,0,0,0-3.64H14.82V25.57a2.64,2.64,0,0,1,1.5-2.39,2.58,2.58,0,0,1,1.19-.28h2.16"/><path class="cls-6" d="M32.53,32.41a2.29,2.29,0,1,1,2.29-2.29"/><line class="cls-6" x1="32.53" y1="27.84" x2="32.53" y2="25.81"/><line class="cls-6" x1="32.53" y1="36.99" x2="32.53" y2="39.02"/><path class="cls-6" d="M32.53,32.41a2.29,2.29,0,1,1-2.29,2.29"/><path class="cls-6" d="M33.11,20.76s-.42,1.87,1.48,1.87,1.71-2.16,1.71-2.16a3.89,3.89,0,1,0-7.79,0l-1.32,0a3.38,3.38,0,0,0-3.38,2.73,3,3,0,0,0,0,.52l-.33,4.62-.86,11.92A3.35,3.35,0,0,0,26,43.48H38.82a3.35,3.35,0,0,0,3.43-3.24l-1.34-16-.09-1,0-.36"/><rect class="cls-6" x="30.24" y="12.4" width="4.34" height="4.34"/><circle class="cls-7" cx="14.83" cy="54.02" r="0.98"/><line class="cls-2" x1="25.99" y1="11.8" x2="25.99" y2="15"/><line class="cls-2" x1="21.81" y1="10" x2="21.81" y2="18.07"/><line class="cls-2" x1="39" y1="10.46" x2="39" y2="17.62"/></svg>