<svg xmlns="http://www.w3.org/2000/svg" viewBox="0 0 64 64"><defs><style>.cls-1{fill:#9ac8f1;}.cls-2{fill:#389ad6;}.cls-3{fill:none;stroke:#295183;stroke-linecap:round;stroke-linejoin:round;stroke-width:2px;}.cls-4{fill:#295183;}</style></defs><title>leaf, green, nature, smart home</title><g id="Layer_4" data-name="Layer 4"><path class="cls-1" d="M21.5,24.55s1.9,1.34,1.56,4.67,2.49,2.46,3.46,1.33,2.92-2,3.94-1.33S23.3,41.74,23.3,41.74,17.53,30.55,21.5,24.55Z"/><path class="cls-2" d="M20.29,24.88a1,1,0,0,0-1-1.37c-2,.25-5,1.69-4.52,8.11.72,9.63,8.52,10.12,8.52,10.12S17.18,31.43,20.29,24.88Z"/><path class="cls-2" d="M30.47,29.22s-1.17-1.67-3.42,1.83-4.44,8.5-3.55,11,4-7.83,4-7.83Z"/><path class="cls-3" d="M34.89,48.74l-.27-.86c-.08-.26-.16-.52-.25-.78l0-.09a25.12,25.12,0,0,0-1.55-3.43"/><path class="cls-3" d="M23.06,43.36c-5.59-1.23-18.75-6.42-9.48-27.3a19.4,19.4,0,0,0,6.18,4.26"/><path class="cls-3" d="M33.22,43.45c.31,1.21.74,2.41,1.12,3.56l0,.09c.09.27.17.52.25.78l.27.86"/><path class="cls-3" d="M30.84,29.22A29.9,29.9,0,0,0,27.35,35a78.28,78.28,0,0,0-4.83,14.5s0,0,0,0c-.1.43-.21.86-.31,1.27"/><path class="cls-3" d="M32.68,43.61l-1.84.27c.14,0,2.23-.39,2.38-.43,6.25-2,19.14-8.73,8-30.23,0,0-4.77,6.23-14.95,7.89a7.57,7.57,0,0,0-2.23.7c-3.08,1.53-4.38,5-4.25,8.58.13,3.85,2.07,6.63,3,10.22a19.52,19.52,0,0,1-.22,8.89h0c-.09.43-.2.85-.31,1.27"/><circle class="cls-4" cx="27.88" cy="44.55" r="1"/></g></svg>