<svg xmlns="http://www.w3.org/2000/svg" viewBox="0 0 64 64"><defs><style>.cls-1{fill:none;stroke:#295183;stroke-linecap:round;stroke-linejoin:round;stroke-width:2px;}.cls-2{fill:#295183;}.cls-3{fill:#a8d2f0;}.cls-4{fill:#389ad6;}</style></defs><title>light, flash, lightbulb, smart home</title><g id="Layer_4" data-name="Layer 4"><path class="cls-1" d="M31.18,45.33h1.48a2,2,0,0,1,1.94,1.94h0a2,2,0,0,1-1.94,1.94H30.19"/><circle class="cls-2" cx="32.3" cy="52.79" r="0.97"/><path class="cls-3" d="M29.46,17.13h.1a1.88,1.88,0,0,1,1.84,2.81,7.27,7.27,0,0,0-.09,7.24c.92,1.64,2,3.77,4.09,4.06a3.78,3.78,0,0,0,2.39-.6c.46-.27,1.3-1.2,1.82-.51a1,1,0,0,1,.08.77c-.48,2.49-1.71,2.77-4.16,3.43-4.41,1.19-10.25-1.07-11.93-5.51-1.38-3.64.65-8.39,3.34-10.59A5.22,5.22,0,0,1,29.46,17.13Z"/><path class="cls-4" d="M25.49,20.51a1,1,0,0,1,.8-.22,1.06,1.06,0,0,1,.75,1,5.45,5.45,0,0,1-.77,2.49,4.85,4.85,0,0,0-.68,3.06c.14.6,1.12,1.83.21,2.25a1.44,1.44,0,0,1-1.57-.38,3,3,0,0,1-.71-1.55A7.9,7.9,0,0,1,24,22.78a6.41,6.41,0,0,1,1.12-1.91A2.36,2.36,0,0,1,25.49,20.51Z"/><line class="cls-3" x1="29.38" y1="34.78" x2="33.09" y2="34.63"/><line class="cls-1" x1="32" y1="10.24" x2="32" y2="13.65"/><line class="cls-1" x1="39.78" y1="12.16" x2="38.18" y2="15.18"/><line class="cls-1" x1="24.44" y1="12.07" x2="25.99" y2="15.11"/><path class="cls-3" d="M30,41.22l-1.68-8.4s6.82.6,7.19,1.49c0,0-2.79,1.21-2.45,7.13"/><path class="cls-3" d="M29.46,17.13h.1a1.88,1.88,0,0,1,1.84,2.81,7.27,7.27,0,0,0-.09,7.24c.92,1.64,2,3.77,4.09,4.06a3.78,3.78,0,0,0,2.39-.6c.46-.27,1.3-1.2,1.82-.51a1,1,0,0,1,.08.77c-.48,2.49-1.71,2.77-4.16,3.43-4.41,1.19-10.25-1.07-11.93-5.51-1.38-3.64.65-8.39,3.34-10.59A5.22,5.22,0,0,1,29.46,17.13Z"/><path class="cls-4" d="M25.49,20.51a1,1,0,0,1,.8-.22,1.06,1.06,0,0,1,.75,1,5.45,5.45,0,0,1-.77,2.49,4.85,4.85,0,0,0-.68,3.06c.14.6,1.12,1.83.21,2.25a1.44,1.44,0,0,1-1.57-.38,3,3,0,0,1-.71-1.55A7.9,7.9,0,0,1,24,22.78a6.41,6.41,0,0,1,1.12-1.91A2.36,2.36,0,0,1,25.49,20.51Z"/><line class="cls-1" x1="32" y1="10.24" x2="32" y2="13.65"/><line class="cls-1" x1="39.78" y1="12.16" x2="38.18" y2="15.18"/><line class="cls-1" x1="24.44" y1="12.07" x2="25.99" y2="15.11"/><path class="cls-4" d="M28.26,41.48c.88-.61-1.69-8.94-1.69-8.94l2.15-.4S32,33.4,31.23,40.39"/><path class="cls-1" d="M40.81,28.24a9.08,9.08,0,0,0,.36-2.13,9.3,9.3,0,0,0-8.79-9.65,9.19,9.19,0,0,0-9.58,9.18,8.36,8.36,0,0,0,2.06,5.79l13.93-.07a.25.25,0,0,1,.24.34l-3.5,9.44-.11.08h-6.9l-.07-.05L26,34.28l2.17,6.14,1.19,3.35c.3.85.79,1.57,1.79,1.57h1.48"/><line class="cls-1" x1="29.39" y1="41.22" x2="34.62" y2="41.22"/></g></svg>