<svg xmlns="http://www.w3.org/2000/svg" viewBox="0 0 64 64"><defs><style>.cls-1{fill:#a8d2f0;}.cls-2{fill:#389ad6;}.cls-3{fill:none;stroke:#295183;stroke-linecap:round;stroke-linejoin:round;stroke-width:2px;}.cls-4{fill:#295183;}</style></defs><title>lightbulb, light, lighting, flashlight</title><g id="Layer_4" data-name="Layer 4"><path class="cls-1" d="M27.76,19.35h.12c1.9-.17,3.23,1.19,2.3,2.29a4.2,4.2,0,0,0-.11,5.89c1.15,1.33,2.54,3.07,5.13,3.31a6.81,6.81,0,0,0,3-.49c.58-.22,1.63-1,2.28-.41a.56.56,0,0,1,.1.63c-.6,2-2.14,2.26-5.21,2.79-5.52,1-12.84-.87-14.95-4.48-1.73-3,.82-6.83,4.19-8.62A8.62,8.62,0,0,1,27.76,19.35Z"/><path class="cls-1" d="M35.79,33.27S31.67,35.62,34,41.06,27.44,44.67,28,37.75s-.86-7.17,1.56-7,6,2.21,6,2.21Z"/><path class="cls-2" d="M20.32,24.23a1.21,1.21,0,0,1,.61-.76,1.25,1.25,0,0,1,1.4.43,6.43,6.43,0,0,1,1,2.92,5.72,5.72,0,0,0,1.45,3.41c.55.48,2.33,1,1.74,2a1.71,1.71,0,0,1-1.78.71A3.54,3.54,0,0,1,23,32a9.33,9.33,0,0,1-2.54-4.52,7.56,7.56,0,0,1-.24-2.6A2.79,2.79,0,0,1,20.32,24.23Z"/><path class="cls-1" d="M33.21,44.94l-4.38.18a2,2,0,0,1-2.08-1.91h0a2,2,0,0,1,1.91-2.08L33,40.95a2,2,0,0,1,2.08,1.91h0A2,2,0,0,1,33.21,44.94Z"/><path class="cls-1" d="M33.08,49.1l-2.65.14c-.66,0-1.24-.83-1.28-1.93h0c0-1.1.47-2,1.14-2.06l2.65-.14c.66,0,1.24.83,1.28,1.93h0C34.25,48.13,33.74,49.06,33.08,49.1Z"/><path class="cls-2" d="M32.17,48.17a.36.36,0,0,1-.05.09.43.43,0,0,1,0,.07l0,0a1.7,1.7,0,0,1-1.36.82,1.72,1.72,0,0,1-1.76-1.72l0-.38a1.83,1.83,0,0,1,1.22-1.81l-.1-.46a1.59,1.59,0,0,1-.8.24,1.8,1.8,0,0,1-1.89-1.73v-.38a1.81,1.81,0,0,1,1.73-1.88h.07A1.82,1.82,0,0,1,31,42.79v.38a1.84,1.84,0,0,1,0,.41h0a2.49,2.49,0,0,0,.68,1.92s0,0,0,0a2.61,2.61,0,0,0,.29.28h0A1.79,1.79,0,0,1,32.17,48.17Z"/><path class="cls-3" d="M28.74,45.17h6.42a2,2,0,0,1,2,2h0a2,2,0,0,1-2,2H28.74"/><circle class="cls-4" cx="31.76" cy="52.86" r="1"/><line class="cls-3" x1="31.76" y1="10.14" x2="31.76" y2="14.17"/><line class="cls-3" x1="40.94" y1="12.41" x2="39.05" y2="15.98"/><line class="cls-3" x1="22.83" y1="12.3" x2="24.66" y2="15.89"/><path class="cls-3" d="M35.16,45.17H28.74a2,2,0,0,1-2-2,2,2,0,0,1,2-2h3c4.84,0,4.44-3.19,4.44-3.19V35.06a2.25,2.25,0,0,1,1.94-2.2,6.77,6.77,0,0,0,3.93-1.92,7,7,0,0,0,1.8-6.84,7.16,7.16,0,0,0-7-5.1h-9.8a7,7,0,0,0-4.94,2.06A7.15,7.15,0,0,0,20.38,28a8.85,8.85,0,0,0,1.8,3.26,5,5,0,0,0,2.5,1.54c.73.2,1.47.16,2.21.29a1.55,1.55,0,0,1,1.19,1.55A32.16,32.16,0,0,1,28,38"/></g></svg>