<svg id="Layer_1" data-name="Layer 1" xmlns="http://www.w3.org/2000/svg" viewBox="0 0 64 64"><defs><style>.cls-1{fill:#389ad6;}.cls-2,.cls-4{fill:none;stroke-linecap:round;stroke-linejoin:round;stroke-width:2px;}.cls-2{stroke:#295183;}.cls-3{fill:#a8d2f0;}.cls-4{stroke:#a8d2f0;}.cls-5{fill:#295183;}</style></defs><title>Load into truck</title><path class="cls-1" d="M18.35,36.72c.15-.22.48-.1.87-.09,2,.05,4,.09,6,.06a34.58,34.58,0,0,1,3.72,0c1,.09,2.32.21,2.87,1.19.38.68.18,1.33,1,1.62.23.08.48.23.51.47s-.44.56-.81.61a30.7,30.7,0,0,1-9.13.49,7.57,7.57,0,0,1-3.48-1.28,4.21,4.21,0,0,1-1.39-1.78A2.5,2.5,0,0,1,18.27,37,.53.53,0,0,1,18.35,36.72Z"/><path class="cls-2" d="M45.08,44.37a2.39,2.39,0,0,1-4.77,0"/><path class="cls-2" d="M26.85,44.37a2.39,2.39,0,0,1-4.77,0"/><path class="cls-3" d="M41.79,28.18a29.48,29.48,0,0,0,3.35,10.55,1.78,1.78,0,0,1-1.55,2.67H40a2.85,2.85,0,0,1-2.85-2.87l.06-13h1.52A3.1,3.1,0,0,1,41.79,28.18Z"/><path class="cls-2" d="M40,25.49a3,3,0,0,0-2.79,3v9.68"/><path class="cls-2" d="M40,25.48l4.65,0a2.55,2.55,0,0,1,2.45,1.91L50,38.52a2.87,2.87,0,0,1-2.86,2.86H22.4a5.1,5.1,0,0,1-5.09-5.09H33.17"/><polyline class="cls-2" points="40.99 29.12 40.99 33.63 44.75 33.63"/><polyline class="cls-4" points="23.94 17.24 23.94 20.16 21.41 20.16 26.3 25.8 31.19 20.16 28.66 20.16"/><polyline class="cls-2" points="23.94 23.02 23.94 25.94 21.41 25.94 26.3 31.58 31.19 25.94 28.66 25.94"/><path class="cls-3" d="M28.3,18.24a1,1,0,0,0,1-1h0a1,1,0,0,0-2,0h0A1,1,0,0,0,28.3,18.24Z"/><path class="cls-5" d="M28.3,24a1,1,0,0,0,1-1h0a1,1,0,0,0-2,0h0A1,1,0,0,0,28.3,24Z"/><circle class="cls-5" cx="14.5" cy="48.46" r="1"/><line class="cls-2" x1="37" y1="48.46" x2="17.72" y2="48.46"/><line class="cls-2" x1="50" y1="48.46" x2="41" y2="48.46"/></svg>