<svg id="Layer_1" data-name="Layer 1" xmlns="http://www.w3.org/2000/svg" viewBox="0 0 64 64"><defs><style>.cls-1{fill:#a8d2f0;}.cls-2,.cls-4{fill:none;stroke-linecap:round;stroke-linejoin:round;stroke-width:2px;}.cls-2{stroke:#2a5081;}.cls-3{fill:#389ad6;}.cls-4{stroke:#2a5080;}</style></defs><title>Location</title><path class="cls-1" d="M31,52.08l-.56,0h-.69A16.23,16.23,0,0,1,13.86,36.26c0-.13,0-.25,0-.38s0-.25,0-.38A16.22,16.22,0,0,1,23,21.25a24.44,24.44,0,0,0,8,30.83Z"/><path class="cls-2" d="M30.51,19.65h-.74A16.23,16.23,0,0,0,13.86,35.5c0,.13,0,.25,0,.38s0,.25,0,.38A16.23,16.23,0,0,0,29.77,52.12h.69l.56,0"/><path class="cls-2" d="M30.1,46a24,24,0,0,1-8-1.33c-4.74-1.69-8-4.83-8.2-8.45,0-.13,0-.25,0-.38s0-.25,0-.38A7.58,7.58,0,0,1,16,30.84,12.33,12.33,0,0,1,18.3,28.9a16.19,16.19,0,0,1,2-1.11,19.07,19.07,0,0,1,1.78-.74,22.29,22.29,0,0,1,3.75-1"/><path class="cls-2" d="M30.46,52.11h-.69c-3.23-.19-6.05-3.09-7.7-7.41a24.91,24.91,0,0,1-1.54-8.83,24.91,24.91,0,0,1,1.54-8.83c1.65-4.32,4.47-7.22,7.7-7.41"/><path class="cls-3" d="M42.23,34.64a.9.9,0,0,1,0,.09c0,1-1.66,1.34-2.36,1.51a10.11,10.11,0,0,1-5.33-.19c-.51-.17-2.19-.87-1.71-1.64a3.18,3.18,0,0,1,2.68-1.2,22.08,22.08,0,0,1,5.06.24,3,3,0,0,1,1.06.37A1.24,1.24,0,0,1,42.23,34.64Z"/><path class="cls-1" d="M42.06,14.53s3.67,2,0,4.39c0,0-4.46-1.24-4.46,4.45l3,3.73S43,28.41,42.06,30.3a5.37,5.37,0,0,0-.49,3.47L40,31.05l-5-2L32.64,22.6l2.62-6.43,5.24-2.29Z"/><path class="cls-2" d="M29.15,52.08l.56,0h.69a16.25,16.25,0,0,0,13.88-8.37,17.61,17.61,0,0,0,2.23-8.41"/><path class="cls-2" d="M28.62,19.83a5.57,5.57,0,0,1,1-.18h.74a11.14,11.14,0,0,1,3,.34"/><path class="cls-2" d="M30.08,46a24,24,0,0,0,8-1.33"/><path class="cls-2" d="M39.26,40.48A13.44,13.44,0,0,0,39.47,39"/><path class="cls-2" d="M29.72,52.11h.69c3.23-.19,6.05-3.09,7.7-7.41a21.6,21.6,0,0,0,.75-2.38"/><line class="cls-2" x1="29.77" y1="19.64" x2="29.77" y2="52.11"/><path class="cls-4" d="M39.62,31.05a8.57,8.57,0,1,1,5.88-.73l-.44.21"/><polyline class="cls-4" points="42.84 32.24 41.57 34.44 39.62 31.05"/><circle class="cls-4" cx="41.57" cy="22.6" r="4.04"/></svg>