<svg xmlns="http://www.w3.org/2000/svg" viewBox="0 0 64 64"><defs><style>.cls-1{fill:#3897d3;}.cls-2{fill:#a5cfed;}.cls-3,.cls-4,.cls-5{fill:none;stroke-linecap:round;stroke-linejoin:round;stroke-width:2px;}.cls-3{stroke:#a5cfed;}.cls-4{stroke:#295181;}.cls-5{stroke:#295183;}.cls-6{fill:#295181;}</style></defs><title>lock, arrow, arrows, smart home</title><g id="Layer_4" data-name="Layer 4"><path class="cls-1" d="M22.86,23h.65a4.84,4.84,0,0,1,4.84,4.84V45.17a0,0,0,0,1,0,0H22.86A4.84,4.84,0,0,1,18,40.33V27.81A4.84,4.84,0,0,1,22.86,23Z"/><path class="cls-2" d="M43,40.27v.07a4.85,4.85,0,0,1-4.84,4.83H26.49A17.36,17.36,0,0,1,25.17,23h7.05a12.54,12.54,0,0,0-.89,4.67A12.68,12.68,0,0,0,43,40.27Z"/><path class="cls-3" d="M24.37,18a6,6,0,0,1,6.18-5.77h0A6,6,0,0,1,36.74,18"/><path class="cls-4" d="M18.27,26.27A4.77,4.77,0,0,0,18,27.81V40.34a4.84,4.84,0,0,0,4.83,4.83h15.3A4.85,4.85,0,0,0,43,40.34V27.81A4.85,4.85,0,0,0,38.15,23H22.85"/><path class="cls-4" d="M22.85,23V18.39a7.75,7.75,0,0,1,7.73-7.73h0a7.75,7.75,0,0,1,7.73,7.73"/><path class="cls-5" d="M32.07,35.2l.77,5.39h-4.5l.77-5.39a3,3,0,1,1,4.48-2.61"/><circle class="cls-6" cx="19.88" cy="23.92" r="1"/><path class="cls-4" d="M43.38,17.08a6.21,6.21,0,0,1,6.21,6.21h2.9l-2.89,6.29L47.08,26"/><path class="cls-4" d="M11.5,43.67a6.21,6.21,0,0,0,6.21,6.21v3.45l5.47-3L20.66,48.5"/></g></svg>