<svg xmlns="http://www.w3.org/2000/svg" viewBox="0 0 64 64"><defs><style>.cls-1{fill:#9ac8f1;}.cls-2{fill:#3897d3;}.cls-3,.cls-6{fill:none;stroke-linecap:round;stroke-linejoin:round;stroke-width:2px;}.cls-3{stroke:#2a5080;}.cls-4{fill:#2a5080;}.cls-5{fill:#a5cfed;}.cls-6{stroke:#295181;}</style></defs><title>lock, smartphone, smart, phone, home</title><g id="Layer_4" data-name="Layer 4"><path class="cls-1" d="M40.27,28.19v11c0,3.39-3.24,6.16-6.63,6.16H29.73a3.15,3.15,0,0,1-3.14-3.14V33.39l3,3L29,31.08c1.27-.36,2.92.49,3.79-1h0c.91-1,0-6.16,0-7.63l2.87-.1C38.09,23.23,40.27,25.51,40.27,28.19Z"/><path class="cls-2" d="M30,34.94s-3.49,5.24-5.73,3.91,1.26-4.14,1.26-4.14Z"/><path class="cls-2" d="M30,41.47c0,2.26-.9,3-1.72,3.18,0,.62-.39,1.1-.84,1.1s-.84-.52-.84-1.15V31.08h1.88C30.09,32.17,30,37.82,30,41.47Z"/><path class="cls-3" d="M35.55,18.59h5a5.23,5.23,0,0,1,5.21,5.21V45.62a5.23,5.23,0,0,1-5.21,5.21H29.5a5.23,5.23,0,0,1-5.21-5.21V35.47"/><polyline class="cls-3" points="42.71 26.73 42.71 45.35 37.61 45.35"/><line class="cls-3" x1="32.47" y1="45.35" x2="27.48" y2="45.35"/><path class="cls-3" d="M32.47,45.35a2.57,2.57,0,1,0,5.14,0"/><circle class="cls-4" cx="42.71" cy="23.39" r="0.92"/><path class="cls-2" d="M19.7,22h3.08a1.48,1.48,0,0,1,1.48,1.48v11.5a0,0,0,0,1,0,0H19.7a1.48,1.48,0,0,1-1.48-1.48v-10A1.48,1.48,0,0,1,19.7,22Z"/><path class="cls-5" d="M32.82,32.08v0A2.84,2.84,0,0,1,30,34.94H23.17a10.16,10.16,0,0,1-.77-13h4.13A7.33,7.33,0,0,0,26,24.69,7.42,7.42,0,0,0,32.82,32.08Z"/><path class="cls-6" d="M18.22,25.87v6.25A2.83,2.83,0,0,0,21,34.94H30a2.84,2.84,0,0,0,2.83-2.82V24.79A2.84,2.84,0,0,0,30,22H21"/><path class="cls-6" d="M21,22V19.28a4.53,4.53,0,0,1,4.52-4.52h0a4.53,4.53,0,0,1,4.52,4.52"/></g></svg>