<svg xmlns="http://www.w3.org/2000/svg" viewBox="0 0 64 64"><defs><style>.cls-1,.cls-5{fill:none;stroke-linecap:round;stroke-linejoin:round;stroke-width:2px;}.cls-1{stroke:#295183;}.cls-2{fill:#a8d2f0;}.cls-3{fill:#3897d3;}.cls-4{fill:#a5cfed;}.cls-5{stroke:#295181;}.cls-6{fill:#295183;}</style></defs><title>lock, window, door, smart home</title><g id="Layer_4" data-name="Layer 4"><path class="cls-1" d="M29.63,53.64h-14a2.46,2.46,0,0,1-2.46-2.46V17.78a2.46,2.46,0,0,1,2.46-2.46h14"/><path class="cls-2" d="M22.91,15.61s3.74.86,4,8.42-4.35,17.69,5.69,21.91,4.16,7.7,2.39,8-20.2-.48-20.2-.48-1.53,1.12-1.53-11.68V16.42S19.39,14.8,22.91,15.61Z"/><path class="cls-1" d="M46.05,51a2.5,2.5,0,0,1-2.46,2.63h-14"/><line class="cls-1" x1="29.63" y1="15.32" x2="36.25" y2="15.32"/><path class="cls-3" d="M38.21,18.32c-.71,3.74-6.43,7.53-4.29,11.61,1.91,3.62,9.63,2.61,12.3.2.77-.69,1.77-2.58-.17-2.63-2.52-.06-6.91,1.46-7.78-2.73A16.26,16.26,0,0,1,38.21,18.32Z"/><line class="cls-1" x1="32.94" y1="31.43" x2="32.94" y2="36.86"/><line class="cls-1" x1="26.27" y1="31.43" x2="26.27" y2="36.86"/><path class="cls-1" d="M46.05,40v11.2a2.46,2.46,0,0,1-2.46,2.46H15.68a2.46,2.46,0,0,1-2.46-2.46V17.78a2.46,2.46,0,0,1,2.46-2.46H36.95"/><line class="cls-1" x1="34.48" y1="24.9" x2="13.22" y2="24.9"/><line class="cls-1" x1="46.05" y1="34.48" x2="13.22" y2="34.48"/><line class="cls-1" x1="46.05" y1="44.06" x2="13.22" y2="44.06"/><line class="cls-1" x1="21.43" y1="53.64" x2="21.43" y2="15.32"/><line class="cls-1" x1="29.63" y1="53.64" x2="29.63" y2="18.86"/><line class="cls-1" x1="37.84" y1="53.64" x2="37.84" y2="34.48"/><path class="cls-2" d="M14.75,22.48c0-.07,0-.14,0-.21q0-1.75.12-3.5c0-.51,0-1.15.48-1.48a6.24,6.24,0,0,1,2.27-.38,2,2,0,0,1,1.16.13c.71.36.57,1.25.58,1.91,0,1.14.72,3.12-.16,4.08a1.78,1.78,0,0,1-1.29.48c-.78,0-2.31.1-2.94-.47A.82.82,0,0,1,14.75,22.48Z"/><path class="cls-2" d="M14.75,31.91c0-.07,0-.14,0-.21q0-1.75.12-3.5c0-.51,0-1.15.48-1.48a6.24,6.24,0,0,1,2.27-.38,2,2,0,0,1,1.16.13c.71.36.57,1.25.58,1.91,0,1.14.72,3.12-.16,4.08a1.78,1.78,0,0,1-1.29.48c-.78,0-2.31.1-2.94-.47A.82.82,0,0,1,14.75,31.91Z"/><path class="cls-2" d="M14.75,41.51c0-.07,0-.14,0-.21q0-1.75.12-3.5c0-.51,0-1.15.48-1.48a6.24,6.24,0,0,1,2.27-.38,2,2,0,0,1,1.16.13c.71.37.57,1.25.58,1.91,0,1.14.72,3.12-.16,4.08a1.78,1.78,0,0,1-1.29.48c-.78,0-2.31.1-2.94-.47A.82.82,0,0,1,14.75,41.51Z"/><path class="cls-2" d="M14.75,51.26c0-.07,0-.14,0-.21q0-1.75.12-3.5c0-.51,0-1.15.48-1.48a6.24,6.24,0,0,1,2.27-.38,2,2,0,0,1,1.16.13c.71.36.57,1.25.58,1.91,0,1.14.72,3.12-.16,4.08a1.78,1.78,0,0,1-1.29.48c-.78,0-2.31.1-2.94-.47A.82.82,0,0,1,14.75,51.26Z"/><path class="cls-2" d="M22.92,51.26c0-.07,0-.14,0-.21q0-1.75.12-3.5c0-.51,0-1.15.48-1.48a6.24,6.24,0,0,1,2.27-.38,2,2,0,0,1,1.16.13c.71.36.57,1.25.58,1.91,0,1.14.72,3.12-.16,4.08a1.78,1.78,0,0,1-1.29.48c-.78,0-2.31.1-2.94-.47A.82.82,0,0,1,22.92,51.26Z"/><path class="cls-3" d="M39.33,17.79h2.39a1.48,1.48,0,0,1,1.48,1.48v10a0,0,0,0,1,0,0H39.32a1.48,1.48,0,0,1-1.48-1.48V19.27A1.48,1.48,0,0,1,39.33,17.79Z"/><path class="cls-4" d="M50.78,26.75v0a2.51,2.51,0,0,1-2.51,2.5h-6a9,9,0,0,1-.68-11.5h3.66a6.5,6.5,0,0,0-.46,2.42A6.57,6.57,0,0,0,50.78,26.75Z"/><path class="cls-5" d="M37.85,21.25v5.54a2.51,2.51,0,0,0,2.5,2.5h7.93a2.51,2.51,0,0,0,2.51-2.5V20.29a2.51,2.51,0,0,0-2.51-2.51H40.35"/><path class="cls-5" d="M40.35,17.79V15.41a4,4,0,0,1,4-4h0a4,4,0,0,1,4,4"/><circle class="cls-6" cx="46.05" cy="36.86" r="0.89"/></g></svg>