<svg xmlns="http://www.w3.org/2000/svg" viewBox="0 0 64 64"><defs><style>.cls-1{fill:#a5cfed;}.cls-2,.cls-5{fill:none;stroke-linecap:round;stroke-linejoin:round;stroke-width:2px;}.cls-2{stroke:#2a5081;}.cls-3{fill:#2a5081;}.cls-4{fill:#3897d3;}.cls-5{stroke:#295181;}</style></defs><title>lock, house, home, smart home</title><g id="Layer_4" data-name="Layer 4"><path class="cls-1" d="M31.91,17.8c-1.44,3.11-2.91,6.43-2.51,9.83a5.12,5.12,0,0,1,0,1.94,5.32,5.32,0,0,0-.25.85c-.05.53.26,1,.3,1.56a4.48,4.48,0,0,1-.62,1.93,4.72,4.72,0,0,0-.35,2c0,.19.51,2.08.54,2.08a1,1,0,0,1-.55-.09c1.16.53,1.25,2,1.24,3.15a9.74,9.74,0,0,1-.44,3.36,3.84,3.84,0,0,1-2.26,2.39,3.7,3.7,0,0,1-3.68-1.09,7.29,7.29,0,0,1-1.71-3.61c-.82-3.82-.07-7.79-.18-11.7a2.38,2.38,0,0,0-.35-1.4c-.51-.67-1.52-.64-2.36-.55,4-4,8.12-8.09,13.15-10.72Z"/><path class="cls-2" d="M21.29,28.53H18a.27.27,0,0,1-.16-.47l14-11a.27.27,0,0,1,.33,0l14,11a.27.27,0,0,1-.16.47H42"/><line class="cls-2" x1="21.29" y1="41.05" x2="21.29" y2="28.53"/><polyline class="cls-2" points="42 28.53 42 45.05 25.92 45.05"/><circle class="cls-3" cx="21.29" cy="44.13" r="1"/><path class="cls-4" d="M29.41,30.35l-.05.07a1.79,1.79,0,0,0-.19.48c-.33,1-1.32,1.44-2.15,2a4,4,0,0,0-1.66,2.86c-.27,1.74-.29,4.42,1.66,5.21a10.22,10.22,0,0,0,2.5.64c1.44.19,3.69.17,4.21-1.54.9-2.93-3.38-.43-3.86-.54C29,39.3,28.25,37.76,28,37c-.66-2.39,1-4.11,2-6.06a2.14,2.14,0,0,0,.27-.7.24.24,0,0,0-.07-.24A.26.26,0,0,0,30,30,1.47,1.47,0,0,0,29.41,30.35Z"/><path class="cls-4" d="M29.4,39.4h1.48V34.51A1.48,1.48,0,0,0,29.4,33h0a1.48,1.48,0,0,0-1.48,1.48v3.4A1.48,1.48,0,0,0,29.4,39.4Z"/><path class="cls-1" d="M35.08,38v0a1.39,1.39,0,0,1-1.39,1.38H30.35A5,5,0,0,1,30,33h2a3.6,3.6,0,0,0-.25,1.34A3.64,3.64,0,0,0,35.08,38Z"/><path class="cls-5" d="M27.92,36.42V38A1.39,1.39,0,0,0,29.3,39.4h4.39A1.39,1.39,0,0,0,35.08,38V34.42A1.39,1.39,0,0,0,33.69,33H29.3"/><path class="cls-5" d="M29.3,33V31.72a2.22,2.22,0,0,1,2.22-2.22h0a2.22,2.22,0,0,1,2.22,2.22"/></g></svg>