<svg id="Layer_1" data-name="Layer 1" xmlns="http://www.w3.org/2000/svg" viewBox="0 0 64 64"><defs><style>.cls-1{fill:#3897d3;}.cls-2,.cls-4,.cls-5{fill:none;stroke-linecap:round;stroke-linejoin:round;stroke-width:2px;}.cls-2{stroke:#2a5080;}.cls-3{fill:#a6d0ee;}.cls-4{stroke:#a8d2f0;}.cls-5{stroke:#295183;}.cls-6{fill:#a8d2f0;}.cls-7{fill:#295183;}</style></defs><title>Mass Message</title><path class="cls-1" d="M22.33,32a5.88,5.88,0,0,0-4.39,4.58s-1.93.76-2,4.8c0,0,1.28,3.78,3.2,5.39s1.36-5.39,1.36-5.39S20.15,32.93,22.33,32Z"/><path class="cls-2" d="M23.7,49.5a6.78,6.78,0,0,1-6.76-6.76V34.67a5.53,5.53,0,0,1,0-.61,6.58,6.58,0,0,1,.77-2.58,7.61,7.61,0,0,1,.84-1.16"/><path class="cls-2" d="M15.4,28.13a7.93,7.93,0,0,0-.84,1.16,6.46,6.46,0,0,0-.77,2.58,4.61,4.61,0,0,0,0,.61v8.07A6.77,6.77,0,0,0,17,46.29"/><path class="cls-3" d="M28.44,51.39h0a7.82,7.82,0,0,1-7.79-7.79V36.31a5.62,5.62,0,0,1,0-.62,18,18,0,0,0,8.26,14A.92.92,0,0,1,28.44,51.39Z"/><path class="cls-1" d="M33.74,41.6a1.67,1.67,0,0,1-.64,1.16A16.62,16.62,0,0,1,31,44.2c-2.53,1.64-4.49,4-6.87,5.87-.36.28-.89.55-1.24.25L27,45.42a7.11,7.11,0,0,0,2-3.56A5.53,5.53,0,0,0,28,38.3a25.17,25.17,0,0,0-3.29-3.83c-.59-.6-1.18-1.21-1.74-1.85-.87-1,.15-.82.78-.26l9.48,8.38a1.58,1.58,0,0,1,.48.58A.81.81,0,0,1,33.74,41.6Z"/><line class="cls-2" x1="33.75" y1="41.25" x2="41.89" y2="33.84"/><path class="cls-2" d="M46.73,34.22V44.63A6.78,6.78,0,0,1,40,51.39H27.25a6.78,6.78,0,0,1-6.76-6.76V36.56a5.53,5.53,0,0,1,0-.61,6.58,6.58,0,0,1,.77-2.58,7.61,7.61,0,0,1,.84-1.16.84.84,0,0,1,.2-.17.92.92,0,0,1,1.11.08l10.31,9.14"/><path class="cls-2" d="M27.25,28.76h9c2.5,0,5.08-.29,7.39.88a5.45,5.45,0,0,1,3.11,5"/><line class="cls-2" x1="29.37" y1="45.35" x2="23.76" y2="50.4"/><polyline class="cls-4" points="41.18 25.01 43.25 22.94 45.04 24.73 45.57 17.29 38.12 17.82 39.91 19.61"/><polyline class="cls-5" points="43.86 22.34 45.92 20.27 47.71 22.06 48.24 14.61 40.79 15.14 42.58 16.93"/><path class="cls-6" d="M38.81,21.22a1,1,0,0,0-1.41,0h0a1,1,0,0,0,1.41,1.41h0A1,1,0,0,0,38.81,21.22Z"/><path class="cls-7" d="M41.48,18.55a1,1,0,0,0-1.41,0h0A1,1,0,0,0,41.48,20h0A1,1,0,0,0,41.48,18.55Z"/><polyline class="cls-4" points="26.38 21.67 24.31 19.61 26.1 17.82 18.66 17.29 19.19 24.73 20.98 22.94"/><polyline class="cls-5" points="23.71 19 21.64 16.93 23.43 15.14 15.98 14.61 16.52 22.06 18.3 20.27"/><path class="cls-6" d="M22.59,24a1,1,0,0,0,0,1.41h0A1,1,0,0,0,24,24h0A1,1,0,0,0,22.59,24Z"/><path class="cls-7" d="M19.92,21.37a1,1,0,0,0,0,1.41h0a1,1,0,0,0,1.41-1.41h0A1,1,0,0,0,19.92,21.37Z"/></svg>