<svg xmlns="http://www.w3.org/2000/svg" viewBox="0 0 64 64"><defs><style>.cls-1{fill:#389ad6;}.cls-2{fill:#a8d2f0;}.cls-3{fill:none;stroke:#295183;stroke-linecap:round;stroke-linejoin:round;stroke-width:2px;}.cls-4{fill:#295183;}</style></defs><title>measure, tape, film, smart home</title><g id="Layer_4" data-name="Layer 4"><path class="cls-1" d="M47,21.92c.24.4.4,7.15-7.43,7.73s-5.49,6.28-1,5.58,10-4.44,9.78-8.68S47,21.92,47,21.92Z"/><path class="cls-2" d="M28.88,11.4s-4.4,4.58.38,5.92-12.55.56-12.55.56-4-4.68,3.33-6.41C20.07,11.45,28.88,11.4,28.88,11.4Z"/><path class="cls-3" d="M15.79,11.88H39.7a8.71,8.71,0,0,1,8.68,8.68h0a8.71,8.71,0,0,1-8.68,8.68H24.44"/><path class="cls-3" d="M15.73,17.88H39.64a8.71,8.71,0,0,1,8.68,8.68h0a8.71,8.71,0,0,1-8.68,8.68H24.38"/><path class="cls-3" d="M48.35,46.6H24.44a8.71,8.71,0,0,1-8.68-8.68h0a8.71,8.71,0,0,1,8.68-8.68H39.7"/><path class="cls-3" d="M48.29,52.6H24.38a8.71,8.71,0,0,1-8.68-8.68h0a8.71,8.71,0,0,1,8.68-8.68H39.64"/><circle class="cls-4" cx="40.54" cy="14.88" r="1"/><circle class="cls-4" cx="34.04" cy="14.88" r="1"/><circle class="cls-4" cx="27.54" cy="14.88" r="1"/><circle class="cls-4" cx="21.04" cy="14.88" r="1"/><circle class="cls-4" cx="43.26" cy="49.52" r="1"/><circle class="cls-4" cx="36.76" cy="49.52" r="1"/><circle class="cls-4" cx="30.26" cy="49.52" r="1"/><circle class="cls-4" cx="23.76" cy="49.52" r="1"/><circle class="cls-4" cx="41.88" cy="31.88" r="1"/><circle class="cls-4" cx="35.38" cy="32.16" r="1"/><circle class="cls-4" cx="28.88" cy="32.16" r="1"/><circle class="cls-4" cx="22.38" cy="32.53" r="1"/></g></svg>