<svg id="Layer_1" data-name="Layer 1" xmlns="http://www.w3.org/2000/svg" viewBox="0 0 64 64"><defs><style>.cls-1{fill:#389ad6;}.cls-2{fill:#9dcbf4;}.cls-3,.cls-6{fill:none;stroke-linecap:round;stroke-linejoin:round;stroke-width:2px;}.cls-3{stroke:#2a5082;}.cls-4{fill:#a6d0ee;}.cls-5{fill:#3897d3;}.cls-6{stroke:#2a5080;}.cls-7{fill:#2a5082;}</style></defs><title>Message</title><path class="cls-1" d="M42.62,18.63S43,15,42.26,15,39.52,18.63,41,22.45s9.23,1.7,7.77,0-5.83.06-5.83.06Z"/><path class="cls-2" d="M35.31,16.09a3.25,3.25,0,0,1-.75,1c-2.09,2.26-3.22,3.66-3.52,6a2.9,2.9,0,0,1-2.8,2.58l-1.24,0H25.35c0-1.46,0,.08,0-1.38,0-2,0-3.91.05-5.87,0-1.62-.56-3.43,1.57-3.46l7.33-.11A1.46,1.46,0,0,1,35,15,.94.94,0,0,1,35.31,16.09Z"/><polyline class="cls-3" points="25.5 25.43 25.5 14.68 42.92 14.68 50.21 21.97 42.92 21.97 42.92 18.73"/><polyline class="cls-3" points="49.76 33.7 49.76 34.52 49.76 45.63 41.45 45.63"/><line class="cls-3" x1="49.75" y1="25.43" x2="49.75" y2="28.21"/><path class="cls-4" d="M19.21,51.32A7.76,7.76,0,0,1,14.89,50h0a5.72,5.72,0,0,1-.63-.47,7.77,7.77,0,0,1-2.83-6V36.24c0-.21,0-.41,0-.62a17.9,17.9,0,0,0,5,11.33c.29.3.58.58.88.85l0,0a17.85,17.85,0,0,0,2.35,1.8A.92.92,0,0,1,19.21,51.32Z"/><path class="cls-5" d="M24.5,41.53a1.65,1.65,0,0,1-.64,1.16,17.86,17.86,0,0,1-2.11,1.44,21.46,21.46,0,0,0-2.66,2.09c-.59.53-1.16,1.07-1.73,1.6-.72.68-1.44,1.34-2.21,1.95l-.27.22h0a2.24,2.24,0,0,1-.45.27.67.67,0,0,1-.78,0l.27-.32c.12-.13.23-.27.34-.4l2.2-2.57,1.36-1.6a7.07,7.07,0,0,0,2-3.57,5.49,5.49,0,0,0-1.07-3.55,24.94,24.94,0,0,0-3.29-3.83c-.59-.6-1.18-1.21-1.74-1.84-.87-1,.15-.82.78-.26l3.26,2.88L24,40.67a2.37,2.37,0,0,1,.28.27.83.83,0,0,1,.25.59Z"/><polyline class="cls-6" points="32.66 33.77 32.26 34.13 25.96 39.87 25.5 40.29 24.52 41.18"/><path class="cls-6" d="M37.5,34.15V44.56a5.46,5.46,0,0,1-.1,1.07,3.15,3.15,0,0,1-.09.42,6.75,6.75,0,0,1-6.57,5.27H18a6.48,6.48,0,0,1-3.48-1,.6.6,0,0,1-.11-.06,3.54,3.54,0,0,1-.51-.35,6.75,6.75,0,0,1-2.66-5.36V36.49a4.3,4.3,0,0,1,0-.62,6.67,6.67,0,0,1,.77-2.58,7.59,7.59,0,0,1,.84-1.16.79.79,0,0,1,.2-.17.92.92,0,0,1,1.11.08l3.54,3.14,6.5,5.76.27.24"/><path class="cls-6" d="M37.5,34.57a5.46,5.46,0,0,0-3.11-5A8.93,8.93,0,0,0,31,28.71c-1.33-.1-2.68,0-4,0H18"/><line class="cls-6" x1="20.13" y1="45.27" x2="14.52" y2="50.33"/><circle class="cls-7" cx="49.75" cy="30.93" r="1"/><line class="cls-3" x1="46.09" y1="27.69" x2="40.45" y2="27.69"/><line class="cls-3" x1="34.92" y1="19" x2="29.29" y2="19"/></svg>