<svg xmlns="http://www.w3.org/2000/svg" viewBox="0 0 64 64"><defs><style>.cls-1,.cls-3{fill:none;}.cls-1{stroke:#295183;stroke-linecap:round;stroke-linejoin:round;stroke-width:2px;}.cls-2{fill:#295183;}.cls-4{fill:#a8d2f0;}.cls-5{fill:#389ad6;}</style></defs><title>microphone, light, flash, lightbulb</title><g id="Layer_4" data-name="Layer 4"><path class="cls-1" d="M31.24,45.33h1.48a2,2,0,0,1,1.94,1.94h0a2,2,0,0,1-1.94,1.94H30.24"/><circle class="cls-2" cx="32.35" cy="52.79" r="0.97"/><line class="cls-3" x1="29.43" y1="32.78" x2="33.14" y2="32.63"/><line class="cls-1" x1="32.05" y1="10.24" x2="32.05" y2="13.65"/><line class="cls-1" x1="39.83" y1="12.16" x2="38.23" y2="15.18"/><line class="cls-1" x1="24.5" y1="12.07" x2="26.05" y2="15.11"/><path class="cls-4" d="M35.74,31.86l-.25.47c-.37.65-.75,1.3-1.08,2a14.82,14.82,0,0,0-1.27,7.14l-3.06-.22-1.44-9a.93.93,0,0,0-.14-.43,1,1,0,0,0-.38-.26A6,6,0,0,1,25,26.69a8.24,8.24,0,0,1,.88-4.33,6,6,0,0,1,2.74-3.08,1.63,1.63,0,0,1,2.15.86A3.08,3.08,0,0,1,30.28,22c-.9,2.23-.12,4.85,1.33,6.77A2.89,2.89,0,0,0,33.26,30a2.47,2.47,0,0,0,2-.68c.27-.23.67-.5.93-.25a.68.68,0,0,1,.12.55,6.77,6.77,0,0,1-.18,1.33A4.8,4.8,0,0,1,35.74,31.86Z"/><path class="cls-5" d="M27,21.22a.65.65,0,0,1,.5-.14.67.67,0,0,1,.47.62,3.43,3.43,0,0,1-.49,1.57A3.06,3.06,0,0,0,27,25.21c.09.38.71,1.15.13,1.42a.91.91,0,0,1-1-.24,1.89,1.89,0,0,1-.45-1A5,5,0,0,1,26,22.66a4,4,0,0,1,.7-1.2A1.49,1.49,0,0,1,27,21.22Z"/><line class="cls-1" x1="32.05" y1="10.24" x2="32.05" y2="13.65"/><line class="cls-1" x1="39.83" y1="12.16" x2="38.23" y2="15.18"/><line class="cls-1" x1="24.5" y1="12.07" x2="26.05" y2="15.11"/><path class="cls-5" d="M28.31,41.48c.88-.61-3.82-11.79-3.82-11.79l4.28.44s3.28,3.27,2.51,10.25Z"/><line class="cls-1" x1="29.44" y1="41.22" x2="34.67" y2="41.22"/><path class="cls-1" d="M39.67,25.87l.54-4.05a2.72,2.72,0,0,0-2.71-2.71h-11a2.72,2.72,0,0,0-2.71,2.71l1,7.54H38.86a.25.25,0,0,1,.24.34L35.6,41.14l-.11.08h-6.9l-.07-.05-3-8.79c.72,2,2,6,2.73,8l1.19,3.35c.3.85.79,1.57,1.79,1.57h1.48"/></g></svg>