<svg id="Layer_1" data-name="Layer 1" xmlns="http://www.w3.org/2000/svg" viewBox="0 0 64 64"><defs><style>.cls-1{fill:#9dcbf4;}.cls-2,.cls-3{fill:none;stroke-linecap:round;stroke-linejoin:round;stroke-width:2px;}.cls-2{stroke:#295183;}.cls-3{stroke:#2a5080;}</style></defs><title>Money chart</title><path class="cls-1" d="M44.82,21.74V22a6.48,6.48,0,0,1-4.41,6,6.39,6.39,0,0,1-1.75.31h-.57l-1.55-.38h0a6.18,6.18,0,0,0-1.62-1.28h0c-1-.7-2.14-1.75-2.69-5,0-.07-.14,0-.21,0a6.59,6.59,0,0,1,.32-1.77,6.45,6.45,0,0,1,2.3-3.15l.1-.07a6.39,6.39,0,0,1,3.57-1.17h.13A6.45,6.45,0,0,1,44.82,21.74Z"/><path class="cls-2" d="M32.76,21.61a7.53,7.53,0,0,1,15.06,0"/><path class="cls-2" d="M47.82,21.61a7.53,7.53,0,0,1-15.06,0"/><path class="cls-2" d="M40.29,21.61A1.62,1.62,0,1,1,41.91,20"/><path class="cls-2" d="M40.29,24.86a1.62,1.62,0,0,1-1.62-1.62"/><path class="cls-2" d="M40.29,21.61a1.62,1.62,0,1,1,0,3.25"/><line class="cls-2" x1="40.29" y1="18.36" x2="40.29" y2="16.92"/><line class="cls-2" x1="40.29" y1="26.3" x2="40.29" y2="24.86"/><path class="cls-1" d="M22.27,47.62a4.77,4.77,0,0,1-3,2.27h0l-.52,0a5.07,5.07,0,0,1-5.07-5.07,5,5,0,0,1,.77-2.68,4.76,4.76,0,0,1,4.8-1.55A4.66,4.66,0,0,0,18.63,43,4.77,4.77,0,0,0,22.27,47.62Z"/><path class="cls-1" d="M40.5,46.33a3.65,3.65,0,0,1-2.28,1.74h0l-.39,0a3.88,3.88,0,0,1-3.88-3.88,3.82,3.82,0,0,1,.59-2.05A3.64,3.64,0,0,1,38.2,41a3.57,3.57,0,0,0-.48,1.8A3.65,3.65,0,0,0,40.5,46.33Z"/><path class="cls-1" d="M32.27,31.89a2.44,2.44,0,0,1-1.52,1.16h-.27a2.6,2.6,0,0,1-2.6-2.6,2.56,2.56,0,0,1,.39-1.37,2.44,2.44,0,0,1,2.46-.79,2.39,2.39,0,0,0-.32,1.21A2.44,2.44,0,0,0,32.27,31.89Z"/><path class="cls-1" d="M49.26,33.08A2,2,0,0,1,48,34H47.8a2.12,2.12,0,0,1-2.12-2.12A2.09,2.09,0,0,1,46,30.8a2,2,0,0,1,2-.65,2,2,0,0,0-.26,1A2,2,0,0,0,49.26,33.08Z"/><path class="cls-3" d="M23.83,44.85a5.07,5.07,0,0,1-4.54,5h0l-.52,0a5.07,5.07,0,0,1-5.07-5.07,5,5,0,0,1,.77-2.68,5.07,5.07,0,0,1,9.37,2.68Z"/><circle class="cls-3" cx="30.51" cy="30.53" r="2.3"/><circle class="cls-3" cx="37.22" cy="44.48" r="3.99"/><circle class="cls-3" cx="48.21" cy="31.94" r="2.1"/><line class="cls-3" x1="20.74" y1="40.19" x2="28.71" y2="31.94"/><line class="cls-3" x1="35.83" y1="40.75" x2="31.81" y2="32.42"/><line class="cls-3" x1="39.9" y1="41.53" x2="47.47" y2="33.91"/></svg>