<svg id="Layer_1" data-name="Layer 1" xmlns="http://www.w3.org/2000/svg" viewBox="0 0 64 64"><defs><style>.cls-1{fill:#9dcbf4;}.cls-2{fill:#295183;}.cls-3,.cls-4{fill:none;stroke-linecap:round;stroke-linejoin:round;stroke-width:2px;}.cls-3{stroke:#295183;}.cls-4{stroke:#a8d2f0;}.cls-5{fill:#389ad6;}</style></defs><title>Money cloud</title><path class="cls-1" d="M22.87,29.07a7.09,7.09,0,0,0-.9.65l0,0C22.23,29.21,22.55,29,22.87,29.07Z"/><path class="cls-1" d="M45.94,48.14a1.67,1.67,0,0,1-.79.89,4.18,4.18,0,0,1-1.9.3l-20.42,0a3.42,3.42,0,0,0-1.15.13,5.13,5.13,0,0,0-.93.48,5.4,5.4,0,0,1-6.49-1,5,5,0,0,1,.07-6.47A1.71,1.71,0,0,1,15,42a1.85,1.85,0,0,1,.81-.05,6.45,6.45,0,0,1,3.68,1.68c.47.45,1.1,1,1.67.69a1,1,0,0,0,.36-1.1,3.6,3.6,0,0,0-.62-1.07,9.74,9.74,0,0,1-1.72-6.52c.19-1.87,1-4.35,2.48-5.58,3.79-3.09,6.06,6.73,7.45,8.36a7.59,7.59,0,0,0,4.05,2.46,8.53,8.53,0,0,0,4.53.27c1.56-.52,2.79-.94,4.28.17a5.84,5.84,0,0,1,1.85,2.65,6.45,6.45,0,0,0,1.12,2.38c.36.38.87.65,1,1.15A1.12,1.12,0,0,1,45.94,48.14Z"/><path class="cls-1" d="M46,48.19a3.16,3.16,0,0,1-.64,1.58l-.59-.51a1.13,1.13,0,0,0,.61-.4C45.58,48.64,45.8,48.42,46,48.19Z"/><path class="cls-2" d="M16.14,50.61a.84.84,0,0,0,.84-.84h0a.84.84,0,0,0-1.68,0h0A.84.84,0,0,0,16.14,50.61Z"/><path class="cls-3" d="M21.92,29.68A9.39,9.39,0,0,0,21.08,42a4.91,4.91,0,0,1,1.4,1.48A9,9,0,0,1,21.08,42a4.86,4.86,0,0,0-2.76-.85s-5.51-.43-6.14,5.32"/><path class="cls-3" d="M18.92,49.77H42a6,6,0,1,0-4.88-9.57,8.48,8.48,0,0,1-.72,1.29,5.74,5.74,0,0,1,.72-1.29A9.29,9.29,0,0,0,38,36.32"/><line class="cls-4" x1="48.61" y1="15.39" x2="46" y2="17.54"/><line class="cls-4" x1="50.52" y1="32.9" x2="47.72" y2="31.22"/><line class="cls-4" x1="51.82" y1="24.73" x2="48.61" y2="24.73"/><path class="cls-5" d="M26.43,27.87c-.57-.22-1.45.61-1.67,1.08a2,2,0,0,0,.59,2.15,6.17,6.17,0,0,0,3.09,1.65c1.26.29,2.67-.22,3.83.46.94.56,1.9,2.1,3.09,1.07.37-.32-1-2.51-1.24-2.82a6.34,6.34,0,0,0-2.9-1.66c-.64-.27-1.27-.57-1.91-.82Z"/><path class="cls-1" d="M42.3,25.16v.22a6.54,6.54,0,0,1-4.46,6.08,6.46,6.46,0,0,1-1.77.31H35.5l-1.57-.38h0a6.25,6.25,0,0,0-1.64-1.3h0c-1-.71-2.17-1.77-2.72-5,0-.07-.14,0-.21,0a6.66,6.66,0,0,1,.32-1.79A6.51,6.51,0,0,1,32,20.05l.1-.07a6.45,6.45,0,0,1,3.61-1.18h.13A6.52,6.52,0,0,1,42.3,25.16Z"/><path class="cls-1" d="M32.5,19.16h.64a7,7,0,0,0-.52,11.37,6.13,6.13,0,0,1-1.25-.18,5.75,5.75,0,0,1-4.45-5v-.12A5.9,5.9,0,0,1,32.5,19.16Z"/><path class="cls-3" d="M30.11,25a7.61,7.61,0,1,1,15.22,0"/><path class="cls-3" d="M45.33,25a7.61,7.61,0,1,1-15.22,0"/><path class="cls-3" d="M31.92,30.19A6,6,0,0,1,29.78,18.4"/><path class="cls-3" d="M37.72,25a1.64,1.64,0,1,1,1.64-1.64"/><path class="cls-3" d="M37.72,28.31a1.64,1.64,0,0,1-1.64-1.64"/><path class="cls-3" d="M37.72,25a1.64,1.64,0,0,1,0,3.28"/><line class="cls-3" x1="37.72" y1="21.74" x2="37.72" y2="20.29"/><line class="cls-3" x1="37.72" y1="29.76" x2="37.72" y2="28.31"/></svg>