<svg id="Layer_1" data-name="Layer 1" xmlns="http://www.w3.org/2000/svg" viewBox="0 0 64 64"><defs><style>.cls-1{fill:#9dcbf4;}.cls-2{fill:#389ad6;}.cls-3,.cls-4{fill:none;stroke-linecap:round;stroke-linejoin:round;stroke-width:2px;}.cls-3{stroke:#295183;}.cls-4{stroke:#2a5080;}</style></defs><title>Money suitcase</title><path class="cls-1" d="M40.83,46c-1.45.84-9.93.67-16.43.4L21,46.28c-2.55-.13-4.29-.24-4.29-.24s-.64.52-1.25-.75c-.9-1.84-1.73-7.52-.34-24.28h9s6.3-1.75,6.72,2-1,17,8.33,20C39.08,43,43.25,44.65,40.83,46Z"/><path class="cls-2" d="M24.51,46.41l-.11,0A12.09,12.09,0,0,1,21,46.28c-1.58-.23-3.52-.58-5.54-1-.9-1.84-1.73-7.52-.34-24.28h1.76c1.31.36,2.47,1.11,2.36,2.68-.26,3.49-3.79,15.35,4.23,19.66C23.43,43.35,27,45.56,24.51,46.41Z"/><path class="cls-3" d="M32.13,33a2.7,2.7,0,1,1,2.7-2.7"/><line class="cls-3" x1="32.13" y1="27.62" x2="32.13" y2="25.23"/><line class="cls-3" x1="32.13" y1="38.41" x2="32.13" y2="40.8"/><path class="cls-3" d="M32.13,33a2.7,2.7,0,1,1-2.7,2.7"/><path class="cls-4" d="M43.29,18.35v2h3.15a3.44,3.44,0,0,1,3.44,3.43v18.8A3.44,3.44,0,0,1,46.45,46H17.55a3.44,3.44,0,0,1-3.44-3.44V23.81a3.44,3.44,0,0,1,3.44-3.43h8.56V18.84A3.86,3.86,0,0,1,30,15h4a3.86,3.86,0,0,1,3.86,3.86v1.54h-7"/><line class="cls-4" x1="26.12" y1="22.45" x2="26.12" y2="20.39"/><line class="cls-3" x1="19.58" y1="49.01" x2="21.42" y2="49.01"/><line class="cls-3" x1="42.58" y1="49.01" x2="44.42" y2="49.01"/></svg>