<svg id="Layer_1" data-name="Layer 1" xmlns="http://www.w3.org/2000/svg" viewBox="0 0 64 64"><defs><style>.cls-1,.cls-3,.cls-5,.cls-8{fill:none;stroke-linecap:round;stroke-linejoin:round;stroke-width:2px;}.cls-1{stroke:#389ad6;}.cls-2{fill:#389ad6;}.cls-3{stroke:#a8d2f0;}.cls-4{fill:#a8d2f0;}.cls-5{stroke:#295181;}.cls-6{fill:#295181;}.cls-7{fill:#9dcbf4;}.cls-8{stroke:#295183;}</style></defs><title>Money key</title><path class="cls-1" d="M33.68,27.18,20.81,30.71a3.15,3.15,0,0,0-1.87,4h0"/><circle class="cls-2" cx="22.26" cy="33.79" r="0.92" transform="translate(-8.14 7.08) rotate(-15.32)"/><line class="cls-1" x1="20.93" y1="30.67" x2="14.82" y2="32.35"/><path class="cls-3" d="M38.54,24.39l-13.26-1.5a3.15,3.15,0,0,0-3.22,3h0"/><circle class="cls-4" cx="25.48" cy="26.3" r="0.92" transform="translate(-3.51 48.66) rotate(-83.55)"/><circle class="cls-4" cx="36.69" cy="40.02" r="0.92" transform="translate(-8.29 9.62) rotate(-13.43)"/><line class="cls-3" x1="25.4" y1="22.91" x2="19.1" y2="22.2"/><path class="cls-5" d="M31,31.64l-9.44,9.44a3.15,3.15,0,0,0,.35,4.4h0"/><circle class="cls-6" cx="24.31" cy="43.04" r="0.92" transform="translate(-23.31 29.79) rotate(-45)"/><line class="cls-5" x1="21.6" y1="40.99" x2="17.12" y2="45.47"/><path class="cls-7" d="M39.48,29.52l-.16.16a6.54,6.54,0,0,1-7.45,1.15,6.46,6.46,0,0,1-1.47-1L30,29.39,29.15,28v0h0a6.25,6.25,0,0,0-.24-2.08,0,0,0,0,1,0,0c-.24-1.24-.28-2.78,1.64-5.49,0-.06-.1-.1-.15-.15a6.66,6.66,0,0,1,1.49-1,6.51,6.51,0,0,1,3.9-.61l.12,0a6.45,6.45,0,0,1,3.39,1.72l.09.09A6.52,6.52,0,0,1,39.48,29.52Z"/><path class="cls-8" d="M31,20.8A7.61,7.61,0,1,1,41.71,31.56"/><path class="cls-8" d="M41.71,31.56A7.61,7.61,0,0,1,31,20.8"/><path class="cls-8" d="M36.33,26.18a1.64,1.64,0,1,1,2.32,0"/><path class="cls-8" d="M34,28.5a1.64,1.64,0,0,1,0-2.32"/><path class="cls-8" d="M36.33,26.18A1.64,1.64,0,0,1,34,28.5"/><line class="cls-8" x1="38.65" y1="23.86" x2="39.68" y2="22.83"/><line class="cls-8" x1="32.98" y1="29.53" x2="34.01" y2="28.5"/><path class="cls-3" d="M48.27,31.59a13.61,13.61,0,0,1-7.72,7"/></svg>