<svg id="Layer_1" data-name="Layer 1" xmlns="http://www.w3.org/2000/svg" viewBox="0 0 64 64"><defs><style>.cls-1{fill:#3897d3;}.cls-2{fill:#a5cfed;}.cls-3,.cls-4,.cls-6{fill:none;stroke-linecap:round;stroke-linejoin:round;stroke-width:2px;}.cls-3{stroke:#a5cfed;}.cls-4{stroke:#295181;}.cls-5{fill:#295181;}.cls-6{stroke:#295183;}</style></defs><title>Money lock</title><path class="cls-1" d="M22.28,27.23h2.37a4.84,4.84,0,0,1,4.84,4.84v21a0,0,0,0,1,0,0H22.28a4.84,4.84,0,0,1-4.84-4.84V32.07a4.84,4.84,0,0,1,4.84-4.84Z"/><path class="cls-2" d="M46.55,47.4v.08a5.65,5.65,0,0,1-5.64,5.63H27.32a20.24,20.24,0,0,1-1.53-25.88H34a14.62,14.62,0,0,0-1,5.44A14.78,14.78,0,0,0,46.55,47.4Z"/><path class="cls-3" d="M24.85,21.43a7,7,0,0,1,7.21-6.72h0a7,7,0,0,1,7.21,6.72"/><path class="cls-4" d="M17.74,31.08a5.56,5.56,0,0,0-.29,1.79V47.48a5.65,5.65,0,0,0,5.63,5.63H40.92a5.65,5.65,0,0,0,5.64-5.63V32.87a5.66,5.66,0,0,0-5.64-5.64H23.08"/><path class="cls-4" d="M23.08,27.23V21.9a9,9,0,0,1,9-9h0a9,9,0,0,1,9,9"/><circle class="cls-5" cx="19.6" cy="28.14" r="0.91"/><path class="cls-6" d="M23.08,40.28a9,9,0,1,1,18,0"/><path class="cls-6" d="M41.09,40.28a9,9,0,1,1-18,0"/><path class="cls-6" d="M32.09,40.28A1.94,1.94,0,1,1,34,38.33"/><path class="cls-6" d="M32.09,44.16a1.94,1.94,0,0,1-1.94-1.94"/><path class="cls-6" d="M32.09,40.28a1.94,1.94,0,1,1,0,3.89"/><line class="cls-6" x1="32.09" y1="36.39" x2="32.09" y2="34.67"/><line class="cls-6" x1="32.09" y1="45.88" x2="32.09" y2="44.16"/></svg>