<svg id="Layer_1" data-name="Layer 1" xmlns="http://www.w3.org/2000/svg" viewBox="0 0 64 64"><defs><style>.cls-1{fill:#a8d2f0;}.cls-2{fill:#389ad6;}.cls-3,.cls-5{fill:none;}.cls-4{fill:#fff;}.cls-5{stroke:#295183;stroke-linecap:round;stroke-linejoin:round;stroke-width:2px;}</style></defs><title>Monitor Shopping</title><rect class="cls-1" x="14.02" y="12.93" width="35.79" height="33.82" rx="5.81" ry="5.81"/><path class="cls-2" d="M31.11,12.67C27,14,16.26,18.2,14,26.84V18.95a6.07,6.07,0,0,1,1.92-4.4,6.75,6.75,0,0,1,4.71-1.87Z"/><path class="cls-2" d="M38.18,48.06v3.24a1.41,1.41,0,0,1-1.45,1.36H27.94a1.41,1.41,0,0,1-1.44-1.36V48.06a1.41,1.41,0,0,1,1.44-1.36h8.79A1.41,1.41,0,0,1,38.18,48.06Z"/><path class="cls-3" d="M50,18.95V40.43A3,3,0,0,1,50,41a6.25,6.25,0,0,1-.35,1.54,4.11,4.11,0,0,1-.19.45,4.58,4.58,0,0,1-.23.45,3.36,3.36,0,0,1-.26.41,5.43,5.43,0,0,1-.65.81,6,6,0,0,1-.61.54,4.15,4.15,0,0,1-.4.31,3.78,3.78,0,0,1-.48.3l-.09.05a.87.87,0,0,1-.17.08,1.42,1.42,0,0,1-.28.14.55.55,0,0,1-.16.07.41.41,0,0,1-.14.06,3.58,3.58,0,0,1-.43.15l-.12,0a4.82,4.82,0,0,1-.51.14l-.13,0h-.05a3.71,3.71,0,0,1-.59.08h-.06a5.15,5.15,0,0,1-.71,0H20.65a6.76,6.76,0,0,1-3.16-.76s0,0,0,0A6.42,6.42,0,0,1,16,44.85,6,6,0,0,1,14,40.43V18.95a6.07,6.07,0,0,1,1.92-4.4,6.75,6.75,0,0,1,4.71-1.87H43.39a6.82,6.82,0,0,1,4.69,1.84c.14.13.28.28.4.42l.05.06c.12.13.22.27.33.41l0,.05c.12.16.22.33.33.5a5.88,5.88,0,0,1,.49,1.12l.06.22a3.85,3.85,0,0,1,.11.37s0,0,0,0a1.41,1.41,0,0,1,.05.29.54.54,0,0,1,0,.18l0,.25C50,18.59,50,18.76,50,18.95Z"/><path class="cls-4" d="M50,18.94V40.42A3.16,3.16,0,0,1,50,41a6.48,6.48,0,0,1-6.6,5.72H26.91a32.81,32.81,0,0,1-1.14-8.6A33.75,33.75,0,0,1,37.51,12.67h5.88A6.46,6.46,0,0,1,50,18.94Z"/><path class="cls-4" d="M38.18,48.06v3.24a1.41,1.41,0,0,1-1.45,1.36H32a9.38,9.38,0,0,1,2.9-6h1.79A1.41,1.41,0,0,1,38.18,48.06Z"/><path class="cls-5" d="M50,18.95V40.43A4.4,4.4,0,0,1,50,41a6.25,6.25,0,0,1-.35,1.54,4.11,4.11,0,0,1-.19.45,4.58,4.58,0,0,1-.23.45,3.36,3.36,0,0,1-.26.41,5.43,5.43,0,0,1-.65.81,6,6,0,0,1-.61.54,4.15,4.15,0,0,1-.4.31,6.39,6.39,0,0,1-.56.34l-.17.09a3.45,3.45,0,0,1-.44.21,5.37,5.37,0,0,1-.56.21c-.24.08-.5.14-.76.2a7.25,7.25,0,0,1-1.42.14H20.65a6.88,6.88,0,0,1-3.16-.75s0,0,0,0A7,7,0,0,1,16,44.85,6,6,0,0,1,14,40.43V18.95a6.07,6.07,0,0,1,1.92-4.4,6.75,6.75,0,0,1,4.71-1.87H43.39a6.82,6.82,0,0,1,4.69,1.84c.14.13.28.28.4.42l.05.06c.12.13.22.27.33.41l0,.05c.12.16.22.33.33.5a5.88,5.88,0,0,1,.49,1.12l.06.22.06.23.1.46A5.7,5.7,0,0,1,50,18.95Z"/><path class="cls-5" d="M26.89,47v3.6a2.34,2.34,0,0,0,2.4,2.27H13.5"/><path class="cls-5" d="M36.95,19.41A3,3,0,0,1,40,22.3l1.06,14.76A3,3,0,0,1,38,40H26.58a3,3,0,0,1-3.06-2.9L24.58,22.3a3,3,0,0,1,3.05-2.9h1.65v3.1a2.42,2.42,0,0,0,2.48,2.35h1.06a2.42,2.42,0,0,0,2.48-2.35"/></svg>