<svg id="Layer_1" data-name="Layer 1" xmlns="http://www.w3.org/2000/svg" viewBox="0 0 64 64"><defs><style>.cls-1{fill:#a8d2f0;}.cls-2{fill:#389ad6;}.cls-3,.cls-5{fill:none;}.cls-4{fill:#fff;}.cls-5{stroke:#295183;stroke-linecap:round;stroke-linejoin:round;stroke-width:2px;}</style></defs><title>Monitor Announcement</title><rect class="cls-1" x="14.26" y="12.93" width="35.79" height="33.82" rx="5.81" ry="5.81"/><path class="cls-2" d="M31.35,12.67C27.19,14,16.5,18.2,14.26,26.84V18.95a6.07,6.07,0,0,1,1.92-4.4,6.75,6.75,0,0,1,4.71-1.87Z"/><path class="cls-2" d="M38.33,48.31v3.24a1.41,1.41,0,0,1-1.45,1.36H28.09a1.41,1.41,0,0,1-1.44-1.36V48.31a1.41,1.41,0,0,1,1.44-1.36h8.79A1.41,1.41,0,0,1,38.33,48.31Z"/><path class="cls-3" d="M50.18,19.2V40.68a3,3,0,0,1,0,.54,6.25,6.25,0,0,1-.35,1.54,4.11,4.11,0,0,1-.19.45,4.58,4.58,0,0,1-.23.45,3.36,3.36,0,0,1-.26.41,5.43,5.43,0,0,1-.65.81,6,6,0,0,1-.61.54,4.15,4.15,0,0,1-.4.31A3.78,3.78,0,0,1,47,46l-.09.05a.87.87,0,0,1-.17.08,1.42,1.42,0,0,1-.28.14.55.55,0,0,1-.16.07.41.41,0,0,1-.14.06,3.58,3.58,0,0,1-.43.15l-.12,0a4.82,4.82,0,0,1-.51.14l-.13,0h-.05a3.71,3.71,0,0,1-.59.08h-.06a5.15,5.15,0,0,1-.71,0H20.81a6.76,6.76,0,0,1-3.16-.76s0,0,0,0a6.42,6.42,0,0,1-1.52-1.09,6,6,0,0,1-1.94-4.42V19.2a6.07,6.07,0,0,1,1.92-4.4,6.75,6.75,0,0,1,4.71-1.87H43.54a6.82,6.82,0,0,1,4.69,1.84c.14.13.28.28.4.42l.05.06c.12.13.22.27.33.41l0,.05c.12.16.22.33.33.5a5.88,5.88,0,0,1,.49,1.12l.06.22a3.85,3.85,0,0,1,.11.37s0,0,0,0a1.41,1.41,0,0,1,.05.29.54.54,0,0,1,0,.18l0,.25C50.17,18.84,50.18,19,50.18,19.2Z"/><path class="cls-4" d="M50.18,19.19V40.67a3.16,3.16,0,0,1,0,.55,6.48,6.48,0,0,1-6.6,5.72H27.06a32.81,32.81,0,0,1-1.14-8.6A33.75,33.75,0,0,1,37.66,12.92h5.88A6.46,6.46,0,0,1,50.18,19.19Z"/><path class="cls-4" d="M38.33,48.31v3.24a1.41,1.41,0,0,1-1.45,1.36H32.19a9.38,9.38,0,0,1,2.9-6h1.79A1.41,1.41,0,0,1,38.33,48.31Z"/><path class="cls-5" d="M50.17,19.2V40.68a4.4,4.4,0,0,1,0,.54,6.25,6.25,0,0,1-.35,1.54,4.11,4.11,0,0,1-.19.45,4.58,4.58,0,0,1-.23.45,3.36,3.36,0,0,1-.26.41,5.43,5.43,0,0,1-.65.81,6,6,0,0,1-.61.54,4.15,4.15,0,0,1-.4.31,6.39,6.39,0,0,1-.56.34l-.17.09a3.45,3.45,0,0,1-.44.21,5.37,5.37,0,0,1-.56.21c-.24.08-.5.14-.76.2a7.25,7.25,0,0,1-1.42.14H20.81a6.88,6.88,0,0,1-3.16-.75s0,0,0,0a7,7,0,0,1-1.52-1.09,6,6,0,0,1-1.94-4.42V19.2a6.07,6.07,0,0,1,1.92-4.4,6.75,6.75,0,0,1,4.71-1.87H43.54a6.82,6.82,0,0,1,4.69,1.84c.14.13.28.28.4.42l.05.06c.12.13.22.27.33.41l0,.05c.12.16.22.33.33.5a5.88,5.88,0,0,1,.49,1.12l.06.22.06.23.1.46A5.7,5.7,0,0,1,50.17,19.2Z"/><path class="cls-5" d="M27,47.22v3.6a2.34,2.34,0,0,0,2.4,2.27H13.65"/><path class="cls-4" d="M18.3,30.47s-.35-3.34,2.86-3.34c0,0-.09-1.1,4.5-1.48s5.4,0,5.4,0l6.39-3.79,1,.74-.3,2.61-4.35,5.25Z"/><rect class="cls-4" x="38.44" y="20.41" width="1.96" height="18.05" rx="0.94" ry="0.94"/><path class="cls-1" d="M38.44,22.61V37.79c-5.42-3.32-8.15-4-8.15-4l-8.19-.29c0-.25-.52-.27-.59-.54a.91.91,0,0,0-.95-.8,1.61,1.61,0,0,1-1.69-.91l-.1-1.3h11v-.06a8.93,8.93,0,0,0,8.11-7.68Z"/><path class="cls-2" d="M38.44,37.62v.18c-5.42-3.32-8.15-4-8.15-4l-8.19-.29c0-.25-.52-.27-.59-.54l.2-1.21h3.61c2.52,0,4.83-.19,7.24.69.35.13.71.28,1,.43l.21.1c4.84,2,4-10.76,4-10.76l.3-.37V37.11Z"/><path class="cls-5" d="M29.75,33.53h0a2.56,2.56,0,0,1,2.55,2.55v1a2.56,2.56,0,0,1-2.55,2.55h0a2.56,2.56,0,0,1-2.55-2.55"/><path class="cls-5" d="M29.75,33.53H23.08A1.56,1.56,0,0,1,21.52,32V27.56A1.56,1.56,0,0,1,23.08,26h5.43a7.49,7.49,0,0,0,3.86-1.07l6.07-3.65V37.62l-3.29-1.73"/><path class="cls-5" d="M19,27.84a1.51,1.51,0,0,0-.36.58,1.49,1.49,0,0,0-.08.48v2a1.51,1.51,0,0,0,1.5,1.5h1.47"/><line class="cls-5" x1="41.82" y1="29.61" x2="46.3" y2="29.61"/><path class="cls-5" d="M42.37,21.74a1.22,1.22,0,0,1,1.72,0h0a1.22,1.22,0,0,1,0,1.72l-2.3,2.3"/><path class="cls-5" d="M41.78,33.37l2.3,2.3a1.22,1.22,0,0,1,0,1.72h0a1.22,1.22,0,0,1-1.72,0"/></svg>