<svg id="Layer_1" data-name="Layer 1" xmlns="http://www.w3.org/2000/svg" viewBox="0 0 64 64"><defs><style>.cls-1{fill:#a8d2f0;}.cls-2{fill:#389ad6;}.cls-3,.cls-5,.cls-6{fill:none;}.cls-4{fill:#fff;}.cls-5{stroke:#295183;}.cls-5,.cls-6{stroke-linecap:round;stroke-linejoin:round;stroke-width:2px;}.cls-6{stroke:#2a5080;}.cls-7{fill:#2a5080;}</style></defs><title>Monitor chart</title><path class="cls-1" d="M44.24,12H20.07a5.83,5.83,0,0,0-5.81,5.81v22.2a5.83,5.83,0,0,0,5.81,5.81H44.24A5.83,5.83,0,0,0,50,40.06V17.86A5.83,5.83,0,0,0,44.24,12ZM23.77,37.83h0a2,2,0,0,1-.35,0,3.43,3.43,0,1,1,.36,0Z"/><path class="cls-2" d="M31.35,11.79C27.19,13.12,16.5,17.32,14.26,26V18.07a6.07,6.07,0,0,1,1.92-4.4,6.75,6.75,0,0,1,4.71-1.87Z"/><path class="cls-2" d="M38.33,47.43v3.24A1.41,1.41,0,0,1,36.88,52H28.09a1.41,1.41,0,0,1-1.44-1.36V47.43a1.41,1.41,0,0,1,1.44-1.36h8.79A1.41,1.41,0,0,1,38.33,47.43Z"/><path class="cls-3" d="M50.18,18.32V39.8a3,3,0,0,1,0,.54,6.25,6.25,0,0,1-.35,1.54,4.11,4.11,0,0,1-.19.45,4.58,4.58,0,0,1-.23.45,3.36,3.36,0,0,1-.26.41,5.43,5.43,0,0,1-.65.81,6,6,0,0,1-.61.54,4.15,4.15,0,0,1-.4.31,3.78,3.78,0,0,1-.48.3l-.09.05a.87.87,0,0,1-.17.08,1.42,1.42,0,0,1-.28.14.55.55,0,0,1-.16.07.41.41,0,0,1-.14.06,3.58,3.58,0,0,1-.43.15l-.12,0a4.82,4.82,0,0,1-.51.14l-.13,0h-.05a3.71,3.71,0,0,1-.59.08h-.06a5.15,5.15,0,0,1-.71,0H20.81a6.76,6.76,0,0,1-3.16-.76s0,0,0,0a6.42,6.42,0,0,1-1.52-1.09,6,6,0,0,1-1.94-4.42V18.32a6.07,6.07,0,0,1,1.92-4.4A6.75,6.75,0,0,1,20.81,12H43.54a6.82,6.82,0,0,1,4.69,1.84c.14.13.28.28.4.42l.05.06c.12.13.22.27.33.41l0,.05c.12.16.22.33.33.5a5.88,5.88,0,0,1,.49,1.12l.06.22A3.85,3.85,0,0,1,50,17s0,0,0,0a1.41,1.41,0,0,1,.05.29.54.54,0,0,1,0,.18l0,.25C50.17,18,50.18,18.14,50.18,18.32Z"/><path class="cls-4" d="M50.18,18.32V39.8a3.16,3.16,0,0,1,0,.55,6.48,6.48,0,0,1-6.6,5.72H27.06a32.81,32.81,0,0,1-1.14-8.6A33.75,33.75,0,0,1,37.66,12h5.88A6.46,6.46,0,0,1,50.18,18.32Z"/><path class="cls-4" d="M38.33,47.43v3.24A1.41,1.41,0,0,1,36.88,52H32.19a9.38,9.38,0,0,1,2.9-6h1.79A1.41,1.41,0,0,1,38.33,47.43Z"/><path class="cls-5" d="M50.17,18.32V39.8a4.4,4.4,0,0,1,0,.54,6.25,6.25,0,0,1-.35,1.54,4.11,4.11,0,0,1-.19.45,4.58,4.58,0,0,1-.23.45,3.36,3.36,0,0,1-.26.41,5.43,5.43,0,0,1-.65.81,6,6,0,0,1-.61.54,4.15,4.15,0,0,1-.4.31,6.39,6.39,0,0,1-.56.34l-.17.09a3.45,3.45,0,0,1-.44.21,5.37,5.37,0,0,1-.56.21c-.24.08-.5.14-.76.2a7.25,7.25,0,0,1-1.42.14H20.81a6.88,6.88,0,0,1-3.16-.75s0,0,0,0a7,7,0,0,1-1.52-1.09,6,6,0,0,1-1.94-4.42V18.32a6.07,6.07,0,0,1,1.92-4.4A6.75,6.75,0,0,1,20.81,12H43.54a6.82,6.82,0,0,1,4.69,1.84c.14.13.28.28.4.42l.05.06c.12.13.22.27.33.41l0,.05c.12.16.22.33.33.5a5.88,5.88,0,0,1,.49,1.12l.06.22.06.23.1.46A5.7,5.7,0,0,1,50.17,18.32Z"/><path class="cls-5" d="M27,46.34v3.6a2.34,2.34,0,0,0,2.4,2.27H13.65"/><path class="cls-1" d="M25.78,36.3a3.22,3.22,0,0,1-2,1.53h0l-.35,0A3.42,3.42,0,0,1,20,34.43a3.37,3.37,0,0,1,.52-1.81,3.21,3.21,0,0,1,3.24-1,3.14,3.14,0,0,0-.42,1.59A3.22,3.22,0,0,0,25.78,36.3Z"/><path class="cls-1" d="M38.09,35.43a2.46,2.46,0,0,1-1.54,1.17h-.28A2.62,2.62,0,0,1,33.66,34a2.58,2.58,0,0,1,.4-1.38,2.46,2.46,0,0,1,2.48-.8A2.41,2.41,0,0,0,36.21,33,2.46,2.46,0,0,0,38.09,35.43Z"/><path class="cls-6" d="M26.83,34.43a3.42,3.42,0,0,1-3.06,3.4h0a2,2,0,0,1-.35,0,3.42,3.42,0,1,1,3.42-3.42Z"/><circle class="cls-7" cx="31.35" cy="24.69" r="2.21"/><circle class="cls-6" cx="35.88" cy="34.18" r="2.69"/><circle class="cls-7" cx="43.69" cy="25.96" r="1.65"/><line class="cls-6" x1="24.75" y1="31.28" x2="30.13" y2="25.71"/><line class="cls-6" x1="34.93" y1="31.66" x2="32.23" y2="26.03"/><line class="cls-6" x1="37.68" y1="32.19" x2="42.79" y2="27.04"/></svg>