<svg id="Layer_1" data-name="Layer 1" xmlns="http://www.w3.org/2000/svg" viewBox="0 0 64 64"><defs><style>.cls-1{fill:#a6d0ee;}.cls-2{fill:#3897d3;}.cls-3{fill:none;stroke:#2a5080;stroke-linecap:round;stroke-linejoin:round;stroke-width:2px;}</style></defs><title>Multiple messages</title><path class="cls-1" d="M28.06,52.47h0a6,6,0,0,1-5.94-5.94V41a4.28,4.28,0,0,1,0-.48,13.69,13.69,0,0,0,6.29,10.67A.7.7,0,0,1,28.06,52.47Z"/><path class="cls-2" d="M32.11,45c0,.45-.45.84-.76,1.12a5.65,5.65,0,0,1-1.65.89v.09l-5.05,4.47a.7.7,0,0,1-.84.07L25,50.22c.83-1,1.75-1.92,2.5-3a4.06,4.06,0,0,0,1-2.28,4.77,4.77,0,0,0-1.08-2.89,19.62,19.62,0,0,0-1.81-2c-.2-.2-2.16-2.39-2.23-2.34a.7.7,0,0,1,.85.07l5.14,4.56L31,43.73C31.32,44,32.13,44.46,32.11,45Z"/><line class="cls-3" x1="32.11" y1="44.75" x2="38.31" y2="39.11"/><path class="cls-3" d="M42,39.39v7.93a5.17,5.17,0,0,1-5.15,5.15h-9.7A5.17,5.17,0,0,1,22,47.32V41.17a4.21,4.21,0,0,1,0-.47,5,5,0,0,1,.59-2,5.8,5.8,0,0,1,.64-.88.64.64,0,0,1,.15-.13.7.7,0,0,1,.85.06l7.85,7"/><path class="cls-3" d="M27.15,35.24H34c1.91,0,3.87-.22,5.63.67A4.16,4.16,0,0,1,42,39.71"/><line class="cls-3" x1="28.77" y1="47.87" x2="24.5" y2="51.72"/><path class="cls-1" d="M40.41,26h0a4.31,4.31,0,0,1-4.29-4.29v-4a3.09,3.09,0,0,1,0-.34,9.9,9.9,0,0,0,4.55,7.71A.51.51,0,0,1,40.41,26Z"/><path class="cls-2" d="M43.33,20.61c0,.32-.32.61-.55.81a4.08,4.08,0,0,1-1.19.65v.07l-3.65,3.23a.5.5,0,0,1-.61.05l.9-1c.6-.71,1.26-1.39,1.81-2.14a2.94,2.94,0,0,0,.72-1.65A3.45,3.45,0,0,0,40,18.5,14.19,14.19,0,0,0,38.65,17c-.14-.15-1.56-1.73-1.61-1.7a.51.51,0,0,1,.61,0l3.71,3.29,1.13,1C42.76,19.91,43.35,20.21,43.33,20.61Z"/><line class="cls-3" x1="43.33" y1="20.42" x2="46.78" y2="17.44"/><path class="cls-3" d="M50.48,16.55v5.74A3.73,3.73,0,0,1,46.76,26h-7A3.73,3.73,0,0,1,36,22.28V17.84a3,3,0,0,1,0-.34,3.63,3.63,0,0,1,.43-1.42,4.19,4.19,0,0,1,.46-.64.46.46,0,0,1,.11-.1.51.51,0,0,1,.61,0l5.68,5"/><path class="cls-3" d="M40.19,13.57l4.51,0a8.75,8.75,0,0,1,4.07.48,3,3,0,0,1,1.71,2.75"/><line class="cls-3" x1="40.92" y1="22.68" x2="37.83" y2="25.46"/><path class="cls-1" d="M17.9,26h0a4.31,4.31,0,0,1-4.29-4.29v-4a3.09,3.09,0,0,1,0-.34,9.9,9.9,0,0,0,4.55,7.71A.51.51,0,0,1,17.9,26Z"/><path class="cls-2" d="M20.83,20.61c0,.32-.32.61-.55.81a4.08,4.08,0,0,1-1.19.65v.07l-3.65,3.23a.5.5,0,0,1-.61.05l.9-1c.6-.71,1.26-1.39,1.81-2.14a2.94,2.94,0,0,0,.72-1.65,3.45,3.45,0,0,0-.78-2.09A14.19,14.19,0,0,0,16.15,17c-.14-.15-1.56-1.73-1.61-1.7a.51.51,0,0,1,.61,0l3.71,3.29,1.13,1C20.25,19.91,20.84,20.21,20.83,20.61Z"/><line class="cls-3" x1="20.82" y1="20.42" x2="24.28" y2="17.44"/><path class="cls-3" d="M28,16.55v5.74A3.73,3.73,0,0,1,24.25,26h-7a3.73,3.73,0,0,1-3.72-3.72V17.84a3,3,0,0,1,0-.34A3.63,3.63,0,0,1,14,16.08a4.19,4.19,0,0,1,.46-.64.46.46,0,0,1,.11-.1.51.51,0,0,1,.61,0l5.68,5"/><path class="cls-3" d="M17.68,13.57l4.51,0a8.75,8.75,0,0,1,4.07.48A3,3,0,0,1,28,16.78"/><line class="cls-3" x1="18.41" y1="22.68" x2="15.32" y2="25.46"/><path class="cls-3" d="M52,28a10.82,10.82,0,0,1,2,6.16c0,4.78-3.4,9-8.66,11.74"/><path class="cls-3" d="M31.45,19.64c.55,0,.56,0,1.12,0s-.66,0,0,0"/><path class="cls-3" d="M17.68,45.31C13,42.61,10,38.59,10,34.11A10.82,10.82,0,0,1,12,28"/></svg>