<svg id="Layer_1" data-name="Layer 1" xmlns="http://www.w3.org/2000/svg" viewBox="0 0 64 64"><defs><style>.cls-1{fill:#295183;}.cls-2{fill:#a8d2f0;}.cls-3,.cls-6{fill:none;stroke-linecap:round;stroke-linejoin:round;stroke-width:2px;}.cls-3{stroke:#2a5081;}.cls-4{fill:#9ac8f1;}.cls-5{fill:#389ad6;}.cls-6{stroke:#295183;}</style></defs><title>Nature protection</title><circle class="cls-1" cx="46.54" cy="11.74" r="1.42"/><circle class="cls-1" cx="35.98" cy="11.74" r="1.42"/><circle class="cls-1" cx="25.1" cy="11.74" r="1.42"/><path class="cls-2" d="M39.87,28.55c0,.44,0,.88-.06,1.31-.42-1-.92-2.13-1.52-3.28a13.14,13.14,0,0,1-2.48,2.27A18.72,18.72,0,0,1,28.92,32l-.52.11A25.29,25.29,0,0,1,24.75,19V15.54a5.63,5.63,0,0,0,.35,2,5.56,5.56,0,0,0,1.32,2.07,5.68,5.68,0,0,0,4,1.68h0a5.71,5.71,0,0,0,4.93-2.85,3.88,3.88,0,0,1,.42.39c.13.13.24.26.35.39A13.49,13.49,0,0,1,39.87,28.55Z"/><path class="cls-3" d="M35.81,15.81a5.38,5.38,0,0,1-5.35,5.37,5.36,5.36,0,0,1-5.36-5.37v3.26A23.71,23.71,0,0,0,28.92,32"/><path class="cls-3" d="M35.81,28.85v-13a5.38,5.38,0,0,0,5.36,5.37h0a5.38,5.38,0,0,0,5.36-5.37v3.26a23.74,23.74,0,0,1-5.37,15"/><path class="cls-4" d="M24.08,34.75a3.6,3.6,0,0,1,1.13,3.37c-.25,2.4,1.8,1.77,2.5,1s2.1-1.47,2.85-1-5.17,9-5.17,9S21.21,39.08,24.08,34.75Z"/><path class="cls-5" d="M23.2,35a.7.7,0,0,0-.72-1c-1.46.18-3.6,1.22-3.26,5.85.52,6.94,6.14,7.31,6.14,7.31S21,39.71,23.2,35Z"/><path class="cls-5" d="M30.55,38.12s-.84-1.2-2.47,1.32-3.2,6.13-2.56,7.94,2.89-5.65,2.89-5.65Z"/><path class="cls-6" d="M33.74,52.2l-.19-.62c-.06-.19-.12-.38-.18-.56l0-.06a18.13,18.13,0,0,0-1.12-2.47"/><path class="cls-6" d="M25.2,48.32c-4-.89-13.53-4.63-6.84-19.7a14,14,0,0,0,4.46,3.08"/><path class="cls-6" d="M32.53,48.38c.22.87.53,1.74.81,2.57l0,.06.18.56.19.62"/><path class="cls-6" d="M30.82,38.12a21.57,21.57,0,0,0-2.52,4.17,56.48,56.48,0,0,0-3.48,10.46s0,0,0,0c-.07.31-.15.62-.22.92"/><path class="cls-6" d="M24.59,53.68c.08-.31.16-.61.22-.92h0a14.86,14.86,0,0,0,.32-5.63c0-.21-.08-.43-.13-.64l0-.14a.74.74,0,0,0,0-.14,29.68,29.68,0,0,0-1.23-3.44s0,0,0-.05A11.31,11.31,0,0,1,22.83,39c-.1-2.59.84-5.08,3.07-6.19a5.26,5.26,0,0,1,1.6-.5l.9-.17.52-.11a18.72,18.72,0,0,0,6.89-3.14,13.14,13.14,0,0,0,2.48-2.27c.6,1.15,1.1,2.24,1.52,3.28C45,42.8,36.71,47.08,32.53,48.39c-.1,0-1.26.22-1.61.29"/><path class="cls-6" d="M30.82,48.7l.1,0,1.22-.18"/></svg>