<svg id="Layer_1" data-name="Layer 1" xmlns="http://www.w3.org/2000/svg" viewBox="0 0 64 64"><defs><style>.cls-1{fill:#a8d2f0;}.cls-2{fill:#389ad6;}.cls-3{fill:none;stroke:#2a5080;stroke-linecap:round;stroke-linejoin:round;stroke-width:2px;}.cls-4{fill:#2a5080;}</style></defs><title>Navigation</title><path class="cls-1" d="M45.16,43.47a7.73,7.73,0,0,1-1.45.2,7.83,7.83,0,0,1-8.06-7.42,7.74,7.74,0,0,1,7.74-8.05h0a1.1,1.1,0,0,1,.75,1.87,7.48,7.48,0,0,0,1.32,11.39A1.11,1.11,0,0,1,45.16,43.47Z"/><path class="cls-1" d="M20.57,27c-4.83.3-8.75,3.94-8.69,8.8a8.69,8.69,0,0,0,10.9,8.3,1.78,1.78,0,0,0,.75-3,8.4,8.4,0,0,1-1.17-11.14,1.81,1.81,0,0,0-1-2.86A2.87,2.87,0,0,0,20.57,27Z"/><path class="cls-2" d="M30.58,31.31c-.27-.45-1.26-1.59-.75-2.1.31-.32,1.48-.22,1.92-.23s1.91-.15,2.35.21.2.74,0,1.07A4.57,4.57,0,0,0,33.69,32c0,.51-.25,1-.33,1.54a2.25,2.25,0,0,0,0,.86c.05.23.18.47,0,.69-.33.45-2.34.88-2.56.17S31,34,31,33.37a4.15,4.15,0,0,0,0-.9A3.16,3.16,0,0,0,30.58,31.31Z"/><path class="cls-3" d="M50.93,31.78a8.57,8.57,0,0,1-7.5,12.72,8.54,8.54,0,0,1-3.53-.76,8.61,8.61,0,0,1-2.17-1.41,9.3,9.3,0,0,1-1.43-1.64c-.16-.25-.32-.51-.46-.78a8.59,8.59,0,0,1,.51-8.82,2,2,0,0,1,.17-.23,8.55,8.55,0,0,1,6.91-3.5c.22,0,.43,0,.64,0a7.36,7.36,0,0,1,1.88.36,5.93,5.93,0,0,1,.71.24"/><path class="cls-3" d="M27.7,40.69a8.6,8.6,0,0,0-.05-9.6,8.56,8.56,0,0,0-7.08-3.73c-.22,0-.43,0-.64,0a8.57,8.57,0,1,0,3,16.79"/><path class="cls-3" d="M42.67,24a4.77,4.77,0,0,0-8.13,3.37H29.46a4.14,4.14,0,0,0-.09-.87,4.76,4.76,0,0,0-9.44.87v0c.21,0,.42,0,.64,0"/><circle class="cls-4" cx="49" cy="29.39" r="1"/><path class="cls-3" d="M18.78,31.16a3.92,3.92,0,0,0-3,3"/><path class="cls-3" d="M41.56,31.24a3.92,3.92,0,0,0-2.7,2.83"/><path class="cls-3" d="M27.56,40.87a6.57,6.57,0,0,1,8.88,0"/></svg>