<svg id="Layer_1" data-name="Layer 1" xmlns="http://www.w3.org/2000/svg" viewBox="0 0 64 64"><defs><style>.cls-1{fill:#9dcbf4;}.cls-2,.cls-5{fill:none;stroke-linecap:round;stroke-linejoin:round;stroke-width:2px;}.cls-2{stroke:#295183;}.cls-3{fill:#389ad6;}.cls-4{fill:#fff;}.cls-5{stroke:#2a5082;}.cls-6{fill:#2a5082;}</style></defs><title>Newsletter</title><path class="cls-1" d="M38,14.59a1.73,1.73,0,0,1,.27,1.06,5.28,5.28,0,0,1-.38,1.45c-1.66,4.69-1.74,9.79-1.54,14.76a43.15,43.15,0,0,0,1,8.55,20.59,20.59,0,0,0,1.43,4.07c.49,1,1.71,2.4.38,3.34a3.71,3.71,0,0,1-1.83.51,50.59,50.59,0,0,1-12.59-.41.44.44,0,0,1-.21-.07.44.44,0,0,1-.11-.35l-.29-29.95a2.67,2.67,0,0,1,.18-1.21,2.37,2.37,0,0,1,1.05-.94c3.33-1.83,7.35-1.65,11.14-1.42a2.26,2.26,0,0,1,1.22.31A1.17,1.17,0,0,1,38,14.59Z"/><path class="cls-2" d="M44.69,39.18l.59,1.2a.51.51,0,0,0,.38.28l1.33.19a.51.51,0,0,1,.28.86l-1,.94a.51.51,0,0,0-.15.45l.23,1.32a.51.51,0,0,1-.73.53l-1.19-.62a.51.51,0,0,0-.47,0L42.81,45a.51.51,0,0,1-.73-.53l.23-1.32a.51.51,0,0,0-.15-.45l-1-.94a.51.51,0,0,1,.28-.86l1.33-.19a.51.51,0,0,0,.38-.28l.59-1.2A.51.51,0,0,1,44.69,39.18Z"/><rect class="cls-3" x="20.66" y="48.44" width="23.24" height="3.78" rx="1.63" ry="1.63" transform="translate(64.56 100.65) rotate(-180)"/><path class="cls-2" d="M40.6,52.14H23.73a3.56,3.56,0,0,1-3.55-3.55H43.52a3.56,3.56,0,0,0,3.56,3.55h.37A3.56,3.56,0,0,0,51,48.59"/><path class="cls-4" d="M13,27.52s-.38-3.62,3.1-3.61c0,0-.09-1.2,4.87-1.6s5.84,0,5.84,0l6.92-4.1,1.08.8-.32,2.83-4.71,5.68Z"/><rect class="cls-4" x="34.82" y="16.62" width="2.12" height="19.55" rx="1.06" ry="1.06"/><path class="cls-1" d="M34.82,19V35.45C29,31.86,26,31.15,26,31.15l-8.88-.31c0-.27-.56-.29-.64-.59a1,1,0,0,0-1-.86,1.74,1.74,0,0,1-1.83-1L13.51,27H25.39v-.06a9.67,9.67,0,0,0,8.78-8.32C34.4,18.74,34.61,18.86,34.82,19Z"/><line class="cls-5" x1="37.51" y1="17.56" x2="37.51" y2="33.14"/><path class="cls-3" d="M34.82,35.26v.19a39.19,39.19,0,0,0-8.64-4.25,1.5,1.5,0,0,0-.38-.06l-8.69-.3c0-.27-.56-.29-.64-.59h0A1.57,1.57,0,0,1,18,28.95h2.59c2.73,0,5.24-.21,7.84.75.38.14.76.3,1.13.47l.23.11c5.25,2.13,4.36-11.66,4.36-11.66l.33-.4V34.71Z"/><path class="cls-5" d="M25.41,30.84h0a2.78,2.78,0,0,1,2.77,2.77v1.11a2.78,2.78,0,0,1-2.77,2.77h0a2.78,2.78,0,0,1-2.77-2.77"/><path class="cls-5" d="M25.41,30.83H18.18a1.69,1.69,0,0,1-1.69-1.69V24.36a1.69,1.69,0,0,1,1.69-1.69h5.88a8.11,8.11,0,0,0,4.18-1.16l6.58-4V35.25l-3.56-1.87"/><path class="cls-5" d="M14.15,24.38a1.64,1.64,0,0,0-.79.92,1.61,1.61,0,0,0-.09.52V28a1.63,1.63,0,0,0,1.63,1.63h1.59"/><line class="cls-5" x1="40.18" y1="26.58" x2="45.02" y2="26.58"/><path class="cls-5" d="M40.77,19.47a1.32,1.32,0,0,1,1.86,0h0a1.32,1.32,0,0,1,0,1.86l-2.49,2.49"/><path class="cls-5" d="M40.14,29.25l2.49,2.49a1.32,1.32,0,0,1,0,1.86h0a1.32,1.32,0,0,1-1.86,0"/><path class="cls-2" d="M24.47,17.75a4,4,0,0,1,4-4H47a4,4,0,0,1,4,4v31"/><line class="cls-2" x1="24.76" y1="48.44" x2="24.76" y2="40.57"/><line class="cls-2" x1="30.7" y1="39.42" x2="38.36" y2="39.42"/><line class="cls-2" x1="30.7" y1="42.54" x2="36.62" y2="42.54"/><circle class="cls-6" cx="37.51" cy="35.56" r="1"/></svg>