<svg id="Layer_1" data-name="Layer 1" xmlns="http://www.w3.org/2000/svg" viewBox="0 0 64 64"><defs><style>.cls-1{fill:#389ad6;}.cls-2{fill:#fff;}.cls-3{fill:#a8d2f0;}.cls-4{fill:none;stroke:#295183;stroke-linecap:round;stroke-linejoin:round;stroke-width:2px;}.cls-5{fill:#295183;}</style></defs><title>Newsletter shopping</title><rect class="cls-1" x="21.4" y="49.18" width="30.13" height="3.64" rx="1.82" ry="1.82"/><path class="cls-2" d="M44.58,20.5v6.16s2,4.59,5.49,4l1.06,11.92-6.55,2V49H34.95L24,33l6.86-12.5,4.56-2.25H42.7Z"/><path class="cls-1" d="M37.76,36.61c-.33,1.24-.71,2.46-.95,3.73a8.75,8.75,0,0,0-.19,3.07,2.55,2.55,0,0,0,1.72,2,13,13,0,0,0,4.93.56c.88-.05,4.94,0,4.17-1.74H41.82Z"/><path class="cls-3" d="M45.25,31.47c-.07,2.13-.15,7.26.54,10.2a1.8,1.8,0,0,1-1.73,2.23c-2,0-4.46-.12-5.21-.87a5,5,0,0,1-1.19-3.5s0-.1,0-.15l1.06-8.5a1.8,1.8,0,0,1,1-1.39h0a1.8,1.8,0,0,1,.89-.19l2.7.13a1.8,1.8,0,0,1,.94.32l.24.17A1.8,1.8,0,0,1,45.25,31.47Z"/><path class="cls-4" d="M44.18,36.87a1.47,1.47,0,1,1,1.47-1.47"/><line class="cls-4" x1="44.18" y1="33.92" x2="44.18" y2="32.61"/><line class="cls-4" x1="44.18" y1="39.82" x2="44.18" y2="41.12"/><path class="cls-4" d="M44.18,36.87a1.47,1.47,0,1,1-1.47,1.47"/><path class="cls-4" d="M44.55,29.36s-.27,1.2,1,1.2,1.1-1.39,1.1-1.39a2.51,2.51,0,1,0-5,0h-.85a2.18,2.18,0,0,0-2.18,1.76,1.94,1.94,0,0,0,0,.33l-.21,3-.55,7.67A2.16,2.16,0,0,0,40,44h8.25a2.15,2.15,0,0,0,2.21-2.09l-.86-10.33-.06-.66,0-.23"/><line class="cls-4" x1="42.7" y1="26.78" x2="42.7" y2="23.98"/><path class="cls-3" d="M37.66,49.33h-9a3.43,3.43,0,0,1-3.43,3.42h-.36a3.43,3.43,0,0,1-3.42-3.42V20.91a9.08,9.08,0,0,0-.14-1.51,2.76,2.76,0,0,0-2.52-2H36.42l-.27.85S25.08,39.37,37.66,49.33Z"/><path class="cls-4" d="M14.2,20.82a3.43,3.43,0,0,1,3.42-3.42H18a3.43,3.43,0,0,1,3.42,3.42V49.25"/><path class="cls-4" d="M31.45,52.75H47.71a3.43,3.43,0,0,0,3.42-3.42H28.63a3.43,3.43,0,0,1-3.43,3.42h-.36a3.43,3.43,0,0,1-3.42-3.42V20.91a9.08,9.08,0,0,0-.14-1.51,2.76,2.76,0,0,0-2.52-2"/><path class="cls-4" d="M43.92,20.91a8.1,8.1,0,0,0-.14-1.51,2.76,2.76,0,0,0-2.52-2H17.8"/><line class="cls-4" x1="26" y1="23" x2="37.25" y2="23"/><line class="cls-4" x1="26" y1="31.75" x2="34" y2="31.75"/><line class="cls-4" x1="26" y1="35.92" x2="34" y2="35.92"/><path class="cls-4" d="M29.48,39.72l.7,1.42a.6.6,0,0,0,.45.33l1.57.23a.6.6,0,0,1,.33,1L31.4,43.82a.6.6,0,0,0-.17.53l.27,1.56a.6.6,0,0,1-.87.63l-1.4-.74a.6.6,0,0,0-.56,0l-1.4.74a.6.6,0,0,1-.87-.63l.27-1.56a.6.6,0,0,0-.17-.53l-1.14-1.11a.6.6,0,0,1,.33-1l1.57-.23a.6.6,0,0,0,.45-.33l.7-1.42A.6.6,0,0,1,29.48,39.72Z"/><circle class="cls-5" cx="14.2" cy="23.98" r="1"/></svg>