<svg id="Layer_1" data-name="Layer 1" xmlns="http://www.w3.org/2000/svg" viewBox="0 0 64 64"><defs><style>.cls-1{fill:#389ad6;}.cls-2{fill:#fff;}.cls-3{fill:#a8d2f0;}.cls-4,.cls-6{fill:none;stroke-linecap:round;stroke-linejoin:round;stroke-width:2px;}.cls-4{stroke:#295183;}.cls-5{fill:#295183;}.cls-6{stroke:#2a5081;}</style></defs><title>Newsletter analytics</title><rect class="cls-1" x="21.04" y="47.07" width="30.13" height="3.64" rx="1.82" ry="1.82"/><path class="cls-2" d="M44.22,18.39v6.16s2,4.59,5.49,4l1.06,11.92-6.55,2v4.42H34.58l-10.95-16,6.86-12.5,4.56-2.25h7.28Z"/><path class="cls-3" d="M37.3,47.22h-9a3.43,3.43,0,0,1-3.43,3.42h-.36a3.43,3.43,0,0,1-3.42-3.42V18.8a9.08,9.08,0,0,0-.14-1.51,2.76,2.76,0,0,0-2.52-2H36.06l-.27.85S24.72,37.26,37.3,47.22Z"/><path class="cls-4" d="M13.83,18.71a3.43,3.43,0,0,1,3.42-3.42h.36A3.43,3.43,0,0,1,21,18.71V47.14"/><path class="cls-4" d="M21.06,47.22V18.8a9.08,9.08,0,0,0-.14-1.51,2.76,2.76,0,0,0-2.52-2"/><path class="cls-4" d="M31.09,50.64H47.35a3.43,3.43,0,0,0,3.42-3.42H28.27a3.43,3.43,0,0,1-3.43,3.42h-.36a3.43,3.43,0,0,1-3.42-3.42"/><path class="cls-4" d="M17.44,15.29H40.9a2.76,2.76,0,0,1,2.52,2,8.1,8.1,0,0,1,.14,1.51V23"/><line class="cls-4" x1="25.64" y1="20.89" x2="36.89" y2="20.89"/><line class="cls-4" x1="25.64" y1="29.64" x2="33.64" y2="29.64"/><line class="cls-4" x1="25.64" y1="33.81" x2="33.64" y2="33.81"/><path class="cls-4" d="M32.17,40.6,31,41.71a.6.6,0,0,0-.17.53l.27,1.56a.6.6,0,0,1-.87.63l-1.4-.74a.6.6,0,0,0-.56,0l-1.4.74A.6.6,0,0,1,26,43.8l.27-1.56a.6.6,0,0,0-.17-.53L25,40.6a.6.6,0,0,1,.33-1l1.57-.23a.6.6,0,0,0,.45-.33l.7-1.42a.6.6,0,0,1,1.07,0l.7,1.42a.6.6,0,0,0,.45.33"/><circle class="cls-5" cx="13.83" cy="21.87" r="1"/><path class="cls-6" d="M53.27,28.72a2,2,0,0,1,.28.27A1.81,1.81,0,0,1,54,30.17V41.3a2,2,0,0,1-2.09,1.92H39.76a2,2,0,0,1-2.09-1.92V30.17A1.91,1.91,0,0,1,39,28.37"/><polyline class="cls-6" points="50.63 39.87 50.47 39.87 50.46 39.87 49.87 39.87 49.71 39.87 49.12 39.87 47.41 39.87 44.19 39.87 41.03 39.87"/><line class="cls-6" x1="50.63" y1="32.12" x2="50.63" y2="39.87"/><line class="cls-6" x1="47.41" y1="33.48" x2="47.41" y2="39.87"/><line class="cls-6" x1="44.19" y1="34.84" x2="44.19" y2="39.87"/><line class="cls-6" x1="41.04" y1="36.2" x2="41.04" y2="39.87"/><path class="cls-6" d="M45.37,27.91h0A1.36,1.36,0,0,0,44,26.55H40.39A1.36,1.36,0,0,0,39,27.91h0v.46"/><polyline class="cls-6" points="45.37 27.91 45.37 28.25 49.92 28.25"/></svg>