<svg xmlns="http://www.w3.org/2000/svg" viewBox="0 0 64 64"><defs><style>.cls-1{fill:#9dcbf4;}.cls-2{fill:#389ad6;}.cls-3{fill:none;stroke:#2a5082;stroke-linecap:round;stroke-linejoin:round;stroke-width:2px;}.cls-4{fill:#2a5082;}</style></defs><title>pedometer, measure, scale, smart home</title><g id="Layer_4" data-name="Layer 4"><path class="cls-1" d="M31.11,14.88c2.54.29,1.91,2.68,1.18,4.37-1.09,2.51-3.47,4.73-3.76,7.56-.31,3-1.36,4.87-.5,7.74s3.94,6.94,4.8,9.83c.41,1.38,1.81,4.51-.9,4.24-5.17-.51-10.41-2.13-14-6.15A15.8,15.8,0,0,1,14.2,30.93a17.1,17.1,0,0,1,5.49-11.1C22.43,17.27,27.18,14.42,31.11,14.88Z"/><path class="cls-2" d="M30.7,28.15s-7.86,3.92-6.36,9.33,10.76,3.82,11.76-3.94c0,0-2.28,4.81-5.39,3.17S25.36,31.48,30.7,28.15Z"/><circle class="cls-3" cx="32.22" cy="32" r="17.63"/><path class="cls-3" d="M32.22,18a14,14,0,0,1,3.6,27.53"/><path class="cls-3" d="M20.46,24.52a14,14,0,0,0,.76,16"/><path class="cls-3" d="M39.28,24.91,30,28.61A4.26,4.26,0,0,0,27.39,33h0A4.26,4.26,0,0,0,31.2,36.8h0a4.26,4.26,0,0,0,4.38-2.65Z"/><circle class="cls-4" cx="31.7" cy="32.54" r="1"/></g></svg>