<svg id="Layer_1" data-name="Layer 1" xmlns="http://www.w3.org/2000/svg" viewBox="0 0 64 64"><defs><style>.cls-1{fill:#9ac8f1;}.cls-2{fill:#389ad6;}.cls-3,.cls-5{fill:none;stroke-linecap:round;stroke-linejoin:round;stroke-width:2px;}.cls-3{stroke:#295183;}.cls-4{fill:#9dcbf4;}.cls-5{stroke:#2a5081;}</style></defs><title>Person Ecology</title><path class="cls-1" d="M17.77,20.29a2.13,2.13,0,0,1,.54,2c-.23,1.41,1,1.11,1.44.66s1.3-.79,1.72-.46-3.38,5.15-3.38,5.15S15.92,22.75,17.77,20.29Z"/><path class="cls-2" d="M21.47,22.52s-.81-.85-1.86.58-1.76,3.62-1.44,4.7,1.91-3.23,1.91-3.23Z"/><path class="cls-3" d="M17.67,30.49c.08-.28.13-.57.18-.85a7.1,7.1,0,0,0,0-2.46c-.29-1.56-1-2.79-1-4.44a3.76,3.76,0,0,1,2-3.54,3.35,3.35,0,0,1,1-.24,10.4,10.4,0,0,0,6.58-3c4.2,9.45-1.47,12-4.19,12.67-.05,0-.62.08-.89.11"/><path class="cls-3" d="M21.24,28.77h.14l.65-.05"/><path class="cls-4" d="M32.19,27.17c-.45,0,.08,2.4.1,2.62a9.47,9.47,0,0,1-.09,2c-.19,1.72,0,3.47-.31,5.17-.25,1.23-.9,2.65-2.38,2.5-3.24-.32.29-9.39.75-9.24s0-3.07,0-3.07Z"/><line class="cls-5" x1="28.75" y1="33.17" x2="25.96" y2="39.92"/><path class="cls-4" d="M23.42,42a.87.87,0,0,1,.62.26,11.64,11.64,0,0,0,16.48,0,.87.87,0,0,1,1.23,1.23,13.38,13.38,0,0,1-18.94,0A.87.87,0,0,1,23.42,42Z"/><path class="cls-5" d="M32.44,31.08h1a2.18,2.18,0,0,1,2.18,2.18v5.61a1.54,1.54,0,0,1-1.54,1.54H30.3a1.54,1.54,0,0,1-1.54-1.54V33.17"/><path class="cls-5" d="M32.32,26.65a2.21,2.21,0,0,0,0,4.42"/><line class="cls-5" x1="35.44" y1="32.36" x2="38.33" y2="39.92"/><path class="cls-5" d="M45.17,25.8a.87.87,0,0,0,.07.12,14.85,14.85,0,1,1-23.46-3.25"/><polyline class="cls-5" points="45.17 25.8 42.34 27.78 43.11 22.89"/></svg>