<svg id="Layer_1" data-name="Layer 1" xmlns="http://www.w3.org/2000/svg" viewBox="0 0 64 64"><defs><style>.cls-1{fill:#9ac8f1;}.cls-2{fill:#389ad6;}.cls-3{fill:none;stroke:#2a5081;stroke-linecap:round;stroke-linejoin:round;stroke-width:2px;}</style></defs><title>Personal water use</title><path class="cls-1" d="M29.86,21.82c.31-.46.74-.85,1.23-.68s.6.71.68,1.18a17.37,17.37,0,0,1-.34,8.32,54.74,54.74,0,0,1-2.86,5.89,9,9,0,0,0-.92,6.34A6.5,6.5,0,0,0,31.94,47c1.87.58,4.57.67,6.16-.67a3.37,3.37,0,0,1,.54-.42c1.6-.87.19,1.95-.07,2.33a7.94,7.94,0,0,1-2.84,2.51,9.33,9.33,0,0,1-5.42,1,10,10,0,0,1-5.42-2.32,11.54,11.54,0,0,1-3.77-8,15.88,15.88,0,0,1,2.71-10,72,72,0,0,0,5.77-9.19A3.94,3.94,0,0,1,29.86,21.82Z"/><path class="cls-2" d="M24.51,31s1.61-.15.59,2.27S21.52,38,24,44.45s-1.89.51-1.89.51S16.89,36.1,24.51,31Z"/><path class="cls-3" d="M32,12.21c.65,8.54,8.08,18.15,9,19.31a.69.69,0,0,0,.09.12,11.92,11.92,0,1,1-18.19,0,.47.47,0,0,0,.09-.11A49.27,49.27,0,0,0,29.1,22"/><path class="cls-3" d="M23,31.53l-.09.11"/><line class="cls-3" x1="28.61" y1="37.63" x2="25.81" y2="44.39"/><path class="cls-3" d="M32.3,35.54h1a2.18,2.18,0,0,1,2.18,2.18v5.61a1.54,1.54,0,0,1-1.54,1.54H30.15a1.54,1.54,0,0,1-1.54-1.54V37.63"/><path class="cls-3" d="M32.17,31.12a2.21,2.21,0,0,0,0,4.42"/><line class="cls-3" x1="35.29" y1="36.82" x2="38.19" y2="44.39"/></svg>