<svg id="Layer_1" data-name="Layer 1" xmlns="http://www.w3.org/2000/svg" viewBox="0 0 64 64"><defs><style>.cls-1{fill:#9dcbf4;}.cls-2{fill:none;stroke:#2a5081;stroke-linecap:round;stroke-linejoin:round;stroke-width:2px;}</style></defs><title>Person</title><path class="cls-1" d="M27.9,35s4.24-1.5,4.17,10c0,0-.24,5.5-3.24,5.42Z"/><path class="cls-1" d="M32.65,17c-.61,0,.11,3.26.14,3.56a12.87,12.87,0,0,1-.13,2.75c-.25,2.34,0,4.71-.42,7C31.9,32,31,33.93,29,33.73c-4.4-.43.4-12.76,1-12.56S30,17,30,17Z"/><line class="cls-2" x1="27.4" y1="25.03" x2="23.61" y2="34.2"/><path class="cls-2" d="M32.4,22.2h1.38a3,3,0,0,1,3,3v7.61a2.09,2.09,0,0,1-2.09,2.09H29.5a2.09,2.09,0,0,1-2.09-2.09V25"/><path class="cls-2" d="M32.24,16.2a3,3,0,0,0,0,6"/><line class="cls-2" x1="36.47" y1="23.93" x2="40.39" y2="34.2"/><line class="cls-2" x1="28.4" y1="49.8" x2="27.4" y2="32.84"/><line class="cls-2" x1="36.74" y1="32.77" x2="35.77" y2="49.2"/><path class="cls-2" d="M32,39.87v9.5a.43.43,0,0,0,.43.43h2.86a.43.43,0,0,0,.43-.43"/></svg>