<svg id="Layer_1" data-name="Layer 1" xmlns="http://www.w3.org/2000/svg" viewBox="0 0 64 64"><defs><style>.cls-1{fill:#389ad6;}.cls-2,.cls-4{fill:none;stroke-linecap:round;stroke-linejoin:round;stroke-width:2px;}.cls-2{stroke:#295183;}.cls-3{fill:#9dcbf4;}.cls-4{stroke:#2a5081;}</style></defs><title>Personal Network</title><ellipse class="cls-1" cx="45.2" cy="45.15" rx="3.35" ry="3" transform="translate(-18.58 48.81) rotate(-48.26)"/><ellipse class="cls-1" cx="17.69" cy="23.05" rx="3.35" ry="3" transform="translate(-8.27 36.12) rotate(-79.22)"/><path class="cls-2" d="M42.51,17.06a4.22,4.22,0,1,1,1.34,3.09"/><circle class="cls-2" cx="46.37" cy="45.26" r="4.22" transform="translate(-18.27 49.72) rotate(-48.26)"/><path class="cls-2" d="M20.14,43.85a4.22,4.22,0,1,1-2.87-1.13"/><circle class="cls-2" cx="18.9" cy="22.65" r="4.22"/><path class="cls-3" d="M32,23.16c-.45,0,.08,2.4.1,2.62a9.47,9.47,0,0,1-.09,2c-.19,1.72,0,3.47-.31,5.17-.25,1.23-.9,2.65-2.38,2.5-3.24-.32.29-9.39.75-9.24s0-3.07,0-3.07Z"/><line class="cls-4" x1="28.55" y1="29.16" x2="25.76" y2="35.92"/><path class="cls-4" d="M32.24,27.07h1a2.18,2.18,0,0,1,2.18,2.18v5.61a1.54,1.54,0,0,1-1.54,1.54H30.1a1.54,1.54,0,0,1-1.54-1.54V29.16"/><path class="cls-4" d="M32.12,22.65a2.21,2.21,0,1,0,0,4.42"/><line class="cls-4" x1="35.24" y1="28.35" x2="38.13" y2="35.92"/><line class="cls-2" x1="27.16" y1="40.65" x2="21.49" y2="46.94"/><line class="cls-2" x1="20.02" y1="26.71" x2="23.96" y2="29.9"/><line class="cls-2" x1="15.96" y1="42.65" x2="16.69" y2="33.27"/><line class="cls-2" x1="42.15" y1="46.33" x2="35.24" y2="41.92"/><line class="cls-2" x1="46.73" y1="40.65" x2="46.73" y2="31.4"/><line class="cls-2" x1="46.73" y1="21.28" x2="40.02" y2="26.86"/><line class="cls-2" x1="43.46" y1="14.4" x2="32.12" y2="14.4"/><line class="cls-2" x1="20.02" y1="17.74" x2="24.32" y2="14.4"/></svg>