<svg id="Layer_1" data-name="Layer 1" xmlns="http://www.w3.org/2000/svg" viewBox="0 0 64 64"><defs><style>.cls-1{fill:#9dcbf4;}.cls-2{fill:none;stroke:#2a5081;stroke-linecap:round;stroke-linejoin:round;stroke-width:2px;}</style></defs><title>Personal trash</title><path class="cls-1" d="M32.44,33.69s4.24-1.5,4.17,10c0,0-.24,5.5-3.24,5.42Z"/><path class="cls-1" d="M19.07,31.21s3.67-1.33,4.17,6.83,3.45,8.17,3.45,8.17S28,48,22.07,47.89l-1.39-.68Z"/><path class="cls-1" d="M37.18,15.69c-.61,0,.11,3.26.14,3.56A12.87,12.87,0,0,1,37.2,22c-.25,2.34,0,4.71-.42,7-.34,1.67-1.22,3.6-3.24,3.4-4.4-.43.4-12.76,1-12.56s0-4.17,0-4.17Z"/><polyline class="cls-2" points="31.94 23.72 25.28 31.21 28.69 31.21 27.16 47.89 20.91 47.89 19.07 31.21 21.66 31.21"/><path class="cls-2" d="M36.94,20.89h1.38a3,3,0,0,1,3,3v7.61a2.09,2.09,0,0,1-2.09,2.09H34a2.09,2.09,0,0,1-2.09-2.09V23.72"/><path class="cls-2" d="M36.77,14.89a3,3,0,0,0,0,6"/><line class="cls-2" x1="41" y1="22.63" x2="44.93" y2="32.89"/><line class="cls-2" x1="32.94" y1="48.5" x2="31.94" y2="31.53"/><line class="cls-2" x1="41.27" y1="31.46" x2="40.31" y2="47.89"/><path class="cls-2" d="M36.56,38.57v9.5a.43.43,0,0,0,.43.43h2.86a.43.43,0,0,0,.43-.43"/></svg>