<svg id="Layer_1" data-name="Layer 1" xmlns="http://www.w3.org/2000/svg" viewBox="0 0 64 64"><defs><style>.cls-1,.cls-3,.cls-5{fill:none;stroke-linecap:round;stroke-linejoin:round;stroke-width:2px;}.cls-1{stroke:#9dcbf4;}.cls-2{fill:#9ac8f1;}.cls-3{stroke:#2a5080;}.cls-4{fill:#9dcbf4;}.cls-5{stroke:#2a5081;}</style></defs><title>Personal Care</title><path class="cls-1" d="M23.57,24.68a20,20,0,0,1,6.06-13.05"/><path class="cls-2" d="M43.42,46.49c.72.17,0,1.09-.22,1.35a11.18,11.18,0,0,1-3.67,2.24,14.91,14.91,0,0,1-5,.92,20.48,20.48,0,0,1-10.71-2.37,6.35,6.35,0,0,0-2.45-1,5.3,5.3,0,0,0-2.77.81,1.32,1.32,0,0,1-.67.2.9.9,0,0,1-.7-1.06,2.39,2.39,0,0,1,.73-1.2,18.7,18.7,0,0,1,1.84-1.7,4,4,0,0,1,2.59-1.14,4.68,4.68,0,0,1,2.38,1.11c2.88,2.06,6.18,3.95,9.72,3.75a24.44,24.44,0,0,0,4.94-.85c.81-.22,1.61-.46,2.41-.72A3.71,3.71,0,0,1,43.42,46.49Z"/><path class="cls-3" d="M46.53,43.49a2,2,0,0,1,2.87,0h0a2,2,0,0,1,0,2.87"/><path class="cls-3" d="M16.94,45.28l.17-.17,6.56-6.55a4.53,4.53,0,0,1,1.35-1,4.36,4.36,0,0,1,1.7-.43,1.62,1.62,0,0,1,.31,0H37.24a1.93,1.93,0,0,1,1.82,2,2.07,2.07,0,0,1-.54,1.43,1.7,1.7,0,0,1-1.28.6H28.38"/><path class="cls-3" d="M46.57,43.46a10.81,10.81,0,0,1-3,2.72,10.48,10.48,0,0,1-5.55,1.58h-.3a10.54,10.54,0,0,1-9.47-6.53"/><path class="cls-4" d="M37.69,13.76c-.69,0,.12,3.65.16,4a14.39,14.39,0,0,1-.14,3.08c-.29,2.61.05,8.27-.47,10.86-.38,1.87-1.37,4-3.62,3.8-4.92-.48.45-17.27,1.14-17s0-4.67,0-4.67Z"/><line class="cls-5" x1="32.46" y1="22.88" x2="28.21" y2="33.15"/><line class="cls-5" x1="32.46" y1="31.55" x2="32.46" y2="22.88"/><path class="cls-5" d="M38.06,19.7H39.6A3.31,3.31,0,0,1,42.92,23V37.08"/><path class="cls-5" d="M37.88,13a3.36,3.36,0,1,0,0,6.72"/><line class="cls-5" x1="42.62" y1="21.65" x2="47.01" y2="33.15"/></svg>