<svg id="Layer_1" data-name="Layer 1" xmlns="http://www.w3.org/2000/svg" viewBox="0 0 64 64"><defs><style>.cls-1{fill:#9ac8f1;}.cls-2{fill:#3897d3;}.cls-3{fill:none;stroke:#2a5080;stroke-linecap:round;stroke-linejoin:round;stroke-width:2px;}.cls-4{fill:#2a5080;}</style></defs><title>Phone Payment</title><path class="cls-1" d="M22.76,14.51a4.05,4.05,0,0,1,1.94.55c1.41.89.67,2.53.32,3.79-.68,2.44.39,4.54,2,6.35a25.72,25.72,0,0,0,3.12,3.35c1,.77,2.32,1.16,3.07,2.2.35.48-2.34.72-2.63.75q-3.06.29-6.12.54l-4.37.34c-.4,0-1.46.31-1.84.13l-3.57-1.7-1.11-7.06.84-8.68c0-.13,4.51-.29,4.85-.32A28.24,28.24,0,0,1,22.76,14.51Z"/><path class="cls-1" d="M44.49,29.15v11c0,3.39-3.24,6.16-6.63,6.16H33.94a3.15,3.15,0,0,1-3.14-3.14V34.35l3,3L33.25,32c1.27-.36,4.31.65,5.18-.82h0a5.81,5.81,0,0,0,1.46-3.85v-4C42.3,24.19,44.49,26.47,44.49,29.15Z"/><path class="cls-2" d="M34.2,42.43c0,2.26-.9,3-1.72,3.18,0,.62-.39,1.1-.84,1.1s-.84-.52-.84-1.15V32h1.88C34.31,33.13,34.25,38.78,34.2,42.43Z"/><path class="cls-3" d="M39.77,19.55h5A5.23,5.23,0,0,1,50,24.76V46.58a5.23,5.23,0,0,1-5.21,5.21H33.72a5.23,5.23,0,0,1-5.21-5.21V36.43"/><polyline class="cls-3" points="46.92 27.69 46.92 46.32 41.83 46.32"/><line class="cls-3" x1="36.69" y1="46.32" x2="31.69" y2="46.32"/><path class="cls-3" d="M36.69,46.32a2.57,2.57,0,0,0,5.14,0"/><path class="cls-3" d="M29.87,14.13h6.61a3.24,3.24,0,0,1,3.23,3.23V28.81A3.24,3.24,0,0,1,36.48,32H17.19A3.23,3.23,0,0,1,14,28.81V17.36a3.24,3.24,0,0,1,3.23-3.23h7.15"/><line class="cls-3" x1="17.58" y1="25.55" x2="36.1" y2="25.55"/><line class="cls-3" x1="17.58" y1="28.35" x2="23.88" y2="28.35"/><line class="cls-3" x1="31.72" y1="18.52" x2="36.17" y2="18.52"/><circle class="cls-4" cx="46.92" cy="24.35" r="0.92"/><circle class="cls-4" cx="26.84" cy="14.13" r="0.92"/></svg>