<svg id="Layer_1" data-name="Layer 1" xmlns="http://www.w3.org/2000/svg" viewBox="0 0 64 64"><defs><style>.cls-1{fill:#9ac8f1;}.cls-2,.cls-5{fill:none;stroke:#2a5080;stroke-linecap:round;stroke-linejoin:round;stroke-width:2px;}.cls-3{fill:#2a5080;}.cls-4{fill:#3897d3;}.cls-5{stroke-dasharray:6.4 6.4;}</style></defs><title>Phone Airplane</title><path class="cls-1" d="M38.84,30.2v11c0,3.39-3.24,6.16-6.63,6.16H28.3a3.15,3.15,0,0,1-3.14-3.14V35.4l3,3L26,29.82c1.27-.36,5.87,3.92,6.74,2.45h0a5.81,5.81,0,0,0,1.46-3.85l.92-3C37.58,26.26,38.84,27.52,38.84,30.2Z"/><path class="cls-2" d="M44.36,36.38V47.63a5.23,5.23,0,0,1-5.21,5.21H28.07a5.23,5.23,0,0,1-5.21-5.21V37.48"/><path class="cls-2" d="M34.13,20.6h5a5.23,5.23,0,0,1,5.21,5.21v2.54"/><polyline class="cls-2" points="41.28 34.59 41.28 47.37 36.18 47.37"/><path class="cls-2" d="M31,47.37a2.57,2.57,0,1,0,5.14,0"/><circle class="cls-3" cx="27.3" cy="22.8" r="0.92" transform="translate(-2.49 42.24) rotate(-73)"/><path class="cls-4" d="M35.94,32.05c-1.58,3-3.44,2.56-3.44,2.56a15.35,15.35,0,0,1-1.5-.44c-1.09-.38-2.87-1.94-3.11,0A11.57,11.57,0,0,0,28.11,37a43.82,43.82,0,0,1,.44,6.47c0,2.26-.91,3-1.72,3.18,0,.62-.39,1.1-.84,1.1s-.84-.51-.84-1.15V33.09L26,29.82l6,2.23s2.26-3.17,3.6-4c.82-.51,1.26.21,1.28,1A6.53,6.53,0,0,1,35.94,32.05Z"/><path class="cls-2" d="M25.23,29.57l6.05,1.85s1.32.57,1.83-.28l4.24-7L31.7,27"/><path class="cls-2" d="M21.23,28.35l-5.4-1.65a2.15,2.15,0,0,1-1.28-1A2.12,2.12,0,0,1,14.39,24a2.17,2.17,0,0,1,2.71-1.44l7.73,2.36,2.56.78"/><polyline class="cls-2" points="25.23 29.57 25.7 34.61 24.12 34.13 21.23 28.35 21.23 28.35"/><line class="cls-2" x1="31.04" y1="47.37" x2="26.05" y2="47.37"/><path class="cls-2" d="M30.53,15.5c.91-.42,1.84-.81,2.78-1.14"/><path class="cls-5" d="M39.56,13.16a11.48,11.48,0,0,1,5.36,1.32c9.14,4.81,3.67,16.63-3.61,20.12a13.09,13.09,0,0,1-4.18,1.2"/><path class="cls-2" d="M33.93,35.75a11.67,11.67,0,0,1-2.88-.8"/><line class="cls-2" x1="41.28" y1="30.63" x2="41.28" y2="26.05"/></svg>