<svg id="Layer_1" data-name="Layer 1" xmlns="http://www.w3.org/2000/svg" viewBox="0 0 64 64"><defs><style>.cls-1{fill:#9dcbf4;}.cls-2{fill:#389ad6;}.cls-3,.cls-4,.cls-5{fill:none;stroke-linecap:round;stroke-linejoin:round;stroke-width:2px;}.cls-3{stroke:#2a5081;}.cls-4{stroke:#a8d2f0;}.cls-5{stroke:#295183;}</style></defs><title>Piggy bank</title><path class="cls-1" d="M30.18,36.17c1,.71.91,2.23,1.14,3.4a5.79,5.79,0,0,0,5.4,4.54c1,0,2.36-.12,2.86.8A2.25,2.25,0,0,1,39.77,46a22.73,22.73,0,0,1-.35,3.92.73.73,0,0,1-.16.4.69.69,0,0,1-.5.15,4.09,4.09,0,0,1-2.69-1c-.74-.64-1.26-1.56-2.16-1.94a4.32,4.32,0,0,0-1.56-.24l-4.77-.14a.59.59,0,0,0-.73.61l-.51,2.6a.81.81,0,0,1-1.06.77L21.57,51c-.09-1.51.36-3,.31-4.54-.06-2.12-1.08-4.08-1.86-6.05-1-2.44-2-7.68,1.89-8.1a3.32,3.32,0,0,1,2.9,1.21c.51.64.8,1.49,1.51,1.91,1,.59,2.2.15,3.26.46A2,2,0,0,1,30.18,36.17Z"/><path class="cls-2" d="M37.47,49.91c-.26.17-.74,0-1,0a7.92,7.92,0,0,1-1,0l-.91-3.29-7.29-.18-.75-.63c0,.13,0,.26-.08.39-.17.76-.35,1.52-.52,2.28s-.51,1.87-1.35,2.18a1.81,1.81,0,0,1-2.06-.91,4.54,4.54,0,0,1-.46-2.39,7,7,0,0,0-1.5-4.65,9.94,9.94,0,0,1-2.16-5.59,3.66,3.66,0,0,1,1.09-2.63,2.75,2.75,0,0,1,2.16-.75,3,3,0,0,1,2.68,2.61,12.1,12.1,0,0,1-.21,2.31,5.47,5.47,0,0,0,.6,3,3.88,3.88,0,0,0,1.59,1.77,8.89,8.89,0,0,0,3,.45,21.63,21.63,0,0,1,4.65,1,5.61,5.61,0,0,1,3.48,2.53c.26.56.62,1.89.15,2.43Z"/><path class="cls-2" d="M26.09,43.66h0a.08.08,0,0,1,0,0Z"/><path class="cls-3" d="M36.91,27.94,41,24.16V30a10,10,0,0,1,3.12,4.64h2.61A1.38,1.38,0,0,1,48.09,36v2.25a1.38,1.38,0,0,1-1.37,1.38H44.37c-.5,2.44-2.9,4.6-5,5.76l.82,5.15H35.58l-.66-3.92h-6a9.81,9.81,0,0,1-2-.21"/><path class="cls-3" d="M18.91,37.66a10,10,0,0,1,10-10"/><path class="cls-3" d="M22.47,44.29a10,10,0,0,1-2-2.2"/><polyline class="cls-3" points="26.88 46.45 26.21 50.57 21.59 50.57 22.47 44.29"/><path class="cls-3" d="M18.91,37.66a1.5,1.5,0,0,1-3,0"/><line class="cls-4" x1="16.91" y1="15.58" x2="19.05" y2="18.19"/><line class="cls-4" x1="34.41" y1="15.28" x2="32.74" y2="18.07"/><line class="cls-4" x1="25.83" y1="12.88" x2="25.83" y2="16.09"/><path class="cls-1" d="M30.75,28v.22c0,3.23-3,6.44-6.31,6.36S18.52,31,18,27.83c0-.07-.14,0-.21,0A6.66,6.66,0,0,1,18.1,26a6.51,6.51,0,0,1,2.33-3.19l.1-.07a6.45,6.45,0,0,1,3.61-1.18h.13A6.52,6.52,0,0,1,30.75,28Z"/><path class="cls-5" d="M18.56,27.83a7.61,7.61,0,1,1,15.22,0"/><path class="cls-5" d="M20.4,32.79a7.58,7.58,0,0,1-1.84-5"/><path class="cls-5" d="M33.78,27.83a7.6,7.6,0,0,1-1.73,4.83"/><path class="cls-5" d="M26.17,27.83a1.64,1.64,0,1,1,1.64-1.64"/><path class="cls-5" d="M26.17,31.11a1.64,1.64,0,0,1-1.64-1.64"/><path class="cls-5" d="M26.17,27.83a1.64,1.64,0,0,1,0,3.28"/><line class="cls-5" x1="26.17" y1="24.55" x2="26.17" y2="23.09"/><line class="cls-5" x1="26.17" y1="32.57" x2="26.17" y2="31.11"/><path class="cls-2" d="M26,43.58l-.65-.78A4.58,4.58,0,0,1,26,43.58Z"/><line class="cls-5" x1="32" y1="32.66" x2="35.33" y2="32.66"/></svg>