<svg id="Layer_1" data-name="Layer 1" xmlns="http://www.w3.org/2000/svg" viewBox="0 0 64 64"><defs><style>.cls-1{fill:#a8d2f0;}.cls-2{fill:#389ad6;}.cls-3{fill:#fff;}.cls-4{fill:none;stroke:#295183;stroke-linecap:round;stroke-linejoin:round;stroke-width:2px;}</style></defs><title>Play monitor</title><rect class="cls-1" x="14.26" y="12.05" width="35.79" height="33.82" rx="5.81" ry="5.81"/><path class="cls-2" d="M31.35,11.79C27.19,13.12,16.5,17.32,14.26,26V18.07a6.07,6.07,0,0,1,1.92-4.4,6.75,6.75,0,0,1,4.71-1.87Z"/><path class="cls-2" d="M38.33,47.43v3.24A1.41,1.41,0,0,1,36.88,52H28.09a1.41,1.41,0,0,1-1.44-1.36V47.43a1.41,1.41,0,0,1,1.44-1.36h8.79A1.41,1.41,0,0,1,38.33,47.43Z"/><path class="cls-3" d="M50.18,18.32V39.8a3.16,3.16,0,0,1,0,.55,6.48,6.48,0,0,1-6.6,5.72H27.06a32.81,32.81,0,0,1-1.14-8.6A33.75,33.75,0,0,1,37.66,12h5.88A6.46,6.46,0,0,1,50.18,18.32Z"/><path class="cls-3" d="M38.4,47.43v3.24A1.41,1.41,0,0,1,37,52H32.26a9.38,9.38,0,0,1,2.9-6H37A1.41,1.41,0,0,1,38.4,47.43Z"/><path class="cls-4" d="M50.17,18.32V39.8a4.4,4.4,0,0,1,0,.54,6.25,6.25,0,0,1-.35,1.54,4.11,4.11,0,0,1-.19.45,4.58,4.58,0,0,1-.23.45,3.36,3.36,0,0,1-.26.41,5.43,5.43,0,0,1-.65.81,6,6,0,0,1-.61.54,4.15,4.15,0,0,1-.4.31,6.39,6.39,0,0,1-.56.34l-.17.09a3.45,3.45,0,0,1-.44.21,5.37,5.37,0,0,1-.56.21c-.24.08-.5.14-.76.2a7.25,7.25,0,0,1-1.42.14H20.81a6.88,6.88,0,0,1-3.16-.75s0,0,0,0a7,7,0,0,1-1.52-1.09,6,6,0,0,1-1.94-4.42V18.32a6.07,6.07,0,0,1,1.92-4.4A6.75,6.75,0,0,1,20.81,12H43.54a6.82,6.82,0,0,1,4.69,1.84c.14.13.28.28.4.42l.05.06c.12.13.22.27.33.41l0,.05c.12.16.22.33.33.5a5.88,5.88,0,0,1,.49,1.12l.06.22.06.23.1.46A5.7,5.7,0,0,1,50.17,18.32Z"/><path class="cls-4" d="M27,46.34v3.6a2.34,2.34,0,0,0,2.4,2.27H13.65"/><path class="cls-4" d="M28.09,25a1.79,1.79,0,0,1,2.69-1.55l2.61,1.51L36,26.45a1.79,1.79,0,0,1,0,3.11L33.4,31.06l-2.61,1.51A1.79,1.79,0,0,1,28.09,31V28.65"/><polyline class="cls-4" points="20 41.08 34 41.08 34 39.25"/></svg>