<svg xmlns="http://www.w3.org/2000/svg" viewBox="0 0 64 64"><defs><style>.cls-1{fill:#389ad6;}.cls-2{fill:#a8d2f0;}.cls-3{fill:none;stroke:#295183;stroke-linecap:round;stroke-linejoin:round;stroke-width:2px;}.cls-4{fill:#295183;}</style></defs><title>plug, smart, home, appliance</title><g id="Layer_4" data-name="Layer 4"><path class="cls-1" d="M27.83,20.32s-3.46,12.24,4.75,13.28c-.5.17-1.31.83-1.32,2.58S27.57,33.91,25,33.76s-4.33-2.19-2.89-8.61S22.83,19.42,27.83,20.32Z"/><path class="cls-2" d="M33.63,33.76,31.2,35l-3.37,1.65-.29.14-.16.08a1.9,1.9,0,0,1-.26-.62c0-.12,0-.24-.05-.36v-.07a1.75,1.75,0,0,1,0-.4.41.41,0,0,1,.05-.19,1.94,1.94,0,0,1,1.66-1.43l.16,0,.85,0h0l4.07-.09h0Z"/><path class="cls-2" d="M27.37,34.31v2.51a2,2,0,0,0,1.77.9l1.27,0,1.17,0,1.94-.08a2,2,0,0,0,1.92-2v-.07a2,2,0,0,0-1.14-1.71Z"/><path class="cls-2" d="M33.41,41.7l-2.65.14c-.66,0-1.24-.83-1.28-1.93h0c0-1.1.47-2,1.14-2.06l2.65-.14c.66,0,1.24.83,1.28,1.93h0C34.58,40.74,34.07,41.67,33.41,41.7Z"/><path class="cls-1" d="M32.49,40.78a.36.36,0,0,1,0,.09.43.43,0,0,1,0,.07l0,0a1.7,1.7,0,0,1-1.36.82,1.72,1.72,0,0,1-1.76-1.72l0-.38a1.83,1.83,0,0,1,1.22-1.81l-.1-.46a1.59,1.59,0,0,1-.8.24,1.8,1.8,0,0,1-1.89-1.73v-.38a1.81,1.81,0,0,1,1.73-1.88h.07a1.82,1.82,0,0,1,1.82,1.73v.38a1.84,1.84,0,0,1,0,.41h0a2.49,2.49,0,0,0,.68,1.92s0,0,0,0a2.6,2.6,0,0,0,.29.28h0A1.79,1.79,0,0,1,32.49,40.78Z"/><path class="cls-3" d="M29.07,37.78h6.42a2,2,0,0,1,2,2h0a2,2,0,0,1-2,2H29.07"/><circle class="cls-4" cx="32.08" cy="45.46" r="1"/><path class="cls-3" d="M32.76,33.76l-.68,0h-3l-.27,0a2,2,0,0,0-1.14.57,1.92,1.92,0,0,0-.5.82,1.05,1.05,0,0,0-.05.19,1.75,1.75,0,0,0,0,.4v.07a2,2,0,0,0,.05.36,2,2,0,0,0,1.95,1.57h6.42"/><path class="cls-3" d="M41.65,23.33l.76,9.07a1.43,1.43,0,0,1-1.48,1.36H23.09a1.43,1.43,0,0,1-1.48-1.36l.89-10.71A1.43,1.43,0,0,1,24,20.32H40"/><path class="cls-3" d="M22.59,19.66c0-1.17,4.22-2.12,9.42-2.12s9.41.95,9.41,2.12l.07.67"/><line class="cls-3" x1="40.11" y1="20.33" x2="41.49" y2="20.33"/></g></svg>