<svg xmlns="http://www.w3.org/2000/svg" viewBox="0 0 64 64"><defs><style>.cls-1{fill:#3897d3;}.cls-2{fill:#a8d2f0;}.cls-3{fill:none;stroke:#295183;stroke-linecap:round;stroke-linejoin:round;stroke-width:2px;}.cls-4{fill:#295183;}</style></defs><title>plus, minus, settings, increase, decrease</title><g id="Layer_4" data-name="Layer 4"><path class="cls-1" d="M32.94,27.33c2-2-4.42,3.71-5.25,6.41a10.43,10.43,0,0,0-.44,3.91,5.68,5.68,0,0,0,1.22,3.18,8.91,8.91,0,0,0,6.47,2.66,8.49,8.49,0,0,0,6.24-3.18L34.7,41.75S23.87,36.84,32.94,27.33Z"/><path class="cls-2" d="M26.68,12.39s-5.41,23.08,0,29.92a11.41,11.41,0,0,0,6.41,4.48c1.5.34,3.51,1.27,2.52,2.77-.69,1-2.36,1.38-3.7,1.6-2.84.45-5.75,0-8.57.4-1.55.2-5,2.25-3.87-10.58a241.5,241.5,0,0,0,.44-26.83S18.87,10.89,26.68,12.39Z"/><path class="cls-1" d="M21.26,12.39s3,0,1.46,5.5-.9,26.5,3.57,30.25-4.06,4.13-5,3.75-2.39-4.67-1.48-11.58-.59-25-.29-25.17S18.89,12.64,21.26,12.39Z"/><path class="cls-3" d="M19.78,17.89V14.64A2.26,2.26,0,0,1,22,12.39h12.6a2.26,2.26,0,0,1,2.25,2.25"/><circle class="cls-4" cx="25.19" cy="33.56" r="1"/><circle class="cls-4" cx="22.52" cy="33.56" r="1"/><circle class="cls-4" cx="26.63" cy="36.14" r="1"/><circle class="cls-4" cx="23.72" cy="36.14" r="1"/><circle class="cls-4" cx="28.11" cy="38.72" r="1"/><circle class="cls-4" cx="25.19" cy="38.72" r="1"/><circle class="cls-4" cx="22.52" cy="38.72" r="1"/><circle class="cls-4" cx="29.55" cy="41.31" r="1"/><circle class="cls-4" cx="26.63" cy="41.31" r="1"/><circle class="cls-4" cx="23.72" cy="41.31" r="1"/><circle class="cls-4" cx="33.94" cy="43.89" r="1"/><circle class="cls-4" cx="31.02" cy="43.89" r="1"/><circle class="cls-4" cx="28.11" cy="43.89" r="1"/><circle class="cls-4" cx="25.19" cy="43.89" r="1"/><circle class="cls-4" cx="22.52" cy="43.89" r="1"/><circle class="cls-4" cx="32.47" cy="46.47" r="1"/><circle class="cls-4" cx="29.55" cy="46.47" r="1"/><circle class="cls-4" cx="26.63" cy="46.47" r="1"/><circle class="cls-4" cx="23.72" cy="46.47" r="1"/><path class="cls-3" d="M37,41.75l-.08,7.89a2.26,2.26,0,0,1-2.25,2.25H22a2.25,2.25,0,0,1-2.25-2.25V21.51"/><line class="cls-3" x1="36.88" y1="23.39" x2="36.88" y2="17.89"/><line class="cls-3" x1="19.78" y1="17.89" x2="36.88" y2="17.89"/><path class="cls-3" d="M42.9,28.95a7.75,7.75,0,1,1-4-2.51"/><line class="cls-3" x1="36.97" y1="29.38" x2="36.97" y2="31.56"/><line class="cls-3" x1="35.88" y1="30.47" x2="38.06" y2="30.47"/><line class="cls-3" x1="35.88" y1="37.48" x2="38.06" y2="37.48"/><circle class="cls-4" cx="41.18" cy="27.33" r="1"/></g></svg>