<svg id="Layer_1" data-name="Layer 1" xmlns="http://www.w3.org/2000/svg" viewBox="0 0 64 64"><defs><style>.cls-1{fill:#9ac8f1;}.cls-2{fill:none;stroke:#295183;stroke-linecap:round;stroke-linejoin:round;stroke-width:2px;}.cls-3{fill:#3897d3;}.cls-4{fill:#295183;}</style></defs><title>Power plant</title><path class="cls-1" d="M35.47,28.64s2,.8,1,2.14c-.65.81-2,.88-3,.92-2.93.12-3.82,3.41-4.33,5.76A23.59,23.59,0,0,0,29,46.76a11.51,11.51,0,0,0,.82,2.66c.14.31,1,2.23,1.42,2.19l-9.48,1,2.07-14.92-2.07,11.5-4.91-.08L15.47,24a5.79,5.79,0,0,1,4.32,5.18Z"/><path class="cls-2" d="M23.66,34.58a62.39,62.39,0,0,1,0,7.62,27.1,27.1,0,0,1-1.39,7.39,10.28,10.28,0,0,1-1.65,3H41c-5.14-6.25-2.46-24-2.46-24H23.08"/><line class="cls-2" x1="41.21" y1="28.64" x2="38.54" y2="28.64"/><line class="cls-2" x1="23.08" y1="28.64" x2="20.41" y2="28.64"/><path class="cls-3" d="M22.27,29.61a7.63,7.63,0,0,1,1.1,6s.85,15.15-3.58,14c0,0-.8-1,1-5.09s.28-13.76.28-13.76S21,28.9,22.27,29.61Z"/><path class="cls-2" d="M29.37,39.18A3.38,3.38,0,0,1,32,39"/><path class="cls-2" d="M29.22,44.49a3.38,3.38,0,0,1-1.45-2.17"/><path class="cls-2" d="M33.9,42a3.38,3.38,0,0,1-1.16,2.34"/><circle class="cls-4" cx="30.83" cy="41.88" r="1"/><path class="cls-2" d="M19.27,49.59a.61.61,0,0,1-.19,0H17.51A1.58,1.58,0,0,1,15.94,48V22.39a1.59,1.59,0,0,1,1.58-1.57h4.57a1.58,1.58,0,0,1,1.58,1.57v6.25"/><path class="cls-2" d="M23.66,34.58V42.2a27.1,27.1,0,0,1-1.39,7.39"/><line class="cls-2" x1="23.66" y1="28.64" x2="23.08" y2="28.64"/><path class="cls-1" d="M45.55,23.78a2.91,2.91,0,0,1-5.49,1.37,4,4,0,0,1-2.13.61s-8.12.35-10.24-2.15S27.37,16,27.37,16a6.31,6.31,0,0,1,8.77,2.21A4,4,0,0,1,41.85,21a3,3,0,0,1,.79-.11A2.91,2.91,0,0,1,45.55,23.78Z"/><path class="cls-1" d="M37.05,17c-.32-.51-.54-.94-.6-1.06A5.27,5.27,0,0,1,37.05,17Z"/><path class="cls-2" d="M34.79,21.5a4.81,4.81,0,0,1,.7-3.2,4.47,4.47,0,0,1,1-1.11,4.52,4.52,0,0,1,1.46-.84,4.4,4.4,0,0,1,1.66-.3,4.8,4.8,0,0,1,4.59,3.33,3.76,3.76,0,0,1,1.26-.11,3.45,3.45,0,0,1,3,2.62,3.41,3.41,0,0,1-1.07,3.38,1.66,1.66,0,0,1-1.15.41h-8"/><path class="cls-2" d="M28.84,24a6.93,6.93,0,0,1-2.57-4.52,7.13,7.13,0,0,1,1-4.76,7.37,7.37,0,0,1,1.42-1.63,7.14,7.14,0,0,1,8.64-.47"/></svg>