<svg xmlns="http://www.w3.org/2000/svg" viewBox="0 0 64 64"><defs><style>.cls-1{fill:#3897d3;}.cls-2{fill:#9ac8f1;}.cls-3{fill:none;stroke:#2a5080;stroke-linecap:round;stroke-linejoin:round;stroke-width:2px;}.cls-4{fill:#2a5080;}</style></defs><title>power, button, on, off</title><g id="Layer_4" data-name="Layer 4"><path class="cls-1" d="M32.1,23.72c-.25,0-2.87,3.13-2.75,7.25s3.12-.5,3.12-.5Z"/><path class="cls-2" d="M28.15,19.72s4.4,2,.4,7.48.42,9.08.42,9.08,11,2.56,6,7.44-15.62-6.57-15.51-8.44S16.88,23.72,28.15,19.72Z"/><path class="cls-1" d="M27.56,27.72s-5.11,3-2.27,9.48S41.52,39,37.94,30.47c0,0,.54,5.48-3.8,6.37S24.89,38.59,27.56,27.72Z"/><path class="cls-3" d="M34.87,26.23a5.83,5.83,0,1,1-5.72.1"/><line class="cls-3" x1="32.1" y1="31.32" x2="32.1" y2="23.08"/><path class="cls-3" d="M36.13,19.74a12.65,12.65,0,1,0,4.92,3.06"/><circle class="cls-4" cx="38.94" cy="21.06" r="1"/></g></svg>