<svg id="Layer_1" data-name="Layer 1" xmlns="http://www.w3.org/2000/svg" viewBox="0 0 64 64"><defs><style>.cls-1{fill:#9ac8f1;}.cls-2{fill:#389ad6;}.cls-3,.cls-4{fill:none;stroke-linecap:round;stroke-linejoin:round;stroke-width:2px;}.cls-3{stroke:#2a5080;}.cls-4{stroke:#295183;}.cls-5{fill:#295183;}</style></defs><title>Protection</title><path class="cls-1" d="M37.17,15.65a1,1,0,0,1,.48.27,1.44,1.44,0,0,1,.21,1.18c-.21,1.5-.76,3-.59,4.5A5.31,5.31,0,0,0,38,23.79,2.21,2.21,0,0,1,38.52,25a1.71,1.71,0,0,1-.24.71,10.72,10.72,0,0,1-.73,1.2c-.28.4-.68.82-1.16.75a1.77,1.77,0,0,1-.74-.39,5.54,5.54,0,0,0-3.23-.85c-1.13,0-2.25.23-3.38.35a42.68,42.68,0,0,1-7.06,0c-.07,0,.75-2.88.84-3.13a11.63,11.63,0,0,1,1.39-2.7,12.24,12.24,0,0,1,4.37-3.71l.63-.3a16.39,16.39,0,0,1,7.34-1.32A2.73,2.73,0,0,1,37.17,15.65Z"/><path class="cls-2" d="M32.16,17.23a.77.77,0,0,1,.2.43,1.21,1.21,0,0,1-.27.85,5.28,5.28,0,0,1-.63.65,7.52,7.52,0,0,0-2.27,4.56,2.89,2.89,0,0,1-.12.67.78.78,0,0,1-.44.49,1.28,1.28,0,0,1-.86-.14,5.05,5.05,0,0,0-2.06-.34,1.15,1.15,0,0,1-.76-.12.69.69,0,0,1-.22-.66,4.75,4.75,0,0,1,1.11-1.87,14,14,0,0,1,1.57-1.66,29.76,29.76,0,0,1,3.7-2.77,1.11,1.11,0,0,1,.69-.26A.59.59,0,0,1,32.16,17.23Z"/><path class="cls-3" d="M21.06,29.6a14.58,14.58,0,0,1,29.17,0"/><path class="cls-3" d="M21.06,29.59a3.65,3.65,0,0,1,7.29,0"/><path class="cls-3" d="M28.35,29.59A3.65,3.65,0,0,1,32,25.94"/><path class="cls-3" d="M42.93,29.59a3.65,3.65,0,0,0-7.29,0V46.36"/><path class="cls-3" d="M42.93,29.59a3.65,3.65,0,0,1,7.29,0"/><path class="cls-3" d="M35.64,46.36a2.62,2.62,0,0,1-4.79,1.46"/><path class="cls-2" d="M34.47,17.46c.14-.58.4-.91.87-.52a1.69,1.69,0,0,1,.43,1,15.44,15.44,0,0,1,.12,2c0,1.29,0,2.57,0,3.86A4,4,0,0,1,35.7,25a1.06,1.06,0,0,1-.69.73c-.46.09-.88-.42-1-1A5.15,5.15,0,0,1,34,23c.11-1,.18-1.94.24-2.92A15.09,15.09,0,0,1,34.47,17.46Z"/><path class="cls-3" d="M28.36,24a8.07,8.07,0,0,1,2-4.65"/><line class="cls-3" x1="35.67" y1="18.66" x2="35.67" y2="23.42"/><path class="cls-1" d="M25.84,34.75A2.65,2.65,0,0,0,26,37.36c.84,1.56-.72,1.71-1.43,1.35s-1.84-.41-2.2.15,6.05,4.68,6.05,4.68S29,36.89,25.84,34.75Z"/><path class="cls-2" d="M22.39,38.86s.23-1.06,2,.2,3.9,3.27,4,4.67-3.55-3-3.55-3Z"/><path class="cls-4" d="M22.21,38.93a15.86,15.86,0,0,1,2.88,2.13,41.52,41.52,0,0,1,5.31,6.13s0,0,0,0l.45.63"/><path class="cls-4" d="M24.22,46.36l1-.24-1.25.27c-3.46.31-11.15-.4-10-13.2a13,13,0,0,0,8.93.84A4,4,0,0,1,24,33.92a4.64,4.64,0,0,1,3.82,3.34c.72,1.91.33,3.67.62,5.61a10.35,10.35,0,0,0,1.91,4.31h0c.13.19.31.44.45.63"/><circle class="cls-5" cx="19.38" cy="64.95" r="1"/></svg>