<svg id="Layer_1" data-name="Layer 1" xmlns="http://www.w3.org/2000/svg" viewBox="0 0 64 64"><defs><style>.cls-1{fill:#a8d2f0;}.cls-2{fill:#3897d3;}.cls-3{fill:none;stroke:#2a5081;stroke-linecap:round;stroke-linejoin:round;stroke-width:2px;}.cls-4{fill:#2a5081;}</style></defs><title>Puzzle pieces</title><path class="cls-1" d="M24.77,17.07c1.06.78.77,3.5.87,4.51.3,3.05,3.19,5.1,4.76,7.74,1.41,2.35,1.76,5.19,2.94,7.66a12.75,12.75,0,0,0,10.25,7.08,4.06,4.06,0,0,1,2.91,1.51c.76,1.46-1.46,2.39-2.58,2.52A5.23,5.23,0,0,1,40.15,47l-2.63,2.43a.6.6,0,0,1-.91.05L32.54,47A5.12,5.12,0,0,0,34.6,44.1a2.64,2.64,0,0,0-2.76-2.87c-1.29.14-2.26,1.21-3.09,2.22-.43-1.63-1-3.4-2.36-4.32-.83-.55-1.87-.72-2.71-1.27A3.59,3.59,0,0,1,22.08,35l-2.85,1.69a1.28,1.28,0,0,1-.73.25,1.27,1.27,0,0,1-.55-.23L15.15,35l1.64-4.21a.76.76,0,0,0-.18-1c-.61-.62-3-2.44-2.88-3.22.07-.46,1.31-1.39,1.64-1.74L17,23l1.77,2.25a.63.63,0,0,0,.89.25l2.4-.85a.86.86,0,0,0,.44-.26.83.83,0,0,0,.1-.56c-.12-1.62-1.43-6.36,1.06-6.95A1.28,1.28,0,0,1,24.77,17.07Z"/><path class="cls-2" d="M30,28.65a7.75,7.75,0,0,0-2.38.49,3.49,3.49,0,0,0-1.52,1.58c-.51,1.06.08,3.74-1.27,4.21-.46.16-1.36.42-1.13,1.16,0,0,.77,2.5,3.47,0s0-2.81,0-2.81S28.81,28.89,30,28.65Z"/><path class="cls-3" d="M17,23.46l.7.7a3.14,3.14,0,0,0,4.43-4.43l-.7-.7,2.24-2.24a2,2,0,0,1,2.84,0l2.3,2.3.7-.7A3.13,3.13,0,1,1,34,22.81l-.7.7,2.19,2.19a2,2,0,0,1,0,2.83"/><path class="cls-3" d="M32.52,30.08a3.14,3.14,0,0,0-4.43,4.43l.7.7-2.25,2.25a2,2,0,0,1-2.83,0l-2.19-2.19-.7.7a3.13,3.13,0,1,1-4.43-4.43l.7-.7-2.3-2.3a2,2,0,0,1,0-2.83"/><path class="cls-3" d="M45,42.49l.7.7a3.13,3.13,0,1,1-4.43,4.43l-.7-.7-2.3,2.3a2,2,0,0,1-2.83,0L33.22,47l.7-.7a3.14,3.14,0,0,0-4.43-4.43l-.7.7"/><path class="cls-3" d="M35.46,28.54a2,2,0,0,1,2.83,0l2.25,2.25-.7.7a3.14,3.14,0,0,0,4.43,4.43l.7-.7,2.25,2.25a2,2,0,0,1,0,2.83"/><circle class="cls-4" cx="27.05" cy="40.3" r="1" transform="translate(-20.57 30.93) rotate(-45)"/></svg>