<svg id="Layer_1" data-name="Layer 1" xmlns="http://www.w3.org/2000/svg" viewBox="0 0 64 64"><defs><style>.cls-1{fill:#9ac8f1;}.cls-2,.cls-4,.cls-5{fill:none;stroke-linecap:round;stroke-linejoin:round;stroke-width:2px;}.cls-2{stroke:#2a5080;}.cls-3{fill:#9dcbf4;}.cls-4{stroke:#295183;}.cls-5{stroke:#9dcbf4;}</style></defs><title>Receive money</title><path class="cls-1" d="M39.19,46.82c.72.17,0,1.09-.22,1.35a11.18,11.18,0,0,1-3.67,2.24,14.91,14.91,0,0,1-5,.92A20.48,20.48,0,0,1,19.63,49a6.35,6.35,0,0,0-2.45-1,5.3,5.3,0,0,0-2.77.81,1.32,1.32,0,0,1-.67.2A.9.9,0,0,1,13,47.9a2.39,2.39,0,0,1,.73-1.2A18.7,18.7,0,0,1,15.61,45a4,4,0,0,1,2.59-1.14A4.68,4.68,0,0,1,20.58,45c2.88,2.06,6.18,3.95,9.72,3.75a24.44,24.44,0,0,0,4.94-.85c.81-.22,1.61-.46,2.41-.72A3.71,3.71,0,0,1,39.19,46.82Z"/><path class="cls-2" d="M42.31,43.82a2,2,0,0,1,2.87,0h0a2,2,0,0,1,0,2.87"/><path class="cls-2" d="M12.72,45.61l.17-.17,6.56-6.55a4.53,4.53,0,0,1,1.35-.95,4.36,4.36,0,0,1,1.7-.43,1.62,1.62,0,0,1,.31,0H33a1.93,1.93,0,0,1,1.82,2A2.07,2.07,0,0,1,34.3,41a1.7,1.7,0,0,1-1.28.6H24.16"/><path class="cls-2" d="M42.34,43.79a10.81,10.81,0,0,1-3,2.72,10.48,10.48,0,0,1-5.55,1.58h-.3a10.54,10.54,0,0,1-9.47-6.53"/><path class="cls-3" d="M47.9,30.14v.25a7.31,7.31,0,0,1-5,6.79,7.21,7.21,0,0,1-2,.35H40.3l-1.75-.43h0a7,7,0,0,0-1.83-1.45,0,0,0,0,1,0,0c-1.17-.79-2.42-2-3-5.63,0-.08-.16,0-.24,0a7.44,7.44,0,0,1,.36-2,7.28,7.28,0,0,1,2.6-3.56l.11-.08a7.21,7.21,0,0,1,4-1.32h.15A7.28,7.28,0,0,1,47.9,30.14Z"/><path class="cls-4" d="M34.28,30a8.5,8.5,0,0,1,17,0"/><path class="cls-4" d="M51.28,30a8.5,8.5,0,0,1-17,0"/><path class="cls-4" d="M42.78,30a1.83,1.83,0,1,1,1.83-1.83"/><path class="cls-4" d="M42.78,33.65a1.83,1.83,0,0,1-1.83-1.83"/><path class="cls-4" d="M42.78,30a1.83,1.83,0,0,1,0,3.67"/><line class="cls-4" x1="42.78" y1="26.32" x2="42.78" y2="24.69"/><line class="cls-4" x1="42.78" y1="35.28" x2="42.78" y2="33.65"/><line class="cls-5" x1="43.08" y1="17.65" x2="43.08" y2="12.65"/><line class="cls-5" x1="33.05" y1="20.48" x2="28.56" y2="15.99"/><line class="cls-5" x1="29.56" y1="29.65" x2="24.08" y2="29.65"/></svg>