<svg id="Layer_1" data-name="Layer 1" xmlns="http://www.w3.org/2000/svg" viewBox="0 0 64 64"><defs><style>.cls-1{fill:#fff;}.cls-2{fill:#9ac8f1;}.cls-3{fill:#389ad6;}.cls-4{fill:#2a5082;}.cls-5{fill:none;stroke:#295183;stroke-linecap:round;stroke-linejoin:round;stroke-width:2px;}</style></defs><title>Recycle garbage bag</title><path class="cls-1" d="M49.58,53.77s-8.66-1.76-12.91-.5c-1,.3-1.39-.2-1.37-1.15A16.42,16.42,0,1,1,49,35.93a15.68,15.68,0,0,1-.28,3l.57-.17-.32,12.67Z"/><path class="cls-2" d="M48.94,52.37c-2.42,1.28-13.24,0-16.16,0A17.15,17.15,0,0,1,26.9,19.11a16.35,16.35,0,0,1,1.94-.59c-.14.2-.29.4-.42.61a2.44,2.44,0,0,0-.21.33,20.19,20.19,0,0,0-3.22,11C25,40.17,39.85,50.31,48.94,52.37Z"/><path class="cls-3" d="M27.6,52.52l.6.75c-2.15-1.61-6.6-.36-6.6-.36l-6.66-.77.67-3.44a22.53,22.53,0,0,1,.57-8.16A17.12,17.12,0,0,1,26.9,20.06c.5,0,1,0,1.52,0h.2l-.41.32-.38.31A20.41,20.41,0,0,0,29,52.91,14.68,14.68,0,0,1,27.6,52.52Z"/><path class="cls-3" d="M26.71,20.71l1.5-.29A7.15,7.15,0,0,1,31.72,19a5.33,5.33,0,0,0,3.62-2.44l-2.91-2.28L26.9,20.06Z"/><circle class="cls-4" cx="42.89" cy="22.41" r="0.95"/><path class="cls-5" d="M40.89,21a16.78,16.78,0,0,0-8.12-2,17.65,17.65,0,0,0-2,.12"/><path class="cls-5" d="M27.33,14l-.44-.44a2,2,0,0,1,0-2.77h0a2,2,0,0,1,2.77,0L35,16.19"/><path class="cls-5" d="M44.93,24.05a17.31,17.31,0,0,1,5,12.1,16.94,16.94,0,0,1-.78,5.2,11.14,11.14,0,0,0-.55,2.42,30.07,30.07,0,0,0,1.24,9.54S45.18,52,37.28,52.71c-1,.1-2.16.24-3.33.42a11.36,11.36,0,0,1-2.78.12l-.22,0c-8.32-.87-15.38-8.79-15.34-17.16a17.07,17.07,0,0,1,6.87-13.61,55.83,55.83,0,0,0,6.14-5.15L35,10.87a2,2,0,0,1,2.19-.5,2,2,0,0,1,.66,3.21l-2.68,2.68"/><path class="cls-5" d="M15.31,45.66s.31,5.22-1.25,7.25a17.11,17.11,0,0,1,6.89,0"/><path class="cls-5" d="M39,28.56l-.73,6.5-6.13-1.82,2.06-.85S31.78,25.22,27,30.08l1.18-1.66a5,5,0,0,1,4.07-2.1h0a5,5,0,0,1,3.33,1.27"/><path class="cls-5" d="M22.74,36.25l6-2.62,1.49,6.22-1.77-1.36s-5,5.69,1.58,7.36l-2-.19a5,5,0,0,1-3.85-2.47h0a5,5,0,0,1-.62-3.2"/><path class="cls-5" d="M37.53,46.5l-5.26-3.88,4.64-4.4-.3,2.21s7.42,1.48,5.58-5.05L43,37.23a5,5,0,0,1-.21,4.57h0a5,5,0,0,1-3,2.31"/></svg>