<svg id="Layer_1" data-name="Layer 1" xmlns="http://www.w3.org/2000/svg" viewBox="0 0 64 64"><defs><style>.cls-1{fill:none;stroke:#295183;stroke-linecap:round;stroke-linejoin:round;stroke-width:2px;}.cls-2{fill:#9ac8f1;}.cls-3{fill:#389ad6;}.cls-4{fill:#295183;}</style></defs><title>Recycle ecology</title><path class="cls-1" d="M44.36,28.38l-.77,6.88-6.49-1.93,2.78-2S36.71,24.84,31.69,30c0,0,1.64-4.7,9.89-4.51"/><path class="cls-1" d="M27.13,36.51l6.34-2.77L35,40.33l-3.36-1.55s-3.8,6.13,3.16,7.9c0,0-5.92-.35-6.82-6.14"/><path class="cls-1" d="M42.79,47.37l-5.57-4.11,4.92-4.66.5,3.59s7,.32,5.1-6.59"/><path class="cls-2" d="M17.67,24.55s1.9,1.34,1.56,4.67,2.49,2.46,3.47,1.33,2.92-2,3.95-1.33-7.17,12.52-7.17,12.52S13.7,30.55,17.67,24.55Z"/><path class="cls-3" d="M26.64,29.22s-1.17-1.67-3.42,1.83-4.44,8.5-3.55,11,4-7.83,4-7.83Z"/><path class="cls-1" d="M27,29.22A29.9,29.9,0,0,0,23.52,35a78.28,78.28,0,0,0-4.83,14.5s0,0,0,0c-.1.43-.21.86-.31,1.27"/><path class="cls-1" d="M41.58,25.47a37.42,37.42,0,0,0-4.21-12.25s-4.77,6.23-15,7.89a7.57,7.57,0,0,0-2.23.7c-3.08,1.53-4.38,5-4.25,8.58.13,3.85,2.07,6.63,3,10.22a19.52,19.52,0,0,1-.22,8.89h0c-.09.43-.2.85-.31,1.27"/><circle class="cls-4" cx="24.05" cy="44.55" r="1"/></svg>