<svg id="Layer_1" data-name="Layer 1" xmlns="http://www.w3.org/2000/svg" viewBox="0 0 64 64"><defs><style>.cls-1{fill:#9ac8f1;}.cls-2{fill:none;stroke:#295183;stroke-linecap:round;stroke-linejoin:round;stroke-width:2px;}</style></defs><title>Recycling</title><path class="cls-1" d="M34.94,39.26S37.56,36,38,37.75a4.92,4.92,0,0,0,2.42,2.67s1.69,6.17,9.58,0c0,0-1.39,5.25-6,6.41s-4,.58-4,.58.4,2.25-.85,2.58S30,43.62,30,43.62Z"/><path class="cls-1" d="M13.08,32.5s4.55-.12,1.75,5.69S19.66,48,19.66,48h1.51s-10.58-2.58,1.75-20C22.92,28,14.67,29.75,13.08,32.5Z"/><path class="cls-1" d="M29.47,13.31S39,17.57,40.85,28.16l-9-2.16,2-2S30.31,13.33,22,19C22,19,24.69,13.36,29.47,13.31Z"/><path class="cls-2" d="M43,17.42,41.6,29.5,30.2,26.11,34,24.53s-4.51-13.31-13.31-4.29l2.19-3.09a9.27,9.27,0,0,1,7.56-3.9h0a9.27,9.27,0,0,1,6.18,2.36"/><path class="cls-2" d="M12.71,31.7l11.13-4.86L26.61,38.4l-3.29-2.53S14,46.43,26.27,49.54l-3.77-.35a9.27,9.27,0,0,1-7.16-4.59h0a9.27,9.27,0,0,1-1.15-6"/><path class="cls-2" d="M40.19,50.75l-9.78-7.21L39,35.36l-.55,4.11s13.79,2.75,10.37-9.39l1.58,3.45A9.27,9.27,0,0,1,50,42h0a9.27,9.27,0,0,1-5.52,4.29"/></svg>