<svg id="Layer_1" data-name="Layer 1" xmlns="http://www.w3.org/2000/svg" viewBox="0 0 64 64"><defs><style>.cls-1{fill:#9ac8f1;}.cls-2{fill:#389ad6;}.cls-3{fill:none;stroke:#295183;stroke-linecap:round;stroke-linejoin:round;stroke-width:2px;}.cls-4{fill:#295183;}</style></defs><title>Recycle lightbulb</title><path class="cls-1" d="M29,19.28h.12a2.22,2.22,0,0,1,2.17,3.32,8.59,8.59,0,0,0-.1,8.55c1.09,1.93,2.4,4.45,4.83,4.8a4.46,4.46,0,0,0,2.83-.71c.55-.32,1.54-1.42,2.15-.6a1.15,1.15,0,0,1,.1.91c-.57,2.94-2,3.27-4.91,4.05C31,41,24.08,38.32,22.09,33.07c-1.63-4.3.77-9.91,3.95-12.51A6.16,6.16,0,0,1,29,19.28Z"/><path class="cls-2" d="M24.31,23.28a1.21,1.21,0,0,1,.94-.26,1.25,1.25,0,0,1,.89,1.16,6.43,6.43,0,0,1-.91,2.94,5.72,5.72,0,0,0-.8,3.62c.17.71,1.32,2.16.25,2.66a1.71,1.71,0,0,1-1.86-.45A3.54,3.54,0,0,1,22,31.11,9.34,9.34,0,0,1,22.53,26a7.57,7.57,0,0,1,1.32-2.25A2.79,2.79,0,0,1,24.31,23.28Z"/><rect class="cls-1" x="26.98" y="40.03" width="8.39" height="4" rx="2" ry="2" transform="translate(-1.72 1.33) rotate(-2.39)"/><path class="cls-1" d="M33.32,48.1l-2.65.14c-.66,0-1.24-.83-1.28-1.93h0c0-1.1.47-2,1.14-2.06l2.65-.14c.66,0,1.24.83,1.28,1.93h0C34.5,47.13,34,48.06,33.32,48.1Z"/><path class="cls-2" d="M32.41,47.17a.36.36,0,0,1,0,.09.43.43,0,0,1,0,.07l0,0a1.7,1.7,0,0,1-1.36.82,1.72,1.72,0,0,1-1.76-1.72l0-.38a1.83,1.83,0,0,1,1.22-1.81l-.1-.46a1.59,1.59,0,0,1-.8.24,1.8,1.8,0,0,1-1.89-1.73v-.38a1.81,1.81,0,0,1,1.73-1.88h.07a1.82,1.82,0,0,1,1.82,1.73v.38a1.84,1.84,0,0,1,0,.41h0a2.49,2.49,0,0,0,.68,1.92l0,0a2.6,2.6,0,0,0,.29.28h0A1.79,1.79,0,0,1,32.41,47.17Z"/><path class="cls-3" d="M29,44.17H35.4a2,2,0,0,1,2,2h0a2,2,0,0,1-2,2H29"/><circle class="cls-4" cx="32" cy="51.86" r="1"/><path class="cls-3" d="M29.23,36.08c.34.3-.17.74-.4.91a4.06,4.06,0,0,1-5.24-.82,9.84,9.84,0,0,1-2.43-6.84A10.85,10.85,0,1,1,32,40.17H29a2,2,0,0,0-2,2,2,2,0,0,0,2,2h6.42"/><line class="cls-3" x1="32" y1="11.14" x2="32" y2="15.17"/><line class="cls-3" x1="41.19" y1="13.41" x2="39.3" y2="16.98"/><line class="cls-3" x1="23.07" y1="13.3" x2="24.91" y2="16.89"/><path class="cls-3" d="M35.63,24.55l-.49,4.37L31,27.7l1.77-1.29s-2-4.11-5.2-.84"/><path class="cls-3" d="M24.69,29.72l4-1.76,1,4.19-2.13-1a5.32,5.32,0,0,0-.33.67,4.25,4.25,0,0,0-.34,1.56,2.52,2.52,0,0,0,.45,1.49,3.93,3.93,0,0,0,1.85,1.2"/><path class="cls-3" d="M34.64,36.62,31.1,34l3.12-3,.32,2.28s4.47.21,3.24-4.19"/></svg>