<svg id="Layer_1" data-name="Layer 1" xmlns="http://www.w3.org/2000/svg" viewBox="0 0 64 64"><defs><style>.cls-1{fill:#9ac8f1;}.cls-2{fill:#3897d3;}.cls-3{fill:none;stroke:#295183;stroke-linecap:round;stroke-linejoin:round;stroke-width:2px;}</style></defs><title>Recycle battery</title><path class="cls-1" d="M34.74,54H18.6c-.12-.33-.24-.66-.34-1a24.48,24.48,0,0,1-.64-2.52,52.21,52.21,0,0,1-.54-11.33l.39-15.54c0-1.29.06-2.59.1-3.88a26.51,26.51,0,0,1,.1-3.89,2.17,2.17,0,0,1,1.05-1.39,7.42,7.42,0,0,1,3.63-1h.34l.25,0v0c.07-.8.15-1.59.22-2.39l.15-1.57a11,11,0,0,1,1.52.08,4.31,4.31,0,0,1,1.66.48l.19.12a2.15,2.15,0,0,1,.77,3l-.25.3a3,3,0,0,0-.91,2,37.38,37.38,0,0,0,.21,5.39c.08,1.19.15,2.39.22,3.58a11.83,11.83,0,0,1,.11,3.25,1.75,1.75,0,0,1-1.21,1.38,3.1,3.1,0,0,1-1.44-.17A2,2,0,0,0,21.71,30a3.76,3.76,0,0,0-.13.4,2.86,2.86,0,0,0-.08.67c0,.52,0,1,0,1.56v.43c0,2,0,3.91,0,5.87,0,.68,0,1.37,0,2,0,1.43,0,2.85.06,4.27,0,.61,0,1.23,0,1.84s0,1.15,0,1.73a1.35,1.35,0,0,0,.15.69,1.25,1.25,0,0,0,.46.36c.3.17.61.33.93.49a13.32,13.32,0,0,0,7.61,1.7,7.21,7.21,0,0,1,2.73-.13C34.4,52.17,35.17,53.18,34.74,54Z"/><path class="cls-2" d="M29.81,49.81c-2.5-.19-8.11,1.08-8.17-1a12.07,12.07,0,0,0-.15-1.57,23.6,23.6,0,0,0-.75-3.14s-.43-3.55.47-4.17c.21-.15.25-.44.18-.84h0c-.18-1.29-1.25-3.7.09-6v0l-.05-.51L21.3,31l-.09-1h7.42s2.77,1,.53,3.52l.11.16c.37.57,1.5,2.55.06,3.51a4.89,4.89,0,0,1,.46.66,5.73,5.73,0,0,1,.77,3.84s0,.13.12.34c.27.85.81,3-.75,3.22-1,.13-.8.57-.36,1a6.1,6.1,0,0,0,1,.68S32.32,50,29.81,49.81Z"/><path class="cls-3" d="M37.32,15.59l0-.08"/><line class="cls-3" x1="27.2" y1="13.5" x2="27.13" y2="13.5"/><path class="cls-3" d="M37.62,30.34V51A3.52,3.52,0,0,1,34.1,54.5h-13A3.46,3.46,0,0,1,19.36,54a3.47,3.47,0,0,1-1.74-3V17a3.51,3.51,0,0,1,3.51-3.51h1.81V12.18a2.73,2.73,0,0,1,.22-1.07,2.69,2.69,0,0,1,1.67-1.49,2.5,2.5,0,0,1,.78-.12h4"/><path class="cls-3" d="M31.88,46.2H23.3a2.14,2.14,0,0,0-1.48.61,3.11,3.11,0,0,0-.23.28,1.4,1.4,0,0,0-.1.16,2.07,2.07,0,0,0,1.69,3.11h8.7A2.08,2.08,0,0,0,34,48.29"/><path class="cls-3" d="M21.21,44.11a2.15,2.15,0,0,0,.34,1.14,2.09,2.09,0,0,0,1.75,1h8.58A2.08,2.08,0,0,0,34,44.11,2.08,2.08,0,0,0,31.88,42H23.3"/><path class="cls-3" d="M31.88,37.85H23.3a2.09,2.09,0,0,0-1.48.61,2.3,2.3,0,0,0-.35.47,1.19,1.19,0,0,0-.08.16h0a2,2,0,0,0-.18.84,2,2,0,0,0,.28,1A2.11,2.11,0,0,0,23.3,42h8.58"/><line class="cls-3" x1="21.21" y1="35.76" x2="21.21" y2="35.76"/><path class="cls-3" d="M23.3,37.85h8.58a2.09,2.09,0,0,0,0-4.17H23.3"/><path class="cls-3" d="M31.88,29.5H23.3a2.1,2.1,0,0,0-1.35.5.69.69,0,0,0-.13.11,2.17,2.17,0,0,0-.24.29,2.25,2.25,0,0,0-.28.61,1.9,1.9,0,0,0-.09.58,2.16,2.16,0,0,0,.22.94.31.31,0,0,1,.05.1,2.13,2.13,0,0,0,1.82,1h8.58"/><path class="cls-3" d="M40.19,10.66a4.33,4.33,0,0,0-6.39.72l-1,1.44c4.1-4.2,6.19,2,6.19,2l-1.69.7-.09,0,.13,0,5.17,1.53.63-5.61"/><path class="cls-3" d="M29.06,18.14l5.17-2.26,1.29,5.37L34,20.08S29.68,25,35.36,26.44l-1.75-.16a4.31,4.31,0,0,1-3.33-2.14h0a4.31,4.31,0,0,1-.53-2.77"/><path class="cls-3" d="M43.85,24.94A4.3,4.3,0,0,0,46.6,19l-.73-1.6C47.45,23,41,21.76,41,21.76l.25-1.91-3.68,3.49-.33.31.33.24L41.84,27"/></svg>