<svg id="Layer_1" data-name="Layer 1" xmlns="http://www.w3.org/2000/svg" viewBox="0 0 64 64"><defs><style>.cls-1{fill:#9ac8f1;}.cls-2{fill:#389ad6;}.cls-3{fill:none;stroke:#295183;stroke-linecap:round;stroke-linejoin:round;stroke-width:2px;}.cls-4{fill:#295183;}.cls-5{fill:#a8d2f0;}</style></defs><title>Recyce settings</title><path class="cls-1" d="M14.12,24.55s1.9,1.34,1.56,4.67,2.49,2.46,3.47,1.33,2.92-2,3.94-1.33-7.17,12.52-7.17,12.52S10.15,30.55,14.12,24.55Z"/><path class="cls-2" d="M23.09,29.22s-1.17-1.67-3.42,1.83-4.44,8.5-3.55,11,4-7.83,4-7.83Z"/><path class="cls-3" d="M23.46,29.22A29.9,29.9,0,0,0,20,35a78.28,78.28,0,0,0-4.83,14.5s0,0,0,0c-.1.43-.21.86-.31,1.27"/><path class="cls-3" d="M37.83,31.82c1-4.45.21-10.48-4-18.6,0,0-4.77,6.23-14.95,7.89a7.57,7.57,0,0,0-2.23.7c-3.08,1.53-4.38,5-4.25,8.58.13,3.85,2.07,6.63,3,10.22a19.52,19.52,0,0,1-.22,8.89h0c-.09.43-.2.85-.31,1.27"/><path class="cls-3" d="M25.3,43.61l-1.84.27c.14,0,2.23-.39,2.38-.43a23.76,23.76,0,0,0,2.75-1"/><circle class="cls-4" cx="20.5" cy="44.55" r="1"/><path class="cls-2" d="M32.42,42.33S28.87,35.19,38,34l-3.15,8.45Z"/><path class="cls-5" d="M38,35.55c1.78-.36,1.83,1,2.06,2.31a10.16,10.16,0,0,0,1.88,4.36,7.24,7.24,0,0,0,1.14,1.36c.42.34,1.25.48,1.51,1a.85.85,0,0,1-.12.87,3,3,0,0,1-1.32.92,5,5,0,0,1-2,.31s-4.91-.68-5.91-2.71c-.82-1.65-.16-4.23.49-5.83a4.68,4.68,0,0,1,1.71-2.38A1.89,1.89,0,0,1,38,35.55Z"/><path class="cls-3" d="M48.42,40.17a6.45,6.45,0,0,1-.16,1.91,6.53,6.53,0,0,1-.26.86,6.17,6.17,0,0,1-.65,1.28,6.58,6.58,0,0,1-2.13,2.1,6.25,6.25,0,0,1-1,.53,6.72,6.72,0,0,1-1.11.34,6.56,6.56,0,0,1-3,0h0a6.37,6.37,0,0,1-2.13-.9,6.45,6.45,0,0,1-2.09-2.13h0a5.92,5.92,0,0,1-.54-1A6,6,0,0,1,35,42a6.76,6.76,0,0,1,0-3,6.63,6.63,0,0,1,.65-1.7,2.82,2.82,0,0,1,.26-.44A6.32,6.32,0,0,1,37,35.57a1.51,1.51,0,0,1,.23-.21,4.86,4.86,0,0,1,.83-.6,6.52,6.52,0,0,1,2.14-.87h0a6.48,6.48,0,0,1,2.63,0l.34.07a6.8,6.8,0,0,1,2.15.91l.11.07a6.61,6.61,0,0,1,2,2.06,6.25,6.25,0,0,1,.53,1,5.76,5.76,0,0,1,.34,1.12h0a4.45,4.45,0,0,1,.12.73A1.83,1.83,0,0,1,48.42,40.17Z"/><circle class="cls-3" cx="41.63" cy="40.54" r="2.73" transform="translate(-12.17 18.6) rotate(-22.05)"/><rect class="cls-4" x="36.94" y="30.73" width="3.01" height="3.87" rx="0.8" ry="0.8" transform="translate(-9.45 16.82) rotate(-22.05)"/><path class="cls-4" d="M35.92,37.19l-.05.14-.55,1.3A.83.83,0,0,1,35,39a.78.78,0,0,1-.73.05l-2.09-.88a.81.81,0,0,1-.42-1.05l.15-.34.4-1a.8.8,0,0,1,1.05-.43l2.08.88a.8.8,0,0,1,.47.58A.74.74,0,0,1,35.92,37.19Z"/><rect class="cls-4" x="32.26" y="41.79" width="3.01" height="3.87" rx="0.8" ry="0.8" transform="translate(5.91 91.44) rotate(-112.05)"/><rect class="cls-4" x="36.82" y="46.42" width="3.01" height="3.87" rx="0.8" ry="0.8" transform="translate(54.76 107.83) rotate(-157.05)"/><path class="cls-4" d="M45.79,46.8l.85,2.09a.8.8,0,0,1-.44,1l-1.29.52a.8.8,0,0,1-1-.44L43,47.92a.8.8,0,0,1,.07-.74.72.72,0,0,1,.37-.31l1.29-.52a.72.72,0,0,1,.48,0A.8.8,0,0,1,45.79,46.8Z"/><path class="cls-4" d="M51.5,44l-.26.62-.28.67a.8.8,0,0,1-1,.42l-2.09-.88a.79.79,0,0,1-.47-.57.73.73,0,0,1,0-.48l.48-1.12.07-.17a.78.78,0,0,1,.32-.37A.82.82,0,0,1,49,42l2.09.89A.8.8,0,0,1,51.5,44Z"/><rect class="cls-4" x="48" y="35.42" width="3.01" height="3.87" rx="0.8" ry="0.8" transform="translate(65.54 -22.55) rotate(67.95)"/><rect class="cls-4" x="43.44" y="30.79" width="3.01" height="3.87" rx="0.8" ry="0.8" transform="translate(16.32 -14.93) rotate(22.95)"/><path class="cls-3" d="M33.71,42.52a5.16,5.16,0,1,1-.23-9.66"/><rect class="cls-4" x="28.25" y="30.37" width="2.26" height="2.9" rx="0.6" ry="0.6" transform="translate(-9.8 13.36) rotate(-22.05)"/><rect class="cls-4" x="24.78" y="33.79" width="2.26" height="2.9" rx="0.6" ry="0.6" transform="translate(-16.65 45.36) rotate(-67.05)"/><rect class="cls-4" x="24.74" y="38.67" width="2.26" height="2.9" rx="0.6" ry="0.6" transform="translate(-1.61 79.16) rotate(-112.05)"/><rect class="cls-4" x="28.16" y="42.15" width="2.26" height="2.9" rx="0.6" ry="0.6" transform="translate(39.26 95.17) rotate(-157.05)"/></svg>