<svg id="Layer_1" data-name="Layer 1" xmlns="http://www.w3.org/2000/svg" viewBox="0 0 64 64"><defs><style>.cls-1{fill:#9ac8f1;}.cls-2{fill:#3897d3;}.cls-3{fill:none;stroke:#295183;stroke-linecap:round;stroke-linejoin:round;stroke-width:2px;}.cls-4{fill:#295183;}</style></defs><title>Recycle trash can</title><path class="cls-1" d="M27.61,18.37l6.9.23c.85,0,1.8-.15,2.47.44s.75,1.42,1.13,2.18a22.85,22.85,0,0,1,.79,5.42,70.91,70.91,0,0,1-.37,8.89,31.59,31.59,0,0,1-1,6.18,4.45,4.45,0,0,1-1.77,2.75,3.65,3.65,0,0,1-2.43.31A2.2,2.2,0,0,1,31.92,44a4,4,0,0,1-.43-1.84,4.06,4.06,0,0,0-3-3.27,4.06,4.06,0,0,1-1.28-.37,2.38,2.38,0,0,1-.88-1.49A15.93,15.93,0,0,1,25.94,33,89.61,89.61,0,0,1,27.61,18.37Z"/><path class="cls-2" d="M26.7,18.25s2.3-1.07,1.33,5c-.69,4.28-.4,11.93-.17,16a1.65,1.65,0,0,1-3.14.8A9.78,9.78,0,0,1,24,36C24,29,20.2,17.63,26.7,18.25Z"/><path class="cls-2" d="M21.85,42.31a1,1,0,0,1,.53,0c.86.22,1.4,1.58,1.32,2.38s-.67,1.77-.29,2.56a1.53,1.53,0,0,0,1.15.77c.85.13,3.78-.87,3.09,1.17a1.68,1.68,0,0,1-1.13,1,4,4,0,0,1-1.55.08c-1.65-.16-3.46-.77-4.21-2.26a4.3,4.3,0,0,1-.1-3.23C20.87,44.12,21,42.58,21.85,42.31Z"/><line class="cls-3" x1="23.76" y1="40.72" x2="23.14" y2="23.61"/><path class="cls-3" d="M28.48,41.87a5.09,5.09,0,0,1,1.67,3.78,4.84,4.84,0,0,1-.3,1.71,5.1,5.1,0,1,1-6.09-6.64"/><path class="cls-3" d="M30.15,45.65a4.84,4.84,0,0,1-.3,1.71h8.8a4.7,4.7,0,0,0,4.7-4.54L44,22.61a4.7,4.7,0,0,0-4.7-4.86H27.84a14,14,0,0,0-2.26.58,1.29,1.29,0,0,1-1.21-.12l.18.11a.67.67,0,0,1-.18-.11,1.73,1.73,0,0,1-.69-1.38v-.16a1.76,1.76,0,0,1,1.75-1.75H42.84V13.25"/><circle class="cls-4" cx="23.03" cy="21" r="1"/><path class="cls-3" d="M37.64,24.72l-.49,4.37L33,27.87l1.77-1.29s-2-4.11-5.2-.84"/><path class="cls-3" d="M26.7,29.89l4-1.76,1,4.19-2.13-1s-2.42,3.89,2,5"/><path class="cls-3" d="M36.64,36.79,33.1,34.18l3.12-3,.32,2.28s4.47.21,3.24-4.19"/></svg>