<svg id="Layer_1" data-name="Layer 1" xmlns="http://www.w3.org/2000/svg" viewBox="0 0 64 64"><defs><style>.cls-1{fill:#295183;}.cls-2{fill:#fff;}.cls-3{fill:#389ad6;}.cls-4{fill:none;stroke:#295183;stroke-linecap:round;stroke-linejoin:round;stroke-width:2px;}.cls-5{fill:#9ac8f1;}</style></defs><title>Recycling garbage truck</title><circle class="cls-1" cx="26.8" cy="15.41" r="1"/><circle class="cls-1" cx="17.29" cy="18.69" r="1"/><polygon class="cls-2" points="38.2 26.16 48.29 26.16 52.71 41.41 48.71 44.33 39.38 44.33 38.2 26.16"/><path class="cls-3" d="M24.12,26.95c-.3,3.92.21,10,5.32,13.7,1.24.91.35,2.47-1.39,2.42l-12.17-.39a2,2,0,0,1-1.61-.79l-2.63-4a1.11,1.11,0,0,1-.18-.77L12.19,29a1.72,1.72,0,0,1,1.71-1.26l5.5-4.29C22.06,23.32,24.27,25,24.12,26.95Z"/><path class="cls-4" d="M46.87,47a2.63,2.63,0,1,1-5.25,0"/><path class="cls-4" d="M26.8,47a2.63,2.63,0,1,1-5.25,0"/><path class="cls-5" d="M43.25,29.12a32.47,32.47,0,0,0,3.69,11.62,2,2,0,0,1-1.71,2.94h-4a3.14,3.14,0,0,1-3.14-3.16l.07-14.36h1.67A3.42,3.42,0,0,1,43.25,29.12Z"/><path class="cls-4" d="M41.26,26.16l5.12,0a2.81,2.81,0,0,1,2.7,2.1l3.21,12.23a3.16,3.16,0,0,1-3.15,3.15H21.8c-4.72,0-10.51-2.93-10.51-7.65V30.34c3-3.08,7.52-7.6,10.6-7.6h10.7a5.62,5.62,0,0,1,5.6,5.6V40.11"/><polyline class="cls-4" points="42.27 30.16 42.27 35.12 46.51 35.12"/><line class="cls-4" x1="35.29" y1="18.69" x2="20.29" y2="18.69"/><line class="cls-4" x1="44.29" y1="49.59" x2="17.29" y2="49.59"/><line class="cls-4" x1="39.21" y1="15.41" x2="30.63" y2="15.41"/><line class="cls-4" x1="18.29" y1="46.16" x2="11.45" y2="46.16"/><path class="cls-4" d="M31.07,27.54l-.49,4.37-4.13-1.23,1.77-1.29s-2-4.11-5.2-.84"/><path class="cls-4" d="M20.13,32.7l4-1.76,1,4.19-2.13-1s-2.42,3.89,2,5"/><path class="cls-4" d="M30.08,39.6,26.54,37l3.12-3L30,36.31s4.47.21,3.24-4.19"/></svg>