<svg id="Layer_1" data-name="Layer 1" xmlns="http://www.w3.org/2000/svg" viewBox="0 0 64 64"><defs><style>.cls-1{fill:none;stroke:#295183;stroke-linecap:round;stroke-linejoin:round;stroke-width:2px;}.cls-2{fill:#9ac8f1;}.cls-3{fill:#389ad6;}.cls-4{fill:#295183;}</style></defs><title>Recycle box</title><path class="cls-1" d="M38,11.43l-.73,6.5-6.13-1.82,2.06-.85S30.76,8.09,26,13l1.18-1.66a5,5,0,0,1,4.07-2.1h0a5,5,0,0,1,3.33,1.27"/><path class="cls-1" d="M21.71,19.12l6-2.62,1.49,6.22-1.77-1.36S22.43,27,29,28.72l-2-.19a5,5,0,0,1-3.85-2.47h0a5,5,0,0,1-.62-3.2"/><path class="cls-1" d="M36.5,29.37l-5.26-3.88,4.64-4.4-.3,2.21s7.42,1.48,5.58-5.05L42,20.1a5,5,0,0,1-.21,4.57h0a5,5,0,0,1-3,2.31"/><path class="cls-2" d="M32.52,38.88A4.39,4.39,0,0,0,32.58,40a2,2,0,0,0,1.34,1.58c1.47.53,3.2.08,4.69-.1.94-.12,5.1-1.67,2.84-2.69-1.69-.76-4.14-.47-5.95-.32l-2.56-2.26a9.23,9.23,0,0,1-.31,1.75C32.57,38.23,32.53,38.55,32.52,38.88Z"/><path class="cls-2" d="M26.62,34.81s1.64.38,1.38,1.13.62,1.38.62,1.38,2,1.06.49,2.12-9.56-1.5-9.56-1.5l2.8-3.37Z"/><path class="cls-3" d="M29,39.32a1.29,1.29,0,0,1,1.13,1,1.83,1.83,0,0,1-.56,1.56c-.79.94-1.91,1.49-2.38,2.72-.59,1.57.18,3.28,1,4.61s1.31,2.46,2.22,3.87c.19.3.34.74.07,1a.72.72,0,0,1-.51.11,7.08,7.08,0,0,1-1.77-.39,55.64,55.64,0,0,1-5.9-2.42.67.67,0,0,1-.26-.18.66.66,0,0,1-.11-.31,43.87,43.87,0,0,1,0-8.91c0-.74.07-1.49.08-2.24,0-.39-.1-.6.23-.73a3.66,3.66,0,0,1,1.13.09C24.22,39.12,28.1,39.24,29,39.32Z"/><path class="cls-1" d="M42.72,44.42v5.85L32,54.81V33.43s2.74,5.45,2.88,5.45,4.53-.31,7.84-.46"/><path class="cls-1" d="M45.21,38.3l-2.49.12c-3.31.15-7.76.41-7.84.46S32,33.43,32,33.43l10.72,1.26Z"/><path class="cls-1" d="M28.88,53.6l-7.6-3.33V38.42c3.31.15,7.76.41,7.84.46"/><line class="cls-1" x1="32" y1="33.43" x2="32" y2="54.81"/><path class="cls-1" d="M29.12,38.88c-.08-.05-4.53-.31-7.84-.46l-2.49-.12,2.49-3.61L32,33.43"/><circle class="cls-4" cx="42.72" cy="41.43" r="1"/></svg>