<svg id="Layer_1" data-name="Layer 1" xmlns="http://www.w3.org/2000/svg" viewBox="0 0 64 64"><defs><style>.cls-1{fill:#9ac8f1;}.cls-2{fill:#389ad6;}.cls-3{fill:none;stroke:#295183;stroke-linecap:round;stroke-linejoin:round;stroke-width:2px;}</style></defs><title>Recycle shopping bag</title><path class="cls-1" d="M34.51,24c-.15,4.43-.31,15.08,1.11,21.19A3.75,3.75,0,0,1,32,49.8c-4.16,0-9.26-.25-10.83-1.8-2.49-2.45-2.5-6.43-2.47-7.27,0-.1,0-.2,0-.3L21,22.77a3.74,3.74,0,0,1,2-2.88h0a3.74,3.74,0,0,1,1.84-.39l5.6.27a3.74,3.74,0,0,1,2,.66l.49.34A3.74,3.74,0,0,1,34.51,24Z"/><path class="cls-2" d="M20.1,29.72s2.63-2.14,1.93,4.07S22.06,45,26,46s2.91,4.17,1.06,3.81-8.38,1.88-8.36-3.14S20.1,29.72,20.1,29.72Z"/><path class="cls-3" d="M40.82,20a2.21,2.21,0,0,1,2.5,2.34l0,.48.12,1.36,1.79,21.46A4.48,4.48,0,0,1,40.68,50H23.55a4.48,4.48,0,0,1-4.6-4.34L20.1,29.72l.45-6.18a4,4,0,0,1,.07-.69,4.52,4.52,0,0,1,4.52-3.66l1.77,0a5.21,5.21,0,1,1,10.41,0s.24,2.9-2.29,2.9H29.78"/><path class="cls-3" d="M37.27,28.88l-.6,5.36-5.06-1.5,2.17-1.58s-2.47-5-6.37-1"/><path class="cls-3" d="M23.84,35.22l4.94-2.16L30,38.19,27.4,37s-3,4.77,2.46,6.15"/><path class="cls-3" d="M36,43.67l-4.34-3.2,3.83-3.63.39,2.79s5.49.25,4-5.14"/></svg>