<svg xmlns="http://www.w3.org/2000/svg" viewBox="0 0 64 64"><defs><style>.cls-1{fill:#a8d2f0;}.cls-2{fill:#389ad6;}.cls-3,.cls-4{fill:none;stroke-linecap:round;stroke-linejoin:round;stroke-width:2px;}.cls-3{stroke:#295181;}.cls-4{stroke:#295183;}.cls-5{fill:#295183;}</style></defs><title>remote, control, settings, options, preferences</title><g id="Layer_4" data-name="Layer 4"><path class="cls-1" d="M20.8,21.66s4.31,1.19,1.61,8.76-2,16.74,7.84,21.16-13.25.34-13.85.63-3.47-2-2.7-14.61S12.05,23.33,20.8,21.66Z"/><path class="cls-2" d="M34.42,24.41c-.36.08-11.45,17.67-7.53,27.25a3.82,3.82,0,0,0,3.53,2.25c2.8.17,4.36-1,4-10.26S34.42,24.41,34.42,24.41Z"/><path class="cls-1" d="M41.05,10.58S34.14,42.49,50,50.49c0,0-14.5,3.89-15.71-17.72S31.69,8.72,41.05,10.58Z"/><path class="cls-3" d="M34.42,22H19.62a5.92,5.92,0,0,0-5.9,5.89V47.27a5.92,5.92,0,0,0,5.9,5.89H38.16"/><path class="cls-3" d="M34.42,47.3V12.44a1.87,1.87,0,0,1,1.86-1.86H48.56a1.87,1.87,0,0,1,1.86,1.86V51.3a1.87,1.87,0,0,1-1.86,1.86H36.28"/><line class="cls-3" x1="29.03" y1="40.73" x2="29.03" y2="34.48"/><line class="cls-3" x1="26.42" y1="34.48" x2="31.64" y2="34.48"/><line class="cls-3" x1="34.42" y1="29.41" x2="46.42" y2="29.41"/><path class="cls-3" d="M41.7,34.77a2,2,0,1,1-2-2"/><circle class="cls-3" cx="39.68" cy="23.66" r="2"/><path class="cls-3" d="M45.15,21.66a2,2,0,0,1,0,4"/><path class="cls-3" d="M41.7,41.65a2,2,0,1,1-2-2"/><line class="cls-4" x1="46.15" y1="34.07" x2="46.15" y2="36.25"/><line class="cls-4" x1="45.06" y1="35.16" x2="47.24" y2="35.16"/><line class="cls-4" x1="45.06" y1="42.17" x2="47.24" y2="42.17"/><circle class="cls-5" cx="34.42" cy="50.42" r="1"/></g></svg>