<svg xmlns="http://www.w3.org/2000/svg" viewBox="0 0 64 64"><defs><style>.cls-1{fill:#a8d2f0;}.cls-2{fill:#3897d3;}.cls-3,.cls-4{fill:none;stroke-linecap:round;stroke-linejoin:round;stroke-width:2px;}.cls-3{stroke:#295183;}.cls-4{stroke:#295181;}.cls-5{fill:#295183;}</style></defs><title>remote, mouse, hand, gesture</title><g id="Layer_4" data-name="Layer 4"><path class="cls-1" d="M30.45,20.67S27,31.9,31.09,32.2s-2,5.43.94,13-2.18,5.71-3.82,4.08-4.39-7.72-4.29-12.47S21.81,22.1,30.45,20.67Z"/><path class="cls-2" d="M31.09,34.84l-2.3,9.59c0,.08-.07,0-.28,0a2.39,2.39,0,0,0-2.36,1,1.45,1.45,0,0,0-.28,1.45,1.86,1.86,0,0,1,0-2.64,1.71,1.71,0,0,1,.85-.42,7.53,7.53,0,0,1-2-2.46,4.07,4.07,0,0,1,1.58-.77C26.34,36.25,31.09,34.84,31.09,34.84Z"/><path class="cls-3" d="M29.55,45.23l-.3-.08"/><path class="cls-3" d="M39.08,35.91V28.18a7.58,7.58,0,1,0-15.15,0v9.73a7.62,7.62,0,0,0,2.82,5.89"/><polyline class="cls-3" points="31.5 26.27 28.21 31.96 34.78 31.96"/><path class="cls-4" d="M29,17a3.57,3.57,0,0,1,5,0"/><path class="cls-4" d="M27.14,13.73a6.21,6.21,0,0,1,8.79,0"/><path class="cls-4" d="M34.91,52.09h2a1.62,1.62,0,0,0,1.62-1.62v-6a4.07,4.07,0,0,0-4.05-4.05h-.9l-.45,0v-3a1.8,1.8,0,0,0-1.72-1.8,1.87,1.87,0,0,0-1.89,1.9v7.63"/><path class="cls-4" d="M29.55,50.56,25.9,46.9l0,0a1.86,1.86,0,0,1,0-2.64,1.71,1.71,0,0,1,.85-.42,1.47,1.47,0,0,1,.36,0,1.75,1.75,0,0,1,1.27.53l.13.13,1,1"/><circle class="cls-5" cx="39.07" cy="38.85" r="1"/></g></svg>