<svg id="Layer_1" data-name="Layer 1" xmlns="http://www.w3.org/2000/svg" viewBox="0 0 64 64"><defs><style>.cls-1{fill:#3897d3;}.cls-2{fill:#a8d2f0;}.cls-3{fill:none;stroke:#295183;stroke-linecap:round;stroke-linejoin:round;stroke-width:2px;}.cls-4{fill:#295183;}</style></defs><title>Ribbon</title><path class="cls-1" d="M36,40.48c-.31,0,.38,2.14-3.12,1.22l-2.87,3s-9.25-.81-6-5.37,11.25-3.37,11.25-3.37Z"/><path class="cls-2" d="M35.33,38.81a7,7,0,0,0-1.13-.47c-1.45-.47-3.9-.76-5,2a3.13,3.13,0,0,1-.92.31c-1.15.23-3-.09-2.83-4.42a3.69,3.69,0,0,0-.43-.74h0a3.88,3.88,0,0,0-.44-.51A4,4,0,0,0,20,34.23c-1.66.62-2.15-.18-2.15-1.33h0a10.61,10.61,0,0,1,.68-3.17c.15-.45.27-.74.27-.74l2-1.62.66-.55-.51-.59-2.57-3-.9-1L18,19.67l2.09-.5L24,18.23l.17-.89.34-1.8.63-3.31,3,.15L30.83,15a24.9,24.9,0,0,0-.77,4.15c-.45,4-.24,10.18,4,14.2a12.69,12.69,0,0,0,3,2.1,3.43,3.43,0,0,1,1.85,3.82C38.56,40.46,37.66,41.11,35.33,38.81Z"/><path class="cls-1" d="M25.44,30.8a2.6,2.6,0,0,1-.62,4l0,0-.25.13A4,4,0,0,0,20,34.23c-1.66.62-2.15-.18-2.15-1.33h0a2.14,2.14,0,0,1,.3-2.82l.38-.35c.15-.45.27-.74.27-.74l2-1.62a2.23,2.23,0,0,0,.15-1.14l-2.57-3L18,23a2.19,2.19,0,0,1-.55-.73h0A2.21,2.21,0,0,1,18,19.67a2.13,2.13,0,0,1,1.49-.52l.6,0L24,18.23l.17-.89.31.14a12.39,12.39,0,0,0-.76,1.33s0,0,0,0a11,11,0,0,0,1.72,12Z"/><path class="cls-3" d="M35.84,40.08,34.2,38.34,33.86,38a2.18,2.18,0,0,0-3.23.07l-1.89,2.18a2.14,2.14,0,0,1-.49.42,2.18,2.18,0,0,1-3.33-1.91L25,35.86a2.23,2.23,0,0,0,0-.37,2.6,2.6,0,0,0-.2-.65,2.2,2.2,0,0,0-2.12-1.22l-2.88.21a2.12,2.12,0,0,1-1.94-.93,2.15,2.15,0,0,1,.3-2.83l.38-.35,1.72-1.63a2.1,2.1,0,0,0,.51-.73,2.23,2.23,0,0,0,.15-1.14,2.16,2.16,0,0,0-.73-1.36l-1.84-1.6L18,23a2.19,2.19,0,0,1-.55-.73A2.21,2.21,0,0,1,18,19.67a2.13,2.13,0,0,1,1.49-.52l.6,0,2.28.07a2.23,2.23,0,0,0,1.35-.42,2.21,2.21,0,0,0,.89-1.92l-.1-1.36L24.4,14a2.08,2.08,0,0,1,.74-1.79,2.16,2.16,0,0,1,3,.15l2,2.1a2,2,0,0,0,.69.49,2.18,2.18,0,0,0,2.54-.56l1.89-2.18a2.18,2.18,0,0,1,3.82,1.49L39,16.6a2.19,2.19,0,0,0,2.34,2.24l2.88-.21a2.18,2.18,0,0,1,1.64,3.76l-2.1,2a2.18,2.18,0,0,0,.07,3.23L46,29.49a2.18,2.18,0,0,1-1.49,3.82l-2.88-.09c-1.79-.06-2.38,1.56-1.71,2.89l1.88,3.75,4.12,8.22.27.54-6.11-2-2.55,5.9L32.91,42.27a.75.75,0,0,0-1.39,0L27.68,52.42l-2.91-5.73-6,2.36,1.82-4.82"/><circle class="cls-3" cx="32" cy="26.23" r="7.38"/><polyline class="cls-3" points="32.5 29.9 32.5 22.57 30.83 24.23"/><circle class="cls-4" cx="21.68" cy="41.71" r="1"/></svg>