<svg id="Layer_1" data-name="Layer 1" xmlns="http://www.w3.org/2000/svg" viewBox="0 0 64 64"><defs><style>.cls-1{fill:#9ac8f1;}.cls-2{fill:#389ad6;}.cls-3,.cls-4{fill:none;stroke-linecap:round;stroke-linejoin:round;stroke-width:2px;}.cls-3{stroke:#2a5081;}.cls-4{stroke:#9ac8f1;}.cls-5{fill:#295183;}</style></defs><title>Rise in Temperature</title><path class="cls-1" d="M33.64,18.77c.85-1.06,2.83-1.12,3.93-.58a5.27,5.27,0,0,1,2.55,3.29,15.62,15.62,0,0,1,.47,4.24L40.76,34a6.6,6.6,0,0,1-.5,3.27,10.12,10.12,0,0,1-2.15,2.28,7.4,7.4,0,0,0-2.26,7c.64,2.38,3.27,4.43,5.85,3.79-2.43,4.11-9.06-.28-10.45-3.11A8.29,8.29,0,0,1,32,38.82a6.68,6.68,0,0,0,1.15-1.76,4.73,4.73,0,0,0,.16-1.54l-.07-12c0-1.28-.51-3.62.31-4.71Z"/><path class="cls-2" d="M33.89,36.43s4.13.69,2.81,1.94S32,42.18,32.89,45.12s-1.34,2.81-1.63,2.12S28.08,42.37,33.89,36.43Z"/><path class="cls-3" d="M46.53,44.19a8.2,8.2,0,1,1-14-5.79,7.36,7.36,0,0,1,.79-.69V16.62a5,5,0,0,1,10,0V37.7a7.36,7.36,0,0,1,.79.69A8.17,8.17,0,0,1,46.53,44.19Z"/><line class="cls-3" x1="33.33" y1="34.99" x2="38.33" y2="34.99"/><line class="cls-3" x1="33.33" y1="30.55" x2="38.33" y2="30.55"/><line class="cls-3" x1="33.33" y1="26.12" x2="38.33" y2="26.12"/><line class="cls-3" x1="33.33" y1="21.68" x2="38.33" y2="21.68"/><polyline class="cls-4" points="24.72 39.91 24.72 32.99 27.25 32.99 22.36 27.35 17.47 32.99 20 32.99"/><polyline class="cls-3" points="24.72 30.13 24.72 27.21 27.25 27.21 22.36 21.57 17.47 27.21 20 27.21"/><path class="cls-1" d="M20.36,34.91a1,1,0,0,0-1,1h0a1,1,0,0,0,2,0h0A1,1,0,0,0,20.36,34.91Z"/><path class="cls-5" d="M20.36,29.13a1,1,0,0,0-1,1h0a1,1,0,0,0,2,0h0A1,1,0,0,0,20.36,29.13Z"/></svg>