<svg xmlns="http://www.w3.org/2000/svg" viewBox="0 0 64 64"><defs><style>.cls-1{fill:#a8d2f0;}.cls-2{fill:#389ad6;}.cls-3,.cls-4{fill:none;stroke-linecap:round;stroke-linejoin:round;stroke-width:2px;}.cls-3{stroke:#295183;}.cls-4{stroke:#295181;}</style></defs><title>roomba, wireless, vacuum, remote</title><g id="Layer_4" data-name="Layer 4"><path class="cls-1" d="M29.3,46h0a9.5,9.5,0,0,1-.82,2.71,1.43,1.43,0,0,1-2,.64,28.36,28.36,0,0,1-3-1.85,23.52,23.52,0,0,1-4.23-3.74,17.51,17.51,0,0,1-1.84-2.48,12.55,12.55,0,0,1-.91-11.54l0,0s0,0,0-.05,0,0,0-.05c.12-.32.49-1.2,1-2.3a1.44,1.44,0,0,1,1.29-.8h5.54a4.82,4.82,0,0,1,4,2.79c.38,1-1.33,1.35-1.8,3.12l-.14-.77a6.22,6.22,0,0,0,1.32,7.19c.1.24.22.5.35.77A10.81,10.81,0,0,1,29.3,46Z"/><path class="cls-2" d="M23.52,47.48a7.31,7.31,0,0,1-1.76-.68,2.83,2.83,0,0,1-1.32-1.22s0,0,0,0a12.35,12.35,0,0,0-1.14-1.82c-1.84-2.65-4.7-7.46-1.38-15.93a2.1,2.1,0,0,1,1.95-1.34h0a2.08,2.08,0,0,1,2,2.77c-1.28,3.67-2.59,9.17,2.28,14l.06.07.07.06C28.33,47.44,26,48.11,23.52,47.48Z"/><path class="cls-3" d="M17.89,26.47a15.86,15.86,0,0,0-1.31,3.15s0,0,0,.05l0,.05a16.39,16.39,0,0,0-.65,4.57,16.22,16.22,0,0,0,1.56,7,16.46,16.46,0,0,0,3,4.3,15.61,15.61,0,0,0,1.33,1.24,15.92,15.92,0,0,0,5.95,3.14h0a15.88,15.88,0,0,0,4.44.62A16.28,16.28,0,0,0,48.45,34.29"/><path class="cls-3" d="M46.44,26.47h0a16.14,16.14,0,0,1,1.4,3.43"/><path class="cls-3" d="M20.23,35.75a12,12,0,0,0,23.86.18"/><path class="cls-3" d="M32.17,28a6,6,0,0,0-2,.32,5.87,5.87,0,0,0-1.74.9,6.08,6.08,0,0,0-1.94,2.35,6.25,6.25,0,0,0,5.64,8.93,6.26,6.26,0,0,0,4.6-10.49"/><line class="cls-3" x1="44.08" y1="35.93" x2="48.45" y2="34.29"/><line class="cls-3" x1="20.23" y1="35.75" x2="18.86" y2="35.23"/><polyline class="cls-3" points="34.06 35.38 34.06 36.2 30.25 36.2 30.25 32.38 34.06 32.38"/><path class="cls-4" d="M28.56,23.5a5.1,5.1,0,0,1,7.22,0"/><path class="cls-4" d="M25.88,20.8a8.9,8.9,0,0,1,12.58,0"/><path class="cls-4" d="M23.3,17.19a12.55,12.55,0,0,1,17.74,0"/></g></svg>