<svg id="Layer_1" data-name="Layer 1" xmlns="http://www.w3.org/2000/svg" viewBox="0 0 64 64"><defs><style>.cls-1{fill:#9ac8f1;}.cls-2{fill:#389ad6;}.cls-3{fill:none;stroke:#295183;stroke-linecap:round;stroke-linejoin:round;stroke-width:2px;}</style></defs><title>Sale sticker</title><path class="cls-1" d="M19.89,19.56S19.5,23.83,23,24.63s6,2.1,5.39,4.21-2,5.92-2,5.92L19.47,35s-5.46-1.34-4-5-1.19-7.12-1.19-7.12Z"/><path class="cls-2" d="M20,35.95a5.76,5.76,0,0,1-.77-1.73,3.72,3.72,0,0,1,.05-2.63,4.47,4.47,0,0,1,1.33-1.4A11.11,11.11,0,0,1,23,28.6a3.37,3.37,0,0,0,.85-.43c1-.8.58-2.22,1-3.28.53-1.38,2.17-1.63,3.5-1.43a30.1,30.1,0,0,0,0,5.37A9.1,9.1,0,0,1,27.24,34a7.81,7.81,0,0,1-2.61,2.37,4,4,0,0,1-3.24.7A2.83,2.83,0,0,1,20,35.95Z"/><path class="cls-1" d="M33.14,24.92c.25,0,6.22-.2,5.08,4S33,37.33,37.56,42s-1.81,8.5-1.81,8.5l-5.42-3.25L27,48.08,25.72,44l-3.39-1.67L22,38l2.36-1.63L21.22,32.5l5.58-4.17-.48-3.42s3.52.17,4,.33A11.91,11.91,0,0,0,33.14,24.92Z"/><path class="cls-3" d="M19.19,36.73a2.23,2.23,0,0,0,.14-.78A2.3,2.3,0,0,0,17,33.67H16.9a2.3,2.3,0,0,1-1.29-4.19,2.29,2.29,0,0,0,0-3.78,2.22,2.22,0,0,1-1-1.86A2.3,2.3,0,0,1,17,21.51a2.35,2.35,0,0,0,2.16-3.16,2.29,2.29,0,0,1,3.6-2.49,2.3,2.3,0,0,0,3.6-1.17,2.29,2.29,0,0,1,4.4,0,2.29,2.29,0,0,0,3.6,1.17,2.24,2.24,0,0,1,1.39-.49,2.37,2.37,0,0,1,2,1.15,3.47,3.47,0,0,1-.22,3.13,3.39,3.39,0,0,0-.28.89,4.28,4.28,0,0,0,.66,2.92,2.83,2.83,0,0,0,3.82,1,2.21,2.21,0,0,1,1.17-.33h0a2.3,2.3,0,0,1,2.13,3.08,2.26,2.26,0,0,0-.14.78,2.3,2.3,0,0,0,2.37,2.3h.08a2.3,2.3,0,0,1,1.29,4.2,2.3,2.3,0,0,0,0,3.79,2.24,2.24,0,0,1,1,1.87,2.28,2.28,0,0,1-2.37,2.32h-.06a2.3,2.3,0,0,0-2.17,3.08,2.45,2.45,0,0,1,.15.79,2.31,2.31,0,0,1-3.71,1.79,2.3,2.3,0,0,0-3.61,1.17,2.3,2.3,0,0,1-4.41,0,2.3,2.3,0,0,0-3.61-1.17,2.25,2.25,0,0,1-1.39.49,2.3,2.3,0,0,1-2.17-3.08,2.26,2.26,0,0,0,.14-.78,2.3,2.3,0,0,0-2.37-2.3H24a2.3,2.3,0,0,1-1.29-4.2,2.3,2.3,0,0,0,0-3.79,2.24,2.24,0,0,1-1-1.87,2.28,2.28,0,0,1,2.37-2.32h.06a2.3,2.3,0,0,0,2.17-3.08,2.45,2.45,0,0,1-.15-.79,2.31,2.31,0,0,1,3.71-1.79,2.3,2.3,0,0,0,3.61-1.17"/><line class="cls-3" x1="38.22" y1="29.49" x2="33.89" y2="43.24"/><circle class="cls-3" cx="29.73" cy="39.7" r="1.7"/><circle class="cls-3" cx="42.33" cy="33.33" r="1.7"/></svg>