<svg id="Layer_1" data-name="Layer 1" xmlns="http://www.w3.org/2000/svg" viewBox="0 0 64 64"><defs><style>.cls-1{fill:#9ac8f1;}.cls-2{fill:#2a5080;}.cls-3,.cls-5{fill:none;stroke-linecap:round;stroke-linejoin:round;stroke-width:2px;}.cls-3{stroke:#2a5080;}.cls-4{fill:#3897d3;}.cls-5{stroke:#2a5081;}</style></defs><title>Search phone</title><path class="cls-1" d="M44.84,23.8V36.89a7.47,7.47,0,0,1-7.19,7.33H33.4A3.59,3.59,0,0,1,30,40.48V30l3.21,3.52v-4c1.37-.43,4.12-1.5,5.06-3.25h0a7.3,7.3,0,0,0,1.59-4.58l-1.44-4.24C41,18.44,44.84,20.62,44.84,23.8Z"/><circle class="cls-2" cx="47.48" cy="20.84" r="0.86"/><path class="cls-3" d="M42.62,15.19h2.55a5.67,5.67,0,0,1,5.65,5.65V44.5a5.67,5.67,0,0,1-5.65,5.65h-12a5.67,5.67,0,0,1-5.65-5.65V34.07"/><path class="cls-4" d="M33.5,32.74l0,.15a8.75,8.75,0,0,0,.11,2.31,22.56,22.56,0,0,1,0,5.57,3,3,0,0,1-.94,2.14,3.58,3.58,0,0,0-.64.47c-.32.37-.32,1-.76,1.21a.79.79,0,0,1-1-.4,2.3,2.3,0,0,1-.2-1.11l-.1-6.58c0-1.87-.59-4.64.07-6.41.41-1.11,1.67-1,2.6-1.31a9.14,9.14,0,0,0,2.84-1.71,11.72,11.72,0,0,0,3.65-5.64A2.28,2.28,0,0,1,39.91,20a37.18,37.18,0,0,1-4.77,9.67A8.61,8.61,0,0,0,33.5,32.74Z"/><path class="cls-1" d="M30,14.57s-6.93,7,2.49,13.58c-.28.75.61,1.67-4.82,1L24.4,25.74S21.35,15,30,14.57Z"/><polyline class="cls-3" points="47.48 24.02 47.48 44.22 41.95 44.22"/><line class="cls-3" x1="36.38" y1="44.22" x2="30.96" y2="44.22"/><path class="cls-4" d="M15,39c.14,0,.49-.29.56-.39.29-.41-.07-.77.11-1.23a9,9,0,0,1,1.59-2.17c.66-.78,1.35-1.54,2.06-2.27s1.32-1.44,2.07-2.07,2.09-1.09,2.9-1.92c.41-.42,1.34-1.61.77-2.22S23.52,25,18.92,30.79s-5.59,5.12-5.5,6.51S15,39,15,39Z"/><path class="cls-5" d="M31.31,29.21l.5,0h0a7.64,7.64,0,0,0,5.81-3.34,7.45,7.45,0,0,0,.7-1.26,6.24,6.24,0,0,0,.29-.8l0-.06a7.08,7.08,0,0,0,.22-1,6.71,6.71,0,0,0,.09-1c0-.08,0-.15,0-.23a7.68,7.68,0,1,0-15.36,0,7.6,7.6,0,0,0,.78,3.38,7.52,7.52,0,0,0,1.42,2,7.87,7.87,0,0,0,1.49,1.19c.17.09.32.19.49.27l-.23.23L26,30.18l-8.66,8.66a2.43,2.43,0,0,1-3.54-3.31l.11-.12,6.7-6.7.35-.35"/><path class="cls-3" d="M36.38,44.22a2.79,2.79,0,1,0,5.58,0"/><path class="cls-5" d="M27.67,18.47s1.72-2.25,4.06-1.17"/></svg>