<svg id="Layer_1" data-name="Layer 1" xmlns="http://www.w3.org/2000/svg" viewBox="0 0 64 64"><defs><style>.cls-1{fill:#9ac8f1;}.cls-2{fill:#3897d3;}.cls-3,.cls-5{fill:none;stroke-linecap:round;stroke-linejoin:round;stroke-width:2px;}.cls-3{stroke:#2a5081;}.cls-4{fill:#2a5080;}.cls-5{stroke:#295183;}</style></defs><title>Search</title><path class="cls-1" d="M34.39,35.31s1.86-.56,1.11-1.9c-1-1.76.35-4.39,1-6a21.37,21.37,0,0,1,2.89-5.86,5.23,5.23,0,0,1,2.75-1.82c1.2-.29,2.37.3,3.55,0s.43-1.42-.2-2a10.37,10.37,0,0,0-4.62-1.79,8.7,8.7,0,0,0-9.63,3.92C26,28,32.76,34.21,34.39,35.31Z"/><path class="cls-2" d="M16.62,50.06c.2,0,.68-.41.77-.55.4-.57-.1-1.07.15-1.71a12.55,12.55,0,0,1,2.21-3c.92-1.09,1.88-2.14,2.87-3.16s1.84-2,2.88-2.88c1.23-1,2.91-1.52,4-2.67.57-.58,1.87-2.24,1.08-3.09s-2.2-2.31-8.6,5.69-7.77,7.13-7.65,9.06S16.62,50.06,16.62,50.06Z"/><path class="cls-3" d="M24.85,35.31l-.49.49h0L15,45.13l-.15.17a3.37,3.37,0,0,0,4.93,4.6L31.86,37.85l2.22-2.22.31-.31c-.23-.11-.45-.24-.67-.37a10.7,10.7,0,0,1-5.15-9.14A10.69,10.69,0,1,1,50,25.8c0,.11,0,.21,0,.32a10.34,10.34,0,0,1-.13,1.4A10.69,10.69,0,0,1,49.08,30a10.69,10.69,0,0,1-9,6.41c-.25,0-.5,0-.76,0a10.44,10.44,0,0,1-1.84-.16"/><circle class="cls-4" cx="27.02" cy="33" r="1" transform="translate(-4.23 3.97) rotate(-7.8)"/><path class="cls-5" d="M32.35,26.93a1.78,1.78,0,0,1,0-2.5,10,10,0,0,1,13.89,0,1.78,1.78,0,0,1,0,2.5"/><path class="cls-5" d="M37.16,26.59a2.24,2.24,0,0,1,0-1A2.2,2.2,0,0,1,39,23.92a2.3,2.3,0,0,1,2.51,2.57c-.11,1.75-2,2.47-3.46,2.78H38l-.26,0A4.39,4.39,0,0,1,35.54,29a9.37,9.37,0,0,1-3.19-2.09,1.78,1.78,0,0,1,0-2.5,10,10,0,0,1,13.88,0,1.79,1.79,0,0,1,0,2.51,9.34,9.34,0,0,1-3,2"/></svg>