<svg id="Layer_1" data-name="Layer 1" xmlns="http://www.w3.org/2000/svg" viewBox="0 0 64 64"><defs><style>.cls-1{fill:#3897d3;}.cls-2{fill:none;stroke:#2a5081;stroke-linecap:round;stroke-linejoin:round;stroke-width:2px;}.cls-3{fill:#2a5080;}.cls-4{fill:#9dcbf4;}</style></defs><title>search person</title><path class="cls-1" d="M16.62,50.06c.2,0,.68-.41.77-.55.4-.57-.1-1.07.15-1.71a12.55,12.55,0,0,1,2.21-3c.92-1.09,1.88-2.14,2.87-3.16s1.84-2,2.88-2.88c1.23-1,2.91-1.52,4-2.67.57-.58,1.87-2.24,1.08-3.09s-2.2-2.31-8.6,5.69-7.77,7.13-7.65,9.06S16.62,50.06,16.62,50.06Z"/><path class="cls-2" d="M24.85,35.31l-.49.49h0L15,45.13l-.15.17a3.37,3.37,0,0,0,4.93,4.6L31.86,37.85l2.22-2.22.31-.31c-.23-.11-.45-.24-.67-.37a10.7,10.7,0,0,1-5.15-9.14A10.69,10.69,0,1,1,50,25.8c0,.11,0,.21,0,.32a10.34,10.34,0,0,1-.13,1.4A10.69,10.69,0,0,1,49.08,30a10.69,10.69,0,0,1-9,6.41c-.25,0-.5,0-.76,0a10.44,10.44,0,0,1-1.84-.16"/><circle class="cls-3" cx="27.02" cy="33" r="1" transform="translate(-4.23 3.97) rotate(-7.8)"/><path class="cls-4" d="M39.41,19.36c-.46,0,.08,2.45.11,2.67a9.65,9.65,0,0,1-.1,2.06c-.19,1.75,0,3.53-.32,5.27-.26,1.25-.92,2.7-2.43,2.55-3.3-.32.3-9.57.76-9.42s0-3.13,0-3.13Z"/><line class="cls-2" x1="35.9" y1="25.47" x2="32.42" y2="34"/><line class="cls-2" x1="35.9" y1="31.29" x2="35.9" y2="25.47"/><path class="cls-2" d="M39.66,23.34h1a2.22,2.22,0,0,1,2.22,2.22V35"/><path class="cls-2" d="M39.54,18.83a2.25,2.25,0,0,0,0,4.51"/><line class="cls-2" x1="42.72" y1="24.65" x2="46.13" y2="33.33"/></svg>