<svg id="Layer_1" data-name="Layer 1" xmlns="http://www.w3.org/2000/svg" viewBox="0 0 64 64"><defs><style>.cls-1{fill:#3897d3;}.cls-2,.cls-5{fill:none;stroke-linecap:round;stroke-linejoin:round;stroke-width:2px;}.cls-2{stroke:#2a5081;}.cls-3{fill:#2a5080;}.cls-4{fill:#a8d2f0;}.cls-5{stroke:#295183;}.cls-6{fill:#295183;}</style></defs><title>Search settings</title><path class="cls-1" d="M16.62,49.06c.2,0,.68-.41.77-.55.4-.57-.1-1.07.15-1.71a12.55,12.55,0,0,1,2.21-3c.92-1.09,1.88-2.14,2.87-3.16s1.84-2,2.88-2.88c1.23-1,2.91-1.52,4-2.67.57-.58,1.87-2.24,1.08-3.09s-2.2-2.31-8.6,5.69-7.77,7.13-7.65,9.06S16.62,49.06,16.62,49.06Z"/><path class="cls-2" d="M24.85,34.31l-.49.49h0L15,44.13l-.15.17a3.37,3.37,0,0,0,4.93,4.6L31.86,36.85l2.22-2.22.31-.31c-.23-.11-.45-.24-.67-.37a10.7,10.7,0,0,1-5.15-9.14A10.69,10.69,0,1,1,50,24.8c0,.11,0,.21,0,.32a10.34,10.34,0,0,1-.13,1.4A10.69,10.69,0,0,1,49.08,29a10.69,10.69,0,0,1-9,6.41c-.25,0-.5,0-.76,0a10.44,10.44,0,0,1-1.84-.16"/><circle class="cls-3" cx="27.02" cy="32" r="1" transform="translate(-4.09 3.96) rotate(-7.8)"/><path class="cls-4" d="M36.59,21.36c1.29-.26,1.33.7,1.49,1.68a7.36,7.36,0,0,0,1.36,3.16,5.24,5.24,0,0,0,.83,1c.31.25.9.35,1.09.7a.62.62,0,0,1-.09.63,2.14,2.14,0,0,1-1,.67,3.62,3.62,0,0,1-1.43.22s-3.55-.49-4.28-2c-.59-1.2-.11-3.07.35-4.22a3.39,3.39,0,0,1,1.24-1.72A1.37,1.37,0,0,1,36.59,21.36Z"/><path class="cls-5" d="M44.15,24.71A4.67,4.67,0,0,1,44,26.09a4.73,4.73,0,0,1-.19.62,4.47,4.47,0,0,1-.47.93,4.77,4.77,0,0,1-1.54,1.52,4.53,4.53,0,0,1-.75.38,4.87,4.87,0,0,1-.8.25,4.75,4.75,0,0,1-2.17,0h0a4.61,4.61,0,0,1-1.54-.65,4.67,4.67,0,0,1-1.51-1.54h0a4.29,4.29,0,0,1-.39-.75,4.33,4.33,0,0,1-.25-.81,4.9,4.9,0,0,1,0-2.15,4.81,4.81,0,0,1,.47-1.23,2,2,0,0,1,.19-.32,4.58,4.58,0,0,1,.78-.93,1.09,1.09,0,0,1,.17-.15,3.52,3.52,0,0,1,.6-.43,4.73,4.73,0,0,1,1.55-.63h0a4.7,4.7,0,0,1,1.91,0l.25.05a4.93,4.93,0,0,1,1.56.66l.08.05a4.79,4.79,0,0,1,1.43,1.49,4.53,4.53,0,0,1,.38.75,4.17,4.17,0,0,1,.25.81h0a3.22,3.22,0,0,1,.09.53A1.32,1.32,0,0,1,44.15,24.71Z"/><circle class="cls-5" cx="39.23" cy="24.97" r="1.98" transform="translate(-6.51 16.56) rotate(-22.05)"/><rect class="cls-6" x="35.84" y="17.87" width="2.18" height="2.8" rx="0.58" ry="0.58" transform="translate(-4.53 15.27) rotate(-22.05)"/><path class="cls-6" d="M35.1,22.55l0,.1-.4.94a.6.6,0,0,1-.23.27.57.57,0,0,1-.53,0l-1.51-.64a.58.58,0,0,1-.3-.76l.11-.25.29-.69a.58.58,0,0,1,.76-.31l1.51.64a.58.58,0,0,1,.34.42A.53.53,0,0,1,35.1,22.55Z"/><rect class="cls-6" x="32.44" y="25.88" width="2.18" height="2.8" rx="0.58" ry="0.58" transform="translate(20.83 68.6) rotate(-112.05)"/><rect class="cls-6" x="35.75" y="29.24" width="2.18" height="2.8" rx="0.58" ry="0.58" transform="translate(58.81 73.21) rotate(-157.05)"/><path class="cls-6" d="M42.24,29.51,42.86,31a.58.58,0,0,1-.32.76l-.94.38a.58.58,0,0,1-.76-.32l-.61-1.52a.58.58,0,0,1,.05-.53.52.52,0,0,1,.27-.22l.94-.38a.52.52,0,0,1,.35,0A.58.58,0,0,1,42.24,29.51Z"/><path class="cls-6" d="M46.38,27.45l-.19.45-.2.49a.58.58,0,0,1-.76.3l-1.51-.64a.57.57,0,0,1-.34-.41.53.53,0,0,1,0-.35l.35-.81.05-.12a.56.56,0,0,1,.23-.27.59.59,0,0,1,.53,0l1.51.64A.58.58,0,0,1,46.38,27.45Z"/><rect class="cls-6" x="43.85" y="21.26" width="2.18" height="2.8" rx="0.58" ry="0.58" transform="translate(49.07 -27.49) rotate(67.95)"/><rect class="cls-6" x="40.54" y="17.91" width="2.18" height="2.8" rx="0.58" ry="0.58" transform="matrix(0.92, 0.39, -0.39, 0.92, 10.82, -14.71)"/></svg>