<svg xmlns="http://www.w3.org/2000/svg" viewBox="0 0 64 64"><defs><style>.cls-1{fill:#389ad6;}.cls-2{fill:#a8d2f0;}.cls-3{fill:none;stroke:#295183;stroke-linecap:round;stroke-linejoin:round;stroke-width:2px;}.cls-4{fill:#295183;}</style></defs><title>security, surveillance, camera, safety</title><g id="Layer_4" data-name="Layer 4"><path class="cls-1" d="M46,19.16s-2.78,4.18-1.81,7.11.44,7.52-3,7.62-.07-2.57-.07-2.57l-.39-7.56,1.57-4.61Z"/><path class="cls-2" d="M29.43,17.53a4,4,0,0,1,2.76.78c1,.95,1,2.61.66,4s-.84,2.81-.49,4.19a3.37,3.37,0,0,0,1.55,2.08,6.13,6.13,0,0,0,2.93.58,6.55,6.55,0,0,1,2.95.53,2.39,2.39,0,0,1,1.32,2.56,2.27,2.27,0,0,1-1.4,1.44,6.09,6.09,0,0,1-2,.31c-6.85.27-13.71-.11-20.55-.49a57.93,57.93,0,0,1-.49-11.95c.18-1.88.52-4,2.68-4l9.84,0Z"/><path class="cls-1" d="M24,17.52S19.91,26.69,24,29s2.12,5-2.85,4.76-5.72-.51-5.09-9.45S19.26,17.15,24,17.52Z"/><path class="cls-1" d="M34.43,34.09S36,36,34.18,37.29s-4.65-1.43-5.35.28c0,0-7.87,0-6.41-3.48Z"/><path class="cls-3" d="M35.36,33.9H18.22a1.64,1.64,0,0,1-1.64-1.64V19.16a1.64,1.64,0,0,1,1.64-1.64H39.07"/><path class="cls-3" d="M41.53,32.26a1.64,1.64,0,0,1-1.64,1.64"/><path class="cls-3" d="M35.36,33.9v1.41a1.64,1.64,0,0,1-1.64,1.64H23.57"/><path class="cls-3" d="M13,37.29c.9,0,1.64.5,1.64,1.1v7.39c0,.61-.74,1.1-1.64,1.1"/><polyline class="cls-3" points="29.06 36.94 29.06 42.08 14.67 42.08"/><path class="cls-3" d="M41.53,32.26V20.66a1.5,1.5,0,0,1,1.5-1.5H51l-6.49,6.49v6.2"/><circle class="cls-4" cx="37.44" cy="33.9" r="0.82"/></g></svg>