<svg id="Layer_1" data-name="Layer 1" xmlns="http://www.w3.org/2000/svg" viewBox="0 0 64 64"><defs><style>.cls-1,.cls-4,.cls-6{fill:none;stroke-linecap:round;stroke-linejoin:round;stroke-width:2px;}.cls-1{stroke:#a8d2f0;}.cls-2{fill:#295183;}.cls-3{fill:#a8d2f0;}.cls-4{stroke:#2a5081;}.cls-5{fill:#9ac8f1;}.cls-6{stroke:#2a5080;}.cls-7{fill:#2a5080;}</style></defs><title>Security</title><path class="cls-1" d="M22.25,15.41S16.13,22,19.2,30.31"/><circle class="cls-2" cx="49.04" cy="17.03" r="1.38"/><circle class="cls-2" cx="38.8" cy="17.03" r="1.38"/><circle class="cls-2" cx="28.25" cy="17.03" r="1.38"/><path class="cls-3" d="M42.57,33.32a13.35,13.35,0,0,1-.16,2.11,3.19,3.19,0,0,1-3.51,2.7l-.23,0h-.06a1.87,1.87,0,0,0-1.78-1.61H31.3a24.39,24.39,0,0,1-3.39-12.41V20.7a5.61,5.61,0,0,0,1.62,3.93,5.55,5.55,0,0,0,3.91,1.62h0a5.56,5.56,0,0,0,4.78-2.76,2.93,2.93,0,0,1,.41.38c.12.12.23.25.34.37A13.09,13.09,0,0,1,42.57,33.32Z"/><path class="cls-4" d="M31.84,36.49a23,23,0,0,1-3.59-12.36V21a5.19,5.19,0,0,0,5.2,5.2A5.21,5.21,0,0,0,38.64,21"/><path class="cls-4" d="M43.84,38.71A23,23,0,0,0,49,24.13V21a5.21,5.21,0,0,1-5.2,5.2h0a5.22,5.22,0,0,1-5.2-5.2V38.1"/><path class="cls-5" d="M43,45.82c.72.17,0,1.09-.22,1.35a11.18,11.18,0,0,1-3.67,2.24,14.91,14.91,0,0,1-5,.92A20.48,20.48,0,0,1,23.44,48a6.35,6.35,0,0,0-2.45-1,5.3,5.3,0,0,0-2.77.81,1.32,1.32,0,0,1-.67.2.9.9,0,0,1-.7-1.06,2.39,2.39,0,0,1,.73-1.2A18.7,18.7,0,0,1,19.42,44,4,4,0,0,1,22,42.86,4.68,4.68,0,0,1,24.39,44c2.88,2.06,6.18,3.95,9.72,3.75A24.44,24.44,0,0,0,39,46.86c.81-.22,1.61-.46,2.41-.72A3.71,3.71,0,0,1,43,45.82Z"/><path class="cls-6" d="M46.12,42.82a2,2,0,0,1,2.87,0h0a2,2,0,0,1,0,2.87"/><path class="cls-6" d="M16.53,44.61l.17-.17,6.56-6.55a4.53,4.53,0,0,1,1.35-.95,4.62,4.62,0,0,1,2-.45H36.83a1.87,1.87,0,0,1,1.78,1.61,2,2,0,0,1,0,.42A2.07,2.07,0,0,1,38.11,40a1.7,1.7,0,0,1-1.28.6H28"/><path class="cls-6" d="M46.15,42.79a10.81,10.81,0,0,1-3,2.72,10.48,10.48,0,0,1-5.55,1.58h-.3a10.54,10.54,0,0,1-9.47-6.53"/><circle class="cls-7" cx="14.58" cy="46.49" r="1"/></svg>