<svg id="Layer_1" data-name="Layer 1" xmlns="http://www.w3.org/2000/svg" viewBox="0 0 64 64"><defs><style>.cls-1{fill:#d9ebf4;}.cls-2{fill:#c6e2f4;}.cls-21,.cls-3{fill:none;stroke-linecap:round;stroke-linejoin:round;stroke-width:2px;}.cls-3{stroke:#041256;}.cls-4{fill:#52c191;}.cls-5{fill:#80f9ea;}.cls-6{fill:#66dda7;}.cls-7{fill:#49aa93;}.cls-8{fill:#39979e;}.cls-9{fill:#e57d28;}.cls-10{fill:#ffc257;}.cls-11{fill:#e57123;}.cls-12{fill:#d66816;}.cls-13{fill:#a362d1;}.cls-14{fill:#bd84ef;}.cls-15{fill:#9155c6;}.cls-16{fill:#6a4aba;}.cls-17{fill:#3476b7;}.cls-18{fill:#355fb5;}.cls-19{fill:#2d4fad;}.cls-20{fill:#cfffe7;}.cls-21{stroke:#6eedb3;}</style></defs><title>send, receive, transfer, cloud, storage</title><path class="cls-1" d="M6.74,35.8h0a.49.49,0,0,1,.49-.49H9.85a.82.82,0,0,1,.82.82h0a.82.82,0,0,1-.82.82H8.54a.49.49,0,0,0-.49.49H8a.49.49,0,0,1-.49.49H4.94a.82.82,0,0,1-.82-.82h0a.82.82,0,0,1,.82-.82H6.25A.49.49,0,0,0,6.74,35.8Z"/><path class="cls-1" d="M11.48,39.5h0a.28.28,0,0,0-.28-.28H9.67a.47.47,0,0,0-.47.47h0a.47.47,0,0,0,.47.47h.76a.28.28,0,0,1,.28.28h0a.28.28,0,0,0,.28.28h1.52a.47.47,0,0,0,.47-.47h0a.47.47,0,0,0-.47-.47h-.76A.28.28,0,0,1,11.48,39.5Z"/><circle class="cls-1" cx="17.8" cy="41.06" r="0.68"/><circle class="cls-1" cx="7.39" cy="41.21" r="0.66"/><circle class="cls-1" cx="4.12" cy="42.56" r="1.06"/><circle class="cls-1" cx="3.49" cy="34.36" r="0.34"/><circle class="cls-1" cx="14.25" cy="42.56" r="0.42"/><circle class="cls-1" cx="11.1" cy="43.86" r="1.1"/><circle class="cls-1" cx="15.37" cy="39.59" r="0.38"/><path class="cls-1" d="M57,18.05h0a.49.49,0,0,0-.49-.49H53.84a.82.82,0,0,0-.82.82h0a.82.82,0,0,0,.82.82h1.31a.49.49,0,0,1,.49.49h0a.49.49,0,0,0,.49.49h2.62a.82.82,0,0,0,.82-.82h0a.82.82,0,0,0-.82-.82H57.44A.49.49,0,0,1,57,18.05Z"/><path class="cls-1" d="M52.21,21.75h0a.28.28,0,0,1,.28-.28H54a.47.47,0,0,1,.47.47h0a.47.47,0,0,1-.47.47h-.76a.28.28,0,0,0-.28.28h0a.28.28,0,0,1-.28.28H51.17a.47.47,0,0,1-.47-.47h0a.47.47,0,0,1,.47-.47h.76A.28.28,0,0,0,52.21,21.75Z"/><circle class="cls-1" cx="45.89" cy="23.31" r="0.68"/><circle class="cls-1" cx="56.3" cy="23.46" r="0.66"/><circle class="cls-1" cx="59.57" cy="24.81" r="1.06"/><circle class="cls-1" cx="60.2" cy="16.61" r="0.34"/><circle class="cls-1" cx="49.44" cy="24.81" r="0.42"/><circle class="cls-1" cx="52.59" cy="26.11" r="1.1"/><circle class="cls-1" cx="48.32" cy="21.84" r="0.38"/><path class="cls-2" d="M58,32v2.27a.89.89,0,0,1-.89.89h-3a.89.89,0,0,0-.89.89V46.4a.89.89,0,0,1-.89.89H50.54a.89.89,0,0,0-.89.89v6.54a.89.89,0,0,1-.89.89h-.9a.89.89,0,0,1-.89-.89V53.58a.89.89,0,0,0-.89-.89h-.81a.89.89,0,0,1-.89-.89V50.27a.89.89,0,0,0-.89-.89H38.69a.89.89,0,0,1-.89-.89v-.91a.89.89,0,0,0-.89-.89H21.51a.89.89,0,0,0-.63.26l-4.14,4.14a.89.89,0,0,1-.63.26H14.87a.89.89,0,0,0-.89.89v3a.89.89,0,0,1-.89.89h-.51a.89.89,0,0,1-.89-.89v-.52a.89.89,0,0,0-.89-.89h-.65a.89.89,0,0,1-.89-.89h0a.89.89,0,0,0-.89-.89H3.74a.89.89,0,0,0-.89.89v7.17a.89.89,0,0,0,.9.89l56.12-.38a.89.89,0,0,0,.89-.89V32a.89.89,0,0,0-.89-.89h-.93A.89.89,0,0,0,58,32Z"/><line class="cls-3" x1="2.83" y1="61" x2="60.86" y2="61"/><path class="cls-3" d="M55.05,55V46.33a4.55,4.55,0,0,0-1.33-3.22l-2.53-2.53"/><circle class="cls-3" cx="51.19" cy="40.59" r="0.75"/><path class="cls-3" d="M8.64,55V46.33A4.55,4.55,0,0,1,10,43.11l2.53-2.53"/><circle class="cls-3" cx="12.5" cy="40.59" r="0.75"/><path class="cls-3" d="M8.64,9v8.64A4.55,4.55,0,0,0,10,20.89l2.53,2.53"/><circle class="cls-3" cx="12.5" cy="23.41" r="0.75"/><path class="cls-3" d="M55.05,9v8.64a4.55,4.55,0,0,1-1.33,3.22l-2.53,2.53"/><circle class="cls-3" cx="51.19" cy="23.41" r="0.75"/><circle class="cls-4" cx="8.92" cy="9.07" r="6.07"/><path class="cls-5" d="M10.4,3.19A6.06,6.06,0,0,1,5.94,14.36,6.07,6.07,0,1,0,10.4,3.19Z"/><path class="cls-6" d="M4.51,10.24a6.06,6.06,0,0,1,8.68-5.48,6.07,6.07,0,1,0-6.88,9.79A6.05,6.05,0,0,1,4.51,10.24Z"/><circle class="cls-7" cx="8.92" cy="9.07" r="2.97"/><circle class="cls-8" cx="8.92" cy="9.07" r="1.46"/><circle class="cls-3" cx="8.92" cy="9.07" r="6.07"/><circle class="cls-9" cx="55.1" cy="9.07" r="6.07"/><path class="cls-5" d="M56.57,3.19a6.06,6.06,0,0,1-4.46,11.17A6.07,6.07,0,1,0,56.57,3.19Z"/><path class="cls-10" d="M50.69,10.24a6.06,6.06,0,0,1,8.68-5.48,6.07,6.07,0,1,0-6.88,9.79A6.05,6.05,0,0,1,50.69,10.24Z"/><circle class="cls-11" cx="55.1" cy="9.07" r="2.97"/><circle class="cls-12" cx="55.1" cy="9.07" r="1.46"/><circle class="cls-3" cx="55.1" cy="9.07" r="6.07"/><circle class="cls-13" cx="8.92" cy="54.93" r="6.07"/><path class="cls-5" d="M10.4,49A6.06,6.06,0,0,1,5.94,60.22,6.07,6.07,0,1,0,10.4,49Z"/><path class="cls-14" d="M4.51,56.1a6.06,6.06,0,0,1,8.68-5.48A6.07,6.07,0,1,0,6.31,60.4,6.05,6.05,0,0,1,4.51,56.1Z"/><circle class="cls-15" cx="8.92" cy="54.93" r="2.97"/><circle class="cls-16" cx="8.92" cy="54.93" r="1.46"/><circle class="cls-3" cx="8.92" cy="54.93" r="6.07"/><circle class="cls-17" cx="55.1" cy="54.93" r="6.07"/><path class="cls-5" d="M56.57,49a6.06,6.06,0,0,1-4.46,11.17A6.07,6.07,0,1,0,56.57,49Z"/><path class="cls-6" d="M50.69,56.1a6.06,6.06,0,0,1,8.68-5.48,6.07,6.07,0,1,0-6.88,9.79A6.05,6.05,0,0,1,50.69,56.1Z"/><circle class="cls-18" cx="55.1" cy="54.93" r="2.97"/><circle class="cls-19" cx="55.1" cy="54.93" r="1.46"/><circle class="cls-3" cx="55.1" cy="54.93" r="6.07"/><circle class="cls-4" cx="31.85" cy="29.45" r="14.08"/><path class="cls-6" d="M18.66,31.05a14.07,14.07,0,0,1,25.88-7.66A14.07,14.07,0,1,0,20,37.12,14,14,0,0,1,18.66,31.05Z"/><path class="cls-5" d="M37,16.35A14.07,14.07,0,0,1,25.08,41.8,14.08,14.08,0,1,0,37,16.35Z"/><path class="cls-6" d="M31.85,15.37a14,14,0,0,0-4.38.7v.79a1.7,1.7,0,0,0,2.27,1.58,14,14,0,0,1,13,2.11A14,14,0,0,0,31.85,15.37Z"/><path class="cls-20" d="M30,15.5l-.7.11-.65.13-.49.13-.74.21h0v.79a1.64,1.64,0,0,0,.35,1,14,14,0,0,1,11.77.88,14.18,14.18,0,0,1,3.11,1.76,14.12,14.12,0,0,0-4.93-3.83l-.11-.05-.74-.31-.17-.06q-.41-.15-.83-.28l0,0c-.3-.09-.61-.17-.91-.24l-.2,0L34,15.55l-.29,0-.67-.07-.28,0c-.31,0-.63,0-.95,0s-.86,0-1.29.06Z"/><path class="cls-6" d="M25.88,17.86V16.71a14.05,14.05,0,0,0-2.51,24A14,14,0,0,1,24.15,22,6,6,0,0,0,25.88,17.86Z"/><path class="cls-20" d="M17.83,30.71c0,.23,0,.46.08.68l0,.3q.06.35.13.69l.05.24a14,14,0,0,0,.56,1.83l0,.1q.15.38.32.75l.1.21q.15.32.32.63l.12.23c.11.2.23.39.35.59l.09.15a14,14,0,0,1,5.76-18.28,5.63,5.63,0,0,0,.09-.95V16.71a14.13,14.13,0,0,0-2.48,1.5l-.07.05q-.37.28-.73.59l0,0a14.18,14.18,0,0,0-1.27,1.26l-.12.13c-.16.19-.32.39-.47.59l-.26.35c-.13.18-.27.37-.39.56s-.29.47-.43.7-.23.41-.33.62-.22.43-.32.65l-.2.46q-.16.39-.29.8c0,.11-.08.22-.12.34q-.17.57-.3,1.16c0,.11,0,.23-.06.34q-.09.47-.14.94c0,.12,0,.25,0,.37,0,.42-.06.85-.06,1.29s0,.65,0,1C17.81,30.52,17.82,30.61,17.83,30.71Z"/><path class="cls-7" d="M44.28,28.94a7.84,7.84,0,0,0-7.84,7.84v7.84h7.84a7.84,7.84,0,0,0,0-15.68Z"/><path class="cls-21" d="M44.28,28.94a7.84,7.84,0,0,0-7.23,4.79"/><path class="cls-5" d="M44.28,28.94c-.26,0-.51,0-.76,0a7.84,7.84,0,0,1-.76,15.64h1.53a7.84,7.84,0,0,0,0-15.68Z"/><path class="cls-3" d="M52.12,36.78a7.85,7.85,0,0,0-10.61-7.34"/><path class="cls-7" d="M30.6,32.48a9.66,9.66,0,1,0-9.37,12H40.15a4.13,4.13,0,0,0,4.13-4.13h0a5.53,5.53,0,0,0-5.53-5.53H33.58A3.09,3.09,0,0,1,30.6,32.48Z"/><path class="cls-21" d="M29.17,29.45a9.66,9.66,0,0,0-9-4.09"/><path class="cls-21" d="M30.6,32.59q-.07-.27-.15-.52"/><path class="cls-4" d="M15.5,36.41a9.65,9.65,0,0,1,11.67-9.07,9.62,9.62,0,0,0-6.31-2,9.66,9.66,0,0,0-1.6,19.11A9.64,9.64,0,0,1,15.5,36.41Z"/><path class="cls-20" d="M13.19,35.7a9.75,9.75,0,0,1,9.28-9.28,9.62,9.62,0,0,1,4.33.84l.37.07a9.62,9.62,0,0,0-6.31-2,9.75,9.75,0,0,0-9.28,9.28,9.65,9.65,0,0,0,5,8.82A9.64,9.64,0,0,1,13.19,35.7Z"/><path class="cls-8" d="M43.32,37.66A6.58,6.58,0,0,0,37.91,35H36.66a7.84,7.84,0,0,0-.22,1.82v4.13a3.71,3.71,0,0,0,3.71,3.71h0C43.34,44.63,45.68,41,43.32,37.66Z"/><path class="cls-3" d="M45.91,29.11a14.07,14.07,0,0,0-27.64-3.34,9.77,9.77,0,0,0-6.69,8.81,9.66,9.66,0,0,0,9.66,10h23a7.84,7.84,0,0,0,1.63-15.51Z"/><path class="cls-3" d="M27.93,28a9.63,9.63,0,0,0-7.07-2.69,9.4,9.4,0,0,0-2.59.47,9.77,9.77,0,0,0-6.69,8.81"/></svg>