<svg id="Layer_1" data-name="Layer 1" xmlns="http://www.w3.org/2000/svg" viewBox="0 0 64 64"><defs><style>.cls-1{fill:#9dcbf4;}.cls-2,.cls-4,.cls-6{fill:none;stroke-linecap:round;stroke-linejoin:round;stroke-width:2px;}.cls-2{stroke:#2a5081;}.cls-3{fill:#a8d2f0;}.cls-4{stroke:#295183;}.cls-5{fill:#295183;}.cls-6{stroke:#a8d2f0;}</style></defs><title>settings person</title><path class="cls-1" d="M15.34,36.66s4.24-1.5,4.17,10c0,0-.24,5.5-3.24,5.42Z"/><path class="cls-1" d="M20.09,18.66c-.61,0,.11,3.26.14,3.56A12.87,12.87,0,0,1,20.1,25c-.25,2.34,0,4.71-.42,7-.34,1.67-1.22,3.6-3.24,3.4-4.4-.43.4-12.76,1-12.56s0-4.17,0-4.17Z"/><line class="cls-2" x1="14.84" y1="26.69" x2="11.05" y2="35.86"/><path class="cls-2" d="M19.84,23.86h1.38a3,3,0,0,1,3,3v7.61a2.09,2.09,0,0,1-2.09,2.09H16.93a2.09,2.09,0,0,1-2.09-2.09V26.69"/><path class="cls-2" d="M19.67,17.86a3,3,0,0,0,0,6"/><line class="cls-2" x1="23.91" y1="25.6" x2="27.83" y2="35.86"/><line class="cls-2" x1="15.84" y1="51.46" x2="14.84" y2="34.5"/><line class="cls-2" x1="24.17" y1="34.43" x2="23.21" y2="50.86"/><path class="cls-2" d="M19.46,41.54V51a.43.43,0,0,0,.43.43h2.86a.43.43,0,0,0,.43-.43"/><path class="cls-3" d="M37.68,22.14a5,5,0,0,1,.27,2,30,30,0,0,0,.36,7.22c.56,2.35,2,4.65,4.34,5.42.66.22,1.49.43,1.64,1.11.21.92-1.09,1.6-1.07,2.54a9.43,9.43,0,0,0-6.14-2.86A11,11,0,0,1,33.52,37c-2-.89-2.81-3.32-2.79-5.49a11.35,11.35,0,0,1,1.75-5.88c.87-1.41,2.48-4.09,4.41-4.09A.86.86,0,0,1,37.68,22.14Z"/><path class="cls-4" d="M30.65,32.78a9.44,9.44,0,0,1,0-4.2,9.54,9.54,0,0,1,1.28-3,9.36,9.36,0,0,1,3-3,8.73,8.73,0,0,1,1.46-.75A9.13,9.13,0,0,1,38,21.36h0A9.62,9.62,0,0,1,48.2,25.67a9.35,9.35,0,0,1,1.23,3,9.4,9.4,0,0,1,0,4.19,9.64,9.64,0,0,1-4.29,6h0a9,9,0,0,1-1.45.74,5.6,5.6,0,0,1-.65.23"/><path class="cls-4" d="M36.47,32.2a3.86,3.86,0,1,1,6.87.56"/><rect class="cls-5" x="33.42" y="16.91" width="4.25" height="5.46" rx="1.13" ry="1.13" transform="translate(-4.77 14.78) rotate(-22.05)"/><rect class="cls-5" x="27.69" y="22.84" width="4.25" height="5.46" rx="1.13" ry="1.13" transform="translate(-5.36 43.05) rotate(-67.05)"/><rect class="cls-5" x="48.96" y="32.69" width="4.25" height="5.46" rx="1.13" ry="1.13" transform="translate(103.62 2.2) rotate(112.95)"/><rect class="cls-5" x="49.03" y="23.52" width="4.25" height="5.46" rx="1.13" ry="1.13" transform="translate(56.28 -31.02) rotate(67.95)"/><rect class="cls-5" x="42.59" y="16.98" width="4.25" height="5.46" rx="1.13" ry="1.13" transform="matrix(0.92, 0.39, -0.39, 0.92, 11.23, -15.88)"/><path class="cls-3" d="M32.87,38.66c1.78-.36,1.83,1,2.06,2.31a10.16,10.16,0,0,0,1.88,4.36,7.24,7.24,0,0,0,1.14,1.36c.42.34,1.25.48,1.51,1a.85.85,0,0,1-.12.87,3,3,0,0,1-1.32.92,5,5,0,0,1-2,.31s-4.91-.68-5.91-2.71c-.82-1.65-.16-4.23.49-5.83a4.68,4.68,0,0,1,1.71-2.38A1.89,1.89,0,0,1,32.87,38.66Z"/><path class="cls-4" d="M43.3,43.28a6.45,6.45,0,0,1-.16,1.91,6.53,6.53,0,0,1-.26.86,6.17,6.17,0,0,1-.65,1.28,6.58,6.58,0,0,1-2.13,2.1,6.25,6.25,0,0,1-1,.53A6.72,6.72,0,0,1,38,50.3a6.56,6.56,0,0,1-3,0h0a6.37,6.37,0,0,1-2.13-.9,6.45,6.45,0,0,1-2.09-2.13h0a5.92,5.92,0,0,1-.54-1,6,6,0,0,1-.34-1.12,6.76,6.76,0,0,1,0-3,6.63,6.63,0,0,1,.65-1.7,2.82,2.82,0,0,1,.26-.44,6.32,6.32,0,0,1,1.08-1.29,1.51,1.51,0,0,1,.23-.21,4.86,4.86,0,0,1,.83-.6A6.52,6.52,0,0,1,35.07,37h0a6.48,6.48,0,0,1,2.63,0l.34.07a6.8,6.8,0,0,1,2.15.91l.11.07a6.61,6.61,0,0,1,2,2.06,6.25,6.25,0,0,1,.53,1,5.76,5.76,0,0,1,.34,1.12h0a4.45,4.45,0,0,1,.12.73A1.83,1.83,0,0,1,43.3,43.28Z"/><circle class="cls-4" cx="36.51" cy="43.65" r="2.73" transform="translate(-13.72 16.9) rotate(-22.05)"/><rect class="cls-5" x="31.82" y="33.84" width="3.01" height="3.87" rx="0.8" ry="0.8" transform="translate(-10.99 15.13) rotate(-22.05)"/><path class="cls-5" d="M30.8,40.3l-.05.14-.55,1.3a.83.83,0,0,1-.32.37.78.78,0,0,1-.73.05l-2.09-.88a.81.81,0,0,1-.42-1.05l.15-.34.4-1a.8.8,0,0,1,1.05-.43l2.08.88a.8.8,0,0,1,.47.58A.74.74,0,0,1,30.8,40.3Z"/><rect class="cls-5" x="27.14" y="44.9" width="3.01" height="3.87" rx="0.8" ry="0.8" transform="translate(-4.01 90.97) rotate(-112.05)"/><rect class="cls-5" x="31.7" y="49.53" width="3.01" height="3.87" rx="0.8" ry="0.8" transform="translate(43.71 111.81) rotate(-157.05)"/><path class="cls-5" d="M40.67,49.91,41.52,52a.8.8,0,0,1-.44,1l-1.29.52a.8.8,0,0,1-1-.44L37.89,51A.8.8,0,0,1,38,50.3a.72.72,0,0,1,.37-.31l1.29-.52a.72.72,0,0,1,.48,0A.8.8,0,0,1,40.67,49.91Z"/><path class="cls-5" d="M46.38,47.07l-.26.62-.28.67a.8.8,0,0,1-1,.42L42.7,47.9a.79.79,0,0,1-.47-.57.73.73,0,0,1,0-.48l.48-1.12.07-.17a.78.78,0,0,1,.32-.37.82.82,0,0,1,.73-.06L46,46A.8.8,0,0,1,46.38,47.07Z"/><rect class="cls-5" x="42.88" y="38.53" width="3.01" height="3.87" rx="0.8" ry="0.8" transform="translate(65.22 -15.87) rotate(67.95)"/><rect class="cls-5" x="38.32" y="33.9" width="3.01" height="3.87" rx="0.8" ry="0.8" transform="translate(17.12 -12.69) rotate(22.95)"/><path class="cls-6" d="M48.66,51.19s3.14-3.76,1.22-8.21"/><path class="cls-6" d="M33.58,15s-4.87-.54-7.52,3.51"/><path class="cls-6" d="M17.43,12.37S9.56,16.7,9.87,25.57"/></svg>