<svg id="Layer_1" data-name="Layer 1" xmlns="http://www.w3.org/2000/svg" viewBox="0 0 64 64"><defs><style>.cls-1{fill:#d9e7f4;}.cls-2{fill:#b9d5ea;}.cls-3{fill:#7f98ea;}.cls-4{fill:#7392ea;}.cls-5{fill:#a3b7ef;}.cls-6{fill:#6988e0;}.cls-7{fill:#5475d3;}.cls-8{fill:none;stroke:#041256;stroke-linecap:round;stroke-linejoin:round;stroke-width:2px;}.cls-9{fill:#b0d0e2;}.cls-10{fill:#fff;}.cls-11{fill:#43536d;}.cls-12{fill:#606d87;}.cls-13{fill:#71829e;}.cls-14{fill:#ed4300;}.cls-15{fill:#f47a27;}.cls-16{fill:#b7300b;}.cls-17{fill:#65aa85;}.cls-18{fill:#91260d;}.cls-19{fill:#7a200e;}.cls-20{fill:#89200b;}.cls-21{fill:#97c1db;}.cls-22{fill:#e6f3fc;}.cls-23{fill:#c8dded;}.cls-24{fill:#ebf0f7;}</style></defs><title>settings, preferences, options, gear, screwdriver</title><path class="cls-1" d="M53.44,41.5a2.38,2.38,0,0,0-.77-2.19L47.76,35a2.34,2.34,0,0,1-.79-2,14.77,14.77,0,0,0,.1-1.69A14.52,14.52,0,0,0,47,29.64a2.35,2.35,0,0,1,.79-2l4.91-4.35a2.38,2.38,0,0,0,.48-3L52,18.24a2.38,2.38,0,0,0-2.82-1.07L43,19.24a2.34,2.34,0,0,1-2.13-.32,15.29,15.29,0,0,0-2.91-1.68,2.34,2.34,0,0,1-1.34-1.68L35.27,9.16a2.38,2.38,0,0,0-2.33-1.9H30.55a2.38,2.38,0,0,0-2.33,1.9l-1.31,6.39a2.34,2.34,0,0,1-1.34,1.68,15.29,15.29,0,0,0-2.91,1.68,2.34,2.34,0,0,1-2.13.32l-6.19-2.07a2.38,2.38,0,0,0-2.82,1.07l-1.19,2.06a2.38,2.38,0,0,0,.48,3l4.91,4.35a2.35,2.35,0,0,1,.79,2,14.52,14.52,0,0,0-.09,1.61,14.79,14.79,0,0,0,.1,1.69,2.34,2.34,0,0,1-.79,2l-4.92,4.36A2.38,2.38,0,0,0,10,41.5h0V61.08H53.48V41.5Z"/><path class="cls-2" d="M10.33,41.71l1.19,2.06a2.38,2.38,0,0,0,2.82,1.07l6.27-2.09a2.34,2.34,0,0,1,2.12.32,15.3,15.3,0,0,0,2.83,1.62,2.34,2.34,0,0,1,1.34,1.68l1.32,6.48a2.38,2.38,0,0,0,2.33,1.9h2.38a2.38,2.38,0,0,0,2.33-1.9l1.33-6.48a2.34,2.34,0,0,1,1.34-1.68,15.3,15.3,0,0,0,2.83-1.62,2.34,2.34,0,0,1,2.12-.32l6.27,2.09A2.38,2.38,0,0,0,52,43.77l1.19-2.06a2.37,2.37,0,0,0,.29-.89,2.37,2.37,0,0,0-.78-1.51L47.76,35a2.34,2.34,0,0,1-.79-2s0-.06,0-.08a2.27,2.27,0,0,1,0-.49c.05-.46.07-.93.08-1.4s0-.89-.08-1.32a2.3,2.3,0,0,1,0-.47s0-.07,0-.1a2.35,2.35,0,0,1,.79-2l4.91-4.35a2.37,2.37,0,0,0,.78-1.49,2.37,2.37,0,0,0-.3-.91L52,18.24a2.38,2.38,0,0,0-2.82-1.07L43,19.24a2.34,2.34,0,0,1-2.13-.32,15.29,15.29,0,0,0-2.91-1.68,2.34,2.34,0,0,1-1.34-1.68L35.27,9.16a2.38,2.38,0,0,0-2.33-1.9H30.55a2.38,2.38,0,0,0-2.33,1.9l-1.31,6.39a2.34,2.34,0,0,1-1.34,1.68,15.29,15.29,0,0,0-2.91,1.68,2.34,2.34,0,0,1-2.13.32l-6.19-2.07a2.38,2.38,0,0,0-2.82,1.07l-1.19,2.06a2.37,2.37,0,0,0-.29.91,2.37,2.37,0,0,0,.78,1.49l4.91,4.35a2.35,2.35,0,0,1,.79,2s0,.07,0,.1a2.28,2.28,0,0,1,0,.47c0,.43-.07.88-.08,1.32s0,.94.08,1.4a2.27,2.27,0,0,1,0,.49s0,.06,0,.08a2.34,2.34,0,0,1-.79,2l-4.92,4.36A2.37,2.37,0,0,0,10,40.82,2.37,2.37,0,0,0,10.33,41.71Z"/><path class="cls-3" d="M47.07,27.24A14.52,14.52,0,0,0,47,25.63a2.35,2.35,0,0,1,.79-2l4.91-4.35a2.38,2.38,0,0,0,.48-3L52,14.23a2.38,2.38,0,0,0-2.82-1.07L43,15.22a2.34,2.34,0,0,1-2.13-.32,15.29,15.29,0,0,0-2.91-1.69,2.34,2.34,0,0,1-1.34-1.68L35.27,5.14a2.38,2.38,0,0,0-2.33-1.9H30.55a2.38,2.38,0,0,0-2.33,1.9l-1.31,6.39a2.34,2.34,0,0,1-1.34,1.68,15.29,15.29,0,0,0-2.91,1.69,2.34,2.34,0,0,1-2.13.32l-6.19-2.07a2.38,2.38,0,0,0-2.82,1.07l-1.19,2.06a2.38,2.38,0,0,0,.48,3l4.91,4.35a2.35,2.35,0,0,1,.79,2,14.52,14.52,0,0,0-.09,1.61,14.77,14.77,0,0,0,.1,1.69,2.34,2.34,0,0,1-.79,2L10.81,35.3a2.38,2.38,0,0,0-.48,3l1.19,2.06a2.38,2.38,0,0,0,2.82,1.07l6.27-2.09a2.35,2.35,0,0,1,2.12.32,15.29,15.29,0,0,0,2.83,1.62,2.35,2.35,0,0,1,1.34,1.68l1.32,6.48a2.38,2.38,0,0,0,2.33,1.9h2.38a2.38,2.38,0,0,0,2.33-1.9l1.33-6.48a2.35,2.35,0,0,1,1.34-1.68,15.29,15.29,0,0,0,2.83-1.62,2.34,2.34,0,0,1,2.12-.32l6.27,2.09A2.38,2.38,0,0,0,52,40.33l1.19-2.06a2.38,2.38,0,0,0-.48-3l-4.92-4.36a2.34,2.34,0,0,1-.79-2A14.75,14.75,0,0,0,47.07,27.24Z"/><path class="cls-4" d="M44,27.25A11.66,11.66,0,0,0,43.94,26a1.88,1.88,0,0,1,.63-1.61l3.93-3.48a1.91,1.91,0,0,0,.39-2.38l-1-1.65A1.91,1.91,0,0,0,45.67,16l-5,1.65a1.87,1.87,0,0,1-1.7-.26A12.24,12.24,0,0,0,36.68,16a1.87,1.87,0,0,1-1.07-1.35l-1-5.11A1.91,1.91,0,0,0,32.7,8H30.79a1.9,1.9,0,0,0-1.87,1.52l-1,5.11A1.87,1.87,0,0,1,26.81,16a12.24,12.24,0,0,0-2.33,1.35,1.87,1.87,0,0,1-1.71.26l-5-1.65a1.91,1.91,0,0,0-2.25.85l-1,1.65A1.91,1.91,0,0,0,15,20.87l3.93,3.48A1.88,1.88,0,0,1,19.55,26a11.66,11.66,0,0,0-.07,1.29,11.81,11.81,0,0,0,.08,1.35,1.87,1.87,0,0,1-.63,1.61L15,33.69a1.91,1.91,0,0,0-.39,2.38l1,1.65a1.91,1.91,0,0,0,2.25.85l5-1.67a1.88,1.88,0,0,1,1.7.25,12.24,12.24,0,0,0,2.26,1.3,1.88,1.88,0,0,1,1.07,1.35L28.92,45a1.91,1.91,0,0,0,1.87,1.52H32.7A1.91,1.91,0,0,0,34.56,45l1.06-5.19a1.88,1.88,0,0,1,1.07-1.35A12.24,12.24,0,0,0,39,37.16a1.88,1.88,0,0,1,1.7-.25l5,1.67a1.91,1.91,0,0,0,2.25-.85l1-1.65a1.91,1.91,0,0,0-.39-2.38l-3.93-3.48a1.87,1.87,0,0,1-.63-1.61A11.83,11.83,0,0,0,44,27.25Z"/><path class="cls-5" d="M15.39,24A1.84,1.84,0,0,1,16,25.57c0,.31,0,.61-.05.91h2.5c0-.21,0-.42,0-.64A4.35,4.35,0,0,0,17,22.12l-4.91-4.35a.38.38,0,0,1-.08-.48l1.19-2.07a.38.38,0,0,1,.45-.17l6.19,2.07a4.35,4.35,0,0,0,3.95-.61A13.26,13.26,0,0,1,25,15.76L23.19,14c-.28.18-.57.35-.83.54a1.83,1.83,0,0,1-1.68.25l-6.19-2.07A2.89,2.89,0,0,0,11.09,14L9.89,16a2.89,2.89,0,0,0,.58,3.6Z"/><path class="cls-5" d="M48.09,30.56A1.84,1.84,0,0,1,47.47,29a15.53,15.53,0,0,0,.1-1.74,15.21,15.21,0,0,0-.09-1.67A1.84,1.84,0,0,1,48.1,24L53,19.64a2.89,2.89,0,0,0,.58-3.6L52.4,14A2.89,2.89,0,0,0,49,12.68L42.8,14.75a1.84,1.84,0,0,1-1.68-.25,15.83,15.83,0,0,0-3-1.74,1.84,1.84,0,0,1-1-1.32L35.76,5a2.89,2.89,0,0,0-2.82-2.3H30.55A2.89,2.89,0,0,0,27.73,5l-1.31,6.39a1.84,1.84,0,0,1-1,1.32c-.38.17-.74.37-1.11.56l1.86,1.86.26-.13a4.35,4.35,0,0,0,2.5-3.11l1.31-6.39a.38.38,0,0,1,.37-.31h2.38a.39.39,0,0,1,.37.3l1.31,6.4A4.35,4.35,0,0,0,37.11,15a13.3,13.3,0,0,1,2.53,1.46,4.34,4.34,0,0,0,4,.61l6.19-2.07a.39.39,0,0,1,.46.17l1.19,2.06a.38.38,0,0,1-.08.48l-4.91,4.35A4.35,4.35,0,0,0,45,25.85a12.42,12.42,0,0,1,0,2.85,4.34,4.34,0,0,0,1.45,3.74l4.92,4.36a.38.38,0,0,1,.08.48l-1.19,2.06a.39.39,0,0,1-.45.17l-6.27-2.09a4.33,4.33,0,0,0-3.93.59,13.31,13.31,0,0,1-2.46,1.41,4.36,4.36,0,0,0-2.5,3.11L33.31,49a.38.38,0,0,1-.37.31H30.55a.39.39,0,0,1-.37-.3l-1.32-6.49a4.35,4.35,0,0,0-2.49-3.11A13.44,13.44,0,0,1,23.9,38a4.35,4.35,0,0,0-2.54-.82,4.41,4.41,0,0,0-1.39.23L13.7,39.5a.39.39,0,0,1-.45-.17l-1.19-2.06a.38.38,0,0,1,.08-.48l4.91-4.36A4.34,4.34,0,0,0,18.5,28.7a12.7,12.7,0,0,1-.08-1.46h-2.5A15.53,15.53,0,0,0,16,29a1.84,1.84,0,0,1-.62,1.58l-4.92,4.36a2.89,2.89,0,0,0-.58,3.6l1.19,2.06a2.89,2.89,0,0,0,3.41,1.29l6.27-2.09a1.85,1.85,0,0,1,1.67.25,15.88,15.88,0,0,0,2.92,1.68A1.84,1.84,0,0,1,26.4,43l1.32,6.49a2.89,2.89,0,0,0,2.82,2.3h2.38a2.89,2.89,0,0,0,2.82-2.31L37.08,43a1.84,1.84,0,0,1,1.05-1.33A15.84,15.84,0,0,0,41.06,40a1.85,1.85,0,0,1,1.67-.25L49,41.88a2.89,2.89,0,0,0,3.41-1.29l1.19-2.06a2.89,2.89,0,0,0-.58-3.6Z"/><circle class="cls-6" cx="31.74" cy="27.28" r="12.67"/><path class="cls-5" d="M22.88,21.68A10.22,10.22,0,0,1,27,18.15,9.67,9.67,0,0,1,32,17.26,9.16,9.16,0,0,0,27.49,19a8.71,8.71,0,0,0-2.85,3.63,1,1,0,1,1-1.77-.94Z"/><path class="cls-5" d="M22.59,27.72a1,1,0,0,1-1-1c0-.18,0-.35,0-.53a1,1,0,0,1,1-.95,1,1,0,0,1,.95,1c0,.14,0,.29,0,.43A1,1,0,0,1,22.59,27.72Z"/><path class="cls-7" d="M40.36,32.88a10.21,10.21,0,0,1-4.1,3.53,9.67,9.67,0,0,1-5.07.89,9.16,9.16,0,0,0,4.56-1.75,8.71,8.71,0,0,0,2.85-3.63,1,1,0,1,1,1.77.94Z"/><path class="cls-7" d="M40.9,27.08a1,1,0,0,1,1,1c0,.18,0,.35,0,.53a1,1,0,0,1-1,.95,1,1,0,0,1-.95-1c0-.14,0-.29,0-.43A1,1,0,0,1,40.9,27.08Z"/><path class="cls-7" d="M35.13,27.33a5.81,5.81,0,0,0-6.77,0H25.9v4.75a5.84,5.84,0,1,0,11.69,0V27.33Z"/><path class="cls-5" d="M31.74,27A5.8,5.8,0,0,0,28.36,28H25.9v.6a5.84,5.84,0,1,0,11.69,0V28H35.13A5.8,5.8,0,0,0,31.74,27Z"/><path class="cls-8" d="M47.07,27.24A14.52,14.52,0,0,0,47,25.63a2.35,2.35,0,0,1,.79-2l4.91-4.35a2.38,2.38,0,0,0,.48-3L52,14.23a2.38,2.38,0,0,0-2.82-1.07L43,15.22a2.34,2.34,0,0,1-2.13-.32,15.29,15.29,0,0,0-2.91-1.69,2.34,2.34,0,0,1-1.34-1.68L35.27,5.14a2.38,2.38,0,0,0-2.33-1.9H30.55a2.38,2.38,0,0,0-2.33,1.9l-1.31,6.39a2.34,2.34,0,0,1-1.34,1.68,15.29,15.29,0,0,0-2.91,1.69,2.34,2.34,0,0,1-2.13.32l-6.19-2.07a2.38,2.38,0,0,0-2.82,1.07l-1.19,2.06a2.38,2.38,0,0,0,.48,3l4.91,4.35a2.35,2.35,0,0,1,.79,2,14.52,14.52,0,0,0-.09,1.61,14.77,14.77,0,0,0,.1,1.69,2.34,2.34,0,0,1-.79,2L10.81,35.3a2.38,2.38,0,0,0-.48,3l1.19,2.06a2.38,2.38,0,0,0,2.82,1.07l6.27-2.09a2.35,2.35,0,0,1,2.12.32,15.29,15.29,0,0,0,2.83,1.62,2.35,2.35,0,0,1,1.34,1.68l1.32,6.48a2.38,2.38,0,0,0,2.33,1.9h2.38a2.38,2.38,0,0,0,2.33-1.9l1.33-6.48a2.35,2.35,0,0,1,1.34-1.68,15.29,15.29,0,0,0,2.83-1.62,2.34,2.34,0,0,1,2.12-.32l6.27,2.09A2.38,2.38,0,0,0,52,40.33l1.19-2.06a2.38,2.38,0,0,0-.48-3l-4.92-4.36a2.34,2.34,0,0,1-.79-2A14.75,14.75,0,0,0,47.07,27.24Z"/><circle class="cls-9" cx="31.74" cy="27.28" r="4.84"/><circle class="cls-10" cx="31.74" cy="27.28" r="2.66"/><circle class="cls-8" cx="31.74" cy="27.28" r="4.84"/><path class="cls-3" d="M16.47,53a4.89,4.89,0,0,0,0-.54.79.79,0,0,1,.27-.68l1.66-1.47a.8.8,0,0,0,.16-1l-.4-.7a.8.8,0,0,0-1-.36l-2.09.7a.79.79,0,0,1-.72-.11,5.16,5.16,0,0,0-1-.57.79.79,0,0,1-.45-.57l-.44-2.16a.8.8,0,0,0-.79-.64h-.8a.8.8,0,0,0-.79.64l-.44,2.16a.79.79,0,0,1-.45.57,5.15,5.15,0,0,0-1,.57.79.79,0,0,1-.72.11l-2.09-.7a.8.8,0,0,0-1,.36l-.4.7a.8.8,0,0,0,.16,1l1.66,1.47a.79.79,0,0,1,.27.68,4.91,4.91,0,0,0,0,.54,5,5,0,0,0,0,.57.79.79,0,0,1-.27.68L4.22,55.68a.8.8,0,0,0-.16,1l.4.7a.8.8,0,0,0,1,.36L7.53,57a.79.79,0,0,1,.72.11,5.16,5.16,0,0,0,1,.55.79.79,0,0,1,.45.57l.45,2.19a.8.8,0,0,0,.79.64h.8a.8.8,0,0,0,.79-.64l.45-2.19a.79.79,0,0,1,.45-.57,5.16,5.16,0,0,0,1-.55.79.79,0,0,1,.72-.11l2.12.71a.8.8,0,0,0,1-.36l.4-.7a.8.8,0,0,0-.16-1L16.7,54.21a.79.79,0,0,1-.27-.68A5,5,0,0,0,16.47,53Z"/><path class="cls-4" d="M15.43,53a4,4,0,0,0,0-.44.63.63,0,0,1,.21-.54l1.33-1.17a.64.64,0,0,0,.13-.8l-.32-.56a.64.64,0,0,0-.76-.29l-1.67.56a.63.63,0,0,1-.58-.09,4.12,4.12,0,0,0-.79-.46.63.63,0,0,1-.36-.45L12.24,47a.64.64,0,0,0-.63-.51H11a.64.64,0,0,0-.63.51L10,48.73a.63.63,0,0,1-.36.45,4.12,4.12,0,0,0-.79.46.63.63,0,0,1-.58.09l-1.67-.56a.64.64,0,0,0-.76.29L5.51,50a.64.64,0,0,0,.13.8L7,52a.63.63,0,0,1,.21.54,3.91,3.91,0,0,0,0,.44,4,4,0,0,0,0,.46A.63.63,0,0,1,7,54L5.64,55.14a.64.64,0,0,0-.13.8l.32.56a.64.64,0,0,0,.76.29l1.69-.56a.63.63,0,0,1,.57.09,4.14,4.14,0,0,0,.76.44.63.63,0,0,1,.36.45L10.34,59a.64.64,0,0,0,.63.51h.64a.64.64,0,0,0,.63-.51l.36-1.75a.63.63,0,0,1,.36-.45,4.13,4.13,0,0,0,.76-.44.63.63,0,0,1,.57-.09l1.69.56a.64.64,0,0,0,.76-.29l.32-.56a.64.64,0,0,0-.13-.8L15.62,54a.63.63,0,0,1-.21-.54A4,4,0,0,0,15.43,53Z"/><path class="cls-5" d="M5.77,51.87A.62.62,0,0,1,6,52.4c0,.1,0,.21,0,.31H6.8c0-.07,0-.14,0-.21a1.47,1.47,0,0,0-.49-1.26L4.67,49.77a.13.13,0,0,1,0-.16l.4-.7a.13.13,0,0,1,.15-.06l2.09.7a1.47,1.47,0,0,0,1.33-.21A4.45,4.45,0,0,1,9,49.09l-.61-.61-.28.18a.62.62,0,0,1-.57.08l-2.09-.7a1,1,0,0,0-1.15.44l-.4.7a1,1,0,0,0,.2,1.21Z"/><path class="cls-5" d="M16.81,54.09a.62.62,0,0,1-.21-.53,5.26,5.26,0,0,0,0-.59,5.13,5.13,0,0,0,0-.56.62.62,0,0,1,.21-.53l1.66-1.47a1,1,0,0,0,.2-1.21l-.4-.7a1,1,0,0,0-1.15-.44l-2.09.7a.62.62,0,0,1-.57-.08,5.34,5.34,0,0,0-1-.59.62.62,0,0,1-.35-.45l-.44-2.16a1,1,0,0,0-1-.78h-.8a1,1,0,0,0-1,.78l-.44,2.16a.62.62,0,0,1-.35.45l-.37.19.63.63.09,0a1.47,1.47,0,0,0,.84-1.05l.44-2.16a.13.13,0,0,1,.13-.1h.8a.13.13,0,0,1,.13.1l.44,2.16a1.47,1.47,0,0,0,.84,1.05,4.48,4.48,0,0,1,.86.49,1.47,1.47,0,0,0,1.33.21l2.09-.7a.13.13,0,0,1,.15.06l.4.7a.13.13,0,0,1,0,.16l-1.66,1.47a1.47,1.47,0,0,0-.49,1.26,4.18,4.18,0,0,1,0,1,1.47,1.47,0,0,0,.49,1.26l1.66,1.47a.13.13,0,0,1,0,.16l-.4.7a.13.13,0,0,1-.15.06l-2.12-.71a1.46,1.46,0,0,0-1.33.2,4.5,4.5,0,0,1-.83.48,1.47,1.47,0,0,0-.84,1.05l-.45,2.19a.13.13,0,0,1-.13.1h-.8a.13.13,0,0,1-.13-.1l-.45-2.19a1.47,1.47,0,0,0-.84-1.05,4.54,4.54,0,0,1-.83-.48,1.47,1.47,0,0,0-.86-.28,1.49,1.49,0,0,0-.47.08L5.2,57.1A.13.13,0,0,1,5,57l-.4-.7a.13.13,0,0,1,0-.16l1.66-1.47a1.47,1.47,0,0,0,.49-1.26,4.27,4.27,0,0,1,0-.49H5.95a5.24,5.24,0,0,0,0,.59.62.62,0,0,1-.21.53L4.11,55.56a1,1,0,0,0-.2,1.21l.4.7a1,1,0,0,0,1.15.44l2.12-.71a.62.62,0,0,1,.56.08,5.37,5.37,0,0,0,1,.57.62.62,0,0,1,.36.45l.45,2.19a1,1,0,0,0,1,.78h.8a1,1,0,0,0,1-.78l.45-2.19a.62.62,0,0,1,.36-.45,5.36,5.36,0,0,0,1-.57A.63.63,0,0,1,15,57.2l2.12.71a1,1,0,0,0,1.15-.44l.4-.7a1,1,0,0,0-.2-1.21Z"/><circle class="cls-6" cx="11.29" cy="52.98" r="4.28"/><path class="cls-5" d="M8.3,51.09A3.45,3.45,0,0,1,9.68,49.9a3.26,3.26,0,0,1,1.71-.3,3.09,3.09,0,0,0-1.54.59,2.94,2.94,0,0,0-1,1.23.34.34,0,0,1-.63-.26l0-.06Z"/><path class="cls-5" d="M8.2,53.13a.34.34,0,0,1-.34-.34c0-.06,0-.12,0-.18a.33.33,0,0,1,.35-.32.34.34,0,0,1,.32.35s0,.1,0,.14A.34.34,0,0,1,8.2,53.13Z"/><path class="cls-7" d="M14.2,54.87a3.45,3.45,0,0,1-1.38,1.19,3.26,3.26,0,0,1-1.71.3,3.1,3.1,0,0,0,1.54-.59,2.94,2.94,0,0,0,1-1.23.34.34,0,0,1,.63.26l0,.06Z"/><path class="cls-7" d="M14.38,52.91a.34.34,0,0,1,.34.34c0,.06,0,.12,0,.18a.33.33,0,0,1-.35.32.34.34,0,0,1-.32-.35s0-.1,0-.14A.34.34,0,0,1,14.38,52.91Z"/><path class="cls-7" d="M12.43,53a2,2,0,0,0-2.29,0H9.32V54.6a2,2,0,0,0,3.95,0V53Z"/><path class="cls-5" d="M11.29,52.87a2,2,0,0,0-1.14.37H9.32v.2a2,2,0,0,0,3.95,0v-.2h-.83A2,2,0,0,0,11.29,52.87Z"/><circle class="cls-9" cx="11.29" cy="52.98" r="1.64"/><circle class="cls-10" cx="11.29" cy="52.98" r="0.9"/><circle class="cls-8" cx="11.29" cy="52.98" r="1.64"/><path class="cls-11" d="M52.42,5.2v32.1l2.2,1.27,2.2-1.27V5.2a.69.69,0,0,0-.19-.47l-1.51-1.6a.69.69,0,0,0-1,0L52.6,4.72A.69.69,0,0,0,52.42,5.2Z"/><path class="cls-12" d="M54.29,38.17V5.94a.36.36,0,0,1,.1-.25L56,4l-.84-.9a.69.69,0,0,0-1,0L52.6,4.72a.69.69,0,0,0-.19.47v32.1l2.2,1.27.18-.1Z"/><path class="cls-13" d="M53.82,22.83V5.91A.69.69,0,0,1,54,5.44l1.51-1.6a.67.67,0,0,1,.17-.12l-.57-.6a.69.69,0,0,0-1,0L52.6,4.72a.69.69,0,0,0-.19.47V22.83Z"/><polygon class="cls-13" points="53.82 23.8 52.41 23.8 52.41 37.29 54.61 38.56 54.7 38.51 53.82 38.01 53.82 23.8"/><path class="cls-11" d="M56.81,37.29V32.88c-.73,0-1.46-.06-2.2-.06s-1.47,0-2.2.06v4.41l2.2,1.27Z"/><path class="cls-8" d="M52.42,5.2v32.1l2.2,1.27,2.2-1.27V5.2a.69.69,0,0,0-.19-.47l-1.51-1.6a.69.69,0,0,0-1,0L52.6,4.72A.69.69,0,0,0,52.42,5.2Z"/><path class="cls-14" d="M57.77,40.57a3,3,0,0,1,1.91-2.82,1.4,1.4,0,0,0,.87-1.3h0A1.41,1.41,0,0,0,59.32,35a40.21,40.21,0,0,0-9.4,0,1.41,1.41,0,0,0-1.23,1.41h0a1.4,1.4,0,0,0,.87,1.3,3,3,0,0,1,0,5.64,1.4,1.4,0,0,0-.87,1.3V59.4a1.41,1.41,0,0,0,1.23,1.41,40.2,40.2,0,0,0,9.4,0,1.41,1.41,0,0,0,1.23-1.41V44.69a1.4,1.4,0,0,0-.87-1.3A3,3,0,0,1,57.77,40.57Z"/><path class="cls-15" d="M59.68,43.39a3.05,3.05,0,0,1-1.61-1.5A3,3,0,0,0,60,45.06a1.36,1.36,0,0,1,.59.47v-.84A1.4,1.4,0,0,0,59.68,43.39Z"/><path class="cls-15" d="M49,46.36a1.4,1.4,0,0,1,.87-1.3,3,3,0,0,0,1.61-4.14,3,3,0,0,1-1.88,2.47,1.4,1.4,0,0,0-.87,1.3V59.4a1.42,1.42,0,0,0,.28.81Z"/><path class="cls-15" d="M50.63,49.2l-1.95-.26v1.68l1.72.23a.83.83,0,0,0,.95-.83h0A.83.83,0,0,0,50.63,49.2Z"/><path class="cls-15" d="M50.63,51.87l-1.95-.26V59.4a1.41,1.41,0,0,0,1.23,1.41c.51.06,1,.1,1.56.14a1.42,1.42,0,0,1-.12-.56V52.7A.83.83,0,0,0,50.63,51.87Z"/><path class="cls-16" d="M59.32,60.81a1.41,1.41,0,0,0,1.23-1.41V44.69a1.4,1.4,0,0,0-.87-1.3,3,3,0,0,1,0-5.64,1.37,1.37,0,0,0,.69-1.94c-.47,0-.93,0-1.4,0a40,40,0,0,0-4.7.28A1.41,1.41,0,0,0,53,37.45a1.4,1.4,0,0,0,.87,1.3,3,3,0,0,1,.84,5.13,5.2,5.2,0,0,0-1.71,4V60.4a1.4,1.4,0,0,0,.17.64c.47,0,.93,0,1.4,0A40.05,40.05,0,0,0,59.32,60.81Z"/><path class="cls-17" d="M59.68,43.39a3,3,0,0,1,0-5.64,1.4,1.4,0,0,0,.87-1.3A1.41,1.41,0,0,0,59.32,35a40.21,40.21,0,0,0-9.4,0,1.37,1.37,0,0,0-1,.59c1.2-.11,2.41-.18,3.66-.18a40,40,0,0,1,4.7.28,1.41,1.41,0,0,1,1.23,1.41,1.4,1.4,0,0,1-.87,1.3,3,3,0,0,0-1.1,4.87,8.07,8.07,0,0,1,2,5.51V60.08a1.41,1.41,0,0,1-.28.81l1-.09a1.42,1.42,0,0,0,1.26-1.41V44.69A1.4,1.4,0,0,0,59.68,43.39Z"/><path class="cls-15" d="M60.42,35.9a1.48,1.48,0,0,0-.2-.33l-.13-.13a1.36,1.36,0,0,0-.22-.17l-.13-.08a1.32,1.32,0,0,0-.43-.14,40.21,40.21,0,0,0-9.4,0,1.41,1.41,0,0,0-1.23,1.41,1.36,1.36,0,0,0,.05.35l0,.13a1.4,1.4,0,0,0,.08.17,1.36,1.36,0,0,0,.69.64,3,3,0,0,1,0,5.64,1.4,1.4,0,0,0-.87,1.3v3l1.72.23a.83.83,0,0,0,.95-.83A3.84,3.84,0,0,1,52.9,44a3,3,0,0,0-.68-5.25,1.4,1.4,0,0,1-.87-1.3,1.42,1.42,0,0,1,.3-.86c1.06-.09,2.14-.15,3.24-.15a40.09,40.09,0,0,1,4.7.28,1.36,1.36,0,0,1,.78.39,1.32,1.32,0,0,0,0-1.21Z"/><path class="cls-8" d="M57.77,40.57a3,3,0,0,1,1.91-2.82,1.4,1.4,0,0,0,.87-1.3h0A1.41,1.41,0,0,0,59.32,35a40.21,40.21,0,0,0-9.4,0,1.41,1.41,0,0,0-1.23,1.41h0a1.4,1.4,0,0,0,.87,1.3,3,3,0,0,1,0,5.64,1.4,1.4,0,0,0-.87,1.3V59.4a1.41,1.41,0,0,0,1.23,1.41,40.2,40.2,0,0,0,9.4,0,1.41,1.41,0,0,0,1.23-1.41V44.69a1.4,1.4,0,0,0-.87-1.3A3,3,0,0,1,57.77,40.57Z"/><path class="cls-15" d="M51.88,56.59h0a.56.56,0,0,1-.56-.56V47.69a.56.56,0,0,1,.56-.56h0a.56.56,0,0,1,.56.56V56A.56.56,0,0,1,51.88,56.59Z"/><path class="cls-18" d="M51.88,56.22h0a.56.56,0,0,1-.56-.56V47.33a.56.56,0,0,1,.56-.56h0a.56.56,0,0,1,.56.56v8.34A.56.56,0,0,1,51.88,56.22Z"/><path class="cls-19" d="M51.88,46.77a.56.56,0,0,0-.56.56V54.7a.56.56,0,0,0,1.12,0V47.33A.56.56,0,0,0,51.88,46.77Z"/><path class="cls-15" d="M54.61,57h0a.56.56,0,0,1-.56-.56V48.14a.56.56,0,0,1,.56-.56h0a.56.56,0,0,1,.56.56v8.34A.56.56,0,0,1,54.61,57Z"/><path class="cls-20" d="M54.61,56.67h0a.56.56,0,0,1-.56-.56V47.77a.56.56,0,0,1,.56-.56h0a.56.56,0,0,1,.56.56v8.34A.56.56,0,0,1,54.61,56.67Z"/><path class="cls-19" d="M54.61,47.22a.56.56,0,0,0-.56.56v7.37a.56.56,0,1,0,1.12,0V47.77A.56.56,0,0,0,54.61,47.22Z"/><path class="cls-15" d="M57.34,56.59h0a.56.56,0,0,1-.56-.56V47.69a.56.56,0,0,1,.56-.56h0a.56.56,0,0,1,.56.56V56A.56.56,0,0,1,57.34,56.59Z"/><path class="cls-20" d="M57.34,56.22h0a.56.56,0,0,1-.56-.56V47.33a.56.56,0,0,1,.56-.56h0a.56.56,0,0,1,.56.56v8.34A.56.56,0,0,1,57.34,56.22Z"/><path class="cls-19" d="M57.34,46.77a.56.56,0,0,0-.56.56V54.7a.56.56,0,0,0,1.12,0V47.33A.56.56,0,0,0,57.34,46.77Z"/><path class="cls-2" d="M4,29.87H4a.47.47,0,0,1-.47-.47V25.16A.47.47,0,0,1,4,24.69H4a.47.47,0,0,1,.47.47V29.4A.47.47,0,0,1,4,29.87Z"/><path class="cls-2" d="M5.92,29.87h0a.47.47,0,0,1-.47-.47V25.16a.47.47,0,0,1,.47-.47h0a.47.47,0,0,1,.47.47V29.4A.47.47,0,0,1,5.92,29.87Z"/><path class="cls-2" d="M7.88,29.87h0a.47.47,0,0,1-.47-.47V25.16a.47.47,0,0,1,.47-.47h0a.47.47,0,0,1,.47.47V29.4A.47.47,0,0,1,7.88,29.87Z"/><path class="cls-2" d="M9.84,29.87h0a.47.47,0,0,1-.47-.47V25.16a.47.47,0,0,1,.47-.47h0a.47.47,0,0,1,.47.47V29.4A.47.47,0,0,1,9.84,29.87Z"/><path class="cls-21" d="M3.49,27.08v1a.68.68,0,0,0,.93,0v-1a.68.68,0,0,0-.93,0Z"/><circle class="cls-22" cx="3.96" cy="27.21" r="0.7"/><circle class="cls-1" cx="3.96" cy="27.21" r="0.49"/><path class="cls-23" d="M4,27.71a.49.49,0,0,1,0-1"/><path class="cls-21" d="M5.45,27.85v1a.68.68,0,0,0,.93,0v-1a.68.68,0,0,0-.93,0Z"/><circle class="cls-22" cx="5.92" cy="27.98" r="0.7"/><circle class="cls-1" cx="5.92" cy="27.98" r="0.49"/><path class="cls-23" d="M5.92,28.47a.49.49,0,1,1,0-1"/><path class="cls-21" d="M7.41,26.16v1a.68.68,0,0,0,.93,0v-1a.68.68,0,0,0-.93,0Z"/><circle class="cls-22" cx="7.88" cy="26.29" r="0.7"/><circle class="cls-1" cx="7.88" cy="26.29" r="0.49"/><path class="cls-23" d="M7.88,26.78a.49.49,0,0,1,0-1"/><path class="cls-21" d="M9.37,26.89v1a.68.68,0,0,0,.93,0v-1a.68.68,0,0,0-.93,0Z"/><circle class="cls-22" cx="9.84" cy="27.02" r="0.7"/><circle class="cls-1" cx="9.84" cy="27.02" r="0.49"/><path class="cls-23" d="M9.84,27.51a.49.49,0,1,1,0-1"/><path class="cls-1" d="M6.45,43a.19.19,0,0,1-.06-.16,1.21,1.21,0,0,0,0-.14,1.19,1.19,0,0,0,0-.13.19.19,0,0,1,.06-.16l.4-.36a.19.19,0,0,0,0-.24l-.1-.17a.19.19,0,0,0-.23-.09l-.51.17a.19.19,0,0,1-.17,0,1.25,1.25,0,0,0-.24-.14.19.19,0,0,1-.11-.14l-.11-.52a.19.19,0,0,0-.19-.16H5a.19.19,0,0,0-.19.16l-.11.52a.19.19,0,0,1-.11.14,1.26,1.26,0,0,0-.24.14.19.19,0,0,1-.17,0l-.51-.17a.19.19,0,0,0-.23.09l-.1.17a.19.19,0,0,0,0,.24l.4.36a.19.19,0,0,1,.06.16,1.19,1.19,0,0,0,0,.13,1.21,1.21,0,0,0,0,.14.19.19,0,0,1-.06.16l-.4.36a.19.19,0,0,0,0,.24l.1.17a.19.19,0,0,0,.23.09l.51-.17a.19.19,0,0,1,.17,0,1.25,1.25,0,0,0,.23.13.19.19,0,0,1,.11.14l.11.53a.19.19,0,0,0,.19.16h.19a.19.19,0,0,0,.19-.16L5.54,44a.19.19,0,0,1,.11-.14,1.25,1.25,0,0,0,.23-.13.19.19,0,0,1,.17,0l.51.17a.19.19,0,0,0,.23-.09l.1-.17a.19.19,0,0,0,0-.24Zm-1.31.15a.45.45,0,1,1,.45-.45A.45.45,0,0,1,5.14,43.17Z"/><path class="cls-2" d="M44.42,53.4a.41.41,0,0,1-.14-.35,2.5,2.5,0,0,0,0-.57.41.41,0,0,1,.14-.35l.85-.75a.41.41,0,0,0,.08-.51l-.21-.36a.41.41,0,0,0-.49-.18l-1.07.36a.41.41,0,0,1-.37-.06,2.65,2.65,0,0,0-.5-.29.41.41,0,0,1-.23-.29l-.23-1.11a.41.41,0,0,0-.4-.33h-.41a.41.41,0,0,0-.4.33L40.81,50a.41.41,0,0,1-.23.29,2.65,2.65,0,0,0-.5.29.41.41,0,0,1-.37.06l-1.07-.36a.41.41,0,0,0-.49.18l-.21.36a.41.41,0,0,0,.08.51l.85.75a.41.41,0,0,1,.14.35,2.52,2.52,0,0,0,0,.28,2.56,2.56,0,0,0,0,.29.4.4,0,0,1-.14.35l-.85.75a.41.41,0,0,0-.08.51l.21.36a.41.41,0,0,0,.49.19l1.09-.36a.41.41,0,0,1,.37.05,2.65,2.65,0,0,0,.49.28.41.41,0,0,1,.23.29L41,56.6a.41.41,0,0,0,.4.33h.41a.41.41,0,0,0,.4-.33l.23-1.12a.41.41,0,0,1,.23-.29,2.64,2.64,0,0,0,.49-.28.41.41,0,0,1,.37-.05l1.09.36a.41.41,0,0,0,.49-.19l.21-.36a.41.41,0,0,0-.08-.51Zm-2.77.31a.94.94,0,1,1,.94-.94A.94.94,0,0,1,41.65,53.71Z"/><path class="cls-24" d="M7.42,9.1h0a.37.37,0,0,1,.37-.37h2a.62.62,0,0,1,.62.62h0a.62.62,0,0,1-.62.62h-1a.37.37,0,0,0-.37.37h0a.37.37,0,0,1-.37.37h-2a.62.62,0,0,1-.62-.62h0a.62.62,0,0,1,.62-.62h1A.37.37,0,0,0,7.42,9.1Z"/><path class="cls-24" d="M14.73,7.39h0a.45.45,0,0,0-.45-.45h-2.4a.75.75,0,0,0-.75.75h0a.75.75,0,0,0,.75.75h1.2a.45.45,0,0,1,.45.45h0a.45.45,0,0,0,.45.45h2.4a.75.75,0,0,0,.75-.75h0a.75.75,0,0,0-.75-.75h-1.2A.45.45,0,0,1,14.73,7.39Z"/><circle class="cls-24" cx="20.5" cy="7.42" r="1.09"/><circle class="cls-24" cx="21.35" cy="11.24" r="0.53"/><circle class="cls-24" cx="5.38" cy="16.36" r="0.95"/><circle class="cls-24" cx="7.41" cy="19.74" r="0.23"/><circle class="cls-24" cx="5.83" cy="6.75" r="2.09"/><circle class="cls-24" cx="44.7" cy="7.87" r="1.54"/><circle class="cls-24" cx="41.35" cy="10.97" r="0.27"/><circle class="cls-24" cx="40.12" cy="5.33" r="1"/></svg>