<svg xmlns="http://www.w3.org/2000/svg" viewBox="0 0 64 64"><defs><style>.cls-1{fill:#a8d2f0;}.cls-2{fill:#389ad6;}.cls-3{fill:none;stroke:#295183;stroke-linecap:round;stroke-linejoin:round;stroke-width:2px;}</style></defs><title>settings, pointers, arrow, preferences</title><g id="Layer_4" data-name="Layer 4"><path class="cls-1" d="M40.65,20.39a2.54,2.54,0,0,1,2.61-2.49.86.86,0,0,1,.74.35c.53.92-1.78,17,1.53,20.29s2.85,6.65-1.22,7S39.75,48.29,40,39.69C40.19,33.14,40.51,24.24,40.65,20.39Z"/><path class="cls-2" d="M13.72,40a1.68,1.68,0,0,1-.12-1.48c.23-.53.71-.93,1.76-.06,1.89,1.57,2.64,5.18,5.47,5.25s1.69,1.9-.47,1.76S16.8,45.42,13.72,40Z"/><path class="cls-3" d="M36.66,45.89H22.34A10.37,10.37,0,0,1,12,35.55V28.32A10.37,10.37,0,0,1,22.34,18H41.66A10.37,10.37,0,0,1,52,28.32v7.23A10.37,10.37,0,0,1,41.66,45.89H40.25V22"/><line class="cls-3" x1="40.25" y1="27.09" x2="46.92" y2="27.09"/><path class="cls-1" d="M18.15,22.93c1.67-1.14,3.85-1.15,5.8-1.23,2.57-.12,5.15-.09,7.73-.13,1.64,0,4.42.94,1.93,2.49-1.95,1.21-4.06,2.18-5.92,3.53-1.64,1.19-5.79,5.33-2.24,6.84a5.15,5.15,0,0,0,2.48.23c1.78-.16,3.84-.4,5.38.73s2.09,3.2,2.62,4.83a2.22,2.22,0,0,1,0,1.5,2.19,2.19,0,0,1-1.85,1.17,27.64,27.64,0,0,1-6.26-.4c-3.11-.37-6.47-.95-9.23-2.62a8.27,8.27,0,0,1-3.54-4c-1-2.57-.25-5.41.16-8A7.27,7.27,0,0,1,18.15,22.93Z"/><path class="cls-2" d="M15.74,26.31a2.35,2.35,0,0,1,1.38-1.55c.75-.29,1.63-.18,1.77,1.71.25,3.42-2.67,7.67,0,10.58s-.28,3.54-2.22,1.23S13.29,34.63,15.74,26.31Z"/><polyline class="cls-3" points="44.27 33.32 46.09 30.98 47.79 33.32"/><polyline class="cls-3" points="47.79 36.98 45.97 39.32 44.27 36.98"/></g></svg>