<svg xmlns="http://www.w3.org/2000/svg" viewBox="0 0 64 64"><defs><style>.cls-1{fill:#a8d2f0;}.cls-2{fill:#389ad6;}.cls-3,.cls-4{fill:none;stroke-linecap:round;stroke-linejoin:round;stroke-width:2px;}.cls-3{stroke:#2a5081;}.cls-4{stroke:#295183;}.cls-5{fill:#295183;}.cls-6{fill:#2a5081;}</style></defs><title>shield, wireless, security, safety</title><g id="Layer_4" data-name="Layer 4"><path class="cls-1" d="M37.11,26c-.78,2.68-2.26,5-2.68,7.84a8.17,8.17,0,0,0,.24,4.2,27.07,27.07,0,0,1,1.16,2.51,5.78,5.78,0,0,1,.12.57c.25,1.78-.72,3.54-1.78,4.91a2.31,2.31,0,0,1-1.4,1A1.32,1.32,0,0,1,32,47a15.49,15.49,0,0,1-1.52,1.38A35.07,35.07,0,0,1,16.6,20.45V15.64a7.9,7.9,0,0,0,7.88,7.9h0a7.89,7.89,0,0,0,6.8-3.93,8.84,8.84,0,0,1,1,1,3,3,0,0,1,.2-.5c2,.9,5.34,3,4.67,5.59Z"/><path class="cls-2" d="M27.37,23.56l.15.16a2.46,2.46,0,0,1,.19,2.06c-.38,1.72-1,3.4-1.22,5.14a17,17,0,0,0,1,8.22,25.23,25.23,0,0,0,1.72,3.75c.52.93,1.55,2,1.39,3.13a.24.24,0,0,1-.06.15c-.08.07-.21,0-.3,0a20.69,20.69,0,0,1-2.43-1.85,27.93,27.93,0,0,1-9.55-15.94,20.36,20.36,0,0,1-.48-7.55,8.44,8.44,0,0,0,3.31,2,12,12,0,0,0,4,.33A3.15,3.15,0,0,1,27.37,23.56Z"/><path class="cls-3" d="M31.9,16a7.43,7.43,0,0,1-7.4,7.41h0A7.42,7.42,0,0,1,17.09,16v4.49A32.88,32.88,0,0,0,31.9,48"/><path class="cls-3" d="M46.72,16a7.42,7.42,0,0,1-7.4,7.41h0A7.43,7.43,0,0,1,31.9,16"/><path class="cls-3" d="M31.9,48a32.89,32.89,0,0,0,14-20"/><path class="cls-4" d="M29.21,40.35a7.36,7.36,0,0,1,0-13.72"/><path class="cls-4" d="M34.57,26.62a7.37,7.37,0,0,1,0,13.73"/><path class="cls-4" d="M34.57,31.43a3.38,3.38,0,0,1,0,4.09"/><path class="cls-4" d="M29.21,35.52a3.35,3.35,0,0,1,0-4.07"/><circle class="cls-5" cx="31.8" cy="33.49" r="1"/><circle class="cls-6" cx="46.4" cy="24.84" r="1"/></g></svg>