<svg xmlns="http://www.w3.org/2000/svg" viewBox="0 0 64 64"><defs><style>.cls-1{fill:#389ad6;}.cls-2{fill:#a8d2f0;}.cls-3{fill:none;stroke:#2a5081;stroke-linecap:round;stroke-linejoin:round;stroke-width:2px;}.cls-4{fill:#2a5081;}</style></defs><title>shield, protection, security, safety</title><g id="Layer_4" data-name="Layer 4"><path class="cls-1" d="M26.22,31.86s4.47,2.83,9.06,1.64S38,35.38,36.5,36s-13,6.74-15.13,1S19.54,33.22,26.22,31.86Z"/><path class="cls-2" d="M37,25.71,37,26a22.51,22.51,0,0,1-.88,2.42,42,42,0,0,1-9.85,3.4A65.43,65.43,0,0,1,19.46,33a24.76,24.76,0,0,0,1,2.3,27,27,0,0,0,2.66,4.27s1.65-.15,4.08-.63a45.71,45.71,0,0,0,7-2,5.45,5.45,0,0,0,.3,1.12,27,27,0,0,1,1.16,2.51,5.78,5.78,0,0,1,.12.57c.25,1.78-.72,3.54-1.78,4.91a2.31,2.31,0,0,1-1.4,1,1.32,1.32,0,0,1-.78-.14l-.64.63c-.28.25-.57.51-.88.75A35.07,35.07,0,0,1,16.44,20.45V15.64a7.91,7.91,0,0,0,7.88,7.9h0a7.34,7.34,0,0,0,2.21-.33,7.89,7.89,0,0,0,4.59-3.6,8.84,8.84,0,0,1,1,1,3.07,3.07,0,0,1,.2-.5c.3.14.63.3,1,.49a10.15,10.15,0,0,1,2.83,2.19A3.21,3.21,0,0,1,37,25.71Z"/><path class="cls-1" d="M26.22,31.86A65.43,65.43,0,0,1,19.46,33a27.5,27.5,0,0,1-1.39-4.67,20.26,20.26,0,0,1-.49-7.55,8.36,8.36,0,0,0,3.32,2l.22.05A6.3,6.3,0,0,0,22,23h0a12.47,12.47,0,0,0,2.93.1,6,6,0,0,1,1.41,0l.25.05a1.58,1.58,0,0,1,.65.35l.15.16a2.45,2.45,0,0,1,.19,2.06c-.37,1.72-1,3.39-1.22,5.13C26.28,31.23,26.24,31.55,26.22,31.86Z"/><path class="cls-1" d="M35.31,36.42a8.25,8.25,0,0,0-1.15,1.33,7.91,7.91,0,0,1-2,1.79c-.79.47-1.94,1-2.16,2-.3,1.35,1,2.66,1.4,3.88a1.52,1.52,0,0,1,0,1.22c-.32.51-1.08.5-1.65.31a7.53,7.53,0,0,1-2.67-1.73,18.76,18.76,0,0,1-4.48-6.34,1.63,1.63,0,0,1-.1-1.51,1.68,1.68,0,0,1,1.29-.54A75.45,75.45,0,0,1,35.31,36.42Z"/><path class="cls-1" d="M30.4,46a.18.18,0,0,1,0,.15c-.08.08-.21,0-.31,0a20.84,20.84,0,0,1-2.43-1.86,30.24,30.24,0,0,1-2.78-2.65,25.39,25.39,0,0,1-1.69-2s1.65-.15,4.08-.63l.07.19A25.43,25.43,0,0,0,29,42.88C29.53,43.81,30.56,44.85,30.4,46Z"/><path class="cls-3" d="M31.74,16a7.43,7.43,0,0,1-7.4,7.41h0A7.42,7.42,0,0,1,16.93,16v4.49A32.88,32.88,0,0,0,31.74,48"/><path class="cls-3" d="M46.55,16.11A11.13,11.13,0,0,1,45,20.49c-1.37,2.42-4,5.44-9,8a42,42,0,0,1-9.85,3.4A65.43,65.43,0,0,1,19.46,33"/><path class="cls-3" d="M46.56,16a.28.28,0,0,1,0,.09A7.25,7.25,0,0,1,45,20.49a6.88,6.88,0,0,1-.66.77,7.41,7.41,0,0,1-5.22,2.17h0a7.18,7.18,0,0,1-3-.63A7.45,7.45,0,0,1,31.74,16"/><path class="cls-3" d="M46.48,26.54c0,.42-8.31,17.94-14.74,21.44"/><path class="cls-3" d="M23.14,39.57s1.65-.15,4.08-.63a45.71,45.71,0,0,0,7-2c4.55-1.71,9.26-4.49,11.48-9a9.08,9.08,0,0,1,.79-1.46h0"/><circle class="cls-4" cx="46.56" cy="23.84" r="1"/></g></svg>