<svg id="Layer_1" data-name="Layer 1" xmlns="http://www.w3.org/2000/svg" viewBox="0 0 64 64"><defs><style>.cls-1{fill:#fff;}.cls-2{fill:#e4ebf4;}.cls-3{fill:#a8d2f0;}.cls-4{fill:#389ad6;}.cls-5{fill:none;stroke:#2a5081;stroke-linecap:round;stroke-linejoin:round;stroke-width:2px;}.cls-6{fill:#2a5081;}.cls-7{fill:#7da9d6;}</style></defs><title>Shopping Cart</title><path class="cls-1" d="M44.64,42.8l2.31,1L50.09,41V35.36l-1.85-4.8-1.7-2.77a9.27,9.27,0,0,1-1.81-6.91c.56-4.17-.46-3.65-.46-3.65l-4.57-.68-10.22-.25v4.59l-2.1,3.32v3Z"/><path class="cls-2" d="M34.83,50.28a3,3,0,0,1-3,3,3,3,0,0,1-.86-.13,3.82,3.82,0,0,1,2.31-5.53A3,3,0,0,1,34.83,50.28Z"/><path class="cls-2" d="M46.54,51.49a3.7,3.7,0,0,1-.35,1.58,2.91,2.91,0,0,1-1.13.22,3,3,0,0,1-1.61-5.55A3.82,3.82,0,0,1,46.54,51.49Z"/><path class="cls-3" d="M45.81,40.14a18.1,18.1,0,0,1-.37,3.61,4.45,4.45,0,0,1-.6,0H27.71L26.17,36.3l-1.91-9.35H40A17.86,17.86,0,0,1,45.81,40.14Z"/><path class="cls-4" d="M32.71,40.14a18.11,18.11,0,0,1-.37,3.61,4.45,4.45,0,0,1-.6,0h-4L26.17,36.3l-1.91-9.35h2.65A17.87,17.87,0,0,1,32.71,40.14Z"/><line class="cls-5" x1="40.77" y1="31.22" x2="30.25" y2="31.22"/><line class="cls-5" x1="41.91" y1="35.27" x2="31.27" y2="35.27"/><line class="cls-5" x1="43.74" y1="39.32" x2="32.19" y2="39.32"/><rect class="cls-6" x="16.69" y="52.34" width="2.66" height="1.83" rx="0.91" ry="0.91"/><rect class="cls-6" x="13.91" y="52.34" width="1.83" height="1.83" rx="0.91" ry="0.91"/><path class="cls-3" d="M30.24,21h6.35a0,0,0,0,1,0,0v2.1a2,2,0,0,1-2,2H28.2a0,0,0,0,1,0,0V23A2,2,0,0,1,30.24,21Z"/><rect class="cls-3" x="30.48" y="12.35" width="7.48" height="6.36"/><path class="cls-3" d="M43,17v4.86a1.51,1.51,0,0,1-1.51,1.51H39.23V20.75H35.85V17Z"/><path class="cls-7" d="M35.85,19.17h3a.44.44,0,0,1,.44.44V21a0,0,0,0,1,0,0H35.85a0,0,0,0,1,0,0V19.17A0,0,0,0,1,35.85,19.17Z"/><path class="cls-7" d="M36.59,16.29s1.37-.2,1.37-.24v-1H34.89a1,1,0,0,0-1,1v2.67h1.95l.7-2.37"/><path class="cls-5" d="M34.83,50.28a3,3,0,0,1-3,3,3,3,0,0,1-.86-.13,3,3,0,1,1,3.87-2.89Z"/><path class="cls-5" d="M48.07,50.28a3,3,0,0,1-1.88,2.79,2.91,2.91,0,0,1-1.13.22,3,3,0,0,1-1.61-5.55,2.94,2.94,0,0,1,1.61-.47A3,3,0,0,1,48.07,50.28Z"/><polyline class="cls-5" points="41.15 26.94 40.02 26.94 24.27 26.94 24.27 26.94"/><path class="cls-5" d="M18.2,17a4.17,4.17,0,0,1,.75-.07,4,4,0,0,1,3.93,3.25"/><polyline class="cls-5" points="22.89 20.18 23.41 22.76 26.17 36.3 27.71 43.78"/><line class="cls-5" x1="50.09" y1="53.25" x2="20.9" y2="53.25"/><path class="cls-5" d="M24.33,43.78H44.84a4.45,4.45,0,0,0,.6,0,6.24,6.24,0,0,0,1.22-.21,4.19,4.19,0,0,0,2.72-2A6.67,6.67,0,0,0,49.91,38a21.54,21.54,0,0,0-1.12-5,41.29,41.29,0,0,0-1.68-4.24c-.2-.44-.41-.88-.62-1.31"/><polyline class="cls-5" points="35.59 20.75 30.43 20.75 28.29 20.75 28.29 24.2"/><polyline class="cls-5" points="44.64 22.75 44.64 16.29 41.4 16.29 35.59 16.29 35.59 17.8"/><polyline class="cls-5" points="39.23 24.2 39.23 23.36 39.23 20.75 35.84 20.75 35.59 20.75"/><polyline class="cls-5" points="30.43 17.85 30.43 11.83 40.26 11.83 40.26 13.33"/></svg>