<svg xmlns="http://www.w3.org/2000/svg" viewBox="0 0 64 64"><defs><style>.cls-1{fill:#a8d2f0;}.cls-2{fill:#3897d3;}.cls-3{fill:none;stroke:#295183;stroke-linecap:round;stroke-linejoin:round;stroke-width:2px;}.cls-4{fill:#295183;}</style></defs><title>smart, home, options, appliances</title><g id="Layer_4" data-name="Layer 4"><path class="cls-1" d="M28.81,13.35S32,14,30,19.3s-4.28,22.8,4.86,27.3-6.06,4.32-6.86,4-7.1-2.79-6-16.39c0,0-2.26-.11-.13-13.61C21.83,20.6,20.57,11.6,28.81,13.35Z"/><path class="cls-2" d="M22.28,20.6s-.18,21.67,9.41,26.5-6,3.64-6,3.64-5.89-6-4.1-22.8Z"/><path class="cls-3" d="M39.88,38.6C38.26,37.39,38,34.42,38,34.42l-4-.05-4.31,0-4.53-.06-4.06,0"/><path class="cls-3" d="M20.65,43.17A8.66,8.66,0,0,0,22,46.47a9,9,0,0,0,7.59,4.13h4.76a9,9,0,0,0,9-9.77l-2-24.54a3.19,3.19,0,0,0-3.18-2.94H25.69a3.19,3.19,0,0,0-3.18,2.94L21.39,30.6"/><path class="cls-3" d="M35,21.72a3.12,3.12,0,1,1-3.12-3.12"/><circle class="cls-4" cx="31.95" cy="30.15" r="1" transform="translate(-10.17 42.63) rotate(-59.84)"/><line class="cls-3" x1="37.08" y1="46.48" x2="21.95" y2="46.48"/><path class="cls-3" d="M28.15,46.47c-2.4,0-4.06-2.36-5.16-5a32.68,32.68,0,0,1-1.93-7.26l-.41,4.51"/><path class="cls-3" d="M20.65,43.17A8.57,8.57,0,0,0,23,41.47a8.8,8.8,0,0,0,2.18-6.83v0q0-.14,0-.21a.43.43,0,0,0,0,0s0-.06,0-.08"/><path class="cls-3" d="M25.12,34.25h0s0,0,0,.08a.43.43,0,0,1,0,0s0,.12,0,.21v0A26.26,26.26,0,0,0,27.4,42c1.24,2.41,3.1,4.45,5.84,4.45"/><path class="cls-3" d="M37.08,46.48c-6.34-1.81-7.44-12.17-7.44-12.17s.73,3.26-2.25,7.71"/><path class="cls-3" d="M37.68,42.27C34.38,39.93,34,34.36,34,34.36S34.5,39,32,41.8"/><path class="cls-1" d="M30.92,20.82a.17.17,0,0,1,0-.14.21.21,0,0,1,.05-.1,1.21,1.21,0,0,1,1.08-.2,1.66,1.66,0,0,1,1,.77,1.86,1.86,0,0,1,.19,1.48c-.08.26-.28.55-.55.53a.65.65,0,0,1-.49-.42c-.19-.38-.18-.87-.36-1.27S31.19,21.13,30.92,20.82Z"/></g></svg>