<svg xmlns="http://www.w3.org/2000/svg" viewBox="0 0 64 64"><defs><style>.cls-1{fill:#a8d2f0;}.cls-2{fill:#389ad6;}.cls-3{fill:none;stroke:#295183;stroke-linecap:round;stroke-linejoin:round;stroke-width:2px;}.cls-4{fill:#295183;}</style></defs><title>smart, home, settings, appliance</title><g id="Layer_4" data-name="Layer 4"><path class="cls-1" d="M18.92,34S13,43,18,47.27c0,0-5.1,1.4-5.49-1.27S9.8,33.42,18.92,34Z"/><path class="cls-2" d="M37.42,31.67c0,1,1.39,2.5-1.39,3s-6.86,11.12-4,13,3.33-.33,6.75,2.33S37,52.89,37.42,42.44,37.42,31.67,37.42,31.67Z"/><path class="cls-1" d="M42.75,13.33s-1.28,4.86,0,5.52c0,0,2.08,1.66.42,4.49,0,0-3.3,13.89,1.48,21.28S42,51,42,51s-4.65,2.15-4.63-7.49S36.64,16.58,38,14,42.75,13.33,42.75,13.33Z"/><path class="cls-3" d="M33.42,48H16.82a4.69,4.69,0,0,1-4.68-4.69V38.56a4.69,4.69,0,0,1,4.68-4.69h20.6"/><line class="cls-3" x1="32.13" y1="37.61" x2="32.13" y2="39.7"/><line class="cls-3" x1="27.04" y1="37.61" x2="27.04" y2="39.7"/><path class="cls-3" d="M28,44.29a1.55,1.55,0,1,1,3.09,0"/><path class="cls-3" d="M40.5,21.84v2h8.29v-5h-10a1.37,1.37,0,0,1-1.37-1.37V15.6a2.28,2.28,0,0,1,2.27-2.27h9.9a2.28,2.28,0,0,1,2.27,2.27V48.41a2.28,2.28,0,0,1-2.27,2.27h-9.9a2.28,2.28,0,0,1-2.27-2.27V25"/><circle class="cls-4" cx="37.42" cy="22" r="1"/></g></svg>