<svg xmlns="http://www.w3.org/2000/svg" viewBox="0 0 64 64"><defs><style>.cls-1{fill:#3897d3;}.cls-2{fill:#a8d2f0;}.cls-3{fill:none;stroke:#295183;stroke-linecap:round;stroke-linejoin:round;stroke-width:2px;}.cls-4{fill:#295183;}</style></defs><title>smart, home, house, appliance</title><g id="Layer_4" data-name="Layer 4"><path class="cls-1" d="M30.07,28.88c-.4-.2-.07-.88.31-.88.75,0,2.12,0,2.11,2.62,0,0,.29,1.25-.69,1.14-.5-.06-1.25-.48-.77-1.05a2.33,2.33,0,0,0,.26-.32.78.78,0,0,0,.06-.58A1.4,1.4,0,0,0,30.7,29C30.5,28.86,30.26,29,30.07,28.88Z"/><path class="cls-1" d="M25.21,29.59c-.28-.15,0-.63.22-.63.54,0,1.52,0,1.51,1.87,0,0,.21.9-.49.82-.36,0-.89-.35-.55-.75a1.67,1.67,0,0,0,.19-.23.56.56,0,0,0,0-.42,1,1,0,0,0-.46-.6C25.52,29.57,25.36,29.66,25.21,29.59Z"/><path class="cls-1" d="M36.44,30c-.55-.24-.09-1,.43-1,1,0,3,0,2.93,3,0,0,.41,1.45-1,1.33-.7-.06-1.73-.56-1.08-1.22a2.89,2.89,0,0,0,.36-.37.77.77,0,0,0,.08-.68,1.7,1.7,0,0,0-.89-1C37,30,36.72,30.1,36.44,30Z"/><path class="cls-1" d="M34.28,23.88c-.55-.24-.09-1,.43-1,1,0,3,0,2.93,3,0,0,.41,1.45-1,1.33C36,27.16,35,26.67,35.61,26a2.88,2.88,0,0,0,.36-.37.77.77,0,0,0,.08-.68,1.7,1.7,0,0,0-.89-1C34.88,23.86,34.55,24,34.28,23.88Z"/><path class="cls-1" d="M39.18,24.91c-.66-.29-.11-1.23.52-1.23,1.26,0,3.57,0,3.54,3.67,0,0,.49,1.76-1.16,1.6-.84-.08-2.1-.68-1.3-1.47a3.5,3.5,0,0,0,.44-.44.94.94,0,0,0,.1-.82A2.05,2.05,0,0,0,40.25,25C39.91,24.88,39.51,25,39.18,24.91Z"/><path class="cls-2" d="M21.17,24.23s8.11-.9,6.14,2.77-3.56,1.12-3.2,4.76-.46,5.42,8.39,4.83S39,41.41,34,41.35s-21.28-2.29-19.11-9.15.95-5.12,6.27-7.57"/><path class="cls-1" d="M15.09,33.89s0-1.18,8.51,2,6.58,4.91,3.92,5S15.6,36.37,15.09,33.89Z"/><path class="cls-3" d="M49.3,30.76A3.46,3.46,0,0,1,49.45,32c0,5.2-7.81,9.41-17.45,9.41S14.55,37.2,14.55,32,22.36,22.59,32,22.59c6.63,0,12.39,2,15.35,4.92"/><path class="cls-3" d="M19.65,34.54A34.33,34.33,0,0,0,32,36.59c8.77,0,16-2.59,17.26-6"/><path class="cls-3" d="M31.1,22.6h1.8"/><path class="cls-3" d="M24.46,35.9c0-3.84-.75-6.21-1.71-7.66"/><path class="cls-3" d="M41.84,24.23c1.1.66,2.3,2,2.94,4.73"/><path class="cls-3" d="M18.56,29.86a11.87,11.87,0,0,1,1.09,4.68"/><path class="cls-3" d="M27.3,27a19,19,0,0,1,1.81,5.15,31.69,31.69,0,0,1,.61,4.38"/><polyline class="cls-3" points="24.41 23.52 24.42 23.52 24.43 23.52"/><path class="cls-3" d="M36.16,22.86h0a13.12,13.12,0,0,1,3.11,5.25,28.34,28.34,0,0,1,1.35,7.32,1.79,1.79,0,0,0,0,.23"/><path class="cls-3" d="M30.24,22.64a16.64,16.64,0,0,1,2.55,4,26.28,26.28,0,0,1,1.91,5.8,38,38,0,0,1,.67,4"/><path class="cls-3" d="M42.43,29.86c-3.74-2.57-10.21-5-19.67-1.61"/><path class="cls-3" d="M40.73,35.65S39,30.59,24.24,32.59"/><circle class="cls-4" cx="17.08" cy="33" r="1"/></g></svg>