<svg xmlns="http://www.w3.org/2000/svg" viewBox="0 0 64 64"><defs><style>.cls-1{fill:#a5cfed;}.cls-2{fill:#389ad6;}.cls-3,.cls-5{fill:none;stroke-linecap:round;stroke-linejoin:round;stroke-width:2px;}.cls-3{stroke:#2a5080;}.cls-4{fill:#2a5080;}.cls-5{stroke:#2a5081;}.cls-6{fill:#2a5081;}</style></defs><title>smartphone, phone, mobile, application</title><g id="Layer_4" data-name="Layer 4"><path class="cls-1" d="M25.32,16.34s8.18.22,6.78,3.66-8.48-2.62-8.48,4.69S23.56,41.06,27,43.31s3-1.37,4.64,2.69-7.13,2-7.13,2-3.55-.56-3.18-8.69S19.39,18.68,25.32,16.34Z"/><path class="cls-2" d="M27,39.22c0,2.26-.9,3-1.72,3.18,0,.62-.39,1.1-.84,1.1s-.84-.52-.84-1.15V22.85a1.22,1.22,0,0,1,1.22-1.22h0a1.21,1.21,0,0,1,1.15.79C27.11,25.5,27.06,36,27,39.22Z"/><path class="cls-3" d="M32.59,16.34h5a5.22,5.22,0,0,1,5.21,5.21V43.37a5.23,5.23,0,0,1-5.21,5.21H26.53a5.22,5.22,0,0,1-5.21-5.21V22.66a8.19,8.19,0,0,1,.6-3.18,4.62,4.62,0,0,1,4.4-3.13"/><polyline class="cls-3" points="39.74 24.48 39.74 43.11 34.64 43.11"/><line class="cls-3" x1="29.5" y1="43.11" x2="24.51" y2="43.11"/><path class="cls-3" d="M29.5,43.11a2.57,2.57,0,1,0,5.14,0"/><circle class="cls-4" cx="39.74" cy="21.14" r="0.92"/><circle class="cls-4" cx="29.5" cy="16.34" r="0.92"/><line class="cls-5" x1="30.07" y1="26.5" x2="36.1" y2="26.5"/><circle class="cls-6" cx="27.1" cy="26.5" r="1"/><line class="cls-5" x1="33.13" y1="34.79" x2="27.1" y2="34.79"/><circle class="cls-6" cx="36.1" cy="34.79" r="1"/><line class="cls-5" x1="34.07" y1="30.75" x2="36.1" y2="30.75"/><circle class="cls-6" cx="31.64" cy="30.75" r="1"/><line class="cls-5" x1="27.01" y1="30.75" x2="29.04" y2="30.75"/></g></svg>