<svg xmlns="http://www.w3.org/2000/svg" viewBox="0 0 64 64"><defs><style>.cls-1{fill:#9ac8f1;}.cls-2{fill:#a8d2f0;}.cls-3{fill:#3897d3;}.cls-4,.cls-6,.cls-8{fill:none;stroke-linecap:round;stroke-linejoin:round;stroke-width:2px;}.cls-4{stroke:#295183;}.cls-5{fill:#295183;}.cls-6{stroke:#2a5080;}.cls-7{fill:#2a5080;}.cls-8{stroke:#2a5081;}</style></defs><title>smartphone, phone, mobile, personal</title><g id="Layer_4" data-name="Layer 4"><path class="cls-1" d="M44.44,23.4a.91.91,0,0,0,1.17.92.63.63,0,0,1,.51,1.13,2.13,2.13,0,0,1-2.53-.05,2.34,2.34,0,0,1-1.18-2.52C42.91,20.31,44.52,22.1,44.44,23.4Z"/><path class="cls-2" d="M41.29,15.56s3.73.3,1.74,3.92-3.48,2.89-1.74,7l2.32.41S46,30,44,31.3s-2.24,10.85,2.4,13.55,1.29,4.2-1.72,3.87-9.05,1.75-8.39-7.5A137.89,137.89,0,0,0,36,22C36,21.85,35,15.13,41.29,15.56Z"/><path class="cls-3" d="M43.11,38.39A3.35,3.35,0,0,0,41,42.82c1.16,3.35,7,.88,5.08-1.64l-1.84.64S42.12,41.59,43.11,38.39Z"/><path class="cls-4" d="M48.68,23.3a4,4,0,1,1-4-4"/><circle class="cls-5" cx="47.96" cy="20.13" r="1"/><path class="cls-4" d="M43.32,23.31A1.36,1.36,0,0,1,44.68,22"/><path class="cls-4" d="M46.51,40.23a1.84,1.84,0,1,1-1.84-1.84"/><path class="cls-4" d="M53.11,28.39V18.78a3.23,3.23,0,0,0-3.22-3.22H39.75a3.23,3.23,0,0,0-3.22,3.22v11.1A1.51,1.51,0,0,0,38,31.39H51.57a1.54,1.54,0,0,1,1.54,1.54V45.5a3.23,3.23,0,0,1-3.22,3.22H39.75a3.23,3.23,0,0,1-3.22-3.22V35.39"/><path class="cls-1" d="M26.66,25.78a59.22,59.22,0,0,1,.08,9.76,10,10,0,0,1-.56,3.86,6.23,6.23,0,0,1-4.35,3.26,17.65,17.65,0,0,1-5.61.13A3.4,3.4,0,0,1,14,42a3.36,3.36,0,0,1-.67-2.19A101.21,101.21,0,0,1,13.63,24c.4-4,5.42-3.76,8.49-3.59a4.94,4.94,0,0,1,2.47.62A4.74,4.74,0,0,1,26.31,24,17.93,17.93,0,0,1,26.66,25.78Z"/><path class="cls-3" d="M16.57,39c0,2.26-.9,3-1.72,3.18,0,.62-.39,1.1-.84,1.1s-.84-.52-.84-1.15V22.66a1.22,1.22,0,0,1,1.22-1.22h0a1.21,1.21,0,0,1,1.15.79C16.67,25.31,16.62,35.8,16.57,39Z"/><path class="cls-6" d="M22.15,16.15h5a5.22,5.22,0,0,1,5.21,5.21V43.18a5.23,5.23,0,0,1-5.21,5.21H16.1a5.22,5.22,0,0,1-5.21-5.21V22.47a8.19,8.19,0,0,1,.6-3.18,4.62,4.62,0,0,1,4.4-3.13"/><polyline class="cls-6" points="29.3 24.29 29.3 42.92 24.21 42.92"/><line class="cls-6" x1="19.06" y1="42.92" x2="14.07" y2="42.92"/><path class="cls-6" d="M19.06,42.92a2.57,2.57,0,1,0,5.14,0"/><circle class="cls-7" cx="29.3" cy="20.96" r="0.92"/><circle class="cls-7" cx="19.06" cy="16.15" r="0.92"/><line class="cls-8" x1="18.68" y1="31.3" x2="16.59" y2="36.34"/><path class="cls-8" d="M21.43,29.74h.76a1.63,1.63,0,0,1,1.63,1.63v4.19a1.15,1.15,0,0,1-1.15,1.15H19.83a1.15,1.15,0,0,1-1.15-1.15V31.3"/><path class="cls-8" d="M21.33,26.44a1.65,1.65,0,0,0,0,3.3"/><line class="cls-8" x1="23.66" y1="30.7" x2="25.82" y2="36.34"/><line class="cls-8" x1="18.68" y1="31.3" x2="16.59" y2="36.34"/><path class="cls-8" d="M18.68,31.3v4.26a1.15,1.15,0,0,0,1.15,1.15h2.83a1.15,1.15,0,0,0,1.15-1.15V31.37a1.63,1.63,0,0,0-1.63-1.63h-.76"/><path class="cls-8" d="M21.33,26.44a1.65,1.65,0,0,0,0,3.3"/><line class="cls-8" x1="23.66" y1="30.7" x2="25.82" y2="36.34"/></g></svg>