<svg id="Layer_1" data-name="Layer 1" xmlns="http://www.w3.org/2000/svg" viewBox="0 0 64 64"><defs><style>.cls-1{fill:#9ac8f1;}.cls-2{fill:none;stroke:#295183;stroke-linecap:round;stroke-linejoin:round;stroke-width:2px;}</style></defs><title>Solar panel</title><path class="cls-1" d="M23.4,23.5s3.46-.23,3.56,1.58-9.61-2.08-8.8,6S16.25,50.33,29.4,50s1.87,4.58-5.24,3l-8.36.32L14.15,46V25.08S14.64,22.5,23.4,23.5Z"/><path class="cls-2" d="M35.4,30.15V50.37a3.09,3.09,0,0,1-3.08,3.08H17.48a3.09,3.09,0,0,1-3.08-3.08V26.15a3.09,3.09,0,0,1,3.08-3.08h9.83"/><polyline class="cls-2" points="19.87 23.07 19.87 28.07 19.87 33.23 19.87 38.26 19.87 43.29 19.87 48.57 19.87 53.45"/><polyline class="cls-2" points="24.9 26.07 24.9 28.07 24.9 33.23 24.9 38.26 24.9 43.29 24.9 48.57 24.9 53.45"/><polyline class="cls-2" points="29.93 43.61 29.93 45.45 29.93 45.57 29.93 43.29 29.93 38.26 29.93 33.23 29.93 28.07 29.93 26.07"/><polyline class="cls-2" points="14.4 43.29 19.87 43.29 24.9 43.29 29.93 43.29 32.4 43.29"/><polyline class="cls-2" points="14.4 38.26 19.87 38.26 24.9 38.26 29.93 38.26 31.4 38.26"/><polyline class="cls-2" points="14.4 33.23 19.87 33.23 24.9 33.23 29.93 33.23 32.4 33.23"/><polyline class="cls-2" points="30.4 28.07 29.93 28.07 24.9 28.07 19.87 28.07 14.4 28.07"/><polyline class="cls-2" points="14.4 48.57 19.87 48.57 24.9 48.57 27.93 48.57 29.4 48.57"/><line class="cls-2" x1="35.4" y1="14.02" x2="35.4" y2="11.7"/><line class="cls-2" x1="29.33" y1="15.64" x2="28.17" y2="13.63"/><line class="cls-2" x1="24.89" y1="20.08" x2="22.88" y2="18.92"/><line class="cls-2" x1="35.4" y1="38.28" x2="35.4" y2="40.6"/><line class="cls-2" x1="41.46" y1="36.65" x2="42.62" y2="38.66"/><line class="cls-2" x1="45.9" y1="32.21" x2="47.91" y2="33.37"/><line class="cls-2" x1="47.53" y1="26.15" x2="49.85" y2="26.15"/><line class="cls-2" x1="45.9" y1="20.08" x2="47.91" y2="18.92"/><line class="cls-2" x1="41.46" y1="15.64" x2="42.62" y2="13.63"/><path class="cls-2" d="M27.8,23.07a8.2,8.2,0,1,1,7.6,11.27"/></svg>