<svg id="Layer_1" data-name="Layer 1" xmlns="http://www.w3.org/2000/svg" viewBox="0 0 64 64"><defs><style>.cls-1{fill:#9ac8f1;}.cls-2{fill:#3897d3;}.cls-3{fill:none;stroke:#295183;stroke-linecap:round;stroke-linejoin:round;stroke-width:2px;}</style></defs><title>Solar Battery</title><path class="cls-1" d="M23.62,12.54l.17.1a1.92,1.92,0,0,1,.69,2.65,3.12,3.12,0,0,0-1,2,33.49,33.49,0,0,0,.19,4.79q.1,1.59.19,3.18a10.86,10.86,0,0,1,.1,2.89,1.58,1.58,0,0,1-1.08,1.23,2.71,2.71,0,0,1-1.28-.16,1.83,1.83,0,0,0-2.38,1.94q-.1,7.89.13,15.78a1.14,1.14,0,0,0,.13.61,1.12,1.12,0,0,0,.41.32c2.32,1.29,5,2.29,7.58,1.95a6.29,6.29,0,0,1,2.43-.12c.79.21,1.47,1.11,1.08,1.84H16.61c-1.56-4.17-1.47-8.75-1.36-13.19l.35-13.81.09-3.45a24.76,24.76,0,0,1,.09-3.46c.27-1.57,3.11-2.17,4.47-2.08l.22,0L20.8,12A6,6,0,0,1,23.62,12.54Z"/><path class="cls-2" d="M25.53,30.22s2.46.92.47,3.13c0,0,1.65,2.26.15,3.26a5.17,5.17,0,0,1,1.09,4s1.17,2.94-.56,3.17.56,1.44.56,1.44,1.57,2.78-.66,2.61-7.21,1-7.26-.88a18.36,18.36,0,0,0-.8-4.18s-.39-3.15.42-3.71-1.33-3.39.24-6.11l-.24-2.72Z"/><path class="cls-3" d="M24.19,15.56h6.2a3.13,3.13,0,0,1,3.13,3.12v30.2A3.13,3.13,0,0,1,30.38,52H18.86a3.13,3.13,0,0,1-3.12-3.12V18.68a3.13,3.13,0,0,1,3.12-3.12h1.61V14.38A2.38,2.38,0,0,1,22.84,12h3.52"/><path class="cls-3" d="M30.27,46.48h0a1.86,1.86,0,0,1-1.86,1.86H20.79a1.86,1.86,0,0,1-1.86-1.86h0a1.86,1.86,0,0,1,1.86-1.86h7.62"/><path class="cls-3" d="M20.79,40.91h7.62a1.86,1.86,0,0,1,1.86,1.86h0a1.86,1.86,0,0,1-1.86,1.86H20.79a1.86,1.86,0,0,1-1.86-1.86h0"/><path class="cls-3" d="M28.41,40.91H20.79a1.86,1.86,0,0,1-1.86-1.86h0a1.86,1.86,0,0,1,1.86-1.86h7.62"/><line class="cls-3" x1="18.93" y1="35.35" x2="18.93" y2="35.35"/><path class="cls-3" d="M20.79,33.49h7.62a1.86,1.86,0,0,1,1.86,1.86h0a1.86,1.86,0,0,1-1.86,1.86H20.79"/><path class="cls-3" d="M28.41,33.49H20.79a1.86,1.86,0,0,1-1.86-1.86h0a1.86,1.86,0,0,1,1.86-1.86h7.62"/><path class="cls-3" d="M43.5,32.53a7.39,7.39,0,0,1-10,6.91V25.63a7.39,7.39,0,0,1,10,6.91Z"/><line class="cls-3" x1="36.12" y1="21.95" x2="36.12" y2="19.86"/><line class="cls-3" x1="36.12" y1="43.12" x2="36.12" y2="45.21"/><line class="cls-3" x1="41.41" y1="41.7" x2="42.46" y2="43.51"/><line class="cls-3" x1="45.29" y1="37.83" x2="47.1" y2="38.87"/><line class="cls-3" x1="46.7" y1="32.54" x2="48.79" y2="32.54"/><line class="cls-3" x1="45.29" y1="27.24" x2="47.1" y2="26.2"/><line class="cls-3" x1="41.41" y1="23.37" x2="42.46" y2="21.56"/></svg>