<svg id="Layer_1" data-name="Layer 1" xmlns="http://www.w3.org/2000/svg" viewBox="0 0 64 64"><defs><style>.cls-1{fill:#9ac8f1;}.cls-2{fill:#3897d3;}.cls-3{fill:none;stroke:#2a5081;stroke-linecap:round;stroke-linejoin:round;stroke-width:2px;}.cls-4{fill:#2a5081;}</style></defs><title>Star</title><path class="cls-1" d="M38.83,31.86c2,1-.69,4.24-1,5.5a6.77,6.77,0,0,0,.71,5c1,1.69,2.87,2.58,4.16,4a2.86,2.86,0,0,1,.74,1.08c.39,1.55-1.7.26-2.08-.15l-.16-.18L34.38,50l-1.19-3.3L32,39.84l-2.94-2.27,5.88-1.24c1.11-1.53,2.23-3,3.32-4.58a.12.12,0,0,1,.17,0Z"/><path class="cls-1" d="M22.29,27.15l0,.06a.83.83,0,0,1,0,.51c-.19,1.07-1.21,2-1.08,3a2.83,2.83,0,0,0,1.14,1.67,33.91,33.91,0,0,0,8.07,4.87,5.86,5.86,0,0,1,2.73,1.95,3.53,3.53,0,0,1,.34,2.64,7.75,7.75,0,0,1-3.44,4.28,22.64,22.64,0,0,1-6.81,3.2,8.77,8.77,0,0,1-2.86.4.53.53,0,0,1-.36-.12A.56.56,0,0,1,20,49.2l.54-5.94c.21-2.29.39-4.7-.59-6.77-1.26-2.64-4.11-4.09-6.07-6.25a.35.35,0,0,1-.1-.17c0-.11.07-.21.15-.29a7.42,7.42,0,0,1,3.25-2.18,20.58,20.58,0,0,1,4-.73C21.58,26.82,22.08,26.83,22.29,27.15Z"/><path class="cls-2" d="M38.26,31.05c-.19-.37-.65-.47-1.25-.49a2,2,0,0,0-1.86,1.62c-.24.83-.92,3.13-1.8,3.37C31.52,36,29.45,36,27.8,37c-1.32.83-1,2.35-.27,3.47A5.64,5.64,0,0,0,29.08,42c.61.4,1.55.44,1.33,1.4-.16.72-.93,1.09-.91,1.89,0,1.05,1.49,1.43,2.32,1.36s1.31-.89,1.34-1.77a6,6,0,0,0-.41-2.74l-3.22-4.13,1-1.06,6.38-1.38c.13-.67,1.42-3.32,1.47-4A1.08,1.08,0,0,0,38.26,31.05Z"/><path class="cls-3" d="M29.53,46l-6.44,3.39A2.27,2.27,0,0,1,19.79,47l1.38-8a2.3,2.3,0,0,0-.65-2l-5.85-5.69a2.27,2.27,0,0,1,1.26-3.88L24,26.19a2.29,2.29,0,0,0,1.71-1.24l3.62-7.32a2.26,2.26,0,0,1,4.07,0L37,24.94a2.29,2.29,0,0,0,1.71,1.24l8.08,1.17a2.27,2.27,0,0,1,1.26,3.88l-4.66,4.51"/><path class="cls-3" d="M37.37,48.18l1.77-.93a1.36,1.36,0,0,1,1.24,0l2.31,1.22"/><path class="cls-3" d="M43.41,35.75l-1.54-3.16L41,30.78a1.34,1.34,0,0,0-2.41,0l-2.12,4.31a1.35,1.35,0,0,1-1,.73l-4.76.7a1.33,1.33,0,0,0-.74,2.28l3.44,3.36a1.33,1.33,0,0,1,.38,1.18L33.3,46l-.35,2a1.34,1.34,0,0,0,1.94,1.42l2.49-1.31"/><path class="cls-3" d="M49.9,37.3a1.33,1.33,0,0,1-.29,1.5l-3.45,3.36a1.35,1.35,0,0,0-.38,1.18l.82,4.74a1.35,1.35,0,0,1-1.95,1.42l-1.95-1"/><circle class="cls-4" cx="47" cy="36.19" r="1"/></svg>