<svg id="Layer_1" data-name="Layer 1" xmlns="http://www.w3.org/2000/svg" viewBox="0 0 64 64"><defs><style>.cls-1{fill:#9dcbf4;}.cls-2{fill:#fff;}.cls-3{fill:#389ad6;}.cls-4,.cls-6{fill:none;stroke-linecap:round;stroke-linejoin:round;stroke-width:2px;}.cls-4{stroke:#2a5082;}.cls-5{fill:#2a5082;}.cls-6{stroke:#295183;}.cls-7{fill:#a8d2f0;}</style></defs><title>Store delivery</title><rect class="cls-1" x="19.76" y="11.25" width="21.93" height="5.42" rx="2.71" ry="2.71"/><path class="cls-2" d="M22.55,17.22H47.11a5.65,5.65,0,0,1,5.65,5.65v.8a3.26,3.26,0,0,1-3.26,3.26H20.15a3.26,3.26,0,0,1-3.26-3.26v-.8a5.65,5.65,0,0,1,5.65-5.65Z"/><path class="cls-2" d="M29.25,31.41v9a3.74,3.74,0,0,1-3.73,3.73H25a3.73,3.73,0,0,1-3.69-3.2V33.47a2.35,2.35,0,0,1,2.35-2.34h5.52A1.67,1.67,0,0,1,29.25,31.41Z"/><path class="cls-1" d="M39.42,17.74l.1.06a.83.83,0,0,1,.23.36c.76,1.86,1.22,3.95-1.53,4a14.56,14.56,0,0,1-3.77-.47,1.94,1.94,0,0,0-1.66,0,3.11,3.11,0,0,0-.62,1,2.54,2.54,0,0,1-2.3,1.13,3.94,3.94,0,0,1-2.4-1.09c-.67-.61-1.41-1.47-2.29-1.24s-1.12,1.42-1.67,2.19C22.68,24.8,21,25,19.62,24.73c-3.53-.65-2.86-5.11-.24-6.62a5.31,5.31,0,0,1,2.68-.47l16.91,0A1.1,1.1,0,0,1,39.42,17.74Z"/><path class="cls-1" d="M45.23,27a7.83,7.83,0,0,1-.12,4,3.36,3.36,0,0,1-2.46,1.7,18.32,18.32,0,0,1-7.62.17,4.69,4.69,0,0,1-2.28-1c-1.21-1.12-1.18-3-1.06-4.65a.61.61,0,0,1,.13-.41.59.59,0,0,1,.31-.12c1-.19,2.28-.44,2.64-1.43.08.61.73.94,1.31,1.13a10.72,10.72,0,0,0,5.37.26,3.57,3.57,0,0,0,2.22-1.19c.21.54,1,.61,1.34,1.08A1.28,1.28,0,0,1,45.23,27Z"/><path class="cls-3" d="M44.82,26.16a6.8,6.8,0,0,1-6.38,4.5h0a6.78,6.78,0,0,1-6-3.58,4.45,4.45,0,0,0,2.28-3.89,4.46,4.46,0,0,0,8.89.57,4.84,4.84,0,0,0,0-.57,4.4,4.4,0,0,0,.06.71s0,0,0,0A4.37,4.37,0,0,0,44.82,26.16Z"/><path class="cls-4" d="M25.83,23.19a4.46,4.46,0,0,1-8.93,0"/><path class="cls-4" d="M34.75,23.19a4.45,4.45,0,0,1-2.28,3.89,4.17,4.17,0,0,1-.77.34,4.46,4.46,0,0,1-5.88-4.23"/><path class="cls-4" d="M34.75,23.19a4.46,4.46,0,0,0,8.89.57,4.85,4.85,0,0,0,0-.57"/><path class="cls-4" d="M52.61,23.19A4.47,4.47,0,0,1,45,26.33h0l-.15-.16a4.37,4.37,0,0,1-1.07-2.23s0,0,0,0a4.4,4.4,0,0,1-.06-.71"/><path class="cls-4" d="M21.36,12.34l.12-.14a2.79,2.79,0,0,1,2.09-.95H45.94A2.79,2.79,0,0,1,48.72,14v.4a2.79,2.79,0,0,1-2.78,2.78H26.53c-1.13,0-2.26,0-3.39-.07a6.07,6.07,0,0,0-4.74,1.92,5.31,5.31,0,0,0-1.51,4.12"/><circle class="cls-5" cx="51.76" cy="20.05" r="1"/><path class="cls-3" d="M28.46,37.94c-.17,3,.12,7.63,3,10.48a1.08,1.08,0,0,1-.79,1.85l-7-.3a1.08,1.08,0,0,1-.92-.6l-1.51-3.06a1.08,1.08,0,0,1-.1-.59l1-9.24a1.08,1.08,0,0,1,1-1l2.58-.22A2.5,2.5,0,0,1,28.46,37.94Z"/><path class="cls-6" d="M44.41,52.79a2,2,0,1,1-3.92,0"/><path class="cls-6" d="M29.44,52.79a2,2,0,1,1-3.92,0"/><path class="cls-7" d="M41.71,39.49a24.21,24.21,0,0,0,2.75,8.66,1.46,1.46,0,0,1-1.27,2.19h-3c-1.3,0-2.35-2.06-2.34-3.35l.05-9.71h1.25A2.55,2.55,0,0,1,41.71,39.49Z"/><path class="cls-6" d="M41.23,37.28l2.82,0a2.1,2.1,0,0,1,2,1.57L48.45,48a2.36,2.36,0,0,1-2.35,2.35H25.79a4.19,4.19,0,0,1-4.18-4.18V38.91a4.19,4.19,0,0,1,4.18-4.18h8a4.19,4.19,0,0,1,4.18,4.18v8.77"/><polyline class="cls-6" points="41.23 40.27 41.23 43.97 44.14 43.97"/><line class="cls-4" x1="48.76" y1="27.61" x2="48.76" y2="34.73"/><polyline class="cls-4" points="21.2 27.66 21.2 32.44 14.76 32.44"/><line class="cls-4" x1="18.76" y1="41.17" x2="14.76" y2="41.17"/><line class="cls-4" x1="18.76" y1="52.04" x2="11.24" y2="52.04"/></svg>