<svg id="Layer_1" data-name="Layer 1" xmlns="http://www.w3.org/2000/svg" viewBox="0 0 64 64"><defs><style>.cls-1{fill:#fff;}.cls-2{fill:#9dcbf4;}.cls-3{fill:#389ad6;}.cls-4{fill:none;stroke:#2a5082;stroke-linecap:round;stroke-linejoin:round;stroke-width:2px;}.cls-5{fill:#2a5082;}</style></defs><title>Store</title><path class="cls-1" d="M19.79,21.06H44.35A5.65,5.65,0,0,1,50,26.71v.8a3.26,3.26,0,0,1-3.26,3.26H17.4a3.26,3.26,0,0,1-3.26-3.26v-.8a5.65,5.65,0,0,1,5.65-5.65Z"/><path class="cls-1" d="M26.5,35.24v9a3.74,3.74,0,0,1-3.73,3.73h-.47a3.73,3.73,0,0,1-3.69-3.2V37.31A2.35,2.35,0,0,1,21,35h5.52A1.67,1.67,0,0,1,26.5,35.24Z"/><path class="cls-2" d="M42.45,31.75v9.62a6.67,6.67,0,0,1-6.76,6.52h0a6.67,6.67,0,0,1-6.76-6.52V31.75a4.54,4.54,0,0,1,0-.64A4.32,4.32,0,0,0,32,27a4.48,4.48,0,0,0,8.89.55l.1.13s0,0,0,0A4.18,4.18,0,0,0,42.21,30h0A6.1,6.1,0,0,1,42.45,31.75Z"/><path class="cls-3" d="M42.06,30a6.8,6.8,0,0,1-6.38,4.5h0a6.78,6.78,0,0,1-6-3.58A4.45,4.45,0,0,0,32,27a4.46,4.46,0,0,0,8.89.57,4.84,4.84,0,0,0,0-.57,4.4,4.4,0,0,0,.06.71s0,0,0,0A4.37,4.37,0,0,0,42.06,30Z"/><path class="cls-2" d="M22,35V39.7a3.74,3.74,0,0,1-3.39,3.71v-6.1A2.35,2.35,0,0,1,21,35Z"/><path class="cls-4" d="M45.39,31.49V45a6,6,0,0,1-5.95,5.95H24.56A6,6,0,0,1,18.61,45V37.31A2.35,2.35,0,0,1,21,35h5.71A2.35,2.35,0,0,1,29,37.31v9.13"/><path class="cls-4" d="M23.07,27a4.46,4.46,0,1,1-8.93,0"/><path class="cls-4" d="M32,27a4.45,4.45,0,0,1-2.28,3.89,4.17,4.17,0,0,1-.77.34A4.46,4.46,0,0,1,23.07,27"/><path class="cls-4" d="M32,27a4.46,4.46,0,0,0,8.89.57,4.85,4.85,0,0,0,0-.57"/><path class="cls-4" d="M49.86,27a4.47,4.47,0,0,1-7.64,3.14h0L42.06,30A4.37,4.37,0,0,1,41,27.76s0,0,0,0a4.4,4.4,0,0,1-.06-.71"/><path class="cls-4" d="M18.61,16.17l.12-.14a2.79,2.79,0,0,1,2.09-.95H43.18A2.79,2.79,0,0,1,46,17.87v.4a2.79,2.79,0,0,1-2.78,2.78H23.78c-1.13,0-2.26,0-3.39-.07a6.07,6.07,0,0,0-4.74,1.92A5.31,5.31,0,0,0,14.14,27"/><circle class="cls-5" cx="17" cy="18.36" r="1"/><circle class="cls-5" cx="49" cy="23.88" r="1"/></svg>