<svg id="Layer_1" data-name="Layer 1" xmlns="http://www.w3.org/2000/svg" viewBox="0 0 64 64"><defs><style>.cls-1{fill:#fff;}.cls-2{fill:#295183;}.cls-3{fill:#a8d2f0;}.cls-4{fill:#389ad6;}.cls-5{fill:none;stroke:#295183;stroke-linecap:round;stroke-linejoin:round;stroke-width:2px;}</style></defs><title>Storage sorting</title><path class="cls-1" d="M22.42,35v7l-4.67,3.13L16.3,47s-2.3.17-2.3-.33V37.74S19,34.75,22.42,35Z"/><path class="cls-1" d="M39.78,46.17V24.24a8.86,8.86,0,0,0-8.83-8.83h0a8.86,8.86,0,0,0-8.83,8.83V42.66l5.72,3.88H39.78v-.37"/><rect class="cls-1" x="43.17" y="15.14" width="5.94" height="27.92" rx="2.39" ry="2.39"/><circle class="cls-2" cx="37.47" cy="17.95" r="0.88"/><circle class="cls-2" cx="49.12" cy="17.95" r="0.88"/><path class="cls-3" d="M45.58,15.14S44.74,30.89,49.11,42l-5.43,1L42.51,27.38l.4-12.24Z"/><path class="cls-4" d="M32.64,41v5.18h-7a4.13,4.13,0,1,0-8.26,0H14.9a12.66,12.66,0,0,1,7.44-10.39A4.87,4.87,0,0,0,27,39.15H30.8A1.84,1.84,0,0,1,32.64,41Z"/><path class="cls-5" d="M25.62,25.11v7.4a3.13,3.13,0,0,0,3.13,3.13H34.3a1.85,1.85,0,0,1,1.85,1.85v5.17"/><path class="cls-5" d="M25.62,46.17h7V41a1.84,1.84,0,0,0-1.84-1.84H27a4.84,4.84,0,0,1-4.85-4.85V23.9"/><path class="cls-5" d="M38.66,19.85a8.69,8.69,0,0,1,1,4.06V46.17h9.46"/><path class="cls-5" d="M22.11,23.91a8.8,8.8,0,0,1,8.77-8.77h0a8.7,8.7,0,0,1,4.71,1.38"/><polyline class="cls-5" points="49.12 20.67 49.12 42.66 43.17 42.66 43.17 15.41 49.12 15.41"/><line class="cls-5" x1="25.62" y1="29.03" x2="32.64" y2="29.03"/><path class="cls-5" d="M23.87,48.49a2.38,2.38,0,0,1-4.75,0"/><path class="cls-5" d="M38.53,48.49a2.38,2.38,0,0,1-4.75,0"/><path class="cls-5" d="M14.07,39.23a4.61,4.61,0,0,1,4.53-3.8"/><path class="cls-5" d="M25.62,46.17a4.13,4.13,0,0,0-8.26,0H14V42.33"/></svg>