<svg xmlns="http://www.w3.org/2000/svg" viewBox="0 0 64 64"><defs><style>.cls-1{fill:#a8d2f0;}.cls-2{fill:#389ad6;}.cls-3{fill:none;stroke:#295183;stroke-linecap:round;stroke-linejoin:round;stroke-width:2px;}.cls-4{fill:#295183;}</style></defs><title>stove, dial, smart home, appliance</title><g id="Layer_4" data-name="Layer 4"><path class="cls-1" d="M21.06,27.85s5,.08,4.48,5-3.32,3.53-1.36,7.64a6.51,6.51,0,0,1-.31,6.87s-10.79-4.74-7.4-13.41C16.47,33.92,18.78,28,21.06,27.85Z"/><path class="cls-2" d="M18.72,29.84s2.36-.15,2,1.65-3.63,7,.77,11.37-1.86,3-2.42,1.57S13.5,39.13,18.72,29.84Z"/><path class="cls-3" d="M37.2,34.05A10.79,10.79,0,1,0,37.6,37"/><path class="cls-3" d="M18.91,37.93a8,8,0,0,0,15.8.12"/><path class="cls-3" d="M26.82,32.82a4.14,4.14,0,1,0,3,1.33"/><line class="cls-3" x1="34.71" y1="38.05" x2="37.6" y2="36.96"/><circle class="cls-4" cx="26.81" cy="29.18" r="0.66"/><path class="cls-3" d="M16.36,16.26H42.61a5.48,5.48,0,0,1,5.48,5.48l.09,26"/><polyline class="cls-3" points="26.71 23.15 26.71 19.29 28.55 21.14"/><polyline class="cls-3" points="40.81 36.96 44.66 36.96 42.82 38.81"/></g></svg>