<svg xmlns="http://www.w3.org/2000/svg" viewBox="0 0 64 64"><defs><style>.cls-1{fill:#a8d2f0;}.cls-2{fill:#389ad6;}.cls-3{fill:none;stroke:#295183;stroke-linecap:round;stroke-linejoin:round;stroke-width:2px;}.cls-4{fill:#295183;}</style></defs><title>stove, kitchen, appliance, device</title><g id="Layer_4" data-name="Layer 4"><path class="cls-1" d="M46.68,42.53a6.53,6.53,0,0,1-2.37-1.07,2.55,2.55,0,0,1-1.56.55,2.87,2.87,0,0,1-2.7-3,3.42,3.42,0,0,1,.09-.79c-1.57-1.39-3.18-3-4.66-4.53a3.88,3.88,0,1,1-4.72-5.92c-.13-.22-.24-.43-.33-.62-2-4.21-1.11-9.78-1.11-9.78C10.2,12.19,14.23,33.11,15,40.39s17.47,5.47,26,5.47S50.07,42.94,46.68,42.53Zm-25-2a1.94,1.94,0,1,1,2-1.94A2,2,0,0,1,21.66,40.57ZM21.54,27.5a3.11,3.11,0,1,1,3.11-3.11A3.11,3.11,0,0,1,21.54,27.5Z"/><path class="cls-2" d="M28.66,27.59S25,29.3,25.71,33s5.63,3.25,7.45,2.65-2.73-.57-2.73-.57S27,31.82,28.66,27.59Z"/><path class="cls-2" d="M40.05,36s-3,2.11-1.73,5.25,5.51,2,7,1.14-2.51-.06-2.51-.06S39.25,40,40.05,36Z"/><path class="cls-2" d="M18.56,20.85s-3.5,1.62-2.79,5.11,5.33,3.07,7,2.5-2.59-.54-2.59-.54S17,24.85,18.56,20.85Z"/><path class="cls-2" d="M19.55,35.66S16.58,37,17.18,40s4.52,2.61,6,2.12S21,41.66,21,41.66,18.2,39.05,19.55,35.66Z"/><path class="cls-3" d="M43.66,45.86H21.14a6.25,6.25,0,0,1-6.23-6.23V23.09a6.25,6.25,0,0,1,6.23-6.23H43.66a6.25,6.25,0,0,1,6.23,6.23V39.63a6.2,6.2,0,0,1-1.46,4"/><circle class="cls-4" cx="32.68" cy="31.11" r="1"/><circle class="cls-3" cx="21.64" cy="24.07" r="3.52"/><circle class="cls-4" cx="21.64" cy="24.07" r="1"/><circle class="cls-3" cx="43.16" cy="38.66" r="3.52"/><circle class="cls-4" cx="43.16" cy="38.66" r="1"/><circle class="cls-4" cx="46.68" cy="45.36" r="1"/><circle class="cls-3" cx="32.68" cy="31.11" r="4.55"/><circle class="cls-3" cx="21.64" cy="38.66" r="2.79"/><circle class="cls-4" cx="21.64" cy="38.66" r="1"/><circle class="cls-3" cx="43.16" cy="24.07" r="2.79"/><circle class="cls-4" cx="43.16" cy="24.07" r="1"/><line class="cls-3" x1="44.22" y1="45.86" x2="44.22" y2="47.45"/><line class="cls-3" x1="39.49" y1="45.86" x2="39.49" y2="47.45"/><line class="cls-3" x1="34.76" y1="45.86" x2="34.76" y2="47.45"/><line class="cls-3" x1="30.04" y1="45.86" x2="30.04" y2="47.45"/><line class="cls-3" x1="25.31" y1="45.86" x2="25.31" y2="47.45"/><line class="cls-3" x1="20.58" y1="45.86" x2="20.58" y2="47.45"/></g></svg>