<svg id="Layer_1" data-name="Layer 1" xmlns="http://www.w3.org/2000/svg" viewBox="0 0 64 64"><defs><style>.cls-1{fill:#a8d2f0;}.cls-2{fill:#3897d3;}.cls-3,.cls-5{fill:none;}.cls-3{stroke:#295183;stroke-linecap:round;stroke-linejoin:round;stroke-width:2px;}.cls-4{fill:#295183;}</style></defs><title>Strategy</title><path class="cls-1" d="M35.29,52.78c-1.42-.09-2.91-.22-4.69-.22a35,35,0,0,1-9.46-.83c-.37-.11-.74-.23-1.1-.37a2,2,0,0,1-1.39-1.85,2.37,2.37,0,0,1,1.5-2,2.12,2.12,0,0,0,1.1-1.93l0-.89.1-.1-.15-1v0l-.68-4.62a2.15,2.15,0,0,1,0-.67c.24-1.32,1.15-6.32,1.76-10.8a1.64,1.64,0,0,0,0-.22l.25-7.8h0l0-.83,0-.6,0-1.33a2.09,2.09,0,0,1,2.26-2c2.18.18,5.47.77,7.34,2.63,1.63,1.61,2.2,4.18,0,8.28a2.1,2.1,0,0,1-.13.26,18.81,18.81,0,0,0-2.17,8.76,19,19,0,0,0,6.85,14.57A2.08,2.08,0,0,1,35.29,52.78Z"/><path class="cls-1" d="M22.55,18.57l0,.83a2.71,2.71,0,0,0-.21-.37,2.75,2.75,0,0,0-.19-.28l.19-.08Z"/><path class="cls-2" d="M26.93,33.44a46.66,46.66,0,0,0,.19,11.49,14.88,14.88,0,0,0,1.48,3.61,1.64,1.64,0,0,1-.4,2A5.75,5.75,0,0,1,25,51.73H21.14c-.41-.12-.82-.25-1.21-.41a2,2,0,0,1-1.28-1.86,2.39,2.39,0,0,1,1.5-2,2.12,2.12,0,0,0,1.1-1.93l0-.89.1-.1s-.15-1-.15-1l-.68-4.62a2.15,2.15,0,0,1,0-.67c.24-1.32,1.15-6.34,1.76-10.83l0-.19s.25-7.8.25-7.81l0-.83a1.07,1.07,0,0,1,.07-.46c-.15.31,5.34.48,5.71.55a2.22,2.22,0,0,1,1.11.53c.85.85.56,2.39.42,3.44a8.39,8.39,0,0,1-.56,2.55c-.43.93-.92,1.83-1.26,2.8A23.6,23.6,0,0,0,26.93,33.44Z"/><path class="cls-3" d="M22.31,20.27V13a1.82,1.82,0,0,1,1.81-1.81h0A1.82,1.82,0,0,1,25.94,13v1.65A2.05,2.05,0,0,0,28,16.74h0a2.05,2.05,0,0,0,2.05-2.05V13.14a1.89,1.89,0,0,1,1.66-1.92,1.82,1.82,0,0,1,2,1.81v1.65a2.05,2.05,0,0,0,2.05,2.05h0a2.05,2.05,0,0,0,2.05-2.05V13a1.82,1.82,0,0,1,1.81-1.81h0A1.82,1.82,0,0,1,41.43,13v9.24A3.34,3.34,0,0,1,38.1,25.6H25.64"/><path class="cls-3" d="M31.87,47.7h-7a4.44,4.44,0,0,1-4.41-5L22.1,29a3.71,3.71,0,0,1,4.05-3.37"/><line class="cls-3" x1="41.83" y1="30.56" x2="43.49" y2="44.5"/><path class="cls-3" d="M18.31,49.75V50a2,2,0,0,0,2,2H43.66a2,2,0,0,0,2-2v-.29a2,2,0,0,0-2-2H31.87"/><circle class="cls-4" cx="22.31" cy="23.06" r="1"/><circle class="cls-4" cx="41.43" cy="27.91" r="1"/><path class="cls-5" d="M21.16,43.52v0l.05,1.12.1,2.32c-4.21,1.41-2.17,4-2.17,4"/></svg>