<svg xmlns="http://www.w3.org/2000/svg" viewBox="0 0 64 64"><defs><style>.cls-1{fill:#389ad6;}.cls-2{fill:none;stroke:#295183;stroke-linecap:round;stroke-linejoin:round;stroke-width:2px;}.cls-3{fill:#a8d2f0;}.cls-4{fill:#295183;}</style></defs><title>surveillance, security, camera, safety</title><g id="Layer_4" data-name="Layer 4"><path class="cls-1" d="M37.1,26.08s2.3-6.65-3.95-4.92-2.88,10.22-2.88,10.22l5.59,1.36a5.5,5.5,0,0,1,.92,5.39c-1.07,3.32-4.72,3.63-4.72,3.63s-2.54,1.31-.41,3.31,6.45-2.27,6.19-5.94,0-12.45,0-12.45Z"/><path class="cls-2" d="M37.18,36.16a5.62,5.62,0,0,1-.08.92,5.12,5.12,0,0,1-10.07,0,5.62,5.62,0,0,1-.08-.92,5.12,5.12,0,0,1,10.23,0Z"/><path class="cls-3" d="M34.84,15s7,.47,4.69,6.08H30.4s-4.14,1.34-3.45,9.5.76,12.71.76,12.71,3.08,2.43,5.73,2.27,4.58-1,5.74,1.83-8.36,2.55-8.36,2.55-9-.34-11.13-7.6-1.42-16-1.42-16,.63-4.6-3.09-5.66-2.4-5.79,1.53-5.71S34.84,15,34.84,15Z"/><path class="cls-2" d="M37.18,36.16v4.47a5.12,5.12,0,1,1-10.23,0V36.16a5.62,5.62,0,0,0,.08.92,5.12,5.12,0,0,0,10.07,0A5.62,5.62,0,0,0,37.18,36.16Z"/><path class="cls-2" d="M37.18,26.69v9.47a5.12,5.12,0,0,0-10.23,0V26.69"/><path class="cls-1" d="M19.65,15.08a3.89,3.89,0,0,1,0,5.33c-2.47,2.67,1.53.46,1.53.46s-1.36,18,2.55,21,9.81,4.91,3.45,8c0,0-8.46-4.54-8.91-12.87s1-14.76-2.21-15.92a4,4,0,0,1-2.71-4.41Z"/><path class="cls-2" d="M18.23,25.16v11c0,.31,0,.62,0,.92a13.83,13.83,0,0,0,27.6,0c0-.3,0-.61,0-.92v-15m-8.72,5.53V40.63a5.12,5.12,0,1,1-10.23,0V26.69"/><path class="cls-2" d="M18.27,37.08h0v-.92C18.23,36.47,18.24,36.78,18.27,37.08Z"/><path class="cls-2" d="M27,37.08h-.08v-.92A5.62,5.62,0,0,0,27,37.08Z"/><path class="cls-2" d="M26.95,36.16V26.37a5.36,5.36,0,0,1,5.37-5.21"/><path class="cls-2" d="M37.18,36.16v.92H37.1A5.62,5.62,0,0,0,37.18,36.16Z"/><path class="cls-3" d="M35,36.53s0,0,0,.06A2.81,2.81,0,0,1,31.2,39c-.52-.2-1.94-.72-1.44-1.47.9-1.37,2.78.66,3.82-.45.31-.33.57-.75,1-.9a.36.36,0,0,1,.21,0C35,36.17,35,36.36,35,36.53Z"/><path class="cls-2" d="M45.9,36.16v.92h0C45.89,36.78,45.9,36.47,45.9,36.16Z"/><path class="cls-2" d="M51,18.12h0a3,3,0,0,1-3,3H16.06a3,3,0,0,1-3-3h0a3,3,0,0,1,3-3H47"/><circle class="cls-4" cx="49.73" cy="15" r="1"/><path class="cls-2" d="M32.65,33.87a2.94,2.94,0,0,0-2.94,2.94"/></g></svg>