<svg id="Layer_1" data-name="Layer 1" xmlns="http://www.w3.org/2000/svg" viewBox="0 0 64 64"><defs><style>.cls-1{fill:#a8d2f0;}.cls-2{fill:#295183;}.cls-3{fill:none;stroke:#295183;stroke-linecap:round;stroke-linejoin:round;stroke-width:2px;}</style></defs><title>Tag settings</title><path class="cls-1" d="M14.47,24l.08-.14a2.61,2.61,0,0,1,2.12-1,10.14,10.14,0,0,1,3.93.44,1.75,1.75,0,0,1,.68.34,1.38,1.38,0,0,1,.3,1.31,8.32,8.32,0,0,1-.51,1.31,6.62,6.62,0,0,0,.15,4.92,12.41,12.41,0,0,0,2.92,4.08,22.46,22.46,0,0,0,9.4,5.47,28,28,0,0,0,6.15.91c1.26.08,2.82.36,2,2A4.77,4.77,0,0,1,40,45.1a21.09,21.09,0,0,0-6.24,6.75l-16-15.09a8.78,8.78,0,0,1-1.69-1.94,8.79,8.79,0,0,1-.87-3.2l-.81-5.86A3.26,3.26,0,0,1,14.47,24Z"/><circle class="cls-2" cx="19.65" cy="28.17" r="1"/><path class="cls-3" d="M18.65,22.91l2.9.77,2.83.76a6.15,6.15,0,0,1,2.41,1.27l.06,0a3.28,3.28,0,0,1,.34.31L36,34.91l.83.83L42,40.86a1.57,1.57,0,0,1,0,2.23l-7.66,7.66a1.58,1.58,0,0,1-2.22,0L17.3,36a6.39,6.39,0,0,1-1.62-2.82l-.76-2.83-1.19-4.46a2.69,2.69,0,0,1,.71-2.65l2.8,2.68"/><line class="cls-3" x1="27.19" y1="31.14" x2="36.61" y2="40.56"/><line class="cls-3" x1="24.79" y1="33.55" x2="34.21" y2="42.97"/><line class="cls-3" x1="22.38" y1="35.96" x2="31.8" y2="45.38"/><path class="cls-1" d="M40.32,31.54a2.6,2.6,0,0,1-.66.65,3.39,3.39,0,0,1-1.74.69c-.93,0-1.58-.83-2.08-1.49-1.66-2.16-3.63-4-5.48-6a3.83,3.83,0,0,1-1.13-1.79,3.44,3.44,0,0,1,.56-2.21,4.8,4.8,0,0,1,1.84-2.08,2,2,0,0,1,2.55.43,3.23,3.23,0,0,1,.42,1.34c.59,3.51,2.1,7.17,5.21,8.9a1.68,1.68,0,0,1,.62.47A1,1,0,0,1,40.32,31.54Z"/><path class="cls-3" d="M28.85,23.76l-.06,0a8.54,8.54,0,0,1,1.15-2.92A8,8,0,0,1,31.41,19a3.21,3.21,0,0,1,.48-.42,7.81,7.81,0,0,1,1.82-1.1,1.65,1.65,0,0,1,.36-.16A6.69,6.69,0,0,1,35.3,17a6.85,6.85,0,0,1,1.45-.21,7.85,7.85,0,0,1,1.46,0h0a8.21,8.21,0,0,1,3.16,1l.37.22a8.71,8.71,0,0,1,2.19,2l.11.13a8.54,8.54,0,0,1,1.52,3.27,7.57,7.57,0,0,1,.21,1.44,7.18,7.18,0,0,1,0,1.47h0a4.65,4.65,0,0,1-.15.92,3.11,3.11,0,0,1-.11.41,8.54,8.54,0,0,1-1,2.21,9.69,9.69,0,0,1-.66.92A8.16,8.16,0,0,1,42.53,32a8.29,8.29,0,0,1-3.39,1.63l-.28.06"/><circle class="cls-3" cx="37.21" cy="25.32" r="3.44" transform="translate(-1.34 2.09) rotate(-3.17)"/><rect class="cls-2" x="34.73" y="12.21" width="3.79" height="4.87" rx="1.01" ry="1.01" transform="translate(-0.75 2.04) rotate(-3.17)"/><path class="cls-2" d="M31.77,19l-.12.15-1.19,1.33a1,1,0,0,1-.53.31,1,1,0,0,1-.89-.24l-2.13-1.9a1,1,0,0,1-.07-1.42l.32-.34.86-1a1,1,0,0,1,1.43-.08l2.12,1.9a1,1,0,0,1,.32.88A.93.93,0,0,1,31.77,19Z"/><path class="cls-2" d="M47.58,33.43l-.56.63-.61.68a1,1,0,0,1-1.42.07l-2.13-1.9a1,1,0,0,1-.33-.87.92.92,0,0,1,.24-.56l1-1.14.15-.17a1,1,0,0,1,.53-.31,1,1,0,0,1,.89.23L47.51,32A1,1,0,0,1,47.58,33.43Z"/><rect class="cls-2" x="46" y="22.3" width="3.79" height="4.87" rx="1.01" ry="1.01" transform="translate(69.94 -24.45) rotate(86.83)"/><rect class="cls-2" x="42.45" y="14.92" width="3.79" height="4.87" rx="1.01" ry="1.01" transform="translate(22.88 -25.15) rotate(41.83)"/></svg>