<svg id="Layer_1" data-name="Layer 1" xmlns="http://www.w3.org/2000/svg" viewBox="0 0 64 64"><defs><style>.cls-1{fill:#9dcbf4;}.cls-2{fill:none;stroke:#2a5081;stroke-linecap:round;stroke-linejoin:round;stroke-width:2px;}</style></defs><title>Target person</title><path class="cls-1" d="M32.5,10.31a1.38,1.38,0,0,1,1.11.27,1.93,1.93,0,0,1,.32,1.66,22.86,22.86,0,0,0,.34,7.86,13.6,13.6,0,0,0,3.8,6.81c.24.23.69.74.34,1.07a.75.75,0,0,1-.3.15l-2.27.71a4,4,0,0,1-2.74.18c-1.34-.6-1.73-2.54-3.12-3a3.5,3.5,0,0,0-.19-4.35,23.21,23.21,0,0,0-2.44-1.81c-2.56-2.15.43-6.1,2.15-7.81a5.59,5.59,0,0,1,2.85-1.7Z"/><path class="cls-1" d="M23.4,39.35s4.24-1.5,4.17,10c0,0-.24,5.5-3.24,5.42Z"/><path class="cls-1" d="M28.15,21.35c-.61,0,.11,3.26.14,3.56a12.87,12.87,0,0,1-.13,2.75c-.25,2.34,0,4.71-.42,7-.34,1.67-1.22,3.6-3.24,3.4-4.4-.43.4-12.76,1-12.56s0-4.17,0-4.17Z"/><line class="cls-2" x1="22.9" y1="29.39" x2="19.11" y2="38.55"/><path class="cls-2" d="M27.9,26.55h1.38a3,3,0,0,1,3,3v7.61a2.09,2.09,0,0,1-2.09,2.09H25a2.09,2.09,0,0,1-2.09-2.09V29.39"/><path class="cls-2" d="M27.73,20.55a3,3,0,0,0,0,6"/><line class="cls-2" x1="31.97" y1="28.29" x2="35.89" y2="38.55"/><line class="cls-2" x1="23.9" y1="54.16" x2="22.9" y2="37.19"/><line class="cls-2" x1="32.23" y1="37.13" x2="31.27" y2="53.55"/><path class="cls-2" d="M27.52,44.23v9.5a.43.43,0,0,0,.43.43h2.86a.43.43,0,0,0,.43-.43"/><path class="cls-2" d="M26.31,16.69A9.39,9.39,0,1,1,36.57,28"/><polygon class="cls-2" points="35.5 13.4 37.2 16.84 40.98 17.39 38.24 20.06 38.89 23.84 35.5 22.05 32.11 23.84 32.76 20.06 30.02 17.39 33.8 16.84 35.5 13.4"/></svg>