<svg id="Layer_1" data-name="Layer 1" xmlns="http://www.w3.org/2000/svg" viewBox="0 0 64 64"><defs><style>.cls-1{fill:#a8d2f0;}.cls-2{fill:none;stroke:#2a5081;stroke-linecap:round;stroke-linejoin:round;stroke-width:2px;}.cls-3{fill:#9dcbf4;}</style></defs><title>Team member communication</title><path class="cls-1" d="M41.38,19v1.31a4.52,4.52,0,0,1-.06.74A5,5,0,0,1,39,24.6a3.79,3.79,0,0,1-.78.39,1.36,1.36,0,0,1-.28.11l-.39.12a4.91,4.91,0,0,1-1.22.15H31.63l.21-1.2a2.31,2.31,0,0,0-1.7-2.77l-.09,0a2.31,2.31,0,0,0-2.78,1.7l.36-1.15s0,.09,0,.13l-.34,1.42a1.33,1.33,0,0,1-2.12.74,5,5,0,0,1-1.84-3.89V17.69a1.23,1.23,0,0,1,0-.27.22.22,0,0,1,0-.08.53.53,0,0,1,0-.13,4.92,4.92,0,0,1,.61-2,5.07,5.07,0,0,1,4.4-2.6H35A6.39,6.39,0,0,1,41.38,19Z"/><path class="cls-2" d="M34.81,24.94l.76.78,2,2V25S38,25,38.62,25a7.26,7.26,0,0,0,3-.8,4.65,4.65,0,0,0,1.88-2.71,4.75,4.75,0,0,0,.14-1.14V15.22a4.62,4.62,0,0,0-3.42-4.49,4,4,0,0,0-1.1-.14H30.55"/><path class="cls-2" d="M23.55,20.3V15.22a4.63,4.63,0,0,1,3-4.36"/><line class="cls-2" x1="27.67" y1="16.05" x2="39.52" y2="16.05"/><line class="cls-2" x1="33.59" y1="20.3" x2="39.52" y2="20.3"/><path class="cls-3" d="M24.64,40s4.24-1.5,4.17,10c0,0-.24,5.5-3.24,5.42Z"/><path class="cls-3" d="M29.39,22c-.61,0,.11,3.26.14,3.56a12.87,12.87,0,0,1-.13,2.75c-.25,2.34,0,4.71-.42,7-.34,1.67-1.22,3.6-3.24,3.4-4.4-.43.4-12.76,1-12.56s0-4.17,0-4.17Z"/><line class="cls-2" x1="24.14" y1="30.02" x2="20.35" y2="39.19"/><path class="cls-2" d="M29.14,27.19h1.38a3,3,0,0,1,3,3v7.61a2.09,2.09,0,0,1-2.09,2.09H26.24a2.09,2.09,0,0,1-2.09-2.09V30"/><path class="cls-2" d="M29,21.19a3,3,0,0,0,0,6"/><line class="cls-2" x1="33.21" y1="28.92" x2="37.13" y2="39.19"/><line class="cls-2" x1="25.14" y1="54.79" x2="24.14" y2="37.83"/><line class="cls-2" x1="33.48" y1="37.76" x2="32.51" y2="54.19"/><path class="cls-2" d="M28.76,44.86v9.5a.43.43,0,0,0,.43.43h2.86a.43.43,0,0,0,.43-.43"/></svg>