<svg id="Layer_1" data-name="Layer 1" xmlns="http://www.w3.org/2000/svg" viewBox="0 0 64 64"><defs><style>.cls-1{fill:#9dcbf4;}.cls-2{fill:none;stroke:#2a5081;stroke-linecap:round;stroke-linejoin:round;stroke-width:2px;}</style></defs><title>Team</title><path class="cls-1" d="M19.71,32.89s4.24-1.5,4.17,10c0,0-.24,5.5-3.24,5.42Z"/><path class="cls-1" d="M24.45,14.89c-.61,0,.11,3.26.14,3.56a12.87,12.87,0,0,1-.13,2.75c-.25,2.34,0,4.71-.42,7-.34,1.67-1.22,3.6-3.24,3.4-4.4-.43.4-12.76,1-12.56s0-4.17,0-4.17Z"/><line class="cls-2" x1="19.21" y1="22.92" x2="15.42" y2="32.08"/><path class="cls-2" d="M21.3,32.75a2.09,2.09,0,0,1-2.09-2.09V22.92"/><line class="cls-2" x1="24.21" y1="20.08" x2="25.58" y2="20.08"/><path class="cls-2" d="M24,14.08a3,3,0,1,0,0,6"/><line class="cls-2" x1="20.21" y1="47.69" x2="19.21" y2="30.72"/><line class="cls-2" x1="28.54" y1="30.66" x2="27.58" y2="47.08"/><path class="cls-2" d="M23.83,40.26v7a.43.43,0,0,0,.43.43h2.86a.43.43,0,0,0,.43-.43"/><path class="cls-1" d="M36.1,32.89s4.24-1.5,4.17,10c0,0-.24,5.5-3.24,5.42Z"/><path class="cls-1" d="M40.84,14.89c-.61,0,.11,3.26.14,3.56a12.87,12.87,0,0,1-.13,2.75c-.25,2.34,0,4.71-.42,7-.34,1.67-1.22,3.6-3.24,3.4-4.4-.43.4-12.76,1-12.56s0-4.17,0-4.17Z"/><path class="cls-2" d="M40.6,20.08H42a3,3,0,0,1,3,3v7.61a2.09,2.09,0,0,1-2.09,2.09"/><path class="cls-2" d="M40.43,14.08a3,3,0,0,0,0,6"/><line class="cls-2" x1="44.66" y1="21.82" x2="48.58" y2="32.08"/><line class="cls-2" x1="44.93" y1="30.66" x2="43.97" y2="47.08"/><path class="cls-2" d="M40.26,39.81l0,7.45a.43.43,0,0,0,.43.43H43.5a.43.43,0,0,0,.43-.43"/><path class="cls-1" d="M27.71,36.5s4.24-1.5,4.17,10c0,0-.24,5.5-3.24,5.42Z"/><path class="cls-1" d="M32.45,18.5c-.61,0,.11,3.26.14,3.56a12.87,12.87,0,0,1-.13,2.75c-.25,2.34,0,4.71-.42,7-.34,1.67-1.22,3.6-3.24,3.4-4.4-.43.4-12.76,1-12.56s0-4.17,0-4.17Z"/><line class="cls-2" x1="27.21" y1="26.53" x2="23.42" y2="35.7"/><path class="cls-2" d="M32.21,23.7h1.38a3,3,0,0,1,3,3v7.61a2.09,2.09,0,0,1-2.09,2.09H29.3a2.09,2.09,0,0,1-2.09-2.09V26.53"/><path class="cls-2" d="M32,17.7a3,3,0,1,0,0,6"/><line class="cls-2" x1="36.27" y1="25.43" x2="40.19" y2="35.7"/><line class="cls-2" x1="28.21" y1="51.3" x2="27.21" y2="34.34"/><line class="cls-2" x1="36.54" y1="34.27" x2="35.58" y2="50.7"/><path class="cls-2" d="M31.83,41.37v9.5a.43.43,0,0,0,.43.43h2.86a.43.43,0,0,0,.43-.43"/></svg>