<svg id="Layer_1" data-name="Layer 1" xmlns="http://www.w3.org/2000/svg" viewBox="0 0 64 64"><defs><style>.cls-1{fill:#389ad6;}.cls-2{fill:#a8d2f0;}.cls-3{fill:none;stroke:#295183;stroke-linecap:round;stroke-linejoin:round;stroke-width:2px;}</style></defs><title>Teamwork</title><path class="cls-1" d="M34.13,24.89c-1.12-.65-1.72-3-1.8-4.12a3.48,3.48,0,0,1,2.48-3.52c3.53-1,4.71-.59,4.71-.59l-.25,2.94-.19,2.24c-.07.76.19,1.7-.65,2.08A14.06,14.06,0,0,1,35.5,25a2.12,2.12,0,0,1-1.19,0Z"/><path class="cls-1" d="M21,33.09c-1.67-1-1.79,3-1.79,3-3.11,2.48-3.79-8.77-3.33-9.22a8.69,8.69,0,0,0,.68-.82h4.2l1.13,1.16.14.36-.64.44A1.46,1.46,0,1,0,23,30.4l.11-.07.15.38-3.1.17L20,32.08C19.73,32.31,21.29,33.29,21,33.09Z"/><path class="cls-2" d="M40.37,16.6A2.38,2.38,0,0,1,41,15.27a1.07,1.07,0,0,1,1.41-.16,1.38,1.38,0,0,1,.32.56A12.83,12.83,0,0,1,43.08,21a11.37,11.37,0,0,0,.48,5.29c.7,1.65,2.45,3,4.2,2.63.49-.1,1.1-.28,1.39.13a1,1,0,0,1,.14.49c.11,1.54-.64,3-.56,4.58.06,1.14,0,2.47-1.56,2a7.53,7.53,0,0,1-3.24-2.23,40.91,40.91,0,0,1-4.38-5.54Q38,26,36.56,23.57A3.12,3.12,0,0,1,36,20.94a.66.66,0,0,1,.28-.35.75.75,0,0,1,.73.15c.83.58,1.39,1.51,2.28,2,.27.15.65.22.84,0a.74.74,0,0,0,.1-.44l.06-3.88A11.73,11.73,0,0,1,40.37,16.6Z"/><path class="cls-2" d="M37.18,39.38a.82.82,0,0,1,.6,0,2,2,0,0,1,.92,1,3.44,3.44,0,0,1,.29,1.8,9.5,9.5,0,0,1-1,3.3,5.89,5.89,0,0,1-2.35,2.94,6.24,6.24,0,0,1-2.28.5l-5.6.51c-.73.07-1.63.05-2-.58a2,2,0,0,1-.15-1.12l.23-3.92,2.62,2.25c.42-1.06.27-2.32.9-3.27a4.65,4.65,0,0,1,1.18-1.11,5.44,5.44,0,0,1,1.75-1,8,8,0,0,1,1.37-.17,8.36,8.36,0,0,0,2.93-.82C36.82,39.58,37,39.45,37.18,39.38Z"/><path class="cls-2" d="M20.27,50.71c.73-1-.29-2.63-.5-3.65a25.78,25.78,0,0,1-.65-7.24c.15-1.82,1.2-3.48,1.68-5.24a10.11,10.11,0,0,0,.59-2.5c0-1.84-5.55-4.3-5.78-1.84C15.35,33,14.76,41,14.76,41v6.37a4,4,0,0,0,.88,2.27,3.84,3.84,0,0,0,1.91,1.28,5.55,5.55,0,0,0,1.56.22A1.33,1.33,0,0,0,20.27,50.71Z"/><path class="cls-2" d="M18.87,16a2.12,2.12,0,0,1,1.12.84,1.72,1.72,0,0,1,.35,1.59c-.18.46-.65.76-.82,1.23a4.28,4.28,0,0,0,0,1.59,6.41,6.41,0,0,1-.4,1.83,2.39,2.39,0,0,0,.07,1.83c.17.3.47.63.3.93a.75.75,0,0,1-.57.29l-1.45.22a2.65,2.65,0,0,1-1.15,0,2.64,2.64,0,0,1-1.13-.89,5.38,5.38,0,0,1-1.66-3.33,5.48,5.48,0,0,1,.84-2.51,12.56,12.56,0,0,1,1.39-2.19C16.6,16.51,17.79,15.74,18.87,16Z"/><path class="cls-3" d="M39.81,24.36V16.77a2.45,2.45,0,0,1,2.44-2.44h2.89a5.31,5.31,0,0,1,5.29,5.29V27.2"/><path class="cls-3" d="M39.81,24.36l-2-2.86a1.47,1.47,0,1,0-2.43,1.66l1.85,2.7h0l.86,1.24.57.84c.72,1,2.1,2.87,2.1,4.14"/><path class="cls-3" d="M49.25,36.19V31.53a7.59,7.59,0,0,0,1.19-4.33"/><path class="cls-3" d="M27,15.4H19.46a5.31,5.31,0,0,0-5.3,5.29v2.89A2.46,2.46,0,0,0,16.51,26h7.68"/><path class="cls-3" d="M24.19,26,22,27.54l-.64.44A1.46,1.46,0,1,0,23,30.4l.11-.07,4.68-3.21c1.05-.71,2.87-2.09,4.13-2.09"/><path class="cls-3" d="M27,15.4a7.44,7.44,0,0,1,4.33,1.19H36"/><path class="cls-3" d="M24.79,41.64v7.58a2.45,2.45,0,0,1-2.44,2.44H19.46a5.31,5.31,0,0,1-5.29-5.29V38.8"/><path class="cls-3" d="M24.79,41.64l2,2.86a1.47,1.47,0,1,0,2.43-1.66l-1.85-2.7h0l-.86-1.24-.57-.84c-.72-1-2.1-2.87-2.1-4.14"/><path class="cls-3" d="M14.16,38.8a7.54,7.54,0,0,1,1.19-4.33V30.66"/><path class="cls-3" d="M40.41,40H48a2.45,2.45,0,0,1,2.44,2.44v2.89a5.31,5.31,0,0,1-5.29,5.29H37.57"/><path class="cls-3" d="M32.68,41c1.27,0,3.09-1.38,4.13-2.09L41.6,35.6A1.47,1.47,0,1,1,43.26,38l-2.85,2"/><path class="cls-3" d="M37.57,50.6a7.44,7.44,0,0,1-4.33-1.19h-4.6"/></svg>