<svg id="Layer_1" data-name="Layer 1" xmlns="http://www.w3.org/2000/svg" viewBox="0 0 64 64"><defs><style>.cls-1{fill:#9dcbf4;}.cls-2{fill:none;stroke:#2a5081;stroke-linecap:round;stroke-linejoin:round;stroke-width:2px;}</style></defs><title>Team communication</title><path class="cls-1" d="M42.43,17.42c-.45,0,.08,2.4.1,2.62a9.47,9.47,0,0,1-.09,2c-.19,1.72,0,3.47-.31,5.17-.25,1.23-.9,2.65-2.38,2.5-3.24-.32.29-9.39.75-9.24s0-3.07,0-3.07Z"/><path class="cls-1" d="M21.53,17.42c-.45,0,.08,2.4.1,2.62a9.47,9.47,0,0,1-.09,2c-.19,1.72,0,3.47-.31,5.17-.25,1.23-.9,2.65-2.38,2.5-3.24-.32.29-9.39.75-9.24s0-3.07,0-3.07Z"/><path class="cls-1" d="M32.45,35.69c-.45,0,.08,2.4.1,2.62a9.47,9.47,0,0,1-.09,2c-.19,1.72,0,3.47-.31,5.17-.25,1.23-.9,2.65-2.38,2.5-3.24-.32.29-9.39.75-9.24s0-3.07,0-3.07Z"/><line class="cls-2" x1="38.99" y1="23.42" x2="36.2" y2="30.17"/><path class="cls-2" d="M42.68,21.33h1a2.18,2.18,0,0,1,2.18,2.18v5.61a1.54,1.54,0,0,1-1.54,1.54H40.54A1.54,1.54,0,0,1,39,29.12V23.42"/><path class="cls-2" d="M42.56,16.9a2.21,2.21,0,0,0,0,4.42"/><line class="cls-2" x1="45.68" y1="22.61" x2="48.57" y2="30.17"/><line class="cls-2" x1="18.23" y1="23.42" x2="15.43" y2="30.17"/><path class="cls-2" d="M21.91,21.33h1a2.18,2.18,0,0,1,2.18,2.18v5.61a1.54,1.54,0,0,1-1.54,1.54H19.77a1.54,1.54,0,0,1-1.54-1.54V23.42"/><path class="cls-2" d="M21.79,16.9a2.21,2.21,0,0,0,0,4.42"/><line class="cls-2" x1="24.91" y1="22.61" x2="27.8" y2="30.17"/><line class="cls-2" x1="28.98" y1="41.85" x2="26.18" y2="48.61"/><path class="cls-2" d="M32.66,39.76h1a2.18,2.18,0,0,1,2.18,2.18v5.61a1.54,1.54,0,0,1-1.54,1.54H30.52A1.54,1.54,0,0,1,29,47.55V41.85"/><path class="cls-2" d="M32.54,35.33a2.21,2.21,0,0,0,0,4.42"/><line class="cls-2" x1="35.66" y1="41.04" x2="38.55" y2="48.61"/><path class="cls-2" d="M25.67,42.59a12,12,0,0,1-5.29-7.4"/><path class="cls-2" d="M43.84,34.47a12,12,0,0,1-4.38,7.38"/><path class="cls-2" d="M28.5,21a12,12,0,0,1,7.78.24"/></svg>