<svg xmlns="http://www.w3.org/2000/svg" viewBox="0 0 64 64"><defs><style>.cls-1{fill:#9ac8f1;}.cls-2{fill:#389ad6;}.cls-3{fill:none;stroke:#2a5081;stroke-linecap:round;stroke-linejoin:round;stroke-width:2px;}</style></defs><title>temperature, thermometer, hot, cold</title><g id="Layer_4" data-name="Layer 4"><path class="cls-1" d="M27.31,18.77c.85-1.06,2.83-1.12,3.93-.58a5.26,5.26,0,0,1,2.55,3.29,15.61,15.61,0,0,1,.47,4.24L34.43,34a6.6,6.6,0,0,1-.5,3.27,10.12,10.12,0,0,1-2.15,2.28,7.4,7.4,0,0,0-2.26,7c.64,2.38,3.27,4.43,5.85,3.79-2.43,4.11-9.06-.28-10.45-3.11a8.3,8.3,0,0,1,.79-8.42,6.68,6.68,0,0,0,1.15-1.76A4.73,4.73,0,0,0,27,35.52l-.07-12c0-1.28-.51-3.62.31-4.71Z"/><path class="cls-2" d="M27.56,36.43s4.12.69,2.81,1.94-4.69,3.81-3.81,6.75-1.34,2.81-1.63,2.12S21.75,42.37,27.56,36.43Z"/><path class="cls-3" d="M40.2,44.19a8.2,8.2,0,1,1-14-5.79,7.36,7.36,0,0,1,.79-.69V16.61a5,5,0,0,1,10,0V37.71a7.36,7.36,0,0,1,.79.69A8.17,8.17,0,0,1,40.2,44.19Z"/><line class="cls-3" x1="27" y1="34.99" x2="32" y2="34.99"/><line class="cls-3" x1="27" y1="30.55" x2="32" y2="30.55"/><line class="cls-3" x1="27" y1="26.11" x2="32" y2="26.11"/><line class="cls-3" x1="27" y1="21.68" x2="32" y2="21.68"/></g></svg>