<svg xmlns="http://www.w3.org/2000/svg" viewBox="0 0 64 64"><defs><style>.cls-1{fill:#9ac8f1;}.cls-2{fill:#389ad6;}.cls-3,.cls-4{fill:none;stroke-linecap:round;stroke-linejoin:round;stroke-width:2px;}.cls-3{stroke:#2a5081;}.cls-4{stroke:#9ac8f1;}.cls-5{fill:#295183;}</style></defs><title>thermometer, temperature, high, low</title><g id="Layer_4" data-name="Layer 4"><path class="cls-1" d="M33.64,18.77c.85-1.06,2.83-1.12,3.93-.58a5.27,5.27,0,0,1,2.55,3.29,15.62,15.62,0,0,1,.47,4.24L40.76,34a6.6,6.6,0,0,1-.5,3.27,10.12,10.12,0,0,1-2.15,2.28,7.4,7.4,0,0,0-2.26,7c.64,2.38,3.27,4.43,5.85,3.79-2.43,4.11-9.06-.28-10.45-3.11A8.3,8.3,0,0,1,32,38.82a6.68,6.68,0,0,0,1.15-1.76,4.73,4.73,0,0,0,.16-1.54q0-6-.07-12c0-1.28-.51-3.62.31-4.71Z"/><path class="cls-2" d="M33.89,36.43s4.13.69,2.81,1.94S32,42.18,32.89,45.12s-1.34,2.81-1.63,2.12S28.08,42.37,33.89,36.43Z"/><path class="cls-3" d="M46.53,44.19a8.2,8.2,0,1,1-14-5.79,7.35,7.35,0,0,1,.79-.69V16.61a5,5,0,0,1,10,0V37.71a7.36,7.36,0,0,1,.79.69A8.17,8.17,0,0,1,46.53,44.19Z"/><line class="cls-3" x1="33.33" y1="34.99" x2="38.33" y2="34.99"/><line class="cls-3" x1="33.33" y1="30.55" x2="38.33" y2="30.55"/><line class="cls-3" x1="33.33" y1="26.11" x2="38.33" y2="26.11"/><line class="cls-3" x1="33.33" y1="21.68" x2="38.33" y2="21.68"/><polyline class="cls-4" points="20 31.35 20 38.27 17.47 38.27 22.36 43.91 27.25 38.27 24.72 38.27"/><polyline class="cls-3" points="20 41.13 20 44.05 17.47 44.05 22.36 49.69 27.25 44.05 24.72 44.05"/><path class="cls-1" d="M24.36,36.35a1,1,0,0,0,1-1h0a1,1,0,0,0-2,0h0A1,1,0,0,0,24.36,36.35Z"/><path class="cls-5" d="M24.36,42.13a1,1,0,0,0,1-1h0a1,1,0,1,0-2,0h0A1,1,0,0,0,24.36,42.13Z"/><polyline class="cls-4" points="24.72 31.56 24.72 24.64 27.25 24.64 22.36 19 17.47 24.64 20 24.64"/><polyline class="cls-3" points="24.72 21.78 24.72 18.86 27.25 18.86 22.36 13.22 17.47 18.86 20 18.86"/><path class="cls-1" d="M20.36,26.56a1,1,0,0,0-1,1h0a1,1,0,1,0,2,0h0A1,1,0,0,0,20.36,26.56Z"/><path class="cls-5" d="M20.36,20.78a1,1,0,0,0-1,1h0a1,1,0,0,0,2,0h0A1,1,0,0,0,20.36,20.78Z"/></g></svg>