<svg id="Layer_1" data-name="Layer 1" xmlns="http://www.w3.org/2000/svg" viewBox="0 0 64 64"><defs><style>.cls-1{fill:#a8d2f0;}.cls-2{fill:#389ad6;}.cls-3,.cls-5,.cls-6,.cls-7{fill:none;stroke:#295183;stroke-linecap:round;stroke-linejoin:round;stroke-width:2px;}.cls-4{fill:#295183;}.cls-5{stroke-dasharray:0 5.53 0 0;}.cls-6{stroke-dasharray:5.53 0 0 5.53 0 0;}.cls-7{stroke-dasharray:0 4.45 0 0;}</style></defs><title>Thought process</title><path class="cls-1" d="M48.19,36.18c-.5,2.6-1.79,2.9-4.34,3.58a11.48,11.48,0,0,1-10.2-2.52,9.55,9.55,0,0,0,1.25-11.43h0c-.1-.16-.19-.31-.29-.45a8.18,8.18,0,0,0-.95-1.18,9.35,9.35,0,0,1,1.22-1.22,5.45,5.45,0,0,1,2.62-1.13l.06,0h0a2,2,0,0,1,1.93,2.93,7.57,7.57,0,0,0-.09,7.56c1,1.71,2.11,3.94,4.27,4.24a3.93,3.93,0,0,0,2.5-.63c.49-.28,1.36-1.26,1.9-.53A1,1,0,0,1,48.19,36.18Z"/><path class="cls-2" d="M34.89,25.81c-.1-.16-.19-.31-.29-.45A1.17,1.17,0,0,1,34.89,25.81Z"/><rect class="cls-1" x="35.71" y="40.17" width="7.42" height="3.54" rx="1.77" ry="1.77" transform="translate(-1.71 1.68) rotate(-2.39)"/><path class="cls-1" d="M41.32,47.3,39,47.43c-.59,0-1.1-.74-1.13-1.71h0c0-1,.42-1.79,1-1.82l2.34-.13c.59,0,1.1.74,1.13,1.71h0C42.36,46.45,41.91,47.27,41.32,47.3Z"/><path class="cls-2" d="M40.51,46.48a.32.32,0,0,1,0,.08.38.38,0,0,1,0,.06l0,0a1.5,1.5,0,0,1-1.2.73,1.52,1.52,0,0,1-1.56-1.52l0-.34a1.62,1.62,0,0,1,1.08-1.6l-.09-.41a1.41,1.41,0,0,1-.71.21,1.6,1.6,0,0,1-1.67-1.53v-.34a1.6,1.6,0,0,1,1.53-1.66h.06a1.61,1.61,0,0,1,1.61,1.53v.34a1.63,1.63,0,0,1,0,.36h0a2.2,2.2,0,0,0,.6,1.7l0,0a2.3,2.3,0,0,0,.26.25h0A1.58,1.58,0,0,1,40.51,46.48Z"/><path class="cls-3" d="M37.48,43.83h5.67a1.77,1.77,0,0,1,1.77,1.77h0a1.77,1.77,0,0,1-1.77,1.77H37.48"/><circle class="cls-4" cx="40.15" cy="50.63" r="0.88"/><path class="cls-3" d="M33.4,23.9a9.59,9.59,0,1,1,6.75,16.4H37.48a1.78,1.78,0,0,0-1.77,1.77,1.77,1.77,0,0,0,1.77,1.77h5.68"/><path class="cls-1" d="M24,21.81h.1A2,2,0,0,1,26,24.73a7.6,7.6,0,0,0-.09,7.56c1,1.71,2.12,3.94,4.27,4.24a4,4,0,0,0,2.5-.63c.48-.29,1.36-1.26,1.9-.53a1,1,0,0,1,.09.81c-.5,2.6-1.79,2.9-4.34,3.58C25.74,41,19.64,38.65,17.88,34c-1.44-3.8.68-8.76,3.49-11.06A5.45,5.45,0,0,1,24,21.81Z"/><path class="cls-2" d="M19.85,25.35a1.07,1.07,0,0,1,.83-.23,1.1,1.1,0,0,1,.78,1,5.69,5.69,0,0,1-.8,2.6,5.06,5.06,0,0,0-.71,3.2c.15.63,1.17,1.91.22,2.35a1.51,1.51,0,0,1-1.64-.4,3.13,3.13,0,0,1-.74-1.62,8.26,8.26,0,0,1,.49-4.56,6.69,6.69,0,0,1,1.16-2A2.47,2.47,0,0,1,19.85,25.35Z"/><rect class="cls-1" x="22.21" y="40.17" width="7.42" height="3.54" rx="1.77" ry="1.77" transform="translate(-1.72 1.12) rotate(-2.39)"/><path class="cls-1" d="M27.82,47.3l-2.34.13c-.59,0-1.1-.74-1.13-1.71h0c0-1,.42-1.79,1-1.82l2.34-.13c.59,0,1.1.74,1.13,1.71h0C28.85,46.45,28.4,47.27,27.82,47.3Z"/><path class="cls-2" d="M27,46.48a.32.32,0,0,1,0,.08.38.38,0,0,1,0,.06l0,0a1.5,1.5,0,0,1-1.2.73,1.52,1.52,0,0,1-1.56-1.52l0-.34a1.62,1.62,0,0,1,1.08-1.6l-.09-.41a1.41,1.41,0,0,1-.71.21,1.6,1.6,0,0,1-1.67-1.53v-.34a1.6,1.6,0,0,1,1.53-1.66h.06a1.61,1.61,0,0,1,1.61,1.53v.34a1.63,1.63,0,0,1,0,.36h0a2.2,2.2,0,0,0,.6,1.7l0,0a2.3,2.3,0,0,0,.26.25h0A1.58,1.58,0,0,1,27,46.48Z"/><path class="cls-3" d="M24,43.83h5.67a1.77,1.77,0,0,1,1.77,1.77h0a1.77,1.77,0,0,1-1.77,1.77H24"/><circle class="cls-4" cx="26.64" cy="50.63" r="0.88"/><path class="cls-3" d="M28.21,35.29a3.82,3.82,0,0,1,.12-2.39,12.24,12.24,0,0,1,1.43-2.12c1.34-1.87-4.39-1.56-5.08-1.44a4.2,4.2,0,0,0-.56.12c-1.29.36-.7,1.43-.11,2.18a4.89,4.89,0,0,1,1.33,2.18,3.78,3.78,0,0,1-1.72,3.61c-1.52,1.1-3.17.62-4.4-.68a8.7,8.7,0,0,1-2.15-6A9.59,9.59,0,0,1,33.4,23.9c.09.09.18.18.26.27a8.18,8.18,0,0,1,.95,1.18c.11.14.19.29.29.45h0a9.55,9.55,0,0,1-1.25,11.43,1.51,1.51,0,0,1-.16.18,9.66,9.66,0,0,1-2.39,1.78,9.55,9.55,0,0,1-4.46,1.1H24a1.78,1.78,0,0,0-1.77,1.77A1.77,1.77,0,0,0,24,43.83h5.68"/><line class="cls-3" x1="17.71" y1="16.39" x2="19.33" y2="19.56"/><line class="cls-3" x1="23.96" y1="14.49" x2="24.26" y2="18.04"/><line class="cls-3" x1="13.05" y1="20.72" x2="16" y2="22.72"/><path class="cls-3" d="M36.31,38.11q1.16-.52,2.25-1.1"/><path class="cls-5" d="M38.55,37a38,38,0,0,0,3.88-2.34"/><path class="cls-6" d="M43.25,34.09c5.14-3.78,8.15-8.24,7.64-11.74A4.91,4.91,0,0,0,50.51,21c-1.73-3.84-8.23-4.85-15.81-2.91"/><path class="cls-3" d="M34.71,18.12q-1.18.3-2.4.7"/><path class="cls-3" d="M13.85,33.83a6.09,6.09,0,0,0-.11,2.49"/><path class="cls-7" d="M13.75,36.31a4.88,4.88,0,0,0,.36,1.15,5.08,5.08,0,0,0,1.34,1.77"/><path class="cls-3" d="M16.25,39.82a9,9,0,0,0,2.29,1"/></svg>