<svg id="Layer_1" data-name="Layer 1" xmlns="http://www.w3.org/2000/svg" viewBox="0 0 64 64"><defs><style>.cls-1{fill:#389ad6;}.cls-2,.cls-4,.cls-5{fill:none;}.cls-2{stroke:#295183;}.cls-2,.cls-5{stroke-linecap:round;stroke-linejoin:round;stroke-width:2px;}.cls-3{fill:#a8d2f0;}.cls-5{stroke:#a8d2f0;}.cls-6{fill:#295183;}</style></defs><title>Time delivery</title><path class="cls-1" d="M26.47,45.25H26l-8.66-.37a1.92,1.92,0,0,1-1-.22,1.92,1.92,0,0,1-.59-.8l-1.55-3.09a4.77,4.77,0,0,1-.42-1,4.78,4.78,0,0,1,0-1.59L14.9,28.06a5,5,0,0,1,.37-2,2.05,2.05,0,0,1,1.61-.66l3.27-.25a.38.38,0,0,0-.15.51,1.42,1.42,0,0,0,.4.44,3.16,3.16,0,0,1,1,2.62l.85.09a1.93,1.93,0,0,0-.63.37.66.66,0,0,0-.19.67.94.94,0,0,0,.26.33,7,7,0,0,1,1.54,1.76,7.93,7.93,0,0,1,.54,2.92,13.16,13.16,0,0,0,3.32,7.51,3,3,0,0,1,.79,1.17,1.39,1.39,0,0,1-.82,1.6A1.91,1.91,0,0,1,26.47,45.25Z"/><path class="cls-2" d="M44.84,48.63a2.63,2.63,0,0,1-5.25,0"/><path class="cls-2" d="M24.76,48.63a2.63,2.63,0,0,1-5.25,0"/><path class="cls-3" d="M41.21,30.79A32.47,32.47,0,0,0,44.9,42.41a2,2,0,0,1-1.71,2.94h-4a3.14,3.14,0,0,1-3.14-3.16l.07-14.36h1.67A3.42,3.42,0,0,1,41.21,30.79Z"/><path class="cls-2" d="M33.27,25.12A5.62,5.62,0,0,1,36.16,30V41.79"/><path class="cls-2" d="M39.23,27.83l5.12,0A2.81,2.81,0,0,1,47,30l3.21,12.23a3.16,3.16,0,0,1-3.15,3.15H19.86a5.62,5.62,0,0,1-5.6-5.6V30"/><polyline class="cls-2" points="40.23 31.84 40.23 36.8 44.47 36.8"/><path class="cls-3" d="M21,17.2c1.84.35,1.39,1.64,1.08,3a10.52,10.52,0,0,0,.11,4.92,7.49,7.49,0,0,0,.57,1.75c.27.49,1,.94,1.07,1.52a.88.88,0,0,1-.45.79,3.06,3.06,0,0,1-1.62.37,5.17,5.17,0,0,1-2-.47s-4.44-2.56-4.62-4.9c-.14-1.9,1.5-4.12,2.73-5.41a4.85,4.85,0,0,1,2.56-1.62A2,2,0,0,1,21,17.2Z"/><path class="cls-4" d="M24.45,37.68s0,0,0,0c-.68-1.65-1.27-1.85-1.27-1.85"/><path class="cls-5" d="M34.34,19.24S33,14,27.8,12.74"/><path class="cls-2" d="M25.19,16.65a7.21,7.21,0,1,1-2.64-.5"/><polyline class="cls-2" points="22.55 19.91 22.55 23.36 26.55 23.36"/><circle class="cls-6" cx="17.5" cy="23.47" r="0.58"/><circle class="cls-6" cx="22.55" cy="28.37" r="0.58"/><circle class="cls-6" cx="12.5" cy="52.46" r="1"/><line class="cls-2" x1="35" y1="52.46" x2="15.72" y2="52.46"/><line class="cls-2" x1="48" y1="52.46" x2="39" y2="52.46"/></svg>