<svg xmlns="http://www.w3.org/2000/svg" viewBox="0 0 64 64"><defs><style>.cls-1{fill:#a8d2f0;}.cls-2,.cls-5{fill:none;stroke-linecap:round;stroke-linejoin:round;stroke-width:2px;}.cls-2{stroke:#295183;}.cls-3{fill:#295183;}.cls-4{fill:#3897d3;}.cls-5{stroke:#295181;}</style></defs><title>touch, hand, getures, touchpad</title><g id="Layer_4" data-name="Layer 4"><path class="cls-1" d="M29.26,17.92s4.31,1.87,1.36,3.64-6.36,0-6.36,0-3.64-3.18-2.86,7.26,1.67,9,5.23,9.6,4.7,4.42,2,4.92S17.48,48.68,17.48,36.8s-3-18.88,4.15-18.88Z"/><line class="cls-2" x1="21.48" y1="38.11" x2="30.41" y2="38.11"/><path class="cls-2" d="M17.48,38.11V20.43A2.51,2.51,0,0,1,20,17.92H44.11a2.52,2.52,0,0,1,2.52,2.51V38.11h0"/><path class="cls-2" d="M17.48,38.11v3.21A2.51,2.51,0,0,0,20,43.83H36.91"/><polyline class="cls-2" points="46.63 41.32 46.63 38.41 46.63 38.11"/><circle class="cls-3" cx="41.88" cy="21.57" r="1"/><circle class="cls-3" cx="22.62" cy="40.92" r="1"/><path class="cls-2" d="M39,21.57H22.7a1.31,1.31,0,0,0-1.3,1.3V33.62"/><path class="cls-4" d="M39.16,28.82l-2.3,9.59c0,.08-.07,0-.28,0a2.39,2.39,0,0,0-2.36,1,1.45,1.45,0,0,0-.28,1.45,1.86,1.86,0,0,1,0-2.64,1.71,1.71,0,0,1,.85-.42c-.83-.67-1.51,2.3-2,1.35.4-.28-.42.4-.33-.86.12-1.72,2.81-4.09,3-5.29C35.92,28.9,39.16,28.82,39.16,28.82Z"/><path class="cls-2" d="M37.62,39.21l-.3-.08"/><path class="cls-5" d="M43,46.08h2a1.62,1.62,0,0,0,1.62-1.62v-6a4.07,4.07,0,0,0-4.05-4.05h-.9l-.45,0v-3a1.8,1.8,0,0,0-1.72-1.8,1.87,1.87,0,0,0-1.89,1.9v7.63"/><path class="cls-5" d="M37.62,44.54,34,40.88l0,0a1.86,1.86,0,0,1,0-2.64,1.71,1.71,0,0,1,.85-.42,1.47,1.47,0,0,1,.36,0,1.75,1.75,0,0,1,1.27.53l.13.13,1,1"/><path class="cls-2" d="M28.5,31.76l.24,1.67h-3.1l.53-3.72a2.07,2.07,0,1,1,3.09-1.8"/></g></svg>