<svg id="Layer_1" data-name="Layer 1" xmlns="http://www.w3.org/2000/svg" viewBox="0 0 64 64"><defs><style>.cls-1{fill:#a8d2f0;}.cls-2{fill:#389ad6;}.cls-3{fill:#295183;}.cls-4,.cls-5{fill:none;stroke:#2a5080;stroke-linecap:round;stroke-linejoin:round;stroke-width:2px;}.cls-5{stroke-dasharray:1.81 0;}</style></defs><title>Train</title><path class="cls-1" d="M21.8,29.89S20.5,33.31,24,34.31s3.79-.17,3.79-.75a25.74,25.74,0,0,1,1.29-3.67s-.37,4.5,2.54,4-.75,1.92-.75,1.92l-11,.46s.21-5.25.25-5.25S20.77,29.47,21.8,29.89Z"/><path class="cls-1" d="M42.08,25.87c-.41-.21-1.12,1.33-1.17,1.54a3.3,3.3,0,0,0,.22,2,5.16,5.16,0,0,0,1.3,2.13,3.33,3.33,0,0,0,2.47.48c.58-.07,2.09-.26,1.41-1.18a6.48,6.48,0,0,1-1.21-3.46Z"/><path class="cls-2" d="M11,35.16c.55-.74,1.75-.56,2.61-.5a223.68,223.68,0,0,0,23.48.15,19.71,19.71,0,0,1,6.59.49,6.52,6.52,0,0,1,4.59,4.38,1.36,1.36,0,0,1,0,.89c-.25.53-1,.61-1.55.61l-23.22.1c-3.28,0-6.66,0-9.67-1.27a5.67,5.67,0,0,1-2.6-1.93,2.85,2.85,0,0,1-.3-2.76Z"/><circle class="cls-3" cx="10.83" cy="25.34" r="1"/><circle class="cls-3" cx="13.99" cy="41.19" r="1"/><circle class="cls-3" cx="10.83" cy="34.18" r="1"/><path class="cls-4" d="M18.69,19H29.2l6.31,6.31h2.76a8.89,8.89,0,0,1,7.66,4.38l4.44,7.53a2.62,2.62,0,0,1-2.25,3.95H36.51V33.31h4.67"/><line class="cls-4" x1="13.99" y1="25.34" x2="19.49" y2="25.34"/><line class="cls-5" x1="23.11" y1="25.34" x2="24.92" y2="25.34"/><line class="cls-4" x1="24.92" y1="25.34" x2="30.42" y2="25.34"/><path class="cls-4" d="M17.49,41.19H32.68V31.63a2.46,2.46,0,0,0-2.46-2.46H30a2.46,2.46,0,0,0-2.46,2.46v2.67H24.42V31.63A2.46,2.46,0,0,0,22,29.17h0a2.46,2.46,0,0,0-2.46,2.46v2.62H14.4"/><line class="cls-4" x1="54.17" y1="44.97" x2="12.83" y2="44.97"/></svg>