<svg id="Layer_1" data-name="Layer 1" xmlns="http://www.w3.org/2000/svg" viewBox="0 0 64 64"><defs><style>.cls-1,.cls-3,.cls-5{fill:none;stroke-linecap:round;stroke-linejoin:round;stroke-width:2px;}.cls-1{stroke:#a8d2f0;}.cls-2{fill:#a8d2f0;}.cls-3{stroke:#295183;}.cls-4{fill:#9dcbf4;}.cls-5{stroke:#2a5081;}</style></defs><title>transfer person</title><polyline class="cls-1" points="43.85 27.99 42.85 29.82 40.99 26.13"/><path class="cls-1" d="M43.85,28a5,5,0,0,1,2,6.77"/><path class="cls-2" d="M47.28,21a2.09,2.09,0,0,1-1.12,1,2.87,2.87,0,0,1-.69.18c-.07,0-.67,0-.68,0a5,5,0,0,1-1.43,1.72.41.41,0,0,1-.46,0,.38.38,0,0,1-.1-.11l-.05-.1c-.38-.78-.76-1.57-1.15-2.35a9,9,0,0,1-1-2.06c-.42-2.06,4.46-3.24,5.81-2.84,1.14.33.59,1.71.3,2.46,0,.11.39.51.46.61A1.5,1.5,0,0,1,47.28,21Z"/><polyline class="cls-3" points="44.92 22.07 43.11 25.36 39.79 18.73"/><path class="cls-3" d="M44.92,22.07a9,9,0,0,1,3.54,12.15l1.9-3.46a9,9,0,0,0-3.54-12.15"/><polyline class="cls-1" points="20.15 38.01 21.15 36.18 23.01 39.88"/><path class="cls-1" d="M20.15,38a5,5,0,0,1-2-6.77"/><path class="cls-2" d="M16.72,45a2.09,2.09,0,0,1,1.12-1,2.87,2.87,0,0,1,.69-.18c.07,0,.67,0,.68,0a5,5,0,0,1,1.43-1.72.41.41,0,0,1,.46,0,.38.38,0,0,1,.1.11l.05.1c.38.78.76,1.57,1.15,2.35a9,9,0,0,1,1,2.06c.42,2.06-4.46,3.24-5.81,2.84-1.14-.33-.59-1.71-.3-2.46,0-.11-.39-.51-.46-.61A1.5,1.5,0,0,1,16.72,45Z"/><polyline class="cls-3" points="19.08 43.93 20.89 40.64 24.21 47.27"/><path class="cls-3" d="M19.08,43.93a9,9,0,0,1-3.54-12.15l-1.9,3.46a9,9,0,0,0,3.54,12.15"/><path class="cls-4" d="M28.45,34.43s3.66-1.3,3.6,8.64c0,0-.2,4.75-2.8,4.68Z"/><path class="cls-4" d="M32.55,18.88c-.53,0,.09,2.82.12,3.07a11.12,11.12,0,0,1-.11,2.38c-.22,2,0,4.07-.37,6.07-.3,1.44-1.06,3.11-2.8,2.94-3.8-.37.35-11,.88-10.85s0-3.61,0-3.61Z"/><line class="cls-5" x1="28.02" y1="25.82" x2="24.74" y2="33.74"/><path class="cls-5" d="M32.34,23.37h1.19a2.56,2.56,0,0,1,2.56,2.56V32.5a1.81,1.81,0,0,1-1.81,1.81H29.83A1.81,1.81,0,0,1,28,32.5V25.82"/><path class="cls-5" d="M32.2,18.18a2.59,2.59,0,0,0,0,5.19"/><line class="cls-5" x1="35.85" y1="24.87" x2="39.24" y2="33.74"/><line class="cls-5" x1="28.88" y1="47.22" x2="28.02" y2="32.56"/><line class="cls-5" x1="36.08" y1="32.5" x2="35.25" y2="46.7"/><path class="cls-5" d="M32,38.64v8.21a.37.37,0,0,0,.37.37h2.47a.37.37,0,0,0,.37-.37"/></svg>