<svg id="Layer_1" data-name="Layer 1" xmlns="http://www.w3.org/2000/svg" viewBox="0 0 64 64"><defs><style>.cls-1{fill:#9dcbf4;}.cls-2{fill:none;stroke:#295183;stroke-linecap:round;stroke-linejoin:round;stroke-width:2px;}.cls-3{fill:#389ad6;}</style></defs><title>Visibility</title><path class="cls-1" d="M31.5,35.49a.3.3,0,0,1,0,.09c0,.17-.22.26-.39.33A6.81,6.81,0,0,1,25.35,35a5.86,5.86,0,0,1-1.55-1.28c-1.64-2,.15-4.71,2.13-5.72a5.45,5.45,0,0,1,4.8,0,.58.58,0,0,1,.22.15c.19.25-.08.58-.3.8A4,4,0,0,0,31.1,35C31.28,35.13,31.49,35.29,31.5,35.49Z"/><path class="cls-2" d="M40.93,33.86a2.3,2.3,0,0,0,.62-2,2.13,2.13,0,0,0-.13-.43,2.23,2.23,0,0,0-.5-.76,8.17,8.17,0,0,0-.69-.63A12.63,12.63,0,0,0,32,27a12.79,12.79,0,0,0-1.52.09,12.38,12.38,0,0,0-7.41,3.52,2.09,2.09,0,0,0-.46.69,2.19,2.19,0,0,0-.2,1,2.27,2.27,0,0,0,.66,1.56"/><path class="cls-2" d="M37.12,36.43a11.91,11.91,0,0,0,3.81-2.57,2.3,2.3,0,0,0,.62-2,2.13,2.13,0,0,0-.13-.43,2.23,2.23,0,0,0-.5-.76,8.17,8.17,0,0,0-.69-.63A12.63,12.63,0,0,0,32,27a12.79,12.79,0,0,0-1.52.09,12.38,12.38,0,0,0-7.41,3.52,2.09,2.09,0,0,0-.46.69,2.19,2.19,0,0,0-.2,1,2.27,2.27,0,0,0,.66,1.56,12,12,0,0,0,4.1,2.69,5.63,5.63,0,0,0,2.78.38l.32,0,.07,0a10.21,10.21,0,0,0,2.2-.7,3.45,3.45,0,0,0,2.26-2.87A3,3,0,0,0,31.57,30a2.8,2.8,0,0,0-1.68.93,2.75,2.75,0,0,0-.63,2.51"/><ellipse class="cls-3" cx="46" cy="47.41" rx="3" ry="3.35"/><ellipse class="cls-3" cx="16" cy="17.35" rx="3.35" ry="3" transform="translate(-4.03 29.82) rotate(-79.22)"/><line class="cls-2" x1="39.38" y1="24.63" x2="44" y2="20"/><path class="cls-2" d="M42.63,16.94A4.22,4.22,0,1,1,44,20"/><line class="cls-2" x1="39.27" y1="39.24" x2="43.9" y2="43.87"/><circle class="cls-2" cx="46.95" cy="46.72" r="4.22"/><line class="cls-2" x1="24.86" y1="39.14" x2="20.24" y2="43.76"/><path class="cls-2" d="M20.26,43.73a4.22,4.22,0,1,1-2.87-1.13"/><line class="cls-2" x1="24.69" y1="24.63" x2="20.06" y2="20"/><circle class="cls-2" cx="17.21" cy="16.94" r="4.22"/></svg>