<svg id="Layer_1" data-name="Layer 1" xmlns="http://www.w3.org/2000/svg" viewBox="0 0 64 64"><defs><style>.cls-1{fill:#9ac8f1;}.cls-2{fill:#389ad6;}.cls-3{fill:none;stroke:#2a5081;stroke-linecap:round;stroke-linejoin:round;stroke-width:2px;}.cls-4{fill:#2a5081;}</style></defs><title>Water</title><path class="cls-1" d="M30.42,22.41c.18-.26.42-.48.7-.39s.34.4.39.67a9.89,9.89,0,0,1-.2,4.73,31.15,31.15,0,0,1-1.63,3.35,5.11,5.11,0,0,0-.52,3.61,3.7,3.7,0,0,0,2.44,2.34,4,4,0,0,0,3.51-.38,1.92,1.92,0,0,1,.31-.24c.91-.49.11,1.11,0,1.33a4.52,4.52,0,0,1-1.61,1.43,5.31,5.31,0,0,1-3.09.58,5.72,5.72,0,0,1-3.08-1.32,6.57,6.57,0,0,1-2.15-4.53A9,9,0,0,1,27,27.88a41,41,0,0,0,3.28-5.23A2.24,2.24,0,0,1,30.42,22.41Z"/><path class="cls-2" d="M27.88,27.63s.92-.08.33,1.29-2,2.68-.62,6.37-1.07.29-1.07.29S23.54,30.54,27.88,27.63Z"/><path class="cls-3" d="M31.63,16.94c.37,4.86,4.6,10.33,5.13,11l0,.07a6.79,6.79,0,1,1-10.35,0l0-.06A28,28,0,0,0,30,22.53"/><path class="cls-3" d="M26.51,27.94l-.05.06"/><path class="cls-1" d="M21,40.84l-.36-.35c-.5-.52-1.65-2-.51-2.45a2.49,2.49,0,0,1,2.2.58,16.5,16.5,0,0,0,3.64,2.61,13.12,13.12,0,0,0,8,.41c.53-.1,1-.22,1.57-.35l.41-.12a16.13,16.13,0,0,0,2.46-1A8.53,8.53,0,0,1,40.68,39a1.25,1.25,0,0,1,1.35.49c1,1.43-2.74,3.22-3.53,3.55a17.69,17.69,0,0,1-10,.81C25.93,43.35,23,42.62,21,40.84Z"/><path class="cls-1" d="M17.71,44.41l-.5-.34c-.69-.5-2.26-1.92-.7-2.37a4.45,4.45,0,0,1,3,.56,24,24,0,0,0,5,2.52,24.94,24.94,0,0,0,10.91.4c.72-.1,1.43-.22,2.14-.34l.56-.12a27.87,27.87,0,0,0,3.36-1,13.94,13.94,0,0,1,3.16-1.15,2.1,2.1,0,0,1,1.84.47c1.36,1.38-3.74,3.11-4.82,3.43A33.58,33.58,0,0,1,28,47.3C24.49,46.83,20.43,46.13,17.71,44.41Z"/><path class="cls-3" d="M20.75,41.33A15.63,15.63,0,0,0,28.56,44a25,25,0,0,0,7-.17,21.55,21.55,0,0,0,6.33-2.38,6,6,0,0,1,2.5-.86,3,3,0,0,1,1.94.65,1.47,1.47,0,0,1,.62,1c0,1.44-1.87,2-2.91,2.41a35.33,35.33,0,0,1-4.49,1.42,35,35,0,0,1-14,.58,24,24,0,0,1-8.69-3.31"/><circle class="cls-4" cx="19.03" cy="39.18" r="1"/></svg>