<svg xmlns="http://www.w3.org/2000/svg" viewBox="0 0 64 64"><defs><style>.cls-1{fill:#9ac8f1;}.cls-2{fill:#389ad6;}.cls-3{fill:none;stroke:#2a5081;stroke-linecap:round;stroke-linejoin:round;stroke-width:2px;}.cls-4{fill:#2a5081;}</style></defs><title>water, liquid, waterdrop, agriculture</title><g id="Layer_4" data-name="Layer 4"><path class="cls-1" d="M31,22.11c.18-.26.42-.48.7-.39s.34.4.39.67a9.89,9.89,0,0,1-.2,4.73,31.16,31.16,0,0,1-1.63,3.35,5.11,5.11,0,0,0-.52,3.61,3.7,3.7,0,0,0,2.44,2.34,4,4,0,0,0,3.51-.38,1.91,1.91,0,0,1,.31-.24c.91-.49.11,1.11,0,1.33a4.52,4.52,0,0,1-1.61,1.43,5.31,5.31,0,0,1-3.09.58,5.72,5.72,0,0,1-3.08-1.32A6.57,6.57,0,0,1,26,33.3a9,9,0,0,1,1.54-5.71,41,41,0,0,0,3.28-5.23A2.23,2.23,0,0,1,31,22.11Z"/><path class="cls-2" d="M28.47,27.33s.92-.08.33,1.29-2,2.68-.62,6.37-1.07.29-1.07.29S24.13,30.24,28.47,27.33Z"/><path class="cls-3" d="M32.22,16.64c.37,4.86,4.6,10.33,5.13,11l0,.07a6.79,6.79,0,1,1-10.35,0l0-.06a28,28,0,0,0,3.48-5.41"/><path class="cls-3" d="M27.1,27.64l0,.06"/><path class="cls-1" d="M21.55,40.54l-.36-.35c-.5-.52-1.65-2-.51-2.45a2.49,2.49,0,0,1,2.2.58,16.49,16.49,0,0,0,3.64,2.61,13.12,13.12,0,0,0,8,.41c.53-.1,1-.22,1.57-.35l.41-.12a16.12,16.12,0,0,0,2.46-1,8.54,8.54,0,0,1,2.32-1.19,1.25,1.25,0,0,1,1.35.49c1,1.43-2.74,3.22-3.53,3.55a17.69,17.69,0,0,1-10,.81C26.52,43,23.55,42.32,21.55,40.54Z"/><path class="cls-1" d="M18.3,44.11l-.5-.34c-.69-.5-2.26-1.92-.7-2.37a4.46,4.46,0,0,1,3,.56,24,24,0,0,0,5,2.52,24.94,24.94,0,0,0,10.91.4c.72-.1,1.43-.22,2.14-.34l.56-.12a27.88,27.88,0,0,0,3.36-1,13.93,13.93,0,0,1,3.16-1.15,2.1,2.1,0,0,1,1.84.47c1.36,1.38-3.74,3.11-4.82,3.43A33.58,33.58,0,0,1,28.55,47C25.08,46.54,21,45.84,18.3,44.11Z"/><path class="cls-3" d="M21.34,41a15.63,15.63,0,0,0,7.8,2.69,25,25,0,0,0,7-.17,21.55,21.55,0,0,0,6.33-2.38,6,6,0,0,1,2.5-.86,3,3,0,0,1,1.94.65,1.47,1.47,0,0,1,.62,1c0,1.44-1.87,2-2.91,2.41a35.31,35.31,0,0,1-4.49,1.42,35,35,0,0,1-14,.58A24,24,0,0,1,17.5,43.1"/><circle class="cls-4" cx="19.62" cy="38.88" r="1"/></g></svg>