<svg id="Layer_1" data-name="Layer 1" xmlns="http://www.w3.org/2000/svg" viewBox="0 0 64 64"><defs><style>.cls-1{fill:#9ac8f1;}.cls-2{fill:#3897d3;}.cls-3,.cls-5{fill:none;stroke-linecap:round;stroke-linejoin:round;stroke-width:2px;}.cls-3{stroke:#2a5081;}.cls-4{fill:#2a5081;}.cls-5{stroke:#295183;}</style></defs><title>water tap</title><path class="cls-1" d="M14.87,22.34c1.13-.92,2.58,1,3.44,1.47,1.81,1,4.08.24,6.14.51a.9.9,0,0,1,.42.13,1.1,1.1,0,0,1,.32.63,4.63,4.63,0,0,0,5.68,3.21c1-.28,1.92-.9,2.91-1.27A11,11,0,0,1,39,26.7,4,4,0,0,1,41.89,28a4.14,4.14,0,0,1,.55,2.11,22.46,22.46,0,0,1,0,4.26c-.42,3.65-3.14,6.75-2.38,10.53.44,2.16,2.24,4.16,4.45,4.21-1.81.45-3.91.76-5.39-.38a5.9,5.9,0,0,1-1.81-3.53,26.59,26.59,0,0,1-.54-3.59A3.51,3.51,0,0,1,36.95,40a6.38,6.38,0,0,1,1.57-1.8c1.39-1.47,1.65-3.66,1.61-5.68a2.77,2.77,0,0,0-.76-2.22,2.88,2.88,0,0,0-1.72-.41l-2.43-.06a2,2,0,0,0-.91.12,3.63,3.63,0,0,0-.84.77,4.32,4.32,0,0,1-2.72.88,8,8,0,0,1-4.86-.7A9.29,9.29,0,0,0,24.51,30a4.4,4.4,0,0,0-1.7-.2l-3.06,0a1,1,0,0,0-.56.12c-.36.26-.21.83-.34,1.25a1.24,1.24,0,0,1-1,.78,3.47,3.47,0,0,1-1.36-.18,2.9,2.9,0,0,1-1.74-1,3,3,0,0,1-.32-1.73l.1-5.76A1.33,1.33,0,0,1,14.87,22.34Z"/><path class="cls-2" d="M37.44,40.06s2-2,1.82,0-1.6,2.31-.57,4.59S35.59,44.9,37.44,40.06Z"/><path class="cls-2" d="M14.75,27.12s.33.79,4.08.29a14.76,14.76,0,0,1,4.6-.09c1.52.28,2.42,1.64,3.67,2.41a6.45,6.45,0,0,0,5.1.83A29.65,29.65,0,0,0,28.53,32l-4.8-2.44L18.44,30l-.64,2-3.67-.28Z"/><path class="cls-2" d="M39.71,29.62a.75.75,0,0,1,.17-.44.93.93,0,0,1,1.46.07,2.25,2.25,0,0,1,.27,1.07,17.17,17.17,0,0,1-.56,5.7,1.76,1.76,0,0,1-.77,1A.31.31,0,0,1,40,37a.4.4,0,0,1-.1-.16c-.26-.7.12-1.38.17-2.08s.07-1.41,0-2.12A14,14,0,0,0,40,31.13,7.37,7.37,0,0,1,39.71,29.62Z"/><path class="cls-3" d="M40.26,32.19v-.76a2.14,2.14,0,0,0-2.13-2.13h-4"/><path class="cls-3" d="M25.8,22.35a5.49,5.49,0,0,0-1.22,1.46H18.4v-3H14.12v11h4.32V29.3h6.13l.17.27a5.52,5.52,0,0,0,2,1.85,5.48,5.48,0,0,0,6.56-1.11"/><path class="cls-3" d="M29.32,21.07V17.8A2.28,2.28,0,0,0,27,15.52H23.73"/><path class="cls-3" d="M34.1,29.31a5.61,5.61,0,0,1-.85,1.09s0,0,0,0"/><circle class="cls-4" cx="33.33" cy="15.52" r="1"/><circle class="cls-4" cx="40.26" cy="34.98" r="1"/><path class="cls-3" d="M49.88,42.72a6.76,6.76,0,0,0-3.76-6.06v-8a4.86,4.86,0,0,0-4.84-4.84h-7.2a5.48,5.48,0,0,0-4.75-2.75"/><path class="cls-5" d="M36.37,42.72A6.73,6.73,0,0,1,38,38.35"/><path class="cls-5" d="M49.88,42.72a6.76,6.76,0,1,1-13.51,0"/></svg>