<svg xmlns="http://www.w3.org/2000/svg" viewBox="0 0 64 64"><defs><style>.cls-1{fill:#a8d2f0;}.cls-2{fill:#389ad6;}.cls-3{fill:none;stroke:#295183;stroke-linecap:round;stroke-linejoin:round;stroke-width:2px;}.cls-4{fill:#295183;}</style></defs><title>webcam, cam, camera, security</title><g id="Layer_5" data-name="Layer 5"><path class="cls-1" d="M30.5,12.12s6.13,2.33.54,6.33c0,0-6.27-.07-3.91,8.43,0,0,2.29,3.46,7.28,2.26s4,7-2.67,5.9-10.83-4-11.1-10S23.92,12,30.5,12.12Z"/><path class="cls-1" d="M34,35.24s3.7-.39,2.94,3-3.91,5.09-1,8.19,1.13,5.11-1.45,5.11-8.4-8.2-6.15-11.08A28.43,28.43,0,0,1,34,35.24Z"/><path class="cls-2" d="M35.86,33.89a1.67,1.67,0,0,0-.81-.91c-2-1.26-4.6-1.11-6.75-2.12a7.72,7.72,0,0,1-4.18-6.22c-.15-1.66.19-3.35,0-5a1.58,1.58,0,0,0-.55-1.16,1.43,1.43,0,0,0-1.67.43c-.12.12-.23.24-.34.37l-.06.08a1.7,1.7,0,0,0-.18.25,6.16,6.16,0,0,0-.58,1.24,8.64,8.64,0,0,0,0,5.29A10.42,10.42,0,0,0,22,28.91.17.17,0,0,0,22,29a1,1,0,0,0,.09.16A15.69,15.69,0,0,0,25,32.43c.44.38.89.73,1.37,1.09a.06.06,0,0,0,0,0l.33.24a8.37,8.37,0,0,1,1.64,1.09s-9.59,6.31-5.06,15.32c0,0,.62,2.32,6.82,1.69,3.22-.33,4.51-.9,4.74-1.49s-.46-1.13-1.37-1.56a3.91,3.91,0,0,1-.86-.57,5,5,0,0,1-.68-.66,6.64,6.64,0,0,1-1.23-6.24c.71-2.46,2.41-3.77,4.18-5.46a4.85,4.85,0,0,0,.64-.86,2,2,0,0,0,.24-.62.48.48,0,0,0,0-.19A.88.88,0,0,0,35.86,33.89Z"/><path class="cls-2" d="M35.06,18.8s-2.79-.53-1.74,1.69S35.77,22.7,34.84,25s-1.74,3.25,0,3.27S39.33,21,35.06,18.8Z"/><path class="cls-3" d="M32.16,35a11.74,11.74,0,0,1-3.37-.5A11.53,11.53,0,1,1,40,31.94"/><path class="cls-3" d="M32.16,17.9A5.62,5.62,0,1,0,35.56,19"/><path class="cls-3" d="M34.84,23.52a2.67,2.67,0,1,1-2.67-2.67"/><path class="cls-3" d="M25.61,37.48a10.12,10.12,0,0,0-1.35,14h15.8a10.12,10.12,0,0,0-7.9-16.44v8.3"/><circle class="cls-4" cx="38.38" cy="33.55" r="1"/></g></svg>