<svg id="Layer_1" data-name="Layer 1" xmlns="http://www.w3.org/2000/svg" viewBox="0 0 64 64"><defs><style>.cls-1,.cls-2{fill:none;}.cls-2{stroke:#295183;stroke-linecap:round;stroke-linejoin:round;stroke-width:2px;}</style></defs><title>Windmills</title><path class="cls-1" d="M36.24,12.62s-2.35,7.59-2,11.59,2.85-2.58,2.85-2.58l-.85-9.42"/><path class="cls-1" d="M21.39,29.59S29.17,28,32.5,25.73s-3.64-1.24-3.64-1.24L21,29.79"/><path class="cls-1" d="M21.79,21.15s-1.45,4.68-1.23,7.14,1.76-1.59,1.76-1.59l-.52-5.8"/><path class="cls-1" d="M12.64,31.6s4.79-1,6.84-2.38-2.24-.77-2.24-.77l-4.83,3.27"/><path class="cls-1" d="M47.58,22.46s-1.45,4.68-1.23,7.14S48.11,28,48.11,28l-.52-5.8"/><path class="cls-1" d="M38.44,32.91s4.79-1,6.84-2.38S43,29.77,43,29.77L38.22,33"/><line class="cls-2" x1="33.69" y1="51.79" x2="33.69" y2="25.55"/><polyline class="cls-2" points="43.16 35.02 33.69 29.47 33.69 25.55"/><polyline class="cls-2" points="37.15 12.62 37.08 23.6 33.69 25.55"/><polyline class="cls-2" points="20.75 29.02 30.3 23.6 33.69 25.55"/><line class="cls-2" x1="46.11" y1="44.94" x2="46.11" y2="29.79"/><polyline class="cls-2" points="51.58 35.25 46.11 32.05 46.11 29.79"/><polyline class="cls-2" points="48.11 22.32 48.07 28.66 46.11 29.79"/><polyline class="cls-2" points="38.64 31.79 44.16 28.66 46.11 29.79"/><line class="cls-2" x1="20.31" y1="44.24" x2="20.31" y2="29.1"/><polyline class="cls-2" points="25.78 34.56 20.31 31.35 20.31 29.1"/><polyline class="cls-2" points="22.31 21.63 22.27 27.97 20.31 29.1"/><polyline class="cls-2" points="12.84 31.1 18.36 27.97 20.31 29.1"/></svg>