<svg id="Layer_1" data-name="Layer 1" xmlns="http://www.w3.org/2000/svg" viewBox="0 0 64 64"><defs><style>.cls-1{fill:#9ac8f1;}.cls-2{fill:none;stroke:#2a5081;stroke-linecap:round;stroke-linejoin:round;stroke-width:2px;}</style></defs><title>Windmill</title><path class="cls-1" d="M30.9,15.5c.41,1.79.73,3.6,1,5.41.43,2.79.94,5.87.42,8.68a8.06,8.06,0,0,1-2.45,4c-1.37,1.4-2.65,3.23-4.5,4,0,0-8,3.47-8.25,3.37s-.89-1.41,4-5.19l7.75-6Z"/><path class="cls-2" d="M35.3,30l3.48,2.69,2.72,2.1,1.36,1.05,1.25,1,2.24,1.72A1.34,1.34,0,0,1,45,40.85l-2.71-1.11L41,39.19l-1.75-.72-3.31-1.36-4-1.65L28,37,24.73,38.4,23,39.09l-1.43.59L19,40.77a1.34,1.34,0,0,1-1.32-2.29l2.21-1.7,1.28-1,1.34-1,2.73-2.1,3.68-2.84.66-4.88L30,21.48l.16-1.16.29-2.13.3-2.25a1.34,1.34,0,0,1,2.64,0l.3,2.26L34,20.32l.16,1.19L34.62,25"/><path class="cls-2" d="M21,30.92a7.6,7.6,0,0,1-.14-1.47,8.1,8.1,0,0,1,5.24-7.6"/><path class="cls-2" d="M36.57,41.17a8.14,8.14,0,0,1-9.25-.07"/><path class="cls-2" d="M38.08,21.92a8.13,8.13,0,0,1,5,7.53A7.84,7.84,0,0,1,43,31"/><path class="cls-2" d="M40.46,42.77a11.86,11.86,0,0,1-17-.08"/><path class="cls-2" d="M17.8,33.39a11.7,11.7,0,0,1-.67-3.94A11.88,11.88,0,0,1,26.66,17.8"/><path class="cls-2" d="M37.53,17.84a11.88,11.88,0,0,1,9.34,11.61,12,12,0,0,1-.7,4"/><path class="cls-2" d="M44.13,44.27a15.61,15.61,0,0,1-24.33-.07"/><path class="cls-2" d="M14.72,35.77A15.61,15.61,0,0,1,27.18,13.93"/><path class="cls-2" d="M37,14A15.62,15.62,0,0,1,50.62,29.45a15.41,15.41,0,0,1-1.38,6.4"/></svg>