<svg xmlns="http://www.w3.org/2000/svg" viewBox="0 0 64 64"><defs><style>.cls-1{fill:#a8d2f0;}.cls-2,.cls-4{fill:none;stroke-linecap:round;stroke-linejoin:round;stroke-width:2px;}.cls-2{stroke:#295183;}.cls-3{fill:#295183;}.cls-4{stroke:#295181;}</style></defs><title>wireless, speaker, remote, audio</title><g id="Layer_4" data-name="Layer 4"><path class="cls-1" d="M20,14.91s3.78.59,1.53,7.09a20.77,20.77,0,0,0-.41,12.14s-7,7.37,2.53,10.61c0,0,6.75-.06,4.34,4.78H16.29s-2.21,1.34-2.21-6.1.42-27.82.42-27.82Z"/><path class="cls-1" d="M39.63,27.16s4.14,1.71,2.78,7.79-1,9,2.31,11.42-2.05,4.69-4.06,3.16-4.83-1.62-4.64-9S35.77,27.16,39.63,27.16Z"/><path class="cls-2" d="M33.3,17.12v30.2a2.21,2.21,0,0,1-2.21,2.21H16.29a2.21,2.21,0,0,1-2.21-2.21V17.12a2.21,2.21,0,0,1,2.21-2.21H28.08"/><circle class="cls-2" cx="23.68" cy="39.14" r="5.61"/><path class="cls-2" d="M26.36,39.14a2.67,2.67,0,1,1-2.67-2.67"/><circle class="cls-3" cx="23.68" cy="39.16" r="1"/><path class="cls-2" d="M26.36,23.92a2.67,2.67,0,1,1-2.67-2.67"/><circle class="cls-3" cx="23.68" cy="23.94" r="1"/><circle class="cls-3" cx="43.07" cy="43.66" r="1"/><circle class="cls-3" cx="31.38" cy="14.91" r="1"/><path class="cls-2" d="M49.3,30.23a6.79,6.79,0,0,1,.62,2.84V43.24a6.87,6.87,0,0,1-6.85,6.85h0a6.87,6.87,0,0,1-6.85-6.85V33.07a6.87,6.87,0,0,1,6.85-6.85h0a6.79,6.79,0,0,1,3.38.9"/><path class="cls-4" d="M41.43,41.17a2.33,2.33,0,0,1,3.3,0"/><path class="cls-4" d="M40.2,39a4.06,4.06,0,0,1,5.74,0"/><path class="cls-4" d="M39,36.92a5.73,5.73,0,0,1,8.1,0"/></g></svg>