<svg xmlns="http://www.w3.org/2000/svg" viewBox="0 0 64 64"><defs><style>.cls-1{fill:#a8d2f0;}.cls-2{fill:#389ad6;}.cls-3,.cls-4{fill:none;stroke-linecap:round;stroke-linejoin:round;stroke-width:2px;}.cls-3{stroke:#295183;}.cls-4{stroke:#295181;}.cls-5{fill:#295181;}</style></defs><title>wireless, water, heater, boiler</title><g id="Layer_4" data-name="Layer 4"><path class="cls-1" d="M26.61,17.87c1.77.21,2.29,2.39,2.58,3.83a19.24,19.24,0,0,1,.28,7c-.3,1.88-.8,3.71-1.18,5.58-.43,2.16-.85,4.56.75,6.36a5,5,0,0,0,6.15.88c2.36-1.41,2.07-4.65,3.23-6.83a1.34,1.34,0,0,1,1-.83,1.17,1.17,0,0,1,1,.62c1.55,2.44,2.74,5.8,2.29,8.71-.32,2.06,2.18,4.42-9.13,4.42S17.71,50.29,18.9,38.29s2.25-11.75,2.25-11.75l-4.57-4.25s5.19,1.09,6.57-1.45c.64-1.19,1.71-3,3.27-3Z"/><path class="cls-2" d="M21.25,29.34A2.6,2.6,0,0,1,24,29c1.07.56,1.24,2,1.15,3.2-.24,3.24-2.31,7.38-.25,10.41a5.31,5.31,0,0,0,2.45,1.85,10,10,0,0,0,6.47.36c1.43-.43,2.85-1,4.37-.62.79.19,1.9.75,1.71,1.78-.13.73-.94,1.1-1.66,1.26a21.27,21.27,0,0,1-3.48.35c-4.22.23-8.52,1-12.64,0a5.44,5.44,0,0,1-3.75-2.41,6.18,6.18,0,0,1-.31-3.59,51.77,51.77,0,0,1,1.56-7.81,29.52,29.52,0,0,1,1.3-3.92A1.43,1.43,0,0,1,21.25,29.34Z"/><path class="cls-3" d="M22.43,23.61l-.2.51a59.5,59.5,0,0,0-3.07,12.36A48.5,48.5,0,0,0,18.48,44v.2a3.36,3.36,0,0,0,3.36,3.35h18a3.36,3.36,0,0,0,3.36-3.36V44a48.52,48.52,0,0,0-.68-7.55A59.51,59.51,0,0,0,39.5,24.12c-1.23-3.2-4-8.09-8.1-8.13H30.33c-2.78,0-5,2.35-6.49,4.84"/><path class="cls-3" d="M21.15,27.27s-2.89-4.57-4.57-4.57h2.76"/><line class="cls-3" x1="23.83" y1="20.84" x2="32.01" y2="20.84"/><path class="cls-3" d="M37.9,20.84H44a3.45,3.45,0,0,1,3.41,4L45.69,35.56"/><path class="cls-4" d="M28.34,37.42a3.57,3.57,0,0,1,5,0"/><path class="cls-4" d="M26.47,34.14a6.21,6.21,0,0,1,8.79,0"/><path class="cls-4" d="M24.67,30.92a8.76,8.76,0,0,1,12.4,0"/><circle class="cls-5" cx="30.86" cy="40.52" r="1"/></g></svg>