<svg xmlns="http://www.w3.org/2000/svg" viewBox="0 0 64 64"><defs><style>.cls-1{fill:#a8d2f0;}.cls-2,.cls-3{fill:none;stroke-linecap:round;stroke-linejoin:round;stroke-width:2px;}.cls-2{stroke:#295183;}.cls-3{stroke:#295181;}.cls-4{fill:#295181;}</style></defs><title>wireless, electricity, socket, electric</title><g id="Layer_4" data-name="Layer 4"><path class="cls-1" d="M26.56,31.32s5.75-1.36,4.94,4,.48,6.93,3.58,7.8,4,3.19,0,3.63-18.21,2.1-18-5S15,30.63,26.56,31.32Z"/><rect class="cls-2" x="17.04" y="31.32" width="29.91" height="15.17" rx="4.69" ry="4.69"/><line class="cls-2" x1="28.84" y1="35.32" x2="28.84" y2="37.56"/><line class="cls-2" x1="23.37" y1="35.32" x2="23.37" y2="37.56"/><path class="cls-2" d="M24.39,42.48a1.66,1.66,0,0,1,3.32,0"/><path class="cls-2" d="M40.24,39v1.88a1.57,1.57,0,0,1-1.57,1.57h-2a1.57,1.57,0,0,1-1.57-1.57v-4a1.57,1.57,0,0,1,1.57-1.57h2"/><path class="cls-3" d="M29.41,24.68a3.66,3.66,0,0,1,5.18,0"/><path class="cls-3" d="M27.56,22.44a6.38,6.38,0,0,1,9,0"/><path class="cls-3" d="M25.64,20.15a9,9,0,0,1,12.73,0"/><circle class="cls-4" cx="32" cy="26.48" r="1"/></g></svg>