<svg xmlns="http://www.w3.org/2000/svg" viewBox="0 0 64 64"><defs><style>.cls-1{fill:#a8d2f0;}.cls-2{fill:#3897d3;}.cls-3,.cls-4,.cls-5{fill:none;}.cls-3{stroke:#295183;}.cls-3,.cls-5{stroke-linecap:round;stroke-linejoin:round;stroke-width:2px;}.cls-5{stroke:#295181;}</style></defs><title>wirelss, shower, bathtub, bathroom</title><g id="Layer_4" data-name="Layer 4"><path class="cls-1" d="M36.31,38.9a3.84,3.84,0,0,0-.57.57L13,38.92a3,3,0,0,0-.77-.52s-6-6.74,21-4.62C33.28,33.78,40.31,35.65,36.31,38.9Z"/><path class="cls-2" d="M36.31,53.18c-10.51.83-18.88-.92-20-7.28-.78-4.27-2.33-6.19-3.26-7l22.72.55c-1.58,1.82-1.59,4.65-.71,6.8,1.45,3.5,4.81,3.48,7.76,2.1.81-.39,4-2.28,4.62-.84C48.31,49.52,46.82,52.35,36.31,53.18Z"/><path class="cls-3" d="M44.74,39.54H15.13a2.88,2.88,0,0,1,0-5.76H49.44a2.88,2.88,0,0,1,1.11,5.53,1.94,1.94,0,0,0-1.23,1.56l-.4,3.78a8.55,8.55,0,0,1-8.53,8.53H25a8.58,8.58,0,0,1-6.29-2.78c-1.83-2-2.14-4.33-2.36-6.92"/><path class="cls-3" d="M16.28,33.78V16.29a5.68,5.68,0,0,1,5.66-5.66h0a5.68,5.68,0,0,1,5.66,5.66h2.71"/><line class="cls-3" x1="30.31" y1="19.4" x2="30.31" y2="22.9"/><line class="cls-3" x1="27.28" y1="23.4" x2="27.28" y2="26.9"/><line class="cls-4" x1="38.7" y1="39.54" x2="35.74" y2="39.47"/><line class="cls-4" x1="13.02" y1="38.92" x2="12.31" y2="38.9"/><path class="cls-5" d="M39.44,27a3.66,3.66,0,0,1,5.18,0"/><path class="cls-5" d="M37.59,24.74a6.38,6.38,0,0,1,9,0"/><path class="cls-5" d="M35.66,22.46a9,9,0,0,1,12.73,0"/></g></svg>