<svg xmlns="http://www.w3.org/2000/svg" viewBox="0 0 64 64"><defs><style>.cls-1{fill:#a8d2f0;}.cls-2{fill:#389ad6;}.cls-3,.cls-5{fill:none;stroke-linecap:round;stroke-linejoin:round;stroke-width:2px;}.cls-3{stroke:#295183;}.cls-4{fill:#295183;}.cls-5{stroke:#295181;}</style></defs><title>wirelss, washing, machine, smart home</title><g id="Layer_4" data-name="Layer 4"><path class="cls-1" d="M23,19.41a3.81,3.81,0,0,1,1.61,4.24c-.83,2.72-2,10-1.61,10.66,0,0-2.49,5-.85,8.21S29.65,49,32.66,49s3.48,2.93,2.55,3.73-18.69,0-18.69,0-1.25,1.73-.93-13.42S14.19,20.42,17.1,19.92A39.35,39.35,0,0,1,23,19.41Z"/><path class="cls-2" d="M15.54,45.57c.11-.62,2.34,5.06,5.53,5s4.91.33,4.65,1.24S13.48,57.2,15.54,45.57Z"/><path class="cls-1" d="M28.65,33.83a2.1,2.1,0,0,1,.76,1,2.43,2.43,0,0,1-.24,2.27c-.49.65-1.37,1-1.57,1.83a1.67,1.67,0,0,0,.62,1.64s2.48,3.53-1.48,3.09a4.74,4.74,0,0,1-3.88-4c-.43-2.65,2-5,4.25-5.89a1.93,1.93,0,0,1,1.1-.14A1.31,1.31,0,0,1,28.65,33.83Z"/><path class="cls-3" d="M40,21.53V50.7a2,2,0,0,1-2,2H17.6a2,2,0,0,1-2-2V26.6a3,3,0,0,1,3-3H36.77"/><path class="cls-3" d="M27.69,32.33a6.62,6.62,0,1,0,3.94,1.3"/><path class="cls-3" d="M27.69,42.89A3.94,3.94,0,0,0,31.62,39"/><path class="cls-3" d="M27.69,35A3.94,3.94,0,0,0,23.75,39"/><path class="cls-3" d="M40,21.53a2.12,2.12,0,0,0-2.12-2.12H17.7a2.12,2.12,0,0,0-2.12,2.12"/><circle class="cls-4" cx="36.01" cy="27.28" r="1"/><line class="cls-3" x1="32.79" y1="27.28" x2="25.32" y2="27.28"/><path class="cls-5" d="M39.16,16.46a3.66,3.66,0,0,1,3.66,3.66"/><path class="cls-5" d="M39.44,13.56a6.38,6.38,0,0,1,6.38,6.38"/><path class="cls-5" d="M39.7,10.59a9,9,0,0,1,9,9"/></g></svg>