<svg xmlns="http://www.w3.org/2000/svg" viewBox="0 0 64 64"><defs><style>.cls-1{fill:#a5cfed;}.cls-2{fill:none;stroke:#2a5081;stroke-linecap:round;stroke-linejoin:round;stroke-width:2px;}.cls-3{fill:#2a5081;}</style></defs><title>wireless, lights, home, house</title><g id="Layer_4" data-name="Layer 4"><path class="cls-1" d="M31.91,17.8c-1.44,3.11-2.91,6.43-2.51,9.83a5.12,5.12,0,0,1,0,1.94,5.32,5.32,0,0,0-.25.85c-.05.53.26,1,.3,1.56a4.48,4.48,0,0,1-.62,1.93,4.72,4.72,0,0,0-.35,2c0,.19.51,2.08.54,2.08a1,1,0,0,1-.55-.09c1.16.53,1.25,2,1.24,3.15a9.74,9.74,0,0,1-.44,3.36,3.84,3.84,0,0,1-2.26,2.39,3.7,3.7,0,0,1-3.68-1.09,7.29,7.29,0,0,1-1.71-3.61c-.82-3.82-.07-7.79-.18-11.7a2.38,2.38,0,0,0-.35-1.4c-.51-.67-1.52-.64-2.36-.55,4-4,8.12-8.09,13.15-10.72Z"/><path class="cls-2" d="M21.29,28.53H18a.27.27,0,0,1-.16-.47l14-11a.27.27,0,0,1,.33,0l14,11a.27.27,0,0,1-.16.47H42"/><line class="cls-2" x1="21.29" y1="41.05" x2="21.29" y2="28.53"/><polyline class="cls-2" points="31.71 38.41 31.71 44.88 42 45.05 42 28.53"/><circle class="cls-3" cx="21.29" cy="44.13" r="1"/><circle class="cls-2" cx="31.71" cy="35.77" r="2.64"/><circle class="cls-3" cx="33.35" cy="30.14" r="0.97"/><circle class="cls-3" cx="30.07" cy="30.14" r="0.97"/><circle class="cls-3" cx="37.14" cy="37.37" r="0.97"/><circle class="cls-3" cx="37.14" cy="34.09" r="0.97"/><circle class="cls-3" cx="26.14" cy="34.06" r="0.97"/><circle class="cls-3" cx="26.14" cy="37.34" r="0.97"/></g></svg>