<svg xmlns="http://www.w3.org/2000/svg" viewBox="0 0 64 64"><defs><style>.cls-1{fill:#a5cfed;}.cls-2{fill:#3897d3;}.cls-3,.cls-6{fill:none;stroke-linecap:round;stroke-linejoin:round;stroke-width:2px;}.cls-3{stroke:#2a5081;}.cls-4{fill:#2a5081;}.cls-5{fill:#9ac8f1;}.cls-6{stroke:#295181;}</style></defs><title>wireless, touch, home, smart home</title><g id="Layer_4" data-name="Layer 4"><path class="cls-1" d="M31.9,16.29c-1,2.41-2.25,4.73-2.43,7.39a2.69,2.69,0,0,1-.17,1c-.32.69-1.13.89-1.73,1.24a7.19,7.19,0,0,0-1.85,1.58A7.34,7.34,0,0,0,24,31.7a4,4,0,0,0,1.32,3.48c1,.71,2.36.71,3.29,1.49A4.28,4.28,0,0,1,29.75,40a7.61,7.61,0,0,1-.61,3.32,3.7,3.7,0,0,1-2.51,2.11,3.63,3.63,0,0,1-3.13-1.08,6.8,6.8,0,0,1-1.64-3c-1.17-4-.23-8.31-.39-12.5a2.35,2.35,0,0,0-.37-1.39c-.52-.66-1.52-.61-2.35-.5,4-4,8.14-8.09,13.17-10.75Z"/><path class="cls-2" d="M30.54,34.66a4.93,4.93,0,0,0-3,4.58c-.33,0-4,1.71-3.21,5s4.54,3.16,4.92,3-2.81-2.37-1.86-4.12,2.11-.78,2.11-.78Z"/><path class="cls-3" d="M21.29,27H18a.27.27,0,0,1-.16-.47l14-11a.27.27,0,0,1,.33,0l14,11A.27.27,0,0,1,46,27H42"/><line class="cls-3" x1="21.29" y1="39.54" x2="21.29" y2="27.02"/><polyline class="cls-3" points="42 27.02 42 43.55 37.56 43.55"/><path class="cls-3" d="M37.56,32.94A5.91,5.91,0,0,0,31.65,27h0a5.91,5.91,0,0,0-5.91,5.92"/><circle class="cls-4" cx="21.29" cy="42.62" r="1"/><path class="cls-5" d="M32,27l-.18,0,.09,0Z"/><path class="cls-3" d="M34.61,33.45a3,3,0,0,0-3-3h0a3,3,0,0,0-3,3"/><path class="cls-5" d="M31.84,30.48l-.09,0h0Z"/><path class="cls-6" d="M34.41,48.47H36a1.3,1.3,0,0,0,1.3-1.3V42.34a3.26,3.26,0,0,0-3.25-3.25h-.72l-.36,0V36.75a1.44,1.44,0,0,0-1.37-1.44,1.5,1.5,0,0,0-1.51,1.52v6.11"/><path class="cls-6" d="M30.11,43.16l-.93-.93a1.45,1.45,0,0,0-2-.05,1.5,1.5,0,0,0,0,2.15l2.92,2.92"/><path class="cls-1" d="M31.75,33.16c.23.23.47.56.83.48a.67.67,0,0,0,.47-.35.68.68,0,0,0-.09-.65,1.84,1.84,0,0,0-2.26-.39,1.33,1.33,0,0,0-.76,1.08c0,.18.07.4.25.41a.39.39,0,0,0,.25-.1c.23-.17.37-.44.6-.61a.48.48,0,0,1,.65.07Z"/></g></svg>