<svg xmlns="http://www.w3.org/2000/svg" viewBox="0 0 64 64"><defs><style>.cls-1,.cls-5{fill:none;stroke-linecap:round;stroke-linejoin:round;stroke-width:2px;}.cls-1{stroke:#295181;}.cls-2{fill:#295181;}.cls-3{fill:#389ad6;}.cls-4{fill:#9ac8f1;}.cls-5{stroke:#295183;}.cls-6{fill:#295183;}</style></defs><title>wireless, headset, headphone, audio</title><g id="Layer_4" data-name="Layer 4"><path class="cls-1" d="M29.51,36.49a3.57,3.57,0,0,1,5,0"/><path class="cls-1" d="M27.64,33.2a6.21,6.21,0,0,1,8.79,0"/><path class="cls-1" d="M25.83,30a8.76,8.76,0,0,1,12.4,0"/><circle class="cls-2" cx="32.03" cy="39.59" r="1"/><path class="cls-3" d="M18.34,32.44a5.1,5.1,0,0,0-3.53,2.33c-1.07,2,.06,6,.8,6.6a21.4,21.4,0,0,0,2.72,1.7s1.07-.88,1-1.84-1-8.62-1-8.62"/><path class="cls-4" d="M42.37,36.94s3.92.21,3.5,5.08-4,2.17-4.25-.92S42.37,36.94,42.37,36.94Z"/><path class="cls-4" d="M17.45,32.73s3.92.38,4,3.63,1,7.63-2,7.67c0,0-1.52,0-1.19-8.67S17.45,32.73,17.45,32.73Z"/><path class="cls-5" d="M46.23,43.07a2.19,2.19,0,0,1-4.33-.49V33.51A2.19,2.19,0,0,1,45.64,32a2.16,2.16,0,0,1,.62,1.26,2.64,2.64,0,0,1,0,.29v4.95"/><path class="cls-5" d="M49.47,38.13a5.38,5.38,0,0,1-3.24,4.94"/><circle class="cls-6" cx="49.47" cy="35.36" r="1"/><path class="cls-5" d="M17.77,43.07a2.19,2.19,0,0,0,4.33-.49V33.51A2.19,2.19,0,0,0,18.36,32a2.16,2.16,0,0,0-.62,1.26,2.64,2.64,0,0,0,0,.29v4.95"/><path class="cls-5" d="M14.53,38.13a5.38,5.38,0,0,0,3.24,4.94"/><circle class="cls-6" cx="14.53" cy="35.36" r="1"/><path class="cls-5" d="M46.28,33.51a14.28,14.28,0,0,0-28.57,0"/></g></svg>