<svg xmlns="http://www.w3.org/2000/svg" viewBox="0 0 64 64"><defs><style>.cls-1{fill:#3897d3;}.cls-2{fill:#a5cfed;}.cls-3,.cls-4,.cls-5{fill:none;stroke-linecap:round;stroke-linejoin:round;stroke-width:2px;}.cls-3{stroke:#a5cfed;}.cls-4{stroke:#295181;}.cls-5{stroke:#295183;}.cls-6{fill:#295181;}</style></defs><title>wireless, lock, security, smart home</title><g id="Layer_4" data-name="Layer 4"><path class="cls-1" d="M19.28,27.05h.65a4.84,4.84,0,0,1,4.84,4.84V49.25a0,0,0,0,1,0,0H19.28a4.84,4.84,0,0,1-4.84-4.84V31.89A4.84,4.84,0,0,1,19.28,27.05Z"/><path class="cls-2" d="M39.41,44.35v.07a4.85,4.85,0,0,1-4.84,4.83H22.91a17.36,17.36,0,0,1-1.31-22.2h7.05a12.54,12.54,0,0,0-.89,4.67A12.68,12.68,0,0,0,39.41,44.35Z"/><path class="cls-3" d="M20.79,22.08A6,6,0,0,1,27,16.31h0a6,6,0,0,1,6.18,5.77"/><path class="cls-4" d="M14.69,30.35a4.77,4.77,0,0,0-.25,1.54V44.42a4.84,4.84,0,0,0,4.83,4.83h15.3a4.85,4.85,0,0,0,4.84-4.83V31.89a4.85,4.85,0,0,0-4.84-4.84H19.27"/><path class="cls-4" d="M19.27,27.05V22.48A7.75,7.75,0,0,1,27,14.75h0a7.75,7.75,0,0,1,7.73,7.73"/><path class="cls-5" d="M28.49,39.28l.77,5.39h-4.5l.77-5.39A3,3,0,1,1,30,36.67"/><circle class="cls-6" cx="16.3" cy="28" r="1"/><path class="cls-4" d="M38.8,24.82a3.57,3.57,0,0,1,3.57,3.57"/><path class="cls-4" d="M39.8,21.17A6.21,6.21,0,0,1,46,27.38"/><path class="cls-4" d="M40.8,17.62a8.76,8.76,0,0,1,8.76,8.76"/></g></svg>