<svg xmlns="http://www.w3.org/2000/svg" viewBox="0 0 64 64"><defs><style>.cls-1{fill:#a5cfed;}.cls-2,.cls-5{fill:none;stroke-linecap:round;stroke-linejoin:round;stroke-width:2px;}.cls-2{stroke:#2a5081;}.cls-3{fill:#2a5081;}.cls-4{fill:#3897d3;}.cls-5{stroke:#295181;}</style></defs><title>wireless, home, lock, security, safety</title><g id="Layer_4" data-name="Layer 4"><path class="cls-1" d="M32,21c-1.44,3.11-2.91,6.43-2.51,9.83a5.12,5.12,0,0,1,0,1.94,5.32,5.32,0,0,0-.25.85c-.05.53.26,1,.3,1.56a4.48,4.48,0,0,1-.62,1.93,4.72,4.72,0,0,0-.35,2c0,.19.51,2.08.54,2.08a1,1,0,0,1-.55-.09c1.16.53,1.25,2,1.24,3.14a9.75,9.75,0,0,1-.44,3.36,3.84,3.84,0,0,1-2.26,2.39A3.7,3.7,0,0,1,23.42,49a7.29,7.29,0,0,1-1.71-3.61c-.82-3.82-.07-7.79-.18-11.7a2.38,2.38,0,0,0-.35-1.4c-.51-.67-1.52-.64-2.36-.55,4-4,8.12-8.09,13.15-10.72Z"/><path class="cls-2" d="M21.33,31.77H18a.27.27,0,0,1-.16-.47l14-11a.27.27,0,0,1,.33,0l14,11a.27.27,0,0,1-.16.47H42"/><line class="cls-2" x1="21.33" y1="44.29" x2="21.33" y2="31.77"/><polyline class="cls-2" points="42.04 31.77 42.04 48.29 25.69 48.29"/><circle class="cls-3" cx="21.33" cy="47.37" r="1"/><path class="cls-4" d="M29.45,33.6l-.05.07a1.79,1.79,0,0,0-.19.48c-.33,1-1.32,1.44-2.15,2A4,4,0,0,0,25.4,39c-.27,1.74-.29,4.42,1.66,5.21a10.22,10.22,0,0,0,2.5.64c1.44.19,3.69.17,4.21-1.54.9-2.93-3.38-.43-3.86-.54-.91-.2-1.62-1.75-1.84-2.51-.66-2.39,1-4.11,2-6.06a2.14,2.14,0,0,0,.27-.7.24.24,0,0,0-.07-.24.26.26,0,0,0-.23,0A1.47,1.47,0,0,0,29.45,33.6Z"/><path class="cls-4" d="M29.44,42.64h1.48V37.76a1.48,1.48,0,0,0-1.48-1.48h0A1.48,1.48,0,0,0,28,37.76v3.4A1.48,1.48,0,0,0,29.44,42.64Z"/><path class="cls-1" d="M35.12,41.24v0a1.39,1.39,0,0,1-1.39,1.38H30.39A5,5,0,0,1,30,36.28h2a3.6,3.6,0,0,0-.25,1.34A3.64,3.64,0,0,0,35.12,41.24Z"/><path class="cls-5" d="M28,39.66v1.59a1.39,1.39,0,0,0,1.38,1.38h4.39a1.39,1.39,0,0,0,1.39-1.38V37.66a1.39,1.39,0,0,0-1.39-1.39H29.34"/><path class="cls-5" d="M29.34,36.28V35a2.22,2.22,0,0,1,2.22-2.22h0A2.22,2.22,0,0,1,33.78,35"/><path class="cls-5" d="M40.88,21a3.57,3.57,0,0,1,3.57,3.57"/><path class="cls-5" d="M41.88,17.33a6.21,6.21,0,0,1,6.21,6.21"/><path class="cls-5" d="M42.88,13.78a8.76,8.76,0,0,1,8.76,8.76"/><path class="cls-5" d="M23.12,21a3.57,3.57,0,0,0-3.57,3.57"/><path class="cls-5" d="M22.12,17.33a6.21,6.21,0,0,0-6.21,6.21"/><path class="cls-5" d="M21.12,13.78a8.76,8.76,0,0,0-8.76,8.76"/></g></svg>