<svg xmlns="http://www.w3.org/2000/svg" viewBox="0 0 64 64"><defs><style>.cls-1{fill:#9ac8f1;}.cls-2,.cls-3{fill:none;stroke-linecap:round;stroke-linejoin:round;stroke-width:2px;}.cls-2{stroke:#295183;}.cls-3{stroke:#295181;}</style></defs><title>wireless, sink, tap, kitchen</title><g id="Layer_4" data-name="Layer 4"><path class="cls-1" d="M29,13.29a8.86,8.86,0,0,0,3.55,2.47c2.45,1,7.67.5,7.67.5s2.33,9,3.83,11.17S47.49,53.59,31,50.76c0,0-5.23-4.67,1.39-6.67s.16-6.22-.61-4.77-.39,5.44-.39,5.44l9.17-2s2.33-1.67,1.79-7.58-.54-16.42-.54-16.42L37,15.26l-6.61,2.42-.53,5.08-5.63-2.5Z"/><path class="cls-2" d="M25,21.76a11,11,0,0,1,11-11h0a11,11,0,0,1,11,11V44.09"/><path class="cls-2" d="M42.39,37.6V21.91a6.17,6.17,0,0,0-6.15-6.15h-.32a6.17,6.17,0,0,0-6.15,6.15H25"/><path class="cls-2" d="M47,44.09v6.67H31.88a3.34,3.34,0,0,1-3.33-3.33h0a3.34,3.34,0,0,1,3.33-3.33H40V41.83a4.5,4.5,0,0,0-4.49-4.49h0a4.5,4.5,0,0,0-4.39,3.58"/><line class="cls-2" x1="35.53" y1="37.34" x2="24.27" y2="34.43"/><path class="cls-3" d="M24.12,49.47a3.66,3.66,0,0,1,0-5.18"/><path class="cls-3" d="M21.87,51.32a6.38,6.38,0,0,1,0-9"/><path class="cls-3" d="M19.59,53.24a9,9,0,0,1,0-12.73"/></g></svg>