<svg xmlns="http://www.w3.org/2000/svg" viewBox="0 0 64 64"><defs><style>.cls-1{fill:#9ac8f1;}.cls-2{fill:#3897d3;}.cls-3,.cls-5,.cls-6{fill:none;stroke-linecap:round;stroke-linejoin:round;stroke-width:2px;}.cls-3{stroke:#2a5081;}.cls-4{fill:#2a5081;}.cls-5{stroke:#295181;}.cls-6{stroke:#295183;}</style></defs><title>wireless, door, handle, key, lock</title><g id="Layer_4" data-name="Layer 4"><path class="cls-1" d="M23.13,12.63s8.28,2.46,3.72,10.92c0,0-7.13,2.17-.36,9.31s-1.62,19-1.62,19-7.52.07-7.86-9.35S14.17,15.26,23.13,12.63Z"/><path class="cls-2" d="M25.76,23.85s-9.09,3.38-6.17,9,9.89,6.08,18.7-2.39L25.76,30S22.1,26,25.76,23.85Z"/><path class="cls-1" d="M31.09,23.85S28.73,26,32.29,27s3.64,3.27,1.39,3.24-11.41,1.4-10.08-3.83S31.09,23.85,31.09,23.85Z"/><path class="cls-3" d="M36,36.47v6a9.49,9.49,0,1,1-19,0v-21a9.49,9.49,0,0,1,19,0v2H27.2A3.48,3.48,0,0,0,23.73,27h0a3.48,3.48,0,0,0,3.47,3.47H44.09A3.48,3.48,0,0,0,47.56,27h0a3.48,3.48,0,0,0-3.47-3.47H39.73"/><path class="cls-3" d="M28.39,33.25H27.21A6.27,6.27,0,0,1,21,27h0a6.27,6.27,0,0,1,6.25-6.25h1.18"/><circle class="cls-4" cx="36.01" cy="33.69" r="1"/><path class="cls-5" d="M39.48,36.56a3.57,3.57,0,0,1,0,5"/><path class="cls-5" d="M42.76,34.69a6.21,6.21,0,0,1,0,8.79"/><path class="cls-6" d="M28.32,43.95l.48,3.35H24.7l.7-4.92A2.74,2.74,0,1,1,29.49,40"/></g></svg>