<svg id="Layer_1" data-name="Layer 1" xmlns="http://www.w3.org/2000/svg" viewBox="0 0 64 64"><defs><style>.cls-1,.cls-2,.cls-4,.cls-5{fill:none;stroke-linecap:round;stroke-linejoin:round;stroke-width:2px;}.cls-1{stroke:#000;}.cls-2,.cls-4{stroke:#295183;}.cls-2{stroke-dasharray:3 4 6 8 0;}.cls-3{fill:#9ac8f1;}.cls-5{stroke:#2a5081;}.cls-6{fill:#389ad6;}.cls-7{fill:#295183;}</style></defs><title>World</title><path class="cls-1" d="M39.59,16.44a20.68,20.68,0,0,0-8.16-2.29A17.69,17.69,0,0,1,39.59,16.44Z"/><path class="cls-2" d="M35.94,21.37a28.21,28.21,0,0,0-5.18-.47V43.46"/><path class="cls-3" d="M31.79,50.18l-.62,0-.4,0H30.4A18,18,0,0,1,12.73,32.6c0-.14,0-.28,0-.42s0-.28,0-.42A18,18,0,0,1,22.92,15.92a27.16,27.16,0,0,0,8.87,34.25Z"/><path class="cls-4" d="M36.24,16.5a8.33,8.33,0,0,0-1.1-.9,3.67,3.67,0,0,0-.38-.25,8.47,8.47,0,0,0-1.17-.57,5.53,5.53,0,0,0-.58-.24l-.12,0-.26-.09-.25-.07a6.19,6.19,0,0,0-1.17-.2H30.4A18,18,0,0,0,12.73,31.75c0,.14,0,.28,0,.42s0,.28,0,.42A18,18,0,0,0,30.4,50.22h.37l.4,0,.62,0a17.69,17.69,0,0,0,2.72-.35"/><path class="cls-4" d="M30.77,20.9V43.46A26.7,26.7,0,0,1,21.84,42c-5.27-1.87-8.87-5.36-9.11-9.38,0-.14,0-.28,0-.42s0-.28,0-.42a8.42,8.42,0,0,1,2.36-5.18,13.7,13.7,0,0,1,2.57-2.16,18,18,0,0,1,2.2-1.23,21.19,21.19,0,0,1,2-.82A24.76,24.76,0,0,1,26,21.29,28.4,28.4,0,0,1,30.77,20.9Z"/><path class="cls-4" d="M30.77,20.9V43.46A28.21,28.21,0,0,0,35.94,43"/><path class="cls-5" d="M31.17,50.21l-.4,0H30.4C26.81,50,23.68,46.78,21.84,42a27.67,27.67,0,0,1-1.71-9.81,27.67,27.67,0,0,1,1.71-9.81c1.83-4.8,5-8,8.56-8.23"/><path class="cls-3" d="M40,28.18s1.81-.82,1.87,1.15-3.25,2.34-2.37,6,3.69,4.38,3.56,5.94-6.19-2.5-6.19-2.5S35.69,31.11,40,28.18Z"/><path class="cls-6" d="M44.41,43.43c-1,1.81-2.35,2.64-2.59,2.13-.55-1.19-3.87-3.38-3.87-3.38-2.29-1.38-4.52-3.35-4.64-6.2a11.19,11.19,0,0,1,2.93-7.8c1.39-1.65,1.39-2.9,1.21-4.85a11.43,11.43,0,0,0-2.39-5.93,7.8,7.8,0,0,0-.84-.92,1.91,1.91,0,0,0-.23-.21l-.12-.09a4.28,4.28,0,0,0-.72-.55,1,1,0,0,1,.72-1.83,1.86,1.86,0,0,1,.31.1,8.54,8.54,0,0,1,1.13.61c.08,0,.25.16.41.27a8.38,8.38,0,0,1,1.21,1,16.06,16.06,0,0,1,3.74,6.28c.21.58.39,1.18.57,1.78,0,0,0,.09,0,.1.27,1,.51,2,.7,3l0,.2a2.71,2.71,0,0,1,.06.38c0,.14,0,.28.07.41-.65-1.58-1.39-3-2.07-4.59a7.22,7.22,0,0,1-.63,5c-1,2-2.41,3.32-3,5.52-.63,2.5,0,5.12,2.6,6.13A15.8,15.8,0,0,1,44.41,43.43Z"/><polyline class="cls-4" points="30.77 14.13 30.77 20.89 30.77 43.45 30.77 50.22"/><path class="cls-4" d="M30.79,14.13h.64a20.67,20.67,0,0,1,8.16,2.29l.53.3a16.42,16.42,0,0,1,5.58,5.18"/><path class="cls-6" d="M41.89,27.78s3.45,8.32.93,8.42c-1.15,0-.66-1.56-1.06-3.68A37,37,0,0,0,40,26.85Z"/><path class="cls-4" d="M40.3,24.19l0-.08c-.17-.58-.35-1.16-.55-1.72a15.27,15.27,0,0,0-3.48-5.89,8.33,8.33,0,0,0-1.1-.9,3.67,3.67,0,0,0-.38-.25,6.71,6.71,0,0,0-1-.53l-.11,0h0a6.76,6.76,0,0,0-1-.36l-.25-.07a8.33,8.33,0,0,0-1.41-.2h-.21"/><path class="cls-4" d="M44,35.3A21.83,21.83,0,0,0,43,30.43c-.27-.87-.58-1.69-.91-2.48-.65-1.58-1.39-3-2.07-4.59"/><path class="cls-4" d="M40,23.36a7.22,7.22,0,0,1-.63,5c-1,2-2.41,3.32-3,5.52-.63,2.5,0,5.12,2.6,6.13a15.8,15.8,0,0,1,5.34,3.38,11.61,11.61,0,0,1,2.3,3c9.31-11.35,2-16.81-1.21-18.53"/><circle class="cls-7" cx="47.44" cy="25" r="1"/></svg>