<?xml version="1.0" encoding="UTF-8"?>
<svg width="22px" height="22px" viewBox="0 0 22 22" version="1.1" xmlns="http://www.w3.org/2000/svg" xmlns:xlink="http://www.w3.org/1999/xlink">
    <!-- Generator: Sketch 50.2 (55047) - http://www.bohemiancoding.com/sketch -->
    <title>check-colored</title>
    <desc>Created with Sketch.</desc>
    <defs>
        <linearGradient x1="0%" y1="0%" x2="100%" y2="100%" id="linearGradient-1">
            <stop stop-color="#8BC052" offset="0%"></stop>
            <stop stop-color="#4DAA69" offset="100%"></stop>
        </linearGradient>
    </defs>
    <g id="Symbols" stroke="none" stroke-width="1" fill="none" fill-rule="evenodd">
        <g id="check-colored">
            <g>
                <circle id="Oval" fill="url(#linearGradient-1)" cx="11" cy="11" r="11"></circle>
                <path d="M14.864502,7.09245102 C15.0104606,6.94649116 15.2010489,6.87502056 15.4062252,6.87502056 C15.5925349,6.87502056 15.7681139,6.93354689 15.9768629,7.09803564 L16.5734103,7.7250185 C16.7618134,7.8663206 16.8671604,8.07701488 16.8671604,8.31251833 C16.8671604,8.52811127 16.7801997,8.72377303 16.626964,8.87700872 L9.59573078,15.908242 C9.45044243,16.0535303 9.25985409,16.1250009 9.05467783,16.1250009 C8.86836811,16.1250009 8.69278913,16.0664746 8.48886576,15.9069153 L5.42656113,12.8140713 C5.23815798,12.6727692 5.13281099,12.4620749 5.13281099,12.2265715 C5.13281099,12.0109786 5.21977169,11.8153168 5.37300738,11.6620811 L6.02925581,11.0058327 C6.1824915,10.852597 6.37815326,10.7656363 6.5937462,10.7656363 C6.82924965,10.7656363 7.03994393,10.8709833 7.13479914,11.0058327 L9.05400632,12.9250398 L14.864502,7.09245102 Z" id="check" fill="#FFFFFF" fill-rule="nonzero"></path>
            </g>
        </g>
    </g>
</svg>