<?xml version="1.0" encoding="utf-8"?>
<!-- Generator: Adobe Illustrator 16.0.0, SVG Export Plug-In . SVG Version: 6.00 Build 0)  -->
<!DOCTYPE svg PUBLIC "-//W3C//DTD SVG 1.1//EN" "http://www.w3.org/Graphics/SVG/1.1/DTD/svg11.dtd">
<svg version="1.1" id="Layer_1" xmlns="http://www.w3.org/2000/svg" xmlns:xlink="http://www.w3.org/1999/xlink" x="0px" y="0px"
	 width="30px" height="30px" viewBox="0 0 30 30" enable-background="new 0 0 30 30" xml:space="preserve">
<g>
	<g>
		<path d="M20.094,23.415H9.906c-0.276,0-0.5-0.224-0.5-0.5v-1.395c0-1.374,1.118-2.492,2.492-2.492h0.466
			c0.364,0,0.665-0.275,0.709-0.629c-0.521-0.397-0.835-1.014-0.835-1.673V14.77c0-1.164,0.948-2.111,2.112-2.111h1.297
			c1.166,0,2.114,0.947,2.114,2.111v1.957c0,0.66-0.314,1.276-0.837,1.673c0.045,0.354,0.347,0.628,0.711,0.628h0.467
			c1.374,0,2.491,1.118,2.491,2.492v1.395C20.594,23.191,20.37,23.415,20.094,23.415z M10.406,22.415h9.188v-0.895
			c0-0.823-0.669-1.492-1.491-1.492h-0.467c-0.947,0-1.717-0.771-1.717-1.72v-0.175c0-0.182,0.099-0.35,0.259-0.438
			c0.36-0.198,0.583-0.569,0.583-0.969V14.77c0-0.613-0.5-1.111-1.114-1.111h-1.297c-0.613,0-1.112,0.499-1.112,1.111v1.957
			c0,0.4,0.223,0.771,0.583,0.969c0.159,0.088,0.258,0.256,0.258,0.438v0.175c0,0.948-0.769,1.72-1.715,1.72h-0.466
			c-0.823,0-1.492,0.669-1.492,1.492V22.415z"/>
	</g>
	<g>
		<g>
			<path d="M15.352,26.992h-0.707c-5.172,0-8.021-2.181-8.021-6.14v-9.397c0-0.276,0.224-0.5,0.5-0.5h15.752
				c0.276,0,0.5,0.224,0.5,0.5v9.397C23.376,24.812,20.526,26.992,15.352,26.992z M7.624,11.955v8.897
				c0,4.248,3.818,5.14,7.021,5.14h0.707c3.205,0,7.024-0.892,7.024-5.14v-8.897H7.624z"/>
		</g>
		<g>
			<path d="M21.318,9.066h-1c0-2.79-2.269-5.059-5.057-5.059h-0.522c-2.79,0-5.06,2.269-5.06,5.059h-1
				c0-3.341,2.718-6.059,6.06-6.059h0.522C18.602,3.008,21.318,5.726,21.318,9.066z"/>
		</g>
	</g>
</g>
</svg>
