<?xml version="1.0" encoding="UTF-8" standalone="no"?>
<svg
   xmlns:dc="http://purl.org/dc/elements/1.1/"
   xmlns:cc="http://creativecommons.org/ns#"
   xmlns:rdf="http://www.w3.org/1999/02/22-rdf-syntax-ns#"
   xmlns:svg="http://www.w3.org/2000/svg"
   xmlns="http://www.w3.org/2000/svg"
   viewBox="0 0 1133.8533 793.70667"
   height="793.70667"
   width="1133.8533"
   xml:space="preserve"
   id="svg2"
   version="1.1"><metadata
     id="metadata8"><rdf:RDF><cc:Work
         rdf:about=""><dc:format>image/svg+xml</dc:format><dc:type
           rdf:resource="http://purl.org/dc/dcmitype/StillImage" /></cc:Work></rdf:RDF></metadata><defs
     id="defs6" /><g
     transform="matrix(1.3333333,0,0,-1.3333333,0,793.70667)"
     id="g10"><g
       transform="scale(0.1)"
       id="g12"><path
         id="path14"
         style="fill:#ffffff;fill-opacity:1;fill-rule:nonzero;stroke:none"
         d="M 8503.94,0.0117188 H 0 V 5952.76 H 8503.94 V 0.0117188" /><path
         id="path16"
         style="fill:#d4e9f3;fill-opacity:1;fill-rule:nonzero;stroke:none"
         d="m 8380.22,2097.9 v 116.47 h -90.88 v 102.93 h -74.86 v 144.44 h -21.34 V 2317.3 h -123.02 v -102.93 h -21.39 V 2097.9 h -49.88 v 762.85 h -38.33 v 100.06 h -121.11 v -100.06 h -20.57 v 137.58 h -40.11 V 2860.75 H 7741.3 V 2280.4 h -60.48 v 111.07 h -149.7 V 2280.4 h -53.46 v 229.37 h -45.45 V 2280.4 h -45.02 v 775.97 h -64.26 v 76 H 7154.8 v 227.37 h -43.23 v -227.37 h -38.26 v -76 h -60.36 v -407.85 h -140.3 v 118.55 h -153.62 v 74.44 h -128.86 v 101.09 h -13.66 v -101.09 h -66.34 V 3047 h -48.75 v -205.49 h -27.44 v -74.44 h -209 v 823.79 h -43.56 v 111.39 h -36.25 v 109.21 h -26.25 v -109.21 h -51.25 v -111.39 h -52.5 v 275.21 h -120 v -275.21 h -44.43 v -534.49 h -83.07 v 59.69 h -176.25 v -59.69 h -108.75 v 75.75 h -377.5 v -75.75 h -69.54 v -407.85 h -168.9 l 1.14,292.61 h -90.58 v 121.19 h -58.37 v 45.71 h -192.5 v -45.71 h -33.64 v -121.19 h -82.91 l -1.4,-363 h -118.74 v 132.4 h -32.07 v 18.83 h -98.75 v -18.83 h -65.97 v 60.52 h -51.53 v 62.34 h -33.75 v 46.58 h -70 v -46.58 h -27.5 v 139.73 h -22.5 v -139.73 h -18.75 v -62.34 h -23.5 v -60.52 h -51.58 l 1.25,596.27 h -82.99 v 132.91 h -16.93 v 98.73 h -32.5 v -98.73 h -28.75 v 29.67 h -86.25 v -29.67 h -25.54 V 3306.8 h -32.87 l -1.68,-798.54 h -33.66 v 60.72 h -168.75 v -60.72 h -19.93 v 146.82 h -21.38 v -146.82 h -21.19 v 258.81 h -93.76 v 77.16 h -111.24 v 188.32 h -21.25 v -188.32 h -18.28 v -77.16 h -115.51 v 289.3 h -64.26 v 87.72 h -73.2 v 58.69 h -51.61 v 221.63 h -20.89 v -221.63 h -72.5 v -58.69 h -31.42 v -87.72 h -60.36 V 2648.52 H 2333 l 0.76,292.61 h -60.48 v 104.55 h -14.37 v 59.14 h -102.5 v -59.14 h -73.11 v -104.55 h -55.37 l -0.94,-363 h -117.2 v 102.92 h -25.02 v 74.74 H 1772.5 v -74.74 h -59.49 v 60.52 h -41.6 v 58.45 h -180 v -58.45 h -25.94 v -60.52 h -51 l 0.68,260.08 h -60.49 v 114.89 h -32.26 v 56.85 h -62.73 v 162.91 h -27.97 v -162.91 h -21.57 v -56.85 h -45.45 v -114.89 h -55.36 l -1.13,-432.87 H 978.43 v 184.13 h -27.969 v -184.13 h -65.156 v 117.35 h -21.387 v -117.35 h -40.32 v 258.81 h -74.633 v 70.17 H 598.199 v -70.17 h -56.285 v 159.35 H 495 v -159.35 h -29.539 v -648.75 h -98.777 v 69.83 h -28.442 v 94.76 h -19.215 v -94.76 H 179.555 v -69.83 h -62.274 v 164.59 H 59.6406 V 2118.32 H 0 v -728.89 h 465.461 76.453 245.746 35.938 281.682 72.38 177 56.45 612.79 62.31 234.42 9.1 158.65 60.36 296.66 17.22 340.92 19.12 262.56 72.38 176.99 56.46 612.79 62.3 346.53 49.16 173.8 60.36 754.75 44.43 300.35 29.46 620.21 27.46 140.3 60.36 289.73 24.15 354.11 244.63 12.92 505.09 v 708.47 h -123.72" /><path
         id="path18"
         style="fill:#d4e9f3;fill-opacity:1;fill-rule:nonzero;stroke:none"
         d="m 6081.95,969.07 c 0,-69.129 -316.43,-125.179 -706.79,-125.179 -390.36,0 -706.8,56.05 -706.8,125.179 0,69.13 316.44,125.16 706.8,125.16 390.36,0 706.79,-56.03 706.79,-125.16" /><path
         id="path20"
         style="fill:#30193b;fill-opacity:1;fill-rule:nonzero;stroke:none"
         d="m 5692.19,1023.41 c -2.3,18.9 -37.47,23.52 -57.44,32.81 5.68,-4.81 11.06,-11.28 0.87,-12.71 -14.91,-2.08 -44.92,13.97 -52.78,25.63 -4.58,-7.25 -8.34,-30.73 -9.28,-38.11 -1.2,-9.51 122.2,-37.151 118.63,-7.62" /><path
         id="path22"
         style="fill:#30193b;fill-opacity:1;fill-rule:nonzero;stroke:none"
         d="m 4970.77,912.988 c -9.73,16.614 48.48,46.43 63.76,51.953 -4.71,-3.8 -11.56,-11.742 -4.76,-15.281 9.95,-5.172 30.53,1.192 37.85,11.629 1.98,-8.41 1.9,-19.828 1.35,-27.617 -0.7,-10.07 -79.95,-51.82 -98.2,-20.684" /><path
         id="path24"
         style="fill:#ff97a6;fill-opacity:1;fill-rule:nonzero;stroke:none"
         d="m 5634.75,1056.22 c -12.4,5.75 -32.94,20.71 -33.9,22.72 -7.33,95.56 66.9,664.29 73.02,812.62 9.14,221.74 -124.52,704.97 -150.76,755.85 -58.96,18.23 -230.43,54.23 -314.63,78.62 -0.83,-4.43 -104.86,-100 -158.19,-211.33 -83.09,-173.49 -6.54,-1345.96 1.85,-1540.501 -1.79,-1 -7.71,-3.019 -19.91,-10.679 -4.7,-3.809 -21.43,-18.938 -14.62,-22.481 9.95,-5.168 42.69,9.813 50.01,20.25 -0.58,2.43 -1.32,4.621 -2.29,6.391 -0.46,0.859 139.78,590.6 197.72,911.12 48.29,267.16 56.75,415.38 56.75,415.38 l 109.85,-406.73 c 0,0 153.97,-817.09 153.19,-818.31 7.86,-11.66 37.87,-27.71 52.78,-25.63 10.19,1.43 4.81,7.9 -0.87,12.71" /><path
         id="path26"
         style="fill:#7f65c1;fill-opacity:1;fill-rule:nonzero;stroke:none"
         d="m 5208.48,2726.03 c 0,0 -141.19,-107.45 -174.88,-197.46 -93.64,-250.22 -20.53,-635.2 -18.47,-706.85 l 123.57,7.54 c 0,0 438.67,23.09 576.93,119.62 0,0 -18.73,507.69 -190.32,821.69 l -316.83,-44.54" /><path
         id="path28"
         style="fill:#6b54b2;fill-opacity:1;fill-rule:nonzero;stroke:none"
         d="m 5358.55,1850.57 c 0,0 13.15,1.79 19.8,2.73 126.21,17.89 268.7,47.7 337.28,95.58 0,0 -18.73,507.69 -190.32,821.69 l -120.85,-16.99 c 0,0 47.26,-252.23 47.26,-337.4 0,-196.18 -93.17,-565.61 -93.17,-565.61" /><path
         id="path30"
         style="fill:#ff5e4d;fill-opacity:1;fill-rule:nonzero;stroke:none"
         d="m 5195.98,3407.17 c 0,0 46.82,102.87 141.03,52.98 94.21,-49.89 109.16,-111.25 109.16,-111.25 0,0 168.55,-18.24 248.02,-156.83 23.5,-40.97 119.7,-251.87 -74.21,-350.98 -67.33,-34.41 -148.45,19.63 -239.47,73.51 -91.02,53.87 -286,188.37 -286,188.37 0,0 -37.62,324.89 101.47,304.2" /><path
         id="path32"
         style="fill:#f9cb9d;fill-opacity:1;fill-rule:nonzero;stroke:none"
         d="m 5541.44,3048.52 c 20.46,-103.35 27.83,-145.55 0.3,-280.81 -8.05,-39.55 -378.11,-91.19 -383.95,-69.32 -2.13,7.95 -18.8,69.79 -27.84,102.56 -43.46,157.59 -58.86,203.26 -40.49,263.97 12.81,42.29 18.25,91.28 231.83,127.08 67,11.22 118.38,-5.38 141.04,-18.14 40.15,-22.6 70.57,-82.19 79.11,-125.34" /><path
         id="path34"
         style="fill:#ffe5b0;fill-opacity:1;fill-rule:nonzero;stroke:none"
         d="m 5384.17,2716.04 c -104.52,-18.99 -223.09,-29.96 -226.38,-17.65 -2.13,7.95 -18.8,69.79 -27.84,102.56 -43.46,157.59 -58.86,203.26 -40.49,263.97 11.36,37.55 16.94,80.36 167.45,114.55 9.29,2.11 59.62,-65.07 98.81,-176.64 41.16,-117.17 70.08,-279.23 28.45,-286.79" /><path
         id="path36"
         style="fill:#ff97a6;fill-opacity:1;fill-rule:nonzero;stroke:none"
         d="m 5269.17,3247.35 c 0,0 -17.12,-63.21 -14.9,-70.93 2.2,-7.73 13.02,-19.11 22.7,-4.15 9.67,14.97 11.41,72.21 11.41,72.21 l -19.21,2.87" /><path
         id="path38"
         style="fill:#c95d77;fill-opacity:1;fill-rule:nonzero;stroke:none"
         d="m 5284.98,3202.64 c 0.93,12.34 3.23,23.53 3.23,23.53 l -24.08,1.2 c 0,0 -2.17,-8.08 -4.98,-19.19 4.87,-7.5 15.66,-14.72 25.83,-5.54" /><path
         id="path40"
         style="fill:#ffa9ba;fill-opacity:1;fill-rule:nonzero;stroke:none"
         d="m 5332.73,3250.91 c 3.44,6.61 3.74,32.04 3.33,53.32 -0.33,17.66 -15.19,31.52 -32.83,30.74 -27.33,-1.21 -57.52,-4.16 -65.71,-9.43 -12.86,-8.28 -13.36,-26.68 -14.03,-40.36 -0.69,-13.65 3.01,-38.33 11.1,-49.92 7.39,-10.59 29.23,-20.22 41.69,-20.18 37.43,0.15 48.23,9.66 56.45,35.83" /><path
         id="path42"
         style="fill:#ff5e4d;fill-opacity:1;fill-rule:nonzero;stroke:none"
         d="m 5222.82,3389.28 -13.12,-13.53 c 0,0 11.27,-53.03 78.89,-74.11 67.63,-21.08 74.8,-83.5 74.8,-83.5 0,0 62.2,88.58 -9.06,137.82 -71.27,49.25 -131.51,33.32 -131.51,33.32" /><path
         id="path44"
         style="fill:#f9cb9d;fill-opacity:1;fill-rule:nonzero;stroke:none"
         d="m 5475.04,2830.27 c -6.92,21.89 -3.4,87.43 -4.97,131 -1.45,39.75 -12.75,80.59 -33.42,114.58 -33.86,55.68 -66.38,133.9 21.75,101.37 88,-32.47 206.86,-254.76 135.14,-382.23 -26.29,-46.72 -130.9,-97.5 -157.6,-70.36 -12.82,13.04 48.67,75.35 39.1,105.64" /><path
         id="path46"
         style="fill:#ffe5b0;fill-opacity:1;fill-rule:nonzero;stroke:none"
         d="m 5151.01,3143.92 c 35.54,9.71 -6.69,-118.84 -18.9,-223.42 -11.05,-94.57 143.42,-208.18 -0.44,-247.14 -78.21,-21.19 -107.78,36.27 -121.6,78.03 -18.69,56.47 0.98,143.44 7.69,192.56 6.09,44.53 62.85,180.72 133.25,199.97" /><path
         id="path48"
         style="fill:#f9cb9d;fill-opacity:1;fill-rule:nonzero;stroke:none"
         d="m 5087.57,2835.12 c 0.84,46.05 4.36,91.7 9.82,137.22 2.69,22.74 6.03,45.41 9.98,67.95 3.77,22.59 8.69,44.95 13.85,67.22 -4.4,-22.44 -8.57,-44.92 -11.58,-67.57 -3.19,-22.62 -5.77,-45.32 -7.7,-68.07 -3.92,-45.46 -5.9,-91.22 -5.21,-136.64 l -9.16,-0.11" /><path
         id="path50"
         style="fill:#ffe5b0;fill-opacity:1;fill-rule:nonzero;stroke:none"
         d="m 5504.06,2891.77 c 0.73,18.51 -0.97,37.83 -3.47,56.65 -2.57,18.92 -6.36,37.7 -10.89,56.31 -4.79,18.54 -10.17,36.98 -16.63,55.06 -6.29,18.14 -13.65,35.89 -21.35,53.52 8.39,-17.3 16.46,-34.78 23.49,-52.72 7.2,-17.88 13.34,-36.17 18.91,-54.66 5.31,-18.56 9.88,-37.36 13.25,-56.44 3.29,-19.16 5.82,-38.22 5.83,-58.19 l -9.14,0.47" /><path
         id="path52"
         style="fill:#ff97a6;fill-opacity:1;fill-rule:nonzero;stroke:none"
         d="m 5114.05,2834.8 c -0.09,0.11 -0.18,0.2 -0.27,0.3 -5.38,7.37 -11.57,14.41 -18.27,20.33 -3.76,5.26 -8.61,11.64 -13.56,11.17 -1.59,-0.16 -2.92,-1.26 -2.92,-2.96 0,-4.31 3.24,-8.92 7.01,-12.86 -0.39,0.12 -0.73,0.38 -1.11,0.49 -6,4.21 -12.57,7.94 -19.65,8.97 -0.08,0.01 -0.12,-0.09 -0.21,-0.1 -4.81,1.03 -9.28,-0.08 -13.88,-1.27 -4.5,-0.14 -8.99,-0.5 -13.47,-1.21 -3.04,-0.48 -2.64,-4.41 -0.7,-5.8 1.67,-1.18 3.95,-2.08 6.27,-2.42 1.93,-0.59 3.97,-0.9 6.07,-1.07 -1.66,-0.79 -3.33,-1.58 -4.87,-2.33 0,0 0,0 -0.01,0 -12.01,-3.64 -23.6,-9.51 -21.27,-16.24 0.41,-1.19 1.37,-1.93 2.59,-2.1 1.25,-1.43 3.04,-2.34 5.1,-2.78 -6.23,-8.75 8.18,-6.56 12.16,-6.85 2.3,-0.15 4.67,0.12 7.03,0.48 0.04,0 0.07,0 0.1,0 -2.17,-1.7 -3.91,-3.74 -5.31,-6.06 -1.84,-1.8 -2.87,-3.93 -1.47,-6.41 0.29,-0.52 0.7,-0.82 1.15,-0.99 0.77,-0.66 1.69,-0.97 2.77,-0.82 2.09,0.3 4.11,1.2 6.08,2.25 4.05,0.4 8.16,2.28 12.13,3.59 1.52,0.5 3.1,0.75 4.68,1.03 1.24,0.21 2.47,0.43 3.7,0.63 0.4,0.05 0.79,0.08 1.19,0.12 2.83,-0.55 5.66,-0.85 8.54,-1.17 3.17,-0.95 6.31,-1.96 9.47,-3.29 2.13,-0.89 3.82,-1.72 5.62,-2.11 1.23,-0.57 2.49,-1.06 3.84,-1.34 5.93,-1.24 10.93,2.37 14.68,7.02 2.44,1.97 4.85,4.1 5.61,7.15 0.79,0.36 1.32,1.35 1.1,2.21 -0.37,1.53 -0.99,2.99 -1.78,4.36 -1.54,3.89 -4.64,7.76 -8.14,10.08" /><path
         id="path54"
         style="fill:#f9cb9d;fill-opacity:1;fill-rule:nonzero;stroke:none"
         d="m 5549.5,2886.7 c 0,0 -415.69,1.86 -438.3,-46.33 -22.61,-48.19 -42.79,-92.95 49.77,-124.04 40.12,-13.47 368.86,-56.24 451.85,54.24 23.13,30.78 6.75,110.12 3.01,127.84 -8.76,41.59 -66.33,-11.71 -66.33,-11.71" /><path
         id="path56"
         style="fill:#ff97a6;fill-opacity:1;fill-rule:nonzero;stroke:none"
         d="m 5592.18,2920.57 c 2.82,0.25 9.06,1 9.54,4.74 0.57,4.42 -7.17,5.65 -9.84,6.34 -6.28,1.63 -12.76,2.23 -19.23,2.55 0.96,0.42 1.92,0.85 2.88,1.28 1.98,0.73 3.93,1.48 5.85,2.38 2.01,0.94 0.6,3.49 -1.09,3.68 -0.11,0.01 -0.23,0 -0.35,0.01 -0.37,0.33 -0.81,0.57 -1.38,0.55 -0.36,-0.01 -0.75,-0.05 -1.11,-0.06 -11.44,1.83 -23.1,-0.12 -33.63,-4.87 -0.26,0.06 -0.5,0.14 -0.76,0.17 5.82,8.04 10.24,16.42 6.11,18.2 -4.43,1.93 -10.79,-6.56 -12.74,-9.23 -2.01,-2.75 -3.89,-5.7 -5.72,-8.71 -2.54,-3.18 -5,-6.42 -7.59,-9.64 -3.76,-4.66 -8.69,-7.98 -11.19,-13.46 -0.02,-0.03 -0.05,-0.05 -0.08,-0.08 -5.87,-6.08 -9.6,-15.13 -7.78,-23.52 0.79,-4.83 3.56,-8.89 9.59,-10.46 7.75,-2.03 24.89,-3.86 31.75,3.23 1.51,0.96 2.88,2.1 4.14,3.4 0.96,0.51 1.93,0.98 2.96,1.31 5.69,1.87 12.09,-0.26 17.88,-0.77 3.99,-0.34 13.72,-2.29 15.55,2.83 1.2,1.09 1.66,2.95 0.09,4.15 -6.78,5.12 -16.47,10.95 -26.02,13.87 11.44,0.15 23.37,2.42 33.84,3.81 1.88,0.26 2.75,1.88 1.96,3.6 -1.04,2.27 -2.76,3.63 -4.78,4.47 0.15,0.06 0.31,0.13 0.46,0.2 0.23,0.02 0.46,0.01 0.69,0.03" /><path
         id="path58"
         style="fill:#ffe5b0;fill-opacity:1;fill-rule:nonzero;stroke:none"
         d="m 5048.44,2791.19 c 8.5,21.21 429.44,156.96 481.51,96.12 11.84,-13.85 5.5,-51.77 -1.84,-77 -8.73,-29.99 -10.95,-55.38 -74.24,-79.58 l -343.64,-62.64 c 0,0 -99.52,28.98 -61.79,123.1" /><path
         id="path60"
         style="fill:#fc8b88;fill-opacity:1;fill-rule:nonzero;stroke:none"
         d="m 5092.14,3124.45 c -3.45,23.01 -4.92,46.26 -5.97,69.55 -0.98,23.31 -0.53,46.69 1.22,70.1 2.03,23.35 5.01,46.86 11.68,69.87 6.76,22.7 15.69,46.48 35.17,64.4 0.38,0.35 0.84,0.68 1.27,0.94 4.94,2.92 9.38,5.07 14.24,7.19 4.79,2.07 9.7,3.87 14.75,5.39 10.08,3.02 20.8,4.85 31.92,4.42 l -8.5,-4.82 c 7.46,12.98 15.92,24.16 25.83,34.85 9.88,10.51 21.28,20.14 34.83,26.79 13.39,6.72 29.31,10.06 44.47,8.09 15.05,-1.89 28.71,-7.07 41.32,-13.53 25.35,-12.79 47.83,-29.83 67.66,-49.38 9.93,-9.77 18.88,-20.54 26.9,-31.88 7.96,-11.28 14.92,-23.86 17.24,-37.53 -4.23,13.13 -12.36,24.3 -21.05,34.61 -8.88,10.22 -18.54,19.76 -29.08,28.24 -10.33,8.7 -21.16,16.81 -32.55,23.96 -11.26,7.32 -23.04,13.77 -35.13,19.12 -12.03,5.43 -24.75,9.28 -36.93,10.5 -12.13,1.15 -24.07,-1.72 -34.99,-7.56 -21.83,-11.62 -39.77,-33.01 -52.4,-54.9 l -0.09,-0.17 c -1.78,-3.09 -5.08,-4.77 -8.41,-4.66 -8.45,0.31 -17.29,-0.92 -25.94,-3.46 -4.33,-1.26 -8.62,-2.77 -12.83,-4.54 -4.12,-1.73 -8.5,-3.85 -12,-5.87 l 1.27,0.94 c -15.18,-13.69 -24.84,-34.57 -31.63,-55.76 -6.71,-21.43 -11.25,-43.92 -14.25,-66.63 -3.28,-22.71 -4.93,-45.72 -6.41,-68.79 -1.37,-23.08 -1.64,-46.24 -1.61,-69.48" /><path
         id="path62"
         style="fill:#d4e9f3;fill-opacity:1;fill-rule:nonzero;stroke:none"
         d="m 6739.91,1169.66 c 2.51,-45.68 -204.58,-94.2 -462.55,-108.39 -257.98,-14.18 -469.14,11.36 -471.65,57.05 -2.51,45.68 204.58,94.22 462.55,108.4 257.98,14.17 469.14,-11.36 471.65,-57.06" /><path
         id="path64"
         style="fill:#30193b;fill-opacity:1;fill-rule:nonzero;stroke:none"
         d="m 5893.88,1099.83 c -4.53,13.13 44.18,54.32 62.66,61.94 -5.56,-4.93 -13.56,-15.06 -5.01,-19.04 12.51,-5.81 37.46,3.15 45.88,16.37 2.9,-10.23 3.43,-24.26 3.19,-33.88 -0.32,-12.4 -96.12,-56.15 -106.72,-25.39" /><path
         id="path66"
         style="fill:#ff97a6;fill-opacity:1;fill-rule:nonzero;stroke:none"
         d="m 5937.06,1131.47 c -8.55,3.97 11.17,23.5 16.74,28.43 14.57,10.09 18.55,10.96 20.7,12.27 5.6,3.46 7.29,11 7.29,11 l 9.51,1.25 c 0,0 -2.75,-8.16 2.96,-17.59 1.28,-2.11 2.31,-4.77 3.15,-7.73 -8.42,-13.22 -47.84,-33.45 -60.35,-27.63" /><path
         id="path68"
         style="fill:#30193b;fill-opacity:1;fill-rule:nonzero;stroke:none"
         d="m 6523.34,1197.72 c 7.02,31.5 -37.81,24.95 -63.23,33.42 7.54,-5.02 14.93,-12.11 2.81,-15.24 -17.73,-4.58 -56.24,1.97 -67.35,14.98 -4.53,-9.4 -5.94,-22.53 -6.05,-31.59 -0.14,-11.67 128.93,-23.54 133.82,-1.57" /><path
         id="path70"
         style="fill:#ff97a6;fill-opacity:1;fill-rule:nonzero;stroke:none"
         d="m 6462.92,1215.9 c 12.12,3.13 4.73,10.22 -2.81,15.24 -15.77,5.24 -29.03,9 -31.96,10.4 -7.64,3.63 -9.64,10.83 -9.64,10.83 l -8.01,1.88 c 0,0 -13.62,-20.65 -14.93,-23.37 11.11,-13.01 49.62,-19.56 67.35,-14.98" /><path
         id="path72"
         style="fill:#3b2b5b;fill-opacity:1;fill-rule:nonzero;stroke:none"
         d="m 6086.27,2546 c -0.56,-3.85 -7.9,20.12 -59.06,-72.89 -56.58,-102.83 -66.73,-258.52 -72.13,-440.94 -5.25,-177.63 -2.98,-675.47 11.11,-842.32 1.91,-22.51 57.26,-35.04 59.89,-7.26 16.6,174.3 209.86,1060.35 209.86,1060.35 l 144.42,-996.16 42.72,-2.15 c 0,0 3.34,8.21 1.58,36.67 -11.71,190.47 94.01,938.98 73.47,1031.64 -43.07,194.33 -72.63,170.74 -79.99,223.59 -34.06,-14.21 -267.98,-22.9 -331.87,9.47" /><path
         id="path74"
         style="fill:#30193b;fill-opacity:1;fill-rule:nonzero;stroke:none"
         d="m 6424.66,1281.3 c -11.71,190.47 94.01,938.98 73.47,1031.64 -22.14,99.9 -43.55,162.28 -60.13,206.49 -1.4,3.73 -4.09,10.83 -4.09,10.83 0,0 -38.03,-4.63 -71.99,-3.71 -36.01,0.97 -69.14,-2.46 -69.14,-2.46 0,0 2.96,-14.9 4.57,-23.12 20.79,-106.08 65.42,-305.15 82.6,-569.83 12.52,-192.74 16.84,-438.65 23.46,-685.52 l 19.67,-0.99 c 0,0 3.34,8.21 1.58,36.67" /><path
         id="path76"
         style="fill:#d5eaf5;fill-opacity:1;fill-rule:nonzero;stroke:none"
         d="m 6403.93,2965.31 c -38.87,14.54 -160.17,40.62 -286.94,24.27 -61.95,-8 -84.61,-58.2 -84.61,-58.2 0,0 70.88,-361.02 68.38,-397.21 66.13,-27.49 295.2,-14.36 328.09,2.36 -0.66,3.03 -16.96,87.13 -16.19,89.76 34.82,121.26 -8.73,339.02 -8.73,339.02" /><path
         id="path78"
         style="fill:#3b2b5b;fill-opacity:1;fill-rule:nonzero;stroke:none"
         d="m 6222.39,3062.25 v 0 0 z" /><path
         id="path80"
         style="fill:#295a6e;fill-opacity:1;fill-rule:nonzero;stroke:none"
         d="m 6202.22,3008.31 c 0,0 -55.81,-157.79 -78.49,-408.63 -22.69,-250.83 -68.03,-265 -68.03,-265 0,0 -66.1,-4.41 -109.79,28.08 l 80.86,238.84 c 0,0 -23.26,305.45 -3.07,336.38 35.22,53.94 178.52,70.33 178.52,70.33" /><path
         id="path82"
         style="fill:#1d4c5b;fill-opacity:1;fill-rule:nonzero;stroke:none"
         d="m 6131.29,2664.53 c 0,0 -37.95,208.31 -37.68,233.02 l 31.63,13.12 -27.76,9.02 c 0,0 42.48,66.33 56.4,74.61 13.91,8.28 82.57,31.51 82.57,31.51 0,0 -47.62,-41.17 -74.07,-174.18 -26.44,-133.02 -31.09,-187.1 -31.09,-187.1" /><path
         id="path84"
         style="fill:#aacbe8;fill-opacity:1;fill-rule:nonzero;stroke:none"
         d="m 6236.45,2993.89 c 0,0 67.72,-336.67 57.36,-474.56 0,0 71.1,-0.99 127.04,15.4 55.94,16.4 -134.25,459.33 -155.22,462.2 -20.97,2.88 -29.18,-3.04 -29.18,-3.04" /><path
         id="path86"
         style="fill:#1d4c5b;fill-opacity:1;fill-rule:nonzero;stroke:none"
         d="m 6272.81,2995.32 c 0,0 56.34,-143.52 91.3,-392.93 34.95,-249.42 65.29,-260.86 65.29,-260.86 0,0 66.24,-1.17 108.29,33.43 l -92.48,234.58 c 0,0 2.76,308.38 -16.66,339.8 -19.42,31.43 -155.74,45.98 -155.74,45.98" /><path
         id="path88"
         style="fill:#295a6e;fill-opacity:1;fill-rule:nonzero;stroke:none"
         d="m 6353.7,2667.02 c 0,0 27.69,209.91 26.19,234.58 l -32.22,11.55 27.28,10.38 c 0,0 -45.68,64.16 -59.99,71.75 -14.3,7.59 -71.41,33.86 -71.41,33.86 0,0 36.98,-45.22 69.92,-176.78 32.93,-131.55 40.23,-185.34 40.23,-185.34" /><path
         id="path90"
         style="fill:#ffa9ba;fill-opacity:1;fill-rule:nonzero;stroke:none"
         d="m 6231.29,3070.53 c 0,0 -5.95,-74.18 -0.37,-82.06 5.56,-7.88 24.85,-17.43 34.48,1.68 9.64,19.1 -5.13,82.49 -5.13,82.49 l -28.98,-2.11" /><path
         id="path92"
         style="fill:#c95d77;fill-opacity:1;fill-rule:nonzero;stroke:none"
         d="m 6228.73,3023.89 c 11.5,-5.52 26.09,-4.95 39.07,2.84 -0.55,13.41 -2.12,18.12 -4.16,29.28 l -33.52,-2.43 c -0.67,-10.67 -1.23,-17.32 -1.39,-29.69" /><path
         id="path94"
         style="fill:#ff97a6;fill-opacity:1;fill-rule:nonzero;stroke:none"
         d="m 6290.56,3081.68 c 5.28,11.37 6.76,55.66 -4.06,64.94 -20.58,17.68 -77.33,8.43 -87.98,0.91 -11.68,-8.27 -11.4,-25.48 -11.47,-38.3 -0.07,-12.77 4.4,-35.69 12.42,-46.19 7.35,-9.6 28.15,-17.7 39.79,-17.15 34.98,1.66 44.68,10.99 51.3,35.79" /><path
         id="path96"
         style="fill:#80540a;fill-opacity:1;fill-rule:nonzero;stroke:none"
         d="m 6172.65,3091.59 c 3.11,6.55 5.27,13.55 6.67,20.66 1.2,6.13 6.54,13.36 8.16,12.13 0.88,-0.67 8.43,-29.27 11.37,-37.16 6.52,-17.54 20.65,-34.89 47.51,-35.61 29.73,-0.79 35.4,10.77 41.88,24 1.46,2.96 4.32,15.3 5,28.31 0.7,13.05 -0.8,26.78 -0.57,29.21 0.27,3.05 14.44,-28.76 15.53,-34.17 3.58,-17.75 11.76,-45.21 2.98,-75.54 -15.58,-53.82 -190.58,-41.17 -138.53,68.17" /><path
         id="path98"
         style="fill:#80540a;fill-opacity:1;fill-rule:nonzero;stroke:none"
         d="m 6174.58,3096.03 c 0,0 -53.16,60.37 -37.55,80.34 15.62,19.96 70.49,41.03 80.22,5.18 9.71,-35.86 -42.67,-85.52 -42.67,-85.52" /><path
         id="path100"
         style="fill:#80540a;fill-opacity:1;fill-rule:nonzero;stroke:none"
         d="m 6199.41,3150.58 c 0,0 63.09,-31.25 123.54,-1.65 60.44,29.59 66.18,104.54 66.18,104.54 0,0 -15.83,-17.39 -33.09,-21.81 -17.24,-4.42 -127.53,19.9 -151.25,-9.11 -23.72,-29.02 -24.94,-52.85 -5.38,-71.97" /><path
         id="path102"
         style="fill:#a06815;fill-opacity:1;fill-rule:nonzero;stroke:none"
         d="m 6196.46,3153.7 c -7.92,7.17 -12.08,18.17 -11.65,29.04 0.6,10.96 5.17,21.19 10.9,30.27 5.52,9.33 14.65,16.97 25.17,20.34 10.47,3.51 21.32,4.24 31.96,4.76 21.23,1.2 42.97,-1.87 63.66,-4.44 10.49,-1.06 21.06,-1.56 31.55,-0.75 5.23,0.34 10.49,0.99 15.52,2.48 5,1.46 10.01,3.59 13.72,7.46 -3.43,-4.12 -8.39,-6.66 -13.38,-8.47 -5.04,-1.87 -10.35,-2.89 -15.65,-3.6 -10.65,-1.27 -21.38,-1.13 -32.03,-0.46 -21.45,1.94 -41.94,4.93 -63.22,3.42 -10.5,-0.36 -21.1,-1 -30.86,-4.16 -9.85,-3.02 -17.89,-9.79 -23.65,-18.43 -5.88,-8.58 -10.56,-18.19 -11.57,-28.56 -1.09,-10.26 2.11,-21.21 9.53,-28.9" /><path
         id="path104"
         style="fill:#a06815;fill-opacity:1;fill-rule:nonzero;stroke:none"
         d="m 6238.41,2992.82 c -12.52,1.14 -25.01,3.52 -36.97,7.97 -11.75,4.69 -23.31,11.66 -31.07,22.42 -8.21,10.48 -11.05,24.4 -10.1,37.4 1.21,13.18 5.61,25.4 11.4,36.91 l 0.46,-3.65 c -8.38,9.79 -16.06,19.95 -23.16,30.67 -6.82,10.8 -13.85,21.87 -16.65,35.08 -0.64,3.29 -0.92,6.78 -0.31,10.33 0.7,3.67 2.35,6.67 4.29,9.47 4,5.51 9.43,9.52 15.12,12.61 5.76,3.02 11.85,5.18 18.04,6.78 6.18,1.47 12.57,2.92 18.92,2.16 -6.33,0.06 -12.46,-1.96 -18.42,-3.82 -5.95,-2.03 -11.71,-4.6 -16.94,-7.9 -10.37,-6.16 -19.86,-16.81 -15.78,-28.57 3.18,-11.56 9.76,-22.5 16.7,-32.83 7.04,-10.32 14.88,-20.28 23.08,-29.65 l 1.5,-1.7 -1.04,-1.96 c -5.65,-10.74 -10.05,-22.59 -11.29,-34.44 -1.09,-11.89 1.49,-24.15 8.27,-34.01 6.54,-10.11 17.08,-17.23 28.22,-22.37 11.21,-5.3 23.43,-8.31 35.73,-10.9" /><path
         id="path106"
         style="fill:#1d4c5b;fill-opacity:1;fill-rule:nonzero;stroke:none"
         d="m 6399.13,2662.21 c -5.77,19.27 -0.31,76.21 -0.36,114.19 -0.05,34.66 -2.86,119.03 -21.12,149.24 -29.92,49.51 -60.89,73.07 20.64,42.07 81.41,-30.95 182.15,-231.03 110.75,-339.82 -26.17,-39.88 -125.89,-80.9 -150.02,-56.46 -11.58,11.74 48.09,64.11 40.11,90.78" /><path
         id="path108"
         style="fill:#295a6e;fill-opacity:1;fill-rule:nonzero;stroke:none"
         d="m 6093.61,2982.82 c 37.02,3.62 -28.12,-101.12 -35.58,-211.34 -6.06,-89.4 128.5,-188.39 -11.9,-235.72 -79.29,-26.73 -103.93,50.39 -112.58,91.5 -11.67,55.59 7.08,143.06 20.03,187.88 11.74,40.65 66.73,160.52 140.03,167.68" /><path
         id="path110"
         style="fill:#ff97a6;fill-opacity:1;fill-rule:nonzero;stroke:none"
         d="m 6031.44,2700.69 c -0.07,0.09 -0.16,0.18 -0.24,0.26 -4.8,6.59 -10.38,12.9 -16.46,18.26 -3.35,4.69 -7.68,10.39 -12.35,10.13 -1.48,-0.09 -2.77,-1 -2.82,-2.48 -0.15,-3.75 2.73,-7.86 6.14,-11.4 -0.36,0.11 -0.66,0.34 -1.02,0.44 -5.49,3.86 -11.53,7.3 -18.12,8.41 -0.09,0.02 -0.12,-0.07 -0.2,-0.08 -4.48,1.05 -8.7,0.23 -13.05,-0.67 -4.23,0 -8.46,-0.18 -12.67,-0.65 -2.87,-0.33 -2.62,-3.76 -0.85,-5.02 1.53,-1.09 3.64,-1.94 5.81,-2.31 1.78,-0.56 3.68,-0.91 5.64,-1.11 -1.58,-0.64 -3.17,-1.28 -4.63,-1.89 h -0.01 c -11.38,-2.8 -22.43,-7.55 -20.48,-13.48 0.35,-1.06 1.23,-1.73 2.37,-1.92 1.13,-1.29 2.77,-2.13 4.68,-2.56 -6.13,-7.44 7.46,-5.97 11.18,-6.33 2.15,-0.22 4.38,-0.04 6.61,0.2 0.03,-0.01 0.06,-0.01 0.08,-0.01 -2.09,-1.41 -3.77,-3.13 -5.16,-5.12 -1.8,-1.51 -2.82,-3.32 -1.6,-5.53 0.25,-0.46 0.63,-0.73 1.05,-0.9 0.7,-0.6 1.55,-0.9 2.57,-0.79 1.97,0.19 3.89,0.92 5.76,1.77 3.82,0.22 7.73,1.73 11.5,2.76 1.43,0.39 2.94,0.55 4.42,0.75 1.16,0.15 2.32,0.3 3.49,0.44 0.37,0.03 0.74,0.04 1.11,0.07 2.64,-0.57 5.28,-0.92 7.98,-1.29 2.93,-0.92 5.84,-1.89 8.76,-3.14 1.96,-0.85 3.52,-1.62 5.19,-2.02 1.14,-0.53 2.31,-0.99 3.56,-1.27 5.52,-1.27 10.32,1.72 13.98,5.65 2.36,1.64 4.69,3.43 5.51,6.05 0.75,0.31 1.27,1.15 1.1,1.9 -0.3,1.35 -0.84,2.63 -1.53,3.85 -1.31,3.43 -4.09,6.89 -7.3,9.03" /><path
         id="path112"
         style="fill:#1d4c5b;fill-opacity:1;fill-rule:nonzero;stroke:none"
         d="m 6448.94,2689.62 c 0,0 -386.02,54.2 -412.9,15.49 -26.89,-38.71 -51.11,-74.76 31.1,-113.29 35.64,-16.71 323.13,-83.11 413.73,1.68 84.46,79.06 -31.93,96.12 -31.93,96.12" /><path
         id="path114"
         style="fill:#1d4c5b;fill-opacity:1;fill-rule:nonzero;stroke:none"
         d="m 6057.07,2690.38 c -3.92,19.26 -5.92,38.34 -6.91,57.63 -1.02,19.25 -0.7,38.54 0.83,57.71 1.38,19.17 4.15,38.24 8.39,56.95 3.81,18.82 9.99,37.03 16.58,54.96 -5.87,-18.19 -11.29,-36.55 -14.34,-55.41 -3.47,-18.75 -5.45,-37.75 -6.06,-56.76 -0.76,-19.02 -0.31,-38.06 1.45,-56.97 1.71,-18.85 4.52,-37.84 8.95,-55.9 l -8.89,-2.21" /><path
         id="path116"
         style="fill:#295a6e;fill-opacity:1;fill-rule:nonzero;stroke:none"
         d="m 6413.6,2762.74 c -3.64,30.73 -8.7,61.55 -15.45,91.89 -3.44,15.17 -7.14,30.3 -11.88,45.12 -4.72,14.83 -10.04,29.5 -17.18,43.4 7.81,-13.53 13.88,-28.01 19.35,-42.66 5.49,-14.66 9.95,-29.67 14.16,-44.74 8.29,-30.23 14.86,-60.79 20.09,-91.82 l -9.09,-1.19" /><path
         id="path118"
         style="fill:#ff97a6;fill-opacity:1;fill-rule:nonzero;stroke:none"
         d="m 6477.16,2758.7 c 2.65,0.06 8.52,0.34 9.15,3.56 0.73,3.82 -6.45,5.34 -8.92,6.11 -5.8,1.78 -11.82,2.68 -17.87,3.35 0.93,0.3 1.84,0.62 2.76,0.94 1.88,0.51 3.75,1.06 5.57,1.72 1.94,0.7 0.73,3.01 -0.83,3.26 -0.12,0.02 -0.22,0.02 -0.33,0.04 -0.33,0.3 -0.73,0.54 -1.26,0.56 -0.34,0.01 -0.71,0 -1.05,0.01 -10.62,2.27 -21.63,1.27 -31.69,-2.24 -0.24,0.07 -0.47,0.15 -0.72,0.18 5.82,6.66 10.36,13.69 6.57,15.49 -4.05,1.93 -10.4,-5.07 -12.34,-7.28 -2.01,-2.27 -3.91,-4.74 -5.76,-7.25 -2.52,-2.62 -4.98,-5.3 -7.56,-7.93 -3.74,-3.84 -8.5,-6.44 -11.08,-11.06 -0.03,-0.03 -0.06,-0.04 -0.09,-0.07 -5.77,-4.94 -9.7,-12.59 -8.37,-20 0.52,-4.25 2.91,-7.95 8.48,-9.68 7.15,-2.21 23.11,-4.82 29.86,0.95 1.45,0.74 2.79,1.65 4.03,2.71 0.92,0.4 1.86,0.74 2.83,0.97 5.42,1.28 11.3,-0.94 16.69,-1.73 3.73,-0.53 12.74,-2.81 14.68,1.54 1.18,0.88 1.69,2.48 0.28,3.6 -6.1,4.87 -14.9,10.52 -23.7,13.61 10.72,-0.54 21.99,0.74 31.84,1.32 1.78,0.11 2.67,1.47 2,3.01 -0.87,2.05 -2.41,3.32 -4.27,4.18 0.16,0.04 0.31,0.1 0.46,0.15 0.21,0 0.42,-0.02 0.64,-0.02" /><path
         id="path120"
         style="fill:#295a6e;fill-opacity:1;fill-rule:nonzero;stroke:none"
         d="m 5965.44,2631.93 c 5.47,19.19 381.29,176.53 436.73,128.7 12.61,-10.88 11.08,-44.34 7.17,-66.9 -4.67,-26.82 -3.8,-49.04 -59.88,-75.98 l -297.94,-81.22 c 0,0 -110.32,10.27 -86.08,95.4" /><path
         id="path122"
         style="fill:#d4e9f3;fill-opacity:1;fill-rule:nonzero;stroke:none"
         d="m 4011.98,1001.26 c 0,-64.342 -294.49,-116.49 -657.76,-116.49 -363.27,0 -657.76,52.148 -657.76,116.49 0,64.33 294.49,116.48 657.76,116.48 363.27,0 657.76,-52.15 657.76,-116.48" /><path
         id="path124"
         style="fill:#3b2b5b;fill-opacity:1;fill-rule:nonzero;stroke:none"
         d="m 3697.88,949.809 c 4.44,12.902 -43.45,53.391 -61.61,60.891 5.47,-4.84 13.33,-14.821 4.93,-18.712 -12.31,-5.718 -36.84,3.082 -45.11,16.082 -2.86,-10.05 -3.38,-23.851 -3.14,-33.3 0.32,-12.2 94.5,-55.2 104.93,-24.961" /><path
         id="path126"
         style="fill:#ff97a6;fill-opacity:1;fill-rule:nonzero;stroke:none"
         d="m 3655.42,980.898 c 8.41,3.911 -10.98,23.122 -16.46,27.962 -14.33,9.92 -18.24,10.77 -20.35,12.07 -5.5,3.39 -7.16,10.8 -7.16,10.8 l -9.36,1.24 c 0,0 2.71,-8.02 -2.9,-17.29 -1.26,-2.08 -2.28,-4.7 -3.1,-7.61 8.27,-13 47.03,-32.879 59.33,-27.172" /><path
         id="path128"
         style="fill:#3b2b5b;fill-opacity:1;fill-rule:nonzero;stroke:none"
         d="m 3172.04,3481.34 c 33.98,59.82 169.56,64.94 213.79,31.86 58.57,-43.81 56.67,-172.88 42.71,-186.47 -13.96,-13.59 -96.24,71.36 -100.45,34.53 -4.2,-36.83 6.89,-42.53 6.89,-42.53 0,0 -24.16,-16.44 -58.13,9.61 -31.76,24.37 -63.84,52.62 -55.28,91.45 13.4,60.78 -109.43,-43.9 -49.53,61.55" /><path
         id="path130"
         style="fill:#3b2b5b;fill-opacity:1;fill-rule:nonzero;stroke:none"
         d="m 2948.77,1045.17 c -6.37,30.01 36.19,23.37 60.44,31.17 -7.21,-4.7 -14.31,-11.37 -2.81,-14.46 16.82,-4.52 53.49,1.33 64.18,13.59 4.22,-8.97 5.43,-21.48 5.45,-30.08 0.02,-11.1 -122.81,-21.17 -127.26,-0.22" /><path
         id="path132"
         style="fill:#ff97a6;fill-opacity:1;fill-rule:nonzero;stroke:none"
         d="m 3006.4,1061.88 c -11.5,3.09 -4.4,9.76 2.81,14.46 15.05,4.84 27.69,8.29 30.49,9.58 7.3,3.39 9.27,10.21 9.27,10.21 l 7.64,1.72 c 0,0 12.75,-19.78 13.97,-22.38 -10.69,-12.26 -47.36,-18.11 -64.18,-13.59" /><path
         id="path134"
         style="fill:#3b2b5b;fill-opacity:1;fill-rule:nonzero;stroke:none"
         d="m 3462.63,2711.59 c 0.58,-4.28 60.6,-84.95 106.05,-193.83 70.83,-169.67 77.46,-1302.09 59.94,-1487.37 -2.37,-24.99 -62.67,-2.55 -65.3,28.36 -16.5,193.89 -275.63,1246.23 -275.63,1246.23 l -224.68,-1212.36 -61.05,-2.46 c 0,0 -24.9,640.8 -13.49,1123.22 5.71,241.59 56.57,473.25 65.76,489.02 57.16,14.52 318.7,12.79 408.4,9.19" /><path
         id="path136"
         style="fill:#30193b;fill-opacity:1;fill-rule:nonzero;stroke:none"
         d="m 3462.63,2711.59 c 0.58,-4.28 60.6,-84.95 106.05,-193.83 70.83,-169.67 77.46,-1302.09 59.94,-1487.37 -1.26,-13.32 -18.97,-13.17 -35.64,-5.45 -7.16,3.32 -16.9,441.36 -127.32,881.26 -98.9,393.97 -214.81,753.01 -167.93,753.3 76.27,0.48 124.22,53.72 164.9,52.09" /><path
         id="path138"
         style="fill:#aacbe8;fill-opacity:1;fill-rule:nonzero;stroke:none"
         d="m 3112.46,3182.14 c 42.88,34.01 99.37,90.88 392.9,23.94 22.2,-5.07 43.84,-12.43 65.5,-24.33 -15.39,-75.27 13.78,-175.43 13.78,-175.43 -23.43,-48.54 -40.29,-104.92 -51.71,-154.52 -14.7,-63.91 -3.85,-128.24 16.73,-190.51 32.38,-97.99 42.14,-178.84 42.14,-178.84 0,0 -209.63,-47.57 -262.07,-43.03 -17.07,1.47 -55.09,151.14 -55.09,151.14 0,0 -35.76,-145.33 -53.89,-142.77 -45.5,6.42 -217.88,61.91 -217.88,61.91 0,0 48.92,204.27 47.85,240.64 -2.12,72.21 13.15,123.94 31.55,226.53 21.48,119.74 30.19,205.27 30.19,205.27" /><path
         id="path140"
         style="fill:#3b2b5b;fill-opacity:1;fill-rule:nonzero;stroke:none"
         d="m 3395.16,3266.17 v 0 0 z" /><path
         id="path142"
         style="fill:#92b4d6;fill-opacity:1;fill-rule:nonzero;stroke:none"
         d="m 3366.45,3225.98 c 0,0 29.74,-2.51 45.55,-4.44 28.99,-3.52 60.08,-8.58 93.36,-15.46 22.3,-4.62 43.84,-12.43 65.5,-24.33 -15.39,-75.27 13.78,-175.43 13.78,-175.43 -23.43,-48.54 -40.29,-104.92 -51.71,-154.52 -14.7,-63.91 -3.85,-128.24 16.73,-190.51 32.38,-97.99 42.14,-178.84 42.14,-178.84 0,0 -209.63,-47.57 -262.07,-43.03 -17.07,1.47 -55.09,151.14 -55.09,151.14 0,0 3.93,86.93 7.74,239.1 4.21,167.53 84.07,396.32 84.07,396.32" /><path
         id="path144"
         style="fill:#ff97a6;fill-opacity:1;fill-rule:nonzero;stroke:none"
         d="m 3397.87,3286.57 c 0,0 3.89,-83.75 -5.79,-91.35 -9.68,-7.6 -41.79,-14.18 -55.97,9.08 -14.18,23.27 14.77,90.68 14.77,90.68 l 46.99,-8.41" /><path
         id="path146"
         style="fill:#c95d77;fill-opacity:1;fill-rule:nonzero;stroke:none"
         d="m 3398.08,3225.98 c -19.15,-3.73 -44.63,11.25 -59.67,33.11 1.95,14.8 1.51,6.12 5.7,18.1 l 52.99,14.25 c 0.24,-12 1.68,-51.66 0.98,-65.46" /><path
         id="path148"
         style="fill:#ff97a6;fill-opacity:1;fill-rule:nonzero;stroke:none"
         d="m 3316.87,3306.61 c -5.59,8.74 -7.48,39.25 -8.09,54.29 -0.24,6.23 1.67,12.54 6.12,16.9 23.93,23.45 81.97,21.07 93.58,15 14.09,-7.36 16.33,-26.37 18.31,-40.47 1.98,-14.07 0.35,-85.91 -45.76,-88.74 -50.2,-3.09 -53.19,16.69 -64.16,43.02" /><path
         id="path150"
         style="fill:#295a6e;fill-opacity:1;fill-rule:nonzero;stroke:none"
         d="m 3332.09,3179.5 10.68,-28.53 14.23,-1.61 24.61,26.04 c 0,0 -26.67,25.76 -49.52,4.1" /><path
         id="path152"
         style="fill:#295a6e;fill-opacity:1;fill-rule:nonzero;stroke:none"
         d="m 3356.41,3164.01 c 0,0 19.34,-202.75 22.06,-270.44 2.72,-67.69 -11.62,-84.09 -11.62,-84.09 l -59.47,-29.62 -47.08,48.92 c 0,0 63.24,307.1 86.24,334.83 23,27.74 9.87,0.4 9.87,0.4" /><path
         id="path154"
         style="fill:#92b4d6;fill-opacity:1;fill-rule:nonzero;stroke:none"
         d="m 3333.97,3239.92 c 0,0 -5.27,-17.48 24.13,-51.19 l -25.29,-25.67 c 0,0 -33.45,25.31 1.16,76.86" /><path
         id="path156"
         style="fill:#aacbe8;fill-opacity:1;fill-rule:nonzero;stroke:none"
         d="m 3398.6,3231.28 c 0,0 0.76,-9.24 -43.2,-42.35 l 19,-34.84 c 0,0 50.54,20.96 24.2,77.19" /><path
         id="path158"
         style="fill:#92b4d6;fill-opacity:1;fill-rule:nonzero;stroke:none"
         d="m 3482.38,2791.44 c -1.55,26.22 20.7,97.9 31.14,146.66 9.53,44.48 8.42,92.93 -4.99,136.4 -21.97,71.22 -26.29,167.97 62.33,107.25 88.5,-60.64 148.25,-341.31 33.06,-462.59 -42.23,-44.46 -172.45,-71.5 -194.45,-33.92 -10.57,18.05 75.05,69.93 72.91,106.2" /><path
         id="path160"
         style="fill:#aacbe8;fill-opacity:1;fill-rule:nonzero;stroke:none"
         d="m 3210.82,3229.9 c 42.13,0.83 -40.66,-129.9 -83.46,-242.45 -38.7,-101.78 100.78,-270.98 -69.64,-273.94 -92.65,-1.6 -109.38,70.37 -113.01,120.56 -4.92,67.84 41.23,158.78 62.41,211.37 19.21,47.68 120.25,182.82 203.7,184.46" /><path
         id="path162"
         style="fill:#92b4d6;fill-opacity:1;fill-rule:nonzero;stroke:none"
         d="m 3054.73,2905.07 c 13.69,50.81 30.26,100.49 48.94,149.46 9.3,24.48 19.29,48.7 29.93,72.61 10.45,24 22.11,47.45 34.01,70.73 -11.22,-23.63 -22.18,-47.37 -31.91,-71.63 -9.92,-24.17 -19.18,-48.61 -27.73,-73.28 -17.18,-49.28 -32.28,-99.45 -44.34,-150.02 l -8.9,2.13" /><path
         id="path164"
         style="fill:#aacbe8;fill-opacity:1;fill-rule:nonzero;stroke:none"
         d="m 3532.4,2851.32 c 5.95,20.44 9.42,42.34 11.87,63.95 2.39,21.72 3.39,43.62 3.51,65.53 -0.18,21.92 -1.04,43.86 -3.2,65.71 -0.79,10.97 -2.52,21.82 -3.74,32.74 -1.52,10.88 -3.43,21.71 -5.12,32.58 2.07,-10.79 4.35,-21.57 6.25,-32.4 1.6,-10.88 3.72,-21.71 4.89,-32.66 2.93,-21.84 4.56,-43.84 5.5,-65.89 0.64,-22.06 0.4,-44.17 -1.25,-66.25 -1.77,-22.11 -4.36,-43.97 -9.96,-66 l -8.75,2.69" /><path
         id="path166"
         style="fill:#ff97a6;fill-opacity:1;fill-rule:nonzero;stroke:none"
         d="m 3083.35,2897.47 c -0.06,0.14 -0.14,0.27 -0.21,0.41 -3.91,9.67 -8.8,19.21 -14.58,27.64 -2.7,6.9 -6.28,15.32 -11.9,16.19 -1.81,0.27 -3.59,-0.58 -4.07,-2.47 -1.2,-4.77 1.09,-10.79 4.17,-16.22 -0.38,0.25 -0.69,0.62 -1.09,0.85 -5.48,6.36 -11.71,12.33 -19.27,15.44 -0.1,0.05 -0.17,-0.05 -0.27,-0.05 -5.05,2.49 -10.31,2.52 -15.74,2.49 -5.04,1.09 -10.12,1.96 -15.28,2.43 -3.51,0.31 -4.17,-4.15 -2.4,-6.24 1.52,-1.78 3.8,-3.42 6.27,-4.45 1.99,-1.18 4.15,-2.11 6.43,-2.88 -2.07,-0.4 -4.14,-0.82 -6.04,-1.22 0,0 0,0 -0.01,0 -14.34,-0.67 -28.83,-3.93 -28.14,-12.05 0.13,-1.45 0.99,-2.53 2.29,-3.06 0.99,-1.94 2.71,-3.44 4.87,-4.51 -9.36,-7.96 7.25,-9.57 11.58,-10.98 2.51,-0.83 5.21,-1.19 7.93,-1.44 0.03,-0.01 0.07,-0.03 0.1,-0.04 -2.88,-1.27 -5.37,-3.05 -7.57,-5.24 -2.56,-1.47 -4.29,-3.55 -3.44,-6.69 0.18,-0.65 0.55,-1.11 1.01,-1.42 0.67,-0.95 1.6,-1.55 2.84,-1.68 2.41,-0.26 4.88,0.19 7.36,0.79 4.62,-0.69 9.7,0.25 14.46,0.6 1.83,0.13 3.66,-0.05 5.48,-0.18 1.43,-0.11 2.86,-0.21 4.28,-0.33 0.45,-0.06 0.9,-0.14 1.35,-0.19 2.99,-1.41 6.04,-2.53 9.15,-3.71 3.24,-1.93 6.44,-3.93 9.58,-6.29 2.11,-1.59 3.76,-2.97 5.64,-3.91 1.2,-0.98 2.47,-1.88 3.88,-2.56 6.23,-3.04 12.78,-0.42 18.24,3.67 3.26,1.5 6.53,3.2 8.23,6.36 0.98,0.19 1.84,1.13 1.84,2.14 0.02,1.81 -0.27,3.59 -0.76,5.34 -0.61,4.75 -2.97,9.89 -6.21,13.46" /><path
         id="path168"
         style="fill:#92b4d6;fill-opacity:1;fill-rule:nonzero;stroke:none"
         d="m 3580.74,2833.18 c 0,0 -460.44,118.37 -498.99,71.26 -38.55,-47.11 -73.46,-91.1 20.48,-151.47 40.73,-26.17 393.3,-165.57 516.24,-66.28 34.25,27.66 38.29,120.22 39.11,140.92 1.91,48.57 -76.84,5.57 -76.84,5.57" /><path
         id="path170"
         style="fill:#ff97a6;fill-opacity:1;fill-rule:nonzero;stroke:none"
         d="m 3637.54,2858.8 c 3.21,-0.51 10.33,-1.43 11.91,2.58 1.87,4.75 -6.37,8.27 -9.14,9.79 -6.51,3.56 -13.52,6.04 -20.61,8.2 1.19,0.2 2.38,0.41 3.56,0.62 2.39,0.25 4.78,0.54 7.14,1 2.5,0.48 1.65,3.71 -0.17,4.38 -0.13,0.05 -0.26,0.08 -0.39,0.12 -0.31,0.46 -0.74,0.85 -1.36,0.99 -0.41,0.08 -0.86,0.16 -1.26,0.24 -12.18,5.24 -25.65,6.34 -38.66,4.02 -0.26,0.14 -0.51,0.29 -0.8,0.39 8.7,7.29 15.96,15.34 11.88,18.49 -4.38,3.36 -13.81,-4.26 -16.71,-6.67 -2.99,-2.49 -5.91,-5.24 -8.78,-8.07 -3.71,-2.82 -7.34,-5.72 -11.12,-8.57 -5.48,-4.12 -11.86,-6.42 -16.16,-11.79 -0.04,-0.03 -0.08,-0.04 -0.12,-0.07 -8.21,-5.11 -14.88,-14.08 -15.21,-23.9 -0.47,-5.57 1.46,-10.86 7.71,-14.29 8.03,-4.41 26.52,-11.23 36.11,-5.3 1.94,0.65 3.79,1.53 5.54,2.61 1.21,0.31 2.42,0.56 3.65,0.64 6.84,0.46 13.34,-3.69 19.62,-5.86 4.32,-1.5 14.57,-6.38 18.03,-1.22 1.63,0.87 2.66,2.82 1.25,4.58 -6.07,7.58 -15.19,16.75 -24.96,22.66 12.72,-3.04 26.59,-3.85 38.59,-5.24 2.15,-0.25 3.57,1.31 3.17,3.43 -0.52,2.83 -2.05,4.8 -4.05,6.3 0.2,0.02 0.39,0.06 0.58,0.1 0.26,-0.05 0.51,-0.13 0.76,-0.16" /><path
         id="path172"
         style="fill:#aacbe8;fill-opacity:1;fill-rule:nonzero;stroke:none"
         d="m 2998.4,2867.46 c 15.36,21.14 520.12,53.9 560.83,-28.14 9.26,-18.66 -8.38,-58.93 -23.59,-84.87 -18.07,-30.81 -27.63,-58.34 -104.59,-67.47 l -398.57,26.69 c 0,0 -102.26,59.98 -34.08,153.79" /><path
         id="path174"
         style="fill:#d4e9f3;fill-opacity:1;fill-rule:nonzero;stroke:none"
         d="m 2943.18,1143.99 c 0,-45.75 -209.44,-82.84 -467.8,-82.84 -258.37,0 -467.81,37.09 -467.81,82.84 0,45.75 209.44,82.84 467.81,82.84 258.36,0 467.8,-37.09 467.8,-82.84" /><path
         id="path176"
         style="fill:#295a6e;fill-opacity:1;fill-rule:nonzero;stroke:none"
         d="m 2531.42,3182.17 c 0,0 -44.34,81.02 -128.06,37.19 -37.81,-19.79 -22.3,-48.8 -58.68,-53.02 -36.37,-4.22 -8.41,-11.96 -22.63,-39.27 -14.22,-27.31 -110.43,-11.73 -122.52,-48.06 -12.09,-36.33 2.35,-51.68 16.08,-81.45 13.72,-29.77 -63.38,-9.12 -63.98,-60.35 -0.61,-51.23 38.32,-175 231.54,-171.88 130.77,2.11 223.43,250.45 222.34,308.64 -0.88,46.83 -18.23,171.99 -74.09,108.2" /><path
         id="path178"
         style="fill:#3a7182;fill-opacity:1;fill-rule:nonzero;stroke:none"
         d="m 2531.42,3182.17 c -13.99,20.86 -34.13,38.64 -58.26,44.71 -23.92,6.57 -49.69,0.39 -70.7,-12.11 -10.61,-6.11 -18.27,-15.06 -23.71,-26.21 -2.88,-5.47 -5.77,-11.77 -11.08,-16.89 -5.3,-5.2 -12.46,-7.77 -19.08,-8.88 -3.5,-0.66 -6.37,-1.01 -9.42,-1.47 -2.91,-0.55 -5.97,-1.16 -8,-2.16 -1.09,-0.48 -1.66,-0.96 -1.69,-1.19 -0.21,-0.06 -0.2,-0.88 -0.13,-2.05 0.32,-2.54 1.17,-6.08 1.36,-9.57 0.6,-7.14 -1.18,-14.53 -4.36,-20.61 -3.56,-7.37 -10.65,-11.34 -16.78,-13.81 -12.76,-4.87 -25.53,-6.35 -38.1,-8.25 -12.56,-1.79 -25.07,-3.35 -37.06,-6.22 -11.64,-2.92 -24.2,-7.14 -29.6,-16.4 -0.72,-1.12 -1.08,-2.32 -1.64,-3.6 l -1.33,-4.38 c -0.88,-2.92 -1.52,-5.88 -2.07,-8.83 -1.17,-5.91 -1.42,-11.9 -0.69,-17.8 1.38,-11.87 7.16,-23.08 12.68,-34.47 l 4.12,-8.62 c 1.24,-2.89 2.88,-5.67 3.62,-9.49 0.92,-3.64 -0.51,-8.5 -3.6,-10.85 -2.89,-2.48 -6.09,-3.74 -9.19,-4.8 -12.43,-3.87 -24.99,-5.33 -36.09,-11.09 -5.45,-2.86 -10.5,-6.76 -13.73,-12.08 -3.34,-5.23 -4.99,-11.52 -5.26,-17.84 -0.18,6.32 0.98,12.82 4.07,18.54 3.05,5.77 8.2,10.2 13.74,13.5 11.23,6.62 24.27,8.89 35.75,13.19 5.72,2.14 10.91,5.4 9.25,10.47 -0.49,2.43 -2.11,5.21 -3.48,8.07 l -4.36,8.39 c -5.81,11.1 -12.42,22.65 -14.5,36.1 -1.05,6.64 -0.97,13.48 0.1,20.03 0.5,3.29 1.22,6.53 2.12,9.69 l 1.38,4.72 c 0.64,1.63 1.26,3.49 2.22,5.05 3.71,6.55 9.73,10.97 15.76,13.95 6.09,3.04 12.41,5.03 18.72,6.64 12.63,3.16 25.31,4.86 37.8,6.79 12.39,1.96 25.02,3.75 35.95,8.07 5.46,2.14 10.18,5.03 12.2,9.33 2.72,5.12 4.02,10.52 3.65,16.04 -0.12,2.84 -0.77,5.5 -1.24,9.24 -0.09,1.91 -0.34,4.51 1.24,7.15 1.41,2.61 3.76,3.89 5.5,4.69 7.18,3.13 13.79,2.93 19.64,4.12 5.78,0.92 11.1,2.86 14.95,6.58 3.95,3.66 6.66,9.03 9.68,14.69 2.99,5.66 6.53,11.56 11.24,16.45 4.7,4.84 10.06,9.11 15.94,12.14 22.61,12.5 50.34,18.23 75.45,10.32 25,-7.92 44.72,-27.01 57.02,-48.99" /><path
         id="path180"
         style="fill:#3b2b5b;fill-opacity:1;fill-rule:nonzero;stroke:none"
         d="m 2244.22,1164.55 c -2.22,9.89 37.14,23.44 61.94,31.15 -7.4,-4.72 -14.7,-11.45 -3.02,-14.72 17.1,-4.78 54.55,0.8 65.57,13.2 4.21,-9.19 5.31,-21.96 5.25,-30.73 -0.09,-11.31 -124.95,-20.19 -129.74,1.1" /><path
         id="path182"
         style="fill:#ff97a6;fill-opacity:1;fill-rule:nonzero;stroke:none"
         d="m 2303.14,1180.98 c -11.68,3.27 -4.38,10 3.02,14.72 15.39,4.77 28.31,8.15 31.18,9.45 7.48,3.37 6.4,15.77 6.4,15.77 l 12.96,5.91 c 0,0 10.79,-29.99 12.01,-32.65 -11.02,-12.4 -48.47,-17.98 -65.57,-13.2" /><path
         id="path184"
         style="fill:#ff97a6;fill-opacity:1;fill-rule:nonzero;stroke:none"
         d="m 2366.27,2618.13 c -0.66,-3.71 -39.4,-53.86 -91.9,-142.35 -58.05,-97.84 -43.43,-272.8 -26.18,-448.87 18,-183.68 87.16,-643.89 95.55,-805.99 1.14,-21.87 12.1,-38.07 15.54,-11.25 21.56,168.36 110.07,1036.52 110.07,1036.52 L 2711.74,1165 l 17.64,4.49 c 0,0 -0.05,9.66 -0.85,37.28 -5.35,184.92 14.04,1008.56 -2.94,1098.97 -35.61,189.65 -73.01,241.63 -78.48,293.06 -33.44,-12.69 -219.97,-14.04 -280.84,19.33" /><path
         id="path186"
         style="fill:#3b2b5b;fill-opacity:1;fill-rule:nonzero;stroke:none"
         d="m 2281.75,2527.55 c 0,0 -64.51,-135.21 -46.71,-340.26 17.81,-205.06 26.33,-286.1 26.33,-286.1 0,0 160.05,-57.15 470.59,-41.84 0,0 57.78,472.14 -81.1,633.68 -138.87,161.54 -321.26,156.41 -340.41,153.25 -19.16,-3.17 -28.7,-118.73 -28.7,-118.73" /><path
         id="path188"
         style="fill:#30193b;fill-opacity:1;fill-rule:nonzero;stroke:none"
         d="m 2475.38,1863.09 c 0,0 12.19,-1.02 18.48,-1.49 65.72,-4.92 145.17,-6.83 238.1,-2.25 0,0 57.78,472.14 -81.1,633.68 -48.1,55.95 -101.42,91.91 -151.38,114.88 -4.9,2.25 -14.59,6.39 -14.59,6.39 0,0 44.9,-259.01 41.97,-349.16 -6.11,-187.92 -51.48,-402.05 -51.48,-402.05" /><path
         id="path190"
         style="fill:#ffe5b0;fill-opacity:1;fill-rule:nonzero;stroke:none"
         d="m 2669.59,2869.14 c -3.46,45.88 -35.9,84.26 -80.42,95.86 -45.75,11.92 -106.96,21.59 -178.85,20.09 -12.31,-0.25 -34.28,-8.58 -44.71,-11.2 -38.95,-9.82 -61.03,-40.6 -51.91,-79.71 20.38,-87.45 57.05,-250.89 52.57,-276.05 60.87,-33.37 247.4,-32.02 280.84,-19.33 -0.31,2.99 -0.03,5.74 0.97,8.2 29.55,72.5 27.11,188.23 21.51,262.14" /><path
         id="path192"
         style="fill:#3b2b5b;fill-opacity:1;fill-rule:nonzero;stroke:none"
         d="m 2482.05,3040.43 v 0 0 z" /><path
         id="path194"
         style="fill:#7f65c1;fill-opacity:1;fill-rule:nonzero;stroke:none"
         d="m 2483.62,2984.61 c 0,0 -68.84,-133.82 -116.77,-373.22 -47.94,-239.39 -93.11,-248.34 -93.11,-248.34 0,0 -64.17,2.62 -102.91,38.48 l 140.34,227.33 c 0,0 -13.51,293.82 9.17,321.54 39.54,48.32 163.28,34.21 163.28,34.21" /><path
         id="path196"
         style="fill:#6b54b2;fill-opacity:1;fill-rule:nonzero;stroke:none"
         d="m 2380.87,2673.1 c 0,0 -14.92,204.71 -12.09,228.5 l 31.85,9.36 -25.82,11.59 c 0,0 55.01,58.91 69.28,65.44 14.27,6.54 73.17,16.14 73.17,16.14 0,0 -47.66,-28.48 -86.97,-153.93 -39.31,-125.46 -49.42,-177.1 -49.42,-177.1" /><path
         id="path198"
         style="fill:#f9cb9d;fill-opacity:1;fill-rule:nonzero;stroke:none"
         d="m 2516.46,2979.61 c 0,0 -7.79,-254.73 -32.1,-386.55 0,0 101.74,-6.14 157.35,3.85 55.62,9.98 -76.9,377.66 -96.81,382.6 -19.91,4.95 -28.44,0.1 -28.44,0.1" /><path
         id="path200"
         style="fill:#6b54b2;fill-opacity:1;fill-rule:nonzero;stroke:none"
         d="m 2530.19,2978.47 c 0,0 45.82,-143.35 53.58,-387.37 7.77,-244.02 50.85,-260.29 50.85,-260.29 0,0 63.72,-8.02 107.84,20.96 l -88.29,242.88 c 0,0 45.74,299.12 23.98,327.56 -24.61,32.19 -147.96,56.26 -147.96,56.26" /><path
         id="path202"
         style="fill:#7f65c1;fill-opacity:1;fill-rule:nonzero;stroke:none"
         d="m 2581.09,2649.95 c 0,0 48.49,199.44 49.63,223.37 l -29.87,14.49 27.38,7.16 c 0,0 -37.37,66.59 -50.36,75.39 -12.99,8.8 -65.3,40.05 -65.3,40.05 0,0 30.93,-47.42 49,-177.64 18.07,-130.22 19.52,-182.82 19.52,-182.82" /><path
         id="path204"
         style="fill:#ff97a6;fill-opacity:1;fill-rule:nonzero;stroke:none"
         d="m 2497.57,3048.44 c 0,0 -5.85,-71.6 -1.7,-79.45 4.16,-7.85 18.85,-17.85 26.6,0.26 7.74,18.12 -2.54,80.09 -2.54,80.09 l -22.36,-0.9" /><path
         id="path206"
         style="fill:#c95d77;fill-opacity:1;fill-rule:nonzero;stroke:none"
         d="m 2494.79,3003.38 c 8.78,-5.81 20.02,-5.83 30.15,1.21 -0.2,13 -1.33,17.63 -2.7,28.51 l -25.87,-1.03 c -0.69,-10.3 -1.24,-16.72 -1.58,-28.69" /><path
         id="path208"
         style="fill:#ff97a6;fill-opacity:1;fill-rule:nonzero;stroke:none"
         d="m 2548.7,3057.1 c 5.47,10.86 8.31,53.72 -1.88,63.06 -19.39,17.78 -74.67,10.6 -85.22,3.64 -11.58,-7.63 -11.84,-24.32 -12.32,-36.73 -0.47,-12.38 3.14,-34.73 10.59,-45.15 6.8,-9.53 26.7,-18.04 38,-17.87 33.94,0.51 43.63,9.24 50.83,33.05" /><path
         id="path210"
         style="fill:#3b2b5b;fill-opacity:1;fill-rule:nonzero;stroke:none"
         d="m 2814.22,1100.46 c 4.2,13.28 -45.76,53.3 -64.51,60.46 5.72,-4.8 14.01,-14.75 5.54,-18.97 -12.4,-6.16 -37.67,2.16 -46.47,15.19 -2.63,-10.33 -2.79,-24.42 -2.29,-34.06 0.65,-12.43 97.91,-53.77 107.73,-22.62" /><path
         id="path212"
         style="fill:#ff97a6;fill-opacity:1;fill-rule:nonzero;stroke:none"
         d="m 2770.06,1131.03 c 8.48,4.22 -11.83,23.28 -17.55,28.08 -14.88,9.73 -18.9,10.5 -21.09,11.77 -5.71,3.32 -7.6,10.83 -7.6,10.83 l -9.58,1 c 0,0 2.98,-8.11 -2.5,-17.71 -1.23,-2.16 -2.19,-4.86 -2.96,-7.86 8.8,-13.03 48.89,-32.27 61.28,-26.11" /><path
         id="path214"
         style="fill:#6b54b2;fill-opacity:1;fill-rule:nonzero;stroke:none"
         d="m 2610.24,2655.82 c -2.01,19.67 12.44,74.31 18.73,111.33 5.74,33.77 25.69,76.49 14.21,108.76 -18.8,52.89 -51.18,95.56 14.24,61.83 71.79,-37.02 129.35,-237.47 46.57,-332.41 -30.34,-34.8 -127.45,-59.31 -145.21,-31.74 -8.53,13.23 54.23,55.01 51.46,82.23" /><path
         id="path216"
         style="fill:#7f65c1;fill-opacity:1;fill-rule:nonzero;stroke:none"
         d="m 2371.09,2976.92 c 31.68,1.97 -21.42,-102.26 -40.7,-186.8 -18.24,-79.94 90.97,-198.84 -37.15,-206.53 -69.65,-4.17 -84.54,49.44 -88.88,87.08 -5.88,50.88 21,122.88 40.18,161.03 12.74,25.31 63.83,141.31 126.55,145.22" /><path
         id="path218"
         style="fill:#6b54b2;fill-opacity:1;fill-rule:nonzero;stroke:none"
         d="m 2283.74,2727.84 c 8.88,38.7 19.94,76.55 32.61,113.95 6.3,18.7 13.14,37.22 20.47,55.52 7.18,18.37 15.29,36.35 23.59,54.2 -7.6,-18.17 -15,-36.42 -21.45,-55.01 -6.6,-18.53 -12.69,-37.24 -18.24,-56.09 -11.16,-37.66 -20.74,-75.93 -27.99,-114.33 l -8.99,1.76" /><path
         id="path220"
         style="fill:#7f65c1;fill-opacity:1;fill-rule:nonzero;stroke:none"
         d="m 2644.86,2702.76 c 3.88,15.37 5.89,31.96 7.13,48.24 1.19,16.39 1.34,32.87 0.82,49.35 -0.73,16.46 -1.99,32.95 -4.23,49.32 -2.07,16.41 -5.12,32.68 -8.47,48.9 4.09,-16.04 7.9,-32.19 10.73,-48.54 3.01,-16.33 5.03,-32.84 6.54,-49.41 1.29,-16.59 1.91,-33.26 1.47,-49.96 -0.53,-16.76 -1.68,-33.27 -5.13,-50.21 l -8.86,2.31" /><path
         id="path222"
         style="fill:#ff97a6;fill-opacity:1;fill-rule:nonzero;stroke:none"
         d="m 2306.64,2722.81 c -0.06,0.11 -0.13,0.19 -0.18,0.3 -3.25,7.15 -7.24,14.17 -11.85,20.33 -2.25,5.1 -5.22,11.32 -9.48,11.79 -1.37,0.16 -2.68,-0.55 -2.98,-1.97 -0.75,-3.63 1.17,-8.09 3.66,-12.07 -0.3,0.17 -0.54,0.44 -0.85,0.6 -4.33,4.6 -9.21,8.89 -14.99,11 -0.08,0.03 -0.13,-0.05 -0.2,-0.04 -3.88,1.7 -7.84,1.56 -11.92,1.36 -3.83,0.66 -7.68,1.14 -11.58,1.34 -2.65,0.12 -3,-3.27 -1.6,-4.78 1.2,-1.29 2.96,-2.44 4.86,-3.13 1.53,-0.83 3.19,-1.46 4.92,-1.97 -1.53,-0.37 -3.08,-0.75 -4.5,-1.11 0,0 0,0 -0.01,0 -10.77,-0.98 -21.57,-3.89 -20.78,-9.97 0.14,-1.09 0.82,-1.88 1.82,-2.23 0.8,-1.43 2.15,-2.5 3.81,-3.23 -6.79,-6.29 5.75,-6.97 9.06,-7.9 1.91,-0.55 3.96,-0.72 6.01,-0.83 0.03,0 0.06,-0.01 0.08,-0.02 -2.13,-1.05 -3.94,-2.47 -5.54,-4.19 -1.87,-1.19 -3.1,-2.8 -2.36,-5.14 0.15,-0.48 0.45,-0.82 0.8,-1.03 0.54,-0.7 1.26,-1.12 2.19,-1.18 1.83,-0.12 3.67,0.29 5.52,0.84 3.49,-0.37 7.28,0.48 10.86,0.9 1.37,0.16 2.75,0.08 4.13,0.04 1.08,-0.03 2.15,-0.06 3.22,-0.1 0.35,-0.03 0.69,-0.07 1.03,-0.11 2.29,-0.97 4.62,-1.71 7,-2.49 2.5,-1.35 4.97,-2.76 7.4,-4.43 1.65,-1.13 2.93,-2.11 4.37,-2.76 0.94,-0.7 1.92,-1.33 3.01,-1.81 4.78,-2.08 9.63,0.1 13.6,3.35 2.41,1.23 4.82,2.62 5.99,5.05 0.73,0.18 1.35,0.91 1.32,1.67 -0.05,1.36 -0.32,2.69 -0.75,4 -0.61,3.54 -2.55,7.34 -5.09,9.92" /><path
         id="path224"
         style="fill:#6b54b2;fill-opacity:1;fill-rule:nonzero;stroke:none"
         d="m 2680.16,2690.47 c 0,0 -350.2,74.3 -377.7,37.62 -27.49,-36.68 -52.35,-70.89 20.25,-113.3 31.49,-18.38 301.21,-111.97 390.52,-33.34 24.89,21.92 24.96,91.68 24.91,107.28 -0.11,36.6 -57.98,1.74 -57.98,1.74" /><path
         id="path226"
         style="fill:#ff97a6;fill-opacity:1;fill-rule:nonzero;stroke:none"
         d="m 2724.81,2711.46 c 2.44,-0.28 7.82,-0.74 8.88,2.33 1.26,3.63 -5.05,6.02 -7.19,7.08 -5.01,2.47 -10.36,4.11 -15.76,5.5 0.89,0.19 1.76,0.39 2.65,0.58 1.79,0.26 3.58,0.57 5.34,0.99 1.87,0.44 1.12,2.84 -0.26,3.29 -0.1,0.03 -0.2,0.04 -0.3,0.07 -0.25,0.34 -0.58,0.62 -1.06,0.7 -0.31,0.05 -0.65,0.09 -0.96,0.14 -9.32,3.55 -19.49,3.95 -29.21,1.79 -0.2,0.1 -0.39,0.2 -0.61,0.27 6.31,5.76 11.52,12.06 8.34,14.28 -3.4,2.4 -10.25,-3.64 -12.36,-5.55 -2.17,-1.97 -4.27,-4.13 -6.34,-6.34 -2.7,-2.25 -5.34,-4.55 -8.09,-6.81 -3.99,-3.27 -8.72,-5.21 -11.79,-9.39 -0.03,-0.02 -0.05,-0.03 -0.08,-0.05 -6.01,-4.11 -10.75,-11.08 -10.68,-18.48 -0.17,-4.21 1.45,-8.12 6.26,-10.5 6.18,-3.06 20.31,-7.6 27.34,-2.83 1.44,0.55 2.8,1.27 4.08,2.14 0.9,0.27 1.8,0.5 2.73,0.6 5.12,0.57 10.14,-2.35 14.94,-3.78 3.3,-0.99 11.17,-4.34 13.61,-0.35 1.2,0.72 1.91,2.21 0.79,3.49 -4.81,5.52 -11.96,12.12 -19.5,16.26 9.66,-1.88 20.13,-2.05 29.2,-2.71 1.63,-0.12 2.64,1.09 2.28,2.68 -0.49,2.11 -1.7,3.55 -3.26,4.61 0.15,0.02 0.3,0.06 0.44,0.09 0.19,-0.02 0.38,-0.07 0.57,-0.1" /><path
         id="path228"
         style="fill:#7f65c1;fill-opacity:1;fill-rule:nonzero;stroke:none"
         d="m 2243.68,2697.51 c 10.89,16.4 389.59,57.21 422.84,-3.21 7.57,-13.74 -4.41,-44.61 -15.03,-64.6 -12.6,-23.77 -18.92,-44.78 -76.52,-54.12 0,0 -235.24,-10.99 -309.89,9.88 -27.46,7.67 -69.69,39.29 -21.4,112.05" /><path
         id="path230"
         style="fill:#d4e9f3;fill-opacity:1;fill-rule:nonzero;stroke:none"
         d="m 2162.13,1280.72 c 0,-30.67 -174.38,-55.53 -389.49,-55.53 -215.12,0 -389.5,24.86 -389.5,55.53 0,30.67 174.38,55.54 389.5,55.54 215.11,0 389.49,-24.87 389.49,-55.54" /><path
         id="path232"
         style="fill:#c43b72;fill-opacity:1;fill-rule:nonzero;stroke:none"
         d="m 1764.66,2679.31 c 0,0 -37.04,39.99 -30.94,69.04 6.09,29.04 52.68,49.01 77.87,36.18 25.2,-12.83 30.52,-69.8 18.17,-86.93 -12.35,-17.13 -65.1,-18.29 -65.1,-18.29" /><path
         id="path234"
         style="fill:#295a6e;fill-opacity:1;fill-rule:nonzero;stroke:none"
         d="m 1655.27,2572.25 c 2.14,21.58 16.67,39.84 37.26,46.63 38.04,12.56 97.02,26.2 158.78,18.19 0.89,-0.12 1.77,-0.25 2.65,-0.37 45.09,-7.01 73.42,-52.52 60.72,-96.35 -18.85,-64.99 -46.12,-163.09 -44.09,-179.86 -45.69,-21.79 -181.43,-13.14 -205.26,-2.53 0.36,2.16 0.27,4.17 -0.36,6.01 -20.58,59.94 -14.78,157.09 -9.7,208.28" /><path
         id="path236"
         style="fill:#1d4c5b;fill-opacity:1;fill-rule:nonzero;stroke:none"
         d="m 1788.23,2638.5 c 0,0 2.63,0.19 3.95,0.28 18.99,1.22 38.91,0.91 59.13,-1.71 0.44,-0.06 0.88,-0.12 1.32,-0.18 45.83,-6.53 74.59,-53.25 61.71,-97.71 -18.84,-65 -45.76,-162.03 -43.75,-178.69 -21.01,-10.02 -61.07,-13.61 -100.52,-13.52 -1.48,0 -4.44,0.02 -4.44,0.02 0,0 -5.68,126.74 0,180.28 2.99,28.22 22.6,111.23 22.6,111.23" /><path
         id="path238"
         style="fill:#3b2b5b;fill-opacity:1;fill-rule:nonzero;stroke:none"
         d="m 1573.2,1290.62 c 4.34,8.81 27.14,16.99 45.25,22.55 -5.41,-3.42 -10.76,-8.31 -2.24,-10.72 12.45,-3.54 39.77,0.44 47.84,9.44 3.04,-6.71 3.81,-16.02 3.74,-22.41 -0.09,-8.25 -101.62,-13.14 -94.59,1.14" /><path
         id="path240"
         style="fill:#ff97a6;fill-opacity:1;fill-rule:nonzero;stroke:none"
         d="m 1616.21,1302.45 c -8.52,2.41 -3.17,7.3 2.24,10.72 11.23,3.44 20.66,5.87 22.75,6.81 5.47,2.44 7,7.49 7,7.49 l 5.69,1.2 c 0,0 -3.67,-7.85 6.91,-11.72 1.78,-0.65 2.37,-3.12 3.25,-5.06 -8.07,-9 -35.39,-12.98 -47.84,-9.44" /><path
         id="path242"
         style="fill:#3b2b5b;fill-opacity:1;fill-rule:nonzero;stroke:none"
         d="m 2001.7,1245.56 c 2.92,9.25 -31.89,37.13 -44.95,42.12 3.99,-3.34 9.76,-10.27 3.86,-13.21 -8.64,-4.29 -26.24,1.5 -32.37,10.58 -1.84,-7.19 -1.95,-17.01 -1.6,-23.73 0.45,-8.66 68.21,-37.46 75.06,-15.76" /><path
         id="path244"
         style="fill:#ff97a6;fill-opacity:1;fill-rule:nonzero;stroke:none"
         d="m 1970.93,1266.86 c 5.91,2.94 -8.24,16.22 -12.22,19.56 -10.38,6.78 -13.18,7.32 -14.7,8.21 -3.98,2.3 -5.3,7.53 -5.3,7.53 l -6.67,0.71 c 0,0 2.08,-5.66 -1.74,-12.35 -0.86,-1.5 -1.53,-3.38 -2.06,-5.47 6.13,-9.08 34.05,-22.48 42.69,-18.19" /><path
         id="path246"
         style="fill:#7f65c1;fill-opacity:1;fill-rule:nonzero;stroke:none"
         d="m 1870.59,2360.49 c 0.33,-2.73 59.78,-56.8 94.37,-123.38 38.23,-73.63 34.88,-153.96 26.44,-272.8 -8.9,-125.3 -11.21,-534.49 -23.98,-652.16 -1.72,-15.87 -54.12,-21.15 -55.52,-1.47 -8.78,123.45 -134.32,833.96 -134.32,833.96 l -116.99,-818.14 -30.22,-0.8 c 0,0 -2.23,5.86 -0.51,25.94 11.5,134.4 -49.77,731.07 -33.7,796.2 33.72,136.59 63.08,172.9 69.17,210.12 23.83,-10.61 159.57,-19.26 205.26,2.53" /><path
         id="path248"
         style="fill:#3b2b5b;fill-opacity:1;fill-rule:nonzero;stroke:none"
         d="m 1805.43,2670.95 v 0 0 z" /><path
         id="path250"
         style="fill:#ff97a6;fill-opacity:1;fill-rule:nonzero;stroke:none"
         d="m 1798.36,2686.45 c 0,0 7.42,-51.81 4.91,-57.72 -2.51,-5.91 -12.2,-13.89 -18.41,-1.08 -6.22,12.82 -2.02,58.39 -2.02,58.39 l 15.52,0.41" /><path
         id="path252"
         style="fill:#c95d77;fill-opacity:1;fill-rule:nonzero;stroke:none"
         d="m 1802.9,2648.65 c -5.8,-4.64 -13.87,-7.33 -21.21,-2.69 -0.47,9.48 -0.12,20.18 0.32,28.17 l 17.95,0.47 c 0.96,-7.47 2.14,-17.25 2.94,-25.95" /><path
         id="path254"
         style="fill:#ff97a6;fill-opacity:1;fill-rule:nonzero;stroke:none"
         d="m 1760.5,2682.63 c -2.3,3.25 -4.42,14.99 -6.05,26.92 -2.22,16.22 9.83,30.87 26.16,32.09 4.1,0.31 6.78,0.67 7.42,1.42 8.94,-0.41 19.65,1.02 28.01,-2.85 9.18,-4.25 11.19,-16.25 12.88,-25.15 1.69,-8.87 1.52,-25.38 -2.71,-33.71 -3.88,-7.6 -17.29,-15.9 -25.46,-17.02 -24.53,-3.32 -32.46,1.92 -40.25,18.3" /><path
         id="path256"
         style="fill:#c43b72;fill-opacity:1;fill-rule:nonzero;stroke:none"
         d="m 1740.97,2674.09 c 0,0 7.01,23.24 31.34,44.72 24.35,21.48 23.4,31.17 21.45,35.02 -1.95,3.86 -48.46,14.88 -60.04,-5.48 -17.62,-30.96 7.25,-74.26 7.25,-74.26" /><path
         id="path258"
         style="fill:#c43b72;fill-opacity:1;fill-rule:nonzero;stroke:none"
         d="m 1783.14,2749.63 c 0,0 29.21,-35.65 56.3,-33.38 7.1,0.58 -33.65,69.69 -56.3,33.38" /><path
         id="path260"
         style="fill:#1d4c5b;fill-opacity:1;fill-rule:nonzero;stroke:none"
         d="m 1865.56,2425.67 c -2.63,12.93 3.38,50.17 5.13,75.17 1.6,22.8 -2.37,46.82 -12.12,67.51 -15.96,33.87 -24.94,81.7 23.44,57.76 48.31,-23.92 97.87,-159.34 49.12,-227.82 -17.86,-25.1 -80.74,-47.75 -94.34,-30.61 -6.54,8.23 32.4,40.09 28.77,57.99" /><path
         id="path262"
         style="fill:#295a6e;fill-opacity:1;fill-rule:nonzero;stroke:none"
         d="m 1701.48,2621.72 c 20.9,3.39 -13.06,-64.59 -26.4,-123.61 -12.07,-53.38 69.29,-127.7 -15.29,-141.21 -45.99,-7.34 -59.39,27.29 -64.75,51.99 -7.24,33.41 5.89,82.99 16.12,109.57 6.8,17.65 48.92,96.56 90.32,103.26" /><path
         id="path264"
         style="fill:#1d4c5b;fill-opacity:1;fill-rule:nonzero;stroke:none"
         d="m 1642.5,2452.21 c 3.61,26.36 8.73,52.18 14.94,77.84 6.17,25.63 13.75,50.9 22.8,75.59 -7.61,-25.17 -13.67,-50.74 -18.32,-76.55 -4.68,-25.75 -8.28,-51.85 -10.31,-77.75 l -9.11,0.87" /><path
         id="path266"
         style="fill:#295a6e;fill-opacity:1;fill-rule:nonzero;stroke:none"
         d="m 1883.96,2459.35 c 1.67,10.22 2.06,21.39 1.94,32.22 -0.16,10.91 -1.01,21.84 -2.31,32.75 -1.44,10.88 -3.22,21.76 -5.66,32.5 -2.32,10.78 -5.29,21.42 -8.47,32.01 3.9,-10.34 7.61,-20.78 10.69,-31.43 3.19,-10.63 5.75,-21.45 7.97,-32.35 2.07,-10.94 3.71,-21.99 4.64,-33.15 0.87,-11.23 1.34,-22.26 0.25,-33.98 l -9.05,1.43" /><path
         id="path268"
         style="fill:#ff97a6;fill-opacity:1;fill-rule:nonzero;stroke:none"
         d="m 1659.55,2450.23 c -0.05,0.07 -0.1,0.13 -0.14,0.19 -2.63,4.54 -5.74,8.93 -9.2,12.72 -1.84,3.24 -4.21,7.18 -7.08,7.21 -0.91,0.02 -1.74,-0.54 -1.84,-1.51 -0.26,-2.46 1.3,-5.29 3.22,-7.77 -0.21,0.09 -0.39,0.25 -0.6,0.34 -3.18,2.78 -6.7,5.31 -10.69,6.32 -0.05,0.02 -0.08,-0.04 -0.12,-0.04 -2.69,0.88 -5.31,0.53 -8.01,0.13 -2.59,0.18 -5.17,0.25 -7.78,0.12 -1.76,-0.09 -1.77,-2.36 -0.75,-3.28 0.89,-0.77 2.13,-1.42 3.44,-1.76 1.07,-0.45 2.21,-0.76 3.4,-0.98 -1,-0.34 -2,-0.7 -2.92,-1.04 h -0.01 c -7.08,-1.34 -14.06,-3.99 -13.15,-7.97 0.17,-0.72 0.67,-1.19 1.36,-1.37 0.63,-0.9 1.59,-1.51 2.74,-1.9 -4.09,-4.61 4.28,-4.24 6.54,-4.64 1.3,-0.24 2.67,-0.23 4.05,-0.16 0.01,0 0.03,-0.01 0.05,-0.01 -1.34,-0.84 -2.46,-1.89 -3.4,-3.14 -1.16,-0.91 -1.88,-2.07 -1.23,-3.58 0.13,-0.31 0.35,-0.51 0.6,-0.63 0.4,-0.42 0.9,-0.66 1.53,-0.64 1.21,0.05 2.42,0.44 3.6,0.92 2.35,-0.02 4.81,0.8 7.16,1.32 0.9,0.19 1.82,0.23 2.74,0.3 0.71,0.04 1.43,0.09 2.15,0.14 0.22,0 0.45,-0.01 0.68,-0.01 1.59,-0.49 3.19,-0.83 4.82,-1.19 1.75,-0.74 3.48,-1.51 5.21,-2.45 1.16,-0.65 2.08,-1.23 3.08,-1.56 0.67,-0.4 1.36,-0.75 2.11,-0.99 3.31,-1.08 6.39,0.69 8.82,3.11 1.51,0.98 3.02,2.05 3.64,3.74 0.48,0.17 0.83,0.71 0.77,1.2 -0.12,0.9 -0.39,1.77 -0.76,2.6 -0.64,2.33 -2.18,4.72 -4.03,6.26" /><path
         id="path270"
         style="fill:#1d4c5b;fill-opacity:1;fill-rule:nonzero;stroke:none"
         d="m 1911.55,2453.38 c 0,0 -237.44,26.37 -253.3,0.21 -15.85,-26.17 -30.11,-50.52 20.89,-73.92 22.11,-10.14 207.38,-54.59 261.53,3.49 15.08,16.18 10.56,62.52 9.5,72.88 -2.48,24.3 -38.62,-2.66 -38.62,-2.66" /><path
         id="path272"
         style="fill:#ff97a6;fill-opacity:1;fill-rule:nonzero;stroke:none"
         d="m 1938,2470.14 c 1.63,-0.03 5.24,0.02 5.74,2.12 0.6,2.5 -3.75,3.67 -5.24,4.23 -3.49,1.32 -7.15,2.05 -10.83,2.63 0.58,0.18 1.15,0.37 1.72,0.55 1.18,0.3 2.34,0.61 3.49,1.01 1.21,0.41 0.56,1.96 -0.39,2.17 -0.07,0.01 -0.14,0.02 -0.21,0.03 -0.19,0.2 -0.42,0.37 -0.75,0.39 -0.21,0.02 -0.43,0.02 -0.64,0.04 -6.43,1.74 -13.21,1.33 -19.52,-0.74 -0.13,0.05 -0.28,0.11 -0.42,0.14 3.81,4.24 6.85,8.76 4.6,10.04 -2.42,1.37 -6.57,-3.1 -7.84,-4.5 -1.31,-1.46 -2.57,-3.02 -3.8,-4.63 -1.64,-1.67 -3.25,-3.37 -4.93,-5.05 -2.43,-2.44 -5.44,-4.03 -7.21,-7.01 -0.01,-0.02 -0.03,-0.03 -0.05,-0.04 -3.73,-3.13 -6.41,-8.07 -5.88,-12.97 0.16,-2.81 1.49,-5.3 4.85,-6.57 4.3,-1.62 13.99,-3.71 18.33,-0.08 0.93,0.46 1.79,1.03 2.58,1.69 0.58,0.24 1.16,0.44 1.77,0.58 3.37,0.71 6.89,-0.89 10.17,-1.54 2.26,-0.44 7.71,-2.15 9.06,0.67 0.75,0.55 1.13,1.59 0.3,2.37 -3.55,3.34 -8.74,7.27 -14.02,9.51 6.54,-0.61 13.5,-0.04 19.57,0.12 1.09,0.03 1.68,0.9 1.34,1.93 -0.46,1.37 -1.36,2.25 -2.47,2.85 0.1,0.02 0.19,0.05 0.29,0.09 0.13,-0.01 0.26,-0.03 0.39,-0.03" /><path
         id="path274"
         style="fill:#295a6e;fill-opacity:1;fill-rule:nonzero;stroke:none"
         d="m 1619.39,2429.29 c 6.16,11.61 254.97,63.57 281.02,25.63 5.93,-8.63 0,-29.91 -5.74,-43.89 -6.81,-16.61 -9.63,-30.98 -47.27,-40.96 0,0 -155.5,-22.74 -206.44,-13.78 -18.74,3.3 -48.86,21.52 -21.57,73" /><path
         id="path276"
         style="fill:#1d4c5b;fill-opacity:1;fill-rule:nonzero;stroke:none"
         d="m 1808.98,2355.91 -149.5,-1.43 149.05,10.58 z" /><path
         id="path278"
         style="fill:#6b54b2;fill-opacity:1;fill-rule:nonzero;stroke:none"
         d="m 1870.59,2360.49 c 0.33,-2.73 59.78,-56.8 94.37,-123.38 38.23,-73.63 34.88,-153.96 26.44,-272.8 -8.9,-125.3 -11.21,-534.49 -23.98,-652.16 -1.11,-10.19 -23.13,-16.02 -39.1,-13.66 -4.99,0.73 11.63,347.32 -37.11,632.65 -38.1,223.08 -125.58,415.85 -125.58,415.85 0,0 9.16,-0.03 13.75,0.03 36.32,0.47 71.85,4.24 91.21,13.47" /><path
         id="path280"
         style="fill:#c43b72;fill-opacity:1;fill-rule:nonzero;stroke:none"
         d="m 1748.09,2765.55 c 0,0 -85.51,-7.77 -78.92,49.45 6.59,57.21 101.24,87.84 125.05,80.36 67.61,-21.24 41.36,-78.46 10.02,-112.63 -31.35,-34.17 -56.15,-17.18 -56.15,-17.18" /><path
         id="path282"
         style="fill:#d8508e;fill-opacity:1;fill-rule:nonzero;stroke:none"
         d="m 1781.46,2770.61 c -11.25,-0.92 -22.16,-3.56 -30.98,-8.9 -8.81,-5.41 -14.31,-14.11 -16.41,-24.08 -2.28,-10.36 -2.73,-21.14 -1.66,-31.82 1.22,-10.7 3.9,-21.4 8.56,-31.72 -7.9,8.28 -12.94,19.18 -15.6,30.51 -2.68,11.39 -2.63,23.43 -0.24,34.98 1.64,5.86 3.58,11.92 7.61,16.85 3.89,4.88 8.74,9.14 14.37,11.54 11.14,5.02 23.36,5.47 34.35,2.64" /><path
         id="path284"
         style="fill:#d8508e;fill-opacity:1;fill-rule:nonzero;stroke:none"
         d="m 1781.46,2756.11 c 9.06,-8.79 17.39,-16.75 26.83,-23.35 4.59,-3.46 9.53,-6.32 14.67,-9.01 5.13,-2.85 10.64,-4.81 16.48,-7.5 -6.21,-1.11 -12.83,-1.01 -19.02,0.82 -6.28,1.56 -12.19,4.5 -17.45,8.24 -5.21,3.83 -9.9,8.33 -13.58,13.56 -3.68,5.19 -6.66,10.95 -7.93,17.24" /><path
         id="path286"
         style="fill:#d8508e;fill-opacity:1;fill-rule:nonzero;stroke:none"
         d="m 1739.28,2885.79 c -15.4,-8.37 -30.24,-17.83 -42.71,-29.37 -6.23,-5.89 -11.33,-12.1 -15.07,-19.64 -3.64,-7.44 -6.59,-15.3 -7.3,-23.28 -0.76,-7.94 0.5,-15.88 4.49,-22.43 3.99,-6.56 10.37,-11.5 17.84,-15.06 14.92,-7.19 32.42,-9.95 49.9,-10.92 -17.27,-3.27 -35.8,-3.14 -53.12,3.7 -8.53,3.36 -16.99,9.09 -22.21,17.6 -5.31,8.38 -7.05,18.66 -5.86,28.05 1.01,9.49 4.45,18.32 8.94,26.31 4.33,8.05 10.93,15.27 17.95,20.78 14.19,11.25 30.43,18.86 47.15,24.26" /><path
         id="path288"
         style="fill:#d4e9f3;fill-opacity:1;fill-rule:nonzero;stroke:none"
         d="m 7380,1280.72 c 0,-30.67 -174.38,-55.53 -389.5,-55.53 -215.11,0 -389.49,24.86 -389.49,55.53 0,30.67 174.38,55.54 389.49,55.54 215.12,0 389.5,-24.87 389.5,-55.54" /><path
         id="path290"
         style="fill:#ffe5b0;fill-opacity:1;fill-rule:nonzero;stroke:none"
         d="m 6803.44,2717.28 c 4.13,38.35 18.29,77.02 44.02,106.26 13.46,15.26 44.91,34.88 61.55,15.62 1.73,-0.5 3.36,-0.9 5.08,-1.2 0.28,0.1 0.28,0.29 0.65,0.4 67.04,15.66 119.55,-49.33 148.55,-100.65 36.49,-64.54 60.39,-144.96 129.55,-183.01 2.14,-1.23 3.61,-4.48 2.09,-6.73 -64.66,-95.68 -196.19,-126.89 -303.05,-93.31 -1.15,0.43 -1.93,1.06 -2.52,1.79 -2.24,-0.95 -4.91,-0.68 -6.72,1.89 -51.11,72.06 -88.9,169.41 -79.2,258.94" /><path
         id="path292"
         style="fill:#f9ebd4;fill-opacity:1;fill-rule:nonzero;stroke:none"
         d="m 6807.14,2632.55 c -3.61,22.63 -4.43,45.7 -3.36,68.7 1.06,23 4.56,46.04 11.32,68.36 7.05,22.06 17.63,43.96 34.94,60.4 4.55,3.79 9.32,7.32 13.92,10.94 5.49,3.22 11.1,5.11 17.08,6.04 11.9,1.71 24.18,-1.74 33.05,-9.03 -10.04,5.54 -21.62,7.57 -32.21,4.61 -5.21,-1.22 -10.47,-3.49 -14.62,-6.37 -4.09,-3.77 -8.27,-7.37 -12.22,-11.15 -14.88,-16.35 -24.59,-36.87 -31.2,-58.17 -6.71,-21.38 -10.37,-43.73 -13.07,-66.19 -1.26,-11.26 -2.17,-22.58 -2.64,-33.94 -0.82,-11.36 -0.87,-22.75 -0.99,-34.2" /><path
         id="path294"
         style="fill:#3b2b5b;fill-opacity:1;fill-rule:nonzero;stroke:none"
         d="m 7203.12,1287.32 c -4.58,9.29 -28.59,17.91 -47.66,23.76 5.69,-3.6 11.33,-8.75 2.36,-11.29 -13.12,-3.72 -41.89,0.46 -50.39,9.95 -3.21,-7.07 -4.02,-16.87 -3.94,-23.61 0.09,-8.68 107.03,-13.84 99.63,1.19" /><path
         id="path296"
         style="fill:#ff97a6;fill-opacity:1;fill-rule:nonzero;stroke:none"
         d="m 7157.82,1299.79 c 8.97,2.54 3.33,7.69 -2.36,11.29 -11.83,3.62 -21.76,6.19 -23.97,7.17 -5.76,2.58 -7.37,7.9 -7.37,7.9 l -5.99,1.26 c 0,0 3.86,-8.27 -7.28,-12.35 -1.87,-0.68 -2.49,-3.28 -3.42,-5.32 8.5,-9.49 37.27,-13.67 50.39,-9.95" /><path
         id="path298"
         style="fill:#3b2b5b;fill-opacity:1;fill-rule:nonzero;stroke:none"
         d="m 6723.98,1245.98 c -3.07,9.75 33.6,39.11 47.35,44.37 -4.2,-3.53 -10.29,-10.83 -4.06,-13.92 9.09,-4.53 27.63,1.57 34.09,11.14 1.93,-7.57 2.05,-17.92 1.68,-24.99 -0.48,-9.13 -71.85,-39.45 -79.06,-16.6" /><path
         id="path300"
         style="fill:#ff97a6;fill-opacity:1;fill-rule:nonzero;stroke:none"
         d="m 6756.39,1268.42 c -6.21,3.09 8.69,17.08 12.88,20.6 10.93,7.14 13.87,7.7 15.48,8.63 4.19,2.43 5.58,7.94 5.58,7.94 l 7.02,0.74 c 0,0 -2.18,-5.95 1.84,-12.99 0.9,-1.6 1.6,-3.57 2.17,-5.77 -6.46,-9.57 -35.87,-23.68 -44.97,-19.15" /><path
         id="path302"
         style="fill:#ff97a6;fill-opacity:1;fill-rule:nonzero;stroke:none"
         d="m 6840.02,2377.11 c -0.34,-2.88 -62.97,-59.83 -99.4,-129.96 -40.29,-77.52 -19.6,-151.97 -10.73,-277.12 9.37,-131.98 43.5,-539.49 56.94,-663.41 1.81,-16.72 9.05,-21.01 10.52,-0.29 9.27,130.02 140.6,843.43 140.6,843.43 l 180.74,-826.62 6.51,0.74 c 0,0 0.39,20.22 -1.42,41.36 -12.08,141.56 22.17,719.27 5.24,787.85 -35.49,143.88 -66.41,182.12 -72.82,221.32 -25.1,-11.17 -168.06,-20.26 -216.18,2.7" /><path
         id="path304"
         style="fill:#3b2b5b;fill-opacity:1;fill-rule:nonzero;stroke:none"
         d="m 6849.9,2388.89 c 0,0 -74.15,-78.81 -94.4,-115.88 -20.27,-37.08 -42.05,-58.67 -37.61,-168.43 4.44,-109.77 27.4,-370.61 27.4,-370.61 l 22.79,-0.6 7.14,268.28 20.24,-269.02 c 0,0 209.19,-59.63 355.19,80.79 0,0 -9.22,285.52 -17.68,338.76 -10.82,68.12 -85.75,243.64 -85.75,243.64 l -197.32,-6.93" /><path
         id="path306"
         style="fill:#30193b;fill-opacity:1;fill-rule:nonzero;stroke:none"
         d="m 6949.88,1724.47 c 0,0 9.15,0.11 13.8,0.2 60.26,1.23 137.58,38.76 186.97,88.75 0,0 -9.22,285.52 -17.68,338.76 -10.82,68.12 -85.75,243.64 -85.75,243.64 l -100.3,-8.2 c 0,0 45.37,-161.27 46.84,-312.23 1.85,-189.9 -43.88,-350.92 -43.88,-350.92" /><path
         id="path308"
         style="fill:#aacbe8;fill-opacity:1;fill-rule:nonzero;stroke:none"
         d="m 7070.7,2548.65 c -2.92,57.36 -44.73,105.03 -101.2,115.59 -32.63,6.11 -70.37,9.18 -109.15,4.15 -0.46,-0.05 -0.93,-0.12 -1.39,-0.18 -48.27,-6.88 -78.56,-56.07 -65,-102.89 19.83,-68.46 48.18,-170.67 46.06,-188.21 48.12,-22.96 191.08,-13.87 216.18,-2.7 -0.38,2.29 -0.28,4.4 0.38,6.33 15.94,46.39 16.87,113.95 14.12,167.91" /><path
         id="path310"
         style="fill:#3b2b5b;fill-opacity:1;fill-rule:nonzero;stroke:none"
         d="m 6908.68,2704.08 v 0 0 z" /><path
         id="path312"
         style="fill:#ff97a6;fill-opacity:1;fill-rule:nonzero;stroke:none"
         d="m 6916.13,2720.41 c 0,0 -7.82,-54.57 -5.17,-60.8 2.63,-6.23 12.84,-14.63 19.39,-1.14 6.54,13.5 2.13,61.5 2.13,61.5 l -16.35,0.44" /><path
         id="path314"
         style="fill:#c95d77;fill-opacity:1;fill-rule:nonzero;stroke:none"
         d="m 6911.35,2680.59 c 6.1,-4.88 14.6,-7.72 22.33,-2.84 0.51,9.98 0.14,21.25 -0.33,29.67 l -18.91,0.5 c -1.01,-7.86 -2.25,-18.17 -3.09,-27.33" /><path
         id="path316"
         style="fill:#ff97a6;fill-opacity:1;fill-rule:nonzero;stroke:none"
         d="m 6888.74,2717.41 c -1.94,3.72 -2.47,16.26 -2.46,28.93 0,17.25 14.68,30.81 31.88,29.75 4.33,-0.26 7.18,-0.27 7.95,0.43 9.27,-1.71 20.65,-1.76 28.82,-6.99 8.98,-5.74 9.35,-18.56 9.85,-28.09 0.48,-9.5 -2.06,-26.7 -7.67,-34.78 -5.13,-7.39 -20.32,-14.12 -29,-14.11 -26.07,0.03 -33.6,6.65 -39.37,24.86" /><path
         id="path318"
         style="fill:#92b4d6;fill-opacity:1;fill-rule:nonzero;stroke:none"
         d="m 7070.17,2558.27 c -3.05,50.57 -39.28,92.86 -88.81,103.58 -5.64,1.22 -11.47,2.37 -17.44,3.4 -2.51,0.43 -7.61,1.24 -7.61,1.24 0,0 32.12,-47.21 30.97,-126.57 -1.08,-73.59 -27.93,-176.91 -27.93,-176.91 0,0 2.94,0.06 5.71,0.14 41.67,1.24 79.36,6.02 91.14,11.26 -0.38,2.29 -0.28,4.4 0.38,6.33 16.9,49.2 16.93,122.19 13.59,177.53" /><path
         id="path320"
         style="fill:#ffe5b0;fill-opacity:1;fill-rule:nonzero;stroke:none"
         d="m 6872.44,2722.31 c 0,0 54.15,18.15 71.42,50.65 17.25,32.5 -62.26,34.18 -62.26,34.18 0,0 -33.79,-45.48 -9.16,-84.83" /><path
         id="path322"
         style="fill:#92b4d6;fill-opacity:1;fill-rule:nonzero;stroke:none"
         d="m 7038.78,2458.58 c -4.64,11.82 -4.19,47.91 -6.2,71.79 -1.85,21.78 -8.02,74.69 -21.09,92.74 -21.39,29.57 -37.7,46.67 9.83,18.92 45.53,-26.57 127.58,-127.15 88.37,-199.29 -14.38,-26.44 -74.93,-57.46 -91.39,-43.35 -7.9,6.78 26.9,42.83 20.48,59.19" /><path
         id="path324"
         style="fill:#aacbe8;fill-opacity:1;fill-rule:nonzero;stroke:none"
         d="m 6830.01,2658.43 c 22.16,4.1 -12.4,-75.75 -11.53,-142.61 0.69,-54.24 86.69,-107.01 4.29,-142.81 -46.54,-20.21 -65.15,25.03 -72.36,49.39 -9.76,32.92 -2.7,86.65 2.93,114.35 5.11,25.13 32.8,113.58 76.67,121.68" /><path
         id="path326"
         style="fill:#ff97a6;fill-opacity:1;fill-rule:nonzero;stroke:none"
         d="m 6811.14,2470.21 c -0.05,0.05 -0.11,0.1 -0.16,0.15 -3.37,3.88 -7.2,7.57 -11.31,10.62 -2.36,2.78 -5.37,6.14 -8.29,5.73 -0.93,-0.13 -1.69,-0.78 -1.65,-1.71 0.11,-2.37 2.14,-4.8 4.46,-6.86 -0.23,0.06 -0.44,0.19 -0.66,0.24 -3.67,2.13 -7.63,3.98 -11.84,4.34 -0.06,0 -0.07,-0.05 -0.13,-0.06 -2.86,0.42 -5.48,-0.32 -8.16,-1.11 -2.66,-0.22 -5.3,-0.55 -7.93,-1.07 -1.8,-0.36 -1.46,-2.51 -0.27,-3.21 1.01,-0.59 2.38,-1.02 3.76,-1.14 1.16,-0.26 2.37,-0.37 3.61,-0.4 -0.96,-0.49 -1.93,-0.98 -2.81,-1.43 v 0 c -7.02,-2.36 -13.72,-5.92 -12.18,-9.56 0.27,-0.64 0.87,-1.01 1.59,-1.07 0.77,-0.75 1.85,-1.19 3.08,-1.38 -3.47,-4.99 5,-3.36 7.36,-3.39 1.37,-0.02 2.75,0.21 4.14,0.47 0.02,0 0.04,0 0.06,0 -1.24,-0.99 -2.22,-2.17 -2.99,-3.49 -1.04,-1.04 -1.59,-2.24 -0.71,-3.56 0.18,-0.27 0.44,-0.43 0.71,-0.51 0.47,-0.34 1.02,-0.48 1.65,-0.37 1.24,0.24 2.4,0.79 3.54,1.43 2.39,0.34 4.76,1.49 7.08,2.33 0.88,0.32 1.81,0.5 2.74,0.7 0.72,0.15 1.45,0.31 2.17,0.46 0.23,0.04 0.47,0.07 0.7,0.1 1.69,-0.21 3.37,-0.29 5.08,-0.39 1.89,-0.42 3.77,-0.89 5.67,-1.52 1.28,-0.43 2.31,-0.83 3.38,-0.99 0.74,-0.28 1.5,-0.51 2.3,-0.62 3.53,-0.51 6.4,1.63 8.5,4.29 1.4,1.15 2.77,2.4 3.14,4.09 0.46,0.23 0.75,0.79 0.6,1.25 -0.26,0.83 -0.66,1.61 -1.17,2.34 -0.99,2.1 -2.93,4.12 -5.06,5.3" /><path
         id="path328"
         style="fill:#92b4d6;fill-opacity:1;fill-rule:nonzero;stroke:none"
         d="m 7068.66,2478.41 c 0,0 -245.57,13.91 -260.46,-11.84 -14.88,-25.74 -28.23,-49.69 25.48,-69.61 23.29,-8.64 207.55,-35.38 260.09,22.68 48.97,54.14 -25.11,58.77 -25.11,58.77" /><path
         id="path330"
         style="fill:#92b4d6;fill-opacity:1;fill-rule:nonzero;stroke:none"
         d="m 6820.61,2457.86 c -3.4,12.15 -5.51,24.06 -7.03,36.24 -1.5,12.12 -2.17,24.32 -2.09,36.5 0.02,12.17 0.9,24.33 2.74,36.32 1.55,12.04 4.63,23.8 7.97,35.38 -2.61,-11.79 -4.91,-23.63 -5.7,-35.64 -1.06,-11.97 -1.17,-24 -0.43,-35.95 0.67,-11.94 2.08,-23.85 4.31,-35.57 2.18,-11.67 5.09,-23.43 8.9,-34.33 l -8.67,-2.95" /><path
         id="path332"
         style="fill:#aacbe8;fill-opacity:1;fill-rule:nonzero;stroke:none"
         d="m 7046.28,2511.94 c -0.54,10.65 -1.89,21.6 -3.64,32.31 -1.83,10.74 -4.05,21.45 -7.16,31.9 -6.13,20.84 -15,41.45 -30.28,57.53 16.38,-14.98 26.94,-35.35 34.62,-56.1 3.92,-10.42 6.92,-21.15 9.56,-31.97 2.54,-10.87 4.67,-21.71 6.04,-33.01 l -9.14,-0.66" /><path
         id="path334"
         style="fill:#ff97a6;fill-opacity:1;fill-rule:nonzero;stroke:none"
         d="m 7087.96,2515.77 c 1.67,0.16 5.34,0.65 5.57,2.71 0.27,2.43 -4.33,3.02 -5.92,3.37 -3.74,0.82 -7.58,1.08 -11.42,1.17 0.57,0.25 1.12,0.5 1.69,0.75 1.15,0.42 2.3,0.86 3.41,1.36 1.18,0.55 0.3,1.94 -0.69,2.01 -0.07,0.01 -0.14,0 -0.22,0.01 -0.22,0.18 -0.49,0.31 -0.81,0.29 -0.21,-0.01 -0.45,-0.04 -0.66,-0.05 -6.8,0.88 -13.67,-0.33 -19.82,-3.07 -0.15,0.03 -0.3,0.07 -0.46,0.08 3.32,4.49 5.8,9.15 3.33,10.08 -2.65,1 -6.28,-3.73 -7.39,-5.23 -1.14,-1.53 -2.21,-3.17 -3.24,-4.85 -1.45,-1.78 -2.85,-3.59 -4.34,-5.39 -2.15,-2.61 -5,-4.48 -6.38,-7.53 -0.02,-0.02 -0.04,-0.03 -0.06,-0.04 -3.37,-3.42 -5.44,-8.43 -4.22,-13.02 0.55,-2.64 2.24,-4.85 5.84,-5.64 4.62,-1.02 14.78,-1.83 18.73,2.16 0.88,0.53 1.67,1.18 2.39,1.91 0.56,0.29 1.13,0.56 1.73,0.75 3.34,1.1 7.16,0 10.59,-0.2 2.37,-0.15 8.15,-1.1 9.16,1.73 0.68,0.61 0.92,1.65 -0.02,2.28 -4.1,2.74 -9.92,5.83 -15.62,7.33 6.77,0.2 13.79,1.6 19.95,2.49 1.12,0.15 1.6,1.05 1.11,1.99 -0.66,1.24 -1.69,1.96 -2.9,2.4 0.09,0.04 0.18,0.08 0.27,0.12 0.14,0.02 0.27,0.01 0.4,0.03" /><path
         id="path336"
         style="fill:#aacbe8;fill-opacity:1;fill-rule:nonzero;stroke:none"
         d="m 6766.78,2425.37 c 2.79,12.27 234.3,124.07 270.85,95.8 8.32,-6.44 8.48,-27.58 6.76,-41.93 -2.03,-17.06 -0.74,-31.02 -35.16,-49.89 l -204.29,-61.17 c 0,0 -50.57,2.72 -38.16,57.19" /><path
         id="path338"
         style="fill:#aacbe8;fill-opacity:1;fill-rule:nonzero;stroke:none"
         d="m 6937.28,2383.09 c 20.85,0.79 41.85,2.19 62.69,4.42 10.42,1.11 20.83,2.43 31.17,4.2 10.32,1.78 20.66,3.79 30.66,7.08 -9.75,-4.01 -19.96,-6.78 -30.2,-9.33 -10.24,-2.53 -20.59,-4.61 -30.98,-6.49 -20.79,-3.75 -41.66,-6.67 -62.73,-9.02 l -0.61,9.14" /><path
         id="path340"
         style="fill:#d4e9f3;fill-opacity:1;fill-rule:nonzero;stroke:none"
         d="m 7573.22,4806.99 c -2.08,0.15 -4.24,0.23 -6.33,0.3 0.82,0.89 1.35,2.16 1.35,3.64 0.97,51.03 -43.82,94.7 -94.4,92.84 -2.75,37.64 -10.71,82.34 -45.89,102.8 -22.76,13.24 -53.57,13.61 -72.98,-3.57 -3.93,49.77 -10.93,101.09 -43.14,140.96 -30.35,37.49 -77.29,51.85 -123.26,37.12 -101.31,-32.43 -118.12,-145.57 -136.87,-239.3 -10.41,45.23 -43.37,84.88 -88.45,99.6 -52.51,17.26 -111.57,-2.67 -146.16,-44.41 -6.33,29.83 -26.26,58.77 -58.47,62.56 -21.2,2.46 -42.55,-7.51 -54,-24.32 -5.22,66.43 1.93,135.61 -21.13,198.83 -17.55,48.06 -53.26,95.66 -105.11,108.61 -56.31,14.05 -108.9,-19.94 -144,-61.29 -40.1,-47.39 -66.06,-107.64 -77.96,-168.2 -12.95,-65.82 -9.75,-134.48 10.86,-198.31 -65.69,24.25 -136.72,-39.35 -108.09,-109.27 -1.79,-1.78 -1.04,-5.43 2.24,-5.65 84.79,-5.43 170.79,-1.94 255.73,-2.01 85.25,0 170.42,-0.08 255.67,-0.08 170.49,-0.07 340.91,-0.07 511.4,-0.07 96.11,0 192.96,-3.35 288.99,1.79 4.84,0.22 4.84,7.21 0,7.43" /><path
         id="path342"
         style="fill:#d4e9f3;fill-opacity:1;fill-rule:nonzero;stroke:none"
         d="m 2340.15,4206.16 c -39.79,7.73 -80.99,-4.56 -105.92,-30.07 -5.32,85.99 -92.53,155.91 -197.42,145.13 -110.28,-11.39 -174.23,-94.5 -210.17,-178.15 2.81,37.47 -41.27,64.76 -79.91,48.36 16.6,65.42 -39.66,128.01 -114.25,140.69 -84.07,14.34 -163.52,-27.96 -207.09,-88.66 -26.92,-37.47 -40.76,-80.71 -46.27,-124.34 -28.7,18.67 -68.24,23.62 -101.11,9.78 -34.8,-14.62 -57.16,-48.97 -51.84,-82.27 0.19,-1.05 1.09,-1.5 2.12,-1.5 l 0.12,-1.05 c -3.84,-0.33 -7.62,-0.78 -11.4,-1.34 -0.32,-0.05 -0.32,-0.55 0,-0.61 26.97,-3.89 55.49,-2.39 82.72,-2.5 29.67,-0.17 59.34,-0.28 88.94,-0.39 59.33,-0.22 118.61,-0.22 177.94,-0.28 118.54,-0.16 237.28,-1.78 355.69,2.17 169.68,-1.39 339.36,1.11 508.84,7.62 6.4,0.22 10.25,4.72 9.48,8.06 2.44,1.11 4.17,2.78 4.36,4.83 4.29,62.2 -28.32,129.73 -104.83,144.52" /><path
         id="path344"
         style="fill:#f4e7d0;fill-opacity:1;fill-rule:nonzero;stroke:none"
         d="m 2261.78,3357.11 c -12.47,10.2 -34.35,8.98 -46.46,-0.81 -17.2,-13.91 -11.28,-36.12 6.95,-45.45 18.08,-9.25 45.86,-8.15 56.07,12.02 4.34,8.58 4.02,18.91 -2.36,26.44 -3.49,4.13 -8.94,7.62 -14.2,7.8" /><path
         id="path346"
         style="fill:#f4e7d0;fill-opacity:1;fill-rule:nonzero;stroke:none"
         d="m 2330.33,3304.03 c -5.81,4.73 -18.89,4.29 -23.57,-1.61 -5.63,-0.58 -10.96,-4.45 -12.35,-11.09 -3.3,-15.81 13.53,-26.04 27.36,-20.83 12.5,4.71 20.52,23.8 8.56,33.53" /><path
         id="path348"
         style="fill:#f4e7d0;fill-opacity:1;fill-rule:nonzero;stroke:none"
         d="m 2162.28,3332.02 c 58,33.98 79.83,110.06 41.91,168.32 -39.65,60.91 -123.65,70.03 -177.84,24.29 -14.11,59.87 -103.02,74.33 -153.53,62.1 -67.07,-16.25 -113.98,-74.56 -117.45,-143.35 -3.46,-68.4 39.02,-129.66 103.23,-152.78 15.23,-5.49 31.31,-8.79 47.49,-9.4 7.36,-0.28 14.72,0.08 22.04,0.84 18.73,1.97 26.53,-5.85 37.17,-18.11 23.26,-26.83 58.91,-38.74 93.73,-37.87 35.82,0.9 84.56,13.89 107.64,43.79 14.59,18.91 14.13,47.86 -4.39,62.17" /><path
         id="path350"
         style="fill:#f4e7d0;fill-opacity:1;fill-rule:nonzero;stroke:none"
         d="m 4974.86,4801.51 c 181.97,22.17 371.2,-21 525.55,-119.88 44.89,-28.76 91.08,-70.35 89.6,-123.64 -1.75,-63.01 -67.79,-102.79 -127.39,-123.34 -223.85,-77.19 -472.39,-55.52 -697.98,16.41 -62.26,19.84 -132.31,53.55 -144.16,117.8 -12.15,65.91 45.01,123.83 102.47,158.32 161.51,96.96 369.28,112.45 543.38,40.49" /><path
         id="path352"
         style="fill:#f4e7d0;fill-opacity:1;fill-rule:nonzero;stroke:none"
         d="m 4974.86,4798.9 c 170.65,11.05 338.86,-16.9 488.61,-102.68 59.84,-34.28 155.6,-99.76 106.75,-180.24 -40.21,-66.25 -138.82,-87.04 -208.52,-101.98 -174.19,-37.35 -356.62,-21.5 -527.6,24.3 -66.09,17.71 -157.1,37.31 -194.93,101.22 -46.91,79.26 38.05,153.61 100.32,188.83 79.74,45.08 170.19,70.63 261.55,75.81 91.04,5.16 178.15,-11.88 264.34,-39.9 3.77,-1.23 6.36,4.69 2.74,6.47 -154.19,75.68 -351.19,61.08 -503.12,-12.51 -65.46,-31.7 -148.77,-84.68 -153.27,-165.88 -4.13,-74.49 66.42,-117.43 127.38,-140.21 178.86,-66.83 385.25,-90.88 573.96,-61.61 80.87,12.55 178.71,31.17 242.25,87.01 24.39,21.42 41.93,50.54 41.59,83.76 -0.37,36.71 -22.12,68.07 -48.18,92.15 -34.69,32.05 -78.09,55.6 -120.19,76.31 -47.48,23.35 -97.27,42.05 -148.37,55.72 -98.86,26.44 -204.78,35.67 -306,18.56 -2.89,-0.49 -2.24,-5.32 0.69,-5.13 v 0" /><path
         id="path354"
         style="fill:#f4e7d0;fill-opacity:1;fill-rule:nonzero;stroke:none"
         d="m 4961.35,4467.07 c -40.34,-102.51 -129,-184.79 -234.23,-217.39 38.96,21.69 70.22,56.92 87.13,98.19 16.9,41.27 19.32,88.3 6.77,131.09 45.46,0.04 90.92,0.07 136.39,0.11" /><path
         id="path356"
         style="fill:#f4e7d0;fill-opacity:1;fill-rule:nonzero;stroke:none"
         d="m 4959.68,4468.04 c -48.87,-100.27 -125.64,-179.34 -233.79,-213.91 1.19,-2.81 2.37,-5.62 3.55,-8.43 82.77,48 122.08,142.13 97.1,234.78 -1.83,-2.42 -3.68,-4.83 -5.52,-7.25 24.24,-0.04 48.49,-0.08 72.74,-0.12 21.41,-0.03 43.71,-2.13 64.81,1.75 4.16,0.77 4.17,7.66 0,8.42 -21.1,3.85 -43.4,1.72 -64.81,1.65 -24.25,-0.08 -48.5,-0.16 -72.74,-0.24 -3.73,-0.01 -6.51,-3.65 -5.53,-7.25 23.81,-87.12 -12.46,-178.26 -90.7,-223.78 -4.43,-2.57 -1.52,-10.05 3.55,-8.42 104.04,33.4 200.28,115.41 234.87,221.31 0.68,2.05 -2.57,3.48 -3.53,1.49 v 0" /><path
         id="path358"
         style="fill:#ffffff;fill-opacity:1;fill-rule:nonzero;stroke:none"
         d="m 5228.89,4617.83 c 3.59,0.58 7.36,0.26 10.98,-0.7 -0.25,-3.05 1.1,-6.12 4.91,-7.31 19.26,-6.01 8.38,-29.39 -4.76,-34.96 -13.25,-5.61 -25.11,2.59 -27.71,15.99 -2.35,12.14 3.52,24.88 16.58,26.98 z m -28.92,-38.59 c 9.95,-23.12 37.78,-27.6 56.58,-11.96 8.85,7.35 13.47,18.8 13.24,29.65 2.62,1.33 4.32,3.98 3.07,7.71 -7.09,21.24 -30.87,34.13 -52.59,26.7 -21.23,-7.27 -28.75,-32.46 -20.3,-52.1" /><path
         id="path360"
         style="fill:#ffffff;fill-opacity:1;fill-rule:nonzero;stroke:none"
         d="m 5076.58,4623.86 c 6.56,5.66 15.33,7.71 23.76,6.74 -3.53,-4.58 -2.22,-12.52 4.9,-12.12 24.34,1.39 27.32,-28.94 10.6,-41.36 -12.17,-9.05 -31.39,-8.5 -41.63,3.29 -10.43,12 -9.89,32.87 2.37,43.45 z m -7.69,-59.29 c 20.53,-15.46 52.88,-10.22 66.74,11.68 9.78,15.47 7.28,35.87 -4.08,47.76 1.57,2.46 1.7,5.6 -1.1,8.28 -18.45,17.67 -49.84,19.24 -67.61,-0.64 -16.89,-18.92 -14.46,-51.65 6.05,-67.08" /><path
         id="path362"
         style="fill:#ffffff;fill-opacity:1;fill-rule:nonzero;stroke:none"
         d="m 4967.59,4625.83 c 3.32,0.56 6.72,0.61 10.13,0.47 1.11,-1.78 2.89,-3.18 5.49,-3.54 16.52,-2.29 11.97,-22.23 1.64,-28.73 -10.07,-6.33 -25.41,-4.65 -31.59,6.27 -7.04,12.44 1.89,23.42 14.33,25.53 z M 4953,4579.87 c 18.05,-9.98 42.47,-3.8 52.74,14.37 6.11,10.78 4.56,22.93 -1.8,31.78 3.6,3.8 3.79,10.6 -2.58,12.04 -18.42,4.16 -42.4,7.7 -57.17,-7.22 -15.07,-15.22 -9.17,-41.03 8.81,-50.97" /><path
         id="path364"
         style="fill:#d4e9f3;fill-opacity:1;fill-rule:nonzero;stroke:none"
         d="m 5118.08,757.051 c 0,-75.563 -345.85,-136.801 -772.47,-136.801 -426.63,0 -772.48,61.238 -772.48,136.801 0,75.551 345.85,136.789 772.48,136.789 426.62,0 772.47,-61.238 772.47,-136.789" /><path
         id="path366"
         style="fill:#30193b;fill-opacity:1;fill-rule:nonzero;stroke:none"
         d="m 3746.07,785.629 c -4.98,33.473 50.93,30.351 84.56,39.762 -10.15,-6.121 -20.27,-14.969 -4.75,-19.969 22.7,-7.32 73.19,-1.391 88.57,15.047 5.21,-12.758 6.08,-30.25 5.56,-42.231 -0.65,-15.457 -169.55,-22.129 -173.94,7.391" /><path
         id="path368"
         style="fill:#ff97a6;fill-opacity:1;fill-rule:nonzero;stroke:none"
         d="m 3825.88,805.422 c -15.52,5 -5.4,13.848 4.75,19.969 20.87,5.828 38.36,9.859 42.27,11.5 10.2,4.269 13.32,13.648 13.32,13.648 l 10.54,1.941 c 0,0 16.18,-28.32 17.69,-32.011 -15.38,-16.438 -65.87,-22.367 -88.57,-15.047" /><path
         id="path370"
         style="fill:#30193b;fill-opacity:1;fill-rule:nonzero;stroke:none"
         d="m 5041.7,736.809 c 3.65,35.511 -42.76,33.812 -72.32,46.453 8.52,-6.801 16.67,-16.102 1.9,-18.774 -21.62,-3.918 -66.97,7.594 -78.99,24.422 -6.32,-10.98 -9.25,-26.808 -10.25,-37.789 -1.29,-14.16 156.85,-41.59 159.66,-14.312" /><path
         id="path372"
         style="fill:#ff97a6;fill-opacity:1;fill-rule:nonzero;stroke:none"
         d="m 4971.28,764.488 c 14.77,2.672 6.62,11.973 -1.9,18.774 -18.33,7.828 -33.79,13.617 -37.16,15.578 -8.79,5.129 -10.49,14.058 -10.49,14.058 l -9.38,3.032 c 0,0 -18.24,-23.828 -20.06,-27.02 12.02,-16.828 57.37,-28.34 78.99,-24.422" /><path
         id="path374"
         style="fill:#3b2b5b;fill-opacity:1;fill-rule:nonzero;stroke:none"
         d="m 4011.35,3284.92 c -0.91,-5.7 -173.63,-195.6 -214.15,-347.79 -122.12,-458.52 89.02,-2086.591 89.02,-2086.591 l 54.78,14.75 242.57,1843.381 671.94,-1897.061 76.52,0.743 c 0,0 -164.05,870.408 -207.08,1346.298 -25.49,281.82 -48.16,708.53 -278.41,1105.43 -74.42,21.3 -317.46,22.66 -435.19,20.84" /><path
         id="path376"
         style="fill:#30193b;fill-opacity:1;fill-rule:nonzero;stroke:none"
         d="m 4891.07,811.961 40.96,0.391 c 0,0 -124.62,853.408 -167.65,1329.298 -25.48,281.81 -87.59,725.53 -317.84,1122.43 -35.75,10.23 -181.75,-7.85 -262.73,-4.96 -37.65,1.35 32.11,-333.54 259.05,-985.6 224.97,-646.38 448.21,-1461.559 448.21,-1461.559" /><path
         id="path378"
         style="fill:#ffe5b0;fill-opacity:1;fill-rule:nonzero;stroke:none"
         d="m 4024.34,3671.43 c -49.14,-215.38 -44.58,-262.71 -27.92,-393.46 7.4,-58.13 479.43,-121.72 492.39,-91.5 4.71,10.98 -7.23,74.94 12.6,120.15 95.3,217.4 166.49,310.14 152.74,401.22 -9.58,63.44 6.01,130.67 -293.45,226.61 -93.95,30.11 -130.84,27.57 -166.07,13.95 -62.41,-24.12 -156.08,-214.7 -170.29,-276.97" /><path
         id="path380"
         style="fill:#f9cb9d;fill-opacity:1;fill-rule:nonzero;stroke:none"
         d="m 4175.14,3210.77 c 0,0 100.49,-17.02 106.05,-17.8 105.79,-14.85 201.87,-19.91 207.62,-6.5 4.71,10.98 -7.23,74.94 12.6,120.15 95.3,217.4 162.49,292.68 148.74,383.76 -9.14,60.55 9.81,141.65 -250.46,231.14 -6.76,2.33 -122.35,-218.57 -179.2,-417.04 -45.9,-160.26 -45.35,-293.71 -45.35,-293.71" /><path
         id="path382"
         style="fill:#1f6864;fill-opacity:1;fill-rule:nonzero;stroke:none"
         d="m 4434.04,3408.38 c 4.97,28.49 46.96,99.71 70.48,149.34 21.47,45.28 32.53,97.49 29.15,147.49 -5.54,81.91 9.45,190.13 89.09,102.61 79.53,-87.38 77.46,-406.8 -76.72,-507.68 -56.5,-36.97 -202.93,-33.02 -217.03,12.83 -6.76,22.01 98.16,55.98 105.03,95.41" /><path
         id="path384"
         style="fill:#1f6864;fill-opacity:1;fill-rule:nonzero;stroke:none"
         d="m 4459.25,3898.8 c 0,0 51.02,-6.92 144.66,-72.87 94.19,-66.33 -96.29,-596.66 -96.29,-596.66 0,0 9.56,-21.97 68.44,-131.76 58.9,-109.8 85.54,-239.61 95.33,-258.29 0,0 -327.12,-102.66 -374,-11.55 -46.87,91.12 8.57,612.13 41.99,704.35 33.4,92.21 139.61,307.15 119.87,366.78" /><path
         id="path386"
         style="fill:#357a5f;fill-opacity:1;fill-rule:nonzero;stroke:none"
         d="m 4264.07,3955.03 c 47.14,-16.63 -75.34,-163.93 -165.74,-274.28 -81.73,-99.79 18.09,-302.17 -181.62,-282.98 -112.8,10.84 -94.78,125.77 -79.73,184.44 20.35,79.32 97.42,182.75 140.98,233.81 39.49,46.3 192.74,171.94 286.11,139.01" /><path
         id="path388"
         style="fill:#ff97a6;fill-opacity:1;fill-rule:nonzero;stroke:none"
         d="m 3993.24,3650.47 c -0.03,0.17 -0.09,0.32 -0.12,0.49 -1.75,11.36 -4.58,22.83 -8.64,33.33 -1.15,8.07 -2.86,18 -8.67,20.35 -1.86,0.76 -3.99,0.29 -4.98,-1.61 -2.5,-4.81 -1.56,-11.84 0.37,-18.43 -0.36,0.36 -0.59,0.83 -0.96,1.18 -4.27,8.2 -9.44,16.17 -16.75,21.43 -0.1,0.07 -0.2,-0.02 -0.3,0.01 -4.78,3.94 -10.42,5.32 -16.25,6.65 -5.12,2.44 -10.35,4.65 -15.76,6.46 -3.69,1.23 -5.53,-3.4 -4.15,-6.08 1.17,-2.3 3.2,-4.62 5.6,-6.35 1.82,-1.77 3.91,-3.3 6.15,-4.71 -2.31,0.09 -4.63,0.17 -6.78,0.22 h -0.01 c -15.54,2.9 -31.91,3.07 -33.22,-5.8 -0.23,-1.58 0.42,-2.97 1.69,-3.86 0.56,-2.33 2.03,-4.38 4.08,-6.06 -12.05,-6.18 5.34,-12.1 9.63,-14.72 2.48,-1.52 5.29,-2.58 8.13,-3.54 0.04,-0.02 0.07,-0.04 0.11,-0.07 -3.41,-0.63 -6.54,-1.9 -9.45,-3.7 -3.11,-0.93 -5.49,-2.72 -5.37,-6.3 0.02,-0.75 0.31,-1.32 0.72,-1.78 0.48,-1.18 1.32,-2.07 2.62,-2.52 2.51,-0.88 5.28,-1.04 8.09,-1.01 4.77,-1.91 10.45,-2.19 15.65,-3.02 2,-0.33 3.91,-0.98 5.84,-1.58 1.5,-0.47 3,-0.95 4.5,-1.43 0.46,-0.18 0.93,-0.37 1.4,-0.56 2.84,-2.26 5.83,-4.24 8.87,-6.28 2.99,-2.89 5.91,-5.85 8.67,-9.16 1.87,-2.24 3.28,-4.14 5.06,-5.63 1.04,-1.35 2.17,-2.62 3.51,-3.72 5.91,-4.84 13.6,-3.69 20.49,-0.68 3.87,0.78 7.81,1.78 10.43,4.73 1.1,-0.04 2.26,0.76 2.52,1.84 0.47,1.93 0.62,3.91 0.53,5.91 0.55,5.24 -0.69,11.36 -3.25,16" /><path
         id="path390"
         style="fill:none;stroke:#3b2b5b;stroke-width:7.5;stroke-linecap:round;stroke-linejoin:round;stroke-miterlimit:4;stroke-dasharray:none;stroke-opacity:1"
         d="m 4583.75,4088.97 c -0.28,-0.02 -0.3,0.43 -0.02,0.45" /><path
         id="path392"
         style="fill:#ffcb48;fill-opacity:1;fill-rule:nonzero;stroke:none"
         d="m 4338.92,4232.58 c 0,0 -15.94,-125.96 -8.68,-167.15 7.28,-41.2 90.54,112.47 90.54,112.47 l -81.86,54.68" /><path
         id="path394"
         style="fill:#357a5f;fill-opacity:1;fill-rule:nonzero;stroke:none"
         d="m 4323.94,3493.93 c 0,0 164.6,199.96 179.02,226.53 l -25.98,32.86 35.04,-6.9 c 0,0 -5.89,96.17 -15.82,113.3 -9.93,17.14 -52.2,81.37 -52.2,81.37 0,0 9.11,-70.87 -41.86,-228.74 -50.97,-157.86 -78.2,-218.42 -78.2,-218.42" /><path
         id="path396"
         style="fill:#30193b;fill-opacity:1;fill-rule:nonzero;stroke:none"
         d="m 4364.83,3894.14 2.68,-32.65 14.24,-5.83 33.09,19.71 c 0,0 -20.03,34.47 -50.01,18.77" /><path
         id="path398"
         style="fill:#30193b;fill-opacity:1;fill-rule:nonzero;stroke:none"
         d="m 4385.44,3870.99 c 0,0 -39.46,-215.42 -56.5,-286.24 -17.05,-70.83 -36.69,-83.58 -36.69,-83.58 l -70.2,-13.2 -34.36,64.42 c 0,0 155.49,299.13 187.42,321.08 31.93,21.94 10.33,-2.48 10.33,-2.48" /><path
         id="path400"
         style="fill:#357a5f;fill-opacity:1;fill-rule:nonzero;stroke:none"
         d="m 4355.08,3945.47 c 7.55,-1.58 -219.78,-280.57 -255.01,-409.38 -35.23,-128.8 -28.31,-314.25 -28.31,-314.25 0,0 -119.3,-384.68 -178,-390.35 -58.7,-5.67 -156.18,35.51 -156.51,50.5 0,0 129.33,314.64 218.39,393.71 0,0 -5.23,449.66 100.6,571.78 105.83,122.12 161.67,126.48 298.84,97.99" /><path
         id="path402"
         style="fill:#1f6864;fill-opacity:1;fill-rule:nonzero;stroke:none"
         d="m 4510.21,3455.73 c 0,0 -463.68,243.37 -516.92,202.62 -53.25,-40.76 -101.8,-79.08 -16.36,-167.56 37.04,-38.36 352.91,-273.78 509.82,-198.43 146.3,70.25 23.46,163.37 23.46,163.37" /><path
         id="path404"
         style="fill:#1f6864;fill-opacity:1;fill-rule:nonzero;stroke:none"
         d="m 4127.5,3571.57 c 0,0 45.25,255.01 56.1,283.23 l 41.86,1.57 -27.99,22.18 c 0,0 76.97,57.95 96.46,61.51 19.47,3.57 95.77,13.12 95.77,13.12 0,0 -59.82,-39.08 -146.81,-180.33 -87,-141.25 -115.39,-201.28 -115.39,-201.28" /><path
         id="path406"
         style="fill:#ff97a6;fill-opacity:1;fill-rule:nonzero;stroke:none"
         d="m 4402.63,4009.13 c 0,0 -32.77,-85.6 -26.49,-96.9 6.28,-11.31 33.6,-29.46 54.77,-10.3 21.18,19.16 17.97,99.37 17.97,99.37 l -46.25,7.83" /><path
         id="path408"
         style="fill:#c95d77;fill-opacity:1;fill-rule:nonzero;stroke:none"
         d="m 4383.45,3953.48 c 16.35,-10.63 53.79,-11.99 64.48,3.65 3.36,16.06 1.91,17.07 2.23,30.99 l -54.73,1.38 c -4.41,-12.37 -7.82,-21.44 -11.98,-36.02" /><path
         id="path410"
         style="fill:#ff97a6;fill-opacity:1;fill-rule:nonzero;stroke:none"
         d="m 4470.64,3992.07 c 15.5,11.94 40.73,79 40.73,79 7.33,52.11 -101.35,81.17 -121.56,78.41 -22.17,-3.03 -34.11,-27.07 -43.39,-44.76 -9.27,-17.64 -19.49,-52.59 -15.83,-72.9 3.33,-18.56 26.44,-44.76 43.04,-52.38 49.85,-22.87 70.03,-16.93 97.01,12.63" /><path
         id="path412"
         style="fill:#ffcb48;fill-opacity:1;fill-rule:nonzero;stroke:none"
         d="m 4572,4202.95 c 3.1,0.23 55.03,-32.93 36.19,-75.56 -18.83,-42.61 -134.51,-133.59 -134.51,-133.59 0,0 47.27,107.67 -10.74,144.87 -33.12,21.23 109.06,64.28 109.06,64.28" /><path
         id="path414"
         style="fill:#f9cb9d;fill-opacity:1;fill-rule:nonzero;stroke:none"
         d="m 4383.45,3953.48 c 0,0 -9.54,-13.93 10.98,-57.43 l -33.68,-19.13 c 0,0 -28.23,33.38 22.7,76.56" /><path
         id="path416"
         style="fill:#ffe5b0;fill-opacity:1;fill-rule:nonzero;stroke:none"
         d="m 4444.34,3932.84 c 0,0 2.55,-14.43 -52.64,-35.78 l 9.44,-41.62 c 0,0 63.05,10.61 43.2,77.4" /><path
         id="path418"
         style="fill:#1f6864;fill-opacity:1;fill-rule:nonzero;stroke:none"
         d="m 4016.98,3650.41 c 8.97,26.6 20.07,51.91 32.46,76.74 12.35,24.81 26.31,48.79 41.55,71.87 7.39,11.7 15.76,22.74 23.78,33.99 8.69,10.76 16.81,21.97 26.16,32.15 17.75,21.21 37.94,40.17 58.46,58.54 -20.02,-18.94 -39.61,-38.39 -56.7,-60.01 -9.03,-10.39 -16.81,-21.79 -25.15,-32.71 -7.67,-11.41 -15.67,-22.6 -22.7,-34.42 -14.49,-23.34 -27.67,-47.5 -39.21,-72.4 -11.57,-24.82 -21.93,-50.47 -29.87,-76.36 l -8.78,2.61" /><path
         id="path420"
         style="fill:#357a5f;fill-opacity:1;fill-rule:nonzero;stroke:none"
         d="m 4507.3,3547.41 c 15.25,29.98 29.1,61 40.83,92.68 5.78,15.88 11.26,31.91 15.46,48.3 4.2,16.36 7.67,33 8.68,49.96 -0.25,-16.99 -2.96,-33.86 -6.45,-50.49 -3.48,-16.67 -8.27,-33.02 -13.37,-49.26 -10.38,-32.45 -22.82,-64.11 -36.94,-95.26 l -8.21,4.07" /><path
         id="path422"
         style="fill:#357a5f;fill-opacity:1;fill-rule:nonzero;stroke:none"
         d="m 4546.04,3300.14 c -22.24,-10 -46.34,-15.43 -70.53,-18.63 -24.25,-3.17 -48.8,-3.34 -73.21,-2.01 -12.14,1.32 -24.35,2.2 -36.37,4.47 -12.1,1.72 -24.05,4.29 -35.89,7.24 -11.93,2.59 -23.45,6.76 -35.16,10.09 -11.5,4.02 -22.81,8.61 -34.18,12.89 11.64,-3.58 23.17,-7.46 34.84,-10.76 11.79,-2.86 23.36,-6.63 35.3,-8.79 23.65,-5.32 47.67,-8.72 71.79,-10.58 24.14,-1.7 48.4,-1.46 72.48,0.93 12.05,1.1 24.04,2.93 35.9,5.43 11.86,2.41 23.69,5.33 35.03,9.72" /><path
         id="path424"
         style="fill:#ff97a6;fill-opacity:1;fill-rule:nonzero;stroke:none"
         d="m 4582.94,3516.69 c 3.42,-1.02 11.06,-3.06 13.37,1.09 2.73,4.91 -5.75,9.96 -8.56,12.02 -6.58,4.83 -13.88,8.56 -21.3,11.94 1.32,0.05 2.64,0.11 3.97,0.17 2.65,-0.08 5.29,-0.11 7.94,0.05 2.8,0.17 2.34,3.81 0.46,4.81 -0.14,0.07 -0.28,0.11 -0.41,0.18 -0.28,0.56 -0.69,1.04 -1.35,1.28 -0.43,0.15 -0.91,0.3 -1.35,0.45 -12.53,7.49 -27.08,10.65 -41.61,10 -0.27,0.19 -0.53,0.39 -0.82,0.54 10.56,6.7 19.65,14.44 15.66,18.46 -4.3,4.32 -15.7,-2.64 -19.22,-4.86 -3.63,-2.28 -7.21,-4.85 -10.76,-7.52 -4.45,-2.54 -8.85,-5.19 -13.38,-7.75 -6.59,-3.7 -13.88,-5.28 -19.37,-10.53 -0.04,-0.02 -0.09,-0.03 -0.14,-0.05 -9.7,-4.38 -18.3,-13.21 -20.06,-23.89 -1.33,-6.02 0.01,-12.07 6.33,-16.72 8.13,-5.98 27.33,-16.12 38.66,-11.03 2.21,0.42 4.36,1.11 6.43,2.04 1.36,0.17 2.73,0.25 4.07,0.17 7.54,-0.48 14.03,-5.96 20.57,-9.25 4.51,-2.26 14.99,-9.08 19.51,-3.95 1.92,0.72 3.32,2.69 2.03,4.81 -5.52,9.17 -14.14,20.51 -23.95,28.39 13.44,-5.18 28.47,-8.08 41.37,-11.34 2.31,-0.58 4.09,0.91 3.96,3.29 -0.16,3.16 -1.53,5.54 -3.52,7.47 0.23,-0.01 0.44,0 0.66,0.02 0.27,-0.08 0.54,-0.21 0.81,-0.29" /><path
         id="path426"
         style="fill:#357a5f;fill-opacity:1;fill-rule:nonzero;stroke:none"
         d="m 3867.94,3564.59 c 16.42,23.65 571.48,71.8 618.27,-17.57 10.65,-20.33 -7.81,-65.11 -23.93,-94.03 -19.17,-34.36 -29.05,-64.91 -113.58,-76.8 l -418.54,20.92 c 0,0 -135.05,62.54 -62.22,167.48" /><path
         id="path428"
         style="fill:#1f6864;fill-opacity:1;fill-rule:nonzero;stroke:none"
         d="m 4246.44,3369.83 -341.03,29.46 341.69,-20.33 z" /><path
         id="path430"
         style="fill:#ffcb48;fill-opacity:1;fill-rule:nonzero;stroke:none"
         d="m 4430.34,4112.97 c -55.27,9.91 -138.46,58.94 -151.18,187.76 -12.71,128.82 80.89,163.93 80.89,163.93 0,0 -23.22,-71.94 -2.62,-107.38 0,0 23.71,40.52 39.77,44.73 0,0 -12.5,-55.78 12.22,-86.03 24.74,-30.25 168.66,-38.56 160.88,-115.06 -7.76,-76.5 -98.67,-95.35 -139.96,-87.95" /><path
         id="path432"
         style="fill:#f9da95;fill-opacity:1;fill-rule:nonzero;stroke:none"
         d="m 4360.05,4464.66 c -24.07,-12.66 -44.25,-31.92 -57.84,-54.77 -6.81,-11.43 -11.63,-23.97 -14.27,-36.92 -2.7,-12.94 -4.49,-26.32 -4.79,-39.67 -1.03,-26.75 2.81,-53.52 9.48,-79.36 7.04,-25.67 17.42,-50.96 33.87,-71.7 l 0.2,-0.24 0.17,-0.28 c 5.13,-8.57 12.22,-16.82 19.75,-24.09 7.62,-7.29 15.94,-13.93 24.91,-19.62 9.06,-5.5 18.28,-10.98 28.26,-14.87 9.84,-4.25 20.14,-7.3 30.55,-10.17 -5.28,1.04 -10.65,1.79 -15.92,3.07 -5.18,1.5 -10.52,2.61 -15.59,4.56 -10.36,3.3 -20.29,7.94 -29.83,13.25 -9.48,5.44 -18.38,11.92 -26.66,19.16 -8.25,7.36 -15.78,15.2 -22.16,24.85 l 0.35,-0.51 c -17.78,21.78 -28.8,47.77 -36.51,74.23 -7.45,26.64 -10.33,54.47 -9.07,82.06 1.23,27.3 6.79,55.89 22.5,79.18 15.07,23.36 37.47,41.48 62.6,51.84" /></g></g></svg>